<svg xmlns="http://www.w3.org/2000/svg" viewBox="0 0 89 89" width="89" height="89">
    <path d="M41.8147 83.2973L5.87012 62.4934V20.8243L41.8147 0L77.7593 20.8243V62.473L41.8147 83.2973ZM8.30925 61.0616L41.8147 80.4704L75.3202 61.0616V22.2357L41.8147 2.82689L8.30925 22.2357V61.0616Z" fill="white"/>
    <path d="M7.08989 27.5876C10.3319 27.5876 12.9601 24.9504 12.9601 21.6973C12.9601 18.4441 10.3319 15.8069 7.08989 15.8069C3.84789 15.8069 1.21973 18.4441 1.21973 21.6973C1.21973 24.9504 3.84789 27.5876 7.08989 27.5876Z" fill="black"/>
    <path d="M7.08973 28.8114C5.68734 28.8114 4.31646 28.394 3.15047 27.6122C1.98448 26.8303 1.07577 25.7189 0.539288 24.4188C0.00280236 23.1186 -0.13736 21.688 0.136528 20.3079C0.410417 18.9277 1.08605 17.6601 2.07798 16.6654C3.0699 15.6706 4.33355 14.9934 5.70909 14.7193C7.08463 14.4453 8.51027 14.5868 9.80567 15.1258C11.1011 15.6649 12.2081 16.5774 12.9866 17.7478C13.7651 18.9183 14.1803 20.2941 14.1795 21.7013C14.1773 23.5871 13.4295 25.3949 12.1003 26.728C10.7711 28.061 8.96901 28.8103 7.08973 28.8114V28.8114ZM7.08973 17.0347C6.16993 17.0347 5.27078 17.3084 4.506 17.8212C3.74121 18.334 3.14513 19.0628 2.79314 19.9155C2.44114 20.7682 2.34905 21.7065 2.52849 22.6117C2.70793 23.517 3.15086 24.3485 3.80126 25.0011C4.45166 25.6538 5.28032 26.0982 6.18245 26.2783C7.08457 26.4583 8.01966 26.3659 8.86944 26.0127C9.71923 25.6595 10.4456 25.0614 10.9566 24.294C11.4676 23.5265 11.7403 22.6243 11.7403 21.7013C11.7393 20.464 11.2489 19.2777 10.377 18.4027C9.50509 17.5278 8.32282 17.0358 7.08973 17.0347V17.0347Z" fill="white"/>
    <path d="M76.5396 27.5876C79.7816 27.5876 82.4098 24.9504 82.4098 21.6973C82.4098 18.4441 79.7816 15.8069 76.5396 15.8069C73.2976 15.8069 70.6694 18.4441 70.6694 21.6973C70.6694 24.9504 73.2976 27.5876 76.5396 27.5876Z" fill="#0074FF"/>
    <path d="M76.5399 28.8114C75.1375 28.8114 73.7666 28.394 72.6007 27.6122C71.4347 26.8303 70.526 25.7189 69.9895 24.4188C69.453 23.1186 69.3128 21.688 69.5867 20.3079C69.8606 18.9277 70.5362 17.6601 71.5282 16.6654C72.5201 15.6706 73.7837 14.9934 75.1593 14.7193C76.5348 14.4453 77.9605 14.5868 79.2559 15.1258C80.5513 15.6649 81.6583 16.5774 82.4368 17.7478C83.2153 18.9183 83.6305 20.2941 83.6297 21.7013C83.6264 23.5868 82.8783 25.394 81.5493 26.7268C80.2203 28.0596 78.4189 28.8092 76.5399 28.8114V28.8114ZM76.5399 17.0347C75.6201 17.0347 74.721 17.3084 73.9562 17.8212C73.1914 18.334 72.5953 19.0628 72.2433 19.9155C71.8913 20.7682 71.7992 21.7065 71.9787 22.6117C72.1581 23.517 72.6011 24.3485 73.2515 25.0011C73.9019 25.6538 74.7305 26.0982 75.6326 26.2783C76.5348 26.4583 77.4699 26.3659 78.3196 26.0127C79.1694 25.6595 79.8957 25.0614 80.4068 24.294C80.9178 23.5265 81.1905 22.6243 81.1905 21.7013C81.1884 20.4643 80.6977 19.2786 79.826 18.4039C78.9543 17.5292 77.7727 17.0369 76.5399 17.0347V17.0347Z" fill="white"/>
    <path d="M41.815 87.7762C45.057 87.7762 47.6852 85.139 47.6852 81.8858C47.6852 78.6327 45.057 75.9955 41.815 75.9955C38.573 75.9955 35.9448 78.6327 35.9448 81.8858C35.9448 85.139 38.573 87.7762 41.815 87.7762Z" fill="#F4BB00"/>
    <path d="M41.8148 89C40.4126 89 39.0419 88.5827 37.876 87.801C36.7101 87.0193 35.8014 85.9083 35.2648 84.6083C34.7282 83.3084 34.5878 81.878 34.8613 80.498C35.1349 79.118 35.8101 77.8503 36.8016 76.8554C37.7932 75.8605 39.0564 75.1829 40.4317 74.9084C41.807 74.6339 43.2325 74.7748 44.528 75.3133C45.8234 75.8517 46.9307 76.7636 47.7097 77.9335C48.4888 79.1034 48.9046 80.4788 48.9046 81.8859C48.9013 83.7716 48.1534 85.5793 46.8245 86.9127C45.4956 88.2462 43.6942 88.9967 41.8148 89V89ZM41.8148 77.2193C40.895 77.2193 39.9959 77.4929 39.2311 78.0057C38.4663 78.5185 37.8702 79.2473 37.5182 80.1C37.1662 80.9527 37.0741 81.891 37.2536 82.7963C37.433 83.7015 37.876 84.533 38.5264 85.1856C39.1768 85.8383 40.0054 86.2827 40.9075 86.4628C41.8097 86.6429 42.7448 86.5504 43.5945 86.1972C44.4443 85.844 45.1707 85.2459 45.6817 84.4785C46.1927 83.7111 46.4654 82.8088 46.4654 81.8859C46.4644 80.6485 45.974 79.4622 45.1021 78.5873C44.2302 77.7123 43.0479 77.2203 41.8148 77.2193V77.2193Z" fill="white"/>
    <path d="M62.8931 31.0753L41.8149 41.6527L20.7368 31.0753L41.8149 20.4979L62.8931 31.0753Z" fill="#A5A5A5"/>
    <path d="M62.8931 52.226L41.8149 62.8033V41.6527L62.8931 31.0753V52.226Z" fill="white"/>
    <path d="M41.8149 62.8033L20.7368 52.226V31.0753L41.8149 41.6527V62.8033Z" fill="#343534"/>
    <path d="M41.8149 62.8033L62.8931 52.226V31.0753" fill="white"/>
    <path d="M62.4009 30.8429L41.3228 41.4202L20.2446 30.8429L41.3228 20.2655L62.4009 30.8429Z" fill="#F4BB00"/>
    <path d="M63.1611 52.3362L42.083 62.9136V41.7629L63.1611 31.1855V52.3362Z" fill="white"/>
    <path d="M41.7134 62.6606L20.6353 52.0833V30.9326L41.7134 41.51V62.6606Z" fill="#0074FF"/>
    <path d="M62.8928 30.3288L41.8147 19.7515L20.7325 30.3288L20.0698 30.6592V31.4751L21.3991 32.1441L26.7693 34.8364L41.148 42.0525L41.8106 42.387L42.4773 42.0525L57.3438 34.5916L62.222 32.1441L63.5513 31.4751V30.6592L62.8928 30.3288ZM41.8147 40.9062L22.2244 31.0753L41.8147 21.2445L61.4049 31.0753L41.8147 40.9062Z" fill="black"/>
    <path d="M62.8931 30.3289L61.4052 31.0754L41.815 40.9062L41.1523 41.2407V63.2276L41.815 63.558L42.4817 63.2276L63.5557 52.6217V30.6593L62.8931 30.3289ZM62.2264 51.8058L42.4817 61.7224V42.0647L57.3482 34.6039L62.2264 32.1563V51.8058Z" fill="black"/>
    <path d="M41.8146 40.9062L22.2244 31.0754L20.7325 30.3289L20.0698 30.6593V52.6217L41.152 63.2276L41.8146 63.558L42.4813 63.2276V41.2407L41.8146 40.9062ZM41.152 61.7101L21.4032 51.8058V32.1563L26.7734 34.8486L41.152 42.0647V61.7101Z" fill="black"/>
    <path d="M45.3839 34.8853L35.2656 29.8067L41.2659 26.7963L43.2578 27.7997L39.2577 29.8067L40.961 30.6633L44.2701 29.0031L46.2661 30.0025L42.957 31.6628L47.38 33.8859L45.3839 34.8853Z" fill="white"/>
    <path d="M48.8638 53.307V43.1539L52.8802 41.1388C53.3354 40.8826 53.8556 40.7663 54.3762 40.8043C54.5833 40.8258 54.7839 40.889 54.9662 40.9899C55.1484 41.0908 55.3086 41.2274 55.4372 41.3917C55.7231 41.7816 55.8667 42.2584 55.8437 42.7419C55.8411 43.2017 55.7628 43.6579 55.612 44.0921C55.4525 44.5601 55.2339 45.0056 54.9616 45.4179C54.6836 45.8405 54.3561 46.2281 53.9859 46.5723L56.3925 49.5338L54.0672 50.6882L51.7582 47.8572L50.8435 48.3182V52.3076L48.8638 53.307ZM50.8598 46.3153L52.6444 45.422C52.8694 45.3054 53.0707 45.1477 53.2379 44.9569C53.4168 44.7611 53.5636 44.5381 53.6729 44.2961C53.7776 44.077 53.8331 43.8375 53.8355 43.5945C53.8447 43.4041 53.7872 43.2165 53.6729 43.0642C53.5687 42.9351 53.4185 42.8517 53.2542 42.8317C53.0475 42.8169 52.841 42.8638 52.6607 42.9663L50.8761 43.8596L50.8598 46.3153Z" fill="black"/>
    <path d="M28.1392 50.3495V40.1964L30.1311 41.1999V49.3583L34.1963 51.3979V53.3967L28.1392 50.3495Z" fill="white"/>
</svg>
