<svg width="204" height="808" viewBox="0 0 204 808" fill="none" xmlns="http://www.w3.org/2000/svg">
<path d="M111.152 770.55L113.302 768.525L69.7959 722.396L67.6458 724.421L111.152 770.55Z" fill="#0074FF"/>
<path d="M117.074 764.988C119.578 767.654 119.477 771.873 116.807 774.375C114.137 776.878 109.916 776.779 107.412 774.112C104.909 771.445 105.009 767.227 107.679 764.724C110.349 762.222 114.57 762.321 117.074 764.988Z" fill="#0074FF"/>
<path d="M7.30948 739.445L69.0575 724.845L68.3784 721.973L6.63035 736.572L7.30948 739.445Z" fill="#0074FF"/>
<path d="M67.1862 716.931C70.7644 716.085 74.3563 718.301 75.2016 721.876C76.0469 725.451 73.8277 729.041 70.2494 729.887C66.6712 730.733 63.0794 728.517 62.2341 724.942C61.3888 721.367 63.6079 717.777 67.1862 716.931Z" fill="#0074FF"/>
<path d="M216.426 802.068L218.577 800.044L175.07 753.915L172.92 755.939L216.426 802.068Z" fill="#0074FF"/>
<path d="M222.34 796.498C224.844 799.165 224.743 803.383 222.073 805.886C219.403 808.388 215.182 808.29 212.678 805.623C210.174 802.956 210.275 798.738 212.945 796.235C215.615 793.732 219.836 793.831 222.34 796.498Z" fill="#0074FF"/>
<path d="M112.582 770.986L174.33 756.387L173.651 753.514L111.903 768.114L112.582 770.986Z" fill="#0074FF"/>
<path d="M172.459 748.472C176.038 747.626 179.629 749.842 180.475 753.417C181.32 756.993 179.101 760.582 175.523 761.428C171.944 762.274 168.353 760.059 167.507 756.483C166.662 752.908 168.881 749.318 172.459 748.472Z" fill="#0074FF"/>
<path d="M296.423 726.794L298.573 724.769L255.067 678.64L252.916 680.665L296.423 726.794Z" fill="#0074FF"/>
<path d="M302.318 721.189C304.822 723.856 304.721 728.074 302.051 730.577C299.381 733.08 295.16 732.981 292.656 730.314C290.153 727.647 290.253 723.429 292.923 720.926C295.593 718.424 299.814 718.523 302.318 721.189Z" fill="#0074FF"/>
<path d="M216.426 802.068L218.577 800.044L175.07 753.915L172.92 755.939L216.426 802.068Z" fill="#0074FF"/>
<path d="M169.16 759.513C166.657 756.846 166.757 752.628 169.427 750.125C172.097 747.622 176.318 747.721 178.822 750.388C181.326 753.055 181.225 757.273 178.555 759.776C175.885 762.278 171.664 762.18 169.16 759.513Z" fill="#0074FF"/>
<path d="M175.442 755.389L193.705 694.666L190.876 693.818L172.613 754.54L175.442 755.389Z" fill="#0074FF"/>
<path d="M185.851 692.295C186.895 688.789 190.618 686.78 194.133 687.852C197.641 688.894 199.651 692.613 198.576 696.126C197.532 699.632 193.809 701.641 190.294 700.569C186.786 699.527 184.776 695.808 185.851 692.295Z" fill="#0074FF"/>
<path d="M192.553 695.647L254.301 681.047L253.622 678.175L191.874 692.774L192.553 695.647Z" fill="#0074FF"/>
<path d="M252.43 673.133C256.008 672.287 259.6 674.503 260.445 678.078C261.291 681.653 259.072 685.243 255.493 686.089C251.915 686.935 248.323 684.719 247.478 681.144C246.633 677.569 248.852 673.979 252.43 673.133Z" fill="#0074FF"/>
<path d="M85.9063 663.704L88.0564 661.68L44.55 615.55L42.3998 617.575L85.9063 663.704Z" fill="#0074FF"/>
<path d="M91.8092 658.13C94.3127 660.797 94.212 665.015 91.5421 667.518C88.8722 670.021 84.6509 669.922 82.1473 667.255C79.6438 664.588 79.7444 660.37 82.4143 657.867C85.0842 655.365 89.3056 655.463 91.8092 658.13Z" fill="#0074FF"/>
<path d="M70.1508 723.828L88.4136 663.106L85.5846 662.257L67.3218 722.98L70.1508 723.828Z" fill="#0074FF"/>
<path d="M75.1109 725.318C74.0668 728.823 70.3437 730.833 66.8285 729.76C63.3206 728.718 61.311 724.999 62.3858 721.486C63.4299 717.981 67.1528 715.971 70.668 717.044C74.1832 718.116 76.1856 721.805 75.1109 725.318Z" fill="#0074FF"/>
<path d="M7.30948 739.445L69.0575 724.845L68.3784 721.973L6.63035 736.572L7.30948 739.445Z" fill="#0074FF"/>
<path d="M8.50119 744.487C4.92297 745.333 1.33113 743.117 0.485837 739.542C-0.359455 735.966 1.85969 732.377 5.43791 731.531C9.01626 730.685 12.6081 732.901 13.4534 736.476C14.2987 740.051 12.0795 743.641 8.50119 744.487Z" fill="#0074FF"/>
<path d="M191.143 695.2L193.293 693.175L149.786 647.046L147.636 649.071L191.143 695.2Z" fill="#0074FF"/>
<path d="M197.075 689.641C199.579 692.308 199.478 696.526 196.808 699.029C194.138 701.531 189.917 701.432 187.413 698.766C184.91 696.099 185.01 691.88 187.68 689.378C190.35 686.875 194.572 686.974 197.075 689.641Z" fill="#0074FF"/>
<path d="M175.442 755.389L193.705 694.666L190.876 693.818L172.613 754.54L175.442 755.389Z" fill="#0074FF"/>
<path d="M180.354 756.866C179.309 760.372 175.586 762.381 172.071 761.309C168.563 760.267 166.554 756.548 167.628 753.035C168.673 749.529 172.395 747.52 175.911 748.592C179.419 749.634 181.428 753.353 180.354 756.866Z" fill="#0074FF"/>
<path d="M112.582 770.986L174.33 756.387L173.651 753.514L111.903 768.114L112.582 770.986Z" fill="#0074FF"/>
<path d="M113.767 775.997C110.189 776.843 106.597 774.627 105.752 771.052C104.907 767.477 107.126 763.887 110.704 763.041C114.282 762.195 117.874 764.411 118.719 767.986C119.565 771.561 117.346 775.151 113.767 775.997Z" fill="#0074FF"/>
<path d="M111.152 770.55L113.302 768.525L69.7959 722.396L67.6458 724.421L111.152 770.55Z" fill="#0074FF"/>
<path d="M63.8867 727.972C61.3832 725.305 61.4838 721.086 64.1538 718.584C66.8236 716.081 71.0451 716.18 73.5486 718.847C76.0522 721.514 75.9515 725.732 73.2816 728.235C70.6117 730.737 66.3902 730.638 63.8867 727.972Z" fill="#0074FF"/>
<path d="M70.1508 723.828L88.4136 663.106L85.5846 662.257L67.3218 722.98L70.1508 723.828Z" fill="#0074FF"/>
<path d="M80.5851 660.784C81.6292 657.278 85.3523 655.269 88.8675 656.341C92.3754 657.383 94.3851 661.103 93.3103 664.616C92.2661 668.121 88.5432 670.131 85.028 669.058C81.5199 668.016 79.5104 664.297 80.5851 660.784Z" fill="#0074FF"/>
<path d="M87.3177 664.129L149.066 649.529L148.387 646.657L86.6385 661.256L87.3177 664.129Z" fill="#0074FF"/>
<path d="M147.195 641.615C143.614 642.462 141.397 646.048 142.242 649.626C143.088 653.204 146.677 655.418 150.258 654.571C153.839 653.725 156.056 650.138 155.21 646.56C154.364 642.982 150.775 640.768 147.195 641.615Z" fill="#0074FF"/>
<path d="M271.177 619.948L273.327 617.923L229.821 571.794L227.671 573.819L271.177 619.948Z" fill="#0074FF"/>
<path d="M277.053 614.332C279.557 616.999 279.456 621.217 276.786 623.72C274.116 626.222 269.895 626.123 267.391 623.457C264.888 620.79 264.988 616.572 267.658 614.069C270.328 611.566 274.55 611.665 277.053 614.332Z" fill="#0074FF"/>
<path d="M255.409 680.044L273.672 619.322L270.843 618.474L252.58 679.196L255.409 680.044Z" fill="#0074FF"/>
<path d="M260.355 681.52C259.311 685.025 255.588 687.035 252.073 685.962C248.565 684.92 246.555 681.201 247.63 677.688C248.674 674.182 252.397 672.173 255.912 673.245C259.42 674.287 261.43 678.007 260.386 681.512L260.355 681.52Z" fill="#0074FF"/>
<path d="M192.553 695.647L254.301 681.047L253.622 678.175L191.874 692.774L192.553 695.647Z" fill="#0074FF"/>
<path d="M193.745 700.688C190.167 701.535 186.575 699.319 185.73 695.743C184.885 692.168 187.104 688.578 190.682 687.732C194.26 686.886 197.852 689.102 198.697 692.677C199.543 696.253 197.324 699.842 193.745 700.688Z" fill="#0074FF"/>
<path d="M191.143 695.2L193.293 693.175L149.786 647.046L147.636 649.071L191.143 695.2Z" fill="#0074FF"/>
<path d="M143.888 652.625C141.385 649.958 141.485 645.74 144.155 643.237C146.825 640.735 151.046 640.834 153.55 643.5C156.054 646.167 155.953 650.385 153.283 652.888C150.613 655.391 146.392 655.292 143.888 652.625Z" fill="#0074FF"/>
<path d="M150.184 648.544L168.447 587.822L165.618 586.973L147.355 647.695L150.184 648.544Z" fill="#0074FF"/>
<path d="M160.587 585.437C161.631 581.932 165.354 579.922 168.869 580.995C172.377 582.037 174.386 585.756 173.312 589.269C172.268 592.775 168.544 594.784 165.029 593.712C161.521 592.67 159.512 588.95 160.587 585.437Z" fill="#0074FF"/>
<path d="M167.288 588.789L229.036 574.19L228.357 571.318L166.609 585.917L167.288 588.789Z" fill="#0074FF"/>
<path d="M227.165 566.276C223.584 567.122 221.367 570.709 222.213 574.287C223.059 577.864 226.648 580.079 230.229 579.232C233.809 578.385 236.026 574.799 235.181 571.221C234.335 567.643 230.746 565.429 227.165 566.276Z" fill="#0074FF"/>
<path d="M376.399 651.383L378.549 649.358L335.042 603.229L332.892 605.254L376.399 651.383Z" fill="#0074FF"/>
<path d="M382.319 645.843C384.823 648.51 384.722 652.728 382.052 655.23C379.382 657.733 375.161 657.634 372.657 654.967C370.154 652.3 370.254 648.082 372.924 645.58C375.594 643.077 379.816 643.176 382.319 645.843Z" fill="#0074FF"/>
<path d="M296.423 726.794L298.573 724.769L255.067 678.64L252.916 680.665L296.423 726.794Z" fill="#0074FF"/>
<path d="M249.131 684.173C246.627 681.507 246.728 677.288 249.398 674.786C252.068 672.283 256.289 672.382 258.793 675.049C261.296 677.716 261.196 681.934 258.495 684.444C255.825 686.946 251.604 686.847 249.1 684.181L249.131 684.173Z" fill="#0074FF"/>
<path d="M255.409 680.044L273.672 619.322L270.843 618.474L252.58 679.196L255.409 680.044Z" fill="#0074FF"/>
<path d="M265.86 616.979C266.904 613.473 270.627 611.464 274.142 612.536C277.657 613.609 279.659 617.297 278.585 620.81C277.541 624.316 273.818 626.325 270.302 625.253C266.794 624.211 264.785 620.492 265.86 616.979Z" fill="#0074FF"/>
<path d="M272.562 620.331L334.31 605.731L333.631 602.859L271.883 617.458L272.562 620.331Z" fill="#0074FF"/>
<path d="M332.439 597.817C328.858 598.664 326.641 602.25 327.487 605.828C328.333 609.406 331.921 611.62 335.502 610.773C339.083 609.926 341.3 606.34 340.454 602.762C339.608 599.184 336.02 596.97 332.439 597.817Z" fill="#0074FF"/>
<path d="M456.395 576.108L458.545 574.083L415.039 527.954L412.889 529.979L456.395 576.108Z" fill="#0074FF"/>
<path d="M462.297 570.534C464.801 573.201 464.7 577.419 462.03 579.922C459.36 582.424 455.139 582.325 452.635 579.659C450.132 576.992 450.232 572.773 452.902 570.271C455.572 567.768 459.793 567.867 462.297 570.534Z" fill="#0074FF"/>
<path d="M440.629 636.237L458.892 575.515L456.063 574.666L437.8 635.388L440.629 636.237Z" fill="#0074FF"/>
<path d="M445.599 637.721C444.555 641.227 440.832 643.237 437.317 642.164C433.809 641.122 431.799 637.403 432.874 633.89C433.918 630.384 437.641 628.375 441.156 629.447C444.671 630.52 446.674 634.209 445.599 637.721Z" fill="#0074FF"/>
<path d="M376.399 651.383L378.549 649.358L335.042 603.229L332.892 605.254L376.399 651.383Z" fill="#0074FF"/>
<path d="M329.132 608.827C326.628 606.16 326.729 601.942 329.399 599.439C332.069 596.936 336.29 597.035 338.794 599.702C341.297 602.369 341.197 606.587 338.527 609.09C335.857 611.592 331.635 611.494 329.132 608.827Z" fill="#0074FF"/>
<path d="M335.289 604.648L353.563 543.929L350.734 543.08L332.46 603.799L335.289 604.648Z" fill="#0074FF"/>
<path d="M345.83 541.639C346.875 538.134 350.597 536.124 354.113 537.197C357.621 538.239 359.63 541.958 358.556 545.471C357.511 548.976 353.788 550.986 350.273 549.913C346.765 548.871 344.756 545.152 345.83 541.639Z" fill="#0074FF"/>
<path d="M352.532 544.991L414.281 530.392L413.601 527.519L351.853 542.119L352.532 544.991Z" fill="#0074FF"/>
<path d="M412.409 522.478C415.988 521.632 419.579 523.848 420.425 527.423C421.27 530.998 419.051 534.588 415.473 535.434C411.894 536.28 408.303 534.064 407.457 530.489C406.612 526.913 408.831 523.324 412.409 522.478Z" fill="#0074FF"/>
<path d="M561.639 607.634L563.789 605.609L520.282 559.48L518.132 561.505L561.639 607.634Z" fill="#0074FF"/>
<path d="M567.563 602.045C570.067 604.711 569.966 608.93 567.296 611.432C564.626 613.935 560.405 613.836 557.901 611.169C555.398 608.502 555.498 604.284 558.168 601.781C560.838 599.279 565.06 599.378 567.563 602.045Z" fill="#0074FF"/>
<path d="M440.629 636.237L458.892 575.515L456.063 574.666L437.8 635.388L440.629 636.237Z" fill="#0074FF"/>
<path d="M451.104 573.18C452.148 569.675 455.871 567.665 459.386 568.738C462.894 569.78 464.904 573.499 463.829 577.012C462.785 580.518 459.062 582.527 455.547 581.455C452.039 580.413 450.029 576.693 451.104 573.18Z" fill="#0074FF"/>
<path d="M457.806 576.532L519.554 561.933L518.875 559.061L457.127 573.66L457.806 576.532Z" fill="#0074FF"/>
<path d="M517.683 554.019C514.102 554.865 511.885 558.452 512.731 562.03C513.576 565.608 517.165 567.821 520.746 566.975C524.327 566.128 526.544 562.542 525.698 558.964C524.852 555.386 521.263 553.172 517.683 554.019Z" fill="#0074FF"/>
<path d="M641.628 532.328L643.778 530.304L600.272 484.175L598.122 486.199L641.628 532.328Z" fill="#0074FF"/>
<path d="M647.541 526.736C650.045 529.403 649.944 533.621 647.274 536.123C644.604 538.626 640.383 538.527 637.879 535.86C635.376 533.193 635.476 528.975 638.146 526.473C640.816 523.97 645.038 524.069 647.541 526.736Z" fill="#0074FF"/>
<path d="M625.842 592.399L644.105 531.677L641.276 530.828L623.013 591.55L625.842 592.399Z" fill="#0074FF"/>
<path d="M630.843 593.923C629.799 597.429 626.076 599.438 622.561 598.366C619.053 597.324 617.043 593.605 618.118 590.092C619.162 586.586 622.885 584.577 626.4 585.649C629.908 586.691 631.918 590.41 630.873 593.916L630.843 593.923Z" fill="#0074FF"/>
<path d="M561.639 607.634L563.789 605.609L520.282 559.48L518.132 561.505L561.639 607.634Z" fill="#0074FF"/>
<path d="M514.376 565.029C511.872 562.362 511.973 558.143 514.643 555.641C517.313 553.138 521.534 553.237 524.038 555.904C526.541 558.571 526.441 562.789 523.771 565.292C521.101 567.794 516.88 567.695 514.376 565.029Z" fill="#0074FF"/>
<path d="M520.549 560.881L538.822 500.162L535.993 499.313L517.72 560.032L520.549 560.881Z" fill="#0074FF"/>
<path d="M531.074 497.841C532.118 494.335 535.841 492.326 539.357 493.399C542.865 494.44 544.874 498.16 543.8 501.673C542.755 505.178 539.032 507.188 535.517 506.115C532.009 505.073 530 501.354 531.074 497.841Z" fill="#0074FF"/>
<path d="M537.807 501.186L599.555 486.586L598.876 483.714L537.128 498.313L537.807 501.186Z" fill="#0074FF"/>
<path d="M597.684 478.672C594.103 479.519 591.886 483.105 592.732 486.683C593.578 490.261 597.166 492.475 600.747 491.628C604.328 490.782 606.545 487.195 605.699 483.617C604.853 480.04 601.265 477.826 597.684 478.672Z" fill="#0074FF"/>
<path d="M746.895 563.817L749.045 561.792L705.539 515.663L703.389 517.688L746.895 563.817Z" fill="#0074FF"/>
<path d="M752.807 558.246C755.311 560.913 755.21 565.131 752.54 567.634C749.87 570.137 745.649 570.038 743.145 567.371C740.642 564.704 740.742 560.486 743.412 557.983C746.082 555.481 750.304 555.58 752.807 558.246Z" fill="#0074FF"/>
<path d="M625.842 592.399L644.105 531.677L641.276 530.828L623.013 591.55L625.842 592.399Z" fill="#0074FF"/>
<path d="M636.348 529.382C637.392 525.877 641.115 523.867 644.63 524.94C648.145 526.012 650.148 529.701 649.073 533.214C648.029 536.719 644.306 538.729 640.79 537.656C637.282 536.614 635.273 532.895 636.348 529.382Z" fill="#0074FF"/>
<path d="M643.05 532.734L704.798 518.135L704.119 515.262L642.371 529.862L643.05 532.734Z" fill="#0074FF"/>
<path d="M702.927 510.221C699.346 511.067 697.129 514.654 697.975 518.232C698.82 521.809 702.409 524.023 705.99 523.177C709.571 522.33 711.788 518.743 710.942 515.166C710.096 511.588 706.507 509.374 702.927 510.221Z" fill="#0074FF"/>
<path d="M746.895 563.817L749.045 561.792L705.539 515.663L703.389 517.688L746.895 563.817Z" fill="#0074FF"/>
<path d="M699.62 521.23C697.117 518.564 697.217 514.345 699.887 511.843C702.557 509.34 706.779 509.439 709.282 512.106C711.786 514.773 711.685 518.991 709.015 521.493C706.345 523.996 702.124 523.897 699.62 521.23Z" fill="#0074FF"/>
<path d="M705.883 517.145L724.146 456.423L721.317 455.575L703.054 516.297L705.883 517.145Z" fill="#0074FF"/>
<path d="M716.318 454.043C717.363 450.537 721.085 448.528 724.601 449.6C728.109 450.642 730.118 454.362 729.044 457.874C727.999 461.38 724.276 463.39 720.761 462.317C717.253 461.275 715.244 457.556 716.318 454.043Z" fill="#0074FF"/>
<path d="M723.051 457.388L784.799 442.788L784.12 439.916L722.372 454.515L723.051 457.388Z" fill="#0074FF"/>
<path d="M782.928 434.874C786.506 434.028 790.098 436.244 790.943 439.819C791.788 443.394 789.569 446.984 785.991 447.83C782.413 448.676 778.821 446.46 777.976 442.885C777.131 439.31 779.35 435.72 782.928 434.874Z" fill="#0074FF"/>
<path d="M1012.12 444.732L1014.27 442.707L970.761 396.578L968.61 398.603L1012.12 444.732Z" fill="#0074FF"/>
<path d="M1018.06 439.132C1020.56 441.799 1020.46 446.017 1017.79 448.52C1015.12 451.022 1010.9 450.924 1008.4 448.257C1005.89 445.59 1005.99 441.372 1008.66 438.869C1011.33 436.366 1015.56 436.465 1018.06 439.132Z" fill="#0074FF"/>
<path d="M908.295 413.589L970.043 398.99L969.364 396.118L907.616 410.717L908.295 413.589Z" fill="#0074FF"/>
<path d="M968.172 391.076C964.591 391.922 962.374 395.509 963.22 399.087C964.066 402.665 967.654 404.879 971.235 404.032C974.816 403.185 977.033 399.599 976.187 396.021C975.341 392.443 971.753 390.229 968.172 391.076Z" fill="#0074FF"/>
<path d="M165.89 588.324L168.04 586.299L124.533 540.17L122.383 542.195L165.89 588.324Z" fill="#0074FF"/>
<path d="M171.81 582.784C174.314 585.451 174.213 589.669 171.543 592.171C168.874 594.674 164.652 594.575 162.148 591.908C159.645 589.241 159.746 585.023 162.415 582.521C165.085 580.018 169.307 580.117 171.81 582.784Z" fill="#0074FF"/>
<path d="M150.184 648.544L168.447 587.822L165.618 586.973L147.355 647.695L150.184 648.544Z" fill="#0074FF"/>
<path d="M155.081 649.978C154.037 653.484 150.314 655.494 146.799 654.421C143.291 653.379 141.282 649.66 142.356 646.147C143.401 642.641 147.123 640.632 150.639 641.704C154.146 642.746 156.156 646.465 155.081 649.978Z" fill="#0074FF"/>
<path d="M87.3177 664.129L149.066 649.529L148.387 646.657L86.6385 661.256L87.3177 664.129Z" fill="#0074FF"/>
<path d="M88.5025 669.14C84.9243 669.986 81.3326 667.77 80.4873 664.195C79.642 660.62 81.861 657.03 85.4392 656.184C89.0176 655.338 92.6093 657.554 93.4546 661.129C94.2999 664.704 92.0809 668.294 88.5025 669.14Z" fill="#0074FF"/>
<path d="M85.9063 663.704L88.0564 661.68L44.55 615.55L42.3998 617.575L85.9063 663.704Z" fill="#0074FF"/>
<path d="M38.6219 621.114C36.1184 618.447 36.219 614.229 38.889 611.727C41.5588 609.224 45.7803 609.323 48.2838 611.99C50.7874 614.657 50.6867 618.875 48.0168 621.377C45.3469 623.88 41.1254 623.781 38.6219 621.114Z" fill="#0074FF"/>
<path d="M245.893 513.08L248.044 511.055L204.537 464.926L202.387 466.951L245.893 513.08Z" fill="#0074FF"/>
<path d="M251.788 507.475C254.292 510.142 254.191 514.36 251.521 516.863C248.852 519.365 244.63 519.266 242.127 516.599C239.623 513.933 239.724 509.714 242.394 507.212C245.063 504.709 249.285 504.808 251.788 507.475Z" fill="#0074FF"/>
<path d="M230.144 573.169L248.406 512.447L245.577 511.598L227.315 572.321L230.144 573.169Z" fill="#0074FF"/>
<path d="M235.09 574.662C234.046 578.168 230.323 580.178 226.808 579.105C223.3 578.063 221.29 574.344 222.365 570.831C223.409 567.325 227.132 565.316 230.647 566.388C234.155 567.43 236.165 571.15 235.121 574.655L235.09 574.662Z" fill="#0074FF"/>
<path d="M167.288 588.789L229.036 574.19L228.357 571.318L166.609 585.917L167.288 588.789Z" fill="#0074FF"/>
<path d="M168.481 593.831C164.902 594.677 161.311 592.461 160.465 588.886C159.62 585.311 161.839 581.721 165.417 580.875C168.995 580.029 172.587 582.245 173.433 585.82C174.278 589.395 172.059 592.985 168.481 593.831Z" fill="#0074FF"/>
<path d="M165.89 588.324L168.04 586.299L124.533 540.17L122.383 542.195L165.89 588.324Z" fill="#0074FF"/>
<path d="M118.623 545.768C116.12 543.101 116.22 538.883 118.89 536.38C121.56 533.877 125.782 533.976 128.285 536.643C130.789 539.31 130.688 543.528 128.018 546.031C125.348 548.533 121.127 548.435 118.623 545.768Z" fill="#0074FF"/>
<path d="M142.024 481.932L203.772 467.333L203.093 464.46L141.345 479.06L142.024 481.932Z" fill="#0074FF"/>
<path d="M201.9 459.419C198.32 460.265 196.103 463.852 196.948 467.43C197.794 471.007 201.383 473.221 204.964 472.375C208.545 471.528 210.762 467.941 209.916 464.364C209.07 460.786 205.481 458.572 201.9 459.419Z" fill="#0074FF"/>
<path d="M351.122 544.545L353.272 542.52L309.766 496.391L307.616 498.416L351.122 544.545Z" fill="#0074FF"/>
<path d="M357.054 538.985C359.558 541.652 359.457 545.871 356.787 548.373C354.118 550.876 349.896 550.777 347.393 548.11C344.889 545.443 344.99 541.225 347.66 538.722C350.329 536.22 354.551 536.319 357.054 538.985Z" fill="#0074FF"/>
<path d="M335.289 604.648L353.563 543.929L350.734 543.08L332.46 603.799L335.289 604.648Z" fill="#0074FF"/>
<path d="M340.325 606.18C339.281 609.686 335.558 611.695 332.043 610.623C328.535 609.581 326.526 605.862 327.6 602.349C328.645 598.843 332.367 596.834 335.883 597.906C339.391 598.948 341.4 602.667 340.325 606.18Z" fill="#0074FF"/>
<path d="M272.562 620.331L334.31 605.731L333.631 602.859L271.883 617.458L272.562 620.331Z" fill="#0074FF"/>
<path d="M270.691 612.416C267.11 613.263 264.893 616.85 265.739 620.427C266.585 624.005 270.173 626.219 273.754 625.372C277.335 624.526 279.552 620.939 278.706 617.361C277.86 613.784 274.271 611.57 270.691 612.416Z" fill="#0074FF"/>
<path d="M271.177 619.948L273.327 617.923L229.821 571.794L227.671 573.819L271.177 619.948Z" fill="#0074FF"/>
<path d="M223.866 577.316C221.362 574.649 221.463 570.431 224.133 567.928C226.803 565.426 231.024 565.525 233.528 568.191C236.031 570.858 235.931 575.077 233.23 577.586C230.56 580.089 226.339 579.99 223.835 577.323L223.866 577.316Z" fill="#0074FF"/>
<path d="M230.144 573.169L248.406 512.447L245.577 511.598L227.315 572.321L230.144 573.169Z" fill="#0074FF"/>
<path d="M240.595 510.121C241.639 506.616 245.362 504.606 248.877 505.679C252.385 506.721 254.395 510.44 253.32 513.953C252.276 517.459 248.553 519.468 245.038 518.396C241.53 517.354 239.52 513.634 240.595 510.121Z" fill="#0074FF"/>
<path d="M247.297 513.473L309.045 498.874L308.366 496.002L246.618 510.601L247.297 513.473Z" fill="#0074FF"/>
<path d="M307.174 490.96C303.593 491.806 301.376 495.393 302.222 498.971C303.068 502.548 306.656 504.762 310.237 503.916C313.818 503.069 316.035 499.482 315.189 495.905C314.343 492.327 310.755 490.113 307.174 490.96Z" fill="#0074FF"/>
<path d="M431.112 469.239L433.262 467.214L389.755 421.085L387.605 423.11L431.112 469.239Z" fill="#0074FF"/>
<path d="M437.032 463.677C439.536 466.344 439.435 470.562 436.765 473.064C434.095 475.567 429.874 475.468 427.37 472.801C424.867 470.135 424.968 465.916 427.637 463.414C430.307 460.911 434.529 461.01 437.032 463.677Z" fill="#0074FF"/>
<path d="M415.371 529.392L433.634 468.67L430.805 467.822L412.542 528.544L415.371 529.392Z" fill="#0074FF"/>
<path d="M420.334 530.864C419.29 534.37 415.567 536.379 412.052 535.307C408.537 534.234 406.534 530.546 407.609 527.033C408.653 523.527 412.376 521.518 415.891 522.59C419.399 523.632 421.409 527.351 420.334 530.864Z" fill="#0074FF"/>
<path d="M352.532 544.991L414.281 530.392L413.601 527.519L351.853 542.119L352.532 544.991Z" fill="#0074FF"/>
<path d="M350.661 537.077C347.08 537.924 344.863 541.51 345.709 545.088C346.555 548.666 350.144 550.88 353.724 550.033C357.305 549.187 359.522 545.6 358.676 542.022C357.831 538.444 354.242 536.23 350.661 537.077Z" fill="#0074FF"/>
<path d="M351.122 544.545L353.272 542.52L309.766 496.391L307.616 498.416L351.122 544.545Z" fill="#0074FF"/>
<path d="M303.867 501.97C301.364 499.303 301.464 495.084 304.134 492.582C306.804 490.079 311.025 490.178 313.529 492.845C316.033 495.512 315.932 499.73 313.262 502.233C310.592 504.735 306.371 504.636 303.867 501.97Z" fill="#0074FF"/>
<path d="M310.109 497.869L328.372 437.147L325.543 436.298L307.28 497.02L310.109 497.869Z" fill="#0074FF"/>
<path d="M320.566 434.782C321.61 431.276 325.333 429.267 328.848 430.339C332.356 431.381 334.365 435.101 333.291 438.614C332.247 442.119 328.524 444.129 325.008 443.056C321.5 442.014 319.491 438.295 320.566 434.782Z" fill="#0074FF"/>
<path d="M327.267 438.134L389.016 423.535L388.336 420.662L326.588 435.262L327.267 438.134Z" fill="#0074FF"/>
<path d="M387.144 415.62C390.722 414.774 394.314 416.99 395.16 420.566C396.005 424.141 393.786 427.73 390.208 428.576C386.629 429.423 383.038 427.207 382.192 423.631C381.347 420.056 383.566 416.466 387.144 415.62Z" fill="#0074FF"/>
<path d="M536.393 500.789L538.543 498.764L495.037 452.635L492.886 454.659L536.393 500.789Z" fill="#0074FF"/>
<path d="M542.298 495.187C544.802 497.854 544.701 502.072 542.031 504.575C539.362 507.078 535.14 506.979 532.637 504.312C530.133 501.645 530.234 497.427 532.903 494.924C535.573 492.422 539.795 492.52 542.298 495.187Z" fill="#0074FF"/>
<path d="M520.549 560.881L538.822 500.162L535.993 499.313L517.72 560.032L520.549 560.881Z" fill="#0074FF"/>
<path d="M525.57 562.382C524.525 565.888 520.803 567.897 517.287 566.825C513.779 565.783 511.77 562.063 512.844 558.551C513.889 555.045 517.612 553.035 521.127 554.108C524.635 555.15 526.644 558.869 525.57 562.382Z" fill="#0074FF"/>
<path d="M457.806 576.532L519.554 561.933L518.875 559.061L457.127 573.66L457.806 576.532Z" fill="#0074FF"/>
<path d="M458.991 581.544C455.412 582.39 451.821 580.174 450.975 576.599C450.13 573.023 452.349 569.434 455.927 568.588C459.506 567.742 463.097 569.958 463.943 573.533C464.788 577.108 462.569 580.698 458.991 581.544Z" fill="#0074FF"/>
<path d="M456.395 576.108L458.545 574.083L415.039 527.954L412.889 529.979L456.395 576.108Z" fill="#0074FF"/>
<path d="M409.11 533.518C406.606 530.851 406.707 526.633 409.377 524.13C412.047 521.628 416.268 521.726 418.772 524.393C421.275 527.06 421.175 531.278 418.505 533.781C415.835 536.284 411.613 536.185 409.11 533.518Z" fill="#0074FF"/>
<path d="M415.371 529.392L433.634 468.67L430.805 467.822L412.542 528.544L415.371 529.392Z" fill="#0074FF"/>
<path d="M425.839 466.323C426.883 462.818 430.606 460.808 434.121 461.881C437.629 462.923 439.639 466.642 438.564 470.155C437.52 473.66 433.797 475.67 430.282 474.597C426.774 473.555 424.764 469.836 425.839 466.323Z" fill="#0074FF"/>
<path d="M432.541 469.675L494.289 455.076L493.61 452.203L431.862 466.803L432.541 469.675Z" fill="#0074FF"/>
<path d="M492.418 447.162C488.837 448.008 486.62 451.595 487.466 455.173C488.312 458.75 491.9 460.964 495.481 460.118C499.062 459.271 501.279 455.684 500.433 452.107C499.587 448.529 495.999 446.315 492.418 447.162Z" fill="#0074FF"/>
<path d="M616.368 425.422L618.518 423.397L575.011 377.268L572.861 379.293L616.368 425.422Z" fill="#0074FF"/>
<path d="M622.276 419.879C624.78 422.545 624.679 426.764 622.009 429.266C619.34 431.769 615.118 431.67 612.614 429.003C610.111 426.336 610.212 422.118 612.881 419.615C615.551 417.113 619.773 417.212 622.276 419.879Z" fill="#0074FF"/>
<path d="M600.584 485.554L618.847 424.832L616.018 423.984L597.755 484.706L600.584 485.554Z" fill="#0074FF"/>
<path d="M605.578 487.066C604.534 490.572 600.811 492.581 597.296 491.509C593.788 490.467 591.778 486.747 592.853 483.234C593.897 479.729 597.62 477.719 601.135 478.792C604.643 479.834 606.653 483.553 605.609 487.059L605.578 487.066Z" fill="#0074FF"/>
<path d="M537.807 501.186L599.555 486.586L598.876 483.714L537.128 498.313L537.807 501.186Z" fill="#0074FF"/>
<path d="M538.999 506.228C535.421 507.074 531.829 504.858 530.984 501.283C530.138 497.707 532.358 494.118 535.936 493.272C539.514 492.426 543.106 494.641 543.951 498.217C544.797 501.792 542.577 505.382 538.999 506.228Z" fill="#0074FF"/>
<path d="M536.393 500.789L538.543 498.764L495.037 452.635L492.886 454.659L536.393 500.789Z" fill="#0074FF"/>
<path d="M489.111 458.171C486.608 455.505 486.708 451.286 489.378 448.784C492.048 446.281 496.27 446.38 498.773 449.047C501.277 451.714 501.176 455.932 498.506 458.434C495.836 460.937 491.615 460.838 489.111 458.171Z" fill="#0074FF"/>
<path d="M495.36 454.054L513.622 393.332L510.793 392.484L492.531 453.206L495.36 454.054Z" fill="#0074FF"/>
<path d="M505.809 390.984C506.854 387.478 510.577 385.469 514.092 386.541C517.6 387.583 519.609 391.302 518.535 394.815C517.491 398.321 513.768 400.331 510.252 399.258C506.745 398.216 504.735 394.497 505.809 390.984Z" fill="#0074FF"/>
<path d="M512.542 394.329L574.29 379.729L573.611 376.857L511.863 391.456L512.542 394.329Z" fill="#0074FF"/>
<path d="M572.419 371.815C568.838 372.662 566.621 376.248 567.467 379.826C568.313 383.404 571.901 385.618 575.482 384.771C579.063 383.924 581.28 380.338 580.434 376.76C579.589 373.182 576 370.968 572.419 371.815Z" fill="#0074FF"/>
<path d="M721.611 456.948L723.762 454.923L680.255 408.794L678.105 410.819L721.611 456.948Z" fill="#0074FF"/>
<path d="M727.542 451.389C730.046 454.056 729.945 458.274 727.275 460.777C724.606 463.279 720.384 463.181 717.881 460.514C715.377 457.847 715.478 453.629 718.148 451.126C720.817 448.623 725.039 448.722 727.542 451.389Z" fill="#0074FF"/>
<path d="M705.883 517.145L724.146 456.423L721.317 455.575L703.054 516.297L705.883 517.145Z" fill="#0074FF"/>
<path d="M710.814 518.584C709.77 522.089 706.047 524.099 702.531 523.026C699.023 521.984 697.014 518.265 698.089 514.752C699.133 511.247 702.856 509.237 706.371 510.31C709.879 511.352 711.888 515.071 710.814 518.584Z" fill="#0074FF"/>
<path d="M643.05 532.734L704.798 518.135L704.119 515.262L642.371 529.862L643.05 532.734Z" fill="#0074FF"/>
<path d="M641.179 524.82C637.598 525.667 635.381 529.253 636.227 532.831C637.072 536.409 640.661 538.623 644.242 537.776C647.823 536.929 650.04 533.343 649.194 529.765C648.348 526.187 644.759 523.973 641.179 524.82Z" fill="#0074FF"/>
<path d="M641.628 532.328L643.778 530.304L600.272 484.175L598.122 486.199L641.628 532.328Z" fill="#0074FF"/>
<path d="M594.354 489.72C591.85 487.053 591.951 482.835 594.621 480.332C597.291 477.829 601.512 477.928 604.016 480.595C606.519 483.262 606.419 487.48 603.718 489.99C601.048 492.493 596.827 492.394 594.324 489.727L594.354 489.72Z" fill="#0074FF"/>
<path d="M600.584 485.554L618.847 424.832L616.018 423.984L597.755 484.706L600.584 485.554Z" fill="#0074FF"/>
<path d="M611.083 422.525C612.127 419.019 615.85 417.01 619.365 418.082C622.873 419.124 624.883 422.844 623.808 426.357C622.764 429.862 619.041 431.872 615.526 430.799C612.018 429.757 610.008 426.038 611.083 422.525Z" fill="#0074FF"/>
<path d="M617.785 425.877L679.533 411.278L678.854 408.405L617.106 423.005L617.785 425.877Z" fill="#0074FF"/>
<path d="M677.662 403.363C674.081 404.21 671.864 407.797 672.71 411.374C673.556 414.952 677.144 417.166 680.725 416.319C684.306 415.473 686.523 411.886 685.677 408.308C684.831 404.731 681.243 402.517 677.662 403.363Z" fill="#0074FF"/>
<path d="M801.601 381.643L803.751 379.618L760.244 333.489L758.094 335.514L801.601 381.643Z" fill="#0074FF"/>
<path d="M807.52 376.08C810.024 378.747 809.923 382.965 807.253 385.468C804.584 387.971 800.362 387.872 797.858 385.205C795.355 382.538 795.456 378.32 798.125 375.817C800.795 373.315 805.017 373.414 807.52 376.08Z" fill="#0074FF"/>
<path d="M785.88 441.794L804.143 381.071L801.314 380.223L783.051 440.945L785.88 441.794Z" fill="#0074FF"/>
<path d="M790.822 443.268C789.778 446.773 786.055 448.783 782.54 447.71C779.025 446.638 777.022 442.949 778.097 439.436C779.141 435.931 782.864 433.921 786.379 434.994C789.887 436.036 791.897 439.755 790.822 443.268Z" fill="#0074FF"/>
<path d="M723.051 457.388L784.799 442.788L784.12 439.916L722.372 454.515L723.051 457.388Z" fill="#0074FF"/>
<path d="M721.18 449.473C717.599 450.32 715.382 453.907 716.228 457.484C717.074 461.062 720.662 463.276 724.243 462.429C727.824 461.583 730.041 457.996 729.195 454.418C728.349 450.841 724.761 448.627 721.18 449.473Z" fill="#0074FF"/>
<path d="M721.611 456.948L723.762 454.923L680.255 408.794L678.105 410.819L721.611 456.948Z" fill="#0074FF"/>
<path d="M674.355 414.373C671.852 411.706 671.952 407.488 674.622 404.985C677.292 402.483 681.514 402.582 684.017 405.249C686.521 407.915 686.42 412.134 683.75 414.636C681.08 417.139 676.859 417.04 674.355 414.373Z" fill="#0074FF"/>
<path d="M680.542 410.224L698.805 349.501L695.976 348.653L677.713 409.375L680.542 410.224Z" fill="#0074FF"/>
<path d="M691.054 347.186C692.098 343.68 695.821 341.671 699.336 342.743C702.844 343.785 704.853 347.504 703.779 351.017C702.735 354.523 699.012 356.532 695.496 355.46C691.988 354.418 689.979 350.699 691.054 347.186Z" fill="#0074FF"/>
<path d="M697.786 350.53L759.534 335.931L758.855 333.059L697.107 347.658L697.786 350.53Z" fill="#0074FF"/>
<path d="M757.663 328.017C761.241 327.171 764.833 329.387 765.678 332.962C766.524 336.537 764.305 340.127 760.726 340.973C757.148 341.819 753.556 339.603 752.711 336.028C751.866 332.453 754.085 328.863 757.663 328.017Z" fill="#0074FF"/>
<path d="M906.875 413.161L909.025 411.137L865.518 365.008L863.368 367.032L906.875 413.161Z" fill="#0074FF"/>
<path d="M912.786 407.591C915.29 410.258 915.189 414.476 912.52 416.979C909.85 419.481 905.628 419.382 903.125 416.716C900.621 414.049 900.722 409.83 903.392 407.328C906.061 404.825 910.283 404.924 912.786 407.591Z" fill="#0074FF"/>
<path d="M785.88 441.794L804.143 381.071L801.314 380.223L783.051 440.945L785.88 441.794Z" fill="#0074FF"/>
<path d="M796.327 378.727C797.371 375.221 801.094 373.212 804.609 374.284C808.117 375.326 810.127 379.045 809.052 382.558C808.008 386.064 804.285 388.074 800.77 387.001C797.262 385.959 795.252 382.24 796.327 378.727Z" fill="#0074FF"/>
<path d="M803.029 382.079L864.777 367.479L864.098 364.607L802.35 379.206L803.029 382.079Z" fill="#0074FF"/>
<path d="M862.906 359.565C859.325 360.412 857.108 363.998 857.954 367.576C858.8 371.154 862.388 373.368 865.969 372.521C869.55 371.675 871.767 368.088 870.921 364.51C870.075 360.932 866.487 358.719 862.906 359.565Z" fill="#0074FF"/>
<path d="M986.864 337.856L989.014 335.831L945.508 289.702L943.357 291.727L986.864 337.856Z" fill="#0074FF"/>
<path d="M992.795 332.275C995.298 334.942 995.198 339.16 992.528 341.663C989.858 344.165 985.637 344.066 983.133 341.4C980.629 338.733 980.73 334.514 983.4 332.012C986.07 329.509 990.291 329.608 992.795 332.275Z" fill="#0074FF"/>
<path d="M971.1 397.986L989.363 337.264L986.534 336.416L968.271 397.138L971.1 397.986Z" fill="#0074FF"/>
<path d="M976.066 399.47C975.022 402.975 971.299 404.985 967.784 403.912C964.276 402.87 962.266 399.151 963.341 395.638C964.385 392.132 968.108 390.123 971.623 391.195C975.131 392.237 977.141 395.957 976.066 399.47Z" fill="#0074FF"/>
<path d="M908.295 413.589L970.043 398.99L969.364 396.118L907.616 410.717L908.295 413.589Z" fill="#0074FF"/>
<path d="M906.424 405.675C902.843 406.522 900.626 410.108 901.472 413.686C902.318 417.264 905.906 419.478 909.487 418.631C913.068 417.785 915.285 414.198 914.439 410.62C913.593 407.043 910.005 404.829 906.424 405.675Z" fill="#0074FF"/>
<path d="M906.875 413.161L909.025 411.137L865.518 365.008L863.368 367.032L906.875 413.161Z" fill="#0074FF"/>
<path d="M859.599 370.575C857.096 367.908 857.196 363.69 859.866 361.187C862.536 358.685 866.758 358.784 869.261 361.45C871.765 364.117 871.664 368.336 868.994 370.838C866.324 373.341 862.103 373.242 859.599 370.575Z" fill="#0074FF"/>
<path d="M865.838 366.463L884.101 305.741L881.272 304.892L863.009 365.614L865.838 366.463Z" fill="#0074FF"/>
<path d="M876.297 303.388C877.342 299.882 881.065 297.872 884.58 298.945C888.095 300.017 890.097 303.706 889.023 307.219C887.979 310.725 884.256 312.734 880.74 311.662C877.232 310.62 875.223 306.9 876.297 303.388Z" fill="#0074FF"/>
<path d="M883.03 306.732L944.778 292.133L944.099 289.26L882.351 303.86L883.03 306.732Z" fill="#0074FF"/>
<path d="M942.907 284.219C939.326 285.065 937.109 288.652 937.955 292.23C938.801 295.807 942.389 298.021 945.97 297.175C949.551 296.328 951.768 292.741 950.922 289.164C950.076 285.586 946.488 283.372 942.907 284.219Z" fill="#0074FF"/>
<path d="M1092.1 369.352L1094.25 367.327L1050.74 321.198L1048.59 323.222L1092.1 369.352Z" fill="#0074FF"/>
<path d="M1098.03 363.793C1100.53 366.46 1100.43 370.678 1097.76 373.18C1095.09 375.683 1090.87 375.584 1088.37 372.917C1085.86 370.251 1085.97 366.032 1088.64 363.53C1091.31 361.027 1095.53 361.126 1098.03 363.793Z" fill="#0074FF"/>
<path d="M1012.12 444.732L1014.27 442.707L970.761 396.578L968.61 398.603L1012.12 444.732Z" fill="#0074FF"/>
<path d="M964.842 402.123C962.338 399.457 962.439 395.238 965.109 392.736C967.779 390.233 972 390.332 974.504 392.999C977.007 395.666 976.907 399.884 974.237 402.386C971.567 404.889 967.346 404.79 964.842 402.123Z" fill="#0074FF"/>
<path d="M971.1 397.986L989.363 337.264L986.534 336.416L968.271 397.138L971.1 397.986Z" fill="#0074FF"/>
<path d="M981.571 334.929C982.615 331.423 986.338 329.414 989.853 330.486C993.361 331.528 995.371 335.247 994.296 338.76C993.252 342.266 989.529 344.275 986.014 343.203C982.506 342.161 980.496 338.442 981.571 334.929Z" fill="#0074FF"/>
<path d="M988.273 338.281L1050.02 323.681L1049.34 320.809L987.594 335.408L988.273 338.281Z" fill="#0074FF"/>
<path d="M1048.15 315.767C1044.57 316.614 1042.35 320.2 1043.2 323.778C1044.04 327.356 1047.63 329.57 1051.21 328.723C1054.79 327.876 1057.01 324.29 1056.17 320.712C1055.32 317.134 1051.73 314.92 1048.15 315.767Z" fill="#0074FF"/>
<path d="M1092.1 369.352L1094.25 367.327L1050.74 321.198L1048.59 323.222L1092.1 369.352Z" fill="#0074FF"/>
<path d="M1044.84 326.777C1042.34 324.11 1042.44 319.892 1045.11 317.389C1047.78 314.886 1052 314.985 1054.51 317.652C1057.01 320.319 1056.91 324.537 1054.24 327.04C1051.57 329.543 1047.35 329.444 1044.84 326.777Z" fill="#0074FF"/>
<path d="M1051.1 322.679L1069.36 261.957L1066.53 261.108L1048.27 321.83L1051.1 322.679Z" fill="#0074FF"/>
<path d="M1061.54 259.589C1062.59 256.084 1066.31 254.074 1069.82 255.147C1073.33 256.189 1075.34 259.908 1074.27 263.421C1073.22 266.926 1069.5 268.936 1065.98 267.863C1062.48 266.822 1060.47 263.102 1061.54 259.589Z" fill="#0074FF"/>
<path d="M1068.27 262.934L1130.02 248.335L1129.34 245.462L1067.6 260.062L1068.27 262.934Z" fill="#0074FF"/>
<path d="M1128.15 240.42C1131.73 239.574 1135.32 241.79 1136.17 245.365C1137.01 248.941 1134.79 252.53 1131.21 253.376C1127.64 254.223 1124.04 252.007 1123.2 248.431C1122.35 244.856 1124.57 241.266 1128.15 240.42Z" fill="#0074FF"/>
<path d="M204.777 466.265L223.051 405.546L220.222 404.697L201.948 465.416L204.777 466.265Z" fill="#0074FF"/>
<path d="M209.825 467.805C208.781 471.311 205.058 473.32 201.543 472.248C198.035 471.206 196.025 467.486 197.1 463.974C198.144 460.468 201.867 458.458 205.383 459.531C208.89 460.573 210.9 464.292 209.856 467.798L209.825 467.805Z" fill="#0074FF"/>
<path d="M142.024 481.932L203.772 467.333L203.093 464.46L141.345 479.06L142.024 481.932Z" fill="#0074FF"/>
<path d="M143.216 486.974C139.637 487.82 136.046 485.604 135.2 482.029C134.355 478.454 136.574 474.864 140.152 474.018C143.731 473.172 147.323 475.388 148.168 478.963C149.013 482.538 146.794 486.128 143.216 486.974Z" fill="#0074FF"/>
<path d="M325.877 437.7L328.027 435.675L284.52 389.546L282.37 391.57L325.877 437.7Z" fill="#0074FF"/>
<path d="M331.79 432.128C334.293 434.795 334.193 439.013 331.523 441.516C328.853 444.019 324.631 443.92 322.128 441.253C319.624 438.586 319.725 434.368 322.395 431.865C325.065 429.363 329.286 429.461 331.79 432.128Z" fill="#0074FF"/>
<path d="M310.109 497.869L328.372 437.147L325.543 436.298L307.28 497.02L310.109 497.869Z" fill="#0074FF"/>
<path d="M315.061 499.323C314.017 502.829 310.294 504.838 306.779 503.766C303.271 502.724 301.261 499.004 302.336 495.491C303.38 491.986 307.103 489.976 310.618 491.049C314.126 492.091 316.136 495.81 315.061 499.323Z" fill="#0074FF"/>
<path d="M247.297 513.473L309.045 498.874L308.366 496.002L246.618 510.601L247.297 513.473Z" fill="#0074FF"/>
<path d="M245.426 505.559C241.845 506.406 239.628 509.992 240.474 513.57C241.32 517.148 244.908 519.362 248.489 518.515C252.07 517.669 254.287 514.082 253.441 510.504C252.595 506.926 249.007 504.712 245.426 505.559Z" fill="#0074FF"/>
<path d="M245.893 513.08L248.044 511.055L204.537 464.926L202.387 466.951L245.893 513.08Z" fill="#0074FF"/>
<path d="M198.601 470.459C196.098 467.792 196.198 463.574 198.868 461.071C201.538 458.569 205.76 458.667 208.263 461.334C210.767 464.001 210.666 468.219 207.965 470.729C205.296 473.232 201.074 473.133 198.57 470.466L198.601 470.459Z" fill="#0074FF"/>
<path d="M204.777 466.265L223.051 405.546L220.222 404.697L201.948 465.416L204.777 466.265Z" fill="#0074FF"/>
<path d="M215.33 403.264C216.374 399.759 220.097 397.749 223.612 398.822C227.12 399.864 229.13 403.583 228.055 407.096C227.011 410.601 223.288 412.611 219.773 411.538C216.265 410.496 214.255 406.777 215.33 403.264Z" fill="#0074FF"/>
<path d="M222.025 406.585L283.773 391.986L283.094 389.114L221.346 403.713L222.025 406.585Z" fill="#0074FF"/>
<path d="M281.909 384.102C278.328 384.949 276.111 388.536 276.957 392.113C277.803 395.691 281.392 397.905 284.972 397.059C288.553 396.212 290.77 392.625 289.924 389.047C289.079 385.47 285.49 383.256 281.909 384.102Z" fill="#0074FF"/>
<path d="M405.858 362.363L408.009 360.339L364.502 314.21L362.352 316.234L405.858 362.363Z" fill="#0074FF"/>
<path d="M411.767 356.819C414.271 359.486 414.17 363.705 411.5 366.207C408.831 368.71 404.609 368.611 402.105 365.944C399.602 363.277 399.703 359.059 402.373 356.556C405.042 354.054 409.264 354.153 411.767 356.819Z" fill="#0074FF"/>
<path d="M390.029 422.467L408.303 361.748L405.474 360.899L387.2 421.618L390.029 422.467Z" fill="#0074FF"/>
<path d="M395.069 424.007C394.025 427.513 390.302 429.522 386.787 428.45C383.279 427.408 381.269 423.688 382.344 420.175C383.388 416.67 387.111 414.66 390.626 415.733C394.134 416.775 396.144 420.494 395.069 424.007Z" fill="#0074FF"/>
<path d="M327.267 438.134L389.016 423.535L388.336 420.662L326.588 435.262L327.267 438.134Z" fill="#0074FF"/>
<path d="M325.396 430.22C321.816 431.066 319.599 434.653 320.444 438.231C321.29 441.808 324.879 444.022 328.46 443.176C332.041 442.329 334.258 438.743 333.412 435.165C332.566 431.587 328.977 429.373 325.396 430.22Z" fill="#0074FF"/>
<path d="M325.877 437.7L328.027 435.675L284.52 389.546L282.37 391.57L325.877 437.7Z" fill="#0074FF"/>
<path d="M278.602 395.112C276.099 392.445 276.199 388.227 278.869 385.725C281.539 383.222 285.761 383.321 288.264 385.988C290.768 388.655 290.667 392.873 287.997 395.375C285.327 397.878 281.106 397.779 278.602 395.112Z" fill="#0074FF"/>
<path d="M284.844 390.994L303.106 330.272L300.277 329.423L282.015 390.145L284.844 390.994Z" fill="#0074FF"/>
<path d="M295.301 327.925C296.345 324.419 300.068 322.41 303.583 323.482C307.091 324.524 309.101 328.243 308.026 331.756C306.982 335.262 303.259 337.271 299.744 336.199C296.236 335.157 294.226 331.438 295.301 327.925Z" fill="#0074FF"/>
<path d="M511.116 393.951L513.267 391.926L469.76 345.797L467.61 347.822L511.116 393.951Z" fill="#0074FF"/>
<path d="M517.034 388.33C519.537 390.997 519.437 395.215 516.767 397.718C514.097 400.22 509.875 400.122 507.372 397.455C504.868 394.788 504.969 390.57 507.639 388.067C510.309 385.564 514.53 385.663 517.034 388.33Z" fill="#0074FF"/>
<path d="M495.36 454.054L513.622 393.332L510.793 392.484L492.531 453.206L495.36 454.054Z" fill="#0074FF"/>
<path d="M500.305 455.525C499.261 459.03 495.538 461.04 492.023 459.967C488.515 458.925 486.505 455.206 487.58 451.693C488.624 448.188 492.347 446.178 495.862 447.251C499.37 448.293 501.38 452.012 500.305 455.525Z" fill="#0074FF"/>
<path d="M432.541 469.675L494.289 455.076L493.61 452.203L431.862 466.803L432.541 469.675Z" fill="#0074FF"/>
<path d="M433.726 474.686C430.148 475.532 426.556 473.317 425.711 469.741C424.865 466.166 427.084 462.576 430.663 461.73C434.241 460.884 437.833 463.1 438.678 466.675C439.523 470.251 437.304 473.84 433.726 474.686Z" fill="#0074FF"/>
<path d="M431.112 469.239L433.262 467.214L389.755 421.085L387.605 423.11L431.112 469.239Z" fill="#0074FF"/>
<path d="M383.845 426.661C381.342 423.994 381.442 419.776 384.112 417.273C386.782 414.77 391.004 414.869 393.507 417.536C396.011 420.203 395.91 424.421 393.24 426.924C390.57 429.427 386.349 429.328 383.845 426.661Z" fill="#0074FF"/>
<path d="M390.029 422.467L408.303 361.748L405.474 360.899L387.2 421.618L390.029 422.467Z" fill="#0074FF"/>
<path d="M400.574 359.466C401.618 355.96 405.341 353.951 408.856 355.023C412.364 356.065 414.374 359.785 413.299 363.298C412.255 366.803 408.532 368.813 405.017 367.74C401.509 366.698 399.499 362.979 400.574 359.466Z" fill="#0074FF"/>
<path d="M407.269 362.787L469.017 348.188L468.338 345.316L406.59 359.915L407.269 362.787Z" fill="#0074FF"/>
<path d="M467.153 340.304C463.572 341.151 461.355 344.738 462.201 348.315C463.047 351.893 466.635 354.107 470.216 353.26C473.797 352.414 476.014 348.827 475.168 345.249C474.322 341.672 470.734 339.458 467.153 340.304Z" fill="#0074FF"/>
<path d="M591.091 318.584L593.241 316.559L549.735 270.43L547.585 272.455L591.091 318.584Z" fill="#0074FF"/>
<path d="M597.012 313.021C599.515 315.688 599.414 319.906 596.745 322.409C594.075 324.912 589.853 324.813 587.35 322.146C584.846 319.479 584.947 315.261 587.617 312.758C590.286 310.255 594.508 310.354 597.012 313.021Z" fill="#0074FF"/>
<path d="M575.402 378.756L593.665 318.034L590.836 317.186L572.573 377.908L575.402 378.756Z" fill="#0074FF"/>
<path d="M580.313 380.209C579.269 383.714 575.546 385.724 572.031 384.651C568.523 383.609 566.513 379.89 567.588 376.377C568.632 372.872 572.355 370.862 575.87 371.935C579.378 372.977 581.388 376.696 580.344 380.202L580.313 380.209Z" fill="#0074FF"/>
<path d="M512.542 394.329L574.29 379.729L573.611 376.857L511.863 391.456L512.542 394.329Z" fill="#0074FF"/>
<path d="M513.734 399.37C510.156 400.216 506.564 398.001 505.719 394.425C504.874 390.85 507.093 387.26 510.671 386.414C514.249 385.568 517.841 387.784 518.686 391.359C519.532 394.935 517.313 398.524 513.734 399.37Z" fill="#0074FF"/>
<path d="M511.116 393.951L513.267 391.926L469.76 345.797L467.61 347.822L511.116 393.951Z" fill="#0074FF"/>
<path d="M463.846 351.314C461.343 348.647 461.444 344.429 464.114 341.926C466.783 339.424 471.005 339.523 473.508 342.19C476.012 344.856 475.911 349.075 473.241 351.577C470.572 354.08 466.35 353.981 463.846 351.314Z" fill="#0074FF"/>
<path d="M470.102 347.21L488.364 286.488L485.536 285.639L467.273 346.361L470.102 347.21Z" fill="#0074FF"/>
<path d="M480.545 284.127C481.589 280.621 485.312 278.611 488.827 279.684C492.335 280.726 494.345 284.445 493.27 287.958C492.195 291.471 488.503 293.473 484.988 292.401C481.48 291.359 479.47 287.64 480.545 284.127Z" fill="#0074FF"/>
<path d="M696.365 350.103L698.516 348.078L655.009 301.949L652.859 303.974L696.365 350.103Z" fill="#0074FF"/>
<path d="M702.278 344.532C704.781 347.199 704.681 351.417 702.011 353.92C699.341 356.422 695.119 356.323 692.616 353.656C690.112 350.99 690.213 346.771 692.883 344.269C695.553 341.766 699.774 341.865 702.278 344.532Z" fill="#0074FF"/>
<path d="M680.542 410.224L698.805 349.501L695.976 348.653L677.713 409.375L680.542 410.224Z" fill="#0074FF"/>
<path d="M685.549 411.727C684.505 415.232 680.782 417.242 677.267 416.169C673.759 415.127 671.749 411.408 672.824 407.895C673.868 404.389 677.591 402.38 681.106 403.452C684.614 404.494 686.624 408.214 685.549 411.727Z" fill="#0074FF"/>
<path d="M617.785 425.877L679.533 411.278L678.854 408.405L617.106 423.005L617.785 425.877Z" fill="#0074FF"/>
<path d="M615.914 417.963C612.333 418.809 610.116 422.396 610.962 425.974C611.808 429.551 615.396 431.765 618.977 430.919C622.558 430.072 624.775 426.486 623.929 422.908C623.083 419.33 619.495 417.116 615.914 417.963Z" fill="#0074FF"/>
<path d="M616.368 425.422L618.518 423.397L575.011 377.268L572.861 379.293L616.368 425.422Z" fill="#0074FF"/>
<path d="M569.089 382.862C566.586 380.196 566.686 375.977 569.356 373.475C572.026 370.972 576.248 371.071 578.751 373.738C581.255 376.405 581.154 380.623 578.454 383.133C575.784 385.635 571.562 385.537 569.059 382.87L569.089 382.862Z" fill="#0074FF"/>
<path d="M575.402 378.756L593.665 318.034L590.836 317.186L572.573 377.908L575.402 378.756Z" fill="#0074FF"/>
<path d="M585.818 315.668C586.862 312.162 590.585 310.153 594.1 311.225C597.608 312.267 599.618 315.986 598.543 319.499C597.499 323.005 593.776 325.014 590.261 323.942C586.753 322.9 584.743 319.181 585.818 315.668Z" fill="#0074FF"/>
<path d="M592.513 318.989L654.261 304.39L653.582 301.517L591.834 316.117L592.513 318.989Z" fill="#0074FF"/>
<path d="M652.397 296.506C648.816 297.353 646.599 300.939 647.445 304.517C648.291 308.095 651.879 310.309 655.46 309.462C659.041 308.616 661.258 305.029 660.412 301.451C659.566 297.873 655.978 295.659 652.397 296.506Z" fill="#0074FF"/>
<path d="M776.355 274.797L778.505 272.772L734.998 226.643L732.848 228.668L776.355 274.797Z" fill="#0074FF"/>
<path d="M782.256 269.223C784.759 271.89 784.659 276.108 781.989 278.611C779.319 281.113 775.097 281.015 772.594 278.348C770.09 275.681 770.191 271.463 772.861 268.96C775.531 266.457 779.752 266.556 782.256 269.223Z" fill="#0074FF"/>
<path d="M760.564 334.864L778.837 274.145L776.009 273.296L757.735 334.015L760.564 334.864Z" fill="#0074FF"/>
<path d="M765.557 336.411C764.513 339.916 760.79 341.926 757.275 340.853C753.767 339.811 751.757 336.092 752.832 332.579C753.876 329.073 757.599 327.064 761.114 328.136C764.622 329.178 766.632 332.898 765.557 336.411Z" fill="#0074FF"/>
<path d="M697.786 350.53L759.534 335.931L758.855 333.059L697.107 347.658L697.786 350.53Z" fill="#0074FF"/>
<path d="M695.915 342.616C692.334 343.463 690.117 347.049 690.963 350.627C691.809 354.205 695.397 356.419 698.978 355.572C702.559 354.726 704.776 351.139 703.93 347.561C703.085 343.984 699.496 341.77 695.915 342.616Z" fill="#0074FF"/>
<path d="M696.365 350.103L698.516 348.078L655.009 301.949L652.859 303.974L696.365 350.103Z" fill="#0074FF"/>
<path d="M649.09 307.516C646.587 304.849 646.688 300.631 649.357 298.128C652.027 295.626 656.249 295.725 658.752 298.391C661.256 301.058 661.155 305.276 658.485 307.779C655.815 310.282 651.594 310.183 649.09 307.516Z" fill="#0074FF"/>
<path d="M655.284 303.379L673.547 242.657L670.718 241.808L652.455 302.531L655.284 303.379Z" fill="#0074FF"/>
<path d="M665.789 240.328C666.833 236.823 670.556 234.813 674.071 235.886C677.579 236.928 679.589 240.647 678.514 244.16C677.47 247.666 673.747 249.675 670.232 248.603C666.724 247.561 664.714 243.841 665.789 240.328Z" fill="#0074FF"/>
<path d="M672.522 243.673L734.27 229.074L733.59 226.201L671.842 240.801L672.522 243.673Z" fill="#0074FF"/>
<path d="M732.398 221.16C735.977 220.314 739.568 222.529 740.414 226.105C741.259 229.68 739.04 233.27 735.462 234.116C731.883 234.962 728.291 232.746 727.446 229.171C726.601 225.595 728.82 222.006 732.398 221.16Z" fill="#0074FF"/>
<path d="M881.598 306.323L883.749 304.299L840.242 258.17L838.092 260.194L881.598 306.323Z" fill="#0074FF"/>
<path d="M887.522 300.734C890.025 303.401 889.925 307.619 887.255 310.122C884.585 312.624 880.363 312.525 877.86 309.858C875.356 307.192 875.457 302.973 878.127 300.471C880.797 297.968 885.018 298.067 887.522 300.734Z" fill="#0074FF"/>
<path d="M865.838 366.463L884.101 305.741L881.272 304.892L863.009 365.614L865.838 366.463Z" fill="#0074FF"/>
<path d="M870.823 367.921C869.779 371.427 866.056 373.436 862.541 372.364C859.033 371.322 857.024 367.603 858.098 364.09C859.142 360.584 862.865 358.575 866.381 359.647C869.889 360.689 871.898 364.408 870.823 367.921Z" fill="#0074FF"/>
<path d="M803.029 382.079L864.777 367.479L864.098 364.607L802.35 379.206L803.029 382.079Z" fill="#0074FF"/>
<path d="M804.214 387.09C800.635 387.936 797.044 385.72 796.198 382.145C795.353 378.57 797.572 374.98 801.15 374.134C804.729 373.288 808.321 375.504 809.166 379.079C810.011 382.654 807.792 386.244 804.214 387.09Z" fill="#0074FF"/>
<path d="M801.601 381.643L803.751 379.618L760.244 333.489L758.094 335.514L801.601 381.643Z" fill="#0074FF"/>
<path d="M754.333 339.064C751.83 336.398 751.93 332.179 754.6 329.677C757.27 327.174 761.492 327.273 763.995 329.94C766.499 332.607 766.398 336.825 763.728 339.328C761.058 341.83 756.837 341.731 754.333 339.064Z" fill="#0074FF"/>
<path d="M760.564 334.864L778.837 274.145L776.009 273.296L757.735 334.015L760.564 334.864Z" fill="#0074FF"/>
<path d="M771.062 271.87C772.106 268.364 775.829 266.354 779.344 267.427C782.852 268.469 784.862 272.188 783.787 275.701C782.743 279.207 779.02 281.216 775.505 280.144C771.997 279.102 769.987 275.382 771.062 271.87Z" fill="#0074FF"/>
<path d="M777.757 275.191L839.505 260.592L838.826 257.719L777.078 272.319L777.757 275.191Z" fill="#0074FF"/>
<path d="M837.641 252.708C834.06 253.555 831.843 257.141 832.689 260.719C833.535 264.297 837.123 266.511 840.704 265.664C844.285 264.817 846.502 261.231 845.656 257.653C844.81 254.075 841.222 251.861 837.641 252.708Z" fill="#0074FF"/>
<path d="M961.58 230.987L963.73 228.963L920.224 182.834L918.074 184.858L961.58 230.987Z" fill="#0074FF"/>
<path d="M967.53 225.418C970.034 228.084 969.933 232.303 967.263 234.805C964.593 237.308 960.372 237.209 957.868 234.542C955.365 231.875 955.465 227.657 958.135 225.155C960.805 222.652 965.027 222.751 967.53 225.418Z" fill="#0074FF"/>
<path d="M945.816 291.066L964.089 230.347L961.261 229.498L942.987 290.217L945.816 291.066Z" fill="#0074FF"/>
<path d="M950.801 292.612C949.757 296.118 946.034 298.128 942.519 297.055C939.011 296.013 937.001 292.294 938.076 288.781C939.12 285.275 942.843 283.266 946.358 284.338C949.866 285.38 951.876 289.1 950.801 292.612Z" fill="#0074FF"/>
<path d="M883.03 306.732L944.778 292.133L944.099 289.26L882.351 303.86L883.03 306.732Z" fill="#0074FF"/>
<path d="M881.159 298.818C877.578 299.665 875.361 303.251 876.207 306.829C877.053 310.407 880.641 312.621 884.222 311.774C887.803 310.927 890.02 307.341 889.174 303.763C888.328 300.185 884.74 297.971 881.159 298.818Z" fill="#0074FF"/>
<path d="M881.598 306.323L883.749 304.299L840.242 258.17L838.092 260.194L881.598 306.323Z" fill="#0074FF"/>
<path d="M834.334 263.718C831.831 261.051 831.931 256.833 834.601 254.33C837.271 251.828 841.493 251.926 843.996 254.593C846.5 257.26 846.399 261.478 843.729 263.981C841.059 266.484 836.838 266.385 834.334 263.718Z" fill="#0074FF"/>
<path d="M840.58 259.618L858.843 198.896L856.014 198.048L837.751 258.77L840.58 259.618Z" fill="#0074FF"/>
<path d="M851.033 196.53C852.077 193.025 855.8 191.015 859.315 192.088C862.823 193.13 864.833 196.849 863.758 200.362C862.683 203.875 858.991 205.877 855.476 204.804C851.968 203.762 849.958 200.043 851.033 196.53Z" fill="#0074FF"/>
<path d="M857.765 199.875L919.513 185.276L918.834 182.403L857.086 197.003L857.765 199.875Z" fill="#0074FF"/>
<path d="M917.642 177.361C921.22 176.515 924.812 178.731 925.658 182.306C926.503 185.882 924.284 189.471 920.706 190.317C917.127 191.163 913.535 188.948 912.69 185.372C911.845 181.797 914.064 178.207 917.642 177.361Z" fill="#0074FF"/>
<path d="M1066.85 262.506L1069 260.481L1025.5 214.352L1023.35 216.377L1066.85 262.506Z" fill="#0074FF"/>
<path d="M1072.77 256.936C1075.27 259.602 1075.17 263.821 1072.5 266.323C1069.83 268.826 1065.61 268.727 1063.1 266.06C1060.6 263.393 1060.7 259.175 1063.37 256.672C1066.04 254.17 1070.26 254.269 1072.77 256.936Z" fill="#0074FF"/>
<path d="M1051.1 322.679L1069.36 261.957L1066.53 261.108L1048.27 321.83L1051.1 322.679Z" fill="#0074FF"/>
<path d="M1056.07 324.123C1055.02 327.629 1051.3 329.638 1047.79 328.566C1044.28 327.524 1042.27 323.804 1043.34 320.291C1044.39 316.786 1048.11 314.776 1051.62 315.849C1055.13 316.891 1057.14 320.61 1056.07 324.123Z" fill="#0074FF"/>
<path d="M988.273 338.281L1050.02 323.681L1049.34 320.809L987.594 335.408L988.273 338.281Z" fill="#0074FF"/>
<path d="M986.402 330.366C982.821 331.213 980.604 334.8 981.45 338.377C982.296 341.955 985.884 344.169 989.465 343.322C993.046 342.476 995.263 338.889 994.417 335.311C993.571 331.734 989.983 329.52 986.402 330.366Z" fill="#0074FF"/>
<path d="M986.864 337.856L989.014 335.831L945.508 289.702L943.357 291.727L986.864 337.856Z" fill="#0074FF"/>
<path d="M939.577 295.266C937.074 292.599 937.174 288.381 939.844 285.878C942.514 283.376 946.735 283.475 949.239 286.142C951.742 288.808 951.642 293.027 948.972 295.529C946.302 298.032 942.081 297.933 939.577 295.266Z" fill="#0074FF"/>
<path d="M945.816 291.066L964.089 230.347L961.261 229.498L942.987 290.217L945.816 291.066Z" fill="#0074FF"/>
<path d="M956.306 228.071C957.35 224.566 961.073 222.556 964.588 223.629C968.096 224.671 970.106 228.39 969.031 231.903C967.987 235.409 964.264 237.418 960.749 236.346C957.241 235.304 955.231 231.584 956.306 228.071Z" fill="#0074FF"/>
<path d="M963.001 231.393L1024.75 216.793L1024.07 213.921L962.322 228.52L963.001 231.393Z" fill="#0074FF"/>
<path d="M1022.88 208.91C1019.3 209.756 1017.09 213.343 1017.93 216.921C1018.78 220.498 1022.37 222.712 1025.95 221.866C1029.53 221.019 1031.75 217.433 1030.9 213.855C1030.05 210.277 1026.47 208.063 1022.88 208.91Z" fill="#0074FF"/>
<path d="M1146.84 187.201L1148.99 185.176L1105.49 139.047L1103.34 141.072L1146.84 187.201Z" fill="#0074FF"/>
<path d="M1152.77 181.619C1155.28 184.286 1155.18 188.505 1152.51 191.007C1149.84 193.51 1145.62 193.411 1143.11 190.744C1140.61 188.077 1140.71 183.859 1143.38 181.356C1146.05 178.854 1150.27 178.953 1152.77 181.619Z" fill="#0074FF"/>
<path d="M1131.1 247.358L1149.36 186.636L1146.53 185.787L1128.27 246.509L1131.1 247.358Z" fill="#0074FF"/>
<path d="M1136.05 248.814C1135 252.32 1131.28 254.329 1127.76 253.257C1124.25 252.215 1122.25 248.496 1123.32 244.983C1124.36 241.477 1128.09 239.468 1131.6 240.54C1135.11 241.582 1137.12 245.301 1136.05 248.814Z" fill="#0074FF"/>
<path d="M1068.27 262.934L1130.02 248.335L1129.34 245.462L1067.6 260.062L1068.27 262.934Z" fill="#0074FF"/>
<path d="M1066.4 255.02C1062.82 255.866 1060.61 259.453 1061.45 263.031C1062.3 266.609 1065.89 268.823 1069.47 267.976C1073.05 267.129 1075.26 263.543 1074.42 259.965C1073.57 256.387 1069.98 254.173 1066.4 255.02Z" fill="#0074FF"/>
<path d="M1066.85 262.506L1069 260.481L1025.5 214.352L1023.35 216.377L1066.85 262.506Z" fill="#0074FF"/>
<path d="M1019.58 219.92C1017.07 217.253 1017.18 213.035 1019.85 210.532C1022.52 208.029 1026.74 208.128 1029.24 210.795C1031.74 213.462 1031.64 217.68 1028.97 220.183C1026.3 222.685 1022.08 222.586 1019.58 219.92Z" fill="#0074FF"/>
<path d="M1025.8 215.811L1044.06 155.089L1041.23 154.24L1022.97 214.962L1025.8 215.811Z" fill="#0074FF"/>
<path d="M1036.28 152.732C1037.32 149.226 1041.04 147.217 1044.56 148.289C1048.07 149.331 1050.08 153.051 1049 156.564C1047.96 160.069 1044.23 162.079 1040.72 161.006C1037.21 159.964 1035.2 156.245 1036.28 152.732Z" fill="#0074FF"/>
<path d="M1043.01 156.077L1104.76 141.477L1104.08 138.605L1042.33 153.204L1043.01 156.077Z" fill="#0074FF"/>
<path d="M1102.89 133.563C1106.46 132.717 1110.06 134.933 1110.9 138.508C1111.75 142.083 1109.53 145.673 1105.95 146.519C1102.37 147.365 1098.78 145.149 1097.93 141.574C1097.09 137.999 1099.31 134.409 1102.89 133.563Z" fill="#0074FF"/>
<path d="M1131.1 247.358L1149.36 186.636L1146.53 185.787L1128.27 246.509L1131.1 247.358Z" fill="#0074FF"/>
<path d="M1141.55 184.273C1142.59 180.768 1146.32 178.758 1149.83 179.831C1153.34 180.873 1155.35 184.592 1154.28 188.105C1153.23 191.61 1149.51 193.62 1145.99 192.547C1142.48 191.505 1140.48 187.786 1141.55 184.273Z" fill="#0074FF"/>
<path d="M1148.24 187.595L1209.99 172.995L1209.31 170.123L1147.57 184.722L1148.24 187.595Z" fill="#0074FF"/>
<path d="M1208.13 165.111C1204.55 165.958 1202.33 169.545 1203.18 173.123C1204.02 176.7 1207.61 178.914 1211.19 178.068C1214.77 177.221 1216.99 173.634 1216.14 170.057C1215.3 166.479 1211.71 164.265 1208.13 165.111Z" fill="#0074FF"/>
<path d="M284.844 390.994L303.106 330.272L300.277 329.423L282.015 390.145L284.844 390.994Z" fill="#0074FF"/>
<path d="M289.796 392.466C288.752 395.971 285.029 397.981 281.514 396.908C278.006 395.866 275.996 392.147 277.071 388.634C278.115 385.129 281.838 383.119 285.353 384.192C288.861 385.234 290.871 388.953 289.796 392.466Z" fill="#0074FF"/>
<path d="M222.025 406.585L283.773 391.986L283.094 389.114L221.346 403.713L222.025 406.585Z" fill="#0074FF"/>
<path d="M220.161 398.702C216.58 399.548 214.363 403.135 215.209 406.713C216.055 410.291 219.644 412.505 223.224 411.658C226.805 410.811 229.022 407.225 228.176 403.647C227.33 400.069 223.742 397.855 220.161 398.702Z" fill="#0074FF"/>
<path d="M470.102 347.21L488.364 286.488L485.536 285.639L467.273 346.361L470.102 347.21Z" fill="#0074FF"/>
<path d="M475.04 348.668C473.996 352.173 470.273 354.183 466.758 353.11C463.25 352.068 461.24 348.349 462.315 344.836C463.359 341.33 467.082 339.321 470.597 340.393C474.105 341.435 476.115 345.155 475.04 348.668Z" fill="#0074FF"/>
<path d="M407.269 362.787L469.017 348.188L468.338 345.316L406.59 359.915L407.269 362.787Z" fill="#0074FF"/>
<path d="M408.461 367.829C404.883 368.675 401.291 366.459 400.446 362.884C399.601 359.309 401.82 355.719 405.398 354.873C408.976 354.027 412.568 356.243 413.413 359.818C414.258 363.393 412.039 366.983 408.461 367.829Z" fill="#0074FF"/>
<path d="M405.858 362.363L408.009 360.339L364.502 314.21L362.352 316.234L405.858 362.363Z" fill="#0074FF"/>
<path d="M358.58 319.804C356.077 317.137 356.177 312.918 358.847 310.416C361.517 307.913 365.739 308.012 368.242 310.679C370.746 313.346 370.645 317.564 367.975 320.067C365.305 322.569 361.084 322.47 358.58 319.804Z" fill="#0074FF"/>
<path d="M671.082 243.234L673.232 241.209L629.726 195.08L627.575 197.105L671.082 243.234Z" fill="#0074FF"/>
<path d="M677.013 237.675C679.516 240.342 679.416 244.56 676.746 247.062C674.076 249.565 669.855 249.466 667.351 246.799C664.847 244.132 664.948 239.914 667.618 237.412C670.288 234.909 674.509 235.008 677.013 237.675Z" fill="#0074FF"/>
<path d="M655.284 303.379L673.547 242.657L670.718 241.808L652.455 302.531L655.284 303.379Z" fill="#0074FF"/>
<path d="M660.284 304.869C659.24 308.375 655.517 310.385 652.002 309.312C648.494 308.27 646.484 304.551 647.559 301.038C648.603 297.532 652.326 295.523 655.841 296.595C659.349 297.637 661.359 301.356 660.284 304.869Z" fill="#0074FF"/>
<path d="M592.513 318.989L654.261 304.39L653.582 301.517L591.834 316.117L592.513 318.989Z" fill="#0074FF"/>
<path d="M590.649 311.105C587.068 311.952 584.851 315.539 585.697 319.116C586.543 322.694 590.131 324.908 593.712 324.062C597.293 323.215 599.51 319.628 598.664 316.051C597.818 312.473 594.23 310.259 590.649 311.105Z" fill="#0074FF"/>
<path d="M591.091 318.584L593.241 316.559L549.735 270.43L547.585 272.455L591.091 318.584Z" fill="#0074FF"/>
<path d="M543.824 276.005C541.321 273.338 541.421 269.12 544.091 266.618C546.761 264.115 550.983 264.214 553.486 266.881C555.99 269.548 555.889 273.766 553.189 276.276C550.519 278.778 546.297 278.679 543.794 276.012L543.824 276.005Z" fill="#0074FF"/>
<path d="M735.281 228.008L753.554 167.289L750.725 166.44L732.452 227.159L735.281 228.008Z" fill="#0074FF"/>
<path d="M740.292 229.553C739.248 233.059 735.525 235.068 732.01 233.996C728.502 232.954 726.493 229.235 727.567 225.722C728.611 222.216 732.334 220.207 735.85 221.279C739.365 222.352 741.367 226.04 740.292 229.553Z" fill="#0074FF"/>
<path d="M672.522 243.673L734.27 229.074L733.59 226.201L671.842 240.801L672.522 243.673Z" fill="#0074FF"/>
<path d="M673.714 248.715C670.135 249.561 666.544 247.345 665.698 243.77C664.853 240.195 667.072 236.605 670.65 235.759C674.229 234.913 677.82 237.129 678.666 240.704C679.511 244.279 677.292 247.869 673.714 248.715Z" fill="#0074FF"/>
<path d="M671.082 243.234L673.232 241.209L629.726 195.08L627.575 197.105L671.082 243.234Z" fill="#0074FF"/>
<path d="M623.826 200.659C621.322 197.992 621.423 193.774 624.093 191.271C626.763 188.768 630.984 188.867 633.488 191.534C635.991 194.201 635.891 198.419 633.221 200.922C630.551 203.424 626.329 203.325 623.826 200.659Z" fill="#0074FF"/>
<path d="M856.345 199.447L858.495 197.423L814.989 151.294L812.839 153.318L856.345 199.447Z" fill="#0074FF"/>
<path d="M862.257 193.876C864.76 196.543 864.66 200.762 861.99 203.264C859.32 205.767 855.098 205.668 852.595 203.001C850.091 200.334 850.192 196.116 852.862 193.613C855.532 191.111 859.753 191.21 862.257 193.876Z" fill="#0074FF"/>
<path d="M840.58 259.618L858.843 198.896L856.014 198.048L837.751 258.77L840.58 259.618Z" fill="#0074FF"/>
<path d="M845.559 261.064C844.514 264.57 840.791 266.579 837.276 265.507C833.768 264.465 831.759 260.745 832.833 257.232C833.877 253.727 837.6 251.717 841.116 252.79C844.624 253.832 846.633 257.551 845.559 261.064Z" fill="#0074FF"/>
<path d="M777.757 275.191L839.505 260.592L838.826 257.719L777.078 272.319L777.757 275.191Z" fill="#0074FF"/>
<path d="M778.949 280.233C775.371 281.079 771.779 278.863 770.934 275.288C770.088 271.713 772.307 268.123 775.886 267.277C779.464 266.431 783.056 268.647 783.901 272.222C784.746 275.797 782.527 279.387 778.949 280.233Z" fill="#0074FF"/>
<path d="M776.355 274.797L778.505 272.772L734.998 226.643L732.848 228.668L776.355 274.797Z" fill="#0074FF"/>
<path d="M729.068 232.207C726.565 229.54 726.665 225.322 729.335 222.819C732.005 220.317 736.227 220.416 738.73 223.082C741.234 225.749 741.133 229.968 738.463 232.47C735.793 234.973 731.572 234.874 729.068 232.207Z" fill="#0074FF"/>
<path d="M735.281 228.008L753.554 167.289L750.725 166.44L732.452 227.159L735.281 228.008Z" fill="#0074FF"/>
<path d="M745.797 165.012C746.841 161.507 750.564 159.497 754.08 160.57C757.588 161.612 759.597 165.331 758.522 168.844C757.478 172.35 753.755 174.359 750.24 173.287C746.732 172.245 744.723 168.525 745.797 165.012Z" fill="#0074FF"/>
<path d="M752.492 168.334L814.24 153.734L813.561 150.862L751.813 165.461L752.492 168.334Z" fill="#0074FF"/>
<path d="M812.369 145.82C808.788 146.667 806.571 150.253 807.417 153.831C808.263 157.409 811.851 159.623 815.432 158.776C819.013 157.93 821.23 154.343 820.384 150.765C819.538 147.187 815.95 144.973 812.369 145.82Z" fill="#0074FF"/>
<path d="M936.334 124.142L938.485 122.117L894.978 75.9882L892.828 78.0131L936.334 124.142Z" fill="#0074FF"/>
<path d="M942.265 118.56C944.769 121.227 944.668 125.446 941.998 127.948C939.328 130.451 935.107 130.352 932.596 127.655C930.093 124.988 930.193 120.769 932.863 118.267C935.533 115.764 939.755 115.863 942.258 118.53L942.265 118.56Z" fill="#0074FF"/>
<path d="M920.533 184.211L938.806 123.492L935.978 122.643L917.704 183.362L920.533 184.211Z" fill="#0074FF"/>
<path d="M925.536 185.755C924.492 189.261 920.769 191.27 917.254 190.198C913.746 189.156 911.736 185.437 912.811 181.924C913.855 178.418 917.578 176.409 921.093 177.481C924.601 178.523 926.611 182.242 925.536 185.755Z" fill="#0074FF"/>
<path d="M857.765 199.875L919.513 185.276L918.834 182.403L857.086 197.003L857.765 199.875Z" fill="#0074FF"/>
<path d="M858.957 204.917C855.379 205.763 851.787 203.547 850.942 199.972C850.097 196.397 852.316 192.807 855.894 191.961C859.472 191.115 863.064 193.331 863.91 196.906C864.755 200.481 862.536 204.071 858.957 204.917Z" fill="#0074FF"/>
<path d="M856.345 199.447L858.495 197.423L814.989 151.294L812.839 153.318L856.345 199.447Z" fill="#0074FF"/>
<path d="M809.07 156.86C806.566 154.194 806.667 149.975 809.337 147.473C812.006 144.97 816.228 145.069 818.731 147.736C821.235 150.403 821.134 154.621 818.464 157.124C815.795 159.626 811.573 159.527 809.07 156.86Z" fill="#0074FF"/>
<path d="M815.315 152.743L833.577 92.0211L830.749 91.1726L812.486 151.895L815.315 152.743Z" fill="#0074FF"/>
<path d="M825.768 89.673C826.812 86.1674 830.535 84.1579 834.043 85.1999C837.551 86.2419 839.561 89.9611 838.486 93.474C837.442 96.9796 833.719 98.9891 830.203 97.9166C826.696 96.8746 824.686 93.1553 825.761 89.6424L825.768 89.673Z" fill="#0074FF"/>
<path d="M832.501 93.0178L894.249 78.4184L893.57 75.546L831.821 90.1454L832.501 93.0178Z" fill="#0074FF"/>
<path d="M892.377 70.5041C888.797 71.3508 886.579 74.9374 887.425 78.5151C888.271 82.0929 891.86 84.3068 895.441 83.4602C899.022 82.6136 901.239 79.0269 900.393 75.4492C899.547 71.8715 895.958 69.6575 892.377 70.5041Z" fill="#0074FF"/>
<path d="M1041.57 155.638L1043.72 153.613L1000.21 107.484L998.064 109.508L1041.57 155.638Z" fill="#0074FF"/>
<path d="M1047.5 150.078C1050 152.745 1049.9 156.963 1047.23 159.466C1044.56 161.969 1040.34 161.87 1037.84 159.203C1035.34 156.536 1035.44 152.318 1038.11 149.815C1040.78 147.313 1045 147.411 1047.5 150.078Z" fill="#0074FF"/>
<path d="M1025.8 215.811L1044.06 155.089L1041.23 154.24L1022.97 214.962L1025.8 215.811Z" fill="#0074FF"/>
<path d="M1030.8 217.266C1029.76 220.771 1026.04 222.781 1022.52 221.708C1019.01 220.666 1017 216.947 1018.08 213.434C1019.12 209.929 1022.84 207.919 1026.36 208.992C1029.87 210.034 1031.88 213.753 1030.8 217.266Z" fill="#0074FF"/>
<path d="M963.001 231.393L1024.75 216.793L1024.07 213.921L962.322 228.52L963.001 231.393Z" fill="#0074FF"/>
<path d="M961.137 223.509C957.556 224.356 955.339 227.942 956.185 231.52C957.031 235.098 960.619 237.312 964.2 236.465C967.781 235.619 969.998 232.032 969.152 228.454C968.306 224.876 964.718 222.662 961.137 223.509Z" fill="#0074FF"/>
<path d="M961.58 230.987L963.73 228.963L920.224 182.834L918.074 184.858L961.58 230.987Z" fill="#0074FF"/>
<path d="M914.312 188.409C911.809 185.742 911.909 181.524 914.579 179.021C917.249 176.519 921.471 176.617 923.974 179.284C926.478 181.951 926.377 186.169 923.707 188.672C921.037 191.175 916.816 191.076 914.312 188.409Z" fill="#0074FF"/>
<path d="M920.533 184.211L938.806 123.492L935.978 122.643L917.704 183.362L920.533 184.211Z" fill="#0074FF"/>
<path d="M931.041 121.214C932.085 117.708 935.808 115.699 939.323 116.772C942.831 117.813 944.841 121.533 943.766 125.046C942.722 128.551 938.999 130.561 935.484 129.488C931.976 128.446 929.966 124.727 931.041 121.214Z" fill="#0074FF"/>
<path d="M937.736 124.536L999.484 109.936L998.805 107.064L937.057 121.663L937.736 124.536Z" fill="#0074FF"/>
<path d="M997.613 102.022C994.032 102.869 991.815 106.455 992.661 110.033C993.507 113.611 997.095 115.825 1000.68 114.978C1004.26 114.131 1006.47 110.545 1005.63 106.967C1004.78 103.389 1001.19 101.175 997.613 102.022Z" fill="#0074FF"/>
<path d="M1121.57 80.3627L1123.72 78.338L1080.21 32.2088L1078.06 34.2336L1121.57 80.3627Z" fill="#0074FF"/>
<path d="M1127.51 74.7623C1130.01 77.4291 1129.91 81.6473 1127.24 84.15C1124.57 86.6526 1120.35 86.5537 1117.84 83.8563C1115.34 81.1895 1115.44 76.9712 1118.11 74.4686C1120.78 71.966 1125 72.0649 1127.5 74.7317L1127.51 74.7623Z" fill="#0074FF"/>
<path d="M1105.84 140.483L1124.1 79.7604L1121.27 78.9119L1103.01 139.634L1105.84 140.483Z" fill="#0074FF"/>
<path d="M1110.78 141.957C1109.74 145.463 1106.01 147.472 1102.5 146.4C1098.99 145.358 1096.98 141.638 1098.06 138.125C1099.1 134.62 1102.82 132.61 1106.34 133.683C1109.85 134.755 1111.86 138.444 1110.78 141.957Z" fill="#0074FF"/>
<path d="M1043.01 156.077L1104.76 141.477L1104.08 138.605L1042.33 153.204L1043.01 156.077Z" fill="#0074FF"/>
<path d="M1044.2 161.119C1040.62 161.965 1037.03 159.749 1036.19 156.174C1035.34 152.598 1037.56 149.009 1041.14 148.163C1044.72 147.317 1048.31 149.533 1049.15 153.108C1050 156.683 1047.78 160.273 1044.2 161.119Z" fill="#0074FF"/>
<path d="M1041.57 155.638L1043.72 153.613L1000.21 107.484L998.064 109.508L1041.57 155.638Z" fill="#0074FF"/>
<path d="M994.314 113.062C991.81 110.395 991.911 106.177 994.581 103.675C997.25 101.172 1001.47 101.271 1003.98 103.938C1006.48 106.605 1006.38 110.823 1003.71 113.325C1001.04 115.828 996.817 115.729 994.314 113.062Z" fill="#0074FF"/>
<path d="M1000.55 108.936L1018.81 48.2141L1015.99 47.3656L997.722 108.088L1000.55 108.936Z" fill="#0074FF"/>
<path d="M1011.01 45.8749C1012.06 42.3692 1015.78 40.3597 1019.29 41.4016C1022.79 42.4436 1024.8 46.1629 1023.73 49.6758C1022.69 53.1814 1018.96 55.191 1015.45 54.1184C1011.94 53.0764 1009.93 49.3571 1011 45.8443L1011.01 45.8749Z" fill="#0074FF"/>
<path d="M1017.74 49.2196L1079.49 34.6202L1078.81 31.7478L1017.07 46.3472L1017.74 49.2196Z" fill="#0074FF"/>
<path d="M1077.62 26.7059C1081.2 25.8599 1084.79 28.0758 1085.64 31.651C1086.48 35.2262 1084.26 38.816 1080.68 39.662C1077.11 40.508 1073.51 38.2921 1072.67 34.7169C1071.82 31.1418 1074.04 27.552 1077.62 26.7059Z" fill="#0074FF"/>
<path d="M1148.24 187.595L1209.99 172.995L1209.31 170.123L1147.57 184.722L1148.24 187.595Z" fill="#0074FF"/>
<path d="M1149.44 192.636C1145.86 193.482 1142.27 191.267 1141.42 187.691C1140.58 184.116 1142.8 180.526 1146.37 179.68C1149.95 178.834 1153.54 181.05 1154.39 184.625C1155.23 188.201 1153.02 191.79 1149.44 192.636Z" fill="#0074FF"/>
<path d="M1146.84 187.201L1148.99 185.176L1105.49 139.047L1103.34 141.072L1146.84 187.201Z" fill="#0074FF"/>
<path d="M1099.56 144.611C1097.05 141.944 1097.15 137.726 1099.82 135.223C1102.49 132.72 1106.71 132.819 1109.22 135.486C1111.72 138.153 1111.62 142.371 1108.95 144.874C1106.28 147.377 1102.06 147.278 1099.56 144.611Z" fill="#0074FF"/>
<path d="M1105.84 140.483L1124.1 79.7604L1121.27 78.9119L1103.01 139.634L1105.84 140.483Z" fill="#0074FF"/>
<path d="M1116.29 77.416C1117.33 73.9104 1121.05 71.9009 1124.57 72.9734C1128.08 74.0154 1130.09 77.7347 1129.01 81.2476C1127.97 84.7532 1124.24 86.7626 1120.73 85.6901C1117.22 84.6482 1115.21 80.9289 1116.29 77.416Z" fill="#0074FF"/>
<path d="M1122.98 80.7374L1184.73 66.138L1184.05 63.2656L1122.3 77.865L1122.98 80.7374Z" fill="#0074FF"/>
<path d="M1182.86 58.2238C1179.28 59.0704 1177.06 62.6571 1177.9 66.2348C1178.75 69.8125 1182.34 72.0266 1185.92 71.1799C1189.5 70.3333 1191.72 66.7466 1190.87 63.1688C1190.03 59.5911 1186.44 57.3771 1182.86 58.2238Z" fill="#0074FF"/>
<path d="M831.062 92.579L833.212 90.5542L789.705 44.4251L787.555 46.4499L831.062 92.579Z" fill="#0074FF"/>
<path d="M836.992 87.0193C839.496 89.6862 839.395 93.9044 836.725 96.407C834.055 98.9096 829.834 98.8107 827.33 96.1439C824.827 93.477 824.927 89.2588 827.597 86.7562C830.267 84.2536 834.489 84.3525 836.992 87.0193Z" fill="#0074FF"/>
<path d="M815.315 152.743L833.577 92.0211L830.749 91.1726L812.486 151.895L815.315 152.743Z" fill="#0074FF"/>
<path d="M820.294 154.207C819.25 157.712 815.527 159.722 812.019 158.68C808.511 157.638 806.501 153.919 807.576 150.406C808.62 146.9 812.343 144.891 815.858 145.963C819.366 147.005 821.376 150.724 820.301 154.237L820.294 154.207Z" fill="#0074FF"/>
<path d="M752.492 168.334L814.24 153.734L813.561 150.862L751.813 165.461L752.492 168.334Z" fill="#0074FF"/>
<path d="M753.684 173.376C750.106 174.222 746.514 172.006 745.669 168.431C744.824 164.855 747.043 161.266 750.621 160.42C754.199 159.574 757.791 161.789 758.636 165.365C759.482 168.94 757.262 172.53 753.684 173.376Z" fill="#0074FF"/>
<path d="M727.227 61.4765L788.975 46.8771L788.296 44.0048L726.548 58.6042L727.227 61.4765Z" fill="#0074FF"/>
<path d="M787.111 38.9934C790.69 38.1474 794.281 40.3634 795.127 43.9385C795.972 47.5136 793.753 51.1035 790.175 51.9496C786.596 52.7956 783.005 50.5796 782.159 47.0045C781.314 43.4293 783.533 39.8394 787.111 38.9934Z" fill="#0074FF"/>
<path d="M911.051 17.2735L913.201 15.2487L869.694 -30.8804L867.544 -28.8556L911.051 17.2735Z" fill="#0074FF"/>
<path d="M917 11.7032C919.504 14.3701 919.403 18.5883 916.734 21.091C914.064 23.5936 909.842 23.4947 907.339 20.8279C904.835 18.161 904.936 13.9427 907.606 11.4402C910.275 8.93753 914.497 9.03636 917 11.7032Z" fill="#0074FF"/>
<path d="M895.319 77.4219L913.582 16.6998L910.753 15.8513L892.49 76.5734L895.319 77.4219Z" fill="#0074FF"/>
<path d="M900.272 78.8979C899.227 82.4036 895.505 84.4131 891.989 83.3405C888.481 82.2986 886.472 78.5793 887.546 75.0665C888.591 71.5608 892.314 69.5513 895.829 70.6238C899.337 71.6658 901.346 75.3851 900.272 78.8979Z" fill="#0074FF"/>
<path d="M832.501 93.0178L894.249 78.4184L893.57 75.546L831.821 90.1454L832.501 93.0178Z" fill="#0074FF"/>
<path d="M830.629 85.1036C827.049 85.9502 824.831 89.5369 825.677 93.1146C826.523 96.6923 830.112 98.9063 833.693 98.0597C837.274 97.213 839.491 93.6264 838.645 90.0486C837.799 86.4709 834.21 84.2569 830.629 85.1036Z" fill="#0074FF"/>
<path d="M831.062 92.579L833.212 90.5542L789.705 44.4251L787.555 46.4499L831.062 92.579Z" fill="#0074FF"/>
<path d="M783.805 50.0032C781.301 47.3363 781.402 43.1181 784.072 40.6155C786.742 38.1128 790.963 38.2118 793.467 40.8786C795.97 43.5454 795.87 47.7636 793.2 50.2663C790.53 52.7689 786.308 52.67 783.805 50.0032Z" fill="#0074FF"/>
<path d="M790.005 45.8102L808.278 -14.9087L805.45 -15.7577L787.176 44.9612L790.005 45.8102Z" fill="#0074FF"/>
<path d="M800.503 -17.1842C801.547 -20.6898 805.27 -22.6994 808.785 -21.6268C812.293 -20.5848 814.303 -16.8656 813.228 -13.3527C812.184 -9.84709 808.461 -7.83754 804.946 -8.91004C801.438 -9.95201 799.428 -13.6713 800.503 -17.1842Z" fill="#0074FF"/>
<path d="M807.236 -13.8395L868.984 -28.4389L868.305 -31.3112L806.557 -16.7118L807.236 -13.8395Z" fill="#0074FF"/>
<path d="M867.113 -36.3531C863.532 -35.5065 861.315 -31.9198 862.161 -28.3421C863.006 -24.7644 866.595 -22.5504 870.176 -23.397C873.757 -24.2437 875.974 -27.8303 875.128 -31.408C874.282 -34.9857 870.693 -37.1997 867.113 -36.3531Z" fill="#0074FF"/>
<path d="M1016.32 48.7923L1018.48 46.7675L974.969 0.638414L972.819 2.66324L1016.32 48.7923Z" fill="#0074FF"/>
<path d="M1022.24 43.2211C1024.74 45.8879 1024.64 50.1061 1021.97 52.6088C1019.3 55.1114 1015.08 55.0125 1012.57 52.3456C1010.07 49.6788 1010.17 45.4605 1012.84 42.958C1015.51 40.4553 1019.73 40.5542 1022.24 43.2211Z" fill="#0074FF"/>
<path d="M1000.55 108.936L1018.81 48.2141L1015.99 47.3656L997.722 108.088L1000.55 108.936Z" fill="#0074FF"/>
<path d="M1005.54 110.408C1004.49 113.914 1000.77 115.924 997.263 114.882C993.755 113.84 991.745 110.12 992.82 106.608C993.864 103.102 997.587 101.092 1001.1 102.165C1004.61 103.207 1006.62 106.926 1005.54 110.439L1005.54 110.408Z" fill="#0074FF"/>
<path d="M937.736 124.536L999.484 109.936L998.805 107.064L937.057 121.663L937.736 124.536Z" fill="#0074FF"/>
<path d="M935.865 116.621C932.284 117.468 930.067 121.055 930.913 124.632C931.759 128.21 935.347 130.424 938.928 129.577C942.509 128.731 944.726 125.144 943.88 121.566C943.034 117.989 939.446 115.775 935.865 116.621Z" fill="#0074FF"/>
<path d="M936.334 124.142L938.485 122.117L894.978 75.9882L892.828 78.0131L936.334 124.142Z" fill="#0074FF"/>
<path d="M889.047 81.5516C886.544 78.8848 886.645 74.6665 889.314 72.1639C891.984 69.6613 896.206 69.7602 898.717 72.4576C901.22 75.1244 901.119 79.3427 898.45 81.8453C895.78 84.3479 891.558 84.249 889.055 81.5822L889.047 81.5516Z" fill="#0074FF"/>
<path d="M895.319 77.4219L913.582 16.6998L910.753 15.8513L892.49 76.5734L895.319 77.4219Z" fill="#0074FF"/>
<path d="M905.776 14.3569C906.821 10.8513 910.544 8.84179 914.059 9.9143C917.567 10.9563 919.576 14.6756 918.502 18.1884C917.457 21.6941 913.734 23.7036 910.219 22.6311C906.711 21.5891 904.702 17.8698 905.776 14.3569Z" fill="#0074FF"/>
<path d="M912.471 17.6783L974.219 3.07895L973.54 0.206549L911.792 14.8059L912.471 17.6783Z" fill="#0074FF"/>
<path d="M972.355 -4.80476C975.934 -5.65079 979.525 -3.43479 980.371 0.140345C981.216 3.71548 978.997 7.30536 975.419 8.15138C971.84 8.99741 968.249 6.78142 967.403 3.20628C966.558 -0.368854 968.777 -3.95873 972.355 -4.80476Z" fill="#0074FF"/>
<path d="M1080.56 33.5768L1098.83 -27.1453L1096 -27.9938L1077.73 32.7283L1080.56 33.5768Z" fill="#0074FF"/>
<path d="M1085.52 35.0998C1084.47 38.6054 1080.75 40.6149 1077.23 39.5424C1073.73 38.5005 1071.72 34.7812 1072.79 31.2683C1073.83 27.7627 1077.56 25.7531 1081.07 26.8256C1084.58 27.8676 1086.59 31.5869 1085.52 35.0998Z" fill="#0074FF"/>
<path d="M1017.74 49.2196L1079.49 34.6202L1078.81 31.7478L1017.07 46.3472L1017.74 49.2196Z" fill="#0074FF"/>
<path d="M1015.87 41.3054C1012.29 42.152 1010.08 45.7387 1010.92 49.3164C1011.77 52.8941 1015.36 55.1081 1018.94 54.2614C1022.52 53.4148 1024.73 49.8282 1023.89 46.2504C1023.04 42.6727 1019.45 40.4588 1015.87 41.3054Z" fill="#0074FF"/>
<path d="M1016.32 48.7923L1018.48 46.7675L974.969 0.638414L972.819 2.66324L1016.32 48.7923Z" fill="#0074FF"/>
<path d="M969.049 6.20501C966.545 3.53811 966.646 -0.680132 969.316 -3.18277C971.986 -5.68534 976.207 -5.58644 978.711 -2.91961C981.214 -0.252768 981.114 3.96547 978.444 6.4681C975.774 8.97074 971.552 8.87185 969.049 6.20501Z" fill="#0074FF"/>
<path d="M975.264 2.04305L993.538 -58.676L990.709 -59.5249L972.436 1.19405L975.264 2.04305Z" fill="#0074FF"/>
<path d="M985.747 -60.9824C986.791 -64.488 990.514 -66.4975 994.029 -65.425C997.537 -64.383 999.547 -60.6637 998.472 -57.1508C997.428 -53.6452 993.705 -51.6357 990.19 -52.7082C986.682 -53.7501 984.672 -57.4695 985.747 -60.9824Z" fill="#0074FF"/>
<path d="M1122.98 80.7374L1184.73 66.138L1184.05 63.2656L1122.3 77.865L1122.98 80.7374Z" fill="#0074FF"/>
<path d="M1124.17 85.7793C1120.59 86.6253 1117 84.4094 1116.16 80.8342C1115.31 77.2591 1117.53 73.6692 1121.11 72.8232C1124.69 71.9771 1128.28 74.1931 1129.12 77.7682C1129.97 81.3434 1127.75 84.9333 1124.17 85.7793Z" fill="#0074FF"/>
<path d="M1121.57 80.3627L1123.72 78.338L1080.21 32.2088L1078.06 34.2336L1121.57 80.3627Z" fill="#0074FF"/>
<path d="M1074.29 37.7535C1071.79 35.0867 1071.89 30.8684 1074.56 28.3658C1077.23 25.8632 1081.45 25.962 1083.96 28.6595C1086.46 31.3263 1086.36 35.5446 1083.69 38.0472C1081.02 40.5498 1076.8 40.4509 1074.3 37.784L1074.29 37.7535Z" fill="#0074FF"/>
<path d="M1080.56 33.5768L1098.83 -27.1453L1096 -27.9938L1077.73 32.7283L1080.56 33.5768Z" fill="#0074FF"/>
<path d="M1091.02 -29.4412C1092.06 -32.9468 1095.79 -34.9563 1099.3 -33.8838C1102.81 -32.8418 1104.82 -29.1225 1103.75 -25.6096C1102.7 -22.104 1098.98 -20.0945 1095.46 -21.167C1091.96 -22.2089 1089.95 -25.9283 1091.02 -29.4412Z" fill="#0074FF"/>
<path d="M805.816 -14.2664L807.966 -16.2912L764.46 -62.4203L762.309 -60.3955L805.816 -14.2664Z" fill="#0074FF"/>
<path d="M811.727 -19.838C814.231 -17.1712 814.13 -12.953 811.46 -10.4503C808.79 -7.9477 804.569 -8.04659 802.058 -10.744C799.555 -13.4109 799.655 -17.629 802.325 -20.1317C804.995 -22.6343 809.217 -22.5355 811.72 -19.8686L811.727 -19.838Z" fill="#0074FF"/>
<path d="M790.005 45.8102L808.278 -14.9087L805.45 -15.7577L787.176 44.9612L790.005 45.8102Z" fill="#0074FF"/>
<path d="M795.029 47.3494C793.985 50.855 790.262 52.8646 786.747 51.7921C783.239 50.7501 781.229 47.0308 782.304 43.5179C783.348 40.0123 787.071 38.0028 790.586 39.0753C794.094 40.1172 796.104 43.8365 795.029 47.3494Z" fill="#0074FF"/>
<path d="M727.227 61.4765L788.975 46.8771L788.296 44.0048L726.548 58.6042L727.227 61.4765Z" fill="#0074FF"/>
<path d="M728.419 66.5184C724.841 67.3645 721.249 65.1485 720.404 61.5733C719.559 57.9981 721.778 54.4083 725.356 53.5623C728.934 52.7163 732.526 54.9322 733.371 58.5074C734.217 62.0825 731.998 65.6724 728.419 66.5184Z" fill="#0074FF"/>
<path d="M870.054 -29.4531L888.317 -90.1753L885.488 -91.0237L867.225 -30.3016L870.054 -29.4531Z" fill="#0074FF"/>
<path d="M875.007 -27.9593C873.963 -24.4537 870.24 -22.4442 866.732 -23.4861C863.224 -24.5281 861.214 -28.2474 862.289 -31.7602C863.333 -35.2659 867.056 -37.2754 870.571 -36.2029C874.079 -35.1609 876.089 -31.4416 875.014 -27.9287L875.007 -27.9593Z" fill="#0074FF"/>
<path d="M807.236 -13.8395L868.984 -28.4389L868.305 -31.3112L806.557 -16.7118L807.236 -13.8395Z" fill="#0074FF"/>
<path d="M805.365 -21.7538C801.784 -20.9071 799.567 -17.3205 800.413 -13.7427C801.258 -10.165 804.847 -7.95104 808.428 -8.79767C812.009 -9.64432 814.226 -13.2309 813.38 -16.8087C812.534 -20.3864 808.945 -22.6004 805.365 -21.7538Z" fill="#0074FF"/>
<path d="M805.816 -14.2664L807.966 -16.2912L764.46 -62.4203L762.309 -60.3955L805.816 -14.2664Z" fill="#0074FF"/>
<path d="M758.54 -56.8539C756.036 -59.5207 756.137 -63.739 758.807 -66.2417C761.477 -68.7443 765.698 -68.6453 768.209 -65.9479C770.713 -63.2811 770.612 -59.0629 767.942 -56.5603C765.272 -54.0576 761.051 -54.1565 758.547 -56.8234L758.54 -56.8539Z" fill="#0074FF"/>
<path d="M975.264 2.04305L993.538 -58.676L990.709 -59.5249L972.436 1.19405L975.264 2.04305Z" fill="#0074FF"/>
<path d="M980.273 3.55122C979.229 7.05685 975.506 9.0664 971.991 7.99389C968.483 6.95192 966.473 3.23262 967.548 -0.280246C968.622 -3.79311 972.315 -5.79543 975.83 -4.72292C979.338 -3.68095 981.348 0.0383499 980.273 3.55122Z" fill="#0074FF"/>
<path d="M912.471 17.6783L974.219 3.07895L973.54 0.206549L911.792 14.8059L912.471 17.6783Z" fill="#0074FF"/>
<path d="M913.663 22.7203C910.085 23.5663 906.493 21.3503 905.648 17.7751C904.803 14.1999 907.022 10.6101 910.6 9.76411C914.178 8.91808 917.77 11.134 918.615 14.7092C919.461 18.2843 917.242 21.8742 913.663 22.7203Z" fill="#0074FF"/>
<path d="M911.051 17.2735L913.201 15.2487L869.694 -30.8804L867.544 -28.8556L911.051 17.2735Z" fill="#0074FF"/>
<path d="M863.783 -25.3056C861.279 -27.9725 861.38 -32.1907 864.05 -34.6934C866.72 -37.196 870.941 -37.097 873.445 -34.4302C875.948 -31.7634 875.848 -27.5451 873.178 -25.0425C870.508 -22.5399 866.286 -22.6387 863.783 -25.3056Z" fill="#0074FF"/>
<path d="M870.054 -29.4531L888.317 -90.1753L885.488 -91.0237L867.225 -30.3016L870.054 -29.4531Z" fill="#0074FF"/>
<path d="M880.512 -92.5002C881.556 -96.0058 885.279 -98.0154 888.787 -96.9734C892.295 -95.9315 894.304 -92.2121 893.23 -88.6992C892.185 -85.1936 888.462 -83.1841 884.947 -84.2566C881.439 -85.2986 879.43 -89.0179 880.504 -92.5308L880.512 -92.5002Z" fill="#0074FF"/>
</svg>
