<svg width="1112" height="516" viewBox="0 0 1112 516" fill="none" xmlns="http://www.w3.org/2000/svg">
<path d="M83.4612 430.126L86.3143 429.362L69.8799 368.12L67.0267 368.883L83.4612 430.126Z" fill="#0074FF"/>
<path d="M91.3124 428.036C92.2522 431.571 90.1636 435.237 86.6263 436.175C83.089 437.112 79.4192 435.024 78.4794 431.489C77.5395 427.954 79.6281 424.287 83.1653 423.35C86.7026 422.412 90.3725 424.501 91.3124 428.036Z" fill="#0074FF"/>
<path d="M6.77991 353.504L68.0683 369.927L68.8322 367.076L7.54383 350.653L6.77991 353.504Z" fill="#0074FF"/>
<path d="M70.173 362.071C73.7246 363.023 75.8366 366.677 74.8858 370.225C73.9349 373.774 70.2789 375.883 66.7273 374.931C63.1757 373.979 61.0639 370.325 62.0147 366.777C62.9655 363.228 66.6215 361.12 70.173 362.071Z" fill="#0074FF"/>
<path d="M161.207 507.79L164.06 507.026L147.625 445.784L144.772 446.547L161.207 507.79Z" fill="#0074FF"/>
<path d="M169.055 505.689C169.994 509.224 167.906 512.89 164.369 513.828C160.831 514.766 157.161 512.677 156.221 509.142C155.282 505.607 157.37 501.941 160.908 501.003C164.445 500.065 168.115 502.154 169.055 505.689Z" fill="#0074FF"/>
<path d="M84.5137 431.188L145.802 447.61L146.566 444.759L85.2777 428.337L84.5137 431.188Z" fill="#0074FF"/>
<path d="M147.907 439.755C151.459 440.706 153.571 444.36 152.62 447.909C151.669 451.457 148.013 453.566 144.461 452.614C140.91 451.663 138.798 448.009 139.749 444.46C140.7 440.912 144.355 438.803 147.907 439.755Z" fill="#0074FF"/>
<path d="M267.33 479.442L270.183 478.678L253.749 417.436L250.895 418.2L267.33 479.442Z" fill="#0074FF"/>
<path d="M275.178 477.302C276.117 480.837 274.029 484.504 270.492 485.441C266.954 486.379 263.284 484.29 262.345 480.755C261.405 477.22 263.493 473.554 267.031 472.616C270.568 471.679 274.238 473.767 275.178 477.302Z" fill="#0074FF"/>
<path d="M161.207 507.79L164.06 507.026L147.625 445.784L144.772 446.547L161.207 507.79Z" fill="#0074FF"/>
<path d="M139.768 447.911C138.828 444.376 140.916 440.71 144.454 439.772C147.991 438.834 151.661 440.923 152.601 444.458C153.541 447.993 151.452 451.659 147.915 452.597C144.377 453.535 140.708 451.446 139.768 447.911Z" fill="#0074FF"/>
<path d="M147.254 447.258L192.124 402.454L190.035 400.366L145.166 445.17L147.254 447.258Z" fill="#0074FF"/>
<path d="M186.333 396.642C188.915 394.051 193.145 394.046 195.732 396.657C198.326 399.238 198.332 403.465 195.721 406.049C193.139 408.64 188.908 408.644 186.322 406.034C183.727 403.453 183.721 399.225 186.333 396.642Z" fill="#0074FF"/>
<path d="M190.645 402.771L251.933 419.193L252.697 416.342L191.409 399.92L190.645 402.771Z" fill="#0074FF"/>
<path d="M254.038 411.338C257.59 412.289 259.702 415.943 258.751 419.492C257.8 423.041 254.144 425.149 250.592 424.197C247.041 423.246 244.929 419.592 245.88 416.043C246.831 412.495 250.487 410.386 254.038 411.338Z" fill="#0074FF"/>
<path d="M111.891 324.083L114.745 323.32L98.3101 262.077L95.4569 262.841L111.891 324.083Z" fill="#0074FF"/>
<path d="M119.732 321.974C120.671 325.509 118.583 329.175 115.046 330.113C111.508 331.05 107.838 328.962 106.899 325.427C105.959 321.892 108.047 318.226 111.585 317.288C115.122 316.35 118.792 318.439 119.732 321.974Z" fill="#0074FF"/>
<path d="M69.5133 369.549L114.383 324.745L112.294 322.657L67.4248 367.461L69.5133 369.549Z" fill="#0074FF"/>
<path d="M73.1742 373.213C70.5927 375.804 66.3619 375.808 63.7755 373.197C61.1809 370.617 61.175 366.389 63.7869 363.806C66.3682 361.214 70.5989 361.21 73.1853 363.821C75.7718 366.432 75.7859 370.629 73.1742 373.213Z" fill="#0074FF"/>
<path d="M6.77991 353.504L68.0683 369.927L68.8322 367.076L7.54383 350.653L6.77991 353.504Z" fill="#0074FF"/>
<path d="M5.43865 358.509C1.88706 357.557 -0.224759 353.903 0.726069 350.354C1.6769 346.806 5.3328 344.697 8.88439 345.649C12.4361 346.601 14.5479 350.255 13.5971 353.803C12.6463 357.352 8.99036 359.46 5.43865 358.509Z" fill="#0074FF"/>
<path d="M189.615 401.709L192.468 400.945L176.033 339.703L173.18 340.467L189.615 401.709Z" fill="#0074FF"/>
<path d="M197.474 399.627C198.414 403.162 196.325 406.828 192.788 407.766C189.251 408.704 185.58 406.615 184.641 403.08C183.701 399.545 185.789 395.879 189.327 394.941C192.864 394.003 196.534 396.092 197.474 399.627Z" fill="#0074FF"/>
<path d="M147.254 447.258L192.124 402.454L190.035 400.366L145.166 445.17L147.254 447.258Z" fill="#0074FF"/>
<path d="M150.878 450.888C148.296 453.479 144.066 453.484 141.479 450.873C138.885 448.292 138.879 444.064 141.491 441.481C144.072 438.89 148.303 438.885 150.889 441.496C153.484 444.077 153.49 448.305 150.878 450.888Z" fill="#0074FF"/>
<path d="M84.5137 431.188L145.802 447.61L146.566 444.759L85.2777 428.337L84.5137 431.188Z" fill="#0074FF"/>
<path d="M83.181 436.162C79.6294 435.21 77.5177 431.556 78.4685 428.008C79.4193 424.459 83.0751 422.35 86.6267 423.302C90.1784 424.254 92.2901 427.908 91.3393 431.456C90.3885 435.005 86.7327 437.113 83.181 436.162Z" fill="#0074FF"/>
<path d="M83.4612 430.126L86.3143 429.362L69.8799 368.12L67.0267 368.883L83.4612 430.126Z" fill="#0074FF"/>
<path d="M62.0335 370.227C61.0936 366.692 63.1822 363.026 66.7196 362.089C70.2569 361.151 73.9268 363.24 74.8666 366.775C75.8065 370.31 73.7178 373.976 70.1805 374.913C66.6433 375.851 62.9733 373.762 62.0335 370.227Z" fill="#0074FF"/>
<path d="M69.5133 369.549L114.383 324.745L112.294 322.657L67.4248 367.461L69.5133 369.549Z" fill="#0074FF"/>
<path d="M108.591 318.989C111.172 316.397 115.403 316.393 117.99 319.004C120.584 321.585 120.59 325.812 117.978 328.396C115.397 330.987 111.166 330.991 108.58 328.38C105.985 325.8 105.979 321.572 108.591 318.989Z" fill="#0074FF"/>
<path d="M112.933 325.126L174.221 341.548L174.985 338.697L113.697 322.275L112.933 325.126Z" fill="#0074FF"/>
<path d="M176.326 333.693C172.772 332.74 169.119 334.847 168.168 338.398C167.216 341.949 169.326 345.6 172.881 346.552C176.435 347.505 180.087 345.398 181.039 341.847C181.99 338.296 179.88 334.645 176.326 333.693Z" fill="#0074FF"/>
<path d="M295.76 373.399L298.613 372.636L282.179 311.394L279.326 312.157L295.76 373.399Z" fill="#0074FF"/>
<path d="M303.597 371.241C304.537 374.776 302.448 378.442 298.911 379.379C295.374 380.317 291.704 378.228 290.764 374.693C289.824 371.158 291.913 367.492 295.45 366.555C298.987 365.617 302.657 367.705 303.597 371.241Z" fill="#0074FF"/>
<path d="M253.384 418.835L298.254 374.031L296.165 371.942L251.296 416.747L253.384 418.835Z" fill="#0074FF"/>
<path d="M257.039 422.479C254.458 425.071 250.227 425.075 247.641 422.464C245.046 419.883 245.04 415.656 247.652 413.072C250.233 410.481 254.464 410.477 257.051 413.088C259.645 415.668 259.651 419.896 257.07 422.487L257.039 422.479Z" fill="#0074FF"/>
<path d="M190.645 402.771L251.933 419.193L252.697 416.342L191.409 399.92L190.645 402.771Z" fill="#0074FF"/>
<path d="M189.304 407.775C185.752 406.824 183.641 403.17 184.592 399.621C185.542 396.073 189.198 393.964 192.75 394.916C196.301 395.867 198.413 399.521 197.462 403.07C196.512 406.618 192.856 408.727 189.304 407.775Z" fill="#0074FF"/>
<path d="M189.615 401.709L192.468 400.945L176.033 339.703L173.18 340.467L189.615 401.709Z" fill="#0074FF"/>
<path d="M168.195 341.819C167.255 338.284 169.344 334.617 172.881 333.68C176.418 332.742 180.088 334.831 181.028 338.366C181.968 341.901 179.879 345.567 176.342 346.505C172.805 347.442 169.135 345.354 168.195 341.819Z" fill="#0074FF"/>
<path d="M175.674 341.211L220.543 296.407L218.455 294.318L173.585 339.123L175.674 341.211Z" fill="#0074FF"/>
<path d="M214.753 290.58C217.334 287.989 221.565 287.985 224.151 290.595C226.746 293.176 226.752 297.404 224.14 299.987C221.559 302.579 217.328 302.583 214.741 299.972C212.147 297.391 212.141 293.164 214.753 290.58Z" fill="#0074FF"/>
<path d="M219.064 296.709L280.353 313.131L281.116 310.28L219.828 293.858L219.064 296.709Z" fill="#0074FF"/>
<path d="M282.457 305.276C278.903 304.324 275.251 306.43 274.299 309.981C273.348 313.532 275.457 317.183 279.012 318.136C282.566 319.088 286.218 316.981 287.17 313.43C288.121 309.879 286.012 306.228 282.457 305.276Z" fill="#0074FF"/>
<path d="M373.5 450.964L376.353 450.201L359.918 388.959L357.065 389.722L373.5 450.964Z" fill="#0074FF"/>
<path d="M381.339 448.894C382.279 452.429 380.19 456.095 376.653 457.033C373.116 457.97 369.446 455.882 368.506 452.347C367.566 448.811 369.655 445.145 373.192 444.208C376.729 443.27 380.399 445.359 381.339 448.894Z" fill="#0074FF"/>
<path d="M267.33 479.442L270.183 478.678L253.749 417.436L250.895 418.2L267.33 479.442Z" fill="#0074FF"/>
<path d="M245.899 419.494C244.959 415.959 247.047 412.293 250.585 411.355C254.122 410.418 257.792 412.506 258.732 416.041C259.672 419.576 257.583 423.242 254.015 424.172C250.478 425.11 246.808 423.021 245.868 419.486L245.899 419.494Z" fill="#0074FF"/>
<path d="M253.384 418.835L298.254 374.031L296.165 371.942L251.296 416.747L253.384 418.835Z" fill="#0074FF"/>
<path d="M292.487 368.264C295.068 365.672 299.299 365.668 301.885 368.279C304.472 370.89 304.486 375.087 301.874 377.67C299.292 380.262 295.062 380.266 292.475 377.655C289.881 375.074 289.875 370.847 292.487 368.264Z" fill="#0074FF"/>
<path d="M296.798 374.392L358.087 390.815L358.851 387.964L297.562 371.542L296.798 374.392Z" fill="#0074FF"/>
<path d="M360.192 382.959C356.637 382.007 352.985 384.114 352.033 387.665C351.082 391.216 353.192 394.867 356.746 395.819C360.3 396.771 363.953 394.665 364.904 391.114C365.856 387.562 363.746 383.912 360.192 382.959Z" fill="#0074FF"/>
<path d="M479.623 422.616L482.476 421.853L466.041 360.611L463.188 361.374L479.623 422.616Z" fill="#0074FF"/>
<path d="M487.462 420.507C488.402 424.042 486.313 427.708 482.776 428.646C479.239 429.583 475.569 427.495 474.629 423.96C473.689 420.425 475.778 416.759 479.315 415.821C482.852 414.883 486.522 416.972 487.462 420.507Z" fill="#0074FF"/>
<path d="M437.233 468.082L482.102 423.278L480.014 421.19L435.144 465.994L437.233 468.082Z" fill="#0074FF"/>
<path d="M440.905 471.746C438.323 474.337 434.093 474.341 431.506 471.73C428.911 469.15 428.905 464.922 431.517 462.339C434.099 459.747 438.329 459.743 440.916 462.354C443.502 464.965 443.516 469.162 440.905 471.746Z" fill="#0074FF"/>
<path d="M373.5 450.964L376.353 450.201L359.918 388.959L357.065 389.722L373.5 450.964Z" fill="#0074FF"/>
<path d="M352.06 391.085C351.12 387.55 353.209 383.884 356.746 382.946C360.284 382.009 363.953 384.097 364.893 387.632C365.833 391.167 363.745 394.834 360.207 395.771C356.67 396.709 353 394.62 352.06 391.085Z" fill="#0074FF"/>
<path d="M359.462 390.325L404.34 345.529L402.252 343.44L357.374 388.237L359.462 390.325Z" fill="#0074FF"/>
<path d="M398.618 339.847C401.199 337.255 405.43 337.251 408.016 339.862C410.611 342.443 410.617 346.67 408.005 349.253C405.424 351.845 401.193 351.849 398.606 349.238C396.012 346.658 396.006 342.43 398.618 339.847Z" fill="#0074FF"/>
<path d="M402.929 345.976L464.218 362.398L464.982 359.547L403.693 343.125L402.929 345.976Z" fill="#0074FF"/>
<path d="M466.323 354.542C469.874 355.494 471.986 359.148 471.035 362.697C470.084 366.245 466.429 368.354 462.877 367.402C459.325 366.45 457.214 362.796 458.164 359.248C459.115 355.699 462.771 353.591 466.323 354.542Z" fill="#0074FF"/>
<path d="M557.338 500.272L560.191 499.509L543.757 438.267L540.903 439.03L557.338 500.272Z" fill="#0074FF"/>
<path d="M565.204 498.16C566.144 501.695 564.056 505.362 560.518 506.299C556.981 507.237 553.311 505.148 552.371 501.613C551.431 498.078 553.52 494.412 557.057 493.474C560.594 492.537 564.264 494.625 565.204 498.16Z" fill="#0074FF"/>
<path d="M437.233 468.082L482.102 423.278L480.014 421.19L435.144 465.994L437.233 468.082Z" fill="#0074FF"/>
<path d="M476.352 417.53C478.933 414.939 483.164 414.935 485.751 417.545C488.345 420.126 488.351 424.354 485.739 426.937C483.158 429.528 478.927 429.533 476.341 426.922C473.746 424.341 473.74 420.114 476.352 417.53Z" fill="#0074FF"/>
<path d="M480.664 423.659L541.952 440.081L542.716 437.23L481.427 420.808L480.664 423.659Z" fill="#0074FF"/>
<path d="M544.057 432.226C540.503 431.274 536.85 433.38 535.898 436.931C534.947 440.482 537.057 444.133 540.611 445.086C544.165 446.038 547.818 443.931 548.769 440.38C549.721 436.829 547.611 433.178 544.057 432.226Z" fill="#0074FF"/>
<path d="M663.469 471.894L666.323 471.131L649.888 409.889L647.035 410.652L663.469 471.894Z" fill="#0074FF"/>
<path d="M671.327 469.774C672.267 473.309 670.179 476.975 666.641 477.912C663.104 478.85 659.434 476.761 658.494 473.226C657.554 469.691 659.643 466.025 663.18 465.088C666.717 464.15 670.387 466.239 671.327 469.774Z" fill="#0074FF"/>
<path d="M621.09 517.299L665.959 472.495L663.871 470.406L619.001 515.211L621.09 517.299Z" fill="#0074FF"/>
<path d="M624.77 521.012C622.188 523.604 617.958 523.608 615.371 520.997C612.777 518.416 612.771 514.189 615.382 511.605C617.964 509.014 622.195 509.01 624.781 511.621C627.376 514.201 627.382 518.429 624.8 521.02L624.77 521.012Z" fill="#0074FF"/>
<path d="M557.338 500.272L560.191 499.509L543.757 438.267L540.903 439.03L557.338 500.272Z" fill="#0074FF"/>
<path d="M535.925 440.352C534.986 436.817 537.074 433.151 540.612 432.213C544.149 431.275 547.819 433.364 548.759 436.899C549.698 440.434 547.61 444.1 544.073 445.038C540.535 445.975 536.865 443.887 535.925 440.352Z" fill="#0074FF"/>
<path d="M543.327 439.627L588.204 394.83L586.116 392.741L541.239 437.538L543.327 439.627Z" fill="#0074FF"/>
<path d="M582.483 389.113C585.064 386.522 589.295 386.518 591.882 389.129C594.476 391.709 594.482 395.937 591.87 398.52C589.289 401.112 585.058 401.116 582.472 398.505C579.877 395.924 579.871 391.697 582.483 389.113Z" fill="#0074FF"/>
<path d="M586.825 395.25L648.113 411.672L648.877 408.821L587.589 392.399L586.825 395.25Z" fill="#0074FF"/>
<path d="M650.218 403.817C646.664 402.865 643.012 404.971 642.06 408.523C641.108 412.074 643.218 415.724 646.772 416.677C650.327 417.629 653.979 415.522 654.931 411.971C655.882 408.42 653.772 404.769 650.218 403.817Z" fill="#0074FF"/>
<path d="M741.223 549.528L744.076 548.765L727.642 487.523L724.789 488.286L741.223 549.528Z" fill="#0074FF"/>
<path d="M749.07 547.427C750.009 550.962 747.921 554.628 744.384 555.566C740.846 556.503 737.176 554.415 736.237 550.88C735.297 547.345 737.385 543.678 740.923 542.741C744.46 541.803 748.13 543.892 749.07 547.427Z" fill="#0074FF"/>
<path d="M621.09 517.299L665.959 472.495L663.871 470.406L619.001 515.211L621.09 517.299Z" fill="#0074FF"/>
<path d="M660.217 466.797C662.799 464.205 667.029 464.201 669.616 466.812C672.202 469.423 672.216 473.62 669.604 476.203C667.023 478.795 662.792 478.799 660.206 476.188C657.611 473.608 657.605 469.38 660.217 466.797Z" fill="#0074FF"/>
<path d="M664.529 472.926L725.817 489.348L726.581 486.497L665.293 470.075L664.529 472.926Z" fill="#0074FF"/>
<path d="M727.922 481.492C724.368 480.54 720.715 482.647 719.764 486.198C718.812 489.749 720.922 493.4 724.476 494.352C728.031 495.304 731.683 493.198 732.635 489.647C733.586 486.096 731.476 482.445 727.922 481.492Z" fill="#0074FF"/>
<path d="M741.223 549.528L744.076 548.765L727.642 487.523L724.789 488.286L741.223 549.528Z" fill="#0074FF"/>
<path d="M719.791 489.618C718.851 486.083 720.94 482.417 724.477 481.479C728.014 480.542 731.684 482.631 732.624 486.166C733.564 489.701 731.475 493.367 727.938 494.304C724.401 495.242 720.731 493.153 719.791 489.618Z" fill="#0074FF"/>
<path d="M727.242 488.991L772.111 444.187L770.023 442.098L725.153 486.903L727.242 488.991Z" fill="#0074FF"/>
<path d="M766.348 438.38C768.93 435.788 773.16 435.784 775.747 438.395C778.341 440.976 778.347 445.203 775.736 447.787C773.154 450.378 768.923 450.382 766.337 447.771C763.742 445.191 763.736 440.963 766.348 438.38Z" fill="#0074FF"/>
<path d="M770.69 444.517L831.979 460.939L832.743 458.088L771.454 441.666L770.69 444.517Z" fill="#0074FF"/>
<path d="M834.083 453.084C837.635 454.035 839.747 457.689 838.796 461.238C837.845 464.786 834.189 466.895 830.638 465.943C827.086 464.992 824.974 461.338 825.925 457.789C826.876 454.241 830.532 452.132 834.083 453.084Z" fill="#0074FF"/>
<path d="M1031.2 570.428L1034.05 569.664L1017.62 508.422L1014.77 509.185L1031.2 570.428Z" fill="#0074FF"/>
<path d="M1039.09 568.315C1040.03 571.85 1037.94 575.516 1034.4 576.454C1030.86 577.391 1027.19 575.303 1026.25 571.768C1025.32 568.233 1027.4 564.566 1030.94 563.629C1034.48 562.691 1038.15 564.78 1039.09 568.315Z" fill="#0074FF"/>
<path d="M954.555 493.783L1015.84 510.206L1016.61 507.355L955.319 490.932L954.555 493.783Z" fill="#0074FF"/>
<path d="M1017.95 502.35C1014.39 501.398 1010.74 503.505 1009.79 507.056C1008.84 510.607 1010.95 514.258 1014.5 515.21C1018.06 516.162 1021.71 514.055 1022.66 510.504C1023.61 506.953 1021.5 503.303 1017.95 502.35Z" fill="#0074FF"/>
<path d="M218.053 295.636L220.906 294.873L204.472 233.631L201.619 234.394L218.053 295.636Z" fill="#0074FF"/>
<path d="M225.893 293.565C226.833 297.1 224.744 300.766 221.207 301.704C217.67 302.642 214 300.553 213.06 297.018C212.12 293.483 214.209 289.817 217.746 288.879C221.283 287.942 224.953 290.03 225.893 293.565Z" fill="#0074FF"/>
<path d="M175.674 341.211L220.543 296.407L218.455 294.318L173.585 339.123L175.674 341.211Z" fill="#0074FF"/>
<path d="M179.305 344.796C176.724 347.387 172.493 347.391 169.907 344.78C167.312 342.2 167.306 337.972 169.918 335.389C172.499 332.797 176.73 332.793 179.316 335.404C181.911 337.985 181.917 342.212 179.305 344.796Z" fill="#0074FF"/>
<path d="M112.933 325.126L174.221 341.548L174.985 338.697L113.697 322.275L112.933 325.126Z" fill="#0074FF"/>
<path d="M111.6 330.1C108.049 329.148 105.937 325.494 106.888 321.946C107.839 318.397 111.494 316.289 115.046 317.24C118.598 318.192 120.709 321.846 119.758 325.394C118.808 328.943 115.152 331.052 111.6 330.1Z" fill="#0074FF"/>
<path d="M111.891 324.083L114.745 323.32L98.3101 262.077L95.4569 262.841L111.891 324.083Z" fill="#0074FF"/>
<path d="M90.4527 264.166C89.5129 260.631 91.6014 256.964 95.1388 256.027C98.6761 255.089 102.346 257.178 103.286 260.713C104.226 264.248 102.137 267.914 98.5997 268.852C95.0625 269.789 91.3925 267.701 90.4527 264.166Z" fill="#0074FF"/>
<path d="M324.168 267.319L327.021 266.555L310.587 205.313L307.734 206.076L324.168 267.319Z" fill="#0074FF"/>
<path d="M332.016 265.179C332.956 268.714 330.867 272.38 327.33 273.318C323.793 274.255 320.123 272.167 319.183 268.632C318.243 265.097 320.332 261.43 323.869 260.493C327.406 259.555 331.076 261.644 332.016 265.179Z" fill="#0074FF"/>
<path d="M281.811 312.757L326.681 267.953L324.592 265.864L279.723 310.669L281.811 312.757Z" fill="#0074FF"/>
<path d="M285.458 316.417C282.877 319.009 278.646 319.013 276.06 316.402C273.465 313.821 273.459 309.594 276.071 307.01C278.653 304.419 282.883 304.415 285.47 307.026C288.064 309.606 288.07 313.834 285.489 316.425L285.458 316.417Z" fill="#0074FF"/>
<path d="M219.064 296.709L280.353 313.131L281.116 310.28L219.828 293.858L219.064 296.709Z" fill="#0074FF"/>
<path d="M217.723 301.713C214.172 300.762 212.06 297.108 213.011 293.559C213.962 290.011 217.617 287.902 221.169 288.854C224.721 289.805 226.832 293.459 225.882 297.008C224.931 300.556 221.275 302.665 217.723 301.713Z" fill="#0074FF"/>
<path d="M218.053 295.636L220.906 294.873L204.472 233.631L201.619 234.394L218.053 295.636Z" fill="#0074FF"/>
<path d="M196.614 235.757C195.674 232.222 197.763 228.556 201.3 227.618C204.838 226.68 208.507 228.769 209.447 232.304C210.387 235.839 208.299 239.505 204.761 240.443C201.224 241.38 197.554 239.292 196.614 235.757Z" fill="#0074FF"/>
<path d="M247.483 190.647L308.772 207.069L309.536 204.218L248.247 187.796L247.483 190.647Z" fill="#0074FF"/>
<path d="M310.877 199.214C307.322 198.262 303.67 200.368 302.718 203.919C301.767 207.471 303.877 211.121 307.431 212.074C310.985 213.026 314.638 210.919 315.589 207.368C316.541 203.817 314.431 200.166 310.877 199.214Z" fill="#0074FF"/>
<path d="M401.9 344.914L404.753 344.151L388.318 282.908L385.465 283.672L401.9 344.914Z" fill="#0074FF"/>
<path d="M409.758 342.832C410.698 346.367 408.61 350.033 405.072 350.971C401.535 351.908 397.865 349.82 396.925 346.285C395.985 342.75 398.074 339.083 401.611 338.146C405.149 337.208 408.818 339.297 409.758 342.832Z" fill="#0074FF"/>
<path d="M359.462 390.325L404.34 345.529L402.252 343.44L357.374 388.237L359.462 390.325Z" fill="#0074FF"/>
<path d="M363.17 394.062C360.589 396.654 356.358 396.658 353.772 394.047C351.177 391.466 351.171 387.239 353.783 384.655C356.365 382.064 360.595 382.06 363.182 384.671C365.776 387.251 365.782 391.479 363.17 394.062Z" fill="#0074FF"/>
<path d="M296.798 374.392L358.087 390.815L358.851 387.964L297.562 371.542L296.798 374.392Z" fill="#0074FF"/>
<path d="M298.903 366.537C295.349 365.585 291.696 367.692 290.745 371.243C289.793 374.794 291.903 378.444 295.457 379.397C299.012 380.349 302.664 378.242 303.616 374.691C304.567 371.14 302.457 367.489 298.903 366.537Z" fill="#0074FF"/>
<path d="M295.76 373.399L298.613 372.636L282.179 311.394L279.326 312.157L295.76 373.399Z" fill="#0074FF"/>
<path d="M274.318 313.432C273.378 309.897 275.467 306.231 279.004 305.293C282.541 304.356 286.211 306.444 287.151 309.979C288.091 313.514 286.002 317.181 282.435 318.11C278.897 319.048 275.227 316.959 274.288 313.424L274.318 313.432Z" fill="#0074FF"/>
<path d="M281.811 312.757L326.681 267.953L324.592 265.864L279.723 310.669L281.811 312.757Z" fill="#0074FF"/>
<path d="M320.906 262.202C323.487 259.61 327.718 259.606 330.304 262.217C332.899 264.798 332.905 269.025 330.293 271.608C327.712 274.2 323.481 274.204 320.894 271.593C318.3 269.013 318.294 264.785 320.906 262.202Z" fill="#0074FF"/>
<path d="M325.218 268.331L386.506 284.753L387.27 281.902L325.981 265.48L325.218 268.331Z" fill="#0074FF"/>
<path d="M388.611 276.897C385.057 275.945 381.404 278.052 380.453 281.603C379.501 285.154 381.611 288.805 385.165 289.757C388.719 290.709 392.372 288.603 393.323 285.052C394.275 281.501 392.165 277.85 388.611 276.897Z" fill="#0074FF"/>
<path d="M508.031 316.536L510.884 315.772L494.45 254.53L491.596 255.293L508.031 316.536Z" fill="#0074FF"/>
<path d="M515.881 314.445C516.821 317.98 514.732 321.647 511.195 322.584C507.658 323.522 503.988 321.433 503.048 317.898C502.108 314.363 504.197 310.697 507.734 309.759C511.271 308.822 514.941 310.91 515.881 314.445Z" fill="#0074FF"/>
<path d="M465.652 362.035L510.521 317.23L508.433 315.142L463.563 359.946L465.652 362.035Z" fill="#0074FF"/>
<path d="M469.324 365.684C466.742 368.275 462.512 368.279 459.925 365.668C457.339 363.058 457.325 358.86 459.936 356.277C462.518 353.685 466.748 353.681 469.335 356.292C471.93 358.873 471.936 363.1 469.324 365.684Z" fill="#0074FF"/>
<path d="M402.929 345.976L464.218 362.398L464.982 359.547L403.693 343.125L402.929 345.976Z" fill="#0074FF"/>
<path d="M405.034 338.12C401.48 337.168 397.827 339.275 396.876 342.826C395.924 346.377 398.034 350.028 401.588 350.98C405.142 351.932 408.795 349.825 409.747 346.274C410.698 342.723 408.588 339.073 405.034 338.12Z" fill="#0074FF"/>
<path d="M401.9 344.914L404.753 344.151L388.318 282.908L385.465 283.672L401.9 344.914Z" fill="#0074FF"/>
<path d="M380.479 285.023C379.539 281.488 381.628 277.822 385.165 276.884C388.703 275.947 392.373 278.035 393.312 281.57C394.252 285.105 392.164 288.772 388.626 289.709C385.089 290.647 381.419 288.558 380.479 285.023Z" fill="#0074FF"/>
<path d="M387.919 284.372L432.789 239.568L430.7 237.479L385.831 282.284L387.919 284.372Z" fill="#0074FF"/>
<path d="M427.037 233.785C429.618 231.193 433.849 231.189 436.435 233.8C439.03 236.381 439.036 240.608 436.424 243.192C433.843 245.783 429.612 245.787 427.026 243.176C424.431 240.596 424.425 236.368 427.037 233.785Z" fill="#0074FF"/>
<path d="M431.348 239.914L492.637 256.336L493.401 253.485L432.112 237.063L431.348 239.914Z" fill="#0074FF"/>
<path d="M494.742 248.48C498.293 249.432 500.405 253.086 499.454 256.635C498.503 260.183 494.848 262.292 491.296 261.34C487.744 260.388 485.633 256.734 486.583 253.186C487.534 249.637 491.19 247.529 494.742 248.48Z" fill="#0074FF"/>
<path d="M585.768 394.23L588.621 393.467L572.187 332.224L569.334 332.988L585.768 394.23Z" fill="#0074FF"/>
<path d="M593.624 392.098C594.563 395.633 592.475 399.3 588.938 400.237C585.4 401.175 581.73 399.086 580.79 395.551C579.851 392.016 581.939 388.35 585.476 387.412C589.014 386.475 592.684 388.563 593.624 392.098Z" fill="#0074FF"/>
<path d="M543.327 439.627L588.204 394.83L586.116 392.741L541.239 437.538L543.327 439.627Z" fill="#0074FF"/>
<path d="M547.036 443.329C544.454 445.92 540.224 445.924 537.637 443.314C535.043 440.733 535.037 436.505 537.648 433.922C540.23 431.331 544.461 431.326 547.047 433.937C549.642 436.518 549.648 440.745 547.036 443.329Z" fill="#0074FF"/>
<path d="M480.664 423.659L541.952 440.081L542.716 437.23L481.427 420.808L480.664 423.659Z" fill="#0074FF"/>
<path d="M479.331 428.633C475.779 427.681 473.667 424.027 474.618 420.479C475.569 416.93 479.225 414.822 482.777 415.773C486.328 416.725 488.44 420.379 487.489 423.928C486.538 427.476 482.882 429.585 479.331 428.633Z" fill="#0074FF"/>
<path d="M479.623 422.616L482.476 421.853L466.041 360.611L463.188 361.374L479.623 422.616Z" fill="#0074FF"/>
<path d="M458.183 362.699C457.243 359.164 459.332 355.497 462.869 354.56C466.407 353.622 470.076 355.711 471.016 359.246C471.956 362.781 469.868 366.447 466.33 367.385C462.793 368.322 459.123 366.234 458.183 362.699Z" fill="#0074FF"/>
<path d="M465.652 362.035L510.521 317.23L508.433 315.142L463.563 359.946L465.652 362.035Z" fill="#0074FF"/>
<path d="M504.771 311.468C507.353 308.877 511.583 308.873 514.17 311.484C516.764 314.064 516.77 318.292 514.158 320.875C511.577 323.467 507.346 323.471 504.76 320.86C502.165 318.279 502.159 314.052 504.771 311.468Z" fill="#0074FF"/>
<path d="M509.083 317.597L570.371 334.019L571.135 331.168L509.847 314.746L509.083 317.597Z" fill="#0074FF"/>
<path d="M572.476 326.164C568.922 325.212 565.269 327.318 564.318 330.869C563.366 334.421 565.476 338.071 569.03 339.024C572.584 339.976 576.237 337.869 577.189 334.318C578.14 330.767 576.03 327.116 572.476 326.164Z" fill="#0074FF"/>
<path d="M691.916 365.791L694.769 365.028L678.334 303.786L675.481 304.549L691.916 365.791Z" fill="#0074FF"/>
<path d="M699.746 363.712C700.686 367.247 698.598 370.913 695.061 371.851C691.523 372.788 687.853 370.7 686.913 367.165C685.974 363.63 688.062 359.963 691.599 359.026C695.137 358.088 698.807 360.177 699.746 363.712Z" fill="#0074FF"/>
<path d="M649.509 411.252L694.378 366.447L692.29 364.359L647.42 409.163L649.509 411.252Z" fill="#0074FF"/>
<path d="M653.189 414.95C650.608 417.542 646.377 417.546 643.79 414.935C641.196 412.354 641.19 408.127 643.802 405.544C646.383 402.952 650.614 402.948 653.2 405.559C655.795 408.139 655.801 412.367 653.219 414.958L653.189 414.95Z" fill="#0074FF"/>
<path d="M586.825 395.25L648.113 411.672L648.877 408.821L587.589 392.399L586.825 395.25Z" fill="#0074FF"/>
<path d="M585.484 400.255C581.932 399.303 579.821 395.649 580.772 392.1C581.722 388.552 585.378 386.443 588.93 387.395C592.481 388.347 594.593 392.001 593.642 395.549C592.692 399.098 589.036 401.206 585.484 400.255Z" fill="#0074FF"/>
<path d="M585.768 394.23L588.621 393.467L572.187 332.224L569.334 332.988L585.768 394.23Z" fill="#0074FF"/>
<path d="M564.345 334.29C563.405 330.755 565.493 327.089 569.031 326.151C572.568 325.213 576.238 327.302 577.178 330.837C578.118 334.372 576.029 338.038 572.492 338.976C568.955 339.914 565.285 337.825 564.345 334.29Z" fill="#0074FF"/>
<path d="M571.798 333.628L616.668 288.823L614.579 286.735L569.71 331.539L571.798 333.628Z" fill="#0074FF"/>
<path d="M610.902 283.051C613.484 280.46 617.714 280.456 620.301 283.067C622.895 285.647 622.901 289.875 620.29 292.458C617.708 295.05 613.477 295.054 610.891 292.443C608.296 289.862 608.29 285.635 610.902 283.051Z" fill="#0074FF"/>
<path d="M615.244 289.188L676.533 305.611L677.296 302.76L616.008 286.337L615.244 289.188Z" fill="#0074FF"/>
<path d="M678.637 297.755C675.083 296.803 671.431 298.91 670.479 302.461C669.528 306.012 671.637 309.662 675.192 310.615C678.746 311.567 682.399 309.461 683.35 305.909C684.302 302.358 682.192 298.708 678.637 297.755Z" fill="#0074FF"/>
<path d="M769.631 443.447L772.484 442.684L756.05 381.442L753.197 382.205L769.631 443.447Z" fill="#0074FF"/>
<path d="M777.489 441.365C778.429 444.9 776.34 448.566 772.803 449.504C769.265 450.441 765.596 448.353 764.656 444.818C763.716 441.283 765.804 437.616 769.342 436.679C772.879 435.741 776.549 437.83 777.489 441.365Z" fill="#0074FF"/>
<path d="M727.242 488.991L772.111 444.187L770.023 442.098L725.153 486.903L727.242 488.991Z" fill="#0074FF"/>
<path d="M730.901 492.595C728.32 495.187 724.089 495.191 721.503 492.58C718.908 489.999 718.902 485.772 721.514 483.189C724.095 480.597 728.326 480.593 730.912 483.204C733.507 485.784 733.513 490.012 730.901 492.595Z" fill="#0074FF"/>
<path d="M664.529 472.926L725.817 489.348L726.581 486.497L665.293 470.075L664.529 472.926Z" fill="#0074FF"/>
<path d="M666.634 465.07C663.079 464.118 659.427 466.225 658.475 469.776C657.524 473.327 659.634 476.978 663.188 477.93C666.742 478.882 670.395 476.776 671.346 473.224C672.298 469.673 670.188 466.023 666.634 465.07Z" fill="#0074FF"/>
<path d="M663.469 471.894L666.323 471.131L649.888 409.889L647.035 410.652L663.469 471.894Z" fill="#0074FF"/>
<path d="M642.049 411.965C641.109 408.43 643.197 404.764 646.735 403.826C650.272 402.889 653.942 404.977 654.882 408.512C655.821 412.047 653.733 415.714 650.165 416.643C646.628 417.581 642.958 415.492 642.018 411.957L642.049 411.965Z" fill="#0074FF"/>
<path d="M649.509 411.252L694.378 366.447L692.29 364.359L647.42 409.163L649.509 411.252Z" fill="#0074FF"/>
<path d="M688.636 360.735C691.218 358.143 695.449 358.139 698.035 360.75C700.63 363.331 700.636 367.558 698.024 370.142C695.442 372.733 691.212 372.737 688.625 370.126C686.031 367.546 686.025 363.318 688.636 360.735Z" fill="#0074FF"/>
<path d="M692.948 366.864L754.236 383.286L755 380.435L693.712 364.013L692.948 366.864Z" fill="#0074FF"/>
<path d="M756.341 375.43C752.787 374.478 749.134 376.585 748.183 380.136C747.231 383.687 749.341 387.338 752.896 388.29C756.45 389.242 760.102 387.136 761.054 383.585C762.005 380.034 759.895 376.383 756.341 375.43Z" fill="#0074FF"/>
<path d="M875.762 415.069L878.616 414.306L862.181 353.063L859.328 353.827L875.762 415.069Z" fill="#0074FF"/>
<path d="M883.612 412.978C884.552 416.513 882.463 420.18 878.926 421.117C875.388 422.055 871.718 419.966 870.779 416.431C869.839 412.896 871.927 409.23 875.465 408.292C879.002 407.355 882.672 409.443 883.612 412.978Z" fill="#0074FF"/>
<path d="M833.402 460.576L878.271 415.771L876.183 413.683L831.313 458.487L833.402 460.576Z" fill="#0074FF"/>
<path d="M837.054 464.217C834.473 466.808 830.242 466.813 827.656 464.202C825.069 461.591 825.055 457.393 827.667 454.81C830.248 452.219 834.479 452.214 837.065 454.825C839.66 457.406 839.666 461.634 837.054 464.217Z" fill="#0074FF"/>
<path d="M770.69 444.517L831.979 460.939L832.743 458.088L771.454 441.666L770.69 444.517Z" fill="#0074FF"/>
<path d="M772.795 436.661C769.241 435.709 765.588 437.816 764.637 441.367C763.685 444.918 765.795 448.569 769.349 449.521C772.904 450.473 776.556 448.367 777.508 444.816C778.459 441.265 776.349 437.614 772.795 436.661Z" fill="#0074FF"/>
<path d="M769.631 443.447L772.484 442.684L756.05 381.442L753.197 382.205L769.631 443.447Z" fill="#0074FF"/>
<path d="M748.21 383.556C747.27 380.021 749.359 376.355 752.896 375.418C756.433 374.48 760.103 376.569 761.043 380.104C761.983 383.639 759.894 387.305 756.357 388.243C752.82 389.18 749.15 387.091 748.21 383.556Z" fill="#0074FF"/>
<path d="M755.625 382.836L800.494 338.032L798.406 335.944L753.536 380.748L755.625 382.836Z" fill="#0074FF"/>
<path d="M794.767 332.318C797.349 329.726 801.58 329.722 804.166 332.333C806.761 334.914 806.767 339.141 804.155 341.725C801.573 344.316 797.343 344.32 794.756 341.709C792.162 339.129 792.156 334.901 794.767 332.318Z" fill="#0074FF"/>
<path d="M799.11 338.455L860.398 354.877L861.162 352.026L799.873 335.604L799.11 338.455Z" fill="#0074FF"/>
<path d="M862.503 347.022C866.054 347.973 868.166 351.627 867.215 355.176C866.264 358.724 862.609 360.833 859.057 359.881C855.505 358.93 853.394 355.276 854.344 351.727C855.295 348.179 858.951 346.07 862.503 347.022Z" fill="#0074FF"/>
<path d="M953.508 492.733L956.361 491.97L939.927 430.728L937.073 431.491L953.508 492.733Z" fill="#0074FF"/>
<path d="M961.354 490.631C962.294 494.166 960.205 497.833 956.668 498.77C953.131 499.708 949.461 497.619 948.521 494.084C947.581 490.549 949.67 486.883 953.207 485.945C956.744 485.008 960.414 487.096 961.354 490.631Z" fill="#0074FF"/>
<path d="M833.402 460.576L878.271 415.771L876.183 413.683L831.313 458.487L833.402 460.576Z" fill="#0074FF"/>
<path d="M872.502 410.001C875.083 407.41 879.314 407.406 881.9 410.017C884.495 412.597 884.501 416.825 881.889 419.408C879.307 422 875.077 422.004 872.49 419.393C869.896 416.812 869.89 412.585 872.502 410.001Z" fill="#0074FF"/>
<path d="M876.813 416.13L938.102 432.552L938.866 429.701L877.577 413.279L876.813 416.13Z" fill="#0074FF"/>
<path d="M940.206 424.697C936.652 423.745 933 425.851 932.048 429.402C931.097 432.954 933.207 436.604 936.761 437.557C940.315 438.509 943.968 436.402 944.919 432.851C945.871 429.3 943.761 425.649 940.206 424.697Z" fill="#0074FF"/>
<path d="M1059.64 464.355L1062.49 463.592L1046.06 402.349L1043.2 403.113L1059.64 464.355Z" fill="#0074FF"/>
<path d="M1067.51 462.253C1068.45 465.788 1066.36 469.454 1062.82 470.392C1059.28 471.33 1055.61 469.241 1054.67 465.706C1053.73 462.171 1055.82 458.505 1059.36 457.567C1062.9 456.629 1066.57 458.718 1067.51 462.253Z" fill="#0074FF"/>
<path d="M1017.25 509.823L1062.12 465.019L1060.03 462.93L1015.16 507.735L1017.25 509.823Z" fill="#0074FF"/>
<path d="M1020.92 513.483C1018.34 516.075 1014.11 516.079 1011.52 513.468C1008.93 510.888 1008.92 506.66 1011.53 504.077C1014.11 501.485 1018.34 501.481 1020.93 504.092C1023.53 506.673 1023.53 510.9 1020.92 513.483Z" fill="#0074FF"/>
<path d="M954.555 493.783L1015.84 510.206L1016.61 507.355L955.319 490.932L954.555 493.783Z" fill="#0074FF"/>
<path d="M956.66 485.928C953.106 484.976 949.453 487.082 948.502 490.633C947.55 494.185 949.66 497.835 953.215 498.788C956.769 499.74 960.421 497.633 961.373 494.082C962.324 490.531 960.214 486.88 956.66 485.928Z" fill="#0074FF"/>
<path d="M953.508 492.733L956.361 491.97L939.927 430.728L937.073 431.491L953.508 492.733Z" fill="#0074FF"/>
<path d="M932.075 432.823C931.135 429.288 933.224 425.622 936.761 424.684C940.298 423.747 943.968 425.835 944.908 429.37C945.848 432.905 943.759 436.571 940.222 437.509C936.685 438.447 933.015 436.358 932.075 432.823Z" fill="#0074FF"/>
<path d="M939.518 432.16L984.387 387.356L982.299 385.268L937.429 430.072L939.518 432.16Z" fill="#0074FF"/>
<path d="M978.633 381.584C981.214 378.993 985.445 378.989 988.031 381.6C990.618 384.211 990.632 388.408 988.02 390.991C985.439 393.583 981.208 393.587 978.621 390.976C976.027 388.395 976.021 384.168 978.633 381.584Z" fill="#0074FF"/>
<path d="M982.975 387.721L1044.26 404.144L1045.03 401.293L983.739 384.87L982.975 387.721Z" fill="#0074FF"/>
<path d="M1046.37 396.288C1042.81 395.336 1039.16 397.443 1038.21 400.994C1037.26 404.545 1039.37 408.196 1042.92 409.148C1046.48 410.1 1050.13 407.994 1051.08 404.442C1052.03 400.891 1049.92 397.241 1046.37 396.288Z" fill="#0074FF"/>
<path d="M1137.36 541.981L1140.22 541.217L1123.78 479.975L1120.93 480.738L1137.36 541.981Z" fill="#0074FF"/>
<path d="M1145.22 539.898C1146.16 543.433 1144.07 547.099 1140.53 548.037C1137 548.974 1133.33 546.886 1132.39 543.351C1131.45 539.816 1133.53 536.15 1137.07 535.212C1140.61 534.274 1144.28 536.363 1145.22 539.898Z" fill="#0074FF"/>
<path d="M1031.2 570.428L1034.05 569.664L1017.62 508.422L1014.77 509.185L1031.2 570.428Z" fill="#0074FF"/>
<path d="M1009.78 510.498C1008.84 506.963 1010.93 503.297 1014.46 502.359C1018 501.422 1021.67 503.51 1022.61 507.045C1023.55 510.58 1021.46 514.247 1017.93 515.184C1014.39 516.122 1010.72 514.033 1009.78 510.498Z" fill="#0074FF"/>
<path d="M1017.25 509.823L1062.12 465.019L1060.03 462.93L1015.16 507.735L1017.25 509.823Z" fill="#0074FF"/>
<path d="M1056.37 459.268C1058.95 456.676 1063.18 456.672 1065.77 459.283C1068.36 461.864 1068.37 466.091 1065.75 468.675C1063.17 471.266 1058.94 471.27 1056.36 468.659C1053.76 466.079 1053.75 461.851 1056.37 459.268Z" fill="#0074FF"/>
<path d="M1060.68 465.397L1121.97 481.819L1122.73 478.968L1061.44 462.546L1060.68 465.397Z" fill="#0074FF"/>
<path d="M1124.07 473.964C1120.52 473.011 1116.86 475.118 1115.91 478.669C1114.96 482.22 1117.07 485.871 1120.63 486.823C1124.18 487.776 1127.83 485.669 1128.78 482.118C1129.74 478.567 1127.63 474.916 1124.07 473.964Z" fill="#0074FF"/>
<path d="M1137.36 541.981L1140.22 541.217L1123.78 479.975L1120.93 480.738L1137.36 541.981Z" fill="#0074FF"/>
<path d="M1115.94 482.09C1115 478.555 1117.09 474.888 1120.63 473.951C1124.16 473.013 1127.83 475.102 1128.77 478.637C1129.71 482.172 1127.62 485.838 1124.09 486.776C1120.55 487.713 1116.88 485.625 1115.94 482.09Z" fill="#0074FF"/>
<path d="M1123.39 481.446L1168.26 436.642L1166.17 434.553L1121.3 479.358L1123.39 481.446Z" fill="#0074FF"/>
<path d="M1162.5 430.851C1165.08 428.259 1169.31 428.255 1171.9 430.866C1174.49 433.447 1174.5 437.674 1171.89 440.258C1169.3 442.849 1165.07 442.853 1162.49 440.242C1159.89 437.662 1159.89 433.434 1162.5 430.851Z" fill="#0074FF"/>
<path d="M1166.84 436.988L1228.13 453.41L1228.89 450.559L1167.6 434.137L1166.84 436.988Z" fill="#0074FF"/>
<path d="M1230.23 445.555C1233.78 446.506 1235.9 450.161 1234.95 453.709C1233.99 457.258 1230.34 459.366 1226.79 458.414C1223.24 457.463 1221.12 453.809 1222.07 450.26C1223.03 446.712 1226.68 444.603 1230.23 445.555Z" fill="#0074FF"/>
<path d="M310.164 206.606L355.041 161.809L352.953 159.72L308.076 204.517L310.164 206.606Z" fill="#0074FF"/>
<path d="M313.878 210.355C311.297 212.947 307.066 212.951 304.479 210.34C301.885 207.759 301.879 203.532 304.491 200.949C307.072 198.357 311.303 198.353 313.889 200.964C316.484 203.544 316.49 207.772 313.908 210.363L313.878 210.355Z" fill="#0074FF"/>
<path d="M247.483 190.647L308.772 207.069L309.536 204.218L248.247 187.796L247.483 190.647Z" fill="#0074FF"/>
<path d="M246.142 195.651C242.591 194.7 240.479 191.046 241.43 187.497C242.381 183.949 246.037 181.84 249.588 182.792C253.14 183.743 255.252 187.397 254.301 190.946C253.35 194.495 249.694 196.603 246.142 195.651Z" fill="#0074FF"/>
<path d="M430.33 238.872L433.183 238.108L416.748 176.866L413.895 177.629L430.33 238.872Z" fill="#0074FF"/>
<path d="M438.177 236.77C439.117 240.305 437.029 243.971 433.491 244.909C429.954 245.846 426.284 243.758 425.344 240.223C424.404 236.688 426.493 233.021 430.03 232.084C433.568 231.146 437.238 233.235 438.177 236.77Z" fill="#0074FF"/>
<path d="M387.919 284.372L432.789 239.568L430.7 237.479L385.831 282.284L387.919 284.372Z" fill="#0074FF"/>
<path d="M391.59 288C389.008 290.592 384.778 290.596 382.191 287.985C379.597 285.405 379.591 281.177 382.202 278.594C384.784 276.002 389.015 275.998 391.601 278.609C394.196 281.19 394.202 285.417 391.59 288Z" fill="#0074FF"/>
<path d="M325.218 268.331L386.506 284.753L387.27 281.902L325.981 265.48L325.218 268.331Z" fill="#0074FF"/>
<path d="M327.322 260.475C323.768 259.523 320.116 261.63 319.164 265.181C318.213 268.732 320.323 272.383 323.877 273.335C327.431 274.287 331.083 272.181 332.035 268.629C332.987 265.078 330.877 261.428 327.322 260.475Z" fill="#0074FF"/>
<path d="M324.168 267.319L327.021 266.555L310.587 205.313L307.734 206.076L324.168 267.319Z" fill="#0074FF"/>
<path d="M302.737 207.37C301.797 203.835 303.886 200.169 307.423 199.231C310.96 198.294 314.63 200.382 315.57 203.917C316.51 207.452 314.422 211.119 310.854 212.048C307.317 212.986 303.647 210.897 302.707 207.362L302.737 207.37Z" fill="#0074FF"/>
<path d="M310.164 206.606L355.041 161.809L352.953 159.72L308.076 204.517L310.164 206.606Z" fill="#0074FF"/>
<path d="M349.325 156.14C351.906 153.548 356.137 153.544 358.724 156.155C361.318 158.736 361.324 162.963 358.712 165.547C356.131 168.138 351.9 168.142 349.314 165.531C346.719 162.951 346.713 158.723 349.325 156.14Z" fill="#0074FF"/>
<path d="M353.645 162.238L414.933 178.66L415.697 175.81L354.409 159.387L353.645 162.238Z" fill="#0074FF"/>
<path d="M417.03 170.835C413.476 169.883 409.823 171.99 408.872 175.541C407.92 179.092 410.03 182.743 413.584 183.695C417.139 184.648 420.791 182.541 421.743 178.99C422.694 175.439 420.584 171.788 417.03 170.835Z" fill="#0074FF"/>
<path d="M536.469 210.463L539.322 209.699L522.888 148.457L520.035 149.221L536.469 210.463Z" fill="#0074FF"/>
<path d="M544.3 208.383C545.24 211.918 543.152 215.584 539.614 216.522C536.077 217.46 532.407 215.371 531.467 211.836C530.527 208.301 532.616 204.635 536.153 203.697C539.691 202.76 543.361 204.848 544.3 208.383Z" fill="#0074FF"/>
<path d="M494.036 255.876L538.913 211.08L536.825 208.991L491.948 253.788L494.036 255.876Z" fill="#0074FF"/>
<path d="M497.743 259.622C495.162 262.213 490.931 262.218 488.345 259.607C485.75 257.026 485.744 252.798 488.356 250.215C490.937 247.624 495.168 247.619 497.754 250.23C500.349 252.811 500.355 257.039 497.743 259.622Z" fill="#0074FF"/>
<path d="M431.348 239.914L492.637 256.336L493.401 253.485L432.112 237.063L431.348 239.914Z" fill="#0074FF"/>
<path d="M433.453 232.058C429.899 231.106 426.247 233.213 425.295 236.764C424.344 240.315 426.454 243.966 430.008 244.918C433.562 245.87 437.214 243.764 438.166 240.213C439.117 236.661 437.008 233.011 433.453 232.058Z" fill="#0074FF"/>
<path d="M430.33 238.872L433.183 238.108L416.748 176.866L413.895 177.629L430.33 238.872Z" fill="#0074FF"/>
<path d="M408.899 178.961C407.959 175.426 410.047 171.76 413.585 170.823C417.122 169.885 420.792 171.974 421.732 175.509C422.672 179.044 420.583 182.71 417.046 183.647C413.508 184.585 409.838 182.496 408.899 178.961Z" fill="#0074FF"/>
<path d="M416.346 178.294L461.216 133.49L459.127 131.402L414.258 176.206L416.346 178.294Z" fill="#0074FF"/>
<path d="M455.456 127.723C458.038 125.131 462.268 125.127 464.855 127.738C467.449 130.319 467.455 134.546 464.843 137.13C462.262 139.721 458.031 139.725 455.445 137.114C452.85 134.534 452.844 130.306 455.456 127.723Z" fill="#0074FF"/>
<path d="M614.168 288.18L617.021 287.416L600.587 226.174L597.734 226.937L614.168 288.18Z" fill="#0074FF"/>
<path d="M622.043 286.037C622.983 289.572 620.894 293.238 617.357 294.175C613.819 295.113 610.149 293.024 609.21 289.489C608.27 285.954 610.358 282.288 613.896 281.35C617.433 280.413 621.103 282.501 622.043 286.037Z" fill="#0074FF"/>
<path d="M571.798 333.628L616.668 288.823L614.579 286.735L569.71 331.539L571.798 333.628Z" fill="#0074FF"/>
<path d="M575.455 337.267C572.874 339.858 568.643 339.863 566.056 337.252C563.462 334.671 563.456 330.444 566.068 327.86C568.649 325.269 572.88 325.264 575.466 327.875C578.061 330.456 578.067 334.684 575.455 337.267Z" fill="#0074FF"/>
<path d="M509.083 317.597L570.371 334.019L571.135 331.168L509.847 314.746L509.083 317.597Z" fill="#0074FF"/>
<path d="M507.75 322.571C504.198 321.62 502.087 317.966 503.038 314.417C503.988 310.868 507.644 308.76 511.196 309.711C514.747 310.663 516.859 314.317 515.908 317.866C514.958 321.414 511.302 323.523 507.75 322.571Z" fill="#0074FF"/>
<path d="M508.031 316.536L510.884 315.772L494.45 254.53L491.596 255.293L508.031 316.536Z" fill="#0074FF"/>
<path d="M486.602 256.637C485.663 253.102 487.751 249.436 491.288 248.498C494.826 247.56 498.496 249.649 499.435 253.184C500.375 256.719 498.287 260.385 494.749 261.323C491.212 262.26 487.542 260.172 486.602 256.637Z" fill="#0074FF"/>
<path d="M494.036 255.876L538.913 211.08L536.825 208.991L491.948 253.788L494.036 255.876Z" fill="#0074FF"/>
<path d="M533.19 205.406C535.772 202.815 540.003 202.811 542.589 205.422C545.184 208.002 545.189 212.23 542.578 214.813C539.996 217.405 535.766 217.409 533.179 214.798C530.585 212.217 530.579 207.99 533.19 205.406Z" fill="#0074FF"/>
<path d="M537.51 211.505L598.798 227.927L599.562 225.076L538.274 208.654L537.51 211.505Z" fill="#0074FF"/>
<path d="M600.895 220.102C597.341 219.15 593.688 221.256 592.737 224.808C591.785 228.359 593.895 232.009 597.449 232.962C601.004 233.914 604.656 231.807 605.608 228.256C606.559 224.705 604.449 221.054 600.895 220.102Z" fill="#0074FF"/>
<path d="M720.316 259.741L723.169 258.977L706.734 197.735L703.881 198.498L720.316 259.741Z" fill="#0074FF"/>
<path d="M728.166 257.65C729.106 261.185 727.017 264.851 723.48 265.789C719.942 266.726 716.272 264.638 715.333 261.103C714.393 257.568 716.481 253.901 720.019 252.964C723.556 252.026 727.226 254.115 728.166 257.65Z" fill="#0074FF"/>
<path d="M677.973 305.281L722.842 260.477L720.754 258.388L675.884 303.193L677.973 305.281Z" fill="#0074FF"/>
<path d="M681.608 308.888C679.027 311.48 674.796 311.484 672.21 308.873C669.615 306.292 669.609 302.065 672.221 299.482C674.802 296.89 679.033 296.886 681.619 299.497C684.214 302.078 684.22 306.305 681.639 308.897L681.608 308.888Z" fill="#0074FF"/>
<path d="M615.244 289.188L676.533 305.611L677.296 302.76L616.008 286.337L615.244 289.188Z" fill="#0074FF"/>
<path d="M613.903 294.193C610.352 293.241 608.24 289.587 609.191 286.038C610.142 282.49 613.797 280.381 617.349 281.333C620.901 282.285 623.013 285.939 622.062 289.487C621.111 293.036 617.455 295.144 613.903 294.193Z" fill="#0074FF"/>
<path d="M614.168 288.18L617.021 287.416L600.587 226.174L597.734 226.937L614.168 288.18Z" fill="#0074FF"/>
<path d="M592.764 228.228C591.824 224.693 593.913 221.027 597.45 220.089C600.987 219.152 604.657 221.24 605.597 224.775C606.537 228.31 604.448 231.977 600.911 232.914C597.374 233.852 593.704 231.763 592.764 228.228Z" fill="#0074FF"/>
<path d="M600.217 227.58L645.087 182.776L642.998 180.687L598.129 225.492L600.217 227.58Z" fill="#0074FF"/>
<path d="M639.321 176.989C641.903 174.398 646.133 174.394 648.72 177.005C651.315 179.585 651.321 183.813 648.709 186.396C646.097 188.98 641.897 188.992 639.31 186.381C636.716 183.8 636.709 179.573 639.321 176.989Z" fill="#0074FF"/>
<path d="M798.061 337.405L800.914 336.641L784.48 275.399L781.627 276.163L798.061 337.405Z" fill="#0074FF"/>
<path d="M805.908 335.303C806.848 338.838 804.759 342.504 801.222 343.442C797.685 344.379 794.015 342.291 793.075 338.756C792.135 335.221 794.224 331.554 797.761 330.617C801.298 329.679 804.968 331.768 805.908 335.303Z" fill="#0074FF"/>
<path d="M755.625 382.836L800.494 338.032L798.406 335.944L753.536 380.748L755.625 382.836Z" fill="#0074FF"/>
<path d="M759.32 386.533C756.739 389.125 752.508 389.129 749.922 386.518C747.327 383.938 747.321 379.71 749.933 377.127C752.514 374.535 756.745 374.531 759.332 377.142C761.926 379.723 761.932 383.95 759.32 386.533Z" fill="#0074FF"/>
<path d="M692.948 366.864L754.236 383.286L755 380.435L693.712 364.013L692.948 366.864Z" fill="#0074FF"/>
<path d="M695.053 359.008C691.499 358.056 687.846 360.163 686.895 363.714C685.943 367.265 688.053 370.916 691.607 371.868C695.161 372.82 698.814 370.714 699.765 367.163C700.717 363.611 698.607 359.961 695.053 359.008Z" fill="#0074FF"/>
<path d="M691.916 365.791L694.769 365.028L678.334 303.786L675.481 304.549L691.916 365.791Z" fill="#0074FF"/>
<path d="M670.468 305.903C669.528 302.368 671.616 298.702 675.154 297.764C678.691 296.827 682.361 298.915 683.301 302.45C684.241 305.985 682.152 309.652 678.584 310.581C675.047 311.519 671.377 309.43 670.437 305.895L670.468 305.903Z" fill="#0074FF"/>
<path d="M677.973 305.281L722.842 260.477L720.754 258.388L675.884 303.193L677.973 305.281Z" fill="#0074FF"/>
<path d="M717.056 254.673C719.637 252.081 723.868 252.077 726.454 254.688C729.049 257.269 729.055 261.496 726.443 264.08C723.862 266.671 719.631 266.675 717.044 264.064C714.45 261.484 714.444 257.256 717.056 254.673Z" fill="#0074FF"/>
<path d="M721.375 260.771L782.664 277.194L783.428 274.343L722.139 257.92L721.375 260.771Z" fill="#0074FF"/>
<path d="M784.76 269.369C781.206 268.416 777.554 270.523 776.602 274.074C775.651 277.625 777.761 281.276 781.315 282.228C784.869 283.181 788.522 281.074 789.473 277.523C790.425 273.972 788.315 270.321 784.76 269.369Z" fill="#0074FF"/>
<path d="M904.193 309.027L907.046 308.263L890.611 247.021L887.758 247.784L904.193 309.027Z" fill="#0074FF"/>
<path d="M912.031 306.916C912.971 310.451 910.882 314.118 907.345 315.055C903.808 315.993 900.138 313.904 899.198 310.369C898.258 306.834 900.347 303.168 903.884 302.23C907.421 301.293 911.091 303.381 912.031 306.916Z" fill="#0074FF"/>
<path d="M861.81 354.426L906.688 309.629L904.6 307.541L859.722 352.337L861.81 354.426Z" fill="#0074FF"/>
<path d="M865.474 358.155C862.892 360.747 858.661 360.751 856.075 358.14C853.48 355.559 853.474 351.332 856.086 348.748C858.668 346.157 862.898 346.153 865.485 348.763C868.079 351.344 868.085 355.572 865.474 358.155Z" fill="#0074FF"/>
<path d="M799.11 338.455L860.398 354.877L861.162 352.026L799.873 335.604L799.11 338.455Z" fill="#0074FF"/>
<path d="M801.214 330.6C797.66 329.647 794.008 331.754 793.056 335.305C792.105 338.856 794.214 342.507 797.769 343.459C801.323 344.412 804.975 342.305 805.927 338.754C806.878 335.203 804.768 331.552 801.214 330.6Z" fill="#0074FF"/>
<path d="M798.061 337.405L800.914 336.641L784.48 275.399L781.627 276.163L798.061 337.405Z" fill="#0074FF"/>
<path d="M776.629 277.495C775.689 273.96 777.778 270.293 781.315 269.356C784.852 268.418 788.522 270.507 789.462 274.042C790.402 277.577 788.314 281.243 784.776 282.181C781.239 283.118 777.569 281.03 776.629 277.495Z" fill="#0074FF"/>
<path d="M784.044 276.789L828.913 231.984L826.825 229.896L781.955 274.7L784.044 276.789Z" fill="#0074FF"/>
<path d="M823.187 226.256C825.768 223.664 829.999 223.66 832.585 226.271C835.18 228.852 835.186 233.079 832.574 235.663C829.993 238.254 825.762 238.258 823.175 235.647C820.581 233.067 820.575 228.839 823.187 226.256Z" fill="#0074FF"/>
<path d="M827.529 232.393L888.817 248.815L889.581 245.964L828.293 229.542L827.529 232.393Z" fill="#0074FF"/>
<path d="M890.922 240.96C894.474 241.912 896.585 245.566 895.635 249.114C894.684 252.663 891.028 254.771 887.476 253.82C883.925 252.868 881.813 249.214 882.764 245.665C883.714 242.117 887.37 240.008 890.922 240.96Z" fill="#0074FF"/>
<path d="M981.908 386.683L984.761 385.919L968.326 324.677L965.473 325.44L981.908 386.683Z" fill="#0074FF"/>
<path d="M989.773 384.57C990.713 388.105 988.624 391.771 985.087 392.708C981.55 393.646 977.88 391.557 976.94 388.022C976 384.487 978.089 380.821 981.626 379.884C985.163 378.946 988.833 381.035 989.773 384.57Z" fill="#0074FF"/>
<path d="M939.518 432.16L984.387 387.356L982.299 385.268L937.429 430.072L939.518 432.16Z" fill="#0074FF"/>
<path d="M943.216 435.808C940.634 438.4 936.404 438.404 933.817 435.793C931.223 433.212 931.217 428.985 933.828 426.401C936.41 423.81 940.641 423.806 943.227 426.417C945.822 428.997 945.828 433.225 943.216 435.808Z" fill="#0074FF"/>
<path d="M876.813 416.13L938.102 432.552L938.866 429.701L877.577 413.279L876.813 416.13Z" fill="#0074FF"/>
<path d="M875.48 421.104C871.929 420.153 869.817 416.499 870.768 412.95C871.719 409.401 875.374 407.293 878.926 408.245C882.478 409.196 884.59 412.85 883.639 416.399C882.688 419.947 879.032 422.056 875.48 421.104Z" fill="#0074FF"/>
<path d="M875.762 415.069L878.616 414.306L862.181 353.063L859.328 353.827L875.762 415.069Z" fill="#0074FF"/>
<path d="M854.333 355.17C853.393 351.635 855.482 347.969 859.019 347.031C862.556 346.093 866.226 348.182 867.166 351.717C868.106 355.252 866.017 358.918 862.48 359.856C858.943 360.794 855.273 358.705 854.333 355.17Z" fill="#0074FF"/>
<path d="M861.81 354.426L906.688 309.629L904.6 307.541L859.722 352.337L861.81 354.426Z" fill="#0074FF"/>
<path d="M900.921 303.939C903.502 301.348 907.733 301.344 910.319 303.955C912.914 306.535 912.92 310.763 910.308 313.346C907.727 315.938 903.496 315.942 900.909 313.331C898.315 310.75 898.309 306.523 900.921 303.939Z" fill="#0074FF"/>
<path d="M905.241 310.038L966.529 326.46L967.293 323.609L906.004 307.187L905.241 310.038Z" fill="#0074FF"/>
<path d="M968.626 318.635C965.071 317.683 961.419 319.79 960.467 323.341C959.516 326.892 961.626 330.543 965.18 331.495C968.734 332.447 972.387 330.341 973.338 326.789C974.29 323.238 972.18 319.588 968.626 318.635Z" fill="#0074FF"/>
<path d="M1088.05 358.274L1090.9 357.511L1074.47 296.268L1071.61 297.032L1088.05 358.274Z" fill="#0074FF"/>
<path d="M1095.93 356.191C1096.87 359.726 1094.78 363.392 1091.24 364.33C1087.7 365.267 1084.03 363.179 1083.09 359.644C1082.15 356.109 1084.24 352.443 1087.78 351.505C1091.32 350.567 1094.99 352.656 1095.93 356.191Z" fill="#0074FF"/>
<path d="M1045.68 403.696L1090.56 358.9L1088.47 356.811L1043.59 401.608L1045.68 403.696Z" fill="#0074FF"/>
<path d="M1049.34 407.422C1046.76 410.013 1042.53 410.017 1039.94 407.406C1037.35 404.826 1037.34 400.598 1039.95 398.015C1042.53 395.423 1046.76 395.419 1049.35 398.03C1051.94 400.611 1051.95 404.838 1049.34 407.422Z" fill="#0074FF"/>
<path d="M982.975 387.721L1044.26 404.144L1045.03 401.293L983.739 384.87L982.975 387.721Z" fill="#0074FF"/>
<path d="M985.079 379.866C981.525 378.914 977.873 381.02 976.921 384.572C975.97 388.123 978.08 391.773 981.634 392.726C985.188 393.678 988.841 391.571 989.792 388.02C990.744 384.469 988.634 380.818 985.079 379.866Z" fill="#0074FF"/>
<path d="M981.908 386.683L984.761 385.919L968.326 324.677L965.473 325.44L981.908 386.683Z" fill="#0074FF"/>
<path d="M960.494 326.761C959.554 323.226 961.643 319.56 965.18 318.622C968.718 317.685 972.388 319.773 973.327 323.308C974.267 326.843 972.179 330.51 968.641 331.447C965.104 332.385 961.434 330.296 960.494 326.761Z" fill="#0074FF"/>
<path d="M967.937 326.113L1012.81 281.309L1010.72 279.22L965.848 324.025L967.937 326.113Z" fill="#0074FF"/>
<path d="M1007.05 275.522C1009.63 272.931 1013.86 272.927 1016.45 275.538C1019.04 278.118 1019.05 282.346 1016.44 284.929C1013.83 287.513 1009.63 287.525 1007.04 284.914C1004.45 282.333 1004.44 278.106 1007.05 275.522Z" fill="#0074FF"/>
<path d="M1011.39 281.66L1072.68 298.082L1073.45 295.231L1012.16 278.809L1011.39 281.66Z" fill="#0074FF"/>
<path d="M1074.79 290.226C1078.34 291.178 1080.45 294.832 1079.5 298.381C1078.55 301.929 1074.89 304.038 1071.34 303.086C1067.79 302.134 1065.68 298.48 1066.63 294.932C1067.58 291.383 1071.24 289.275 1074.79 290.226Z" fill="#0074FF"/>
<path d="M1165.79 435.938L1168.65 435.175L1152.21 373.933L1149.36 374.696L1165.79 435.938Z" fill="#0074FF"/>
<path d="M1173.64 433.836C1174.58 437.371 1172.49 441.037 1168.95 441.975C1165.42 442.913 1161.75 440.824 1160.81 437.289C1159.87 433.754 1161.95 430.088 1165.49 429.15C1169.03 428.212 1172.7 430.301 1173.64 433.836Z" fill="#0074FF"/>
<path d="M1123.39 481.446L1168.26 436.642L1166.17 434.553L1121.3 479.358L1123.39 481.446Z" fill="#0074FF"/>
<path d="M1127.08 485.075C1124.5 487.666 1120.27 487.67 1117.68 485.059C1115.09 482.479 1115.08 478.251 1117.69 475.668C1120.28 473.076 1124.51 473.072 1127.09 475.683C1129.69 478.264 1129.69 482.491 1127.08 485.075Z" fill="#0074FF"/>
<path d="M1060.68 465.397L1121.97 481.819L1122.73 478.968L1061.44 462.546L1060.68 465.397Z" fill="#0074FF"/>
<path d="M1062.78 457.541C1059.23 456.589 1055.58 458.696 1054.62 462.247C1053.67 465.798 1055.78 469.449 1059.34 470.401C1062.89 471.353 1066.54 469.247 1067.5 465.696C1068.45 462.144 1066.34 458.494 1062.78 457.541Z" fill="#0074FF"/>
<path d="M1059.64 464.355L1062.49 463.592L1046.06 402.349L1043.2 403.113L1059.64 464.355Z" fill="#0074FF"/>
<path d="M1038.2 404.436C1037.26 400.901 1039.35 397.235 1042.88 396.297C1046.42 395.36 1050.09 397.448 1051.03 400.984C1051.97 404.519 1049.88 408.185 1046.35 409.122C1042.81 410.06 1039.14 407.971 1038.2 404.436Z" fill="#0074FF"/>
<path d="M1045.68 403.696L1090.56 358.9L1088.47 356.811L1043.59 401.608L1045.68 403.696Z" fill="#0074FF"/>
<path d="M1084.79 353.206C1087.37 350.614 1091.6 350.61 1094.18 353.221C1096.78 355.802 1096.79 360.029 1094.17 362.613C1091.59 365.204 1087.36 365.208 1084.77 362.597C1082.18 360.017 1082.17 355.789 1084.79 353.206Z" fill="#0074FF"/>
<path d="M1089.11 359.304L1150.39 375.727L1151.16 372.876L1089.87 356.453L1089.11 359.304Z" fill="#0074FF"/>
<path d="M1152.49 367.902C1148.94 366.949 1145.28 369.056 1144.33 372.607C1143.38 376.158 1145.49 379.809 1149.05 380.761C1152.6 381.714 1156.25 379.607 1157.2 376.056C1158.15 372.505 1156.05 368.854 1152.49 367.902Z" fill="#0074FF"/>
<path d="M1271.92 407.56L1274.78 406.797L1258.34 345.554L1255.49 346.318L1271.92 407.56Z" fill="#0074FF"/>
<path d="M1279.79 405.458C1280.73 408.993 1278.64 412.659 1275.11 413.596C1271.57 414.534 1267.9 412.445 1266.96 408.91C1266.02 405.375 1268.11 401.709 1271.64 400.772C1275.18 399.834 1278.85 401.922 1279.79 405.458Z" fill="#0074FF"/>
<path d="M1229.54 453.061L1274.41 408.257L1272.32 406.168L1227.45 450.973L1229.54 453.061Z" fill="#0074FF"/>
<path d="M1233.2 456.688C1230.62 459.28 1226.39 459.284 1223.81 456.673C1221.21 454.092 1221.2 449.865 1223.82 447.281C1226.4 444.69 1230.63 444.686 1233.22 447.297C1235.81 449.877 1235.82 454.105 1233.2 456.688Z" fill="#0074FF"/>
<path d="M1166.84 436.988L1228.13 453.41L1228.89 450.559L1167.6 434.137L1166.84 436.988Z" fill="#0074FF"/>
<path d="M1168.94 429.133C1165.39 428.18 1161.74 430.287 1160.79 433.838C1159.83 437.389 1161.94 441.04 1165.5 441.992C1169.05 442.945 1172.71 440.838 1173.66 437.287C1174.61 433.736 1172.5 430.085 1168.94 429.133Z" fill="#0074FF"/>
<path d="M1165.79 435.938L1168.65 435.175L1152.21 373.933L1149.36 374.696L1165.79 435.938Z" fill="#0074FF"/>
<path d="M1144.36 376.028C1143.42 372.493 1145.51 368.826 1149.05 367.889C1152.58 366.951 1156.25 369.04 1157.19 372.575C1158.13 376.11 1156.04 379.776 1152.51 380.714C1148.97 381.651 1145.3 379.563 1144.36 376.028Z" fill="#0074FF"/>
<path d="M1151.79 375.36L1196.65 330.556L1194.57 328.467L1149.7 373.272L1151.79 375.36Z" fill="#0074FF"/>
<path d="M1190.92 324.789C1193.5 322.198 1197.73 322.193 1200.32 324.804C1202.91 327.385 1202.92 331.612 1200.3 334.196C1197.72 336.787 1193.49 336.791 1190.91 334.181C1188.31 331.6 1188.31 327.372 1190.92 324.789Z" fill="#0074FF"/>
<path d="M1195.26 330.926L1256.55 347.348L1257.31 344.497L1196.02 328.075L1195.26 330.926Z" fill="#0074FF"/>
<path d="M1258.65 339.493C1262.2 340.445 1264.32 344.099 1263.36 347.647C1262.41 351.196 1258.76 353.304 1255.21 352.353C1251.66 351.401 1249.54 347.747 1250.49 344.198C1251.44 340.65 1255.1 338.541 1258.65 339.493Z" fill="#0074FF"/>
<path d="M1229.54 453.061L1274.41 408.257L1272.32 406.168L1227.45 450.973L1229.54 453.061Z" fill="#0074FF"/>
<path d="M1268.65 402.473C1271.23 399.881 1275.46 399.877 1278.05 402.488C1280.64 405.068 1280.65 409.296 1278.04 411.879C1275.46 414.471 1271.23 414.475 1268.64 411.864C1266.05 409.283 1266.04 405.056 1268.65 402.473Z" fill="#0074FF"/>
<path d="M1272.97 408.571L1334.26 424.993L1335.02 422.142L1273.73 405.72L1272.97 408.571Z" fill="#0074FF"/>
<path d="M1336.36 417.168C1332.8 416.216 1329.15 418.323 1328.2 421.874C1327.25 425.425 1329.36 429.076 1332.91 430.028C1336.46 430.98 1340.12 428.873 1341.07 425.322C1342.02 421.771 1339.91 418.121 1336.36 417.168Z" fill="#0074FF"/>
<path d="M416.346 178.294L461.216 133.49L459.127 131.402L414.258 176.206L416.346 178.294Z" fill="#0074FF"/>
<path d="M420.009 181.938C417.427 184.53 413.197 184.534 410.61 181.923C408.016 179.342 408.01 175.115 410.621 172.532C413.203 169.94 417.434 169.936 420.02 172.547C422.615 175.127 422.621 179.355 420.009 181.938Z" fill="#0074FF"/>
<path d="M353.645 162.238L414.933 178.66L415.697 175.81L354.409 159.387L353.645 162.238Z" fill="#0074FF"/>
<path d="M355.742 154.413C352.187 153.461 348.535 155.568 347.583 159.119C346.632 162.67 348.742 166.321 352.296 167.273C355.85 168.225 359.503 166.119 360.454 162.568C361.406 159.016 359.296 155.366 355.742 154.413Z" fill="#0074FF"/>
<path d="M600.217 227.58L645.087 182.776L642.998 180.687L598.129 225.492L600.217 227.58Z" fill="#0074FF"/>
<path d="M603.874 231.205C601.293 233.796 597.062 233.801 594.476 231.19C591.881 228.609 591.875 224.381 594.487 221.798C597.068 219.207 601.299 219.202 603.885 221.813C606.48 224.394 606.486 228.622 603.874 231.205Z" fill="#0074FF"/>
<path d="M537.51 211.505L598.798 227.927L599.562 225.076L538.274 208.654L537.51 211.505Z" fill="#0074FF"/>
<path d="M536.169 216.509C532.618 215.558 530.506 211.904 531.457 208.355C532.408 204.806 536.063 202.698 539.615 203.65C543.167 204.601 545.278 208.255 544.328 211.804C543.377 215.352 539.721 217.461 536.169 216.509Z" fill="#0074FF"/>
<path d="M536.469 210.463L539.322 209.699L522.888 148.457L520.035 149.221L536.469 210.463Z" fill="#0074FF"/>
<path d="M515.022 150.575C514.082 147.04 516.17 143.374 519.708 142.436C523.245 141.498 526.915 143.587 527.855 147.122C528.795 150.657 526.706 154.323 523.169 155.261C519.631 156.199 515.961 154.11 515.022 150.575Z" fill="#0074FF"/>
<path d="M826.469 231.324L829.323 230.561L812.888 169.318L810.035 170.082L826.469 231.324Z" fill="#0074FF"/>
<path d="M834.327 229.241C835.267 232.776 833.178 236.442 829.641 237.38C826.104 238.318 822.434 236.229 821.494 232.694C820.554 229.159 822.643 225.493 826.18 224.555C829.717 223.617 833.387 225.706 834.327 229.241Z" fill="#0074FF"/>
<path d="M784.044 276.789L828.913 231.984L826.825 229.896L781.955 274.7L784.044 276.789Z" fill="#0074FF"/>
<path d="M787.739 280.471C785.158 283.063 780.927 283.067 778.341 280.456C775.746 277.876 775.74 273.648 778.352 271.065C780.933 268.473 785.164 268.469 787.751 271.08C790.345 273.661 790.351 277.888 787.739 280.471Z" fill="#0074FF"/>
<path d="M721.375 260.771L782.664 277.194L783.428 274.343L722.139 257.92L721.375 260.771Z" fill="#0074FF"/>
<path d="M723.472 252.946C719.918 251.994 716.265 254.101 715.314 257.652C714.362 261.203 716.472 264.854 720.026 265.806C723.581 266.758 727.233 264.652 728.185 261.101C729.136 257.55 727.026 253.899 723.472 252.946Z" fill="#0074FF"/>
<path d="M720.316 259.741L723.169 258.977L706.734 197.735L703.881 198.498L720.316 259.741Z" fill="#0074FF"/>
<path d="M698.887 199.841C697.947 196.306 700.036 192.64 703.573 191.702C707.11 190.765 710.78 192.854 711.72 196.389C712.66 199.924 710.571 203.59 707.004 204.519C703.466 205.457 699.796 203.368 698.857 199.833L698.887 199.841Z" fill="#0074FF"/>
<path d="M890.213 248.357L935.09 203.56L933.002 201.471L888.125 246.268L890.213 248.357Z" fill="#0074FF"/>
<path d="M893.893 252.093C891.311 254.685 887.081 254.689 884.494 252.078C881.9 249.497 881.894 245.27 884.505 242.686C887.087 240.095 891.317 240.091 893.904 242.702C896.49 245.313 896.504 249.51 893.893 252.093Z" fill="#0074FF"/>
<path d="M827.529 232.393L888.817 248.815L889.581 245.964L828.293 229.542L827.529 232.393Z" fill="#0074FF"/>
<path d="M826.188 237.397C822.636 236.446 820.524 232.792 821.475 229.243C822.426 225.695 826.082 223.586 829.633 224.538C833.185 225.489 835.297 229.143 834.346 232.692C833.395 236.24 829.739 238.349 826.188 237.397Z" fill="#0074FF"/>
<path d="M826.469 231.324L829.323 230.561L812.888 169.318L810.035 170.082L826.469 231.324Z" fill="#0074FF"/>
<path d="M805.048 171.433C804.109 167.898 806.197 164.231 809.734 163.294C813.272 162.356 816.942 164.445 817.882 167.98C818.821 171.515 816.733 175.181 813.196 176.119C809.658 177.056 805.988 174.968 805.048 171.433Z" fill="#0074FF"/>
<path d="M1010.35 280.61L1013.2 279.846L996.765 218.604L993.912 219.368L1010.35 280.61Z" fill="#0074FF"/>
<path d="M1018.19 278.508C1019.13 282.043 1017.04 285.709 1013.51 286.646C1009.97 287.584 1006.3 285.495 1005.36 281.96C1004.42 278.425 1006.51 274.759 1010.05 273.822C1013.58 272.884 1017.25 274.973 1018.19 278.508Z" fill="#0074FF"/>
<path d="M967.937 326.113L1012.81 281.309L1010.72 279.22L965.848 324.025L967.937 326.113Z" fill="#0074FF"/>
<path d="M971.635 329.746C969.054 332.338 964.823 332.342 962.236 329.731C959.642 327.15 959.636 322.923 962.248 320.339C964.829 317.748 969.06 317.744 971.646 320.355C974.241 322.935 974.247 327.163 971.635 329.746Z" fill="#0074FF"/>
<path d="M905.241 310.038L966.529 326.46L967.293 323.609L906.004 307.187L905.241 310.038Z" fill="#0074FF"/>
<path d="M903.9 315.042C900.348 314.091 898.236 310.437 899.187 306.888C900.138 303.34 903.794 301.231 907.345 302.183C910.897 303.134 913.009 306.788 912.058 310.337C911.107 313.885 907.451 315.994 903.9 315.042Z" fill="#0074FF"/>
<path d="M904.193 309.027L907.046 308.263L890.611 247.021L887.758 247.784L904.193 309.027Z" fill="#0074FF"/>
<path d="M882.752 249.108C881.812 245.573 883.901 241.907 887.438 240.969C890.975 240.031 894.645 242.12 895.585 245.655C896.525 249.19 894.436 252.856 890.899 253.794C887.362 254.732 883.692 252.643 882.752 249.108Z" fill="#0074FF"/>
<path d="M890.213 248.357L935.09 203.56L933.002 201.471L888.125 246.268L890.213 248.357Z" fill="#0074FF"/>
<path d="M929.34 197.878C931.921 195.286 936.152 195.282 938.739 197.893C941.333 200.474 941.339 204.701 938.727 207.284C936.146 209.876 931.915 209.88 929.329 207.269C926.734 204.688 926.728 200.461 929.34 197.878Z" fill="#0074FF"/>
<path d="M933.66 203.976L994.948 220.398L995.712 217.547L934.424 201.125L933.66 203.976Z" fill="#0074FF"/>
<path d="M997.053 212.543C993.499 211.591 989.846 213.697 988.895 217.248C987.943 220.799 990.053 224.45 993.607 225.403C997.161 226.355 1000.81 224.248 1001.77 220.697C1002.72 217.146 1000.61 213.495 997.053 212.543Z" fill="#0074FF"/>
<path d="M1116.48 252.232L1119.33 251.468L1102.9 190.226L1100.04 190.989L1116.48 252.232Z" fill="#0074FF"/>
<path d="M1124.35 250.129C1125.29 253.664 1123.2 257.33 1119.66 258.268C1116.12 259.206 1112.45 257.117 1111.52 253.552C1110.58 250.017 1112.67 246.35 1116.21 245.413C1119.74 244.475 1123.41 246.564 1124.35 250.099L1124.35 250.129Z" fill="#0074FF"/>
<path d="M1074.08 297.627L1118.96 252.831L1116.87 250.742L1072 295.539L1074.08 297.627Z" fill="#0074FF"/>
<path d="M1077.76 301.36C1075.18 303.951 1070.95 303.955 1068.36 301.344C1065.76 298.764 1065.76 294.536 1068.37 291.953C1070.95 289.361 1075.18 289.357 1077.77 291.968C1080.36 294.549 1080.37 298.776 1077.76 301.36Z" fill="#0074FF"/>
<path d="M1011.39 281.66L1072.68 298.082L1073.45 295.231L1012.16 278.809L1011.39 281.66Z" fill="#0074FF"/>
<path d="M1010.05 286.664C1006.5 285.712 1004.39 282.058 1005.34 278.51C1006.29 274.961 1009.95 272.853 1013.5 273.804C1017.05 274.756 1019.16 278.41 1018.21 281.958C1017.26 285.507 1013.6 287.616 1010.05 286.664Z" fill="#0074FF"/>
<path d="M1010.35 280.61L1013.2 279.846L996.765 218.604L993.912 219.368L1010.35 280.61Z" fill="#0074FF"/>
<path d="M988.914 220.699C987.974 217.164 990.062 213.498 993.6 212.56C997.137 211.623 1000.81 213.711 1001.75 217.246C1002.69 220.781 1000.6 224.448 997.061 225.385C993.523 226.323 989.853 224.234 988.914 220.699Z" fill="#0074FF"/>
<path d="M996.364 220.035L1041.23 175.231L1039.15 173.142L994.276 217.947L996.364 220.035Z" fill="#0074FF"/>
<path d="M1035.47 169.461C1038.05 166.869 1042.28 166.865 1044.88 169.446C1047.47 172.026 1047.48 176.254 1044.87 178.837C1042.29 181.429 1038.05 181.433 1035.47 178.822C1032.87 176.241 1032.87 172.014 1035.48 169.43L1035.47 169.461Z" fill="#0074FF"/>
<path d="M1039.81 175.598L1101.1 192.02L1101.87 189.169L1040.58 172.747L1039.81 175.598Z" fill="#0074FF"/>
<path d="M1103.21 184.164C1099.65 183.212 1096 185.319 1095.05 188.87C1094.1 192.421 1096.21 196.072 1099.76 197.024C1103.31 197.976 1106.97 195.87 1107.92 192.319C1108.87 188.768 1106.76 185.117 1103.21 184.164Z" fill="#0074FF"/>
<path d="M1194.2 329.857L1197.05 329.094L1180.62 267.852L1177.77 268.615L1194.2 329.857Z" fill="#0074FF"/>
<path d="M1202.06 327.774C1203 331.309 1200.91 334.975 1197.37 335.913C1193.83 336.851 1190.16 334.762 1189.22 331.227C1188.28 327.692 1190.37 324.026 1193.91 323.088C1197.45 322.15 1201.12 324.239 1202.06 327.774Z" fill="#0074FF"/>
<path d="M1151.79 375.36L1196.65 330.556L1194.57 328.467L1149.7 373.272L1151.79 375.36Z" fill="#0074FF"/>
<path d="M1155.5 379.013C1152.92 381.604 1148.69 381.608 1146.1 378.997C1143.51 376.417 1143.5 372.189 1146.11 369.606C1148.69 367.014 1152.92 367.01 1155.51 369.621C1158.11 372.202 1158.11 376.429 1155.5 379.013Z" fill="#0074FF"/>
<path d="M1089.11 359.304L1150.39 375.727L1151.16 372.876L1089.87 356.453L1089.11 359.304Z" fill="#0074FF"/>
<path d="M1091.2 351.479C1087.65 350.527 1084 352.634 1083.04 356.185C1082.09 359.736 1084.2 363.387 1087.76 364.339C1091.31 365.291 1094.96 363.185 1095.92 359.634C1096.87 356.083 1094.76 352.432 1091.2 351.479Z" fill="#0074FF"/>
<path d="M1088.05 358.274L1090.9 357.511L1074.47 296.268L1071.61 297.032L1088.05 358.274Z" fill="#0074FF"/>
<path d="M1066.62 298.374C1065.68 294.839 1067.77 291.173 1071.3 290.236C1074.84 289.298 1078.51 291.387 1079.45 294.922C1080.39 298.457 1078.3 302.123 1074.76 303.061C1071.23 303.998 1067.56 301.909 1066.62 298.374Z" fill="#0074FF"/>
<path d="M1074.08 297.627L1118.96 252.831L1116.87 250.742L1072 295.539L1074.08 297.627Z" fill="#0074FF"/>
<path d="M1113.21 247.144C1115.79 244.552 1120.02 244.548 1122.6 247.159C1125.2 249.74 1125.2 253.967 1122.59 256.551C1120.01 259.142 1115.78 259.146 1113.19 256.535C1110.6 253.955 1110.59 249.727 1113.21 247.144Z" fill="#0074FF"/>
<path d="M1117.53 253.243L1178.81 269.665L1179.58 266.814L1118.29 250.392L1117.53 253.243Z" fill="#0074FF"/>
<path d="M1180.92 261.809C1177.36 260.857 1173.71 262.964 1172.76 266.515C1171.81 270.066 1173.92 273.717 1177.47 274.669C1181.03 275.622 1184.68 273.515 1185.63 269.964C1186.58 266.413 1184.47 262.762 1180.92 261.809Z" fill="#0074FF"/>
<path d="M1300.32 301.509L1303.18 300.746L1286.74 239.504L1283.89 240.267L1300.32 301.509Z" fill="#0074FF"/>
<path d="M1308.21 299.396C1309.15 302.931 1307.06 306.597 1303.52 307.535C1299.99 308.472 1296.32 306.384 1295.39 302.818C1294.45 299.283 1296.53 295.617 1300.07 294.679C1303.61 293.742 1307.28 295.83 1308.22 299.365L1308.21 299.396Z" fill="#0074FF"/>
<path d="M1257.97 346.983L1302.84 302.179L1300.75 300.09L1255.88 344.895L1257.97 346.983Z" fill="#0074FF"/>
<path d="M1261.62 350.626C1259.04 353.218 1254.81 353.222 1252.22 350.611C1249.63 348.03 1249.62 343.803 1252.24 341.219C1254.82 338.628 1259.05 338.624 1261.63 341.235C1264.22 343.846 1264.23 348.043 1261.62 350.626Z" fill="#0074FF"/>
<path d="M1195.26 330.926L1256.55 347.348L1257.31 344.497L1196.02 328.075L1195.26 330.926Z" fill="#0074FF"/>
<path d="M1193.92 335.93C1190.37 334.979 1188.25 331.325 1189.21 327.776C1190.16 324.228 1193.81 322.119 1197.36 323.071C1200.92 324.022 1203.03 327.676 1202.08 331.225C1201.13 334.773 1197.47 336.882 1193.92 335.93Z" fill="#0074FF"/>
<path d="M1194.2 329.857L1197.05 329.094L1180.62 267.852L1177.77 268.615L1194.2 329.857Z" fill="#0074FF"/>
<path d="M1172.78 269.966C1171.84 266.431 1173.93 262.764 1177.46 261.827C1181 260.889 1184.67 262.978 1185.61 266.513C1186.55 270.048 1184.46 273.714 1180.93 274.652C1177.39 275.589 1173.72 273.501 1172.78 269.966Z" fill="#0074FF"/>
<path d="M1180.23 269.29L1225.1 224.486L1223.01 222.398L1178.14 267.202L1180.23 269.29Z" fill="#0074FF"/>
<path d="M1219.34 218.727C1221.92 216.136 1226.15 216.131 1228.74 218.712C1231.34 221.293 1231.34 225.52 1228.73 228.104C1226.15 230.695 1221.92 230.699 1219.33 228.088C1216.74 225.508 1216.73 221.28 1219.34 218.697L1219.34 218.727Z" fill="#0074FF"/>
<path d="M1223.68 224.864L1284.97 241.286L1285.73 238.435L1224.44 222.013L1223.68 224.864Z" fill="#0074FF"/>
<path d="M1287.07 233.431C1290.62 234.383 1292.73 238.037 1291.78 241.585C1290.83 245.134 1287.18 247.242 1283.63 246.291C1280.07 245.339 1277.96 241.685 1278.91 238.136C1279.86 234.588 1283.52 232.479 1287.07 233.431Z" fill="#0074FF"/>
<path d="M1272.97 408.571L1334.26 424.993L1335.02 422.142L1273.73 405.72L1272.97 408.571Z" fill="#0074FF"/>
<path d="M1271.63 413.575C1268.08 412.624 1265.97 408.97 1266.92 405.421C1267.87 401.873 1271.52 399.764 1275.08 400.716C1278.63 401.667 1280.74 405.321 1279.79 408.87C1278.84 412.418 1275.18 414.527 1271.63 413.575Z" fill="#0074FF"/>
<path d="M1271.92 407.56L1274.78 406.797L1258.34 345.554L1255.49 346.318L1271.92 407.56Z" fill="#0074FF"/>
<path d="M1250.48 347.641C1249.54 344.106 1251.63 340.44 1255.17 339.502C1258.71 338.565 1262.38 340.653 1263.32 344.188C1264.26 347.723 1262.17 351.39 1258.63 352.327C1255.09 353.265 1251.42 351.176 1250.48 347.641Z" fill="#0074FF"/>
<path d="M1257.97 346.983L1302.84 302.179L1300.75 300.09L1255.88 344.895L1257.97 346.983Z" fill="#0074FF"/>
<path d="M1297.07 296.411C1299.65 293.819 1303.88 293.815 1306.47 296.426C1309.06 299.007 1309.07 303.234 1306.46 305.817C1303.88 308.409 1299.65 308.413 1297.06 305.802C1294.46 303.221 1294.46 298.994 1297.07 296.411Z" fill="#0074FF"/>
<path d="M1301.39 302.509L1362.68 318.931L1363.44 316.08L1302.15 299.658L1301.39 302.509Z" fill="#0074FF"/>
<path d="M1364.78 311.076C1361.23 310.124 1357.58 312.23 1356.63 315.781C1355.67 319.333 1357.78 322.983 1361.34 323.936C1364.89 324.888 1368.54 322.781 1369.5 319.23C1370.45 315.679 1368.34 312.028 1364.78 311.076Z" fill="#0074FF"/>
<path d="M1038.75 174.529L1041.61 173.766L1025.17 112.524L1022.32 113.287L1038.75 174.529Z" fill="#0074FF"/>
<path d="M1046.61 172.446C1047.55 175.981 1045.46 179.647 1041.93 180.585C1038.39 181.522 1034.72 179.434 1033.78 175.899C1032.84 172.364 1034.93 168.697 1038.46 167.76C1042 166.822 1045.67 168.911 1046.61 172.446Z" fill="#0074FF"/>
<path d="M996.364 220.035L1041.23 175.231L1039.15 173.142L994.276 217.947L996.364 220.035Z" fill="#0074FF"/>
<path d="M1000.05 223.684C997.473 226.276 993.242 226.28 990.647 223.699C988.053 221.119 988.047 216.891 990.659 214.308C993.24 211.716 997.471 211.712 1000.06 214.323C1002.65 216.904 1002.66 221.131 1000.05 223.715L1000.05 223.684Z" fill="#0074FF"/>
<path d="M933.66 203.976L994.948 220.398L995.712 217.547L934.424 201.125L933.66 203.976Z" fill="#0074FF"/>
<path d="M932.319 208.98C928.767 208.029 926.655 204.375 927.606 200.826C928.557 197.278 932.213 195.169 935.765 196.121C939.316 197.072 941.428 200.726 940.477 204.275C939.526 207.823 935.87 209.932 932.319 208.98Z" fill="#0074FF"/>
<path d="M962.079 97.9141L1023.37 114.336L1024.13 111.485L962.843 95.0632L962.079 97.9141Z" fill="#0074FF"/>
<path d="M1025.46 106.511C1029.02 107.463 1031.13 111.117 1030.18 114.666C1029.23 118.214 1025.57 120.323 1022.02 119.371C1018.47 118.419 1016.35 114.765 1017.31 111.217C1018.26 107.668 1021.91 105.56 1025.46 106.511Z" fill="#0074FF"/>
<path d="M1144.89 146.151L1147.74 145.387L1131.3 84.1452L1128.45 84.9085L1144.89 146.151Z" fill="#0074FF"/>
<path d="M1152.76 144.067C1153.7 147.602 1151.62 151.269 1148.08 152.206C1144.54 153.144 1140.87 151.055 1139.93 147.52C1138.99 143.985 1141.08 140.319 1144.62 139.381C1148.16 138.444 1151.83 140.532 1152.76 144.067Z" fill="#0074FF"/>
<path d="M1102.52 191.65L1147.39 146.846L1145.3 144.757L1100.43 189.562L1102.52 191.65Z" fill="#0074FF"/>
<path d="M1106.18 195.298C1103.6 197.889 1099.37 197.893 1096.78 195.282C1094.18 192.702 1094.18 188.474 1096.79 185.891C1099.37 183.299 1103.6 183.295 1106.19 185.906C1108.78 188.487 1108.79 192.714 1106.18 195.298Z" fill="#0074FF"/>
<path d="M1039.81 175.598L1101.1 192.02L1101.87 189.169L1040.58 172.747L1039.81 175.598Z" fill="#0074FF"/>
<path d="M1041.92 167.742C1038.36 166.79 1034.71 168.897 1033.76 172.448C1032.81 175.999 1034.92 179.65 1038.47 180.602C1042.03 181.554 1045.68 179.448 1046.63 175.897C1047.58 172.345 1045.47 168.695 1041.92 167.742Z" fill="#0074FF"/>
<path d="M1038.75 174.529L1041.61 173.766L1025.17 112.524L1022.32 113.287L1038.75 174.529Z" fill="#0074FF"/>
<path d="M1017.33 114.637C1016.39 111.102 1018.48 107.436 1022.02 106.498C1025.56 105.561 1029.23 107.649 1030.17 111.184C1031.11 114.719 1029.02 118.386 1025.48 119.323C1021.94 120.261 1018.27 118.172 1017.33 114.637Z" fill="#0074FF"/>
<path d="M1024.78 113.885L1069.66 69.0887L1067.57 66.9999L1022.69 111.796L1024.78 113.885Z" fill="#0074FF"/>
<path d="M1063.89 63.3987C1066.47 60.8072 1070.7 60.803 1073.29 63.414C1075.88 65.9946 1075.89 70.2221 1073.28 72.8055C1070.7 75.397 1066.47 75.4011 1063.88 72.7902C1061.28 70.2095 1061.28 65.982 1063.89 63.3987Z" fill="#0074FF"/>
<path d="M1068.23 69.5357L1129.52 85.9579L1130.28 83.107L1069 66.6848L1068.23 69.5357Z" fill="#0074FF"/>
<path d="M1131.63 78.1026C1128.07 77.1503 1124.42 79.257 1123.47 82.8081C1122.52 86.3591 1124.63 90.0099 1128.18 90.9623C1131.73 91.9146 1135.39 89.8079 1136.34 86.2568C1137.29 82.7057 1135.18 79.0549 1131.63 78.1026Z" fill="#0074FF"/>
<path d="M1222.63 223.815L1225.48 223.052L1209.05 161.809L1206.2 162.573L1222.63 223.815Z" fill="#0074FF"/>
<path d="M1230.48 221.712C1231.42 225.247 1229.33 228.914 1225.79 229.851C1222.25 230.789 1218.58 228.7 1217.64 225.165C1216.7 221.63 1218.79 217.964 1222.33 217.026C1225.87 216.089 1229.54 218.177 1230.48 221.712Z" fill="#0074FF"/>
<path d="M1180.23 269.29L1225.1 224.486L1223.01 222.398L1178.14 267.202L1180.23 269.29Z" fill="#0074FF"/>
<path d="M1183.92 272.951C1181.34 275.542 1177.11 275.546 1174.51 272.966C1171.92 270.385 1171.91 266.158 1174.52 263.574C1177.11 260.983 1181.34 260.979 1183.92 263.59C1186.52 266.17 1186.52 270.398 1183.91 272.981L1183.92 272.951Z" fill="#0074FF"/>
<path d="M1117.53 253.243L1178.81 269.665L1179.58 266.814L1118.29 250.392L1117.53 253.243Z" fill="#0074FF"/>
<path d="M1119.63 245.387C1116.08 244.435 1112.42 246.542 1111.47 250.093C1110.52 253.644 1112.63 257.295 1116.18 258.247C1119.74 259.199 1123.39 257.093 1124.34 253.541C1125.29 249.99 1123.18 246.34 1119.63 245.387Z" fill="#0074FF"/>
<path d="M1116.48 252.232L1119.33 251.468L1102.9 190.226L1100.04 190.989L1116.48 252.232Z" fill="#0074FF"/>
<path d="M1095.04 192.312C1094.1 188.777 1096.19 185.111 1099.72 184.174C1103.26 183.236 1106.93 185.325 1107.86 188.89C1108.8 192.425 1106.71 196.091 1103.18 197.029C1099.64 197.966 1095.97 195.878 1095.03 192.343L1095.04 192.312Z" fill="#0074FF"/>
<path d="M1102.52 191.65L1147.39 146.846L1145.3 144.757L1100.43 189.562L1102.52 191.65Z" fill="#0074FF"/>
<path d="M1141.62 141.082C1144.21 138.491 1148.44 138.486 1151.02 141.097C1153.62 143.678 1153.62 147.906 1151.01 150.489C1148.43 153.08 1144.2 153.085 1141.61 150.474C1139.02 147.893 1139.01 143.665 1141.62 141.082Z" fill="#0074FF"/>
<path d="M1145.94 147.181L1207.23 163.603L1208 160.752L1146.71 144.33L1145.94 147.181Z" fill="#0074FF"/>
<path d="M1209.33 155.778C1212.88 156.729 1214.99 160.384 1214.04 163.932C1213.09 167.481 1209.44 169.589 1205.88 168.638C1202.33 167.686 1200.22 164.032 1201.17 160.483C1202.12 156.935 1205.78 154.826 1209.33 155.778Z" fill="#0074FF"/>
<path d="M1286.4 240.875L1331.27 196.071L1329.18 193.982L1284.31 238.787L1286.4 240.875Z" fill="#0074FF"/>
<path d="M1290.04 244.564C1287.46 247.156 1283.23 247.16 1280.64 244.549C1278.05 241.968 1278.04 237.741 1280.65 235.157C1283.24 232.566 1287.47 232.562 1290.05 235.173C1292.65 237.753 1292.65 241.981 1290.04 244.564Z" fill="#0074FF"/>
<path d="M1223.68 224.864L1284.97 241.286L1285.73 238.435L1224.44 222.013L1223.68 224.864Z" fill="#0074FF"/>
<path d="M1225.78 217.009C1222.23 216.057 1218.58 218.163 1217.62 221.714C1216.67 225.265 1218.78 228.916 1222.34 229.868C1225.89 230.821 1229.54 228.714 1230.5 225.163C1231.45 221.612 1229.34 217.961 1225.78 217.009Z" fill="#0074FF"/>
<path d="M1222.63 223.815L1225.48 223.052L1209.05 161.809L1206.2 162.573L1222.63 223.815Z" fill="#0074FF"/>
<path d="M1201.2 163.904C1200.26 160.369 1202.35 156.702 1205.88 155.765C1209.42 154.827 1213.09 156.916 1214.03 160.451C1214.97 163.986 1212.88 167.652 1209.35 168.59C1205.81 169.527 1202.14 167.439 1201.2 163.904Z" fill="#0074FF"/>
<path d="M1208.64 163.186L1253.52 118.39L1251.43 116.301L1206.56 161.098L1208.64 163.186Z" fill="#0074FF"/>
<path d="M1247.76 112.665C1250.34 110.074 1254.57 110.07 1257.15 112.681C1259.75 115.261 1259.75 119.489 1257.14 122.072C1254.56 124.664 1250.33 124.668 1247.74 122.057C1245.15 119.476 1245.14 115.249 1247.76 112.665Z" fill="#0074FF"/>
<path d="M1301.39 302.509L1362.68 318.931L1363.44 316.08L1302.15 299.658L1301.39 302.509Z" fill="#0074FF"/>
<path d="M1300.05 307.514C1296.5 306.562 1294.39 302.908 1295.34 299.359C1296.29 295.811 1299.94 293.702 1303.5 294.654C1307.05 295.605 1309.16 299.259 1308.21 302.808C1307.26 306.357 1303.6 308.465 1300.05 307.514Z" fill="#0074FF"/>
<path d="M1300.32 301.509L1303.18 300.746L1286.74 239.504L1283.89 240.267L1300.32 301.509Z" fill="#0074FF"/>
<path d="M1278.9 241.579C1277.96 238.044 1280.05 234.378 1283.59 233.44C1287.13 232.503 1290.8 234.591 1291.73 238.157C1292.67 241.692 1290.58 245.358 1287.04 246.296C1283.5 247.233 1279.83 245.145 1278.89 241.609L1278.9 241.579Z" fill="#0074FF"/>
<path d="M1286.4 240.875L1331.27 196.071L1329.18 193.982L1284.31 238.787L1286.4 240.875Z" fill="#0074FF"/>
<path d="M1325.49 190.349C1328.07 187.757 1332.3 187.753 1334.89 190.364C1337.48 192.945 1337.49 197.172 1334.88 199.756C1332.3 202.347 1328.06 202.351 1325.48 199.74C1322.88 197.16 1322.88 192.932 1325.49 190.349Z" fill="#0074FF"/>
<path d="M1067.18 68.4866L1070.04 67.7233L1053.6 6.48107L1050.75 7.24441L1067.18 68.4866Z" fill="#0074FF"/>
<path d="M1075.03 66.3838C1075.97 69.9188 1073.88 73.5851 1070.34 74.5227C1066.81 75.4603 1063.14 73.3717 1062.21 69.8063C1061.27 66.2712 1063.35 62.605 1066.89 61.6674C1070.43 60.7298 1074.1 62.8184 1075.04 66.3534L1075.03 66.3838Z" fill="#0074FF"/>
<path d="M1024.78 113.885L1069.66 69.0887L1067.57 66.9999L1022.69 111.796L1024.78 113.885Z" fill="#0074FF"/>
<path d="M1028.47 117.622C1025.89 120.214 1021.66 120.218 1019.07 117.607C1016.48 115.026 1016.47 110.799 1019.09 108.216C1021.67 105.624 1025.9 105.62 1028.48 108.231C1031.08 110.811 1031.09 115.039 1028.47 117.622Z" fill="#0074FF"/>
<path d="M962.079 97.9141L1023.37 114.336L1024.13 111.485L962.843 95.0632L962.079 97.9141Z" fill="#0074FF"/>
<path d="M960.738 102.918C957.186 101.967 955.075 98.3128 956.025 94.7643C956.976 91.2157 960.632 89.1071 964.184 90.0588C967.735 91.0104 969.847 94.6644 968.896 98.213C967.946 101.762 964.29 103.87 960.738 102.918Z" fill="#0074FF"/>
<path d="M1130.94 85.5723L1175.81 40.7679L1173.72 38.6795L1128.86 83.4839L1130.94 85.5723Z" fill="#0074FF"/>
<path d="M1134.6 89.2358C1132.01 91.8273 1127.78 91.8314 1125.19 89.2508C1122.6 86.6702 1122.59 82.4427 1125.2 79.8594C1127.78 77.2679 1132.01 77.2637 1134.6 79.8746C1137.19 82.4553 1137.2 86.6828 1134.59 89.2662L1134.6 89.2358Z" fill="#0074FF"/>
<path d="M1068.23 69.5357L1129.52 85.9579L1130.28 83.107L1069 66.6848L1068.23 69.5357Z" fill="#0074FF"/>
<path d="M1070.34 61.6803C1066.78 60.728 1063.13 62.8347 1062.18 66.3858C1061.23 69.937 1063.34 73.5877 1066.89 74.54C1070.45 75.4924 1074.1 73.3857 1075.05 69.8346C1076 66.2835 1073.89 62.6327 1070.34 61.6803Z" fill="#0074FF"/>
<path d="M1067.18 68.4866L1070.04 67.7233L1053.6 6.48107L1050.75 7.24441L1067.18 68.4866Z" fill="#0074FF"/>
<path d="M1045.75 8.57541C1044.81 5.04038 1046.9 1.37406 1050.44 0.436462C1053.98 -0.501132 1057.65 1.5875 1058.58 5.15289C1059.52 8.68792 1057.43 12.3541 1053.89 13.2917C1050.35 14.2293 1046.68 12.1407 1045.74 8.60572L1045.75 8.57541Z" fill="#0074FF"/>
<path d="M1208.64 163.186L1253.52 118.39L1251.43 116.301L1206.56 161.098L1208.64 163.186Z" fill="#0074FF"/>
<path d="M1212.34 166.889C1209.76 169.48 1205.53 169.485 1202.94 166.874C1200.35 164.293 1200.34 160.065 1202.95 157.482C1205.56 154.899 1209.76 154.886 1212.35 157.497C1214.94 160.078 1214.95 164.305 1212.34 166.889Z" fill="#0074FF"/>
<path d="M1145.94 147.181L1207.23 163.603L1208 160.752L1146.71 144.33L1145.94 147.181Z" fill="#0074FF"/>
<path d="M1144.6 152.185C1141.05 151.233 1138.94 147.579 1139.89 144.031C1140.84 140.482 1144.5 138.374 1148.05 139.325C1151.6 140.277 1153.71 143.931 1152.76 147.48C1151.81 151.028 1148.15 153.137 1144.6 152.185Z" fill="#0074FF"/>
<path d="M1144.89 146.151L1147.74 145.387L1131.3 84.1452L1128.45 84.9085L1144.89 146.151Z" fill="#0074FF"/>
<path d="M1123.46 86.2507C1122.52 82.7156 1124.6 79.0493 1128.14 78.1117C1131.68 77.1741 1135.35 79.2628 1136.29 82.7978C1137.23 86.3328 1135.14 89.9991 1131.6 90.9367C1128.07 91.8743 1124.4 89.7857 1123.46 86.2507Z" fill="#0074FF"/>
<path d="M1130.94 85.5723L1175.81 40.7679L1173.72 38.6795L1128.86 83.4839L1130.94 85.5723Z" fill="#0074FF"/>
<path d="M1170.04 35.0203C1172.62 32.4288 1176.86 32.4246 1179.45 35.0052C1182.04 37.5858 1182.05 41.8134 1179.44 44.3968C1176.86 46.9883 1172.63 46.9924 1170.04 44.3814C1167.45 41.8008 1167.44 37.5733 1170.05 34.9899L1170.04 35.0203Z" fill="#0074FF"/>
</svg>
