<svg xmlns="http://www.w3.org/2000/svg" viewBox="0 0 1309 211" width="1309" height="211">
    <path d="M92.9837 47.3153L96.1683 46.4633L77.8246 -21.8936L74.64 -21.0416L92.9837 47.3153Z" fill="#0074FF"/>
    <path d="M101.747 44.983C102.796 48.9287 100.465 53.0209 96.5166 54.0674C92.5683 55.1139 88.4721 52.7827 87.4231 48.837C86.3741 44.8913 88.7053 40.7991 92.6535 39.7525C96.6017 38.706 100.698 41.0373 101.747 44.983Z" fill="#0074FF"/>
    <path d="M7.39405 -38.2071L75.8026 -19.8771L76.6553 -23.0593L8.24671 -41.3893L7.39405 -38.2071Z" fill="#0074FF"/>
    <path d="M78.1519 -28.645C82.116 -27.5828 84.4733 -23.5043 83.412 -19.5435C82.3507 -15.5827 78.27 -13.2292 74.3058 -14.2914C70.3416 -15.3536 67.9844 -19.4322 69.0457 -23.3929C70.107 -27.3537 74.1876 -29.7073 78.1519 -28.645Z" fill="#0074FF"/>
    <path d="M179.762 134.002L182.946 133.15L164.602 64.7931L161.418 65.6451L179.762 134.002Z" fill="#0074FF"/>
    <path d="M188.521 131.657C189.57 135.603 187.239 139.695 183.29 140.742C179.342 141.788 175.246 139.457 174.197 135.511C173.148 131.566 175.479 127.473 179.427 126.427C183.376 125.38 187.472 127.712 188.521 131.657Z" fill="#0074FF"/>
    <path d="M94.1587 48.501L162.567 66.831L163.42 63.6488L95.0113 45.3188L94.1587 48.501Z" fill="#0074FF"/>
    <path d="M164.917 58.0631C168.881 59.1253 171.238 63.2038 170.177 67.1646C169.115 71.1254 165.035 73.4789 161.071 72.4167C157.106 71.3545 154.749 67.276 155.81 63.3152C156.872 59.3544 160.952 57.0009 164.917 58.0631Z" fill="#0074FF"/>
    <path d="M298.213 102.361L301.398 101.509L283.054 33.1518L279.869 34.0038L298.213 102.361Z" fill="#0074FF"/>
    <path d="M306.973 99.9729C308.022 103.919 305.69 108.011 301.742 109.057C297.794 110.104 293.698 107.773 292.649 103.827C291.6 99.8813 293.931 95.7891 297.879 94.7425C301.827 93.696 305.924 96.0272 306.973 99.9729Z" fill="#0074FF"/>
    <path d="M179.762 134.002L182.946 133.15L164.602 64.7931L161.418 65.6451L179.762 134.002Z" fill="#0074FF"/>
    <path d="M155.832 67.1669C154.783 63.2212 157.114 59.129 161.062 58.0825C165.01 57.036 169.107 59.3672 170.156 63.3129C171.205 67.2586 168.873 71.3508 164.925 72.3973C160.977 73.4438 156.881 71.1126 155.832 67.1669Z" fill="#0074FF"/>
    <path d="M164.188 66.4385L214.27 16.4291L211.939 14.0981L161.857 64.1076L164.188 66.4385Z" fill="#0074FF"/>
    <path d="M207.807 9.94192C210.688 7.04936 215.41 7.04472 218.297 9.95899C221.193 12.8394 221.2 17.5581 218.285 20.4415C215.403 23.3341 210.681 23.3387 207.794 20.4245C204.898 17.544 204.892 12.8254 207.807 9.94192Z" fill="#0074FF"/>
    <path d="M212.619 16.7828L281.028 35.1128L281.881 31.9306L213.472 13.6006L212.619 16.7828Z" fill="#0074FF"/>
    <path d="M283.377 26.3449C287.342 27.4071 289.699 31.4856 288.637 35.4464C287.576 39.4072 283.496 41.7607 279.531 40.6985C275.567 39.6363 273.21 35.5578 274.271 31.597C275.333 27.6362 279.413 25.2827 283.377 26.3449Z" fill="#0074FF"/>
    <path d="M124.717 -71.0465L127.901 -71.8985L109.558 -140.255L106.373 -139.403L124.717 -71.0465Z" fill="#0074FF"/>
    <path d="M133.468 -73.4006C134.517 -69.4549 132.186 -65.3627 128.237 -64.3162C124.289 -63.2697 120.193 -65.6009 119.144 -69.5466C118.095 -73.4923 120.426 -77.5845 124.374 -78.631C128.322 -79.6775 132.419 -77.3463 133.468 -73.4006Z" fill="#0074FF"/>
    <path d="M77.4154 -20.2982L127.498 -70.3077L125.166 -72.6387L75.0843 -22.6292L77.4154 -20.2982Z" fill="#0074FF"/>
    <path d="M81.5016 -16.2093C78.6203 -13.3168 73.898 -13.3122 71.011 -16.2265C68.115 -19.1069 68.1085 -23.8255 71.0237 -26.709C73.905 -29.6015 78.6272 -29.6062 81.5141 -26.6919C84.401 -23.7776 84.4169 -19.0928 81.5016 -16.2093Z" fill="#0074FF"/>
    <path d="M7.39405 -38.2071L75.8026 -19.8771L76.6553 -23.0593L8.24671 -41.3893L7.39405 -38.2071Z" fill="#0074FF"/>
    <path d="M5.89701 -32.6215C1.93285 -33.6837 -0.424267 -37.7622 0.637022 -41.723C1.69831 -45.6838 5.77889 -48.0373 9.74305 -46.9751C13.7073 -45.9129 16.0645 -41.8344 15.0032 -37.8736C13.9419 -33.9128 9.86129 -31.5593 5.89701 -32.6215Z" fill="#0074FF"/>
    <path d="M211.47 15.5973L214.654 14.7453L196.31 -53.6116L193.126 -52.7596L211.47 15.5973Z" fill="#0074FF"/>
    <path d="M220.242 13.2738C221.291 17.2195 218.959 21.3117 215.011 22.3582C211.063 23.4047 206.967 21.0735 205.918 17.1278C204.869 13.182 207.2 9.08988 211.148 8.04334C215.096 6.99682 219.193 9.32806 220.242 13.2738Z" fill="#0074FF"/>
    <path d="M164.188 66.4385L214.27 16.4291L211.939 14.0981L161.857 64.1076L164.188 66.4385Z" fill="#0074FF"/>
    <path d="M168.232 70.4897C165.351 73.3823 160.629 73.3869 157.742 70.4726C154.846 67.5922 154.839 62.8736 157.755 59.9901C160.636 57.0975 165.358 57.0929 168.245 60.0072C171.141 62.8876 171.148 67.6062 168.232 70.4897Z" fill="#0074FF"/>
    <path d="M94.1587 48.501L162.567 66.831L163.42 63.6488L95.0113 45.3188L94.1587 48.501Z" fill="#0074FF"/>
    <path d="M92.671 54.0529C88.7068 52.9907 86.3496 48.9122 87.4109 44.9514C88.4722 40.9906 92.5528 38.637 96.5171 39.6993C100.481 40.7615 102.838 44.84 101.777 48.8008C100.716 52.7616 96.6352 55.1151 92.671 54.0529Z" fill="#0074FF"/>
    <path d="M92.9837 47.3153L96.1683 46.4633L77.8246 -21.8936L74.64 -21.0416L92.9837 47.3153Z" fill="#0074FF"/>
    <path d="M69.0668 -19.5413C68.0177 -23.487 70.3489 -27.5792 74.2971 -28.6257C78.2454 -29.6722 82.3416 -27.341 83.3906 -23.3953C84.4397 -19.4496 82.1083 -15.3574 78.1602 -14.3109C74.212 -13.2644 70.1157 -15.5956 69.0668 -19.5413Z" fill="#0074FF"/>
    <path d="M77.4154 -20.2982L127.498 -70.3077L125.166 -72.6387L75.0843 -22.6292L77.4154 -20.2982Z" fill="#0074FF"/>
    <path d="M121.033 -76.7325C123.914 -79.625 128.637 -79.6296 131.524 -76.7153C134.42 -73.8349 134.426 -69.1163 131.511 -66.2328C128.63 -63.3403 123.907 -63.3356 121.02 -66.2499C118.124 -69.1303 118.118 -73.849 121.033 -76.7325Z" fill="#0074FF"/>
    <path d="M125.879 -69.8825L194.288 -51.5525L195.141 -54.7347L126.732 -73.0647L125.879 -69.8825Z" fill="#0074FF"/>
    <path d="M196.637 -60.3204C192.67 -61.3834 188.593 -59.0319 187.531 -55.0683C186.469 -51.1047 188.824 -47.0298 192.791 -45.9668C196.758 -44.9038 200.835 -47.2553 201.897 -51.2189C202.959 -55.1826 200.604 -59.2575 196.637 -60.3204Z" fill="#0074FF"/>
    <path d="M329.946 -16.0011L333.131 -16.8531L314.787 -85.21L311.603 -84.358L329.946 -16.0011Z" fill="#0074FF"/>
    <path d="M338.693 -18.4106C339.742 -14.4649 337.411 -10.3727 333.463 -9.32618C329.515 -8.27966 325.419 -10.6109 324.37 -14.5566C323.32 -18.5023 325.652 -22.5945 329.6 -23.641C333.548 -24.6875 337.644 -22.3563 338.693 -18.4106Z" fill="#0074FF"/>
    <path d="M282.647 34.7133L332.73 -15.2962L330.398 -17.6272L280.316 32.3823L282.647 34.7133Z" fill="#0074FF"/>
    <path d="M286.727 38.7807C283.846 41.6732 279.124 41.6779 276.237 38.7636C273.341 35.8832 273.334 31.1645 276.249 28.281C279.131 25.3885 283.853 25.3839 286.74 28.2981C289.636 31.1786 289.642 35.8972 286.761 38.7897L286.727 38.7807Z" fill="#0074FF"/>
    <path d="M212.619 16.7828L281.028 35.1128L281.881 31.9306L213.472 13.6006L212.619 16.7828Z" fill="#0074FF"/>
    <path d="M211.123 22.3685C207.159 21.3063 204.801 17.2278 205.863 13.267C206.924 9.30625 211.005 6.95271 214.969 8.0149C218.933 9.07712 221.29 13.1556 220.229 17.1164C219.168 21.0772 215.087 23.4308 211.123 22.3685Z" fill="#0074FF"/>
    <path d="M211.47 15.5973L214.654 14.7453L196.31 -53.6116L193.126 -52.7596L211.47 15.5973Z" fill="#0074FF"/>
    <path d="M187.561 -51.2504C186.512 -55.1961 188.844 -59.2883 192.792 -60.3349C196.74 -61.3814 200.836 -59.0501 201.885 -55.1044C202.934 -51.1587 200.603 -47.0665 196.655 -46.02C192.707 -44.9735 188.61 -47.3047 187.561 -51.2504Z" fill="#0074FF"/>
    <path d="M195.909 -51.9289L245.991 -101.938L243.66 -104.269L193.578 -54.2598L195.909 -51.9289Z" fill="#0074FF"/>
    <path d="M239.528 -108.442C242.409 -111.334 247.131 -111.339 250.018 -108.424C252.914 -105.544 252.921 -100.825 250.006 -97.9419C247.124 -95.0493 242.402 -95.0447 239.515 -97.959C236.619 -100.839 236.613 -105.558 239.528 -108.442Z" fill="#0074FF"/>
    <path d="M244.34 -101.601L312.749 -83.2707L313.601 -86.4529L245.193 -104.783L244.34 -101.601Z" fill="#0074FF"/>
    <path d="M315.098 -92.0386C311.131 -93.1016 307.054 -90.7502 305.992 -86.7865C304.93 -82.8229 307.285 -78.748 311.252 -77.685C315.219 -76.622 319.296 -78.9735 320.358 -82.9371C321.42 -86.9008 319.065 -90.9757 315.098 -92.0386Z" fill="#0074FF"/>
    <path d="M416.717 70.575L419.902 69.723L401.558 1.36607L398.373 2.21808L416.717 70.575Z" fill="#0074FF"/>
    <path d="M425.467 68.2638C426.516 72.2095 424.185 76.3017 420.237 77.3482C416.289 78.3947 412.192 76.0635 411.143 72.1177C410.094 68.172 412.425 64.0798 416.374 63.0333C420.322 61.9868 424.418 64.3181 425.467 68.2638Z" fill="#0074FF"/>
    <path d="M298.213 102.361L301.398 101.509L283.054 33.1518L279.869 34.0038L298.213 102.361Z" fill="#0074FF"/>
    <path d="M274.292 35.4487C273.243 31.503 275.574 27.4108 279.523 26.3642C283.471 25.3177 287.567 27.649 288.616 31.5947C289.665 35.5404 287.334 39.6326 283.352 40.67C279.404 41.7166 275.307 39.3853 274.258 35.4396L274.292 35.4487Z" fill="#0074FF"/>
    <path d="M282.647 34.7133L332.73 -15.2962L330.398 -17.6272L280.316 32.3823L282.647 34.7133Z" fill="#0074FF"/>
    <path d="M326.292 -21.7334C329.174 -24.626 333.896 -24.6306 336.783 -21.7163C339.67 -18.8021 339.685 -14.1173 336.77 -11.2338C333.889 -8.34123 329.167 -8.3366 326.28 -11.2509C323.384 -14.1313 323.377 -18.8499 326.292 -21.7334Z" fill="#0074FF"/>
    <path d="M331.105 -14.8925L399.514 3.43753L400.366 0.255381L331.958 -18.0746L331.105 -14.8925Z" fill="#0074FF"/>
    <path d="M401.863 -5.33038C397.896 -6.39336 393.819 -4.04192 392.757 -0.0782712C391.695 3.88538 394.05 7.96025 398.017 9.02323C401.984 10.0862 406.061 7.73477 407.123 3.77112C408.185 -0.192526 405.83 -4.26743 401.863 -5.33038Z" fill="#0074FF"/>
    <path d="M535.169 38.9338L538.353 38.0818L520.01 -30.2752L516.825 -29.4232L535.169 38.9338Z" fill="#0074FF"/>
    <path d="M543.919 36.5793C544.968 40.525 542.637 44.6172 538.688 45.6637C534.74 46.7102 530.644 44.379 529.595 40.4333C528.546 36.4876 530.877 32.3954 534.825 31.3489C538.773 30.3024 542.87 32.6336 543.919 36.5793Z" fill="#0074FF"/>
    <path d="M487.854 89.6815L537.936 39.672L535.605 37.3411L485.523 87.3505L487.854 89.6815Z" fill="#0074FF"/>
    <path d="M491.953 93.7706C489.071 96.6632 484.349 96.6678 481.462 93.7535C478.566 90.8731 478.56 86.1545 481.475 83.271C484.356 80.3784 489.078 80.3738 491.965 83.2881C494.852 86.2023 494.868 90.8871 491.953 93.7706Z" fill="#0074FF"/>
    <path d="M416.717 70.575L419.902 69.723L401.558 1.36607L398.373 2.21808L416.717 70.575Z" fill="#0074FF"/>
    <path d="M392.787 3.73941C391.738 -0.206307 394.069 -4.29846 398.017 -5.34497C401.966 -6.39148 406.062 -4.06025 407.111 -0.114572C408.16 3.83116 405.829 7.92336 401.88 8.96987C397.932 10.0164 393.836 7.68514 392.787 3.73941Z" fill="#0074FF"/>
    <path d="M401.049 2.89146L451.14 -47.1093L448.809 -49.4406L398.718 0.560112L401.049 2.89146Z" fill="#0074FF"/>
    <path d="M444.753 -53.4516C447.635 -56.3442 452.357 -56.3488 455.244 -53.4345C458.14 -50.5541 458.146 -45.8355 455.231 -42.952C452.35 -40.0594 447.628 -40.0548 444.741 -42.9691C441.845 -45.8495 441.838 -50.5681 444.753 -53.4516Z" fill="#0074FF"/>
    <path d="M449.566 -46.6107L517.974 -28.2807L518.827 -31.4629L450.418 -49.7929L449.566 -46.6107Z" fill="#0074FF"/>
    <path d="M520.324 -37.0486C524.288 -35.9864 526.645 -31.9079 525.584 -27.9471C524.522 -23.9864 520.442 -21.6328 516.478 -22.695C512.513 -23.7572 510.156 -27.8357 511.218 -31.7965C512.279 -35.7573 516.359 -38.1108 520.324 -37.0486Z" fill="#0074FF"/>
    <path d="M621.913 125.611L625.097 124.759L606.753 56.4025L603.569 57.2545L621.913 125.611Z" fill="#0074FF"/>
    <path d="M630.693 123.254C631.742 127.199 629.411 131.292 625.462 132.338C621.514 133.385 617.418 131.053 616.369 127.108C615.32 123.162 617.651 119.07 621.599 118.023C625.547 116.977 629.644 119.308 630.693 123.254Z" fill="#0074FF"/>
    <path d="M487.854 89.6815L537.936 39.672L535.605 37.3411L485.523 87.3505L487.854 89.6815Z" fill="#0074FF"/>
    <path d="M531.518 33.2566C534.399 30.364 539.122 30.3594 542.009 33.2737C544.905 36.1541 544.911 40.8727 541.996 43.7562C539.115 46.6488 534.392 46.6534 531.506 43.7391C528.61 40.8587 528.603 36.1401 531.518 33.2566Z" fill="#0074FF"/>
    <path d="M536.331 40.0975L604.739 58.4274L605.592 55.2453L537.183 36.9153L536.331 40.0975Z" fill="#0074FF"/>
    <path d="M607.089 49.6596C603.121 48.5966 599.044 50.948 597.982 54.9117C596.92 58.8753 599.275 62.9502 603.242 64.0132C607.21 65.0762 611.287 62.7247 612.349 58.7611C613.411 54.7974 611.056 50.7225 607.089 49.6596Z" fill="#0074FF"/>
    <path d="M740.374 93.9363L743.558 93.0842L725.214 24.7273L722.03 25.5793L740.374 93.9363Z" fill="#0074FF"/>
    <path d="M749.144 91.5693C750.193 95.515 747.862 99.6072 743.914 100.654C739.966 101.7 735.869 99.369 734.82 95.4233C733.771 91.4776 736.103 87.3854 740.051 86.3389C743.999 85.2924 748.095 87.6236 749.144 91.5693Z" fill="#0074FF"/>
    <path d="M693.07 144.616L743.153 94.6066L740.822 92.2756L690.739 142.285L693.07 144.616Z" fill="#0074FF"/>
    <path d="M697.178 148.761C694.297 151.653 689.575 151.658 686.688 148.743C683.792 145.863 683.785 141.144 686.7 138.261C689.582 135.368 694.304 135.364 697.191 138.278C700.087 141.158 700.093 145.877 697.212 148.77L697.178 148.761Z" fill="#0074FF"/>
    <path d="M621.913 125.611L625.097 124.759L606.753 56.4025L603.569 57.2545L621.913 125.611Z" fill="#0074FF"/>
    <path d="M598.012 58.7295C596.963 54.7838 599.295 50.6916 603.243 49.6451C607.191 48.5986 611.287 50.9298 612.336 54.8755C613.386 58.8213 611.054 62.9135 607.106 63.96C603.158 65.0065 599.062 62.6752 598.012 58.7295Z" fill="#0074FF"/>
    <path d="M606.273 57.92L656.364 7.91924L654.034 5.58788L603.943 55.5886L606.273 57.92Z" fill="#0074FF"/>
    <path d="M649.979 1.53832C652.86 -1.35422 657.582 -1.35881 660.469 1.55547C663.365 4.43588 663.372 9.15449 660.457 12.038C657.575 14.9306 652.853 14.9352 649.966 12.0209C647.07 9.14048 647.063 4.42182 649.979 1.53832Z" fill="#0074FF"/>
    <path d="M654.825 8.38832L723.234 26.7183L724.086 23.5362L655.678 5.20617L654.825 8.38832Z" fill="#0074FF"/>
    <path d="M725.583 17.9504C721.616 16.8874 717.539 19.2389 716.477 23.2025C715.415 27.1661 717.77 31.241 721.737 32.304C725.704 33.367 729.781 31.0155 730.843 27.0519C731.905 23.0883 729.55 19.0134 725.583 17.9504Z" fill="#0074FF"/>
    <path d="M827.16 180.589L830.345 179.737L812.001 111.38L808.816 112.232L827.16 180.589Z" fill="#0074FF"/>
    <path d="M835.918 178.244C836.967 182.189 834.636 186.282 830.688 187.328C826.74 188.375 822.643 186.043 821.594 182.098C820.545 178.152 822.877 174.06 826.825 173.013C830.773 171.967 834.869 174.298 835.918 178.244Z" fill="#0074FF"/>
    <path d="M693.07 144.616L743.153 94.6066L740.822 92.2756L690.739 142.285L693.07 144.616Z" fill="#0074FF"/>
    <path d="M736.744 88.2465C739.625 85.354 744.347 85.3494 747.234 88.2637C750.121 91.1779 750.137 95.8627 747.221 98.7462C744.34 101.639 739.618 101.643 736.731 98.7291C733.835 95.8487 733.828 91.13 736.744 88.2465Z" fill="#0074FF"/>
    <path d="M741.556 95.0874L809.965 113.417L810.817 110.235L742.409 91.9053L741.556 95.0874Z" fill="#0074FF"/>
    <path d="M812.314 104.65C808.347 103.587 804.27 105.938 803.208 109.902C802.146 113.865 804.501 117.94 808.468 119.003C812.435 120.066 816.512 117.715 817.574 113.751C818.636 109.787 816.281 105.713 812.314 104.65Z" fill="#0074FF"/>
    <path d="M827.16 180.589L830.345 179.737L812.001 111.38L808.816 112.232L827.16 180.589Z" fill="#0074FF"/>
    <path d="M803.238 113.72C802.189 109.774 804.52 105.682 808.469 104.635C812.417 103.589 816.513 105.92 817.562 109.866C818.611 113.811 816.28 117.903 812.332 118.95C808.383 119.996 804.287 117.665 803.238 113.72Z" fill="#0074FF"/>
    <path d="M811.555 113.019L861.637 63.0098L859.306 60.6789L809.224 110.688L811.555 113.019Z" fill="#0074FF"/>
    <path d="M855.204 56.5283C858.086 53.6358 862.808 53.6312 865.695 56.5455C868.591 59.4259 868.597 64.1445 865.682 67.028C862.801 69.9206 858.079 69.9252 855.192 67.0109C852.296 64.1305 852.289 59.4118 855.204 56.5283Z" fill="#0074FF"/>
    <path d="M860.051 63.3783L928.459 81.7083L929.312 78.5262L860.904 60.1962L860.051 63.3783Z" fill="#0074FF"/>
    <path d="M930.809 72.9404C934.773 74.0026 937.13 78.0811 936.069 82.0419C935.007 86.0027 930.927 88.3562 926.963 87.294C922.998 86.2318 920.641 82.1533 921.703 78.1925C922.764 74.2317 926.844 71.8782 930.809 72.9404Z" fill="#0074FF"/>
    <path d="M1150.83 203.916L1154.01 203.064L1135.67 134.708L1132.48 135.56L1150.83 203.916Z" fill="#0074FF"/>
    <path d="M1159.63 201.558C1160.68 205.504 1158.35 209.596 1154.4 210.643C1150.45 211.689 1146.35 209.358 1145.31 205.412C1144.26 201.467 1146.59 197.374 1150.54 196.328C1154.48 195.281 1158.58 197.613 1159.63 201.558Z" fill="#0074FF"/>
    <path d="M1065.28 118.368L1133.68 136.698L1134.54 133.516L1066.13 115.186L1065.28 118.368Z" fill="#0074FF"/>
    <path d="M1136.03 127.93C1132.07 126.867 1127.99 129.219 1126.93 133.182C1125.87 137.146 1128.22 141.221 1132.19 142.284C1136.16 143.347 1140.23 140.995 1141.29 137.032C1142.36 133.068 1140 128.993 1136.03 127.93Z" fill="#0074FF"/>
    <path d="M243.212 -102.798L246.396 -103.65L228.053 -172.007L224.868 -171.155L243.212 -102.798Z" fill="#0074FF"/>
    <path d="M251.962 -105.11C253.011 -101.164 250.68 -97.0718 246.732 -96.0253C242.784 -94.9788 238.687 -97.3101 237.638 -101.256C236.589 -105.201 238.921 -109.294 242.869 -110.34C246.817 -111.387 250.913 -109.055 251.962 -105.11Z" fill="#0074FF"/>
    <path d="M195.909 -51.9289L245.991 -101.938L243.66 -104.269L193.578 -54.2598L195.909 -51.9289Z" fill="#0074FF"/>
    <path d="M199.962 -47.9277C197.081 -45.0351 192.359 -45.0305 189.472 -47.9448C186.576 -50.8252 186.569 -55.5438 189.484 -58.4273C192.366 -61.3199 197.088 -61.3246 199.975 -58.4103C202.871 -55.5299 202.877 -50.8112 199.962 -47.9277Z" fill="#0074FF"/>
    <path d="M125.879 -69.8825L194.288 -51.5525L195.141 -54.7347L126.732 -73.0647L125.879 -69.8825Z" fill="#0074FF"/>
    <path d="M124.392 -64.3306C120.427 -65.3928 118.07 -69.4713 119.132 -73.4321C120.193 -77.3929 124.274 -79.7464 128.238 -78.6842C132.202 -77.622 134.559 -73.5435 133.498 -69.5827C132.437 -65.6219 128.356 -63.2684 124.392 -64.3306Z" fill="#0074FF"/>
    <path d="M124.717 -71.0465L127.901 -71.8985L109.558 -140.255L106.373 -139.403L124.717 -71.0465Z" fill="#0074FF"/>
    <path d="M100.788 -137.925C99.7384 -141.871 102.07 -145.963 106.018 -147.009C109.966 -148.056 114.062 -145.725 115.111 -141.779C116.16 -137.833 113.829 -133.741 109.881 -132.694C105.933 -131.648 101.836 -133.979 100.788 -137.925Z" fill="#0074FF"/>
    <path d="M361.655 -134.406L364.839 -135.258L346.495 -203.615L343.311 -202.763L361.655 -134.406Z" fill="#0074FF"/>
    <path d="M370.414 -136.794C371.463 -132.848 369.132 -128.756 365.184 -127.71C361.235 -126.663 357.139 -128.994 356.09 -132.94C355.041 -136.886 357.372 -140.978 361.321 -142.025C365.269 -143.071 369.365 -140.74 370.414 -136.794Z" fill="#0074FF"/>
    <path d="M314.377 -83.6881L364.459 -133.698L362.128 -136.029L312.046 -86.0191L314.377 -83.6881Z" fill="#0074FF"/>
    <path d="M318.448 -79.6029C315.566 -76.7103 310.844 -76.7057 307.957 -79.62C305.061 -82.5004 305.055 -87.2191 307.97 -90.1026C310.851 -92.9951 315.573 -92.9997 318.46 -90.0854C321.356 -87.205 321.363 -82.4864 318.482 -79.5938L318.448 -79.6029Z" fill="#0074FF"/>
    <path d="M244.34 -101.601L312.749 -83.2707L313.601 -86.4529L245.193 -104.783L244.34 -101.601Z" fill="#0074FF"/>
    <path d="M242.843 -96.015C238.879 -97.0772 236.522 -101.156 237.584 -105.116C238.645 -109.077 242.725 -111.431 246.689 -110.369C250.654 -109.306 253.011 -105.228 251.95 -101.267C250.888 -97.3063 246.808 -94.9528 242.843 -96.015Z" fill="#0074FF"/>
    <path d="M243.212 -102.798L246.396 -103.65L228.053 -172.007L224.868 -171.155L243.212 -102.798Z" fill="#0074FF"/>
    <path d="M219.282 -169.634C218.233 -173.58 220.564 -177.672 224.513 -178.718C228.461 -179.765 232.557 -177.434 233.606 -173.488C234.655 -169.542 232.324 -165.45 228.376 -164.404C224.427 -163.357 220.331 -165.688 219.282 -169.634Z" fill="#0074FF"/>
    <path d="M276.061 -219.984L344.469 -201.654L345.322 -204.836L276.913 -223.166L276.061 -219.984Z" fill="#0074FF"/>
    <path d="M346.819 -210.422C342.852 -211.485 338.775 -209.134 337.713 -205.17C336.651 -201.206 339.006 -197.131 342.973 -196.069C346.94 -195.006 351.017 -197.357 352.079 -201.321C353.141 -205.284 350.786 -209.359 346.819 -210.422Z" fill="#0074FF"/>
    <path d="M448.416 -47.7958L451.601 -48.6478L433.257 -117.005L430.072 -116.153L448.416 -47.7958Z" fill="#0074FF"/>
    <path d="M457.188 -50.1198C458.237 -46.1741 455.906 -42.0819 451.958 -41.0354C448.009 -39.9888 443.913 -42.3201 442.864 -46.2658C441.815 -50.2115 444.146 -54.3037 448.094 -55.3502C452.043 -56.3967 456.139 -54.0655 457.188 -50.1198Z" fill="#0074FF"/>
    <path d="M401.049 2.89146L451.14 -47.1093L448.809 -49.4406L398.718 0.560112L401.049 2.89146Z" fill="#0074FF"/>
    <path d="M405.188 7.06227C402.307 9.95485 397.584 9.95953 394.698 7.04525C391.801 4.16483 391.795 -0.553821 394.71 -3.43731C397.591 -6.32991 402.313 -6.33456 405.2 -3.42028C408.096 -0.539856 408.103 4.17876 405.188 7.06227Z" fill="#0074FF"/>
    <path d="M331.105 -14.8925L399.514 3.43753L400.366 0.255381L331.958 -18.0746L331.105 -14.8925Z" fill="#0074FF"/>
    <path d="M333.455 -23.6604C329.487 -24.7234 325.41 -22.3719 324.348 -18.4083C323.286 -14.4446 325.641 -10.3698 329.608 -9.30678C333.575 -8.24382 337.652 -10.5952 338.715 -14.5589C339.777 -18.5225 337.422 -22.5974 333.455 -23.6604Z" fill="#0074FF"/>
    <path d="M329.946 -16.0011L333.131 -16.8531L314.787 -85.21L311.603 -84.358L329.946 -16.0011Z" fill="#0074FF"/>
    <path d="M306.013 -82.9349C304.964 -86.8806 307.295 -90.9727 311.243 -92.0193C315.192 -93.0658 319.288 -90.7346 320.337 -86.7889C321.386 -82.8431 319.055 -78.751 315.073 -77.7135C311.124 -76.667 307.028 -78.9982 305.979 -82.9439L306.013 -82.9349Z" fill="#0074FF"/>
    <path d="M314.377 -83.6881L364.459 -133.698L362.128 -136.029L312.046 -86.0191L314.377 -83.6881Z" fill="#0074FF"/>
    <path d="M358.013 -140.117C360.894 -143.01 365.617 -143.014 368.504 -140.1C371.4 -137.219 371.406 -132.501 368.491 -129.617C365.61 -126.725 360.888 -126.72 358.001 -129.634C355.105 -132.515 355.098 -137.233 358.013 -140.117Z" fill="#0074FF"/>
    <path d="M362.826 -133.276L431.234 -114.946L432.087 -118.128L363.679 -136.458L362.826 -133.276Z" fill="#0074FF"/>
    <path d="M433.584 -123.714C429.617 -124.777 425.54 -122.425 424.478 -118.462C423.416 -114.498 425.771 -110.423 429.738 -109.36C433.705 -108.297 437.782 -110.649 438.844 -114.612C439.906 -118.576 437.551 -122.651 433.584 -123.714Z" fill="#0074FF"/>
    <path d="M566.877 -79.4709L570.062 -80.3229L551.718 -148.68L548.533 -147.828L566.877 -79.4709Z" fill="#0074FF"/>
    <path d="M575.639 -81.8041C576.688 -77.8584 574.357 -73.7662 570.409 -72.7197C566.461 -71.6732 562.365 -74.0044 561.316 -77.9501C560.267 -81.8958 562.598 -85.988 566.546 -87.0346C570.494 -88.0811 574.59 -85.7499 575.639 -81.8041Z" fill="#0074FF"/>
    <path d="M519.575 -28.686L569.657 -78.6955L567.326 -81.0265L517.244 -31.017L519.575 -28.686Z" fill="#0074FF"/>
    <path d="M523.673 -24.613C520.792 -21.7204 516.07 -21.7158 513.183 -24.63C510.296 -27.5443 510.28 -32.2291 513.195 -35.1126C516.077 -38.0052 520.799 -38.0097 523.686 -35.0955C526.582 -32.2151 526.589 -27.4964 523.673 -24.613Z" fill="#0074FF"/>
    <path d="M449.566 -46.6107L517.974 -28.2807L518.827 -31.4629L450.418 -49.7929L449.566 -46.6107Z" fill="#0074FF"/>
    <path d="M451.915 -55.3787C447.948 -56.4416 443.871 -54.0902 442.809 -50.1266C441.747 -46.163 444.102 -42.088 448.069 -41.0251C452.036 -39.9621 456.113 -42.3136 457.175 -46.2772C458.237 -50.2408 455.882 -54.3157 451.915 -55.3787Z" fill="#0074FF"/>
    <path d="M448.416 -47.7958L451.601 -48.6478L433.257 -117.005L430.072 -116.153L448.416 -47.7958Z" fill="#0074FF"/>
    <path d="M424.508 -114.644C423.458 -118.59 425.79 -122.682 429.738 -123.728C433.686 -124.775 437.782 -122.444 438.832 -118.498C439.88 -114.552 437.549 -110.46 433.601 -109.414C429.653 -108.367 425.557 -110.698 424.508 -114.644Z" fill="#0074FF"/>
    <path d="M432.812 -115.371L482.894 -165.38L480.563 -167.711L430.481 -117.702L432.812 -115.371Z" fill="#0074FF"/>
    <path d="M476.474 -171.835C479.355 -174.728 484.077 -174.732 486.964 -171.818C489.86 -168.938 489.867 -164.219 486.952 -161.336C484.07 -158.443 479.348 -158.438 476.461 -161.353C473.565 -164.233 473.559 -168.952 476.474 -171.835Z" fill="#0074FF"/>
    <path d="M481.286 -164.994L549.695 -146.664L550.548 -149.846L482.139 -168.177L481.286 -164.994Z" fill="#0074FF"/>
    <path d="M552.044 -155.432C556.008 -154.37 558.365 -150.291 557.304 -146.331C556.243 -142.37 552.162 -140.016 548.198 -141.079C544.234 -142.141 541.877 -146.219 542.938 -150.18C543.999 -154.141 548.08 -156.494 552.044 -155.432Z" fill="#0074FF"/>
    <path d="M653.646 7.24959L656.83 6.39756L638.486 -61.9594L635.302 -61.1074L653.646 7.24959Z" fill="#0074FF"/>
    <path d="M662.414 4.8702C663.463 8.8159 661.131 12.9081 657.183 13.9546C653.235 15.0012 649.139 12.6699 648.09 8.72419C647.041 4.77849 649.372 0.686292 653.32 -0.360234C657.268 -1.40673 661.365 0.924488 662.414 4.8702Z" fill="#0074FF"/>
    <path d="M606.273 57.92L656.364 7.91924L654.034 5.58788L603.943 55.5886L606.273 57.92Z" fill="#0074FF"/>
    <path d="M610.413 62.0524C607.532 64.945 602.81 64.9496 599.923 62.0353C597.027 59.1549 597.02 54.4363 599.935 51.5528C602.817 48.6602 607.539 48.6556 610.426 51.5699C613.322 54.4503 613.329 59.1689 610.413 62.0524Z" fill="#0074FF"/>
    <path d="M536.331 40.0975L604.739 58.4274L605.592 55.2453L537.183 36.9153L536.331 40.0975Z" fill="#0074FF"/>
    <path d="M534.843 45.6494C530.879 44.5872 528.522 40.5087 529.583 36.5479C530.644 32.5871 534.725 30.2336 538.689 31.2958C542.653 32.358 545.01 36.4365 543.949 40.3973C542.888 44.3581 538.807 46.7116 534.843 45.6494Z" fill="#0074FF"/>
    <path d="M535.169 38.9338L538.353 38.0818L520.01 -30.2752L516.825 -29.4232L535.169 38.9338Z" fill="#0074FF"/>
    <path d="M511.239 -27.9449C510.19 -31.8906 512.521 -35.9827 516.469 -37.0293C520.417 -38.0758 524.514 -35.7446 525.563 -31.7988C526.612 -27.8531 524.28 -23.761 520.332 -22.7144C516.384 -21.6679 512.288 -23.9992 511.239 -27.9449Z" fill="#0074FF"/>
    <path d="M519.575 -28.686L569.657 -78.6955L567.326 -81.0265L517.244 -31.017L519.575 -28.686Z" fill="#0074FF"/>
    <path d="M563.239 -85.127C566.12 -88.0195 570.842 -88.0241 573.729 -85.1098C576.625 -82.2294 576.632 -77.5108 573.717 -74.6273C570.835 -71.7347 566.113 -71.7301 563.226 -74.6444C560.33 -77.5248 560.324 -82.2435 563.239 -85.127Z" fill="#0074FF"/>
    <path d="M568.051 -78.286L636.46 -59.956L637.312 -63.1382L568.904 -81.4682L568.051 -78.286Z" fill="#0074FF"/>
    <path d="M638.809 -68.7239C634.842 -69.7869 630.765 -67.4354 629.703 -63.4718C628.641 -59.5081 630.996 -55.4332 634.963 -54.3703C638.93 -53.3073 643.007 -55.6587 644.069 -59.6224C645.131 -63.586 642.776 -67.6609 638.809 -68.7239Z" fill="#0074FF"/>
    <path d="M772.125 -24.493L775.309 -25.3451L756.966 -93.702L753.781 -92.85L772.125 -24.493Z" fill="#0074FF"/>
    <path d="M780.865 -26.8141C781.914 -22.8684 779.583 -18.7762 775.635 -17.7297C771.687 -16.6831 767.59 -19.0144 766.541 -22.9601C765.492 -26.9059 767.823 -30.9981 771.772 -32.0446C775.72 -33.0911 779.816 -30.7598 780.865 -26.8141Z" fill="#0074FF"/>
    <path d="M724.791 26.2486L774.873 -23.7609L772.542 -26.0919L722.46 23.9176L724.791 26.2486Z" fill="#0074FF"/>
    <path d="M728.899 30.3771C726.018 33.2696 721.295 33.2742 718.409 30.36C715.513 27.4795 715.506 22.7609 718.421 19.8774C721.302 16.9849 726.025 16.9802 728.911 19.8945C731.807 22.7749 731.814 27.4936 728.933 30.3861L728.899 30.3771Z" fill="#0074FF"/>
    <path d="M654.825 8.38832L723.234 26.7183L724.086 23.5362L655.678 5.20617L654.825 8.38832Z" fill="#0074FF"/>
    <path d="M653.329 13.974C649.364 12.9118 647.007 8.83331 648.068 4.87252C649.13 0.911734 653.21 -1.44178 657.175 -0.379559C661.139 0.682651 663.496 4.76114 662.435 8.72193C661.373 12.6827 657.293 15.0363 653.329 13.974Z" fill="#0074FF"/>
    <path d="M653.646 7.24959L656.83 6.39756L638.486 -61.9594L635.302 -61.1074L653.646 7.24959Z" fill="#0074FF"/>
    <path d="M629.733 -59.654C628.684 -63.5997 631.015 -67.6919 634.964 -68.7384C638.912 -69.7849 643.008 -67.4537 644.057 -63.508C645.106 -59.5623 642.775 -55.4701 638.827 -54.4236C634.879 -53.377 630.782 -55.7083 629.733 -59.654Z" fill="#0074FF"/>
    <path d="M638.053 -60.3933L688.135 -110.403L685.804 -112.734L635.721 -62.7243L638.053 -60.3933Z" fill="#0074FF"/>
    <path d="M681.699 -116.845C684.581 -119.738 689.303 -119.742 692.19 -116.828C695.086 -113.948 695.093 -109.229 692.177 -106.346C689.296 -103.453 684.574 -103.448 681.687 -106.363C678.791 -109.243 678.784 -113.962 681.699 -116.845Z" fill="#0074FF"/>
    <path d="M686.546 -109.995L754.954 -91.6652L755.807 -94.8474L687.399 -113.177L686.546 -109.995Z" fill="#0074FF"/>
    <path d="M757.304 -100.433C753.337 -101.496 749.26 -99.1446 748.198 -95.181C747.136 -91.2174 749.491 -87.1425 753.458 -86.0795C757.425 -85.0165 761.502 -87.368 762.564 -91.3316C763.626 -95.2952 761.271 -99.3702 757.304 -100.433Z" fill="#0074FF"/>
    <path d="M858.869 62.1845L862.053 61.3324L843.709 -7.0245L840.525 -6.17249L858.869 62.1845Z" fill="#0074FF"/>
    <path d="M867.639 59.8602C868.688 63.8059 866.357 67.8981 862.409 68.9446C858.46 69.9911 854.364 67.6599 853.315 63.7142C852.266 59.7685 854.597 55.6763 858.546 54.6298C862.494 53.5833 866.59 55.9145 867.639 59.8602Z" fill="#0074FF"/>
    <path d="M811.555 113.019L861.637 63.0098L859.306 60.6789L809.224 110.688L811.555 113.019Z" fill="#0074FF"/>
    <path d="M815.639 117.042C812.758 119.935 808.036 119.94 805.149 117.025C802.253 114.145 802.246 109.426 805.161 106.543C808.043 103.65 812.765 103.645 815.652 106.56C818.548 109.44 818.554 114.159 815.639 117.042Z" fill="#0074FF"/>
    <path d="M741.556 95.0874L809.965 113.417L810.817 110.235L742.409 91.9053L741.556 95.0874Z" fill="#0074FF"/>
    <path d="M743.906 86.3195C739.938 85.2566 735.862 87.608 734.799 91.5717C733.737 95.5353 736.092 99.6102 740.059 100.673C744.027 101.736 748.104 99.3847 749.166 95.4211C750.228 91.4574 747.873 87.3825 743.906 86.3195Z" fill="#0074FF"/>
    <path d="M740.374 93.9363L743.558 93.0842L725.214 24.7273L722.03 25.5793L740.374 93.9363Z" fill="#0074FF"/>
    <path d="M716.464 27.0451C715.415 23.0994 717.746 19.0072 721.695 17.9607C725.643 16.9142 729.739 19.2454 730.788 23.1912C731.837 27.1369 729.506 31.229 725.524 32.2665C721.576 33.313 717.479 30.9818 716.43 27.0361L716.464 27.0451Z" fill="#0074FF"/>
    <path d="M724.791 26.2486L774.873 -23.7609L772.542 -26.0919L722.46 23.9176L724.791 26.2486Z" fill="#0074FF"/>
    <path d="M768.464 -30.137C771.346 -33.0296 776.068 -33.0341 778.955 -30.1199C781.851 -27.2395 781.858 -22.5208 778.942 -19.6373C776.061 -16.7447 771.339 -16.7401 768.452 -19.6544C765.556 -22.5348 765.549 -27.2535 768.464 -30.137Z" fill="#0074FF"/>
    <path d="M773.277 -23.2961L841.685 -4.96609L842.538 -8.14826L774.13 -26.4783L773.277 -23.2961Z" fill="#0074FF"/>
    <path d="M844.035 -13.734C840.068 -14.797 835.991 -12.4455 834.929 -8.48189C833.867 -4.51825 836.222 -0.443366 840.189 0.619618C844.156 1.68259 848.233 -0.668861 849.295 -4.63249C850.357 -8.59613 848.002 -12.671 844.035 -13.734Z" fill="#0074FF"/>
    <path d="M977.33 30.5094L980.514 29.6573L962.17 -38.6996L958.986 -37.8475L977.33 30.5094Z" fill="#0074FF"/>
    <path d="M986.091 28.1758C987.14 32.1216 984.809 36.2138 980.86 37.2603C976.912 38.3068 972.816 35.9755 971.767 32.0298C970.718 28.0841 973.049 23.9919 976.997 22.9454C980.945 21.8989 985.042 24.2301 986.091 28.1758Z" fill="#0074FF"/>
    <path d="M930.048 81.3028L980.13 31.2933L977.799 28.9624L927.717 78.9718L930.048 81.3028Z" fill="#0074FF"/>
    <path d="M934.125 85.367C931.243 88.2596 926.521 88.2642 923.634 85.35C920.747 82.4357 920.731 77.7509 923.647 74.8674C926.528 71.9748 931.25 71.9702 934.137 74.8845C937.033 77.7649 937.04 82.4835 934.125 85.367Z" fill="#0074FF"/>
    <path d="M860.051 63.3783L928.459 81.7083L929.312 78.5262L860.904 60.1962L860.051 63.3783Z" fill="#0074FF"/>
    <path d="M862.4 54.6104C858.433 53.5474 854.356 55.8989 853.294 59.8625C852.232 63.8261 854.587 67.901 858.554 68.964C862.521 70.027 866.598 67.6755 867.66 63.7119C868.722 59.7483 866.367 55.6734 862.4 54.6104Z" fill="#0074FF"/>
    <path d="M858.869 62.1845L862.053 61.3324L843.709 -7.0245L840.525 -6.17249L858.869 62.1845Z" fill="#0074FF"/>
    <path d="M834.959 -4.66401C833.91 -8.6097 836.241 -12.7019 840.189 -13.7484C844.138 -14.7949 848.234 -12.4637 849.283 -8.51794C850.332 -4.57226 848.001 -0.48006 844.052 0.566437C840.104 1.61296 836.008 -0.718299 834.959 -4.66401Z" fill="#0074FF"/>
    <path d="M843.235 -5.4679L893.317 -55.4774L890.986 -57.8084L840.904 -7.79886L843.235 -5.4679Z" fill="#0074FF"/>
    <path d="M886.925 -61.8552C889.806 -64.7478 894.529 -64.7524 897.416 -61.8381C900.312 -58.9577 900.318 -54.2391 897.403 -51.3556C894.522 -48.463 889.799 -48.4584 886.912 -51.3727C884.016 -54.2531 884.01 -58.9717 886.925 -61.8552Z" fill="#0074FF"/>
    <path d="M891.772 -55.0052L960.18 -36.6752L961.033 -39.8574L892.624 -58.1874L891.772 -55.0052Z" fill="#0074FF"/>
    <path d="M962.529 -45.4432C966.494 -44.381 968.851 -40.3024 967.789 -36.3416C966.728 -32.3808 962.648 -30.0273 958.683 -31.0895C954.719 -32.1517 952.362 -36.2302 953.423 -40.191C954.485 -44.1518 958.565 -46.5054 962.529 -45.4432Z" fill="#0074FF"/>
    <path d="M1064.11 117.196L1067.29 116.344L1048.95 47.9871L1045.76 48.8391L1064.11 117.196Z" fill="#0074FF"/>
    <path d="M1072.86 114.85C1073.91 118.796 1071.58 122.888 1067.63 123.935C1063.69 124.981 1059.59 122.65 1058.54 118.704C1057.49 114.758 1059.82 110.666 1063.77 109.62C1067.72 108.573 1071.82 110.904 1072.86 114.85Z" fill="#0074FF"/>
    <path d="M930.048 81.3028L980.13 31.2933L977.799 28.9624L927.717 78.9718L930.048 81.3028Z" fill="#0074FF"/>
    <path d="M973.69 24.853C976.571 21.9604 981.293 21.9558 984.18 24.8701C987.076 27.7505 987.083 32.4691 984.168 35.3526C981.286 38.2452 976.564 38.2498 973.677 35.3355C970.781 32.4551 970.775 27.7364 973.69 24.853Z" fill="#0074FF"/>
    <path d="M978.502 31.6939L1046.91 50.0239L1047.76 46.8417L979.355 28.5117L978.502 31.6939Z" fill="#0074FF"/>
    <path d="M1049.26 41.256C1045.29 40.193 1041.22 42.5444 1040.15 46.5081C1039.09 50.4717 1041.45 54.5466 1045.41 55.6096C1049.38 56.6726 1053.46 54.3211 1054.52 50.3575C1055.58 46.3938 1053.23 42.3189 1049.26 41.256Z" fill="#0074FF"/>
    <path d="M1182.57 85.5209L1185.75 84.6689L1167.41 16.312L1164.22 17.164L1182.57 85.5209Z" fill="#0074FF"/>
    <path d="M1191.35 83.1749C1192.4 87.1206 1190.07 91.2128 1186.12 92.2593C1182.17 93.3058 1178.08 90.9746 1177.03 87.0289C1175.98 83.0832 1178.31 78.991 1182.26 77.9444C1186.2 76.8979 1190.3 79.2292 1191.35 83.1749Z" fill="#0074FF"/>
    <path d="M1135.25 136.271L1185.34 86.2617L1183.01 83.9308L1132.92 133.94L1135.25 136.271Z" fill="#0074FF"/>
    <path d="M1139.35 140.357C1136.47 143.25 1131.75 143.254 1128.86 140.34C1125.96 137.46 1125.96 132.741 1128.87 129.857C1131.75 126.965 1136.48 126.96 1139.36 129.875C1142.26 132.755 1142.27 137.474 1139.35 140.357Z" fill="#0074FF"/>
    <path d="M1065.28 118.368L1133.68 136.698L1134.54 133.516L1066.13 115.186L1065.28 118.368Z" fill="#0074FF"/>
    <path d="M1067.63 109.6C1063.66 108.537 1059.58 110.889 1058.52 114.852C1057.46 118.816 1059.81 122.891 1063.78 123.954C1067.75 125.017 1071.82 122.665 1072.89 118.702C1073.95 114.738 1071.59 110.663 1067.63 109.6Z" fill="#0074FF"/>
    <path d="M1064.11 117.196L1067.29 116.344L1048.95 47.9871L1045.76 48.8391L1064.11 117.196Z" fill="#0074FF"/>
    <path d="M1040.18 50.3259C1039.14 46.3802 1041.47 42.288 1045.41 41.2415C1049.36 40.195 1053.46 42.5263 1054.51 46.472C1055.56 50.4177 1053.23 54.5099 1049.28 55.5564C1045.33 56.6029 1041.23 54.2716 1040.18 50.3259Z" fill="#0074FF"/>
    <path d="M1048.49 49.5864L1098.57 -0.423031L1096.24 -2.75402L1046.16 47.2554L1048.49 49.5864Z" fill="#0074FF"/>
    <path d="M1092.15 -6.86525C1095.03 -9.75779 1099.75 -9.76244 1102.64 -6.84817C1105.53 -3.93389 1105.54 0.750887 1102.63 3.63439C1099.75 6.52698 1095.02 6.53156 1092.14 3.61729C1089.24 0.736884 1089.24 -3.98174 1092.15 -6.86525Z" fill="#0074FF"/>
    <path d="M1097 -0.0152544L1165.41 18.3147L1166.26 15.1326L1097.85 -3.19743L1097 -0.0152544Z" fill="#0074FF"/>
    <path d="M1167.75 9.5468C1163.79 8.48382 1159.71 10.8353 1158.65 14.799C1157.59 18.7626 1159.94 22.8375 1163.91 23.9004C1167.88 24.9634 1171.95 22.612 1173.01 18.6483C1174.08 14.6847 1171.72 10.6098 1167.75 9.5468Z" fill="#0074FF"/>
    <path d="M1269.32 172.165L1272.51 171.313L1254.16 102.956L1250.98 103.808L1269.32 172.165Z" fill="#0074FF"/>
    <path d="M1278.09 169.84C1279.14 173.786 1276.81 177.878 1272.86 178.925C1268.91 179.971 1264.82 177.64 1263.77 173.694C1262.72 169.748 1265.05 165.656 1269 164.61C1272.94 163.563 1277.04 165.894 1278.09 169.84Z" fill="#0074FF"/>
    <path d="M1150.83 203.916L1154.01 203.064L1135.67 134.708L1132.48 135.56L1150.83 203.916Z" fill="#0074FF"/>
    <path d="M1126.92 137.025C1125.87 133.079 1128.2 128.987 1132.15 127.941C1136.09 126.894 1140.19 129.225 1141.24 133.171C1142.29 137.117 1139.96 141.209 1136.01 142.256C1132.06 143.302 1127.96 140.971 1126.92 137.025Z" fill="#0074FF"/>
    <path d="M1135.25 136.271L1185.34 86.2617L1183.01 83.9308L1132.92 133.94L1135.25 136.271Z" fill="#0074FF"/>
    <path d="M1178.92 79.8429C1181.8 76.9504 1186.52 76.9458 1189.41 79.86C1192.3 82.7404 1192.31 87.4591 1189.39 90.3426C1186.51 93.2352 1181.79 93.2398 1178.9 90.3255C1176.01 87.4451 1176 82.7264 1178.92 79.8429Z" fill="#0074FF"/>
    <path d="M1183.73 86.6838L1252.14 105.014L1252.99 101.832L1184.58 83.5017L1183.73 86.6838Z" fill="#0074FF"/>
    <path d="M1254.49 96.2459C1250.52 95.1829 1246.44 97.5344 1245.38 101.498C1244.32 105.462 1246.67 109.537 1250.64 110.6C1254.61 111.663 1258.68 109.311 1259.75 105.347C1260.81 101.384 1258.45 97.3089 1254.49 96.2459Z" fill="#0074FF"/>
    <path d="M1269.32 172.165L1272.51 171.313L1254.16 102.956L1250.98 103.808L1269.32 172.165Z" fill="#0074FF"/>
    <path d="M1245.41 105.316C1244.36 101.37 1246.69 97.278 1250.64 96.2315C1254.59 95.185 1258.68 97.5162 1259.73 101.462C1260.78 105.408 1258.45 109.5 1254.5 110.546C1250.56 111.593 1246.46 109.262 1245.41 105.316Z" fill="#0074FF"/>
    <path d="M1253.72 104.598L1303.81 54.5881L1301.47 52.2571L1251.39 102.267L1253.72 104.598Z" fill="#0074FF"/>
    <path d="M1297.38 48.1247C1300.26 45.2322 1304.98 45.2275 1307.87 48.1418C1310.76 51.0222 1310.77 55.7409 1307.85 58.6244C1304.97 61.517 1300.25 61.5215 1297.36 58.6073C1294.47 55.7269 1294.46 51.0082 1297.38 48.1247Z" fill="#0074FF"/>
    <path d="M1302.22 54.9747L1370.63 73.3047L1371.48 70.1225L1303.08 51.7925L1302.22 54.9747Z" fill="#0074FF"/>
    <path d="M1372.98 64.5368C1376.94 65.599 1379.3 69.6776 1378.24 73.6383C1377.18 77.5991 1373.1 79.9526 1369.13 78.8904C1365.17 77.8282 1362.81 73.7497 1363.87 69.7889C1364.94 65.8282 1369.02 63.4746 1372.98 64.5368Z" fill="#0074FF"/>
    <path d="M346.023 -202.172L396.114 -252.172L393.783 -254.504L343.692 -204.503L346.023 -202.172Z" fill="#0074FF"/>
    <path d="M350.169 -197.986C347.287 -195.094 342.565 -195.089 339.678 -198.003C336.782 -200.884 336.776 -205.603 339.691 -208.486C342.572 -211.379 347.294 -211.383 350.181 -208.469C353.077 -205.589 353.084 -200.87 350.203 -197.977L350.169 -197.986Z" fill="#0074FF"/>
    <path d="M276.061 -219.984L344.469 -201.654L345.322 -204.836L276.913 -223.166L276.061 -219.984Z" fill="#0074FF"/>
    <path d="M274.564 -214.399C270.6 -215.461 268.243 -219.539 269.304 -223.5C270.366 -227.461 274.446 -229.814 278.41 -228.752C282.374 -227.69 284.732 -223.611 283.67 -219.651C282.609 -215.69 278.528 -213.336 274.564 -214.399Z" fill="#0074FF"/>
    <path d="M480.149 -166.157L483.334 -167.009L464.99 -235.366L461.805 -234.514L480.149 -166.157Z" fill="#0074FF"/>
    <path d="M488.909 -168.503C489.958 -164.557 487.626 -160.465 483.678 -159.419C479.73 -158.372 475.634 -160.704 474.585 -164.649C473.536 -168.595 475.867 -172.687 479.815 -173.734C483.763 -174.78 487.86 -172.449 488.909 -168.503Z" fill="#0074FF"/>
    <path d="M432.812 -115.371L482.894 -165.38L480.563 -167.711L430.481 -117.702L432.812 -115.371Z" fill="#0074FF"/>
    <path d="M436.909 -111.321C434.027 -108.429 429.305 -108.424 426.418 -111.338C423.522 -114.219 423.516 -118.937 426.431 -121.821C429.312 -124.713 434.034 -124.718 436.921 -121.804C439.817 -118.923 439.824 -114.205 436.909 -111.321Z" fill="#0074FF"/>
    <path d="M362.826 -133.276L431.234 -114.946L432.087 -118.128L363.679 -136.458L362.826 -133.276Z" fill="#0074FF"/>
    <path d="M365.175 -142.044C361.208 -143.107 357.131 -140.755 356.069 -136.792C355.007 -132.828 357.362 -128.753 361.329 -127.69C365.296 -126.627 369.373 -128.979 370.435 -132.942C371.497 -136.906 369.142 -140.981 365.175 -142.044Z" fill="#0074FF"/>
    <path d="M361.655 -134.406L364.839 -135.258L346.495 -203.615L343.311 -202.763L361.655 -134.406Z" fill="#0074FF"/>
    <path d="M337.734 -201.318C336.685 -205.264 339.016 -209.356 342.964 -210.403C346.912 -211.449 351.009 -209.118 352.058 -205.172C353.107 -201.227 350.776 -197.134 346.793 -196.097C342.845 -195.05 338.749 -197.382 337.7 -201.327L337.734 -201.318Z" fill="#0074FF"/>
    <path d="M346.023 -202.172L396.114 -252.172L393.783 -254.504L343.692 -204.503L346.023 -202.172Z" fill="#0074FF"/>
    <path d="M389.734 -258.5C392.615 -261.393 397.337 -261.398 400.224 -258.483C403.12 -255.603 403.127 -250.884 400.212 -248.001C397.33 -245.108 392.608 -245.104 389.721 -248.018C386.825 -250.898 386.819 -255.617 389.734 -258.5Z" fill="#0074FF"/>
    <path d="M394.556 -251.693L462.964 -233.363L463.817 -236.546L395.408 -254.876L394.556 -251.693Z" fill="#0074FF"/>
    <path d="M465.305 -242.097C461.337 -243.16 457.261 -240.809 456.198 -236.845C455.136 -232.882 457.491 -228.807 461.459 -227.744C465.426 -226.681 469.503 -229.032 470.565 -232.996C471.627 -236.96 469.272 -241.035 465.305 -242.097Z" fill="#0074FF"/>
    <path d="M598.619 -197.867L601.804 -198.719L583.46 -267.075L580.275 -266.223L598.619 -197.867Z" fill="#0074FF"/>
    <path d="M607.36 -200.188C608.409 -196.242 606.078 -192.15 602.13 -191.103C598.182 -190.057 594.085 -192.388 593.036 -196.334C591.987 -200.279 594.319 -204.372 598.267 -205.418C602.215 -206.465 606.311 -204.133 607.36 -200.188Z" fill="#0074FF"/>
    <path d="M551.256 -147.177L601.347 -197.178L599.016 -199.509L548.926 -149.509L551.256 -147.177Z" fill="#0074FF"/>
    <path d="M555.394 -142.996C552.513 -140.104 547.791 -140.099 544.904 -143.014C542.008 -145.894 542.001 -150.613 544.916 -153.496C547.798 -156.389 552.52 -156.393 555.407 -153.479C558.303 -150.599 558.309 -145.88 555.394 -142.996Z" fill="#0074FF"/>
    <path d="M481.286 -164.994L549.695 -146.664L550.548 -149.846L482.139 -168.177L481.286 -164.994Z" fill="#0074FF"/>
    <path d="M483.636 -173.762C479.669 -174.825 475.592 -172.474 474.53 -168.51C473.468 -164.546 475.823 -160.472 479.79 -159.409C483.757 -158.346 487.834 -160.697 488.896 -164.661C489.958 -168.624 487.603 -172.699 483.636 -173.762Z" fill="#0074FF"/>
    <path d="M480.149 -166.157L483.334 -167.009L464.99 -235.366L461.805 -234.514L480.149 -166.157Z" fill="#0074FF"/>
    <path d="M456.228 -233.028C455.179 -236.973 457.511 -241.065 461.459 -242.112C465.407 -243.158 469.503 -240.827 470.552 -236.881C471.601 -232.936 469.27 -228.844 465.322 -227.797C461.374 -226.751 457.277 -229.082 456.228 -233.028Z" fill="#0074FF"/>
    <path d="M464.541 -233.772L514.623 -283.782L512.292 -286.113L462.21 -236.103L464.541 -233.772Z" fill="#0074FF"/>
    <path d="M508.195 -290.219C511.076 -293.111 515.798 -293.116 518.685 -290.202C521.581 -287.321 521.588 -282.603 518.672 -279.719C515.791 -276.826 511.069 -276.822 508.182 -279.736C505.286 -282.617 505.279 -287.335 508.195 -290.219Z" fill="#0074FF"/>
    <path d="M685.345 -111.121L688.529 -111.973L670.186 -180.33L667.001 -179.478L685.345 -111.121Z" fill="#0074FF"/>
    <path d="M694.134 -113.513C695.183 -109.568 692.852 -105.475 688.904 -104.429C684.956 -103.382 680.859 -105.714 679.81 -109.659C678.761 -113.605 681.092 -117.697 685.041 -118.744C688.989 -119.79 693.085 -117.459 694.134 -113.513Z" fill="#0074FF"/>
    <path d="M638.053 -60.3933L688.135 -110.403L685.804 -112.734L635.721 -62.7243L638.053 -60.3933Z" fill="#0074FF"/>
    <path d="M642.134 -56.3311C639.253 -53.4385 634.531 -53.434 631.644 -56.3482C628.748 -59.2286 628.741 -63.9473 631.656 -66.8308C634.538 -69.7233 639.26 -69.728 642.147 -66.8137C645.043 -63.9333 645.049 -59.2146 642.134 -56.3311Z" fill="#0074FF"/>
    <path d="M568.051 -78.286L636.46 -59.956L637.312 -63.1382L568.904 -81.4682L568.051 -78.286Z" fill="#0074FF"/>
    <path d="M566.564 -72.7341C562.6 -73.7963 560.242 -77.8748 561.304 -81.8356C562.365 -85.7964 566.446 -88.15 570.41 -87.0878C574.374 -86.0256 576.731 -81.947 575.67 -77.9863C574.609 -74.0254 570.528 -71.6719 566.564 -72.7341Z" fill="#0074FF"/>
    <path d="M566.877 -79.4709L570.062 -80.3229L551.718 -148.68L548.533 -147.828L566.877 -79.4709Z" fill="#0074FF"/>
    <path d="M542.959 -146.328C541.91 -150.274 544.242 -154.366 548.19 -155.413C552.138 -156.459 556.234 -154.128 557.283 -150.182C558.332 -146.237 556.001 -142.144 552.053 -141.098C548.105 -140.051 544.008 -142.383 542.959 -146.328Z" fill="#0074FF"/>
    <path d="M551.256 -147.177L601.347 -197.178L599.016 -199.509L548.926 -149.509L551.256 -147.177Z" fill="#0074FF"/>
    <path d="M594.959 -203.51C597.841 -206.403 602.563 -206.408 605.45 -203.493C608.346 -200.613 608.353 -195.894 605.438 -193.011C602.556 -190.118 597.834 -190.114 594.947 -193.028C592.051 -195.908 592.044 -200.627 594.959 -203.51Z" fill="#0074FF"/>
    <path d="M599.781 -196.703L668.19 -178.373L669.042 -181.556L600.634 -199.886L599.781 -196.703Z" fill="#0074FF"/>
    <path d="M670.53 -187.107C666.563 -188.17 662.486 -185.819 661.424 -181.855C660.362 -177.892 662.717 -173.817 666.684 -172.754C670.651 -171.691 674.728 -174.042 675.79 -178.006C676.852 -181.97 674.497 -186.044 670.53 -187.107Z" fill="#0074FF"/>
    <path d="M803.824 -142.864L807.009 -143.716L788.665 -212.073L785.48 -211.221L803.824 -142.864Z" fill="#0074FF"/>
    <path d="M812.586 -145.198C813.635 -141.252 811.304 -137.16 807.356 -136.113C803.407 -135.067 799.311 -137.398 798.262 -141.344C797.213 -145.289 799.544 -149.382 803.492 -150.428C807.441 -151.475 811.537 -149.143 812.586 -145.198Z" fill="#0074FF"/>
    <path d="M756.562 -92.0331L806.644 -142.043L804.313 -144.374L754.231 -94.364L756.562 -92.0331Z" fill="#0074FF"/>
    <path d="M760.62 -88.0065C757.738 -85.1139 753.016 -85.1093 750.129 -88.0236C747.233 -90.904 747.227 -95.6226 750.142 -98.5061C753.023 -101.399 757.745 -101.403 760.632 -98.4891C763.528 -95.6086 763.535 -90.89 760.654 -87.9975L760.62 -88.0065Z" fill="#0074FF"/>
    <path d="M686.546 -109.995L754.954 -91.6652L755.807 -94.8474L687.399 -113.177L686.546 -109.995Z" fill="#0074FF"/>
    <path d="M685.049 -104.409C681.085 -105.472 678.728 -109.55 679.789 -113.511C680.85 -117.472 684.931 -119.825 688.895 -118.763C692.86 -117.701 695.217 -113.622 694.155 -109.662C693.094 -105.701 689.013 -103.347 685.049 -104.409Z" fill="#0074FF"/>
    <path d="M685.345 -111.121L688.529 -111.973L670.186 -180.33L667.001 -179.478L685.345 -111.121Z" fill="#0074FF"/>
    <path d="M661.454 -178.037C660.405 -181.983 662.736 -186.075 666.684 -187.122C670.633 -188.168 674.729 -185.837 675.778 -181.891C676.827 -177.946 674.496 -173.854 670.548 -172.807C666.599 -171.76 662.503 -174.092 661.454 -178.037Z" fill="#0074FF"/>
    <path d="M669.773 -178.761L719.855 -228.77L717.524 -231.101L667.442 -181.092L669.773 -178.761Z" fill="#0074FF"/>
    <path d="M713.42 -235.229C716.301 -238.121 721.024 -238.126 723.911 -235.212C726.807 -232.331 726.813 -227.613 723.898 -224.729C720.983 -221.846 716.295 -221.832 713.408 -224.746C710.512 -227.627 710.505 -232.345 713.42 -235.229Z" fill="#0074FF"/>
    <path d="M890.602 -56.1774L893.786 -57.0294L875.442 -125.386L872.258 -124.534L890.602 -56.1774Z" fill="#0074FF"/>
    <path d="M899.36 -58.5233C900.409 -54.5776 898.078 -50.4854 894.129 -49.4389C890.181 -48.3924 886.085 -50.7236 885.036 -54.6694C883.987 -58.615 886.318 -62.7073 890.266 -63.7538C894.215 -64.8003 898.311 -62.469 899.36 -58.5233Z" fill="#0074FF"/>
    <path d="M843.235 -5.4679L893.317 -55.4774L890.986 -57.8084L840.904 -7.79886L843.235 -5.4679Z" fill="#0074FF"/>
    <path d="M847.36 -1.34122C844.479 1.55135 839.756 1.55597 836.869 -1.3583C833.973 -4.23871 833.967 -8.95737 836.882 -11.8408C839.763 -14.7334 844.486 -14.738 847.372 -11.8238C850.268 -8.94335 850.275 -4.22473 847.36 -1.34122Z" fill="#0074FF"/>
    <path d="M773.277 -23.2961L841.685 -4.96609L842.538 -8.14826L774.13 -26.4783L773.277 -23.2961Z" fill="#0074FF"/>
    <path d="M775.626 -32.064C771.659 -33.127 767.582 -30.7755 766.52 -26.8119C765.458 -22.8482 767.813 -18.7734 771.78 -17.7104C775.747 -16.6474 779.824 -18.9988 780.886 -22.9625C781.948 -26.9261 779.593 -31.001 775.626 -32.064Z" fill="#0074FF"/>
    <path d="M772.125 -24.493L775.309 -25.3451L756.966 -93.702L753.781 -92.85L772.125 -24.493Z" fill="#0074FF"/>
    <path d="M748.185 -91.3384C747.136 -95.2841 749.467 -99.3763 753.415 -100.423C757.364 -101.469 761.46 -99.1381 762.509 -95.1924C763.558 -91.2467 761.227 -87.1545 757.245 -86.117C753.296 -85.0705 749.2 -87.4018 748.151 -91.3475L748.185 -91.3384Z" fill="#0074FF"/>
    <path d="M756.562 -92.0331L806.644 -142.043L804.313 -144.374L754.231 -94.364L756.562 -92.0331Z" fill="#0074FF"/>
    <path d="M800.185 -148.521C803.066 -151.413 807.789 -151.418 810.676 -148.503C813.572 -145.623 813.578 -140.904 810.663 -138.021C807.782 -135.128 803.06 -135.124 800.173 -138.038C797.277 -140.918 797.27 -145.637 800.185 -148.521Z" fill="#0074FF"/>
    <path d="M805.007 -141.714L873.415 -123.384L874.268 -126.566L805.859 -144.896L805.007 -141.714Z" fill="#0074FF"/>
    <path d="M875.756 -132.118C871.788 -133.181 867.711 -130.829 866.649 -126.865C865.587 -122.902 867.942 -118.827 871.91 -117.764C875.877 -116.701 879.954 -119.052 881.016 -123.016C882.078 -126.98 879.723 -131.055 875.756 -132.118Z" fill="#0074FF"/>
    <path d="M1009.06 -87.8525L1012.25 -88.7045L993.903 -157.061L990.719 -156.209L1009.06 -87.8525Z" fill="#0074FF"/>
    <path d="M1017.81 -90.2078C1018.86 -86.262 1016.53 -82.1699 1012.58 -81.1234C1008.63 -80.0768 1004.54 -82.408 1003.49 -86.3537C1002.44 -90.2994 1004.77 -94.3916 1008.72 -95.4382C1012.67 -96.4847 1016.76 -94.1535 1017.81 -90.2078Z" fill="#0074FF"/>
    <path d="M961.757 -37.1788L1011.85 -87.1795L1009.52 -89.5109L959.426 -39.5102L961.757 -37.1788Z" fill="#0074FF"/>
    <path d="M965.845 -33.0165C962.964 -30.1239 958.242 -30.1193 955.355 -33.0336C952.459 -35.914 952.452 -40.6326 955.367 -43.5161C958.249 -46.4087 962.971 -46.4133 965.858 -43.499C968.754 -40.6186 968.761 -35.9 965.845 -33.0165Z" fill="#0074FF"/>
    <path d="M891.772 -55.0052L960.18 -36.6752L961.033 -39.8574L892.624 -58.1874L891.772 -55.0052Z" fill="#0074FF"/>
    <path d="M894.121 -63.7732C890.154 -64.8361 886.077 -62.4846 885.015 -58.521C883.953 -54.5574 886.308 -50.4825 890.275 -49.4195C894.242 -48.3565 898.319 -50.708 899.381 -54.6716C900.443 -58.6352 898.088 -62.7102 894.121 -63.7732Z" fill="#0074FF"/>
    <path d="M890.602 -56.1774L893.786 -57.0294L875.442 -125.386L872.258 -124.534L890.602 -56.1774Z" fill="#0074FF"/>
    <path d="M866.68 -123.047C865.631 -126.993 867.962 -131.085 871.91 -132.132C875.858 -133.178 879.954 -130.847 881.003 -126.901C882.053 -122.956 879.721 -118.864 875.773 -117.817C871.825 -116.771 867.729 -119.102 866.68 -123.047Z" fill="#0074FF"/>
    <path d="M874.956 -123.835L925.038 -173.845L922.707 -176.176L872.624 -126.166L874.956 -123.835Z" fill="#0074FF"/>
    <path d="M918.646 -180.239C921.527 -183.131 926.249 -183.136 929.136 -180.222C932.032 -177.341 932.039 -172.623 929.124 -169.739C926.242 -166.847 921.52 -166.842 918.633 -169.756C915.737 -172.637 915.731 -177.355 918.646 -180.239Z" fill="#0074FF"/>
    <path d="M923.492 -173.389L991.901 -155.059L992.753 -158.241L924.345 -176.571L923.492 -173.389Z" fill="#0074FF"/>
    <path d="M994.25 -163.827C998.214 -162.764 1000.57 -158.686 999.51 -154.725C998.449 -150.764 994.368 -148.411 990.404 -149.473C986.44 -150.535 984.083 -154.614 985.144 -158.575C986.205 -162.535 990.286 -164.889 994.25 -163.827Z" fill="#0074FF"/>
    <path d="M1095.81 -1.17476L1098.99 -2.02678L1080.65 -70.3837L1077.46 -69.5317L1095.81 -1.17476Z" fill="#0074FF"/>
    <path d="M1104.59 -3.53323C1105.63 0.412456 1103.3 4.50464 1099.35 5.55118C1095.41 6.59767 1091.31 4.26643 1090.26 0.320705C1089.21 -3.62498 1091.54 -7.71717 1095.49 -8.76367C1099.44 -9.8102 1103.54 -7.47895 1104.59 -3.53323Z" fill="#0074FF"/>
    <path d="M1048.49 49.5864L1098.57 -0.423031L1096.24 -2.75402L1046.16 47.2554L1048.49 49.5864Z" fill="#0074FF"/>
    <path d="M1052.62 53.6579C1049.74 56.5505 1045.02 56.5551 1042.13 53.6408C1039.23 50.7604 1039.23 46.0418 1042.14 43.1583C1045.02 40.2657 1049.74 40.2611 1052.63 43.1753C1055.53 46.0558 1055.53 50.7744 1052.62 53.6579Z" fill="#0074FF"/>
    <path d="M978.502 31.6939L1046.91 50.0239L1047.76 46.8417L979.355 28.5117L978.502 31.6939Z" fill="#0074FF"/>
    <path d="M977.015 37.2458C973.051 36.1836 970.693 32.1051 971.755 28.1443C972.816 24.1835 976.897 21.8299 980.861 22.8921C984.825 23.9543 987.182 28.0329 986.121 31.9937C985.06 35.9545 980.979 38.308 977.015 37.2458Z" fill="#0074FF"/>
    <path d="M977.33 30.5094L980.514 29.6573L962.17 -38.6996L958.986 -37.8475L977.33 30.5094Z" fill="#0074FF"/>
    <path d="M953.411 -36.3484C952.361 -40.2941 954.693 -44.3862 958.641 -45.4327C962.589 -46.4793 966.685 -44.148 967.734 -40.2023C968.783 -36.2566 966.452 -32.1644 962.504 -31.1179C958.556 -30.0714 954.46 -32.4026 953.411 -36.3484Z" fill="#0074FF"/>
    <path d="M961.757 -37.1788L1011.85 -87.1795L1009.52 -89.5109L959.426 -39.5102L961.757 -37.1788Z" fill="#0074FF"/>
    <path d="M1005.41 -93.5306C1008.29 -96.4232 1013.01 -96.4277 1015.9 -93.5134C1018.8 -90.633 1018.8 -85.9144 1015.89 -83.0309C1013.01 -80.1383 1008.28 -80.1338 1005.4 -83.048C1002.5 -85.9285 1002.5 -90.6471 1005.41 -93.5306Z" fill="#0074FF"/>
    <path d="M1010.23 -86.7234L1078.64 -68.3934L1079.49 -71.5756L1011.08 -89.9056L1010.23 -86.7234Z" fill="#0074FF"/>
    <path d="M1080.98 -77.1275C1077.01 -78.1905 1072.94 -75.839 1071.87 -71.8754C1070.81 -67.9117 1073.17 -63.8368 1077.14 -62.7738C1081.1 -61.7108 1085.18 -64.0623 1086.24 -68.026C1087.3 -71.9896 1084.95 -76.0645 1080.98 -77.1275Z" fill="#0074FF"/>
    <path d="M1214.28 -32.8837L1217.46 -33.7358L1199.12 -102.093L1195.93 -101.241L1214.28 -32.8837Z" fill="#0074FF"/>
    <path d="M1223.07 -35.2087C1224.12 -31.263 1221.79 -27.1708 1217.84 -26.1243C1213.89 -25.0778 1209.8 -27.409 1208.75 -31.3547C1207.7 -35.3004 1210.03 -39.3926 1213.98 -40.4391C1217.93 -41.4856 1222.02 -39.1544 1223.07 -35.2087Z" fill="#0074FF"/>
    <path d="M1166.99 17.8157L1217.08 -32.1851L1214.75 -34.5164L1164.66 15.4843L1166.99 17.8157Z" fill="#0074FF"/>
    <path d="M1171.07 21.9735C1168.19 24.8661 1163.47 24.8707 1160.58 21.9564C1157.68 19.076 1157.68 14.3573 1160.59 11.4738C1163.47 8.58127 1168.2 8.57663 1171.08 11.4909C1173.98 14.3713 1173.99 19.09 1171.07 21.9735Z" fill="#0074FF"/>
    <path d="M1097 -0.0152544L1165.41 18.3147L1166.26 15.1326L1097.85 -3.19743L1097 -0.0152544Z" fill="#0074FF"/>
    <path d="M1099.35 -8.7832C1095.38 -9.84617 1091.3 -7.49467 1090.24 -3.53103C1089.18 0.432601 1091.53 4.50747 1095.5 5.57045C1099.47 6.63343 1103.54 4.28199 1104.61 0.318353C1105.67 -3.64528 1103.31 -7.72021 1099.35 -8.7832Z" fill="#0074FF"/>
    <path d="M1095.81 -1.17476L1098.99 -2.02678L1080.65 -70.3837L1077.46 -69.5317L1095.81 -1.17476Z" fill="#0074FF"/>
    <path d="M1071.91 -68.0575C1070.86 -72.0032 1073.19 -76.0954 1077.14 -77.1419C1081.08 -78.1884 1085.18 -75.8572 1086.23 -71.9115C1087.28 -67.9658 1084.95 -63.8736 1081 -62.8271C1077.05 -61.7806 1072.95 -64.1118 1071.91 -68.0575Z" fill="#0074FF"/>
    <path d="M1080.21 -68.7811L1130.29 -118.791L1127.96 -121.121L1077.88 -71.112L1080.21 -68.7811Z" fill="#0074FF"/>
    <path d="M1123.87 -125.249C1126.75 -128.141 1131.47 -128.146 1134.36 -125.232C1137.26 -122.351 1137.26 -117.633 1134.35 -114.749C1131.43 -111.866 1126.75 -111.852 1123.86 -114.766C1120.96 -117.647 1120.96 -122.365 1123.87 -125.249Z" fill="#0074FF"/>
    <path d="M1128.72 -118.399L1197.13 -100.069L1197.98 -103.251L1129.57 -121.581L1128.72 -118.399Z" fill="#0074FF"/>
    <path d="M1199.48 -108.837C1203.44 -107.774 1205.8 -103.696 1204.74 -99.7352C1203.67 -95.7744 1199.59 -93.4209 1195.63 -94.4831C1191.67 -95.5453 1189.31 -99.6238 1190.37 -103.585C1191.43 -107.545 1195.51 -109.899 1199.48 -108.837Z" fill="#0074FF"/>
    <path d="M1301.05 53.8028L1304.24 52.9508L1285.89 -15.4061L1282.71 -14.5541L1301.05 53.8028Z" fill="#0074FF"/>
    <path d="M1309.81 51.4566C1310.86 55.4023 1308.53 59.4945 1304.58 60.541C1300.63 61.5875 1296.54 59.2563 1295.49 55.3106C1294.44 51.3649 1296.77 47.2727 1300.72 46.2262C1304.67 45.1796 1308.76 47.5109 1309.81 51.4566Z" fill="#0074FF"/>
    <path d="M1253.72 104.598L1303.81 54.5881L1301.47 52.2571L1251.39 102.267L1253.72 104.598Z" fill="#0074FF"/>
    <path d="M1257.84 108.648C1254.96 111.54 1250.24 111.545 1247.35 108.631C1244.46 105.75 1244.45 101.032 1247.37 98.1481C1250.25 95.2556 1254.97 95.2509 1257.86 98.1652C1260.75 101.046 1260.76 105.764 1257.84 108.648Z" fill="#0074FF"/>
    <path d="M1183.73 86.6838L1252.14 105.014L1252.99 101.832L1184.58 83.5017L1183.73 86.6838Z" fill="#0074FF"/>
    <path d="M1186.08 77.9159C1182.11 76.853 1178.03 79.2044 1176.97 83.1681C1175.91 87.1317 1178.26 91.2066 1182.23 92.2695C1186.2 93.3325 1190.28 90.9811 1191.34 87.0174C1192.4 83.0538 1190.04 78.9789 1186.08 77.9159Z" fill="#0074FF"/>
    <path d="M1182.57 85.5209L1185.75 84.6689L1167.41 16.312L1164.22 17.164L1182.57 85.5209Z" fill="#0074FF"/>
    <path d="M1158.64 18.6415C1157.59 14.6958 1159.92 10.6036 1163.87 9.55708C1167.81 8.51058 1171.91 10.8418 1172.96 14.7875C1174.01 18.7332 1171.68 22.8254 1167.73 23.872C1163.78 24.9185 1159.69 22.5872 1158.64 18.6415Z" fill="#0074FF"/>
    <path d="M1166.99 17.8157L1217.08 -32.1851L1214.75 -34.5164L1164.66 15.4843L1166.99 17.8157Z" fill="#0074FF"/>
    <path d="M1210.64 -38.5406C1213.52 -41.4331 1218.24 -41.4377 1221.13 -38.5235C1224.02 -35.643 1224.03 -30.9244 1221.11 -28.0409C1218.23 -25.1483 1213.51 -25.1438 1210.62 -28.058C1207.73 -30.9385 1207.72 -35.6571 1210.64 -38.5406Z" fill="#0074FF"/>
    <path d="M1215.46 -31.7336L1283.87 -13.4036L1284.72 -16.5858L1216.31 -34.9157L1215.46 -31.7336Z" fill="#0074FF"/>
    <path d="M1286.21 -22.1376C1282.24 -23.2006 1278.16 -20.8492 1277.1 -16.8855C1276.04 -12.9219 1278.39 -8.84698 1282.36 -7.784C1286.33 -6.72102 1290.4 -9.07248 1291.47 -13.0361C1292.53 -16.9998 1290.17 -21.0746 1286.21 -22.1376Z" fill="#0074FF"/>
    <path d="M1419.51 22.1279L1422.7 21.2758L1404.36 -47.0811L1401.17 -46.2291L1419.51 22.1279Z" fill="#0074FF"/>
    <path d="M1428.3 19.7812C1429.35 23.7269 1427.01 27.8191 1423.07 28.8656C1419.12 29.9122 1415.02 27.581 1413.97 23.6352C1412.92 19.6895 1415.25 15.5973 1419.2 14.5508C1423.15 13.5043 1427.25 15.8355 1428.3 19.7812Z" fill="#0074FF"/>
    <path d="M1372.21 72.9151L1422.29 22.9056L1419.96 20.5747L1369.88 70.5841L1372.21 72.9151Z" fill="#0074FF"/>
    <path d="M1376.3 76.9634C1373.42 79.856 1368.69 79.8606 1365.81 76.9464C1362.91 74.0659 1362.9 69.3473 1365.82 66.4638C1368.7 63.5713 1373.42 63.5666 1376.31 66.4809C1379.21 69.3613 1379.21 74.0799 1376.3 76.9634Z" fill="#0074FF"/>
    <path d="M1302.22 54.9747L1370.63 73.3047L1371.48 70.1225L1303.08 51.7925L1302.22 54.9747Z" fill="#0074FF"/>
    <path d="M1304.57 46.2068C1300.6 45.1438 1296.53 47.4953 1295.47 51.4589C1294.4 55.4226 1296.76 59.4975 1300.73 60.5604C1304.69 61.6234 1308.77 59.272 1309.83 55.3083C1310.89 51.3447 1308.54 47.2698 1304.57 46.2068Z" fill="#0074FF"/>
    <path d="M1301.05 53.8028L1304.24 52.9508L1285.89 -15.4061L1282.71 -14.5541L1301.05 53.8028Z" fill="#0074FF"/>
    <path d="M1277.13 -13.0676C1276.08 -17.0133 1278.41 -21.1055 1282.36 -22.152C1286.31 -23.1985 1290.41 -20.8673 1291.45 -16.9216C1292.5 -12.9759 1290.17 -8.8837 1286.22 -7.83717C1282.28 -6.79067 1278.18 -9.12193 1277.13 -13.0676Z" fill="#0074FF"/>
    <path d="M1285.42 -13.8127L1335.5 -63.8222L1333.17 -66.1532L1283.09 -16.1437L1285.42 -13.8127Z" fill="#0074FF"/>
    <path d="M1329.1 -70.2588C1331.98 -73.1514 1336.7 -73.156 1339.59 -70.2417C1342.48 -67.3613 1342.49 -62.6427 1339.57 -59.7592C1336.69 -56.8666 1331.97 -56.862 1329.08 -59.7762C1326.19 -62.6567 1326.18 -67.3753 1329.1 -70.2588Z" fill="#0074FF"/>
    <path d="M1333.94 -63.4088L1402.35 -45.0788L1403.2 -48.261L1334.8 -66.591L1333.94 -63.4088Z" fill="#0074FF"/>
    <path d="M1404.7 -53.8467C1408.67 -52.7845 1411.02 -48.706 1409.96 -44.7452C1408.9 -40.7844 1404.82 -38.4309 1400.86 -39.4931C1396.89 -40.5553 1394.53 -44.6338 1395.6 -48.5946C1396.66 -52.5554 1400.74 -54.9089 1404.7 -53.8467Z" fill="#0074FF"/>
    <path d="M1372.21 72.9151L1422.29 22.9056L1419.96 20.5747L1369.88 70.5841L1372.21 72.9151Z" fill="#0074FF"/>
    <path d="M1415.86 16.4494C1418.74 13.5568 1423.47 13.5523 1426.35 16.4665C1429.25 19.3469 1429.25 24.0656 1426.34 26.9491C1423.46 29.8417 1418.74 29.8462 1415.85 26.9319C1412.95 24.0515 1412.95 19.3329 1415.86 16.4494Z" fill="#0074FF"/>
    <path d="M1420.68 23.2564L1489.09 41.5864L1489.94 38.4042L1421.54 20.0742L1420.68 23.2564Z" fill="#0074FF"/>
    <path d="M1491.43 32.8523C1487.47 31.7894 1483.39 34.1408 1482.33 38.1044C1481.26 42.0681 1483.62 46.143 1487.59 47.206C1491.55 48.269 1495.63 45.9174 1496.69 41.9538C1497.75 37.9902 1495.4 33.9153 1491.43 32.8523Z" fill="#0074FF"/>
    <path d="M464.541 -233.772L514.623 -283.782L512.292 -286.113L462.21 -236.103L464.541 -233.772Z" fill="#0074FF"/>
    <path d="M468.629 -229.705C465.748 -226.812 461.026 -226.808 458.139 -229.722C455.243 -232.602 455.236 -237.321 458.151 -240.204C461.033 -243.097 465.755 -243.102 468.642 -240.187C471.538 -237.307 471.544 -232.588 468.629 -229.705Z" fill="#0074FF"/>
    <path d="M394.556 -251.693L462.964 -233.363L463.817 -236.546L395.408 -254.876L394.556 -251.693Z" fill="#0074FF"/>
    <path d="M396.896 -260.427C392.929 -261.49 388.852 -259.139 387.79 -255.175C386.728 -251.212 389.083 -247.137 393.05 -246.074C397.017 -245.011 401.094 -247.362 402.156 -251.326C403.218 -255.29 400.863 -259.365 396.896 -260.427Z" fill="#0074FF"/>
    <path d="M669.773 -178.761L719.855 -228.77L717.524 -231.101L667.442 -181.092L669.773 -178.761Z" fill="#0074FF"/>
    <path d="M673.855 -174.715C670.974 -171.822 666.251 -171.818 663.365 -174.732C660.468 -177.612 660.462 -182.331 663.377 -185.214C666.258 -188.107 670.981 -188.112 673.868 -185.197C676.764 -182.317 676.77 -177.598 673.855 -174.715Z" fill="#0074FF"/>
    <path d="M599.781 -196.703L668.19 -178.373L669.042 -181.556L600.634 -199.886L599.781 -196.703Z" fill="#0074FF"/>
    <path d="M598.285 -191.118C594.32 -192.18 591.963 -196.258 593.025 -200.219C594.086 -204.18 598.166 -206.534 602.131 -205.471C606.095 -204.409 608.452 -200.331 607.391 -196.37C606.329 -192.409 602.249 -190.056 598.285 -191.118Z" fill="#0074FF"/>
    <path d="M598.619 -197.867L601.804 -198.719L583.46 -267.075L580.275 -266.223L598.619 -197.867Z" fill="#0074FF"/>
    <path d="M574.68 -264.712C573.631 -268.658 575.962 -272.75 579.911 -273.796C583.859 -274.843 587.955 -272.512 589.004 -268.566C590.053 -264.62 587.722 -260.528 583.774 -259.481C579.825 -258.435 575.729 -260.766 574.68 -264.712Z" fill="#0074FF"/>
    <path d="M922.31 -174.582L925.495 -175.434L907.151 -243.791L903.966 -242.939L922.31 -174.582Z" fill="#0074FF"/>
    <path d="M931.081 -176.907C932.13 -172.961 929.798 -168.869 925.85 -167.822C921.902 -166.776 917.806 -169.107 916.757 -173.053C915.708 -176.999 918.039 -181.091 921.987 -182.137C925.935 -183.184 930.032 -180.853 931.081 -176.907Z" fill="#0074FF"/>
    <path d="M874.956 -123.835L925.038 -173.845L922.707 -176.176L872.624 -126.166L874.956 -123.835Z" fill="#0074FF"/>
    <path d="M879.08 -119.725C876.199 -116.832 871.477 -116.828 868.59 -119.742C865.694 -122.622 865.687 -127.341 868.603 -130.224C871.484 -133.117 876.206 -133.122 879.093 -130.207C881.989 -127.327 881.996 -122.608 879.08 -119.725Z" fill="#0074FF"/>
    <path d="M805.007 -141.714L873.415 -123.384L874.268 -126.566L805.859 -144.896L805.007 -141.714Z" fill="#0074FF"/>
    <path d="M807.347 -150.448C803.38 -151.511 799.303 -149.159 798.241 -145.195C797.179 -141.232 799.534 -137.157 803.501 -136.094C807.468 -135.031 811.545 -137.382 812.607 -141.346C813.669 -145.31 811.314 -149.385 807.347 -150.448Z" fill="#0074FF"/>
    <path d="M803.824 -142.864L807.009 -143.716L788.665 -212.073L785.48 -211.221L803.824 -142.864Z" fill="#0074FF"/>
    <path d="M779.906 -209.722C778.857 -213.668 781.188 -217.76 785.136 -218.806C789.084 -219.853 793.181 -217.522 794.23 -213.576C795.279 -209.63 792.947 -205.538 788.965 -204.501C785.017 -203.454 780.921 -205.785 779.872 -209.731L779.906 -209.722Z" fill="#0074FF"/>
    <path d="M993.459 -155.571L1043.55 -205.571L1041.22 -207.903L991.128 -157.902L993.459 -155.571Z" fill="#0074FF"/>
    <path d="M997.566 -151.4C994.685 -148.507 989.962 -148.503 987.076 -151.417C984.18 -154.298 984.173 -159.016 987.088 -161.9C989.969 -164.792 994.692 -164.797 997.579 -161.883C1000.47 -158.968 1000.48 -154.284 997.566 -151.4Z" fill="#0074FF"/>
    <path d="M923.492 -173.389L991.901 -155.059L992.753 -158.241L924.345 -176.571L923.492 -173.389Z" fill="#0074FF"/>
    <path d="M921.996 -167.803C918.031 -168.865 915.674 -172.944 916.736 -176.905C917.797 -180.865 921.877 -183.219 925.842 -182.157C929.806 -181.094 932.163 -177.016 931.102 -173.055C930.04 -169.094 925.96 -166.741 921.996 -167.803Z" fill="#0074FF"/>
    <path d="M922.31 -174.582L925.495 -175.434L907.151 -243.791L903.966 -242.939L922.31 -174.582Z" fill="#0074FF"/>
    <path d="M898.4 -241.431C897.351 -245.377 899.683 -249.469 903.631 -250.515C907.579 -251.562 911.675 -249.231 912.724 -245.285C913.773 -241.339 911.442 -237.247 907.494 -236.201C903.546 -235.154 899.449 -237.485 898.4 -241.431Z" fill="#0074FF"/>
    <path d="M1127.55 -119.57L1130.73 -120.422L1112.39 -188.779L1109.2 -187.927L1127.55 -119.57Z" fill="#0074FF"/>
    <path d="M1136.31 -121.917C1137.36 -117.971 1135.02 -113.879 1131.08 -112.832C1127.13 -111.786 1123.03 -114.117 1121.98 -118.063C1120.93 -122.009 1123.26 -126.101 1127.21 -127.147C1131.16 -128.194 1135.26 -125.863 1136.31 -121.917Z" fill="#0074FF"/>
    <path d="M1080.21 -68.7811L1130.29 -118.791L1127.96 -121.121L1077.88 -71.112L1080.21 -68.7811Z" fill="#0074FF"/>
    <path d="M1084.34 -64.7257C1081.46 -61.8332 1076.74 -61.8285 1073.85 -64.7428C1070.95 -67.6232 1070.95 -72.3419 1073.86 -75.2254C1076.74 -78.1179 1081.47 -78.1226 1084.35 -75.2083C1087.25 -72.3279 1087.26 -67.6092 1084.34 -64.7257Z" fill="#0074FF"/>
    <path d="M1010.23 -86.7234L1078.64 -68.3934L1079.49 -71.5756L1011.08 -89.9056L1010.23 -86.7234Z" fill="#0074FF"/>
    <path d="M1008.74 -81.1378C1004.77 -82.2 1002.41 -86.2785 1003.48 -90.2393C1004.54 -94.2001 1008.62 -96.5537 1012.58 -95.4914C1016.55 -94.4292 1018.9 -90.3507 1017.84 -86.3899C1016.78 -82.4291 1012.7 -80.0756 1008.74 -81.1378Z" fill="#0074FF"/>
    <path d="M1009.06 -87.8525L1012.25 -88.7045L993.903 -157.061L990.719 -156.209L1009.06 -87.8525Z" fill="#0074FF"/>
    <path d="M985.131 -154.732C984.082 -158.678 986.413 -162.77 990.362 -163.816C994.31 -164.863 998.406 -162.532 999.455 -158.586C1000.5 -154.64 998.173 -150.548 994.225 -149.502C990.277 -148.455 986.18 -150.786 985.131 -154.732Z" fill="#0074FF"/>
    <path d="M993.459 -155.571L1043.55 -205.571L1041.22 -207.903L991.128 -157.902L993.459 -155.571Z" fill="#0074FF"/>
    <path d="M1037.13 -211.914C1040.01 -214.807 1044.73 -214.811 1047.62 -211.897C1050.52 -209.016 1050.52 -204.298 1047.61 -201.414C1044.73 -198.522 1040.01 -198.517 1037.12 -201.431C1034.22 -204.312 1034.22 -209.031 1037.13 -211.914Z" fill="#0074FF"/>
    <path d="M1041.95 -205.107L1110.36 -186.777L1111.21 -189.959L1042.81 -208.289L1041.95 -205.107Z" fill="#0074FF"/>
    <path d="M1112.71 -195.545C1108.74 -196.608 1104.67 -194.256 1103.6 -190.293C1102.54 -186.329 1104.9 -182.254 1108.86 -181.191C1112.83 -180.128 1116.91 -182.48 1117.97 -186.443C1119.03 -190.407 1116.68 -194.482 1112.71 -195.545Z" fill="#0074FF"/>
    <path d="M1246.01 -151.245L1249.19 -152.097L1230.85 -220.454L1227.67 -219.602L1246.01 -151.245Z" fill="#0074FF"/>
    <path d="M1254.79 -153.592C1255.84 -149.646 1253.51 -145.554 1249.56 -144.508C1245.61 -143.461 1241.52 -145.792 1240.48 -149.772C1239.43 -153.718 1241.76 -157.81 1245.71 -158.856C1249.66 -159.903 1253.75 -157.572 1254.8 -153.626L1254.79 -153.592Z" fill="#0074FF"/>
    <path d="M1198.69 -100.576L1248.78 -150.577L1246.45 -152.908L1196.36 -102.907L1198.69 -100.576Z" fill="#0074FF"/>
    <path d="M1202.79 -96.4101C1199.91 -93.5175 1195.19 -93.5129 1192.3 -96.4272C1189.41 -99.3076 1189.4 -104.026 1192.31 -106.91C1195.19 -109.802 1199.92 -109.807 1202.8 -106.893C1205.7 -104.012 1205.71 -99.2936 1202.79 -96.4101Z" fill="#0074FF"/>
    <path d="M1128.72 -118.399L1197.13 -100.069L1197.98 -103.251L1129.57 -121.581L1128.72 -118.399Z" fill="#0074FF"/>
    <path d="M1127.22 -112.813C1123.26 -113.875 1120.9 -117.954 1121.96 -121.915C1123.02 -125.875 1127.1 -128.229 1131.07 -127.167C1135.03 -126.104 1137.39 -122.026 1136.33 -118.065C1135.27 -114.104 1131.19 -111.751 1127.22 -112.813Z" fill="#0074FF"/>
    <path d="M1127.55 -119.57L1130.73 -120.422L1112.39 -188.779L1109.2 -187.927L1127.55 -119.57Z" fill="#0074FF"/>
    <path d="M1103.63 -186.441C1102.58 -190.387 1104.91 -194.479 1108.86 -195.526C1112.8 -196.572 1116.9 -194.241 1117.95 -190.295C1119 -186.349 1116.67 -182.257 1112.72 -181.211C1108.77 -180.164 1104.67 -182.495 1103.63 -186.441Z" fill="#0074FF"/>
    <path d="M1111.94 -187.182L1162.02 -237.192L1159.69 -239.523L1109.61 -189.513L1111.94 -187.182Z" fill="#0074FF"/>
    <path d="M1155.59 -243.632C1158.47 -246.525 1163.2 -246.529 1166.09 -243.649C1168.99 -240.769 1168.99 -236.05 1166.08 -233.167C1163.2 -230.274 1158.48 -230.269 1155.59 -233.184C1152.69 -236.064 1152.69 -240.783 1155.6 -243.666L1155.59 -243.632Z" fill="#0074FF"/>
    <path d="M1160.44 -236.782L1228.85 -218.452L1229.7 -221.634L1161.29 -239.964L1160.44 -236.782Z" fill="#0074FF"/>
    <path d="M1231.2 -227.22C1227.23 -228.283 1223.15 -225.932 1222.09 -221.968C1221.03 -218.004 1223.38 -213.93 1227.35 -212.867C1231.32 -211.804 1235.39 -214.155 1236.46 -218.119C1237.52 -222.082 1235.16 -226.157 1231.2 -227.22Z" fill="#0074FF"/>
    <path d="M1332.76 -64.6019L1335.95 -65.4539L1317.6 -133.811L1314.42 -132.959L1332.76 -64.6019Z" fill="#0074FF"/>
    <path d="M1341.53 -66.9269C1342.58 -62.9812 1340.25 -58.889 1336.3 -57.8425C1332.35 -56.796 1328.26 -59.1273 1327.21 -63.0729C1326.16 -67.0187 1328.49 -71.1109 1332.44 -72.1574C1336.39 -73.2039 1340.48 -70.8727 1341.53 -66.9269Z" fill="#0074FF"/>
    <path d="M1285.42 -13.8127L1335.5 -63.8222L1333.17 -66.1532L1283.09 -16.1437L1285.42 -13.8127Z" fill="#0074FF"/>
    <path d="M1289.57 -9.73579C1286.68 -6.8432 1281.96 -6.83858 1279.07 -9.75286C1276.18 -12.6333 1276.17 -17.3519 1279.09 -20.2354C1281.97 -23.128 1286.69 -23.1326 1289.58 -20.2183C1292.47 -17.3379 1292.48 -12.6193 1289.57 -9.73579Z" fill="#0074FF"/>
    <path d="M1215.46 -31.7336L1283.87 -13.4036L1284.72 -16.5858L1216.31 -34.9157L1215.46 -31.7336Z" fill="#0074FF"/>
    <path d="M1217.8 -40.4676C1213.83 -41.5306 1209.75 -39.1792 1208.69 -35.2155C1207.63 -31.2519 1209.98 -27.177 1213.95 -26.114C1217.92 -25.051 1222 -27.4025 1223.06 -31.3662C1224.12 -35.3298 1221.77 -39.4046 1217.8 -40.4676Z" fill="#0074FF"/>
    <path d="M1214.28 -32.8837L1217.46 -33.7358L1199.12 -102.093L1195.93 -101.241L1214.28 -32.8837Z" fill="#0074FF"/>
    <path d="M1190.36 -99.742C1189.31 -103.688 1191.64 -107.78 1195.59 -108.826C1199.54 -109.873 1203.63 -107.542 1204.68 -103.596C1205.73 -99.6503 1203.4 -95.5581 1199.45 -94.5116C1195.5 -93.4651 1191.41 -95.7963 1190.36 -99.742Z" fill="#0074FF"/>
    <path d="M1198.69 -100.576L1248.78 -150.577L1246.45 -152.908L1196.36 -102.907L1198.69 -100.576Z" fill="#0074FF"/>
    <path d="M1242.36 -156.924C1245.24 -159.817 1249.96 -159.821 1252.85 -156.907C1255.74 -154.027 1255.75 -149.308 1252.83 -146.425C1249.95 -143.532 1245.23 -143.527 1242.34 -146.442C1239.45 -149.322 1239.44 -154.041 1242.36 -156.924Z" fill="#0074FF"/>
    <path d="M1247.18 -150.117L1315.59 -131.787L1316.44 -134.969L1248.03 -153.299L1247.18 -150.117Z" fill="#0074FF"/>
    <path d="M1317.94 -140.555C1313.97 -141.618 1309.89 -139.267 1308.83 -135.303C1307.77 -131.339 1310.12 -127.264 1314.09 -126.201C1318.06 -125.138 1322.13 -127.49 1323.2 -131.453C1324.26 -135.417 1321.9 -139.492 1317.94 -140.555Z" fill="#0074FF"/>
    <path d="M1451.21 -96.243L1454.4 -97.095L1436.05 -165.452L1432.87 -164.6L1451.21 -96.243Z" fill="#0074FF"/>
    <path d="M1460.02 -98.6022C1461.07 -94.6565 1458.74 -90.5643 1454.79 -89.5178C1450.84 -88.4713 1446.74 -90.8025 1445.7 -94.782C1444.65 -98.7278 1446.98 -102.82 1450.93 -103.867C1454.88 -104.913 1458.98 -102.582 1460.03 -98.636L1460.02 -98.6022Z" fill="#0074FF"/>
    <path d="M1403.94 -45.4863L1454.02 -95.4957L1451.69 -97.8267L1401.61 -47.8172L1403.94 -45.4863Z" fill="#0074FF"/>
    <path d="M1408.02 -41.4201C1405.14 -38.5275 1400.41 -38.5229 1397.53 -41.4372C1394.63 -44.3176 1394.62 -49.0363 1397.54 -51.9197C1400.42 -54.8123 1405.14 -54.8169 1408.03 -51.9027C1410.92 -48.9884 1410.93 -44.3036 1408.02 -41.4201Z" fill="#0074FF"/>
    <path d="M1333.94 -63.4088L1402.35 -45.0788L1403.2 -48.261L1334.8 -66.591L1333.94 -63.4088Z" fill="#0074FF"/>
    <path d="M1332.45 -57.8231C1328.48 -58.8853 1326.13 -62.9638 1327.19 -66.9246C1328.25 -70.8854 1332.33 -73.2389 1336.29 -72.1767C1340.26 -71.1145 1342.61 -67.036 1341.55 -63.0752C1340.49 -59.1144 1336.41 -56.7609 1332.45 -57.8231Z" fill="#0074FF"/>
    <path d="M1332.76 -64.6019L1335.95 -65.4539L1317.6 -133.811L1314.42 -132.959L1332.76 -64.6019Z" fill="#0074FF"/>
    <path d="M1308.85 -131.451C1307.8 -135.397 1310.13 -139.489 1314.08 -140.536C1318.03 -141.582 1322.13 -139.251 1323.18 -135.305C1324.22 -131.359 1321.89 -127.267 1317.94 -126.221C1314 -125.174 1309.9 -127.505 1308.85 -131.451Z" fill="#0074FF"/>
    <path d="M1317.16 -132.205L1367.25 -182.214L1364.92 -184.545L1314.83 -134.536L1317.16 -132.205Z" fill="#0074FF"/>
    <path d="M1360.82 -188.642C1363.7 -191.535 1368.42 -191.54 1371.32 -188.659C1374.21 -185.779 1374.22 -181.06 1371.3 -178.177C1368.42 -175.284 1363.7 -175.279 1360.81 -178.194C1357.92 -181.074 1357.91 -185.793 1360.83 -188.676L1360.82 -188.642Z" fill="#0074FF"/>
    <path d="M1365.66 -181.792L1434.07 -163.462L1434.93 -166.644L1366.52 -184.974L1365.66 -181.792Z" fill="#0074FF"/>
    <path d="M1436.42 -172.23C1440.39 -171.168 1442.74 -167.09 1441.68 -163.129C1440.62 -159.168 1436.54 -156.814 1432.58 -157.877C1428.61 -158.939 1426.25 -163.017 1427.32 -166.978C1428.38 -170.939 1432.46 -173.292 1436.42 -172.23Z" fill="#0074FF"/>
    <path d="M1420.68 23.2564L1489.09 41.5864L1489.94 38.4042L1421.54 20.0742L1420.68 23.2564Z" fill="#0074FF"/>
    <path d="M1419.19 28.8421C1415.22 27.7799 1412.87 23.7014 1413.93 19.7406C1414.99 15.7798 1419.07 13.4263 1423.03 14.4885C1427 15.5507 1429.35 19.6292 1428.29 23.59C1427.23 27.5508 1423.15 29.9043 1419.19 28.8421Z" fill="#0074FF"/>
    <path d="M1419.51 22.1279L1422.7 21.2758L1404.36 -47.0811L1401.17 -46.2291L1419.51 22.1279Z" fill="#0074FF"/>
    <path d="M1395.58 -44.7519C1394.53 -48.6976 1396.86 -52.7898 1400.81 -53.8363C1404.76 -54.8828 1408.86 -52.5516 1409.91 -48.6059C1410.96 -44.6602 1408.62 -40.568 1404.68 -39.5215C1400.73 -38.475 1396.63 -40.8062 1395.58 -44.7519Z" fill="#0074FF"/>
    <path d="M1403.94 -45.4863L1454.02 -95.4957L1451.69 -97.8267L1401.61 -47.8172L1403.94 -45.4863Z" fill="#0074FF"/>
    <path d="M1447.58 -101.934C1450.46 -104.827 1455.19 -104.831 1458.07 -101.917C1460.97 -99.0366 1460.98 -94.318 1458.06 -91.4344C1455.18 -88.5419 1450.46 -88.5374 1447.57 -91.4516C1444.67 -94.332 1444.67 -99.0506 1447.58 -101.934Z" fill="#0074FF"/>
    <path d="M1452.4 -95.1271L1520.81 -76.7971L1521.67 -79.9793L1453.26 -98.3093L1452.4 -95.1271Z" fill="#0074FF"/>
    <path d="M1523.16 -85.565C1519.19 -86.6279 1515.12 -84.2765 1514.06 -80.3128C1512.99 -76.3492 1515.35 -72.2743 1519.32 -71.2113C1523.28 -70.1483 1527.36 -72.4998 1528.42 -76.4635C1529.48 -80.4271 1527.13 -84.502 1523.16 -85.565Z" fill="#0074FF"/>
    <path d="M1159.26 -237.975L1162.44 -238.827L1144.1 -307.184L1140.91 -306.332L1159.26 -237.975Z" fill="#0074FF"/>
    <path d="M1168.03 -240.3C1169.08 -236.355 1166.74 -232.262 1162.8 -231.216C1158.85 -230.169 1154.75 -232.501 1153.7 -236.446C1152.65 -240.392 1154.99 -244.484 1158.93 -245.531C1162.88 -246.577 1166.98 -244.246 1168.03 -240.3Z" fill="#0074FF"/>
    <path d="M1111.94 -187.182L1162.02 -237.192L1159.69 -239.523L1109.61 -189.513L1111.94 -187.182Z" fill="#0074FF"/>
    <path d="M1116.06 -183.109C1113.18 -180.217 1108.46 -180.212 1105.56 -183.092C1102.67 -185.973 1102.66 -190.692 1105.57 -193.575C1108.46 -196.468 1113.18 -196.472 1116.06 -193.558C1118.96 -190.678 1118.97 -185.959 1116.05 -183.075L1116.06 -183.109Z" fill="#0074FF"/>
    <path d="M1041.95 -205.107L1110.36 -186.777L1111.21 -189.959L1042.81 -208.289L1041.95 -205.107Z" fill="#0074FF"/>
    <path d="M1040.46 -199.521C1036.49 -200.583 1034.13 -204.662 1035.2 -208.623C1036.26 -212.584 1040.34 -214.937 1044.3 -213.875C1048.27 -212.813 1050.62 -208.734 1049.56 -204.773C1048.5 -200.813 1044.42 -198.459 1040.46 -199.521Z" fill="#0074FF"/>
    <path d="M1073.67 -323.491L1142.08 -305.161L1142.93 -308.343L1074.53 -326.673L1073.67 -323.491Z" fill="#0074FF"/>
    <path d="M1144.42 -313.895C1148.39 -312.832 1150.74 -308.754 1149.68 -304.793C1148.62 -300.832 1144.54 -298.479 1140.58 -299.541C1136.61 -300.603 1134.26 -304.682 1135.32 -308.643C1136.38 -312.603 1140.46 -314.957 1144.42 -313.895Z" fill="#0074FF"/>
    <path d="M1277.72 -269.65L1280.9 -270.502L1262.56 -338.859L1259.37 -338.007L1277.72 -269.65Z" fill="#0074FF"/>
    <path d="M1286.51 -271.976C1287.56 -268.03 1285.23 -263.938 1281.28 -262.891C1277.33 -261.845 1273.24 -264.176 1272.19 -268.122C1271.14 -272.067 1273.47 -276.16 1277.42 -277.206C1281.37 -278.253 1285.46 -275.921 1286.51 -271.976Z" fill="#0074FF"/>
    <path d="M1230.43 -218.865L1280.51 -268.875L1278.18 -271.206L1228.1 -221.196L1230.43 -218.865Z" fill="#0074FF"/>
    <path d="M1234.51 -214.794C1231.63 -211.901 1226.91 -211.896 1224.02 -214.811C1221.13 -217.691 1221.12 -222.41 1224.03 -225.293C1226.92 -228.186 1231.64 -228.19 1234.52 -225.276C1237.42 -222.396 1237.43 -217.677 1234.51 -214.794Z" fill="#0074FF"/>
    <path d="M1160.44 -236.782L1228.85 -218.452L1229.7 -221.634L1161.29 -239.964L1160.44 -236.782Z" fill="#0074FF"/>
    <path d="M1162.79 -245.55C1158.82 -246.613 1154.74 -244.262 1153.68 -240.298C1152.62 -236.334 1154.97 -232.26 1158.94 -231.197C1162.91 -230.134 1166.99 -232.485 1168.05 -236.449C1169.11 -240.412 1166.75 -244.487 1162.79 -245.55Z" fill="#0074FF"/>
    <path d="M1159.26 -237.975L1162.44 -238.827L1144.1 -307.184L1140.91 -306.332L1159.26 -237.975Z" fill="#0074FF"/>
    <path d="M1135.35 -304.825C1134.3 -308.77 1136.63 -312.863 1140.58 -313.909C1144.53 -314.956 1148.62 -312.624 1149.67 -308.679C1150.72 -304.733 1148.39 -300.641 1144.44 -299.594C1140.49 -298.548 1136.4 -300.879 1135.35 -304.825Z" fill="#0074FF"/>
    <path d="M1143.66 -305.664L1193.75 -355.665L1191.42 -357.996L1141.33 -307.996L1143.66 -305.664Z" fill="#0074FF"/>
    <path d="M1187.31 -362.016C1190.19 -364.908 1194.92 -364.913 1197.8 -361.999C1200.7 -359.118 1200.71 -354.4 1197.79 -351.516C1194.91 -348.624 1190.19 -348.619 1187.3 -351.533C1184.4 -354.414 1184.4 -359.132 1187.31 -362.016Z" fill="#0074FF"/>
    <path d="M1192.16 -355.166L1260.57 -336.836L1261.42 -340.018L1193.01 -358.348L1192.16 -355.166Z" fill="#0074FF"/>
    <path d="M1262.92 -345.604C1258.95 -346.667 1254.87 -344.315 1253.81 -340.352C1252.75 -336.388 1255.1 -332.313 1259.07 -331.25C1263.04 -330.187 1267.12 -332.539 1268.18 -336.502C1269.24 -340.466 1266.88 -344.541 1262.92 -345.604Z" fill="#0074FF"/>
    <path d="M1364.5 -182.963L1367.68 -183.815L1349.34 -252.172L1346.15 -251.32L1364.5 -182.963Z" fill="#0074FF"/>
    <path d="M1373.25 -185.31C1374.3 -181.365 1371.97 -177.273 1368.02 -176.226C1364.07 -175.18 1359.98 -177.511 1358.93 -181.456C1357.88 -185.402 1360.21 -189.494 1364.16 -190.541C1368.11 -191.587 1372.2 -189.256 1373.25 -185.31Z" fill="#0074FF"/>
    <path d="M1317.16 -132.205L1367.25 -182.214L1364.92 -184.545L1314.83 -134.536L1317.16 -132.205Z" fill="#0074FF"/>
    <path d="M1321.29 -128.119C1318.4 -125.227 1313.68 -125.222 1310.79 -128.103C1307.89 -130.983 1307.88 -135.702 1310.8 -138.585C1313.68 -141.478 1318.4 -141.482 1321.29 -138.568C1324.19 -135.688 1324.19 -130.969 1321.28 -128.085L1321.29 -128.119Z" fill="#0074FF"/>
    <path d="M1247.18 -150.117L1315.59 -131.787L1316.44 -134.969L1248.03 -153.299L1247.18 -150.117Z" fill="#0074FF"/>
    <path d="M1249.53 -158.885C1245.56 -159.948 1241.48 -157.597 1240.42 -153.633C1239.36 -149.669 1241.71 -145.594 1245.68 -144.531C1249.65 -143.468 1253.73 -145.82 1254.79 -149.783C1255.85 -153.747 1253.49 -157.822 1249.53 -158.885Z" fill="#0074FF"/>
    <path d="M1246.01 -151.245L1249.19 -152.097L1230.85 -220.454L1227.67 -219.602L1246.01 -151.245Z" fill="#0074FF"/>
    <path d="M1222.08 -218.126C1221.03 -222.071 1223.36 -226.164 1227.31 -227.21C1231.26 -228.257 1235.35 -225.925 1236.39 -221.946C1237.44 -218 1235.11 -213.908 1231.16 -212.861C1227.21 -211.815 1223.12 -214.146 1222.07 -218.092L1222.08 -218.126Z" fill="#0074FF"/>
    <path d="M1230.43 -218.865L1280.51 -268.875L1278.18 -271.206L1228.1 -221.196L1230.43 -218.865Z" fill="#0074FF"/>
    <path d="M1274.08 -275.308C1276.96 -278.2 1281.68 -278.205 1284.57 -275.291C1287.46 -272.41 1287.47 -267.692 1284.56 -264.808C1281.67 -261.915 1276.95 -261.911 1274.07 -264.825C1271.17 -267.706 1271.16 -272.424 1274.08 -275.308Z" fill="#0074FF"/>
    <path d="M1278.9 -268.501L1347.31 -250.171L1348.16 -253.353L1279.75 -271.683L1278.9 -268.501Z" fill="#0074FF"/>
    <path d="M1349.65 -258.905C1353.61 -257.842 1355.97 -253.764 1354.91 -249.803C1353.85 -245.842 1349.77 -243.489 1345.8 -244.551C1341.84 -245.613 1339.48 -249.692 1340.54 -253.653C1341.6 -257.613 1345.68 -259.967 1349.65 -258.905Z" fill="#0074FF"/>
    <path d="M1435.68 -163.921L1485.76 -213.931L1483.43 -216.262L1433.35 -166.252L1435.68 -163.921Z" fill="#0074FF"/>
    <path d="M1439.74 -159.804C1436.86 -156.911 1432.13 -156.906 1429.25 -159.821C1426.35 -162.701 1426.34 -167.42 1429.26 -170.303C1432.14 -173.196 1436.86 -173.2 1439.75 -170.286C1442.65 -167.406 1442.65 -162.687 1439.74 -159.804Z" fill="#0074FF"/>
    <path d="M1365.66 -181.792L1434.07 -163.462L1434.93 -166.644L1366.52 -184.974L1365.66 -181.792Z" fill="#0074FF"/>
    <path d="M1368.01 -190.56C1364.05 -191.623 1359.97 -189.272 1358.91 -185.308C1357.85 -181.344 1360.2 -177.27 1364.17 -176.207C1368.13 -175.144 1372.21 -177.495 1373.27 -181.459C1374.34 -185.422 1371.98 -189.497 1368.01 -190.56Z" fill="#0074FF"/>
    <path d="M1364.5 -182.963L1367.68 -183.815L1349.34 -252.172L1346.15 -251.32L1364.5 -182.963Z" fill="#0074FF"/>
    <path d="M1340.57 -249.835C1339.52 -253.78 1341.85 -257.873 1345.8 -258.919C1349.75 -259.966 1353.85 -257.634 1354.9 -253.689C1355.95 -249.743 1353.61 -245.651 1349.67 -244.604C1345.72 -243.558 1341.62 -245.889 1340.57 -249.835Z" fill="#0074FF"/>
    <path d="M1348.88 -250.636L1398.97 -300.636L1396.64 -302.968L1346.55 -252.967L1348.88 -250.636Z" fill="#0074FF"/>
    <path d="M1392.54 -307.026C1395.42 -309.918 1400.14 -309.923 1403.03 -307.009C1405.92 -304.128 1405.93 -299.41 1403.02 -296.526C1400.13 -293.634 1395.41 -293.629 1392.53 -296.543C1389.63 -299.424 1389.62 -304.142 1392.54 -307.026Z" fill="#0074FF"/>
    <path d="M1452.4 -95.1271L1520.81 -76.7971L1521.67 -79.9793L1453.26 -98.3093L1452.4 -95.1271Z" fill="#0074FF"/>
    <path d="M1450.91 -89.5413C1446.94 -90.6035 1444.59 -94.6821 1445.65 -98.6428C1446.71 -102.604 1450.79 -104.957 1454.75 -103.895C1458.72 -102.833 1461.07 -98.7543 1460.01 -94.7935C1458.95 -90.8327 1454.87 -88.4791 1450.91 -89.5413Z" fill="#0074FF"/>
    <path d="M1451.21 -96.243L1454.4 -97.095L1436.05 -165.452L1432.87 -164.6L1451.21 -96.243Z" fill="#0074FF"/>
    <path d="M1427.3 -163.136C1426.25 -167.081 1428.59 -171.173 1432.53 -172.22C1436.48 -173.266 1440.58 -170.935 1441.62 -166.956C1442.67 -163.01 1440.34 -158.918 1436.39 -157.871C1432.44 -156.825 1428.34 -159.156 1427.29 -163.102L1427.3 -163.136Z" fill="#0074FF"/>
    <path d="M1435.68 -163.921L1485.76 -213.931L1483.43 -216.262L1433.35 -166.252L1435.68 -163.921Z" fill="#0074FF"/>
    <path d="M1479.3 -220.318C1482.18 -223.21 1486.91 -223.215 1489.79 -220.3C1492.69 -217.42 1492.7 -212.701 1489.78 -209.818C1486.9 -206.925 1482.18 -206.921 1479.29 -209.835C1476.39 -212.715 1476.39 -217.434 1479.3 -220.318Z" fill="#0074FF"/>
    <path d="M1190.99 -356.337L1194.17 -357.189L1175.83 -425.546L1172.65 -424.694L1190.99 -356.337Z" fill="#0074FF"/>
    <path d="M1199.75 -358.684C1200.8 -354.738 1198.47 -350.646 1194.52 -349.6C1190.57 -348.553 1186.47 -350.884 1185.43 -354.864C1184.38 -358.81 1186.71 -362.902 1190.66 -363.948C1194.61 -364.995 1198.71 -362.664 1199.76 -358.718L1199.75 -358.684Z" fill="#0074FF"/>
    <path d="M1143.66 -305.664L1193.75 -355.665L1191.42 -357.996L1141.33 -307.996L1143.66 -305.664Z" fill="#0074FF"/>
    <path d="M1147.78 -301.493C1144.9 -298.6 1140.18 -298.596 1137.29 -301.51C1134.39 -304.39 1134.39 -309.109 1137.3 -311.992C1140.18 -314.885 1144.91 -314.89 1147.79 -311.975C1150.69 -309.095 1150.7 -304.376 1147.78 -301.493Z" fill="#0074FF"/>
    <path d="M1073.67 -323.491L1142.08 -305.161L1142.93 -308.343L1074.53 -326.673L1073.67 -323.491Z" fill="#0074FF"/>
    <path d="M1072.18 -317.905C1068.21 -318.967 1065.86 -323.046 1066.92 -327.006C1067.98 -330.967 1072.06 -333.321 1076.02 -332.259C1079.99 -331.196 1082.34 -327.118 1081.28 -323.157C1080.22 -319.196 1076.14 -316.843 1072.18 -317.905Z" fill="#0074FF"/>
    <path d="M1262.16 -337.266L1312.24 -387.276L1309.91 -389.607L1259.83 -339.597L1262.16 -337.266Z" fill="#0074FF"/>
    <path d="M1266.23 -333.177C1263.35 -330.285 1258.63 -330.28 1255.73 -333.16C1252.84 -336.041 1252.83 -340.759 1255.75 -343.643C1258.63 -346.535 1263.35 -346.54 1266.24 -343.626C1269.13 -340.745 1269.14 -336.027 1266.22 -333.143L1266.23 -333.177Z" fill="#0074FF"/>
    <path d="M1192.16 -355.166L1260.57 -336.836L1261.42 -340.018L1193.01 -358.348L1192.16 -355.166Z" fill="#0074FF"/>
    <path d="M1194.51 -363.934C1190.54 -364.997 1186.46 -362.645 1185.4 -358.682C1184.34 -354.718 1186.7 -350.643 1190.66 -349.58C1194.63 -348.517 1198.71 -350.869 1199.77 -354.832C1200.83 -358.796 1198.48 -362.871 1194.51 -363.934Z" fill="#0074FF"/>
    <path d="M1190.99 -356.337L1194.17 -357.189L1175.83 -425.546L1172.65 -424.694L1190.99 -356.337Z" fill="#0074FF"/>
    <path d="M1167.07 -423.208C1166.02 -427.154 1168.35 -431.246 1172.3 -432.293C1176.25 -433.339 1180.34 -431.008 1181.38 -427.028C1182.43 -423.083 1180.1 -418.99 1176.15 -417.944C1172.2 -416.897 1168.11 -419.229 1167.06 -423.174L1167.07 -423.208Z" fill="#0074FF"/>
    <path d="M1348.88 -250.636L1398.97 -300.636L1396.64 -302.968L1346.55 -252.967L1348.88 -250.636Z" fill="#0074FF"/>
    <path d="M1353.01 -246.503C1350.13 -243.61 1345.4 -243.606 1342.52 -246.52C1339.62 -249.4 1339.61 -254.119 1342.53 -257.002C1345.44 -259.886 1350.13 -259.9 1353.02 -256.985C1355.92 -254.105 1355.92 -249.386 1353.01 -246.503Z" fill="#0074FF"/>
    <path d="M1278.9 -268.501L1347.31 -250.171L1348.16 -253.353L1279.75 -271.683L1278.9 -268.501Z" fill="#0074FF"/>
    <path d="M1277.4 -262.915C1273.44 -263.977 1271.08 -268.056 1272.14 -272.016C1273.2 -275.977 1277.28 -278.331 1281.25 -277.269C1285.21 -276.206 1287.57 -272.128 1286.51 -268.167C1285.45 -264.206 1281.37 -261.853 1277.4 -262.915Z" fill="#0074FF"/>
    <path d="M1277.72 -269.65L1280.9 -270.502L1262.56 -338.859L1259.37 -338.007L1277.72 -269.65Z" fill="#0074FF"/>
    <path d="M1253.8 -336.509C1252.75 -340.455 1255.08 -344.547 1259.03 -345.594C1262.98 -346.64 1267.07 -344.309 1268.12 -340.363C1269.17 -336.417 1266.84 -332.325 1262.89 -331.279C1258.94 -330.232 1254.85 -332.563 1253.8 -336.509Z" fill="#0074FF"/>
    <path d="M1262.16 -337.266L1312.24 -387.276L1309.91 -389.607L1259.83 -339.597L1262.16 -337.266Z" fill="#0074FF"/>
    <path d="M1305.8 -393.691C1308.68 -396.584 1313.4 -396.588 1316.3 -393.708C1319.19 -390.828 1319.2 -386.109 1316.29 -383.225C1313.4 -380.333 1308.68 -380.328 1305.79 -383.242C1302.9 -386.123 1302.89 -390.841 1305.81 -393.725L1305.8 -393.691Z" fill="#0074FF"/>
</svg>
