<svg xmlns="http://www.w3.org/2000/svg" viewBox="0 0 233 105" width="233" height="105">
    <path d="M31.1922 49.2782L32.2587 48.9928L26.1153 26.0999L25.0488 26.3852L31.1922 49.2782Z" fill="#0074FF"/>
    <path d="M34.127 48.4971C34.4783 49.8185 33.6976 51.189 32.3753 51.5395C31.053 51.8899 29.6812 51.1092 29.3299 49.7878C28.9786 48.4664 29.7593 47.0959 31.0816 46.7454C32.4038 46.3949 33.7757 47.1756 34.127 48.4971Z" fill="#0074FF"/>
    <path d="M2.52791 20.6364L25.4381 26.7752L25.7237 25.7095L2.81346 19.5707L2.52791 20.6364Z" fill="#0074FF"/>
    <path d="M26.2249 23.8388C27.5526 24.1946 28.342 25.5605 27.9866 26.8869C27.6311 28.2134 26.2645 29.0016 24.9369 28.6459C23.6092 28.2901 22.8198 26.9242 23.1753 25.5978C23.5307 24.2713 24.8973 23.4831 26.2249 23.8388Z" fill="#0074FF"/>
    <path d="M60.2543 78.3098L61.3208 78.0245L55.1774 55.1315L54.1109 55.4169L60.2543 78.3098Z" fill="#0074FF"/>
    <path d="M63.1879 77.5246C63.5392 78.846 62.7585 80.2165 61.4362 80.567C60.1139 80.9175 58.742 80.1367 58.3907 78.8153C58.0394 77.4939 58.8201 76.1234 60.1424 75.7729C61.4647 75.4224 62.8365 76.2032 63.1879 77.5246Z" fill="#0074FF"/>
    <path d="M31.5856 49.6753L54.4959 55.814L54.7814 54.7483L31.8712 48.6096L31.5856 49.6753Z" fill="#0074FF"/>
    <path d="M55.2827 52.8777C56.6103 53.2334 57.3997 54.5993 57.0443 55.9258C56.6889 57.2523 55.3223 58.0405 53.9946 57.6847C52.667 57.329 51.8776 55.9631 52.233 54.6366C52.5885 53.3101 53.955 52.5219 55.2827 52.8777Z" fill="#0074FF"/>
    <path d="M99.9242 67.7131L100.991 67.4277L94.8473 44.5348L93.7808 44.8201L99.9242 67.7131Z" fill="#0074FF"/>
    <path d="M102.858 66.9134C103.209 68.2348 102.428 69.6053 101.106 69.9558C99.7838 70.3063 98.4119 69.5256 98.0606 68.2041C97.7093 66.8827 98.49 65.5122 99.8123 65.1617C101.135 64.8112 102.506 65.592 102.858 66.9134Z" fill="#0074FF"/>
    <path d="M60.2543 78.3098L61.3208 78.0245L55.1774 55.1315L54.1109 55.4169L60.2543 78.3098Z" fill="#0074FF"/>
    <path d="M52.2401 55.9266C51.8888 54.6051 52.6695 53.2346 53.9918 52.8841C55.3141 52.5337 56.6859 53.3144 57.0373 54.6358C57.3886 55.9573 56.6078 57.3277 55.2856 57.6782C53.9633 58.0287 52.5914 57.248 52.2401 55.9266Z" fill="#0074FF"/>
    <path d="M55.0386 55.6826L71.8113 38.9343L71.0306 38.1536L54.2579 54.902L55.0386 55.6826Z" fill="#0074FF"/>
    <path d="M69.6468 36.7617C70.6117 35.793 72.1932 35.7914 73.1601 36.7674C74.1299 37.7321 74.1322 39.3124 73.1559 40.2781C72.1909 41.2468 70.6094 41.2484 69.6426 40.2723C68.6727 39.3077 68.6705 37.7274 69.6468 36.7617Z" fill="#0074FF"/>
    <path d="M71.2585 39.0528L94.1688 45.1915L94.4544 44.1258L71.5441 37.987L71.2585 39.0528Z" fill="#0074FF"/>
    <path d="M94.9556 42.2551C96.2832 42.6109 97.0726 43.9768 96.7172 45.3032C96.3618 46.6297 94.9952 47.4179 93.6676 47.0622C92.3399 46.7065 91.5505 45.3406 91.9059 44.0141C92.2614 42.6876 93.628 41.8994 94.9556 42.2551Z" fill="#0074FF"/>
    <path d="M41.8197 9.63843L42.8862 9.35309L36.7428 -13.5399L35.6763 -13.2545L41.8197 9.63843Z" fill="#0074FF"/>
    <path d="M44.7504 8.85003C45.1017 10.1715 44.321 11.5419 42.9987 11.8924C41.6764 12.2429 40.3046 11.4622 39.9533 10.1408C39.602 8.81932 40.3827 7.44883 41.7049 7.09834C43.0272 6.74787 44.3991 7.52859 44.7504 8.85003Z" fill="#0074FF"/>
    <path d="M25.9783 26.6342L42.751 9.88585L41.9703 9.1052L25.1976 25.8535L25.9783 26.6342Z" fill="#0074FF"/>
    <path d="M27.3468 28.0036C26.3818 28.9723 24.8003 28.9738 23.8334 27.9978C22.8636 27.0332 22.8614 25.4529 23.8377 24.4872C24.8027 23.5185 26.3841 23.5169 27.3509 24.4929C28.3178 25.4689 28.3231 27.0379 27.3468 28.0036Z" fill="#0074FF"/>
    <path d="M2.52791 20.6364L25.4381 26.7752L25.7237 25.7095L2.81346 19.5707L2.52791 20.6364Z" fill="#0074FF"/>
    <path d="M2.02654 22.5071C0.698925 22.1514 -0.0904766 20.7854 0.264952 19.459C0.620382 18.1325 1.98698 17.3443 3.31459 17.7C4.64224 18.0558 5.43168 19.4217 5.07625 20.7481C4.72082 22.0746 3.35419 22.8628 2.02654 22.5071Z" fill="#0074FF"/>
    <path d="M70.8735 38.6557L71.94 38.3704L65.7966 15.4774L64.7301 15.7628L70.8735 38.6557Z" fill="#0074FF"/>
    <path d="M73.8112 37.8776C74.1626 39.199 73.3818 40.5695 72.0595 40.92C70.7373 41.2704 69.3654 40.4897 69.0141 39.1683C68.6628 37.8468 69.4435 36.4764 70.7658 36.1259C72.0881 35.7754 73.4599 36.5561 73.8112 37.8776Z" fill="#0074FF"/>
    <path d="M55.0386 55.6826L71.8113 38.9343L71.0306 38.1536L54.2579 54.902L55.0386 55.6826Z" fill="#0074FF"/>
    <path d="M56.3932 57.0394C55.4282 58.0081 53.8468 58.0097 52.8799 57.0336C51.91 56.069 51.9078 54.4887 52.8841 53.523C53.8491 52.5543 55.4305 52.5527 56.3973 53.5287C57.3672 54.4934 57.3695 56.0737 56.3932 57.0394Z" fill="#0074FF"/>
    <path d="M31.5856 49.6753L54.4959 55.814L54.7814 54.7483L31.8712 48.6096L31.5856 49.6753Z" fill="#0074FF"/>
    <path d="M31.0874 51.5346C29.7598 51.1789 28.9704 49.813 29.3258 48.4865C29.6813 47.16 31.0478 46.3718 32.3755 46.7275C33.7031 47.0833 34.4925 48.4492 34.1371 49.7757C33.7816 51.1021 32.4151 51.8904 31.0874 51.5346Z" fill="#0074FF"/>
    <path d="M31.1922 49.2782L32.2587 48.9928L26.1153 26.0999L25.0488 26.3852L31.1922 49.2782Z" fill="#0074FF"/>
    <path d="M23.1823 26.8877C22.831 25.5663 23.6117 24.1958 24.9339 23.8453C26.2562 23.4948 27.6281 24.2755 27.9794 25.597C28.3307 26.9184 27.55 28.2889 26.2277 28.6394C24.9054 28.9898 23.5336 28.2091 23.1823 26.8877Z" fill="#0074FF"/>
    <path d="M25.9783 26.6342L42.751 9.88585L41.9703 9.1052L25.1976 25.8535L25.9783 26.6342Z" fill="#0074FF"/>
    <path d="M40.586 7.73418C41.5509 6.76545 43.1324 6.76391 44.0993 7.73991C45.0691 8.70457 45.0714 10.2849 44.095 11.2505C43.1301 12.2193 41.5486 12.2208 40.5817 11.2448C39.6119 10.2802 39.6096 8.69987 40.586 7.73418Z" fill="#0074FF"/>
    <path d="M42.209 10.0282L65.1192 16.167L65.4048 15.1013L42.4946 8.96254L42.209 10.0282Z" fill="#0074FF"/>
    <path d="M65.9061 13.2306C64.5775 12.8746 63.2121 13.6621 62.8564 14.9896C62.5007 16.317 63.2894 17.6817 64.618 18.0377C65.9466 18.3937 67.312 17.6062 67.6677 16.2787C68.0234 14.9513 67.2347 13.5866 65.9061 13.2306Z" fill="#0074FF"/>
    <path d="M110.552 28.0733L111.618 27.788L105.475 4.89501L104.408 5.18037L110.552 28.0733Z" fill="#0074FF"/>
    <path d="M113.481 27.2664C113.832 28.5878 113.052 29.9583 111.729 30.3088C110.407 30.6592 109.035 29.8785 108.684 28.5571C108.333 27.2357 109.113 25.8652 110.436 25.5147C111.758 25.1642 113.13 25.9449 113.481 27.2664Z" fill="#0074FF"/>
    <path d="M94.7112 45.0577L111.484 28.3094L110.703 27.5287L93.9305 44.2771L94.7112 45.0577Z" fill="#0074FF"/>
    <path d="M96.0775 46.4199C95.1125 47.3886 93.531 47.3902 92.5642 46.4142C91.5943 45.4495 91.5921 43.8692 92.5684 42.9035C93.5334 41.9348 95.1149 41.9333 96.0817 42.9093C97.0516 43.8739 97.0538 45.4542 96.0888 46.4229L96.0775 46.4199Z" fill="#0074FF"/>
    <path d="M71.2585 39.0528L94.1688 45.1915L94.4544 44.1258L71.5441 37.987L71.2585 39.0528Z" fill="#0074FF"/>
    <path d="M70.7573 40.9234C69.4297 40.5677 68.6403 39.2018 68.9957 37.8753C69.3511 36.5488 70.7177 35.7606 72.0454 36.1164C73.373 36.4721 74.1624 37.838 73.8069 39.1645C73.4515 40.4909 72.0849 41.2792 70.7573 40.9234Z" fill="#0074FF"/>
    <path d="M70.8735 38.6557L71.94 38.3704L65.7966 15.4774L64.7301 15.7628L70.8735 38.6557Z" fill="#0074FF"/>
    <path d="M62.8665 16.2682C62.5152 14.9468 63.2959 13.5763 64.6182 13.2258C65.9405 12.8753 67.3124 13.6561 67.6637 14.9775C68.015 16.2989 67.2343 17.6694 65.912 18.0199C64.5897 18.3704 63.2178 17.5896 62.8665 16.2682Z" fill="#0074FF"/>
    <path d="M65.6621 16.041L82.4348 -0.707341L81.6541 -1.48799L64.8814 15.2603L65.6621 16.041Z" fill="#0074FF"/>
    <path d="M80.2702 -2.88529C81.2352 -3.85402 82.8167 -3.85557 83.7835 -2.87957C84.7534 -1.91491 84.7556 -0.334618 83.7793 0.631075C82.8144 1.5998 81.2329 1.60135 80.266 0.625347C79.2961 -0.339314 79.2939 -1.9196 80.2702 -2.88529Z" fill="#0074FF"/>
    <path d="M81.8819 -0.594276L104.792 5.5445L105.078 4.47879L82.1675 -1.65999L81.8819 -0.594276Z" fill="#0074FF"/>
    <path d="M105.579 2.6081C104.25 2.2521 102.885 3.0396 102.529 4.36704C102.174 5.69448 102.962 7.05917 104.291 7.41517C105.62 7.77116 106.985 6.98365 107.341 5.65622C107.696 4.32878 106.908 2.96409 105.579 2.6081Z" fill="#0074FF"/>
    <path d="M139.611 57.0679L140.678 56.7826L134.535 33.8896L133.468 34.175L139.611 57.0679Z" fill="#0074FF"/>
    <path d="M142.542 56.2939C142.893 57.6153 142.113 58.9858 140.79 59.3363C139.468 59.6868 138.096 58.906 137.745 57.5846C137.393 56.2632 138.174 54.8927 139.497 54.5422C140.819 54.1917 142.191 54.9725 142.542 56.2939Z" fill="#0074FF"/>
    <path d="M99.9242 67.7131L100.991 67.4277L94.8473 44.5348L93.7808 44.8201L99.9242 67.7131Z" fill="#0074FF"/>
    <path d="M91.9129 45.304C91.5617 43.9826 92.3423 42.6121 93.6646 42.2616C94.9869 41.9111 96.3588 42.6919 96.7101 44.0133C97.0614 45.3347 96.2807 46.7052 94.9471 47.0527C93.6248 47.4031 92.2529 46.6224 91.9016 45.301L91.9129 45.304Z" fill="#0074FF"/>
    <path d="M94.7112 45.0577L111.484 28.3094L110.703 27.5287L93.9305 44.2771L94.7112 45.0577Z" fill="#0074FF"/>
    <path d="M109.328 26.1535C110.293 25.1848 111.874 25.1833 112.841 26.1593C113.808 27.1353 113.813 28.7042 112.837 29.6699C111.872 30.6386 110.291 30.6402 109.324 29.6642C108.354 28.6995 108.352 27.1192 109.328 26.1535Z" fill="#0074FF"/>
    <path d="M110.94 28.4446L133.85 34.5834L134.136 33.5177L111.225 27.3789L110.94 28.4446Z" fill="#0074FF"/>
    <path d="M134.637 31.647C133.308 31.291 131.943 32.0785 131.587 33.4059C131.231 34.7334 132.02 36.098 133.349 36.454C134.677 36.81 136.043 36.0225 136.398 34.6951C136.754 33.3677 135.965 32.003 134.637 31.647Z" fill="#0074FF"/>
    <path d="M179.281 46.4712L180.348 46.1858L174.205 23.2929L173.138 23.5782L179.281 46.4712Z" fill="#0074FF"/>
    <path d="M182.212 45.6827C182.563 47.0041 181.782 48.3746 180.46 48.7251C179.138 49.0755 177.766 48.2948 177.415 46.9734C177.063 45.6519 177.844 44.2815 179.166 43.931C180.489 43.5805 181.86 44.3612 182.212 45.6827Z" fill="#0074FF"/>
    <path d="M163.436 63.4668L180.208 46.7184L179.428 45.9378L162.655 62.6861L163.436 63.4668Z" fill="#0074FF"/>
    <path d="M164.808 64.8362C163.843 65.8049 162.262 65.8065 161.295 64.8305C160.325 63.8658 160.323 62.2855 161.299 61.3198C162.264 60.3511 163.846 60.3496 164.812 61.3256C165.779 62.3016 165.784 63.8705 164.808 64.8362Z" fill="#0074FF"/>
    <path d="M139.611 57.0679L140.678 56.7826L134.535 33.8896L133.468 34.175L139.611 57.0679Z" fill="#0074FF"/>
    <path d="M131.597 34.6845C131.246 33.363 132.027 31.9926 133.349 31.6421C134.671 31.2916 136.043 32.0723 136.394 33.3938C136.746 34.7152 135.965 36.0857 134.643 36.4362C133.32 36.7867 131.949 36.0059 131.597 34.6845Z" fill="#0074FF"/>
    <path d="M134.364 34.4005L151.14 17.6551L150.359 16.8743L133.584 33.6197L134.364 34.4005Z" fill="#0074FF"/>
    <path d="M149.001 15.531C149.966 14.5623 151.547 14.5607 152.514 15.5367C153.484 16.5014 153.486 18.0817 152.51 19.0474C151.545 20.0161 149.964 20.0177 148.997 19.0417C148.027 18.077 148.025 16.4967 149.001 15.531Z" fill="#0074FF"/>
    <path d="M150.613 17.822L173.523 23.9608L173.808 22.8951L150.898 16.7563L150.613 17.822Z" fill="#0074FF"/>
    <path d="M174.31 21.0244C175.637 21.3802 176.427 22.7461 176.071 24.0725C175.716 25.399 174.349 26.1872 173.022 25.8315C171.694 25.4758 170.905 24.1099 171.26 22.7834C171.615 21.4569 172.982 20.6687 174.31 21.0244Z" fill="#0074FF"/>
    <path d="M208.332 75.4998L209.399 75.2144L203.255 52.3215L202.189 52.6068L208.332 75.4998Z" fill="#0074FF"/>
    <path d="M211.273 74.7102C211.624 76.0316 210.843 77.4021 209.521 77.7526C208.199 78.1031 206.827 77.3223 206.476 76.0009C206.124 74.6795 206.905 73.309 208.227 72.9585C209.549 72.608 210.921 73.3888 211.273 74.7102Z" fill="#0074FF"/>
    <path d="M163.436 63.4668L180.208 46.7184L179.428 45.9378L162.655 62.6861L163.436 63.4668Z" fill="#0074FF"/>
    <path d="M178.059 44.5699C179.024 43.6011 180.605 43.5996 181.572 44.5756C182.542 45.5403 182.544 47.1205 181.568 48.0862C180.603 49.055 179.021 49.0565 178.055 48.0805C177.085 47.1158 177.082 45.5356 178.059 44.5699Z" fill="#0074FF"/>
    <path d="M179.67 46.8609L202.581 52.9997L202.866 51.934L179.956 45.7952L179.67 46.8609Z" fill="#0074FF"/>
    <path d="M203.368 50.0633C202.039 49.7073 200.674 50.4948 200.318 51.8222C199.962 53.1497 200.751 54.5144 202.079 54.8703C203.408 55.2263 204.773 54.4388 205.129 53.1114C205.485 51.784 204.696 50.4193 203.368 50.0633Z" fill="#0074FF"/>
    <path d="M248.005 64.8917L249.072 64.6063L242.928 41.7134L241.862 41.9987L248.005 64.8917Z" fill="#0074FF"/>
    <path d="M250.942 64.099C251.294 65.4204 250.513 66.7909 249.191 67.1414C247.869 67.4919 246.497 66.7111 246.145 65.3897C245.794 64.0683 246.575 62.6978 247.897 62.3473C249.219 61.9968 250.591 62.7776 250.942 64.099Z" fill="#0074FF"/>
    <path d="M232.163 81.8645L248.936 65.1162L248.155 64.3355L231.382 81.0839L232.163 81.8645Z" fill="#0074FF"/>
    <path d="M233.539 83.2525C232.574 84.2213 230.992 84.2228 230.026 83.2468C229.056 82.2821 229.053 80.7019 230.03 79.7362C230.995 78.7674 232.576 78.7659 233.543 79.7419C234.513 80.7065 234.515 82.2868 233.55 83.2556L233.539 83.2525Z" fill="#0074FF"/>
    <path d="M208.332 75.4998L209.399 75.2144L203.255 52.3215L202.189 52.6068L208.332 75.4998Z" fill="#0074FF"/>
    <path d="M200.328 53.1008C199.977 51.7794 200.757 50.4089 202.08 50.0584C203.402 49.708 204.774 50.4887 205.125 51.8101C205.476 53.1316 204.696 54.5021 203.373 54.8525C202.051 55.203 200.679 54.4223 200.328 53.1008Z" fill="#0074FF"/>
    <path d="M203.095 52.8297L219.87 36.0843L219.09 35.3035L202.314 52.0489L203.095 52.8297Z" fill="#0074FF"/>
    <path d="M217.732 33.9473C218.697 32.9786 220.278 32.9771 221.245 33.9531C222.215 34.9177 222.217 36.498 221.241 37.4637C220.276 38.4324 218.694 38.434 217.727 37.458C216.757 36.4933 216.755 34.913 217.732 33.9473Z" fill="#0074FF"/>
    <path d="M219.355 36.2414L242.265 42.3802L242.55 41.3145L219.64 35.1757L219.355 36.2414Z" fill="#0074FF"/>
    <path d="M243.052 39.4438C241.723 39.0878 240.358 39.8753 240.002 41.2027C239.646 42.5302 240.435 43.8949 241.764 44.2509C243.092 44.6068 244.458 43.8193 244.813 42.4919C245.169 41.1645 244.38 39.7998 243.052 39.4438Z" fill="#0074FF"/>
    <path d="M277.07 93.912L278.137 93.6267L271.993 70.7337L270.927 71.0191L277.07 93.912Z" fill="#0074FF"/>
    <path d="M280.003 93.1265C280.355 94.448 279.574 95.8185 278.252 96.1689C276.929 96.5194 275.558 95.7387 275.206 94.4172C274.855 93.0958 275.636 91.7253 276.958 91.3748C278.28 91.0244 279.652 91.8051 280.003 93.1265Z" fill="#0074FF"/>
    <path d="M232.163 81.8645L248.936 65.1162L248.155 64.3355L231.382 81.0839L232.163 81.8645Z" fill="#0074FF"/>
    <path d="M246.789 62.9862C247.754 62.0174 249.336 62.0159 250.303 62.9919C251.27 63.9679 251.275 65.5369 250.298 66.5025C249.334 67.4713 247.752 67.4728 246.785 66.4968C245.815 65.5322 245.813 63.9519 246.789 62.9862Z" fill="#0074FF"/>
    <path d="M248.401 65.2772L271.311 71.416L271.597 70.3503L248.687 64.2115L248.401 65.2772Z" fill="#0074FF"/>
    <path d="M272.098 68.4796C270.77 68.1236 269.404 68.9111 269.049 70.2385C268.693 71.566 269.482 72.9307 270.81 73.2867C272.139 73.6427 273.504 72.8552 273.86 71.5277C274.215 70.2003 273.427 68.8356 272.098 68.4796Z" fill="#0074FF"/>
    <path d="M277.07 93.912L278.137 93.6267L271.993 70.7337L270.927 71.0191L277.07 93.912Z" fill="#0074FF"/>
    <path d="M269.059 71.5172C268.707 70.1957 269.488 68.8252 270.81 68.4748C272.133 68.1243 273.504 68.905 273.856 70.2265C274.207 71.5479 273.426 72.9184 272.104 73.2689C270.782 73.6193 269.41 72.8386 269.059 71.5172Z" fill="#0074FF"/>
    <path d="M271.844 71.2827L288.617 54.5343L287.836 53.7537L271.063 70.502L271.844 71.2827Z" fill="#0074FF"/>
    <path d="M286.462 52.3636C287.427 51.3949 289.009 51.3934 289.976 52.3694C290.945 53.334 290.948 54.9143 289.971 55.88C289.006 56.8487 287.425 56.8503 286.458 55.8743C285.488 54.9096 285.486 53.3293 286.462 52.3636Z" fill="#0074FF"/>
    <path d="M288.085 54.6577L310.996 60.7965L311.281 59.7308L288.371 53.592L288.085 54.6577Z" fill="#0074FF"/>
    <path d="M311.782 57.8601C313.11 58.2158 313.899 59.5817 313.544 60.9082C313.189 62.2347 311.822 63.0229 310.494 62.6672C309.167 62.3114 308.377 60.9455 308.733 59.619C309.088 58.2926 310.455 57.5044 311.782 57.8601Z" fill="#0074FF"/>
    <path d="M385.467 101.724L386.533 101.439L380.39 78.5461L379.323 78.8314L385.467 101.724Z" fill="#0074FF"/>
    <path d="M388.415 100.935C388.767 102.256 387.986 103.627 386.664 103.977C385.341 104.328 383.969 103.547 383.618 102.225C383.267 100.904 384.048 99.5335 385.37 99.183C386.692 98.8325 388.064 99.6132 388.415 100.935Z" fill="#0074FF"/>
    <path d="M356.816 73.074L379.726 79.2128L380.012 78.1471L357.102 72.0083L356.816 73.074Z" fill="#0074FF"/>
    <path d="M380.513 76.2764C379.185 75.9204 377.819 76.7079 377.463 78.0354C377.108 79.3628 377.896 80.7275 379.225 81.0835C380.554 81.4395 381.919 80.652 382.275 79.3245C382.63 77.9971 381.842 76.6324 380.513 76.2764Z" fill="#0074FF"/>
    <path d="M81.5041 -0.995356L82.5706 -1.28069L76.4271 -24.1737L75.3606 -23.8883L81.5041 -0.995356Z" fill="#0074FF"/>
    <path d="M84.4346 -1.76946C84.7859 -0.448028 84.0052 0.92246 82.6829 1.27293C81.3607 1.62342 79.9888 0.842674 79.6374 -0.478754C79.2862 -1.80018 80.0669 -3.17066 81.3892 -3.52115C82.7115 -3.87162 84.0833 -3.09089 84.4346 -1.76946Z" fill="#0074FF"/>
    <path d="M65.6621 16.041L82.4348 -0.707341L81.6541 -1.48799L64.8814 15.2603L65.6621 16.041Z" fill="#0074FF"/>
    <path d="M67.0196 17.381C66.0546 18.3497 64.4732 18.3513 63.5063 17.3753C62.5365 16.4106 62.5342 14.8303 63.5105 13.8646C64.4755 12.8959 66.0569 12.8943 67.0238 13.8703C67.9937 14.835 67.9959 16.4153 67.0196 17.381Z" fill="#0074FF"/>
    <path d="M42.209 10.0282L65.1192 16.167L65.4048 15.1013L42.4946 8.96254L42.209 10.0282Z" fill="#0074FF"/>
    <path d="M41.7108 11.8876C40.3832 11.5319 39.5938 10.166 39.9492 8.83948C40.3046 7.51301 41.6712 6.72478 42.9989 7.08053C44.3265 7.43627 45.1159 8.80217 44.7604 10.1286C44.405 11.4551 43.0384 12.2433 41.7108 11.8876Z" fill="#0074FF"/>
    <path d="M41.8197 9.63843L42.8862 9.35309L36.7428 -13.5399L35.6763 -13.2545L41.8197 9.63843Z" fill="#0074FF"/>
    <path d="M33.8057 -12.7593C33.4543 -14.0808 34.2351 -15.4513 35.5573 -15.8017C36.8796 -16.1522 38.2515 -15.3715 38.6028 -14.0501C38.9541 -12.7286 38.1734 -11.3581 36.8511 -11.0077C35.5288 -10.6572 34.157 -11.4379 33.8057 -12.7593Z" fill="#0074FF"/>
    <path d="M121.171 -11.5807L122.237 -11.8661L116.094 -34.759L115.028 -34.4737L121.171 -11.5807Z" fill="#0074FF"/>
    <path d="M124.104 -12.3806C124.456 -11.0592 123.675 -9.68872 122.353 -9.33824C121.031 -8.98776 119.659 -9.7685 119.307 -11.0899C118.956 -12.4114 119.737 -13.7819 121.059 -14.1323C122.381 -14.4828 123.753 -13.7021 124.104 -12.3806Z" fill="#0074FF"/>
    <path d="M105.337 5.4047L122.11 -11.3436L121.329 -12.1243L104.557 4.62404L105.337 5.4047Z" fill="#0074FF"/>
    <path d="M106.701 6.77286C105.736 7.74158 104.154 7.74314 103.188 6.76714C102.218 5.80248 102.215 4.22219 103.192 3.25649C104.157 2.28776 105.738 2.28623 106.705 3.26222C107.675 4.22689 107.677 5.80717 106.712 6.77591L106.701 6.77286Z" fill="#0074FF"/>
    <path d="M81.8819 -0.594276L104.792 5.5445L105.078 4.47879L82.1675 -1.65999L81.8819 -0.594276Z" fill="#0074FF"/>
    <path d="M81.3807 1.27639C80.053 0.920653 79.2637 -0.445245 79.6191 -1.77173C79.9745 -3.09821 81.3411 -3.88642 82.6687 -3.53068C83.9963 -3.17494 84.7857 -1.80904 84.4303 -0.482562C84.0749 0.843921 82.7083 1.63213 81.3807 1.27639Z" fill="#0074FF"/>
    <path d="M81.5041 -0.995356L82.5706 -1.28069L76.4271 -24.1737L75.3606 -23.8883L81.5041 -0.995356Z" fill="#0074FF"/>
    <path d="M73.4899 -23.3788C73.1386 -24.7003 73.9193 -26.0707 75.2416 -26.4212C76.5639 -26.7717 77.9357 -25.991 78.2871 -24.6695C78.6384 -23.3481 77.8576 -21.9776 76.5354 -21.6271C75.2131 -21.2767 73.8412 -22.0574 73.4899 -23.3788Z" fill="#0074FF"/>
    <path d="M92.5053 -40.2413L115.416 -34.1025L115.701 -35.1682L92.7909 -41.307L92.5053 -40.2413Z" fill="#0074FF"/>
    <path d="M116.202 -37.0389C114.874 -37.3949 113.508 -36.6074 113.153 -35.28C112.797 -33.9525 113.586 -32.5878 114.914 -32.2319C116.243 -31.8759 117.608 -32.6634 117.964 -33.9908C118.32 -35.3182 117.531 -36.6829 116.202 -37.0389Z" fill="#0074FF"/>
    <path d="M150.228 17.4252L151.294 17.1398L145.151 -5.75314L144.084 -5.46781L150.228 17.4252Z" fill="#0074FF"/>
    <path d="M153.165 16.6469C153.517 17.9683 152.736 19.3388 151.414 19.6893C150.091 20.0397 148.719 19.259 148.368 17.9376C148.017 16.6161 148.798 15.2457 150.12 14.8952C151.442 14.5447 152.814 15.3254 153.165 16.6469Z" fill="#0074FF"/>
    <path d="M134.364 34.4005L151.14 17.6551L150.359 16.8743L133.584 33.6197L134.364 34.4005Z" fill="#0074FF"/>
    <path d="M135.75 35.7973C134.785 36.766 133.204 36.7676 132.237 35.7916C131.267 34.8269 131.265 33.2467 132.241 32.281C133.206 31.3122 134.788 31.3107 135.755 32.2867C136.724 33.2513 136.727 34.8316 135.75 35.7973Z" fill="#0074FF"/>
    <path d="M110.94 28.4446L133.85 34.5834L134.136 33.5177L111.225 27.3789L110.94 28.4446Z" fill="#0074FF"/>
    <path d="M111.727 25.5082C110.398 25.1522 109.033 25.9397 108.677 27.2671C108.321 28.5946 109.11 29.9593 110.439 30.3153C111.767 30.6713 113.133 29.8837 113.488 28.5563C113.844 27.2289 113.055 25.8642 111.727 25.5082Z" fill="#0074FF"/>
    <path d="M110.552 28.0733L111.618 27.788L105.475 4.89501L104.408 5.18037L110.552 28.0733Z" fill="#0074FF"/>
    <path d="M102.536 5.65698C102.185 4.33555 102.966 2.96506 104.288 2.61458C105.61 2.2641 106.982 3.04483 107.334 4.36626C107.685 5.6877 106.904 7.05818 105.57 7.40562C104.248 7.7561 102.876 6.97536 102.525 5.65394L102.536 5.65698Z" fill="#0074FF"/>
    <path d="M105.337 5.4047L122.11 -11.3436L121.329 -12.1243L104.557 4.62404L105.337 5.4047Z" fill="#0074FF"/>
    <path d="M119.951 -13.4935C120.916 -14.4622 122.498 -14.4638 123.465 -13.4878C124.435 -12.5231 124.437 -10.9428 123.46 -9.97713C122.495 -9.00841 120.914 -9.00685 119.947 -9.98285C118.977 -10.9475 118.975 -12.5278 119.951 -13.4935Z" fill="#0074FF"/>
    <path d="M121.563 -11.2024L144.473 -5.06367L144.759 -6.12939L121.849 -12.2682L121.563 -11.2024Z" fill="#0074FF"/>
    <path d="M145.26 -8.00006C143.932 -8.35606 142.566 -7.56855 142.211 -6.24111C141.855 -4.91367 142.644 -3.549 143.972 -3.19299C145.301 -2.837 146.666 -3.6245 147.022 -4.95194C147.377 -6.27938 146.589 -7.64406 145.26 -8.00006Z" fill="#0074FF"/>
    <path d="M189.901 6.81708L190.967 6.53173L184.824 -16.3612L183.757 -16.0759L189.901 6.81708Z" fill="#0074FF"/>
    <path d="M192.835 6.03565C193.186 7.35709 192.406 8.72759 191.083 9.07808C189.761 9.42855 188.389 8.64781 188.038 7.32638C187.687 6.00495 188.467 4.63446 189.79 4.28398C191.112 3.9335 192.484 4.71423 192.835 6.03565Z" fill="#0074FF"/>
    <path d="M174.059 23.8251L190.832 7.07676L190.051 6.29611L173.278 23.0444L174.059 23.8251Z" fill="#0074FF"/>
    <path d="M175.431 25.1892C174.467 26.1579 172.885 26.1595 171.918 25.1835C170.951 24.2075 170.946 22.6385 171.922 21.6728C172.887 20.7041 174.469 20.7025 175.436 21.6785C176.406 22.6432 176.408 24.2235 175.431 25.1892Z" fill="#0074FF"/>
    <path d="M150.613 17.822L173.523 23.9608L173.808 22.8951L150.898 16.7563L150.613 17.822Z" fill="#0074FF"/>
    <path d="M151.399 14.8856C150.071 14.5296 148.705 15.3171 148.35 16.6446C147.994 17.972 148.783 19.3367 150.111 19.6927C151.44 20.0487 152.805 19.2612 153.161 17.9337C153.517 16.6063 152.728 15.2416 151.399 14.8856Z" fill="#0074FF"/>
    <path d="M150.228 17.4252L151.294 17.1398L145.151 -5.75314L144.084 -5.46781L150.228 17.4252Z" fill="#0074FF"/>
    <path d="M142.221 -4.96252C141.869 -6.28395 142.65 -7.65443 143.972 -8.00491C145.295 -8.35539 146.666 -7.57467 147.018 -6.25323C147.369 -4.93181 146.588 -3.5613 145.266 -3.21082C143.944 -2.86034 142.572 -3.64109 142.221 -4.96252Z" fill="#0074FF"/>
    <path d="M145.002 -5.20593L161.774 -21.9543L160.994 -22.7349L144.221 -5.98658L145.002 -5.20593Z" fill="#0074FF"/>
    <path d="M159.624 -24.116C160.589 -25.0847 162.171 -25.0863 163.138 -24.1103C164.107 -23.1456 164.11 -21.5654 163.133 -20.5997C162.168 -19.6309 160.587 -19.6294 159.62 -20.6054C158.65 -21.57 158.648 -23.1503 159.624 -24.116Z" fill="#0074FF"/>
    <path d="M161.236 -21.825L184.146 -15.6862L184.432 -16.7519L161.521 -22.8907L161.236 -21.825Z" fill="#0074FF"/>
    <path d="M184.933 -18.6226C186.261 -18.2669 187.05 -16.901 186.695 -15.5745C186.339 -14.248 184.973 -13.4598 183.645 -13.8156C182.317 -14.1713 181.528 -15.5372 181.883 -16.8637C182.239 -18.1901 183.605 -18.9784 184.933 -18.6226Z" fill="#0074FF"/>
    <path d="M218.96 35.86L220.026 35.5747L213.883 12.6817L212.816 12.9671L218.96 35.86Z" fill="#0074FF"/>
    <path d="M221.896 35.0632C222.247 36.3846 221.467 37.7551 220.144 38.1056C218.822 38.4561 217.45 37.6753 217.099 36.3539C216.748 35.0325 217.528 33.662 218.851 33.3115C220.173 32.961 221.545 33.7417 221.896 35.0632Z" fill="#0074FF"/>
    <path d="M203.095 52.8297L219.87 36.0843L219.09 35.3035L202.314 52.0489L203.095 52.8297Z" fill="#0074FF"/>
    <path d="M204.481 54.2137C203.516 55.1824 201.935 55.184 200.968 54.208C199.998 53.2433 199.996 51.663 200.972 50.6973C201.937 49.7286 203.518 49.727 204.485 50.703C205.455 51.6677 205.457 53.248 204.481 54.2137Z" fill="#0074FF"/>
    <path d="M179.67 46.8609L202.581 52.9997L202.866 51.934L179.956 45.7952L179.67 46.8609Z" fill="#0074FF"/>
    <path d="M179.172 48.7203C177.845 48.3645 177.055 46.9986 177.411 45.6721C177.766 44.3457 179.133 43.5574 180.46 43.9132C181.788 44.2689 182.577 45.6348 182.222 46.9613C181.867 48.2878 180.5 49.076 179.172 48.7203Z" fill="#0074FF"/>
    <path d="M179.281 46.4712L180.348 46.1858L174.205 23.2929L173.138 23.5782L179.281 46.4712Z" fill="#0074FF"/>
    <path d="M171.267 24.0733C170.916 22.7519 171.696 21.3814 173.019 21.0309C174.341 20.6804 175.713 21.4612 176.064 22.7826C176.416 24.104 175.635 25.4745 174.313 25.825C172.99 26.1755 171.618 25.3947 171.267 24.0733Z" fill="#0074FF"/>
    <path d="M174.059 23.8251L190.832 7.07676L190.051 6.29611L173.278 23.0444L174.059 23.8251Z" fill="#0074FF"/>
    <path d="M188.682 4.92283C189.647 3.9541 191.229 3.95256 192.195 4.92857C193.165 5.89323 193.168 7.47351 192.191 8.4392C191.226 9.40793 189.645 9.40949 188.678 8.4335C187.708 7.46883 187.706 5.88852 188.682 4.92283Z" fill="#0074FF"/>
    <path d="M190.294 7.21391L213.204 13.3527L213.49 12.287L190.579 6.14818L190.294 7.21391Z" fill="#0074FF"/>
    <path d="M213.991 10.4163C212.662 10.0603 211.297 10.8478 210.941 12.1752C210.585 13.5027 211.374 14.8674 212.703 15.2234C214.031 15.5793 215.397 14.7918 215.752 13.4644C216.108 12.137 215.319 10.7723 213.991 10.4163Z" fill="#0074FF"/>
    <path d="M258.639 25.2293L259.705 24.944L253.562 2.05103L252.495 2.33638L258.639 25.2293Z" fill="#0074FF"/>
    <path d="M261.566 24.452C261.917 25.7734 261.136 27.1439 259.814 27.4944C258.492 27.8449 257.12 27.0641 256.769 25.7427C256.417 24.4213 257.198 23.0508 258.52 22.7003C259.843 22.3498 261.215 23.1306 261.566 24.452Z" fill="#0074FF"/>
    <path d="M242.786 42.2229L259.559 25.4745L258.778 24.6939L242.006 41.4422L242.786 42.2229Z" fill="#0074FF"/>
    <path d="M244.162 43.6055C243.197 44.5742 241.616 44.5758 240.649 43.5998C239.679 42.6351 239.677 41.0548 240.653 40.0891C241.618 39.1204 243.2 39.1189 244.166 40.0949C245.136 41.0595 245.139 42.6398 244.174 43.6085L244.162 43.6055Z" fill="#0074FF"/>
    <path d="M219.355 36.2414L242.265 42.3802L242.55 41.3145L219.64 35.1757L219.355 36.2414Z" fill="#0074FF"/>
    <path d="M218.853 38.1121C217.526 37.7563 216.736 36.3904 217.092 35.064C217.447 33.7375 218.814 32.9493 220.141 33.305C221.469 33.6607 222.259 35.0266 221.903 36.3531C221.548 37.6796 220.181 38.4678 218.853 38.1121Z" fill="#0074FF"/>
    <path d="M218.96 35.86L220.026 35.5747L213.883 12.6817L212.816 12.9671L218.96 35.86Z" fill="#0074FF"/>
    <path d="M210.951 13.4538C210.6 12.1324 211.381 10.7619 212.703 10.4114C214.025 10.0609 215.397 10.8417 215.748 12.1631C216.1 13.4845 215.319 14.855 213.997 15.2055C212.674 15.556 211.303 14.7752 210.951 13.4538Z" fill="#0074FF"/>
    <path d="M213.737 13.2062L230.51 -3.54213L229.729 -4.32278L212.957 12.4256L213.737 13.2062Z" fill="#0074FF"/>
    <path d="M228.355 -5.6997C229.32 -6.66843 230.901 -6.66997 231.868 -5.69398C232.838 -4.72932 232.84 -3.14904 231.864 -2.18334C230.899 -1.21462 229.318 -1.21305 228.351 -2.18905C227.381 -3.15371 227.379 -4.73401 228.355 -5.6997Z" fill="#0074FF"/>
    <path d="M229.978 -3.40562L252.888 2.73316L253.174 1.66743L230.264 -4.47135L229.978 -3.40562Z" fill="#0074FF"/>
    <path d="M253.675 -0.203251C252.346 -0.55925 250.981 0.228268 250.625 1.55571C250.27 2.88314 251.058 4.24782 252.387 4.60382C253.716 4.95981 255.081 4.17232 255.437 2.84489C255.792 1.51745 255.004 0.152743 253.675 -0.203251Z" fill="#0074FF"/>
    <path d="M287.689 54.2579L288.756 53.9726L282.613 31.0796L281.546 31.3649L287.689 54.2579Z" fill="#0074FF"/>
    <path d="M290.627 53.4795C290.978 54.8009 290.197 56.1714 288.875 56.5219C287.553 56.8724 286.181 56.0917 285.83 54.7702C285.478 53.4488 286.259 52.0783 287.581 51.7278C288.904 51.3773 290.275 52.1581 290.627 53.4795Z" fill="#0074FF"/>
    <path d="M271.844 71.2827L288.617 54.5343L287.836 53.7537L271.063 70.502L271.844 71.2827Z" fill="#0074FF"/>
    <path d="M273.212 72.63C272.247 73.5987 270.665 73.6003 269.699 72.6243C268.729 71.6596 268.726 70.0793 269.703 69.1136C270.668 68.1449 272.249 68.1433 273.216 69.1193C274.186 70.084 274.188 71.6643 273.212 72.63Z" fill="#0074FF"/>
    <path d="M248.401 65.2772L271.311 71.416L271.597 70.3503L248.687 64.2115L248.401 65.2772Z" fill="#0074FF"/>
    <path d="M249.188 62.3408C247.859 61.9848 246.494 62.7723 246.138 64.0998C245.783 65.4272 246.571 66.7919 247.9 67.1479C249.229 67.5039 250.594 66.7164 250.95 65.389C251.305 64.0615 250.517 62.6968 249.188 62.3408Z" fill="#0074FF"/>
    <path d="M248.005 64.8917L249.072 64.6063L242.928 41.7134L241.862 41.9987L248.005 64.8917Z" fill="#0074FF"/>
    <path d="M239.998 42.4896C239.646 41.1682 240.427 39.7977 241.75 39.4472C243.072 39.0968 244.444 39.8775 244.795 41.1989C245.146 42.5204 244.366 43.8908 243.032 44.2383C241.71 44.5888 240.338 43.808 239.986 42.4866L239.998 42.4896Z" fill="#0074FF"/>
    <path d="M242.786 42.2229L259.559 25.4745L258.778 24.6939L242.006 41.4422L242.786 42.2229Z" fill="#0074FF"/>
    <path d="M257.413 23.3392C258.378 22.3704 259.959 22.3689 260.926 23.3449C261.896 24.3096 261.898 25.8898 260.922 26.8555C259.957 27.8243 258.375 27.8258 257.409 26.8498C256.439 25.8851 256.436 24.3048 257.413 23.3392Z" fill="#0074FF"/>
    <path d="M259.025 25.6302L281.935 31.769L282.22 30.7032L259.31 24.5645L259.025 25.6302Z" fill="#0074FF"/>
    <path d="M282.722 28.8326C281.393 28.4766 280.028 29.2641 279.672 30.5915C279.316 31.919 280.105 33.2836 281.434 33.6396C282.762 33.9956 284.128 33.2081 284.483 31.8807C284.839 30.5533 284.05 29.1886 282.722 28.8326Z" fill="#0074FF"/>
    <path d="M327.362 43.6498L328.429 43.3645L322.286 20.4715L321.219 20.7569L327.362 43.6498Z" fill="#0074FF"/>
    <path d="M330.297 42.8683C330.648 44.1897 329.867 45.5602 328.545 45.9107C327.223 46.2612 325.851 45.4805 325.499 44.159C325.148 42.8376 325.929 41.4671 327.251 41.1166C328.573 40.7661 329.945 41.5469 330.297 42.8683Z" fill="#0074FF"/>
    <path d="M311.528 60.6607L328.3 43.9124L327.52 43.1317L310.747 59.8801L311.528 60.6607Z" fill="#0074FF"/>
    <path d="M312.893 62.0218C311.928 62.9906 310.346 62.9921 309.38 62.0161C308.413 61.0401 308.408 59.4712 309.384 58.5055C310.349 57.5367 311.93 57.5352 312.897 58.5112C313.867 59.4759 313.869 61.0561 312.893 62.0218Z" fill="#0074FF"/>
    <path d="M288.085 54.6577L310.996 60.7965L311.281 59.7308L288.371 53.592L288.085 54.6577Z" fill="#0074FF"/>
    <path d="M288.872 51.7213C287.544 51.3653 286.178 52.1528 285.823 53.4803C285.467 54.8077 286.256 56.1724 287.584 56.5284C288.913 56.8844 290.278 56.0969 290.634 54.7694C290.989 53.442 290.201 52.0773 288.872 51.7213Z" fill="#0074FF"/>
    <path d="M287.689 54.2579L288.756 53.9726L282.613 31.0796L281.546 31.3649L287.689 54.2579Z" fill="#0074FF"/>
    <path d="M279.682 31.8701C279.331 30.5487 280.111 29.1782 281.434 28.8277C282.756 28.4773 284.128 29.258 284.479 30.5794C284.831 31.9009 284.05 33.2714 282.728 33.6218C281.405 33.9723 280.033 33.1916 279.682 31.8701Z" fill="#0074FF"/>
    <path d="M282.454 31.6009L299.226 14.8526L298.446 14.0719L281.673 30.8203L282.454 31.6009Z" fill="#0074FF"/>
    <path d="M297.086 12.7166C298.051 11.7479 299.632 11.7464 300.599 12.7223C301.569 13.687 301.571 15.2673 300.595 16.233C299.63 17.2017 298.048 17.2033 297.081 16.2273C296.112 15.2626 296.109 13.6823 297.086 12.7166Z" fill="#0074FF"/>
    <path d="M298.709 15.0107L321.619 21.1495L321.905 20.0838L298.994 13.945L298.709 15.0107Z" fill="#0074FF"/>
    <path d="M322.406 18.2131C323.733 18.5688 324.523 19.9347 324.167 21.2612C323.812 22.5877 322.445 23.3759 321.118 23.0201C319.79 22.6644 319.001 21.2985 319.356 19.972C319.712 18.6456 321.078 17.8573 322.406 18.2131Z" fill="#0074FF"/>
    <path d="M356.424 72.6815L357.491 72.3961L351.348 49.5032L350.281 49.7885L356.424 72.6815Z" fill="#0074FF"/>
    <path d="M359.357 71.8958C359.709 73.2173 358.928 74.5877 357.606 74.9382C356.284 75.2887 354.912 74.508 354.56 73.1865C354.209 71.8651 354.99 70.4946 356.312 70.1441C357.634 69.7937 359.006 70.5744 359.357 71.8958Z" fill="#0074FF"/>
    <path d="M311.528 60.6607L328.3 43.9124L327.52 43.1317L310.747 59.8801L311.528 60.6607Z" fill="#0074FF"/>
    <path d="M326.143 41.7555C327.108 40.7867 328.69 40.7852 329.657 41.7612C330.627 42.7259 330.629 44.3061 329.653 45.2718C328.688 46.2406 327.106 46.2421 326.139 45.2661C325.169 44.3015 325.167 42.7212 326.143 41.7555Z" fill="#0074FF"/>
    <path d="M327.755 44.0465L350.665 50.1853L350.951 49.1196L328.041 42.9808L327.755 44.0465Z" fill="#0074FF"/>
    <path d="M351.452 47.2489C350.124 46.8929 348.758 47.6804 348.403 49.0078C348.047 50.3353 348.836 51.7 350.164 52.056C351.493 52.4119 352.858 51.6244 353.214 50.297C353.57 48.9696 352.781 47.6049 351.452 47.2489Z" fill="#0074FF"/>
    <path d="M396.097 62.0734L397.164 61.788L391.021 38.8951L389.954 39.1804L396.097 62.0734Z" fill="#0074FF"/>
    <path d="M399.039 61.2877C399.39 62.6091 398.609 63.9796 397.287 64.3301C395.965 64.6806 394.593 63.8998 394.241 62.5784C393.89 61.2569 394.671 59.8865 395.993 59.536C397.315 59.1855 398.687 59.9662 399.039 61.2877Z" fill="#0074FF"/>
    <path d="M380.252 79.0698L397.025 62.3215L396.244 61.5408L379.471 78.2892L380.252 79.0698Z" fill="#0074FF"/>
    <path d="M381.624 80.4382C380.659 81.4069 379.077 81.4084 378.11 80.4324C377.141 79.4678 377.138 77.8875 378.115 76.9218C379.08 75.9531 380.661 75.9515 381.628 76.9275C382.598 77.8922 382.6 79.4725 381.624 80.4382Z" fill="#0074FF"/>
    <path d="M356.816 73.074L379.726 79.2128L380.012 78.1471L357.102 72.0083L356.816 73.074Z" fill="#0074FF"/>
    <path d="M357.603 70.1376C356.274 69.7816 354.909 70.5692 354.553 71.8966C354.198 73.224 354.986 74.5887 356.315 74.9447C357.643 75.3007 359.009 74.5132 359.364 73.1858C359.72 71.8583 358.931 70.4936 357.603 70.1376Z" fill="#0074FF"/>
    <path d="M356.424 72.6815L357.491 72.3961L351.348 49.5032L350.281 49.7885L356.424 72.6815Z" fill="#0074FF"/>
    <path d="M348.413 50.2864C348.061 48.965 348.842 47.5945 350.164 47.244C351.487 46.8936 352.858 47.6743 353.21 48.9957C353.561 50.3172 352.78 51.6877 351.458 52.0381C350.136 52.3886 348.764 51.6079 348.413 50.2864Z" fill="#0074FF"/>
    <path d="M351.195 50.0388L367.967 33.2905L367.187 32.5098L350.414 49.2581L351.195 50.0388Z" fill="#0074FF"/>
    <path d="M365.816 31.1329C366.781 30.1642 368.363 30.1627 369.33 31.1387C370.296 32.1147 370.302 33.6836 369.325 34.6493C368.36 35.618 366.779 35.6196 365.812 34.6436C364.842 33.6789 364.84 32.0986 365.816 31.1329Z" fill="#0074FF"/>
    <path d="M367.439 33.427L390.35 39.5658L390.635 38.5001L367.725 32.3613L367.439 33.427Z" fill="#0074FF"/>
    <path d="M391.136 36.6294C389.808 36.2734 388.443 37.0609 388.087 38.3883C387.731 39.7158 388.52 41.0805 389.848 41.4365C391.177 41.7925 392.542 41.005 392.898 39.6775C393.254 38.3501 392.465 36.9854 391.136 36.6294Z" fill="#0074FF"/>
    <path d="M425.151 91.0906L426.218 90.8053L420.074 67.9123L419.008 68.1977L425.151 91.0906Z" fill="#0074FF"/>
    <path d="M428.088 90.3121C428.439 91.6336 427.659 93.0041 426.336 93.3545C425.014 93.705 423.642 92.9243 423.291 91.6029C422.94 90.2814 423.72 88.9109 425.043 88.5605C426.365 88.21 427.737 88.9907 428.088 90.3121Z" fill="#0074FF"/>
    <path d="M385.467 101.724L386.533 101.439L380.39 78.5461L379.323 78.8314L385.467 101.724Z" fill="#0074FF"/>
    <path d="M377.459 79.3223C377.108 78.0008 377.889 76.6304 379.211 76.2799C380.533 75.9294 381.905 76.7101 382.256 78.0316C382.608 79.353 381.827 80.7235 380.505 81.074C379.182 81.4244 377.811 80.6437 377.459 79.3223Z" fill="#0074FF"/>
    <path d="M380.252 79.0698L397.025 62.3215L396.244 61.5408L379.471 78.2892L380.252 79.0698Z" fill="#0074FF"/>
    <path d="M394.874 60.1718C395.839 59.2031 397.421 59.2015 398.387 60.1775C399.357 61.1422 399.36 62.7225 398.383 63.6882C397.418 64.6569 395.837 64.6584 394.87 63.6824C393.9 62.7178 393.898 61.1375 394.874 60.1718Z" fill="#0074FF"/>
    <path d="M396.486 62.4628L419.396 68.6016L419.682 67.5359L396.771 61.3971L396.486 62.4628Z" fill="#0074FF"/>
    <path d="M420.183 65.6652C418.854 65.3092 417.489 66.0967 417.133 67.4242C416.778 68.7516 417.566 70.1163 418.895 70.4723C420.224 70.8283 421.589 70.0408 421.945 68.7133C422.3 67.3859 421.512 66.0212 420.183 65.6652Z" fill="#0074FF"/>
    <path d="M425.151 91.0906L426.218 90.8053L420.074 67.9123L419.008 68.1977L425.151 91.0906Z" fill="#0074FF"/>
    <path d="M417.143 68.7028C416.792 67.3813 417.573 66.0109 418.895 65.6604C420.217 65.3099 421.589 66.0906 421.941 67.4121C422.292 68.7335 421.511 70.104 420.189 70.4545C418.867 70.8049 417.495 70.0242 417.143 68.7028Z" fill="#0074FF"/>
    <path d="M419.928 68.4622L436.7 51.7139L435.92 50.9332L419.147 67.6815L419.928 68.4622Z" fill="#0074FF"/>
    <path d="M434.547 49.5493C435.512 48.5805 437.093 48.579 438.06 49.555C439.03 50.5196 439.032 52.0999 438.056 53.0656C437.091 54.0344 435.51 54.0359 434.543 53.0599C433.573 52.0952 433.571 50.515 434.547 49.5493Z" fill="#0074FF"/>
    <path d="M436.17 51.8433L459.08 57.9821L459.366 56.9164L436.456 50.7776L436.17 51.8433Z" fill="#0074FF"/>
    <path d="M459.867 55.0457C461.195 55.4015 461.984 56.7674 461.629 58.0938C461.273 59.4203 459.907 60.2085 458.579 59.8528C457.252 59.497 456.462 58.1312 456.818 56.8047C457.173 55.4782 458.54 54.69 459.867 55.0457Z" fill="#0074FF"/>
    <path d="M115.936 -34.2758L132.711 -51.0212L131.931 -51.802L115.155 -35.0566L115.936 -34.2758Z" fill="#0074FF"/>
    <path d="M117.324 -32.8742C116.359 -31.9054 114.778 -31.9039 113.811 -32.8799C112.841 -33.8445 112.839 -35.4248 113.815 -36.3905C114.78 -37.3592 116.362 -37.3608 117.328 -36.3848C118.298 -35.4201 118.301 -33.8398 117.336 -32.8711L117.324 -32.8742Z" fill="#0074FF"/>
    <path d="M92.5053 -40.2413L115.416 -34.1025L115.701 -35.1682L92.7909 -41.307L92.5053 -40.2413Z" fill="#0074FF"/>
    <path d="M92.0041 -38.3706C90.6764 -38.7264 89.887 -40.0923 90.2425 -41.4187C90.5979 -42.7452 91.9645 -43.5334 93.2921 -43.1777C94.6197 -42.822 95.4091 -41.4561 95.0537 -40.1296C94.6983 -38.8031 93.3317 -38.0149 92.0041 -38.3706Z" fill="#0074FF"/>
    <path d="M160.855 -22.2145L161.922 -22.4999L155.778 -45.3928L154.712 -45.1075L160.855 -22.2145Z" fill="#0074FF"/>
    <path d="M163.789 -23.0001C164.14 -21.6787 163.359 -20.3082 162.037 -19.9577C160.715 -19.6072 159.343 -20.388 158.992 -21.7094C158.64 -23.0309 159.421 -24.4013 160.743 -24.7518C162.066 -25.1023 163.437 -24.3216 163.789 -23.0001Z" fill="#0074FF"/>
    <path d="M145.002 -5.20593L161.774 -21.9543L160.994 -22.7349L144.221 -5.98658L145.002 -5.20593Z" fill="#0074FF"/>
    <path d="M146.374 -3.84966C145.409 -2.88093 143.827 -2.87937 142.861 -3.85537C141.891 -4.82003 141.888 -6.40032 142.865 -7.36602C143.83 -8.33475 145.411 -8.3363 146.378 -7.36031C147.348 -6.39564 147.35 -4.81535 146.374 -3.84966Z" fill="#0074FF"/>
    <path d="M121.563 -11.2024L144.473 -5.06367L144.759 -6.12939L121.849 -12.2682L121.563 -11.2024Z" fill="#0074FF"/>
    <path d="M122.35 -14.1388C121.021 -14.4948 119.656 -13.7073 119.3 -12.3799C118.945 -11.0524 119.733 -9.68777 121.062 -9.33177C122.391 -8.97578 123.756 -9.76327 124.112 -11.0907C124.467 -12.4182 123.679 -13.7828 122.35 -14.1388Z" fill="#0074FF"/>
    <path d="M121.171 -11.5807L122.237 -11.8661L116.094 -34.759L115.028 -34.4737L121.171 -11.5807Z" fill="#0074FF"/>
    <path d="M113.16 -33.9901C112.808 -35.3115 113.589 -36.682 114.911 -37.0325C116.234 -37.3829 117.606 -36.6022 117.957 -35.2808C118.308 -33.9593 117.527 -32.5888 116.194 -32.2414C114.872 -31.8909 113.5 -32.6717 113.148 -33.9931L113.16 -33.9901Z" fill="#0074FF"/>
    <path d="M115.936 -34.2758L132.711 -51.0212L131.931 -51.802L115.155 -35.0566L115.936 -34.2758Z" fill="#0074FF"/>
    <path d="M130.575 -53.1405C131.54 -54.1092 133.121 -54.1108 134.088 -53.1348C135.058 -52.1701 135.06 -50.5898 134.084 -49.6241C133.119 -48.6554 131.537 -48.6539 130.571 -49.6299C129.601 -50.5945 129.598 -52.1748 130.575 -53.1405Z" fill="#0074FF"/>
    <path d="M132.19 -50.8608L155.1 -44.722L155.385 -45.7878L132.475 -51.9265L132.19 -50.8608Z" fill="#0074FF"/>
    <path d="M155.884 -47.6471C154.555 -48.0031 153.19 -47.2156 152.834 -45.8882C152.478 -44.5607 153.267 -43.196 154.596 -42.84C155.924 -42.484 157.29 -43.2716 157.645 -44.599C158.001 -45.9264 157.212 -47.2911 155.884 -47.6471Z" fill="#0074FF"/>
    <path d="M200.531 -32.834L201.598 -33.1194L195.454 -56.0123L194.388 -55.727L200.531 -32.834Z" fill="#0074FF"/>
    <path d="M203.459 -33.6114C203.81 -32.29 203.029 -30.9195 201.707 -30.569C200.385 -30.2185 199.013 -30.9993 198.661 -32.3207C198.31 -33.6421 199.091 -35.0126 200.413 -35.3631C201.735 -35.7136 203.107 -34.9328 203.459 -33.6114Z" fill="#0074FF"/>
    <path d="M184.669 -15.858L201.445 -32.6034L200.664 -33.3842L183.889 -16.6388L184.669 -15.858Z" fill="#0074FF"/>
    <path d="M186.055 -14.4578C185.09 -13.4891 183.508 -13.4876 182.542 -14.4636C181.572 -15.4282 181.57 -17.0085 182.546 -17.9742C183.511 -18.9429 185.092 -18.9445 186.059 -17.9685C187.029 -17.0038 187.031 -15.4235 186.055 -14.4578Z" fill="#0074FF"/>
    <path d="M161.236 -21.825L184.146 -15.6862L184.432 -16.7519L161.521 -22.8907L161.236 -21.825Z" fill="#0074FF"/>
    <path d="M162.023 -24.7614C160.694 -25.1174 159.329 -24.3299 158.973 -23.0024C158.617 -21.675 159.406 -20.3103 160.735 -19.9543C162.063 -19.5983 163.429 -20.3858 163.784 -21.7133C164.14 -23.0407 163.351 -24.4054 162.023 -24.7614Z" fill="#0074FF"/>
    <path d="M160.855 -22.2145L161.922 -22.4999L155.778 -45.3928L154.712 -45.1075L160.855 -22.2145Z" fill="#0074FF"/>
    <path d="M152.844 -44.6095C152.493 -45.931 153.273 -47.3015 154.596 -47.6519C155.918 -48.0024 157.29 -47.2217 157.641 -45.9002C157.992 -44.5788 157.212 -43.2083 155.889 -42.8579C154.567 -42.5074 153.195 -43.2881 152.844 -44.6095Z" fill="#0074FF"/>
    <path d="M155.628 -44.8589L172.401 -61.6072L171.62 -62.3879L154.847 -45.6396L155.628 -44.8589Z" fill="#0074FF"/>
    <path d="M170.248 -63.763C171.213 -64.7318 172.794 -64.7333 173.761 -63.7573C174.731 -62.7927 174.733 -61.2124 173.757 -60.2467C172.792 -59.278 171.21 -59.2764 170.243 -60.2524C169.274 -61.2171 169.271 -62.7974 170.248 -63.763Z" fill="#0074FF"/>
    <path d="M229.576 -3.7827L230.642 -4.06805L224.499 -26.961L223.432 -26.6756L229.576 -3.7827Z" fill="#0074FF"/>
    <path d="M232.519 -4.58381C232.871 -3.26238 232.09 -1.89189 230.768 -1.5414C229.445 -1.19093 228.074 -1.97168 227.722 -3.2931C227.371 -4.61454 228.152 -5.98503 229.474 -6.33551C230.796 -6.68599 232.168 -5.90525 232.519 -4.58381Z" fill="#0074FF"/>
    <path d="M213.737 13.2062L230.51 -3.54213L229.729 -4.32278L212.957 12.4256L213.737 13.2062Z" fill="#0074FF"/>
    <path d="M215.104 14.5667C214.139 15.5354 212.558 15.5369 211.591 14.5609C210.621 13.5963 210.619 12.016 211.595 11.0503C212.56 10.0816 214.142 10.08 215.109 11.056C216.079 12.0207 216.081 13.601 215.104 14.5667Z" fill="#0074FF"/>
    <path d="M190.294 7.21391L213.204 13.3527L213.49 12.287L190.579 6.14818L190.294 7.21391Z" fill="#0074FF"/>
    <path d="M189.796 9.07323C188.468 8.7175 187.679 7.35159 188.034 6.02512C188.389 4.69863 189.756 3.91042 191.084 4.26615C192.411 4.62189 193.201 5.98781 192.845 7.31429C192.49 8.64077 191.123 9.42897 189.796 9.07323Z" fill="#0074FF"/>
    <path d="M189.901 6.81708L190.967 6.53173L184.824 -16.3612L183.757 -16.0759L189.901 6.81708Z" fill="#0074FF"/>
    <path d="M181.89 -15.5737C181.539 -16.8951 182.32 -18.2656 183.642 -18.6161C184.964 -18.9666 186.336 -18.1858 186.688 -16.8644C187.039 -15.543 186.258 -14.1725 184.936 -13.822C183.614 -13.4715 182.242 -14.2523 181.89 -15.5737Z" fill="#0074FF"/>
    <path d="M184.669 -15.858L201.445 -32.6034L200.664 -33.3842L183.889 -16.6388L184.669 -15.858Z" fill="#0074FF"/>
    <path d="M199.305 -34.7242C200.27 -35.6929 201.852 -35.6944 202.819 -34.7184C203.789 -33.7538 203.791 -32.1735 202.815 -31.2078C201.85 -30.2391 200.268 -30.2376 199.301 -31.2135C198.331 -32.1782 198.329 -33.7585 199.305 -34.7242Z" fill="#0074FF"/>
    <path d="M200.92 -32.4445L223.83 -26.3057L224.116 -27.3714L201.206 -33.5102L200.92 -32.4445Z" fill="#0074FF"/>
    <path d="M224.614 -29.2308C223.286 -29.5868 221.92 -28.7992 221.565 -27.4718C221.209 -26.1444 221.998 -24.7797 223.326 -24.4237C224.655 -24.0677 226.02 -24.8552 226.376 -26.1826C226.732 -27.5101 225.943 -28.8748 224.614 -29.2308Z" fill="#0074FF"/>
    <path d="M269.255 -14.4135L270.321 -14.6988L264.178 -37.5918L263.111 -37.3064L269.255 -14.4135Z" fill="#0074FF"/>
    <path d="M272.189 -15.1951C272.541 -13.8737 271.76 -12.5032 270.438 -12.1527C269.115 -11.8022 267.743 -12.5829 267.392 -13.9044C267.041 -15.2258 267.822 -16.5963 269.144 -16.9468C270.466 -17.2972 271.838 -16.5165 272.189 -15.1951Z" fill="#0074FF"/>
    <path d="M253.427 2.60996L270.199 -14.1384L269.419 -14.919L252.646 1.82932L253.427 2.60996Z" fill="#0074FF"/>
    <path d="M254.786 3.95847C253.821 4.9272 252.239 4.92875 251.272 3.95275C250.302 2.98809 250.3 1.40781 251.277 0.442114C252.241 -0.526612 253.823 -0.528165 254.79 0.447827C255.76 1.41249 255.762 2.99277 254.797 3.96151L254.786 3.95847Z" fill="#0074FF"/>
    <path d="M229.978 -3.40562L252.888 2.73316L253.174 1.66743L230.264 -4.47135L229.978 -3.40562Z" fill="#0074FF"/>
    <path d="M229.477 -1.53495C228.149 -1.89069 227.36 -3.25658 227.715 -4.58306C228.071 -5.90954 229.437 -6.69777 230.765 -6.34202C232.093 -5.98628 232.882 -4.62037 232.526 -3.29389C232.171 -1.9674 230.804 -1.17921 229.477 -1.53495Z" fill="#0074FF"/>
    <path d="M229.576 -3.7827L230.642 -4.06805L224.499 -26.961L223.432 -26.6756L229.576 -3.7827Z" fill="#0074FF"/>
    <path d="M221.575 -26.1932C221.223 -27.5146 222.004 -28.8851 223.326 -29.2356C224.649 -29.5861 226.02 -28.8053 226.372 -27.4839C226.723 -26.1625 225.942 -24.792 224.62 -24.4415C223.298 -24.091 221.926 -24.8718 221.575 -26.1932Z" fill="#0074FF"/>
    <path d="M224.361 -26.4354L241.134 -43.1838L240.353 -43.9644L223.58 -27.2161L224.361 -26.4354Z" fill="#0074FF"/>
    <path d="M238.978 -45.3467C239.943 -46.3155 241.525 -46.317 242.492 -45.341C243.462 -44.3764 243.464 -42.7961 242.487 -41.8304C241.511 -40.8647 239.941 -40.8601 238.974 -41.8361C238.004 -42.8007 238.002 -44.381 238.978 -45.3467Z" fill="#0074FF"/>
    <path d="M298.317 14.6181L299.383 14.3328L293.24 -8.56015L292.174 -8.27481L298.317 14.6181Z" fill="#0074FF"/>
    <path d="M301.25 13.8325C301.601 15.1539 300.821 16.5244 299.498 16.8749C298.176 17.2254 296.804 16.4446 296.453 15.1232C296.102 13.8018 296.882 12.4313 298.205 12.0808C299.527 11.7303 300.899 12.511 301.25 13.8325Z" fill="#0074FF"/>
    <path d="M282.454 31.6009L299.226 14.8526L298.446 14.0719L281.673 30.8203L282.454 31.6009Z" fill="#0074FF"/>
    <path d="M283.835 32.9829C282.87 33.9517 281.289 33.9532 280.322 32.9772C279.352 32.0126 279.35 30.4323 280.326 29.4666C281.291 28.4979 282.873 28.4963 283.839 29.4723C284.809 30.437 284.812 32.0173 283.835 32.9829Z" fill="#0074FF"/>
    <path d="M259.025 25.6302L281.935 31.769L282.22 30.7032L259.31 24.5645L259.025 25.6302Z" fill="#0074FF"/>
    <path d="M259.811 22.6938C258.483 22.3378 257.117 23.1253 256.762 24.4527C256.406 25.7802 257.195 27.1449 258.523 27.5009C259.852 27.8569 261.217 27.0694 261.573 25.7419C261.929 24.4145 261.14 23.0498 259.811 22.6938Z" fill="#0074FF"/>
    <path d="M258.639 25.2293L259.705 24.944L253.562 2.05103L252.495 2.33638L258.639 25.2293Z" fill="#0074FF"/>
    <path d="M250.621 2.8426C250.27 1.52117 251.051 0.150691 252.373 -0.199792C253.695 -0.550276 255.067 0.230466 255.418 1.55189C255.77 2.87332 254.989 4.24382 253.655 4.59126C252.333 4.94174 250.961 4.161 250.61 2.83957L250.621 2.8426Z" fill="#0074FF"/>
    <path d="M253.427 2.60996L270.199 -14.1384L269.419 -14.919L252.646 1.82932L253.427 2.60996Z" fill="#0074FF"/>
    <path d="M268.036 -16.3079C269.001 -17.2766 270.583 -17.2781 271.549 -16.3021C272.519 -15.3375 272.522 -13.7572 271.545 -12.7915C270.58 -11.8228 268.999 -11.8212 268.032 -12.7972C267.062 -13.7619 267.06 -15.3422 268.036 -16.3079Z" fill="#0074FF"/>
    <path d="M269.651 -14.0282L292.561 -7.8894L292.847 -8.95512L269.937 -15.0939L269.651 -14.0282Z" fill="#0074FF"/>
    <path d="M293.345 -10.8145C292.016 -11.1705 290.651 -10.3829 290.295 -9.05551C289.94 -7.72808 290.728 -6.36339 292.057 -6.0074C293.386 -5.6514 294.751 -6.43891 295.107 -7.76633C295.462 -9.09378 294.674 -10.4585 293.345 -10.8145Z" fill="#0074FF"/>
    <path d="M337.99 4.01006L339.056 3.72471L332.913 -19.1683L331.847 -18.8829L337.99 4.01006Z" fill="#0074FF"/>
    <path d="M340.92 3.22126C341.271 4.54268 340.491 5.91317 339.168 6.26365C337.846 6.61413 336.474 5.83342 336.123 4.51199C335.772 3.19057 336.552 1.82007 337.875 1.46959C339.197 1.1191 340.569 1.89983 340.92 3.22126Z" fill="#0074FF"/>
    <path d="M322.147 20.9808L338.923 4.23543L338.142 3.45463L321.366 20.2L322.147 20.9808Z" fill="#0074FF"/>
    <path d="M323.516 22.3748C322.551 23.3435 320.97 23.3451 320.003 22.3691C319.033 21.4044 319.031 19.8241 320.007 18.8584C320.972 17.8897 322.554 17.8882 323.521 18.8642C324.49 19.8288 324.493 21.4091 323.516 22.3748Z" fill="#0074FF"/>
    <path d="M298.709 15.0107L321.619 21.1495L321.905 20.0838L298.994 13.945L298.709 15.0107Z" fill="#0074FF"/>
    <path d="M299.496 12.0743C298.167 11.7183 296.802 12.5058 296.446 13.8333C296.09 15.1607 296.879 16.5254 298.208 16.8814C299.536 17.2374 300.902 16.4499 301.257 15.1224C301.613 13.795 300.824 12.4303 299.496 12.0743Z" fill="#0074FF"/>
    <path d="M298.317 14.6181L299.383 14.3328L293.24 -8.56015L292.174 -8.27481L298.317 14.6181Z" fill="#0074FF"/>
    <path d="M290.305 -7.77686C289.954 -9.09829 290.735 -10.4688 292.057 -10.8193C293.379 -11.1697 294.751 -10.389 295.103 -9.06756C295.454 -7.74614 294.673 -6.37566 293.351 -6.02517C292.029 -5.67469 290.657 -6.45544 290.305 -7.77686Z" fill="#0074FF"/>
    <path d="M293.077 -8.04074L309.85 -24.7891L309.069 -25.5697L292.296 -8.82138L293.077 -8.04074Z" fill="#0074FF"/>
    <path d="M307.709 -26.9304C308.674 -27.8991 310.255 -27.9007 311.222 -26.9247C312.192 -25.96 312.194 -24.3797 311.218 -23.414C310.253 -22.4453 308.672 -22.4438 307.705 -23.4198C306.735 -24.3844 306.733 -25.9647 307.709 -26.9304Z" fill="#0074FF"/>
    <path d="M309.332 -24.6363L332.242 -18.4975L332.528 -19.5633L309.618 -25.702L309.332 -24.6363Z" fill="#0074FF"/>
    <path d="M333.029 -21.4339C334.357 -21.0782 335.146 -19.7123 334.791 -18.3858C334.435 -17.0593 333.069 -16.2711 331.741 -16.6269C330.414 -16.9826 329.624 -18.3485 329.98 -19.675C330.335 -21.0015 331.702 -21.7897 333.029 -21.4339Z" fill="#0074FF"/>
    <path d="M367.041 33.0387L368.107 32.7534L361.964 9.86041L360.897 10.1458L367.041 33.0387Z" fill="#0074FF"/>
    <path d="M369.981 32.2488C370.332 33.5703 369.551 34.9408 368.229 35.2912C366.907 35.6417 365.535 34.861 365.184 33.5395C364.832 32.2181 365.613 30.8476 366.935 30.4971C368.258 30.1467 369.63 30.9274 369.981 32.2488Z" fill="#0074FF"/>
    <path d="M351.195 50.0388L367.967 33.2905L367.187 32.5098L350.414 49.2581L351.195 50.0388Z" fill="#0074FF"/>
    <path d="M352.577 51.4023C351.612 52.3711 350.031 52.3726 349.064 51.3966C348.094 50.432 348.092 48.8517 349.068 47.886C350.033 46.9172 351.615 46.9157 352.581 47.8917C353.551 48.8564 353.554 50.4367 352.577 51.4023Z" fill="#0074FF"/>
    <path d="M327.755 44.0465L350.665 50.1853L350.951 49.1196L328.041 42.9808L327.755 44.0465Z" fill="#0074FF"/>
    <path d="M327.257 45.9059C325.929 45.5501 325.14 44.1842 325.495 42.8577C325.851 41.5313 327.217 40.743 328.545 41.0988C329.873 41.4545 330.662 42.8204 330.307 44.1469C329.951 45.4734 328.585 46.2616 327.257 45.9059Z" fill="#0074FF"/>
    <path d="M327.362 43.6498L328.429 43.3645L322.286 20.4715L321.219 20.7569L327.362 43.6498Z" fill="#0074FF"/>
    <path d="M319.352 21.259C319.001 19.9375 319.781 18.567 321.104 18.2166C322.426 17.8661 323.798 18.6468 324.149 19.9682C324.5 21.2897 323.72 22.6602 322.397 23.0106C321.075 23.3611 319.703 22.5804 319.352 21.259Z" fill="#0074FF"/>
    <path d="M322.147 20.9808L338.923 4.23543L338.142 3.45463L321.366 20.2L322.147 20.9808Z" fill="#0074FF"/>
    <path d="M336.767 2.10843C337.732 1.1397 339.313 1.13819 340.28 2.11418C341.25 3.07885 341.252 4.65912 340.276 5.6248C339.311 6.59353 337.729 6.59507 336.763 5.61907C335.793 4.65442 335.791 3.07412 336.767 2.10843Z" fill="#0074FF"/>
    <path d="M338.382 4.38818L361.292 10.527L361.577 9.46122L338.667 3.32245L338.382 4.38818Z" fill="#0074FF"/>
    <path d="M362.076 7.60189C360.747 7.24589 359.382 8.0334 359.026 9.36084C358.67 10.6883 359.459 12.053 360.788 12.409C362.116 12.765 363.482 11.9774 363.837 10.65C364.193 9.32258 363.404 7.95788 362.076 7.60189Z" fill="#0074FF"/>
    <path d="M406.717 22.4193L407.783 22.1339L401.64 -0.759057L400.573 -0.473704L406.717 22.4193Z" fill="#0074FF"/>
    <path d="M409.662 21.6406C410.013 22.962 409.233 24.3325 407.91 24.683C406.588 25.0335 405.216 24.2528 404.865 22.9313C404.514 21.6099 405.294 20.2394 406.617 19.8889C407.939 19.5385 409.311 20.3192 409.662 21.6406Z" fill="#0074FF"/>
    <path d="M390.88 39.3987L407.656 22.6532L406.875 21.8725L390.1 38.6179L390.88 39.3987Z" fill="#0074FF"/>
    <path d="M392.247 40.7911C391.282 41.7598 389.701 41.7614 388.734 40.7854C387.764 39.8207 387.762 38.2404 388.738 37.2748C389.703 36.306 391.284 36.3045 392.251 37.2805C393.221 38.2451 393.223 39.8254 392.247 40.7911Z" fill="#0074FF"/>
    <path d="M367.439 33.427L390.35 39.5658L390.635 38.5001L367.725 32.3613L367.439 33.427Z" fill="#0074FF"/>
    <path d="M368.226 30.4906C366.898 30.1346 365.532 30.9221 365.177 32.2496C364.821 33.577 365.61 34.9417 366.938 35.2977C368.267 35.6537 369.632 34.8662 369.988 33.5387C370.344 32.2113 369.555 30.8466 368.226 30.4906Z" fill="#0074FF"/>
    <path d="M367.041 33.0387L368.107 32.7534L361.964 9.86041L360.897 10.1458L367.041 33.0387Z" fill="#0074FF"/>
    <path d="M359.036 10.6395C358.685 9.31804 359.465 7.94753 360.788 7.59706C362.11 7.24658 363.482 8.02732 363.833 9.34875C364.185 10.6702 363.404 12.0407 362.082 12.3911C360.759 12.7416 359.387 11.9609 359.036 10.6395Z" fill="#0074FF"/>
    <path d="M361.818 10.3971L378.591 -6.35121L377.81 -7.13183L361.038 9.61649L361.818 10.3971Z" fill="#0074FF"/>
    <path d="M376.44 -8.51409C377.405 -9.48282 378.986 -9.48437 379.953 -8.50837C380.923 -7.54372 380.925 -5.96341 379.949 -4.99773C378.972 -4.03204 377.402 -4.02745 376.436 -5.00345C375.466 -5.96812 375.463 -7.5484 376.44 -8.51409Z" fill="#0074FF"/>
    <path d="M378.063 -6.22001L400.973 -0.0812312L401.259 -1.14695L378.348 -7.28573L378.063 -6.22001Z" fill="#0074FF"/>
    <path d="M401.76 -3.01762C403.088 -2.66188 403.877 -1.29598 403.521 0.0304848C403.166 1.35697 401.799 2.14518 400.472 1.78944C399.144 1.4337 398.355 0.067794 398.71 -1.25869C399.066 -2.58516 400.432 -3.37336 401.76 -3.01762Z" fill="#0074FF"/>
    <path d="M435.779 51.4509L436.845 51.1655L430.702 28.2726L429.635 28.5579L435.779 51.4509Z" fill="#0074FF"/>
    <path d="M438.712 50.6651C439.063 51.9865 438.282 53.357 436.96 53.7075C435.638 54.058 434.266 53.2773 433.914 51.9558C433.563 50.6344 434.344 49.2639 435.666 48.9134C436.988 48.5629 438.36 49.3437 438.712 50.6651Z" fill="#0074FF"/>
    <path d="M419.928 68.4622L436.7 51.7139L435.92 50.9332L419.147 67.6815L419.928 68.4622Z" fill="#0074FF"/>
    <path d="M421.308 69.8186C420.343 70.7873 418.761 70.7889 417.795 69.8129C416.825 68.8482 416.822 67.268 417.799 66.3023C418.764 65.3335 420.345 65.332 421.312 66.308C422.282 67.2726 422.284 68.8529 421.308 69.8186Z" fill="#0074FF"/>
    <path d="M396.486 62.4628L419.396 68.6016L419.682 67.5359L396.771 61.3971L396.486 62.4628Z" fill="#0074FF"/>
    <path d="M397.273 59.5264C395.944 59.1704 394.579 59.9579 394.223 61.2854C393.867 62.6128 394.656 63.9775 395.985 64.3335C397.313 64.6895 398.679 63.902 399.034 62.5746C399.39 61.2471 398.601 59.8824 397.273 59.5264Z" fill="#0074FF"/>
    <path d="M396.097 62.0734L397.164 61.788L391.021 38.8951L389.954 39.1804L396.097 62.0734Z" fill="#0074FF"/>
    <path d="M388.083 39.6752C387.731 38.3538 388.512 36.9833 389.834 36.6328C391.156 36.2823 392.528 37.0631 392.88 38.3845C393.231 39.706 392.45 41.0764 391.128 41.4269C389.806 41.7774 388.434 40.9967 388.083 39.6752Z" fill="#0074FF"/>
    <path d="M390.88 39.3987L407.656 22.6532L406.875 21.8725L390.1 38.6179L390.88 39.3987Z" fill="#0074FF"/>
    <path d="M405.498 20.5248C406.463 19.556 408.044 19.5545 409.011 20.5305C409.981 21.4952 409.983 23.0755 409.007 24.0411C408.042 25.0099 406.46 25.0114 405.493 24.0354C404.523 23.0707 404.521 21.4905 405.498 20.5248Z" fill="#0074FF"/>
    <path d="M407.112 22.8045L430.023 28.9432L430.308 27.8775L407.398 21.7387L407.112 22.8045Z" fill="#0074FF"/>
    <path d="M430.806 26.0182C429.478 25.6622 428.112 26.4497 427.757 27.7771C427.401 29.1046 428.19 30.4692 429.518 30.8252C430.847 31.1812 432.212 30.3937 432.568 29.0663C432.924 27.7389 432.135 26.3742 430.806 26.0182Z" fill="#0074FF"/>
    <path d="M475.452 40.8428L476.518 40.5575L470.375 17.6645L469.308 17.9499L475.452 40.8428Z" fill="#0074FF"/>
    <path d="M478.393 40.0569C478.744 41.3783 477.963 42.7488 476.641 43.0993C475.319 43.4498 473.947 42.6691 473.596 41.3477C473.244 40.0262 474.025 38.6557 475.347 38.3052C476.67 37.9548 478.041 38.7355 478.393 40.0569Z" fill="#0074FF"/>
    <path d="M459.608 57.8516L476.381 41.1033L475.6 40.3227L458.828 57.071L459.608 57.8516Z" fill="#0074FF"/>
    <path d="M460.978 59.2074C460.013 60.1762 458.431 60.1777 457.464 59.2017C456.495 58.2371 456.492 56.6568 457.469 55.6911C458.434 54.7224 460.015 54.7208 460.982 55.6968C461.952 56.6615 461.954 58.2417 460.978 59.2074Z" fill="#0074FF"/>
    <path d="M436.17 51.8433L459.08 57.9821L459.366 56.9164L436.456 50.7776L436.17 51.8433Z" fill="#0074FF"/>
    <path d="M436.957 48.9069C435.628 48.5509 434.263 49.3385 433.907 50.6659C433.552 51.9933 434.34 53.358 435.669 53.714C436.998 54.07 438.363 53.2825 438.719 51.9551C439.074 50.6276 438.286 49.2629 436.957 48.9069Z" fill="#0074FF"/>
    <path d="M435.779 51.4509L436.845 51.1655L430.702 28.2726L429.635 28.5579L435.779 51.4509Z" fill="#0074FF"/>
    <path d="M427.767 29.0557C427.415 27.7343 428.196 26.3638 429.518 26.0134C430.841 25.6629 432.213 26.4436 432.564 27.765C432.915 29.0865 432.135 30.4569 430.812 30.8074C429.49 31.1579 428.118 30.3772 427.767 29.0557Z" fill="#0074FF"/>
    <path d="M430.543 28.8062L447.315 12.0579L446.535 11.2772L429.762 28.0256L430.543 28.8062Z" fill="#0074FF"/>
    <path d="M445.17 9.90223C446.135 8.9335 447.717 8.93195 448.684 9.90795C449.654 10.8726 449.656 12.4529 448.68 13.4186C447.715 14.3873 446.133 14.3889 445.166 13.4129C444.196 12.4482 444.194 10.8679 445.17 9.90223Z" fill="#0074FF"/>
    <path d="M446.794 12.1963L469.704 18.3351L469.989 17.2694L447.079 11.1306L446.794 12.1963Z" fill="#0074FF"/>
    <path d="M470.491 15.3987C471.818 15.7544 472.608 17.1203 472.252 18.4468C471.897 19.7733 470.53 20.5615 469.203 20.2058C467.875 19.85 467.085 18.4841 467.441 17.1576C467.796 15.8312 469.163 15.043 470.491 15.3987Z" fill="#0074FF"/>
    <path d="M459.608 57.8516L476.381 41.1033L475.6 40.3227L458.828 57.071L459.608 57.8516Z" fill="#0074FF"/>
    <path d="M474.228 38.9411C475.193 37.9724 476.775 37.9708 477.742 38.9468C478.711 39.9115 478.714 41.4918 477.737 42.4575C476.772 43.4262 475.191 43.4277 474.224 42.4517C473.254 41.4871 473.252 39.9068 474.228 38.9411Z" fill="#0074FF"/>
    <path d="M475.843 41.2208L498.753 47.3596L499.039 46.2938L476.129 40.1551L475.843 41.2208Z" fill="#0074FF"/>
    <path d="M499.537 44.4345C498.208 44.0785 496.843 44.866 496.487 46.1934C496.132 47.5209 496.92 48.8856 498.249 49.2416C499.578 49.5976 500.943 48.81 501.299 47.4826C501.654 46.1552 500.866 44.7905 499.537 44.4345Z" fill="#0074FF"/>
    <path d="M155.628 -44.8589L172.401 -61.6072L171.62 -62.3879L154.847 -45.6396L155.628 -44.8589Z" fill="#0074FF"/>
    <path d="M156.997 -43.4967C156.032 -42.528 154.451 -42.5265 153.484 -43.5025C152.514 -44.4671 152.512 -46.0474 153.488 -47.0131C154.453 -47.9818 156.034 -47.9834 157.001 -47.0074C157.971 -46.0427 157.973 -44.4624 156.997 -43.4967Z" fill="#0074FF"/>
    <path d="M132.19 -50.8608L155.1 -44.722L155.385 -45.7878L132.475 -51.9265L132.19 -50.8608Z" fill="#0074FF"/>
    <path d="M132.973 -53.7859C131.645 -54.1419 130.279 -53.3544 129.924 -52.0269C129.568 -50.6995 130.357 -49.3348 131.685 -48.9788C133.014 -48.6228 134.379 -49.4103 134.735 -50.7377C135.091 -52.0652 134.302 -53.4299 132.973 -53.7859Z" fill="#0074FF"/>
    <path d="M224.361 -26.4354L241.134 -43.1838L240.353 -43.9644L223.58 -27.2161L224.361 -26.4354Z" fill="#0074FF"/>
    <path d="M225.728 -25.0804C224.763 -24.1117 223.181 -24.1101 222.215 -25.0861C221.245 -26.0508 221.242 -27.6311 222.219 -28.5968C223.184 -29.5655 224.765 -29.567 225.732 -28.591C226.702 -27.6264 226.704 -26.0461 225.728 -25.0804Z" fill="#0074FF"/>
    <path d="M200.92 -32.4445L223.83 -26.3057L224.116 -27.3714L201.206 -33.5102L200.92 -32.4445Z" fill="#0074FF"/>
    <path d="M200.419 -30.5738C199.091 -30.9296 198.302 -32.2955 198.657 -33.6219C199.013 -34.9484 200.379 -35.7366 201.707 -35.3809C203.035 -35.0251 203.824 -33.6592 203.469 -32.3328C203.113 -31.0063 201.747 -30.2181 200.419 -30.5738Z" fill="#0074FF"/>
    <path d="M200.531 -32.834L201.598 -33.1194L195.454 -56.0123L194.388 -55.727L200.531 -32.834Z" fill="#0074FF"/>
    <path d="M192.514 -55.2207C192.162 -56.5422 192.943 -57.9126 194.266 -58.2631C195.588 -58.6136 196.96 -57.8328 197.311 -56.5114C197.662 -55.19 196.882 -53.8195 195.559 -53.469C194.237 -53.1185 192.865 -53.8993 192.514 -55.2207Z" fill="#0074FF"/>
    <path d="M308.936 -25.036L310.003 -25.3213L303.859 -48.2143L302.793 -47.9289L308.936 -25.036Z" fill="#0074FF"/>
    <path d="M311.874 -25.8145C312.225 -24.4931 311.444 -23.1226 310.122 -22.7721C308.8 -22.4217 307.428 -23.2024 307.076 -24.5238C306.725 -25.8453 307.506 -27.2158 308.828 -27.5662C310.15 -27.9167 311.522 -27.136 311.874 -25.8145Z" fill="#0074FF"/>
    <path d="M293.077 -8.04074L309.85 -24.7891L309.069 -25.5697L292.296 -8.82138L293.077 -8.04074Z" fill="#0074FF"/>
    <path d="M294.458 -6.66409C293.494 -5.69536 291.912 -5.69381 290.945 -6.66981C289.975 -7.63447 289.973 -9.21477 290.949 -10.1805C291.914 -11.1492 293.496 -11.1507 294.463 -10.1747C295.433 -9.21008 295.435 -7.62979 294.458 -6.66409Z" fill="#0074FF"/>
    <path d="M269.651 -14.0282L292.561 -7.8894L292.847 -8.95512L269.937 -15.0939L269.651 -14.0282Z" fill="#0074FF"/>
    <path d="M270.435 -16.9532C269.106 -17.3092 267.741 -16.5217 267.385 -15.1943C267.029 -13.8669 267.818 -12.5022 269.147 -12.1462C270.475 -11.7902 271.841 -12.5777 272.196 -13.9051C272.552 -15.2325 271.763 -16.5972 270.435 -16.9532Z" fill="#0074FF"/>
    <path d="M269.255 -14.4135L270.321 -14.6988L264.178 -37.5918L263.111 -37.3064L269.255 -14.4135Z" fill="#0074FF"/>
    <path d="M261.245 -36.8044C260.893 -38.1259 261.674 -39.4964 262.996 -39.8468C264.319 -40.1973 265.69 -39.4166 266.042 -38.0951C266.393 -36.7737 265.612 -35.4032 264.279 -35.0558C262.956 -34.7053 261.585 -35.486 261.233 -36.8075L261.245 -36.8044Z" fill="#0074FF"/>
    <path d="M332.764 -18.669L349.54 -35.4144L348.759 -36.1952L331.984 -19.4497L332.764 -18.669Z" fill="#0074FF"/>
    <path d="M334.14 -17.2722C333.175 -16.3035 331.593 -16.302 330.626 -17.278C329.657 -18.2426 329.654 -19.8229 330.631 -20.7886C331.596 -21.7573 333.177 -21.7589 334.144 -20.7829C335.111 -19.8069 335.116 -18.2379 334.14 -17.2722Z" fill="#0074FF"/>
    <path d="M309.332 -24.6363L332.242 -18.4975L332.528 -19.5633L309.618 -25.702L309.332 -24.6363Z" fill="#0074FF"/>
    <path d="M308.831 -22.7657C307.503 -23.1214 306.714 -24.4873 307.069 -25.8138C307.425 -27.1402 308.791 -27.9285 310.119 -27.5727C311.447 -27.217 312.236 -25.8511 311.881 -24.5246C311.525 -23.1981 310.159 -22.4099 308.831 -22.7657Z" fill="#0074FF"/>
    <path d="M308.936 -25.036L310.003 -25.3213L303.859 -48.2143L302.793 -47.9289L308.936 -25.036Z" fill="#0074FF"/>
    <path d="M300.929 -47.4239C300.577 -48.7454 301.358 -50.1158 302.68 -50.4663C304.003 -50.8168 305.375 -50.036 305.726 -48.7146C306.077 -47.3932 305.297 -46.0227 303.974 -45.6722C302.652 -45.3217 301.28 -46.1025 300.929 -47.4239Z" fill="#0074FF"/>
    <path d="M377.671 -6.61242L378.738 -6.89775L372.594 -29.7907L371.528 -29.5053L377.671 -6.61242Z" fill="#0074FF"/>
    <path d="M380.604 -7.39822C380.956 -6.07679 380.175 -4.70631 378.853 -4.35583C377.53 -4.00534 376.158 -4.78609 375.807 -6.10752C375.456 -7.42894 376.236 -8.79944 377.559 -9.1499C378.881 -9.50039 380.253 -8.71964 380.604 -7.39822Z" fill="#0074FF"/>
    <path d="M361.818 10.3971L378.591 -6.35121L377.81 -7.13183L361.038 9.61649L361.818 10.3971Z" fill="#0074FF"/>
    <path d="M363.201 11.7553C362.236 12.724 360.654 12.7256 359.687 11.7496C358.717 10.7849 358.715 9.2046 359.691 8.23891C360.656 7.27018 362.238 7.26864 363.205 8.24463C364.175 9.20928 364.177 10.7896 363.201 11.7553Z" fill="#0074FF"/>
    <path d="M338.382 4.38818L361.292 10.527L361.577 9.46122L338.667 3.32245L338.382 4.38818Z" fill="#0074FF"/>
    <path d="M337.88 6.25881C336.553 5.90307 335.763 4.53716 336.119 3.21068C336.474 1.88421 337.841 1.096 339.168 1.45174C340.496 1.80748 341.285 3.17339 340.93 4.49986C340.575 5.82634 339.208 6.61454 337.88 6.25881Z" fill="#0074FF"/>
    <path d="M337.99 4.01006L339.056 3.72471L332.913 -19.1683L331.847 -18.8829L337.99 4.01006Z" fill="#0074FF"/>
    <path d="M329.975 -18.3881C329.624 -19.7095 330.405 -21.08 331.727 -21.4305C333.049 -21.781 334.421 -21.0003 334.772 -19.6788C335.124 -18.3574 334.343 -16.9869 333.021 -16.6364C331.698 -16.2859 330.327 -17.0667 329.975 -18.3881Z" fill="#0074FF"/>
    <path d="M332.764 -18.669L349.54 -35.4144L348.759 -36.1952L331.984 -19.4497L332.764 -18.669Z" fill="#0074FF"/>
    <path d="M347.39 -37.5386C348.355 -38.5073 349.937 -38.5088 350.904 -37.5328C351.873 -36.5682 351.876 -34.9879 350.899 -34.0222C349.934 -33.0535 348.353 -33.0519 347.386 -34.0279C346.416 -34.9926 346.414 -36.5729 347.39 -37.5386Z" fill="#0074FF"/>
    <path d="M349.005 -35.2589L371.915 -29.1201L372.201 -30.1858L349.291 -36.3246L349.005 -35.2589Z" fill="#0074FF"/>
    <path d="M372.702 -32.0565C371.373 -32.4125 370.008 -31.625 369.652 -30.2976C369.297 -28.9701 370.085 -27.6054 371.414 -27.2494C372.743 -26.8934 374.108 -27.6809 374.464 -29.0084C374.819 -30.3358 374.031 -31.7005 372.702 -32.0565Z" fill="#0074FF"/>
    <path d="M417.344 -17.2205L418.411 -17.5058L412.267 -40.3988L411.201 -40.1134L417.344 -17.2205Z" fill="#0074FF"/>
    <path d="M420.285 -18.0064C420.637 -16.6849 419.856 -15.3145 418.534 -14.964C417.211 -14.6135 415.84 -15.3942 415.491 -16.727C415.14 -18.0484 415.921 -19.4189 417.243 -19.7694C418.565 -20.1199 419.937 -19.3391 420.288 -18.0177L420.285 -18.0064Z" fill="#0074FF"/>
    <path d="M401.497 -0.251063L418.273 -16.9965L417.492 -17.7773L400.717 -1.03185L401.497 -0.251063Z" fill="#0074FF"/>
    <path d="M402.87 1.14408C401.905 2.11281 400.324 2.11436 399.357 1.13836C398.387 0.173694 398.385 -1.4066 399.361 -2.37228C400.326 -3.34101 401.908 -3.34256 402.875 -2.36656C403.844 -1.40191 403.847 0.178393 402.87 1.14408Z" fill="#0074FF"/>
    <path d="M378.063 -6.22001L400.973 -0.0812312L401.259 -1.14695L378.348 -7.28573L378.063 -6.22001Z" fill="#0074FF"/>
    <path d="M377.562 -4.34934C376.234 -4.70507 375.445 -6.07098 375.8 -7.39746C376.155 -8.72393 377.522 -9.51214 378.85 -9.1564C380.177 -8.80066 380.967 -7.43476 380.611 -6.10829C380.256 -4.78181 378.889 -3.9936 377.562 -4.34934Z" fill="#0074FF"/>
    <path d="M377.671 -6.61242L378.738 -6.89775L372.594 -29.7907L371.528 -29.5053L377.671 -6.61242Z" fill="#0074FF"/>
    <path d="M369.659 -29.0076C369.308 -30.329 370.089 -31.6995 371.411 -32.05C372.733 -32.4005 374.105 -31.6197 374.457 -30.2983C374.808 -28.9769 374.027 -27.6064 372.705 -27.2559C371.383 -26.9054 370.011 -27.6862 369.659 -29.0076Z" fill="#0074FF"/>
    <path d="M372.445 -29.2559L389.217 -46.0042L388.437 -46.7848L371.664 -30.0365L372.445 -29.2559Z" fill="#0074FF"/>
    <path d="M387.063 -48.1611C388.028 -49.1298 389.61 -49.1314 390.579 -48.1667C391.549 -47.2021 391.552 -45.6218 390.575 -44.6561C389.61 -43.6874 388.029 -43.6858 387.062 -44.6618C386.092 -45.6265 386.09 -47.2068 387.066 -48.1725L387.063 -48.1611Z" fill="#0074FF"/>
    <path d="M388.686 -45.867L411.596 -39.7282L411.882 -40.794L388.972 -46.9327L388.686 -45.867Z" fill="#0074FF"/>
    <path d="M412.383 -42.6647C411.055 -43.0206 409.689 -42.2331 409.334 -40.9057C408.978 -39.5783 409.767 -38.2136 411.095 -37.8576C412.424 -37.5016 413.789 -38.2891 414.145 -39.6165C414.501 -40.944 413.712 -42.3087 412.383 -42.6647Z" fill="#0074FF"/>
    <path d="M446.398 11.7968L447.464 11.5114L441.321 -11.3815L440.254 -11.0962L446.398 11.7968Z" fill="#0074FF"/>
    <path d="M449.335 11.0181C449.686 12.3395 448.905 13.71 447.583 14.0605C446.261 14.411 444.889 13.6302 444.538 12.3088C444.186 10.9874 444.967 9.61686 446.289 9.26639C447.612 8.91591 448.984 9.69665 449.335 11.0181Z" fill="#0074FF"/>
    <path d="M430.543 28.8062L447.315 12.0579L446.535 11.2772L429.762 28.0256L430.543 28.8062Z" fill="#0074FF"/>
    <path d="M431.931 30.1716C430.966 31.1403 429.385 31.1419 428.418 30.1659C427.448 29.2012 427.446 27.6209 428.422 26.6552C429.387 25.6865 430.969 25.685 431.935 26.6609C432.905 27.6256 432.908 29.2059 431.931 30.1716Z" fill="#0074FF"/>
    <path d="M407.112 22.8045L430.023 28.9432L430.308 27.8775L407.398 21.7387L407.112 22.8045Z" fill="#0074FF"/>
    <path d="M407.896 19.8794C406.568 19.5234 405.202 20.3109 404.846 21.6383C404.491 22.9658 405.279 24.3305 406.608 24.6865C407.937 25.0425 409.302 24.2549 409.658 22.9275C410.013 21.6001 409.225 20.2354 407.896 19.8794Z" fill="#0074FF"/>
    <path d="M406.717 22.4193L407.783 22.1339L401.64 -0.759057L400.573 -0.473704L406.717 22.4193Z" fill="#0074FF"/>
    <path d="M398.706 0.028208C398.355 -1.29322 399.135 -2.66373 400.458 -3.0142C401.78 -3.36468 403.152 -2.58394 403.503 -1.26251C403.854 0.0589147 403.074 1.42941 401.751 1.7799C400.429 2.13038 399.057 1.34963 398.706 0.028208Z" fill="#0074FF"/>
    <path d="M401.497 -0.251063L418.273 -16.9965L417.492 -17.7773L400.717 -1.03185L401.497 -0.251063Z" fill="#0074FF"/>
    <path d="M416.121 -19.1223C417.086 -20.091 418.667 -20.0926 419.634 -19.1166C420.604 -18.1519 420.606 -16.5716 419.63 -15.6059C418.665 -14.6372 417.084 -14.6357 416.117 -15.6117C415.147 -16.5763 415.145 -18.1566 416.121 -19.1223Z" fill="#0074FF"/>
    <path d="M417.736 -16.8426L440.646 -10.7038L440.932 -11.7695L418.021 -17.9083L417.736 -16.8426Z" fill="#0074FF"/>
    <path d="M441.433 -13.6402C440.104 -13.9962 438.739 -13.2087 438.383 -11.8812C438.027 -10.5538 438.816 -9.18909 440.145 -8.8331C441.473 -8.4771 442.839 -9.26463 443.194 -10.5921C443.55 -11.9195 442.761 -13.2842 441.433 -13.6402Z" fill="#0074FF"/>
    <path d="M486.068 1.20004L487.134 0.914717L480.991 -21.9782L479.924 -21.6929L486.068 1.20004Z" fill="#0074FF"/>
    <path d="M489.016 0.409936C489.367 1.73138 488.587 3.10185 487.264 3.45232C485.942 3.80281 484.57 3.02208 484.222 1.68932C483.871 0.367875 484.651 -1.00262 485.974 -1.35309C487.296 -1.70357 488.668 -0.922824 489.019 0.398602L489.016 0.409936Z" fill="#0074FF"/>
    <path d="M470.235 18.1986L487.007 1.45031L486.227 0.669645L469.454 17.418L470.235 18.1986Z" fill="#0074FF"/>
    <path d="M471.601 19.5604C470.636 20.5291 469.055 20.5307 468.088 19.5547C467.118 18.59 467.116 17.0097 468.092 16.044C469.057 15.0753 470.638 15.0738 471.605 16.0498C472.572 17.0258 472.577 18.5947 471.601 19.5604Z" fill="#0074FF"/>
    <path d="M446.794 12.1963L469.704 18.3351L469.989 17.2694L447.079 11.1306L446.794 12.1963Z" fill="#0074FF"/>
    <path d="M446.292 14.067C444.965 13.7112 444.175 12.3453 444.531 11.0189C444.886 9.69239 446.253 8.90418 447.58 9.25992C448.908 9.61566 449.697 10.9816 449.342 12.308C448.987 13.6345 447.62 14.4227 446.292 14.067Z" fill="#0074FF"/>
    <path d="M446.398 11.7968L447.464 11.5114L441.321 -11.3815L440.254 -11.0962L446.398 11.7968Z" fill="#0074FF"/>
    <path d="M438.39 -10.5913C438.039 -11.9127 438.82 -13.2832 440.142 -13.6337C441.464 -13.9842 442.836 -13.2034 443.187 -11.882C443.539 -10.5606 442.758 -9.19008 441.436 -8.8396C440.113 -8.48912 438.741 -9.26986 438.39 -10.5913Z" fill="#0074FF"/>
    <path d="M441.174 -10.8438L457.947 -27.5921L457.166 -28.3727L440.394 -11.6244L441.174 -10.8438Z" fill="#0074FF"/>
    <path d="M455.794 -29.7448C456.759 -30.7135 458.34 -30.7151 459.31 -29.7504C460.28 -28.7858 460.282 -27.2055 459.306 -26.2398C458.341 -25.271 456.759 -25.2695 455.793 -26.2455C454.823 -27.2102 454.821 -28.7905 455.797 -29.7562L455.794 -29.7448Z" fill="#0074FF"/>
    <path d="M457.417 -27.4507L480.327 -21.3119L480.613 -22.3776L457.702 -28.5164L457.417 -27.4507Z" fill="#0074FF"/>
    <path d="M481.114 -24.2483C482.442 -23.8926 483.231 -22.5267 482.876 -21.2002C482.52 -19.8737 481.154 -19.0855 479.826 -19.4413C478.498 -19.797 477.709 -21.1629 478.064 -22.4894C478.42 -23.8159 479.786 -24.6041 481.114 -24.2483Z" fill="#0074FF"/>
    <path d="M475.843 41.2208L498.753 47.3596L499.039 46.2938L476.129 40.1551L475.843 41.2208Z" fill="#0074FF"/>
    <path d="M475.342 43.0914C474.014 42.7357 473.225 41.3698 473.58 40.0433C473.936 38.7169 475.302 37.9286 476.63 38.2844C477.957 38.6401 478.747 40.006 478.391 41.3325C478.036 42.659 476.669 43.4472 475.342 43.0914Z" fill="#0074FF"/>
    <path d="M475.452 40.8428L476.518 40.5575L470.375 17.6645L469.308 17.9499L475.452 40.8428Z" fill="#0074FF"/>
    <path d="M467.437 18.4446C467.085 17.1231 467.866 15.7527 469.188 15.4022C470.511 15.0517 471.882 15.8324 472.234 17.1539C472.585 18.4753 471.804 19.8458 470.482 20.1963C469.16 20.5467 467.788 19.766 467.437 18.4446Z" fill="#0074FF"/>
    <path d="M470.235 18.1986L487.007 1.45031L486.227 0.669645L469.454 17.418L470.235 18.1986Z" fill="#0074FF"/>
    <path d="M484.852 -0.705942C485.817 -1.67467 487.398 -1.6762 488.365 -0.700205C489.335 0.26446 489.337 1.84475 488.361 2.81044C487.396 3.77916 485.814 3.78068 484.847 2.80468C483.878 1.84003 483.875 0.259745 484.852 -0.705942Z" fill="#0074FF"/>
    <path d="M486.466 1.57375L509.377 7.71252L509.662 6.6468L486.752 0.508027L486.466 1.57375Z" fill="#0074FF"/>
    <path d="M510.163 4.77615C508.835 4.42015 507.469 5.20766 507.114 6.53508C506.758 7.86252 507.547 9.22723 508.875 9.58323C510.204 9.93922 511.569 9.1517 511.925 7.82426C512.281 6.49683 511.492 5.13214 510.163 4.77615Z" fill="#0074FF"/>
    <path d="M388.29 -46.2664L389.357 -46.5518L383.214 -69.4448L382.147 -69.1594L388.29 -46.2664Z" fill="#0074FF"/>
    <path d="M391.228 -47.0452C391.579 -45.7238 390.798 -44.3533 389.476 -44.0028C388.154 -43.6523 386.782 -44.4331 386.43 -45.7545C386.079 -47.0759 386.86 -48.4464 388.182 -48.7969C389.504 -49.1474 390.876 -48.3666 391.228 -47.0452Z" fill="#0074FF"/>
    <path d="M372.445 -29.2559L389.217 -46.0042L388.437 -46.7848L371.664 -30.0365L372.445 -29.2559Z" fill="#0074FF"/>
    <path d="M373.824 -27.8918C372.859 -26.923 371.277 -26.9215 370.308 -27.8861C369.338 -28.8508 369.335 -30.4311 370.312 -31.3968C371.277 -32.3655 372.858 -32.367 373.825 -31.391C374.795 -30.4264 374.797 -28.8461 373.821 -27.8804L373.824 -27.8918Z" fill="#0074FF"/>
    <path d="M349.005 -35.2589L371.915 -29.1201L372.201 -30.1858L349.291 -36.3246L349.005 -35.2589Z" fill="#0074FF"/>
    <path d="M348.504 -33.3882C347.176 -33.7439 346.387 -35.1099 346.742 -36.4363C347.098 -37.7628 348.464 -38.551 349.792 -38.1953C351.119 -37.8395 351.909 -36.4736 351.553 -35.1472C351.198 -33.8207 349.831 -33.0325 348.504 -33.3882Z" fill="#0074FF"/>
    <path d="M359.628 -74.9059L382.539 -68.7671L382.824 -69.8329L359.914 -75.9716L359.628 -74.9059Z" fill="#0074FF"/>
    <path d="M383.322 -71.6922C384.65 -71.3365 385.439 -69.9705 385.084 -68.6441C384.729 -67.3176 383.362 -66.5294 382.034 -66.8851C380.707 -67.2409 379.917 -68.6068 380.273 -69.9332C380.628 -71.2597 381.995 -72.0479 383.322 -71.6922Z" fill="#0074FF"/>
    <path d="M427.963 -56.8746L429.03 -57.1599L422.886 -80.0529L421.82 -79.7675L427.963 -56.8746Z" fill="#0074FF"/>
    <path d="M430.909 -57.6534C431.26 -56.332 430.479 -54.9615 429.157 -54.611C427.835 -54.2605 426.463 -55.0413 426.112 -56.3627C425.76 -57.6841 426.541 -59.0546 427.863 -59.4051C429.186 -59.7556 430.557 -58.9748 430.909 -57.6534Z" fill="#0074FF"/>
    <path d="M412.125 -39.8665L428.898 -56.6148L428.117 -57.3955L411.345 -40.6471L412.125 -39.8665Z" fill="#0074FF"/>
    <path d="M413.494 -38.5029C412.529 -37.5342 410.947 -37.5327 409.98 -38.5087C409.011 -39.4733 409.008 -41.0536 409.985 -42.0193C410.95 -42.988 412.531 -42.9896 413.498 -42.0136C414.468 -41.0489 414.47 -39.4686 413.494 -38.5029Z" fill="#0074FF"/>
    <path d="M388.686 -45.867L411.596 -39.7282L411.882 -40.794L388.972 -46.9327L388.686 -45.867Z" fill="#0074FF"/>
    <path d="M389.473 -48.8034C388.144 -49.1594 386.779 -48.3719 386.423 -47.0445C386.068 -45.717 386.856 -44.3523 388.185 -43.9964C389.514 -43.6404 390.879 -44.4279 391.235 -45.7553C391.59 -47.0827 390.802 -48.4474 389.473 -48.8034Z" fill="#0074FF"/>
    <path d="M388.29 -46.2664L389.357 -46.5518L383.214 -69.4448L382.147 -69.1594L388.29 -46.2664Z" fill="#0074FF"/>
    <path d="M380.283 -68.6546C379.932 -69.9761 380.712 -71.3466 382.035 -71.697C383.357 -72.0475 384.729 -71.2668 385.08 -69.9454C385.431 -68.6239 384.651 -67.2535 383.328 -66.903C382.006 -66.5525 380.634 -67.3332 380.283 -68.6546Z" fill="#0074FF"/>
    <path d="M383.067 -68.9358L399.842 -85.6812L399.062 -86.4619L382.286 -69.7166L383.067 -68.9358Z" fill="#0074FF"/>
    <path d="M397.686 -87.8081C398.651 -88.7769 400.233 -88.7784 401.2 -87.8024C402.17 -86.8377 402.172 -85.2575 401.196 -84.2918C400.231 -83.3231 398.649 -83.3215 397.682 -84.2975C396.712 -85.2622 396.71 -86.8424 397.686 -87.8081Z" fill="#0074FF"/>
    <path d="M399.31 -85.5141L422.22 -79.3753L422.505 -80.441L399.595 -86.5798L399.31 -85.5141Z" fill="#0074FF"/>
    <path d="M423.007 -82.3117C421.678 -82.6677 420.313 -81.8802 419.957 -80.5527C419.601 -79.2253 420.39 -77.8606 421.719 -77.5046C423.047 -77.1486 424.413 -77.9361 424.768 -79.2635C425.124 -80.591 424.335 -81.9557 423.007 -82.3117Z" fill="#0074FF"/>
    <path d="M457.025 -27.8429L458.092 -28.1283L451.949 -51.0212L450.882 -50.7359L457.025 -27.8429Z" fill="#0074FF"/>
    <path d="M459.958 -28.6289C460.31 -27.3075 459.529 -25.937 458.207 -25.5865C456.884 -25.2361 455.512 -26.0168 455.161 -27.3382C454.81 -28.6597 455.591 -30.0301 456.913 -30.3806C458.235 -30.7311 459.607 -29.9504 459.958 -28.6289Z" fill="#0074FF"/>
    <path d="M441.174 -10.8438L457.947 -27.5921L457.166 -28.3727L440.394 -11.6244L441.174 -10.8438Z" fill="#0074FF"/>
    <path d="M442.555 -9.47543C441.59 -8.5067 440.008 -8.50515 439.038 -9.46982C438.068 -10.4345 438.066 -12.0148 439.043 -12.9805C440.007 -13.9492 441.589 -13.9507 442.556 -12.9747C443.526 -12.0101 443.528 -10.4298 442.552 -9.46408L442.555 -9.47543Z" fill="#0074FF"/>
    <path d="M417.736 -16.8426L440.646 -10.7038L440.932 -11.7695L418.021 -17.9083L417.736 -16.8426Z" fill="#0074FF"/>
    <path d="M418.523 -19.7789C417.194 -20.1349 415.829 -19.3474 415.473 -18.02C415.117 -16.6926 415.906 -15.3279 417.234 -14.9719C418.563 -14.6159 419.928 -15.4034 420.284 -16.7308C420.64 -18.0583 419.851 -19.4229 418.523 -19.7789Z" fill="#0074FF"/>
    <path d="M417.344 -17.2205L418.411 -17.5058L412.267 -40.3988L411.201 -40.1134L417.344 -17.2205Z" fill="#0074FF"/>
    <path d="M409.329 -39.6188C408.978 -40.9403 409.759 -42.3108 411.081 -42.6612C412.403 -43.0117 413.775 -42.231 414.123 -40.8982C414.475 -39.5768 413.694 -38.2063 412.372 -37.8558C411.049 -37.5053 409.678 -38.2861 409.326 -39.6075L409.329 -39.6188Z" fill="#0074FF"/>
    <path d="M412.125 -39.8665L428.898 -56.6148L428.117 -57.3955L411.345 -40.6471L412.125 -39.8665Z" fill="#0074FF"/>
    <path d="M426.744 -58.7693C427.709 -59.738 429.291 -59.7396 430.258 -58.7636C431.227 -57.7989 431.23 -56.2186 430.253 -55.2529C429.288 -54.2842 427.707 -54.2827 426.74 -55.2587C425.77 -56.2233 425.768 -57.8036 426.744 -58.7693Z" fill="#0074FF"/>
    <path d="M428.359 -56.4896L451.269 -50.3508L451.555 -51.4165L428.645 -57.5553L428.359 -56.4896Z" fill="#0074FF"/>
    <path d="M452.053 -53.2759C453.381 -52.9201 454.17 -51.5542 453.815 -50.2277C453.459 -48.9013 452.093 -48.1131 450.765 -48.4688C449.437 -48.8245 448.648 -50.1904 449.003 -51.5169C449.359 -52.8434 450.725 -53.6316 452.053 -53.2759Z" fill="#0074FF"/>
    <path d="M480.864 -21.4657L497.637 -38.214L496.856 -38.9947L480.084 -22.2463L480.864 -21.4657Z" fill="#0074FF"/>
    <path d="M482.224 -20.0866C481.259 -19.1179 479.678 -19.1163 478.711 -20.0923C477.741 -21.057 477.739 -22.6373 478.715 -23.603C479.68 -24.5717 481.262 -24.5733 482.229 -23.5973C483.199 -22.6326 483.201 -21.0523 482.224 -20.0866Z" fill="#0074FF"/>
    <path d="M457.417 -27.4507L480.327 -21.3119L480.613 -22.3776L457.702 -28.5164L457.417 -27.4507Z" fill="#0074FF"/>
    <path d="M458.204 -30.3871C456.875 -30.7431 455.51 -29.9556 455.154 -28.6281C454.798 -27.3007 455.587 -25.936 456.916 -25.58C458.244 -25.224 459.61 -26.0115 459.965 -27.339C460.321 -28.6664 459.532 -30.0311 458.204 -30.3871Z" fill="#0074FF"/>
    <path d="M457.025 -27.8429L458.092 -28.1283L451.949 -51.0212L450.882 -50.7359L457.025 -27.8429Z" fill="#0074FF"/>
    <path d="M449.014 -50.2383C448.662 -51.5598 449.443 -52.9303 450.765 -53.2807C452.088 -53.6312 453.459 -52.8505 453.811 -51.5291C454.162 -50.2076 453.381 -48.8371 452.059 -48.4867C450.737 -48.1362 449.365 -48.9169 449.014 -50.2383Z" fill="#0074FF"/>
    <path d="M451.797 -50.5065L468.573 -67.2519L467.792 -68.0327L451.016 -51.2873L451.797 -50.5065Z" fill="#0074FF"/>
    <path d="M466.417 -69.3918C467.382 -70.3605 468.964 -70.3621 469.93 -69.3861C470.9 -68.4214 470.903 -66.8411 469.926 -65.8755C468.961 -64.9067 467.38 -64.9052 466.413 -65.8812C465.443 -66.8458 465.441 -68.4261 466.417 -69.3918Z" fill="#0074FF"/>
    <path d="M486.466 1.57375L509.377 7.71252L509.662 6.6468L486.752 0.508027L486.466 1.57375Z" fill="#0074FF"/>
    <path d="M485.965 3.44445C484.638 3.08871 483.848 1.72279 484.204 0.396307C484.559 -0.930161 485.926 -1.71837 487.253 -1.36263C488.581 -1.00689 489.37 0.359014 489.015 1.68548C488.659 3.01196 487.293 3.80019 485.965 3.44445Z" fill="#0074FF"/>
    <path d="M486.068 1.20004L487.134 0.914717L480.991 -21.9782L479.924 -21.6929L486.068 1.20004Z" fill="#0074FF"/>
    <path d="M478.06 -21.2025C477.709 -22.5239 478.489 -23.8944 479.812 -24.2449C481.134 -24.5954 482.506 -23.8146 482.854 -22.4819C483.205 -21.1604 482.425 -19.7899 481.102 -19.4395C479.78 -19.089 478.408 -19.8697 478.057 -21.1911L478.06 -21.2025Z" fill="#0074FF"/>
    <path d="M480.864 -21.4657L497.637 -38.214L496.856 -38.9947L480.084 -22.2463L480.864 -21.4657Z" fill="#0074FF"/>
    <path d="M495.475 -40.3529C496.44 -41.3217 498.021 -41.3232 498.988 -40.3472C499.958 -39.3825 499.96 -37.8023 498.984 -36.8366C498.019 -35.8678 496.438 -35.8663 495.471 -36.8423C494.501 -37.8069 494.499 -39.3872 495.475 -40.3529Z" fill="#0074FF"/>
    <path d="M398.918 -85.9062L399.984 -86.1916L393.841 -109.085L392.775 -108.799L398.918 -85.9062Z" fill="#0074FF"/>
    <path d="M401.851 -86.6923C402.202 -85.3709 401.422 -84.0004 400.099 -83.6499C398.777 -83.2994 397.405 -84.0802 397.057 -85.4129C396.706 -86.7344 397.486 -88.1048 398.809 -88.4553C400.131 -88.8058 401.503 -88.0251 401.854 -86.7036L401.851 -86.6923Z" fill="#0074FF"/>
    <path d="M383.067 -68.9358L399.842 -85.6812L399.062 -86.4619L382.286 -69.7166L383.067 -68.9358Z" fill="#0074FF"/>
    <path d="M384.447 -67.5388C383.482 -66.5701 381.901 -66.5685 380.934 -67.5445C379.964 -68.5092 379.962 -70.0895 380.938 -71.0551C381.903 -72.0239 383.485 -72.0254 384.452 -71.0494C385.421 -70.0848 385.424 -68.5045 384.447 -67.5388Z" fill="#0074FF"/>
    <path d="M359.628 -74.9059L382.539 -68.7671L382.824 -69.8329L359.914 -75.9716L359.628 -74.9059Z" fill="#0074FF"/>
    <path d="M359.127 -73.0352C357.8 -73.391 357.01 -74.7569 357.366 -76.0834C357.721 -77.4098 359.088 -78.198 360.415 -77.8423C361.743 -77.4866 362.532 -76.1207 362.177 -74.7942C361.821 -73.4677 360.455 -72.6795 359.127 -73.0352Z" fill="#0074FF"/>
    <path d="M422.752 -79.5194L439.524 -96.2678L438.744 -97.0484L421.971 -80.3001L422.752 -79.5194Z" fill="#0074FF"/>
    <path d="M424.117 -78.15C423.152 -77.1812 421.571 -77.1797 420.601 -78.1444C419.631 -79.109 419.629 -80.6893 420.605 -81.655C421.57 -82.6237 423.151 -82.6253 424.118 -81.6493C425.088 -80.6846 425.09 -79.1043 424.114 -78.1386L424.117 -78.15Z" fill="#0074FF"/>
    <path d="M399.31 -85.5141L422.22 -79.3753L422.505 -80.441L399.595 -86.5798L399.31 -85.5141Z" fill="#0074FF"/>
    <path d="M400.096 -88.4505C398.768 -88.8065 397.402 -88.0189 397.047 -86.6915C396.691 -85.3641 397.48 -83.9994 398.808 -83.6434C400.137 -83.2874 401.502 -84.0749 401.858 -85.4023C402.214 -86.7298 401.425 -88.0945 400.096 -88.4505Z" fill="#0074FF"/>
    <path d="M398.918 -85.9062L399.984 -86.1916L393.841 -109.085L392.775 -108.799L398.918 -85.9062Z" fill="#0074FF"/>
    <path d="M390.906 -108.302C390.555 -109.623 391.336 -110.994 392.658 -111.344C393.98 -111.695 395.352 -110.914 395.7 -109.581C396.052 -108.26 395.271 -106.889 393.949 -106.539C392.626 -106.188 391.254 -106.969 390.903 -108.29L390.906 -108.302Z" fill="#0074FF"/>
    <path d="M451.797 -50.5065L468.573 -67.2519L467.792 -68.0327L451.016 -51.2873L451.797 -50.5065Z" fill="#0074FF"/>
    <path d="M453.178 -49.1225C452.213 -48.1537 450.632 -48.1522 449.665 -49.1282C448.695 -50.0928 448.693 -51.6731 449.669 -52.6388C450.645 -53.6045 452.215 -53.6091 453.182 -52.6331C454.152 -51.6685 454.154 -50.0882 453.178 -49.1225Z" fill="#0074FF"/>
    <path d="M428.359 -56.4896L451.269 -50.3508L451.555 -51.4165L428.645 -57.5553L428.359 -56.4896Z" fill="#0074FF"/>
    <path d="M427.858 -54.6189C426.53 -54.9746 425.741 -56.3406 426.096 -57.667C426.452 -58.9935 427.818 -59.7817 429.146 -59.426C430.474 -59.0702 431.263 -57.7043 430.908 -56.3779C430.552 -55.0514 429.185 -54.2632 427.858 -54.6189Z" fill="#0074FF"/>
    <path d="M427.963 -56.8746L429.03 -57.1599L422.886 -80.0529L421.82 -79.7675L427.963 -56.8746Z" fill="#0074FF"/>
    <path d="M419.953 -79.2658C419.601 -80.5873 420.382 -81.9578 421.704 -82.3082C423.027 -82.6587 424.399 -81.878 424.75 -80.5566C425.101 -79.2351 424.32 -77.8646 422.998 -77.5142C421.676 -77.1637 420.304 -77.9444 419.953 -79.2658Z" fill="#0074FF"/>
    <path d="M422.752 -79.5194L439.524 -96.2678L438.744 -97.0484L421.971 -80.3001L422.752 -79.5194Z" fill="#0074FF"/>
    <path d="M437.368 -98.4163C438.333 -99.385 439.914 -99.3866 440.884 -98.4219C441.854 -97.4573 441.856 -95.877 440.88 -94.9113C439.915 -93.9425 438.333 -93.941 437.367 -94.917C436.397 -95.8817 436.394 -97.4619 437.371 -98.4276L437.368 -98.4163Z" fill="#0074FF"/>
</svg>
