<svg width="132" height="350" viewBox="0 0 132 350" fill="none" xmlns="http://www.w3.org/2000/svg">
<path d="M52.3781 333.317L52.3784 332.544L35.779 332.55L35.7787 333.323L52.3781 333.317Z" fill="#0074FF"/>
<path d="M52.3817 331.19C53.3392 331.192 54.1248 331.969 54.1222 332.927C54.1196 333.885 53.3428 334.671 52.3853 334.669C51.4277 334.667 50.6422 333.891 50.6448 332.933C50.6473 331.975 51.4241 331.188 52.3817 331.19Z" fill="#0074FF"/>
<path d="M27.808 347.516L36.1131 333.131L35.444 332.744L27.1388 347.129L27.808 347.516Z" fill="#0074FF"/>
<path d="M34.2694 332.066C34.7507 331.233 35.8177 330.946 36.6506 331.427C37.4835 331.908 37.7689 332.975 37.2876 333.809C36.8064 334.642 35.7393 334.929 34.9065 334.448C34.0736 333.967 33.7881 332.9 34.2694 332.066Z" fill="#0074FF"/>
<path d="M77.2841 318.92L77.2844 318.147L60.685 318.153L60.6847 318.926L77.2841 318.92Z" fill="#0074FF"/>
<path d="M77.2847 316.793C78.2422 316.795 79.0278 317.572 79.0252 318.53C79.0226 319.488 78.2458 320.274 77.2883 320.272C76.3307 320.271 75.5452 319.494 75.5477 318.536C75.5503 317.578 76.3271 316.792 77.2847 316.793Z" fill="#0074FF"/>
<path d="M52.718 333.123L61.0232 318.738L60.354 318.352L52.0489 332.737L52.718 333.123Z" fill="#0074FF"/>
<path d="M59.1795 317.674C59.6607 316.84 60.7278 316.554 61.5607 317.034C62.3935 317.515 62.679 318.583 62.1977 319.416C61.7165 320.25 60.6494 320.536 59.8165 320.055C58.9837 319.574 58.6982 318.507 59.1795 317.674Z" fill="#0074FF"/>
<path d="M77.3063 290.165L77.3066 289.392L60.7072 289.398L60.7069 290.171L77.3063 290.165Z" fill="#0074FF"/>
<path d="M77.297 288.036C78.2546 288.037 79.0402 288.814 79.0376 289.772C79.035 290.73 78.2582 291.516 77.3007 291.515C76.3431 291.513 75.5575 290.736 75.5601 289.778C75.5627 288.82 76.3395 288.034 77.297 288.036Z" fill="#0074FF"/>
<path d="M77.2841 318.92L77.2844 318.147L60.685 318.153L60.6847 318.926L77.2841 318.92Z" fill="#0074FF"/>
<path d="M60.6904 320.284C59.7328 320.282 58.9473 319.506 58.9499 318.548C58.9525 317.59 59.7292 316.803 60.6868 316.805C61.6444 316.807 62.4299 317.584 62.4273 318.542C62.4247 319.5 61.648 320.286 60.6904 320.284Z" fill="#0074FF"/>
<path d="M61.0326 318.347L52.7434 303.966L52.0738 304.352L60.3631 318.734L61.0326 318.347Z" fill="#0074FF"/>
<path d="M50.8814 305.036C50.401 304.208 50.6866 303.138 51.5221 302.66C52.3504 302.179 53.4198 302.464 53.8961 303.3C54.3765 304.128 54.0909 305.198 53.2554 305.675C52.4271 306.156 51.3577 305.871 50.8814 305.036Z" fill="#0074FF"/>
<path d="M52.7233 304.361L61.0285 289.976L60.3593 289.59L52.0542 303.975L52.7233 304.361Z" fill="#0074FF"/>
<path d="M59.1847 288.912C59.666 288.078 60.7331 287.792 61.5659 288.272C62.3988 288.753 62.6843 289.821 62.203 290.654C61.7217 291.488 60.6547 291.774 59.8218 291.293C58.9889 290.812 58.7035 289.745 59.1847 288.912Z" fill="#0074FF"/>
<path d="M27.4902 318.943L27.4905 318.17L10.8911 318.176L10.8908 318.95L27.4902 318.943Z" fill="#0074FF"/>
<path d="M27.4881 316.818C28.4456 316.82 29.2312 317.596 29.2286 318.554C29.226 319.512 28.4492 320.299 27.4917 320.297C26.5341 320.295 25.7486 319.519 25.7511 318.561C25.7537 317.603 26.5305 316.816 27.4881 316.818Z" fill="#0074FF"/>
<path d="M36.1156 332.74L27.8263 318.358L27.1568 318.745L35.446 333.126L36.1156 332.74Z" fill="#0074FF"/>
<path d="M37.29 332.062C37.7704 332.891 37.4847 333.961 36.6493 334.438C35.8209 334.919 34.7516 334.634 34.2753 333.799C33.7949 332.97 34.0805 331.9 34.9159 331.423C35.7514 330.946 36.8137 331.227 37.29 332.062Z" fill="#0074FF"/>
<path d="M27.808 347.516L36.1131 333.131L35.444 332.744L27.1388 347.129L27.808 347.516Z" fill="#0074FF"/>
<path d="M28.9825 348.194C28.5012 349.027 27.4342 349.314 26.6013 348.833C25.7684 348.352 25.483 347.285 25.9642 346.451C26.4455 345.618 27.5126 345.331 28.3454 345.812C29.1783 346.293 29.4638 347.36 28.9825 348.194Z" fill="#0074FF"/>
<path d="M52.385 304.549L52.3852 303.776L35.7859 303.783L35.7856 304.556L52.385 304.549Z" fill="#0074FF"/>
<path d="M52.3911 302.421C53.3486 302.423 54.1342 303.2 54.1316 304.157C54.129 305.115 53.3522 305.902 52.3947 305.9C51.4371 305.898 50.6516 305.122 50.6541 304.164C50.6567 303.206 51.4335 302.419 52.3911 302.421Z" fill="#0074FF"/>
<path d="M61.0326 318.347L52.7434 303.966L52.0738 304.352L60.3631 318.734L61.0326 318.347Z" fill="#0074FF"/>
<path d="M62.1959 317.677C62.6763 318.505 62.3907 319.575 61.5553 320.052C60.7269 320.533 59.6575 320.248 59.1813 319.413C58.7009 318.585 58.9865 317.515 59.8219 317.038C60.6503 316.556 61.7197 316.841 62.1959 317.677Z" fill="#0074FF"/>
<path d="M52.718 333.123L61.0232 318.738L60.354 318.352L52.0489 332.737L52.718 333.123Z" fill="#0074FF"/>
<path d="M53.8855 333.797C53.4042 334.631 52.3372 334.917 51.5043 334.436C50.6714 333.955 50.3859 332.888 50.8672 332.054C51.3485 331.221 52.4155 330.934 53.2484 331.415C54.0813 331.896 54.3668 332.963 53.8855 333.797Z" fill="#0074FF"/>
<path d="M52.3781 333.317L52.3784 332.544L35.779 332.55L35.7787 333.323L52.3781 333.317Z" fill="#0074FF"/>
<path d="M35.7803 334.677C34.8227 334.675 34.0372 333.899 34.0398 332.941C34.0424 331.983 34.8191 331.196 35.7767 331.198C36.7343 331.2 37.5198 331.976 37.5172 332.934C37.5146 333.892 36.7379 334.679 35.7803 334.677Z" fill="#0074FF"/>
<path d="M36.1156 332.74L27.8263 318.358L27.1568 318.745L35.446 333.126L36.1156 332.74Z" fill="#0074FF"/>
<path d="M25.9784 319.433C25.498 318.604 25.7837 317.534 26.6191 317.057C27.4475 316.576 28.5168 316.861 28.9931 317.696C29.4735 318.525 29.1879 319.595 28.3524 320.072C27.5241 320.553 26.4547 320.268 25.9784 319.433Z" fill="#0074FF"/>
<path d="M27.8244 318.751L36.1296 304.366L35.4604 303.979L27.1553 318.364L27.8244 318.751Z" fill="#0074FF"/>
<path d="M34.2859 303.301C33.8042 304.135 34.0895 305.202 34.9229 305.683C35.7564 306.164 36.8225 305.878 37.3041 305.044C37.7857 304.21 37.5005 303.143 36.6671 302.662C35.8336 302.181 34.7675 302.467 34.2859 303.301Z" fill="#0074FF"/>
<path d="M52.4183 275.791L52.4186 275.018L35.8192 275.024L35.819 275.797L52.4183 275.791Z" fill="#0074FF"/>
<path d="M52.4035 273.663C53.361 273.665 54.1466 274.442 54.144 275.4C54.1414 276.358 53.3646 277.144 52.4071 277.142C51.4495 277.14 50.664 276.364 50.6665 275.406C50.6691 274.448 51.4459 273.661 52.4035 273.663Z" fill="#0074FF"/>
<path d="M61.0363 289.585L52.747 275.203L52.0774 275.59L60.3667 289.971L61.0363 289.585Z" fill="#0074FF"/>
<path d="M62.2053 288.908C62.6857 289.736 62.4001 290.806 61.5647 291.283C60.7363 291.764 59.667 291.479 59.1907 290.644C58.7103 289.816 58.9959 288.745 59.8313 288.268C60.6597 287.787 61.7291 288.072 62.2094 288.9L62.2053 288.908Z" fill="#0074FF"/>
<path d="M52.7233 304.361L61.0285 289.976L60.3593 289.59L52.0542 303.975L52.7233 304.361Z" fill="#0074FF"/>
<path d="M53.8979 305.039C53.4166 305.873 52.3496 306.159 51.5167 305.678C50.6838 305.197 50.3983 304.13 50.8796 303.296C51.3609 302.463 52.4279 302.176 53.2608 302.657C54.0937 303.138 54.3792 304.205 53.8979 305.039Z" fill="#0074FF"/>
<path d="M52.385 304.549L52.3852 303.776L35.7859 303.783L35.7856 304.556L52.385 304.549Z" fill="#0074FF"/>
<path d="M35.7897 305.908C34.8321 305.906 34.0466 305.129 34.0492 304.172C34.0517 303.214 34.8285 302.427 35.7861 302.429C36.7437 302.431 37.5292 303.207 37.5266 304.165C37.524 305.123 36.7473 305.91 35.7897 305.908Z" fill="#0074FF"/>
<path d="M36.1427 303.976L27.8535 289.594L27.1839 289.981L35.4731 304.362L36.1427 303.976Z" fill="#0074FF"/>
<path d="M25.9879 290.664C25.5074 289.835 25.7931 288.765 26.6285 288.288C27.4569 287.807 28.5262 288.092 29.0025 288.927C29.4829 289.756 29.1973 290.826 28.3618 291.303C27.5335 291.784 26.4641 291.499 25.9879 290.664Z" fill="#0074FF"/>
<path d="M27.8297 289.989L36.1349 275.604L35.4657 275.217L27.1606 289.602L27.8297 289.989Z" fill="#0074FF"/>
<path d="M34.2911 274.539C33.8095 275.373 34.0947 276.44 34.9282 276.921C35.7617 277.402 36.8278 277.116 37.3094 276.282C37.791 275.448 37.5058 274.381 36.6723 273.9C35.8389 273.419 34.7728 273.705 34.2911 274.539Z" fill="#0074FF"/>
<path d="M77.2989 261.389L77.2992 260.616L60.6998 260.622L60.6995 261.395L77.2989 261.389Z" fill="#0074FF"/>
<path d="M77.3064 259.266C78.264 259.268 79.0495 260.045 79.047 261.003C79.0444 261.961 78.2676 262.747 77.31 262.745C76.3525 262.744 75.5669 261.967 75.5695 261.009C75.5721 260.051 76.3489 259.265 77.3064 259.266Z" fill="#0074FF"/>
<path d="M77.3063 290.165L77.3066 289.392L60.7072 289.398L60.7069 290.171L77.3063 290.165Z" fill="#0074FF"/>
<path d="M60.6957 291.522C59.7381 291.52 58.9526 290.744 58.9551 289.786C58.9577 288.828 59.7345 288.042 60.6921 288.043C61.6496 288.045 62.4352 288.822 62.4285 289.787C62.4259 290.745 61.6491 291.531 60.6915 291.529L60.6957 291.522Z" fill="#0074FF"/>
<path d="M61.0363 289.585L52.747 275.203L52.0774 275.59L60.3667 289.971L61.0363 289.585Z" fill="#0074FF"/>
<path d="M50.8979 276.271C50.4175 275.443 50.7031 274.373 51.5386 273.895C52.374 273.418 53.4363 273.699 53.9126 274.535C54.393 275.363 54.1074 276.433 53.2719 276.91C52.4436 277.391 51.3742 277.106 50.8979 276.271Z" fill="#0074FF"/>
<path d="M52.7398 275.596L61.045 261.211L60.3758 260.825L52.0707 275.21L52.7398 275.596Z" fill="#0074FF"/>
<path d="M59.2013 260.147C58.7196 260.981 59.0049 262.047 59.8383 262.528C60.6718 263.009 61.7379 262.723 62.2195 261.889C62.7011 261.055 62.4159 259.989 61.5825 259.507C60.749 259.026 59.6829 259.312 59.2013 260.147Z" fill="#0074FF"/>
<path d="M77.3211 232.634L77.3213 231.861L60.7219 231.867L60.7216 232.64L77.3211 232.634Z" fill="#0074FF"/>
<path d="M77.3188 230.509C78.2763 230.51 79.0619 231.287 79.0593 232.245C79.0567 233.203 78.2799 233.989 77.3224 233.988C76.3648 233.986 75.5793 233.209 75.5819 232.251C75.5845 231.293 76.3612 230.507 77.3188 230.509Z" fill="#0074FF"/>
<path d="M85.9455 246.433L77.6563 232.052L76.9867 232.438L85.276 246.82L85.9455 246.433Z" fill="#0074FF"/>
<path d="M87.1207 245.753C87.6011 246.581 87.3155 247.651 86.48 248.128C85.6517 248.61 84.5823 248.325 84.106 247.489C83.6256 246.661 83.9112 245.591 84.7467 245.114C85.5822 244.637 86.6444 244.917 87.1207 245.753Z" fill="#0074FF"/>
<path d="M77.2989 261.389L77.2992 260.616L60.6998 260.622L60.6995 261.395L77.2989 261.389Z" fill="#0074FF"/>
<path d="M60.705 262.753C59.7475 262.751 58.9619 261.975 58.9645 261.017C58.9671 260.059 59.7439 259.272 60.7014 259.274C61.659 259.276 62.4445 260.053 62.442 261.011C62.4394 261.969 61.6626 262.755 60.705 262.753Z" fill="#0074FF"/>
<path d="M61.0145 260.83L52.7277 246.447L52.0581 246.833L60.3448 261.216L61.0145 260.83Z" fill="#0074FF"/>
<path d="M50.9032 247.509C50.4228 246.681 50.7084 245.611 51.5439 245.133C52.3722 244.652 53.4416 244.937 53.9179 245.773C54.3983 246.601 54.1127 247.671 53.2772 248.148C52.4489 248.629 51.3795 248.344 50.9032 247.509Z" fill="#0074FF"/>
<path d="M52.7451 246.834L61.0502 232.449L60.3811 232.063L52.076 246.448L52.7451 246.834Z" fill="#0074FF"/>
<path d="M59.2065 231.385C59.6878 230.551 60.7548 230.265 61.5877 230.745C62.4206 231.226 62.7061 232.294 62.2248 233.127C61.7435 233.961 60.6765 234.247 59.8436 233.766C59.0107 233.285 58.7252 232.218 59.2065 231.385Z" fill="#0074FF"/>
<path d="M102.223 218.244L102.223 217.471L85.6238 217.477L85.6236 218.25L102.223 218.244Z" fill="#0074FF"/>
<path d="M102.222 216.112C103.179 216.114 103.965 216.89 103.962 217.848C103.96 218.806 103.183 219.593 102.225 219.591C101.268 219.589 100.482 218.812 100.485 217.854C100.487 216.896 101.264 216.11 102.222 216.112Z" fill="#0074FF"/>
<path d="M85.9455 246.433L77.6563 232.052L76.9867 232.438L85.276 246.82L85.9455 246.433Z" fill="#0074FF"/>
<path d="M75.8133 233.116C75.3329 232.288 75.6185 231.218 76.454 230.741C77.2823 230.259 78.3517 230.544 78.828 231.38C79.3084 232.208 79.0228 233.278 78.1873 233.755C77.359 234.237 76.2896 233.952 75.8133 233.116Z" fill="#0074FF"/>
<path d="M77.6552 232.441L85.9603 218.056L85.2912 217.67L76.9861 232.055L77.6552 232.441Z" fill="#0074FF"/>
<path d="M84.1166 216.992C83.635 217.826 83.9202 218.892 84.7537 219.374C85.5872 219.855 86.6533 219.569 87.1349 218.734C87.6165 217.9 87.3313 216.834 86.4978 216.353C85.6643 215.871 84.5982 216.158 84.1166 216.992Z" fill="#0074FF"/>
<path d="M102.238 189.485L102.238 188.711L85.6389 188.718L85.6386 189.491L102.238 189.485Z" fill="#0074FF"/>
<path d="M102.234 187.354C103.192 187.356 103.977 188.132 103.975 189.09C103.972 190.048 103.195 190.835 102.238 190.833C101.28 190.831 100.495 190.054 100.497 189.096C100.5 188.139 101.277 187.352 102.234 187.354Z" fill="#0074FF"/>
<path d="M110.848 203.277L102.559 188.896L101.889 189.282L110.178 203.664L110.848 203.277Z" fill="#0074FF"/>
<path d="M112.036 202.598C112.516 203.427 112.231 204.497 111.395 204.974C110.567 205.455 109.498 205.17 109.021 204.335C108.541 203.506 108.827 202.436 109.662 201.959C110.49 201.478 111.56 201.763 112.04 202.591L112.036 202.598Z" fill="#0074FF"/>
<path d="M102.223 218.244L102.223 217.471L85.6238 217.477L85.6236 218.25L102.223 218.244Z" fill="#0074FF"/>
<path d="M85.6204 219.599C84.6629 219.597 83.8773 218.82 83.8799 217.862C83.8825 216.904 84.6593 216.118 85.6168 216.12C86.5744 216.121 87.3599 216.898 87.3574 217.856C87.3548 218.814 86.578 219.6 85.6204 219.599Z" fill="#0074FF"/>
<path d="M85.9385 217.678L77.6517 203.295L76.9821 203.681L85.2689 218.064L85.9385 217.678Z" fill="#0074FF"/>
<path d="M75.8186 204.354C75.3382 203.526 75.6238 202.456 76.4592 201.979C77.2876 201.497 78.357 201.782 78.8332 202.618C79.3136 203.446 79.028 204.516 78.1926 204.993C77.3642 205.475 76.2948 205.19 75.8186 204.354Z" fill="#0074FF"/>
<path d="M77.6646 203.672L85.9697 189.287L85.3006 188.901L76.9954 203.286L77.6646 203.672Z" fill="#0074FF"/>
<path d="M84.126 188.223C83.6444 189.057 83.9296 190.123 84.7631 190.604C85.5965 191.086 86.6626 190.8 87.1443 189.965C87.6259 189.131 87.3407 188.065 86.5072 187.584C85.6737 187.102 84.6076 187.389 84.126 188.223Z" fill="#0074FF"/>
<path d="M127.137 175.084L127.137 174.31L110.538 174.317L110.537 175.09L127.137 175.084Z" fill="#0074FF"/>
<path d="M127.137 172.957C128.095 172.959 128.88 173.735 128.878 174.693C128.875 175.651 128.098 176.438 127.141 176.436C126.183 176.434 125.398 175.658 125.4 174.7C125.403 173.742 126.18 172.955 127.137 172.957Z" fill="#0074FF"/>
<path d="M110.848 203.277L102.559 188.896L101.889 189.282L110.178 203.664L110.848 203.277Z" fill="#0074FF"/>
<path d="M100.729 189.962C100.248 189.133 100.534 188.063 101.369 187.586C102.205 187.109 103.267 187.39 103.743 188.225C104.224 189.054 103.938 190.124 103.103 190.601C102.274 191.082 101.205 190.797 100.729 189.962Z" fill="#0074FF"/>
<path d="M102.571 189.287L110.876 174.902L110.207 174.515L101.901 188.9L102.571 189.287Z" fill="#0074FF"/>
<path d="M109.032 173.837C108.55 174.671 108.836 175.738 109.669 176.219C110.503 176.7 111.569 176.414 112.05 175.58C112.532 174.746 112.247 173.679 111.413 173.198C110.58 172.717 109.514 173.003 109.032 173.837Z" fill="#0074FF"/>
<path d="M127.137 175.084L127.137 174.31L110.538 174.317L110.537 175.09L127.137 175.084Z" fill="#0074FF"/>
<path d="M110.536 176.444C109.578 176.442 108.793 175.665 108.795 174.707C108.798 173.749 109.575 172.963 110.532 172.965C111.49 172.967 112.275 173.743 112.273 174.701C112.27 175.659 111.493 176.446 110.536 176.444Z" fill="#0074FF"/>
<path d="M110.882 174.517L102.593 160.136L101.923 160.522L110.212 174.904L110.882 174.517Z" fill="#0074FF"/>
<path d="M100.734 161.2C100.254 160.371 100.539 159.301 101.375 158.824C102.203 158.343 103.272 158.628 103.749 159.463C104.229 160.292 103.943 161.362 103.108 161.839C102.28 162.32 101.21 162.035 100.734 161.2Z" fill="#0074FF"/>
<path d="M102.58 160.517L110.885 146.133L110.216 145.746L101.911 160.131L102.58 160.517Z" fill="#0074FF"/>
<path d="M109.041 145.068C109.523 144.234 110.59 143.948 111.423 144.429C112.255 144.91 112.541 145.977 112.06 146.811C111.578 147.644 110.511 147.931 109.678 147.45C108.846 146.969 108.56 145.902 109.041 145.068Z" fill="#0074FF"/>
<path d="M152.069 103.175L152.069 102.402L135.47 102.408L135.469 103.181L152.069 103.175Z" fill="#0074FF"/>
<path d="M152.069 101.037C153.027 101.039 153.812 101.816 153.81 102.774C153.807 103.732 153.03 104.518 152.073 104.516C151.115 104.515 150.33 103.738 150.332 102.78C150.335 101.822 151.111 101.036 152.069 101.037Z" fill="#0074FF"/>
<path d="M127.495 117.363L135.8 102.978L135.131 102.592L126.826 116.976L127.495 117.363Z" fill="#0074FF"/>
<path d="M133.957 101.913C133.475 102.748 133.76 103.814 134.594 104.295C135.427 104.776 136.493 104.49 136.975 103.656C137.457 102.822 137.171 101.755 136.338 101.274C135.504 100.793 134.438 101.079 133.957 101.913Z" fill="#0074FF"/>
<path d="M27.4899 290.172L27.4902 289.398L10.8908 289.405L10.8905 290.178L27.4899 290.172Z" fill="#0074FF"/>
<path d="M27.4975 288.049C28.455 288.051 29.2406 288.827 29.238 289.785C29.2354 290.743 28.4586 291.53 27.5011 291.528C26.5435 291.526 25.758 290.749 25.7605 289.791C25.7631 288.833 26.5399 288.047 27.4975 288.049Z" fill="#0074FF"/>
<path d="M36.1427 303.976L27.8535 289.594L27.1839 289.981L35.4731 304.362L36.1427 303.976Z" fill="#0074FF"/>
<path d="M37.2952 303.3C37.7756 304.129 37.49 305.199 36.6545 305.676C35.8262 306.157 34.7568 305.872 34.2805 305.037C33.8001 304.208 34.0857 303.138 34.9212 302.661C35.7495 302.18 36.8189 302.465 37.2952 303.3Z" fill="#0074FF"/>
<path d="M27.8244 318.751L36.1296 304.366L35.4604 303.979L27.1553 318.364L27.8244 318.751Z" fill="#0074FF"/>
<path d="M28.9919 319.425C28.5106 320.258 27.4436 320.545 26.6107 320.064C25.7778 319.583 25.4923 318.516 25.9736 317.682C26.4549 316.848 27.5219 316.562 28.3548 317.043C29.1877 317.524 29.4732 318.591 28.9919 319.425Z" fill="#0074FF"/>
<path d="M27.4902 318.943L27.4905 318.17L10.8911 318.176L10.8908 318.95L27.4902 318.943Z" fill="#0074FF"/>
<path d="M10.8867 320.305C9.92914 320.303 9.14359 319.526 9.14617 318.568C9.14876 317.61 9.92553 316.824 10.8831 316.826C11.8406 316.828 12.6262 317.604 12.6236 318.562C12.621 319.52 11.8443 320.307 10.8867 320.305Z" fill="#0074FF"/>
<path d="M27.5193 261.42L27.5195 260.647L10.9201 260.653L10.9198 261.427L27.5193 261.42Z" fill="#0074FF"/>
<path d="M27.5099 259.291C28.4674 259.293 29.253 260.069 29.2504 261.027C29.2478 261.985 28.471 262.772 27.5135 262.77C26.5559 262.768 25.7704 261.991 25.7729 261.034C25.7755 260.076 26.5523 259.289 27.5099 259.291Z" fill="#0074FF"/>
<path d="M36.1391 275.209L27.8499 260.828L27.1803 261.215L35.4696 275.596L36.1391 275.209Z" fill="#0074FF"/>
<path d="M37.3117 274.535C37.7921 275.364 37.5065 276.434 36.6711 276.911C35.8427 277.392 34.7733 277.107 34.297 276.272C33.8167 275.443 34.1023 274.373 34.9377 273.896C35.7661 273.415 36.8355 273.7 37.3158 274.528L37.3117 274.535Z" fill="#0074FF"/>
<path d="M27.8297 289.989L36.1349 275.604L35.4657 275.217L27.1606 289.602L27.8297 289.989Z" fill="#0074FF"/>
<path d="M29.0043 290.667C28.523 291.5 27.456 291.787 26.6231 291.306C25.7902 290.825 25.5047 289.758 25.986 288.924C26.4673 288.091 27.5343 287.804 28.3672 288.285C29.2001 288.766 29.4856 289.833 29.0043 290.667Z" fill="#0074FF"/>
<path d="M27.4899 290.172L27.4902 289.398L10.8908 289.405L10.8905 290.178L27.4899 290.172Z" fill="#0074FF"/>
<path d="M10.8961 291.536C9.93853 291.534 9.15298 290.757 9.15556 289.799C9.15815 288.841 9.93494 288.055 10.8925 288.057C11.8501 288.058 12.6356 288.835 12.633 289.793C12.6304 290.751 11.8537 291.537 10.8961 291.536Z" fill="#0074FF"/>
<path d="M2.93612 275.616L11.2413 261.231L10.5721 260.845L2.26697 275.23L2.93612 275.616Z" fill="#0074FF"/>
<path d="M9.39754 260.167C8.91591 261.001 9.20116 262.067 10.0346 262.549C10.8681 263.03 11.9342 262.744 12.4158 261.909C12.8974 261.075 12.6122 260.009 11.7787 259.528C10.9453 259.047 9.87917 259.333 9.39754 260.167Z" fill="#0074FF"/>
<path d="M52.4069 247.022L52.4071 246.249L35.8077 246.255L35.8075 247.029L52.4069 247.022Z" fill="#0074FF"/>
<path d="M52.4128 244.894C53.3704 244.896 54.1559 245.673 54.1534 246.63C54.1508 247.588 53.374 248.375 52.4164 248.373C51.4589 248.371 50.6733 247.595 50.6759 246.637C50.6785 245.679 51.4553 244.892 52.4128 244.894Z" fill="#0074FF"/>
<path d="M61.0145 260.83L52.7277 246.447L52.0581 246.833L60.3448 261.216L61.0145 260.83Z" fill="#0074FF"/>
<path d="M62.2106 260.146C62.691 260.974 62.4054 262.044 61.5699 262.521C60.7416 263.002 59.6722 262.717 59.1959 261.882C58.7155 261.054 59.0011 259.984 59.8366 259.506C60.6649 259.025 61.7343 259.31 62.2106 260.146Z" fill="#0074FF"/>
<path d="M52.7398 275.596L61.045 261.211L60.3758 260.825L52.0707 275.21L52.7398 275.596Z" fill="#0074FF"/>
<path d="M50.8961 274.531C50.4145 275.366 50.6997 276.432 51.5332 276.913C52.3667 277.394 53.4328 277.108 53.9144 276.274C54.396 275.44 54.1108 274.373 53.2773 273.892C52.4438 273.411 51.3777 273.697 50.8961 274.531Z" fill="#0074FF"/>
<path d="M52.4183 275.791L52.4186 275.018L35.8192 275.024L35.819 275.797L52.4183 275.791Z" fill="#0074FF"/>
<path d="M35.8021 277.15C34.8445 277.148 34.059 276.372 34.0615 275.414C34.0641 274.456 34.8409 273.669 35.7985 273.671C36.756 273.673 37.5416 274.449 37.5349 275.415C37.5323 276.373 36.7555 277.159 35.7979 277.157L35.8021 277.15Z" fill="#0074FF"/>
<path d="M36.1391 275.209L27.8499 260.828L27.1803 261.215L35.4696 275.596L36.1391 275.209Z" fill="#0074FF"/>
<path d="M26.0043 261.899C25.5239 261.07 25.8095 260 26.645 259.523C27.4733 259.042 28.5427 259.327 29.019 260.162C29.4994 260.991 29.2138 262.061 28.3783 262.538C27.55 263.019 26.4806 262.734 26.0043 261.899Z" fill="#0074FF"/>
<path d="M27.8462 261.224L36.1514 246.839L35.4822 246.452L27.1771 260.837L27.8462 261.224Z" fill="#0074FF"/>
<path d="M34.3076 245.774C33.826 246.608 34.1113 247.675 34.9447 248.156C35.7782 248.637 36.8443 248.351 37.3259 247.517C37.8075 246.683 37.5223 245.616 36.6888 245.135C35.8554 244.654 34.7893 244.94 34.3076 245.774Z" fill="#0074FF"/>
<path d="M52.4219 218.263L52.4222 217.49L35.8228 217.496L35.8225 218.269L52.4219 218.263Z" fill="#0074FF"/>
<path d="M52.4252 216.136C53.3828 216.138 54.1683 216.915 54.1657 217.873C54.1632 218.831 53.3864 219.617 52.4288 219.615C51.4713 219.613 50.6857 218.837 50.6883 217.879C50.6909 216.921 51.4677 216.134 52.4252 216.136Z" fill="#0074FF"/>
<path d="M61.0556 232.062L52.7663 217.68L52.0967 218.067L60.386 232.448L61.0556 232.062Z" fill="#0074FF"/>
<path d="M62.2271 231.381C62.7075 232.209 62.4219 233.279 61.5864 233.756C60.751 234.233 59.6887 233.952 59.2124 233.117C58.732 232.289 59.0176 231.219 59.8531 230.741C60.6814 230.26 61.7508 230.545 62.2271 231.381Z" fill="#0074FF"/>
<path d="M52.7451 246.834L61.0502 232.449L60.3811 232.063L52.076 246.448L52.7451 246.834Z" fill="#0074FF"/>
<path d="M50.9014 245.769C50.4197 246.604 50.705 247.67 51.5384 248.151C52.3719 248.632 53.438 248.346 53.9196 247.512C54.4013 246.678 54.116 245.612 53.2826 245.13C52.4491 244.649 51.383 244.935 50.9014 245.769Z" fill="#0074FF"/>
<path d="M52.4069 247.022L52.4071 246.249L35.8077 246.255L35.8075 247.029L52.4069 247.022Z" fill="#0074FF"/>
<path d="M35.8114 248.381C34.8539 248.379 34.0683 247.603 34.0709 246.645C34.0735 245.687 34.8503 244.9 35.8078 244.902C36.7654 244.904 37.551 245.68 37.5484 246.638C37.5458 247.596 36.769 248.383 35.8114 248.381Z" fill="#0074FF"/>
<path d="M36.1509 246.456L27.8616 232.074L27.192 232.461L35.4813 246.842L36.1509 246.456Z" fill="#0074FF"/>
<path d="M26.0096 233.137C25.5292 232.308 25.8148 231.238 26.6503 230.761C27.4786 230.28 28.548 230.565 29.0243 231.4C29.5047 232.229 29.219 233.299 28.3836 233.776C27.5553 234.257 26.4859 233.972 26.0096 233.137Z" fill="#0074FF"/>
<path d="M27.8515 232.462L36.1566 218.077L35.4875 217.69L27.1823 232.075L27.8515 232.462Z" fill="#0074FF"/>
<path d="M34.3129 217.012C34.7942 216.179 35.8612 215.892 36.6941 216.373C37.5269 216.854 37.8124 217.921 37.3312 218.755C36.8499 219.588 35.7828 219.875 34.95 219.394C34.1171 218.913 33.8316 217.846 34.3129 217.012Z" fill="#0074FF"/>
<path d="M77.335 203.87L77.3353 203.097L60.7359 203.103L60.7356 203.876L77.335 203.87Z" fill="#0074FF"/>
<path d="M77.3282 201.739C78.2858 201.741 79.0713 202.518 79.0687 203.476C79.0661 204.434 78.2894 205.22 77.3318 205.218C76.3742 205.217 75.5887 204.44 75.5913 203.482C75.5939 202.524 76.3706 201.738 77.3282 201.739Z" fill="#0074FF"/>
<path d="M85.9385 217.678L77.6517 203.295L76.9821 203.681L85.2689 218.064L85.9385 217.678Z" fill="#0074FF"/>
<path d="M87.126 216.991C87.6064 217.819 87.3208 218.889 86.4853 219.366C85.657 219.848 84.5876 219.563 84.1113 218.727C83.6309 217.899 83.9165 216.829 84.752 216.352C85.5803 215.87 86.6497 216.155 87.126 216.991Z" fill="#0074FF"/>
<path d="M77.6552 232.441L85.9603 218.056L85.2912 217.67L76.9861 232.055L77.6552 232.441Z" fill="#0074FF"/>
<path d="M78.8227 233.115C78.3414 233.949 77.2743 234.235 76.4415 233.754C75.6086 233.274 75.3231 232.206 75.8044 231.373C76.2857 230.539 77.3527 230.253 78.1856 230.733C79.0185 231.214 79.3039 232.282 78.8227 233.115Z" fill="#0074FF"/>
<path d="M77.3211 232.634L77.3213 231.861L60.7219 231.867L60.7216 232.64L77.3211 232.634Z" fill="#0074FF"/>
<path d="M60.7174 233.995C59.7599 233.993 58.9743 233.217 58.9769 232.259C58.9795 231.301 59.7563 230.514 60.7138 230.516C61.6714 230.518 62.4569 231.295 62.4544 232.253C62.4518 233.211 61.675 233.997 60.7174 233.995Z" fill="#0074FF"/>
<path d="M61.0556 232.062L52.7663 217.68L52.0967 218.067L60.386 232.448L61.0556 232.062Z" fill="#0074FF"/>
<path d="M50.9197 218.744C50.4393 217.916 50.7249 216.845 51.5604 216.368C52.3887 215.887 53.4581 216.172 53.9344 217.008C54.4148 217.836 54.1292 218.906 53.2937 219.383C52.4654 219.864 51.396 219.579 50.9197 218.744Z" fill="#0074FF"/>
<path d="M52.7616 218.069L61.0667 203.684L60.3976 203.298L52.0925 217.683L52.7616 218.069Z" fill="#0074FF"/>
<path d="M59.223 202.62C58.7414 203.454 59.0266 204.52 59.8601 205.001C60.6936 205.483 61.7597 205.196 62.2413 204.362C62.7229 203.528 62.4377 202.462 61.6042 201.98C60.7707 201.499 59.7046 201.785 59.223 202.62Z" fill="#0074FF"/>
<path d="M77.3359 175.103L77.3362 174.329L60.7368 174.336L60.7365 175.109L77.3359 175.103Z" fill="#0074FF"/>
<path d="M77.3406 172.982C78.2982 172.983 79.0837 173.76 79.0811 174.718C79.0786 175.676 78.3018 176.462 77.3442 176.461C76.3866 176.459 75.6011 175.682 75.6037 174.724C75.6062 173.766 76.383 172.98 77.3406 172.982Z" fill="#0074FF"/>
<path d="M85.9578 188.906L77.6686 174.524L76.999 174.911L85.2883 189.292L85.9578 188.906Z" fill="#0074FF"/>
<path d="M87.1425 188.226C87.6229 189.054 87.3373 190.124 86.5018 190.601C85.6735 191.083 84.6041 190.798 84.1278 189.962C83.6474 189.134 83.933 188.064 84.7685 187.587C85.5968 187.105 86.6662 187.39 87.1466 188.219L87.1425 188.226Z" fill="#0074FF"/>
<path d="M77.6646 203.672L85.9697 189.287L85.3006 188.901L76.9954 203.286L77.6646 203.672Z" fill="#0074FF"/>
<path d="M78.8391 204.35C78.3579 205.184 77.2908 205.47 76.4579 204.989C75.6251 204.509 75.3396 203.441 75.8209 202.608C76.3022 201.774 77.3692 201.488 78.2021 201.968C79.0349 202.449 79.3204 203.517 78.8391 204.35Z" fill="#0074FF"/>
<path d="M77.335 203.87L77.3353 203.097L60.7359 203.103L60.7356 203.876L77.335 203.87Z" fill="#0074FF"/>
<path d="M60.7268 205.226C59.7693 205.224 58.9837 204.448 58.9863 203.49C58.9889 202.532 59.7657 201.745 60.7232 201.747C61.6808 201.749 62.4663 202.526 62.4638 203.484C62.4612 204.442 61.6844 205.228 60.7268 205.226Z" fill="#0074FF"/>
<path d="M61.0643 203.297L52.7751 188.915L52.1055 189.302L60.3948 203.683L61.0643 203.297Z" fill="#0074FF"/>
<path d="M50.925 189.982C50.4446 189.154 50.7302 188.084 51.5656 187.606C52.394 187.125 53.4633 187.41 53.9396 188.246C54.42 189.074 54.1344 190.144 53.299 190.621C52.4706 191.102 51.4012 190.817 50.925 189.982Z" fill="#0074FF"/>
<path d="M52.771 189.3L61.0761 174.915L60.4069 174.529L52.1018 188.913L52.771 189.3Z" fill="#0074FF"/>
<path d="M59.2324 173.85C58.7508 174.685 59.036 175.751 59.8695 176.232C60.7029 176.713 61.769 176.427 62.2507 175.593C62.7323 174.759 62.4471 173.692 61.6136 173.211C60.7801 172.73 59.714 173.016 59.2324 173.85Z" fill="#0074FF"/>
<path d="M102.238 160.713L102.238 159.94L85.6386 159.946L85.6383 160.719L102.238 160.713Z" fill="#0074FF"/>
<path d="M102.244 158.585C103.201 158.587 103.987 159.363 103.984 160.321C103.982 161.279 103.205 162.066 102.247 162.064C101.29 162.062 100.504 161.285 100.507 160.327C100.509 159.369 101.286 158.583 102.244 158.585Z" fill="#0074FF"/>
<path d="M110.882 174.517L102.593 160.136L101.923 160.522L110.212 174.904L110.882 174.517Z" fill="#0074FF"/>
<path d="M112.041 173.836C112.522 174.664 112.236 175.735 111.401 176.212C110.572 176.693 109.503 176.408 109.027 175.573C108.546 174.744 108.832 173.674 109.667 173.197C110.496 172.716 111.565 173.001 112.041 173.836Z" fill="#0074FF"/>
<path d="M102.571 189.287L110.876 174.902L110.207 174.515L101.901 188.9L102.571 189.287Z" fill="#0074FF"/>
<path d="M100.727 188.222C100.245 189.056 100.53 190.123 101.364 190.604C102.197 191.085 103.264 190.799 103.745 189.965C104.227 189.13 103.942 188.064 103.108 187.583C102.275 187.102 101.208 187.388 100.727 188.222Z" fill="#0074FF"/>
<path d="M102.238 189.485L102.238 188.711L85.6389 188.718L85.6386 189.491L102.238 189.485Z" fill="#0074FF"/>
<path d="M85.6328 190.841C84.6753 190.839 83.8897 190.062 83.8923 189.104C83.8949 188.146 84.6717 187.36 85.6292 187.362C86.5868 187.364 87.3723 188.14 87.3656 189.105C87.363 190.063 86.5863 190.85 85.6287 190.848L85.6328 190.841Z" fill="#0074FF"/>
<path d="M85.9578 188.906L77.6686 174.524L76.999 174.911L85.2883 189.292L85.9578 188.906Z" fill="#0074FF"/>
<path d="M75.8351 175.589C75.3547 174.761 75.6403 173.691 76.4757 173.214C77.3041 172.732 78.3735 173.017 78.8497 173.853C79.3301 174.681 79.0445 175.751 78.2091 176.228C77.3807 176.71 76.3113 176.425 75.8351 175.589Z" fill="#0074FF"/>
<path d="M77.677 174.914L85.9821 160.529L85.313 160.143L77.0078 174.528L77.677 174.914Z" fill="#0074FF"/>
<path d="M84.1384 159.465C83.6568 160.299 83.942 161.365 84.7755 161.847C85.6089 162.328 86.675 162.042 87.1567 161.207C87.6383 160.373 87.353 159.307 86.5196 158.826C85.6861 158.344 84.62 158.631 84.1384 159.465Z" fill="#0074FF"/>
<path d="M102.253 131.953L102.253 131.18L85.6537 131.186L85.6534 131.96L102.253 131.953Z" fill="#0074FF"/>
<path d="M102.256 129.827C103.214 129.829 103.999 130.605 103.997 131.563C103.994 132.521 103.217 133.308 102.26 133.306C101.302 133.304 100.516 132.527 100.519 131.569C100.522 130.611 101.298 129.825 102.256 129.827Z" fill="#0074FF"/>
<path d="M110.89 145.748L102.6 131.366L101.931 131.753L110.22 146.135L110.89 145.748Z" fill="#0074FF"/>
<path d="M112.058 145.071C112.538 145.9 112.253 146.97 111.417 147.447C110.582 147.924 109.519 147.643 109.043 146.808C108.563 145.979 108.848 144.909 109.684 144.432C110.512 143.951 111.582 144.236 112.058 145.071Z" fill="#0074FF"/>
<path d="M102.58 160.517L110.885 146.133L110.216 145.746L101.911 160.131L102.58 160.517Z" fill="#0074FF"/>
<path d="M100.736 159.453C100.255 160.287 100.54 161.353 101.373 161.835C102.207 162.316 103.273 162.03 103.755 161.196C104.236 160.361 103.951 159.295 103.117 158.814C102.284 158.333 101.218 158.619 100.736 159.453Z" fill="#0074FF"/>
<path d="M102.238 160.713L102.238 159.94L85.6386 159.946L85.6383 160.719L102.238 160.713Z" fill="#0074FF"/>
<path d="M85.6422 162.071C84.6847 162.07 83.8991 161.293 83.9017 160.335C83.9043 159.377 84.6811 158.591 85.6386 158.593C86.5962 158.594 87.3817 159.371 87.3791 160.329C87.3766 161.287 86.5998 162.073 85.6422 162.071Z" fill="#0074FF"/>
<path d="M85.9625 160.148L77.6732 145.766L77.0036 146.153L85.2929 160.534L85.9625 160.148Z" fill="#0074FF"/>
<path d="M75.8403 146.827C75.3599 145.999 75.6455 144.929 76.481 144.452C77.3093 143.97 78.3787 144.255 78.855 145.091C79.3354 145.919 79.0498 146.989 78.2143 147.466C77.386 147.948 76.3166 147.663 75.8403 146.827Z" fill="#0074FF"/>
<path d="M77.6864 146.145L85.9915 131.76L85.3223 131.374L77.0172 145.759L77.6864 146.145Z" fill="#0074FF"/>
<path d="M84.1478 130.696C84.629 129.862 85.6961 129.576 86.529 130.057C87.3618 130.537 87.6473 131.605 87.166 132.438C86.6848 133.272 85.6177 133.558 84.7848 133.077C83.952 132.597 83.6665 131.529 84.1478 130.696Z" fill="#0074FF"/>
<path d="M127.159 117.556L127.159 116.783L110.56 116.79L110.559 117.563L127.159 117.556Z" fill="#0074FF"/>
<path d="M127.159 115.43C128.117 115.432 128.902 116.208 128.899 117.166C128.897 118.124 128.12 118.911 127.163 118.909C126.205 118.907 125.419 118.131 125.422 117.173C125.425 116.215 126.201 115.428 127.159 115.43Z" fill="#0074FF"/>
<path d="M110.89 145.748L102.6 131.366L101.931 131.753L110.22 146.135L110.89 145.748Z" fill="#0074FF"/>
<path d="M100.75 132.435C100.27 131.606 100.556 130.536 101.391 130.059C102.219 129.578 103.289 129.863 103.765 130.698C104.245 131.527 103.96 132.597 103.124 133.074C102.296 133.555 101.227 133.27 100.75 132.435Z" fill="#0074FF"/>
<path d="M102.592 131.76L110.897 117.375L110.228 116.988L101.923 131.373L102.592 131.76Z" fill="#0074FF"/>
<path d="M109.054 116.31C108.572 117.144 108.857 118.211 109.691 118.692C110.524 119.173 111.59 118.887 112.072 118.053C112.554 117.219 112.268 116.152 111.435 115.671C110.601 115.19 109.535 115.476 109.054 116.31Z" fill="#0074FF"/>
<path d="M127.174 88.7971L127.174 88.0239L110.575 88.0302L110.574 88.8033L127.174 88.7971Z" fill="#0074FF"/>
<path d="M127.175 86.6651C128.133 86.6669 128.919 87.4435 128.916 88.4014C128.913 89.3594 128.137 90.1459 127.179 90.144C126.221 90.1422 125.436 89.3657 125.439 88.4077C125.441 87.4497 126.218 86.6632 127.175 86.6651Z" fill="#0074FF"/>
<path d="M135.799 102.596L127.51 88.2147L126.84 88.6013L135.129 102.983L135.799 102.596Z" fill="#0074FF"/>
<path d="M136.973 101.916C137.454 102.745 137.168 103.815 136.333 104.292C135.504 104.773 134.435 104.488 133.959 103.653C133.478 102.825 133.764 101.754 134.599 101.277C135.428 100.796 136.497 101.081 136.973 101.916Z" fill="#0074FF"/>
<path d="M127.495 117.363L135.8 102.978L135.131 102.592L126.826 116.976L127.495 117.363Z" fill="#0074FF"/>
<path d="M125.652 116.298C125.17 117.132 125.455 118.199 126.289 118.68C127.122 119.161 128.188 118.875 128.67 118.041C129.152 117.207 128.866 116.14 128.033 115.659C127.199 115.178 126.133 115.464 125.652 116.298Z" fill="#0074FF"/>
<path d="M127.159 117.556L127.159 116.783L110.56 116.79L110.559 117.563L127.159 117.556Z" fill="#0074FF"/>
<path d="M110.558 118.917C109.6 118.915 108.814 118.138 108.817 117.18C108.82 116.223 109.596 115.436 110.554 115.438C111.512 115.44 112.297 116.216 112.294 117.174C112.292 118.132 111.515 118.919 110.558 118.917Z" fill="#0074FF"/>
<path d="M110.894 116.99L102.605 102.608L101.935 102.995L110.225 117.377L110.894 116.99Z" fill="#0074FF"/>
<path d="M100.756 103.673C100.275 102.844 100.561 101.774 101.396 101.297C102.232 100.82 103.294 101.101 103.77 101.936C104.251 102.765 103.965 103.835 103.13 104.312C102.301 104.793 101.232 104.508 100.756 103.673Z" fill="#0074FF"/>
<path d="M102.602 102.99L110.907 88.6055L110.238 88.2192L101.933 102.604L102.602 102.99Z" fill="#0074FF"/>
<path d="M109.063 87.5411C108.582 88.3753 108.867 89.4416 109.7 89.9228C110.534 90.404 111.6 90.1178 112.081 89.2837C112.563 88.4495 112.278 87.3831 111.444 86.9019C110.611 86.4207 109.545 86.7069 109.063 87.5411Z" fill="#0074FF"/>
<path d="M152.069 74.4032L152.069 73.63L135.469 73.6363L135.469 74.4095L152.069 74.4032Z" fill="#0074FF"/>
<path d="M152.074 72.2754C153.032 72.2773 153.817 73.0538 153.815 74.0118C153.812 74.9698 153.035 75.7562 152.078 75.7544C151.12 75.7525 150.335 74.976 150.337 74.018C150.34 73.06 151.117 72.2735 152.074 72.2754Z" fill="#0074FF"/>
<path d="M152.069 103.175L152.069 102.402L135.47 102.408L135.469 103.181L152.069 103.175Z" fill="#0074FF"/>
<path d="M135.464 104.531C134.506 104.529 133.72 103.753 133.723 102.795C133.726 101.837 134.502 101.05 135.46 101.052C136.418 101.054 137.203 101.831 137.2 102.789C137.198 103.747 136.421 104.533 135.464 104.531Z" fill="#0074FF"/>
<path d="M135.799 102.596L127.51 88.2147L126.84 88.6013L135.129 102.983L135.799 102.596Z" fill="#0074FF"/>
<path d="M125.666 89.2799C125.185 88.4515 125.471 87.3815 126.306 86.9043C127.135 86.4231 128.204 86.708 128.68 87.5435C129.161 88.3718 128.875 89.4419 128.04 89.919C127.211 90.4002 126.142 90.1153 125.666 89.2799Z" fill="#0074FF"/>
<path d="M127.508 88.6048L135.813 74.22L135.144 73.8336L126.839 88.2185L127.508 88.6048Z" fill="#0074FF"/>
<path d="M133.969 73.1555C133.487 73.9897 133.773 75.056 134.606 75.5372C135.44 76.0184 136.506 75.7323 136.987 74.8981C137.469 74.0639 137.184 72.9975 136.35 72.5163C135.517 72.0351 134.451 72.3213 133.969 73.1555Z" fill="#0074FF"/>
<path d="M152.069 74.4032L152.069 73.63L135.469 73.6363L135.469 74.4095L152.069 74.4032Z" fill="#0074FF"/>
<path d="M135.473 75.7622C134.515 75.7603 133.73 74.9838 133.732 74.0258C133.735 73.0678 134.512 72.2813 135.469 72.2832C136.427 72.2851 137.212 73.0616 137.21 74.0196C137.207 74.9776 136.43 75.764 135.473 75.7622Z" fill="#0074FF"/>
<path d="M135.815 73.8352L127.526 59.4537L126.856 59.8403L135.145 74.2218L135.815 73.8352Z" fill="#0074FF"/>
<path d="M125.671 60.5179C125.191 59.6895 125.476 58.6195 126.312 58.1424C127.14 57.6611 128.209 57.9461 128.686 58.7815C129.166 59.6098 128.881 60.6799 128.045 61.157C127.217 61.6383 126.147 61.3533 125.671 60.5179Z" fill="#0074FF"/>
<path d="M127.517 59.8357L135.822 45.4508L135.153 45.0645L126.848 59.4494L127.517 59.8357Z" fill="#0074FF"/>
<path d="M133.979 44.3864C134.46 43.5528 135.527 43.2664 136.36 43.7472C137.193 44.2281 137.478 45.2954 136.997 46.129C136.515 46.9626 135.448 47.249 134.616 46.7681C133.783 46.2873 133.497 45.22 133.979 44.3864Z" fill="#0074FF"/>
<path d="M11.2183 260.848L2.93157 246.465L2.26193 246.852L10.5487 261.234L11.2183 260.848Z" fill="#0074FF"/>
<path d="M12.4181 260.163C12.8985 260.991 12.6129 262.061 11.7775 262.538C10.9491 263.02 9.87976 262.735 9.40347 261.899C8.92308 261.071 9.20869 260.001 10.0441 259.524C10.8725 259.042 11.9419 259.327 12.4222 260.156L12.4181 260.163Z" fill="#0074FF"/>
<path d="M2.93612 275.616L11.2413 261.231L10.5721 260.845L2.26697 275.23L2.93612 275.616Z" fill="#0074FF"/>
<path d="M4.11068 276.294C3.6294 277.128 2.56238 277.414 1.72951 276.934C0.896641 276.453 0.611132 275.385 1.09241 274.552C1.57369 273.718 2.64074 273.432 3.47361 273.913C4.30648 274.394 4.59196 275.461 4.11068 276.294Z" fill="#0074FF"/>
<path d="M27.5189 232.649L27.5192 231.875L10.9199 231.882L10.9196 232.655L27.5189 232.649Z" fill="#0074FF"/>
<path d="M27.5192 230.522C28.4768 230.524 29.2624 231.3 29.2598 232.258C29.2572 233.216 28.4804 234.003 27.5228 234.001C26.5653 233.999 25.7797 233.222 25.7823 232.264C25.7849 231.306 26.5617 230.52 27.5192 230.522Z" fill="#0074FF"/>
<path d="M36.1509 246.456L27.8616 232.074L27.192 232.461L35.4813 246.842L36.1509 246.456Z" fill="#0074FF"/>
<path d="M37.317 245.773C37.7974 246.602 37.5118 247.672 36.6764 248.149C35.848 248.63 34.7786 248.345 34.3023 247.51C33.822 246.681 34.1076 245.611 34.943 245.134C35.7713 244.653 36.8407 244.938 37.317 245.773Z" fill="#0074FF"/>
<path d="M27.8462 261.224L36.1514 246.839L35.4822 246.452L27.1771 260.837L27.8462 261.224Z" fill="#0074FF"/>
<path d="M26.0025 260.159C25.5209 260.993 25.8061 262.06 26.6396 262.541C27.4731 263.022 28.5392 262.736 29.0208 261.902C29.5024 261.067 29.2172 260.001 28.3837 259.52C27.5502 259.039 26.4841 259.325 26.0025 260.159Z" fill="#0074FF"/>
<path d="M27.5193 261.42L27.5195 260.647L10.9201 260.653L10.9198 261.427L27.5193 261.42Z" fill="#0074FF"/>
<path d="M10.9085 262.778C9.9509 262.776 9.16535 261.999 9.16792 261.041C9.17051 260.083 9.94731 259.297 10.9049 259.299C11.8624 259.301 12.648 260.077 12.6413 261.042C12.6387 262 11.8619 262.787 10.9043 262.785L10.9085 262.778Z" fill="#0074FF"/>
<path d="M11.2183 260.848L2.93157 246.465L2.26193 246.852L10.5487 261.234L11.2183 260.848Z" fill="#0074FF"/>
<path d="M1.11071 247.526C0.63032 246.698 0.915924 245.628 1.75138 245.151C2.57973 244.67 3.64911 244.954 4.12539 245.79C4.60578 246.618 4.32017 247.688 3.48471 248.165C2.65636 248.647 1.58699 248.362 1.11071 247.526Z" fill="#0074FF"/>
<path d="M2.94551 246.847L11.2506 232.462L10.5815 232.076L2.27637 246.461L2.94551 246.847Z" fill="#0074FF"/>
<path d="M9.41404 231.402C8.93242 232.236 9.21764 233.302 10.0511 233.784C10.8846 234.265 11.9507 233.979 12.4323 233.144C12.9139 232.31 12.6287 231.244 11.7952 230.763C10.9618 230.281 9.89566 230.568 9.41404 231.402Z" fill="#0074FF"/>
<path d="M27.5269 203.885L27.5271 203.112L10.9277 203.118L10.9275 203.891L27.5269 203.885Z" fill="#0074FF"/>
<path d="M27.5316 201.764C28.4891 201.766 29.2747 202.542 29.2721 203.5C29.2695 204.458 28.4927 205.245 27.5352 205.243C26.5776 205.241 25.7921 204.464 25.7947 203.507C25.7973 202.549 26.574 201.762 27.5316 201.764Z" fill="#0074FF"/>
<path d="M36.1352 217.692L27.8485 203.309L27.1788 203.695L35.4656 218.078L36.1352 217.692Z" fill="#0074FF"/>
<path d="M37.3335 217.008C37.8139 217.837 37.5283 218.907 36.6928 219.384C35.8645 219.865 34.7951 219.58 34.3188 218.745C33.8384 217.916 34.124 216.846 34.9595 216.369C35.7878 215.888 36.8572 216.173 37.3335 217.008Z" fill="#0074FF"/>
<path d="M27.8515 232.462L36.1566 218.077L35.4875 217.69L27.1823 232.075L27.8515 232.462Z" fill="#0074FF"/>
<path d="M26.0078 231.397C25.5262 232.231 25.8114 233.298 26.6449 233.779C27.4783 234.26 28.5444 233.974 29.0261 233.14C29.5077 232.306 29.2225 231.239 28.389 230.758C27.5555 230.277 26.4894 230.563 26.0078 231.397Z" fill="#0074FF"/>
<path d="M27.5189 232.649L27.5192 231.875L10.9199 231.882L10.9196 232.655L27.5189 232.649Z" fill="#0074FF"/>
<path d="M10.9178 234.009C9.96029 234.007 9.17474 233.23 9.17733 232.272C9.17992 231.314 9.9567 230.528 10.9143 230.53C11.8718 230.531 12.6574 231.308 12.6548 232.266C12.6522 233.224 11.8754 234.01 10.9178 234.009Z" fill="#0074FF"/>
<path d="M11.2538 232.08L2.96453 217.699L2.29497 218.085L10.5842 232.467L11.2538 232.08Z" fill="#0074FF"/>
<path d="M1.11601 218.764C0.635621 217.936 0.921198 216.866 1.75665 216.389C2.585 215.908 3.65438 216.192 4.13065 217.028C4.61105 217.856 4.32545 218.926 3.49 219.403C2.66166 219.885 1.59229 219.6 1.11601 218.764Z" fill="#0074FF"/>
<path d="M52.443 189.504L52.4433 188.73L35.8439 188.737L35.8436 189.51L52.443 189.504Z" fill="#0074FF"/>
<path d="M52.4346 187.367C53.3922 187.369 54.1777 188.146 54.1752 189.103C54.1726 190.061 53.3958 190.848 52.4382 190.846C51.4807 190.844 50.6951 190.068 50.6977 189.11C50.7003 188.152 51.4771 187.365 52.4346 187.367Z" fill="#0074FF"/>
<path d="M61.0643 203.297L52.7751 188.915L52.1055 189.302L60.3948 203.683L61.0643 203.297Z" fill="#0074FF"/>
<path d="M62.2324 202.619C62.7128 203.447 62.4272 204.517 61.5917 204.994C60.7634 205.475 59.694 205.19 59.2177 204.355C58.7373 203.527 59.0229 202.457 59.8584 201.979C60.6867 201.498 61.7561 201.783 62.2324 202.619Z" fill="#0074FF"/>
<path d="M52.7616 218.069L61.0667 203.684L60.3976 203.298L52.0925 217.683L52.7616 218.069Z" fill="#0074FF"/>
<path d="M53.9291 218.743C53.4478 219.576 52.3807 219.863 51.5479 219.382C50.715 218.901 50.4295 217.834 50.9108 217C51.3921 216.167 52.4591 215.88 53.292 216.361C54.1249 216.842 54.4103 217.909 53.9291 218.743Z" fill="#0074FF"/>
<path d="M52.4219 218.263L52.4222 217.49L35.8228 217.496L35.8225 218.269L52.4219 218.263Z" fill="#0074FF"/>
<path d="M35.8238 219.623C34.8663 219.621 34.0807 218.845 34.0833 217.887C34.0859 216.929 34.8627 216.142 35.8203 216.144C36.7778 216.146 37.5634 216.922 37.5608 217.88C37.5582 218.838 36.7814 219.625 35.8238 219.623Z" fill="#0074FF"/>
<path d="M36.1352 217.692L27.8485 203.309L27.1788 203.695L35.4656 218.078L36.1352 217.692Z" fill="#0074FF"/>
<path d="M26.0261 204.372C25.5457 203.543 25.8313 202.473 26.6668 201.996C27.4951 201.515 28.5645 201.8 29.0408 202.635C29.5212 203.464 29.2356 204.534 28.4001 205.011C27.5718 205.492 26.5024 205.207 26.0261 204.372Z" fill="#0074FF"/>
<path d="M27.8609 203.692L36.166 189.308L35.4969 188.921L27.1917 203.306L27.8609 203.692Z" fill="#0074FF"/>
<path d="M34.3294 188.247C33.8478 189.081 34.133 190.148 34.9665 190.629C35.8 191.11 36.8661 190.824 37.3477 189.99C37.8293 189.156 37.5441 188.089 36.7106 187.608C35.8771 187.127 34.811 187.413 34.3294 188.247Z" fill="#0074FF"/>
<path d="M52.4438 160.736L52.4441 159.963L35.8447 159.969L35.8444 160.742L52.4438 160.736Z" fill="#0074FF"/>
<path d="M52.447 158.609C53.4045 158.611 54.1901 159.388 54.1875 160.346C54.1849 161.304 53.4081 162.09 52.4506 162.088C51.493 162.086 50.7075 161.31 50.71 160.352C50.7126 159.394 51.4894 158.607 52.447 158.609Z" fill="#0074FF"/>
<path d="M61.0903 174.528L52.8011 160.147L52.1315 160.534L60.4208 174.915L61.0903 174.528Z" fill="#0074FF"/>
<path d="M62.2489 173.854C62.7293 174.682 62.4437 175.752 61.6082 176.229C60.7799 176.71 59.7105 176.425 59.2342 175.59C58.7538 174.762 59.0394 173.691 59.8749 173.214C60.7032 172.733 61.7726 173.018 62.253 173.846L62.2489 173.854Z" fill="#0074FF"/>
<path d="M52.771 189.3L61.0761 174.915L60.4069 174.529L52.1018 188.913L52.771 189.3Z" fill="#0074FF"/>
<path d="M53.9455 189.978C53.4643 190.811 52.3972 191.098 51.5643 190.617C50.7315 190.136 50.446 189.069 50.9273 188.235C51.4085 187.402 52.4756 187.115 53.3085 187.596C54.1414 188.077 54.4268 189.144 53.9455 189.978Z" fill="#0074FF"/>
<path d="M52.443 189.504L52.4433 188.73L35.8439 188.737L35.8436 189.51L52.443 189.504Z" fill="#0074FF"/>
<path d="M35.8332 190.854C34.8757 190.852 34.0901 190.075 34.0927 189.118C34.0953 188.16 34.8721 187.373 35.8297 187.375C36.7872 187.377 37.5728 188.153 37.5702 189.111C37.5676 190.069 36.7908 190.856 35.8332 190.854Z" fill="#0074FF"/>
<path d="M36.1744 188.925L27.8851 174.544L27.2156 174.93L35.5048 189.312L36.1744 188.925Z" fill="#0074FF"/>
<path d="M26.0314 175.61C25.551 174.781 25.8366 173.711 26.672 173.234C27.5004 172.753 28.5697 173.038 29.046 173.873C29.5223 174.709 29.2408 175.772 28.4054 176.249C27.577 176.73 26.5076 176.445 26.0314 175.61Z" fill="#0074FF"/>
<path d="M77.3498 146.339L77.3501 145.566L60.7507 145.572L60.7504 146.345L77.3498 146.339Z" fill="#0074FF"/>
<path d="M77.35 144.212C78.3075 144.214 79.0931 144.991 79.0905 145.949C79.0879 146.907 78.3111 147.693 77.3536 147.691C76.396 147.69 75.6105 146.913 75.613 145.955C75.6156 144.997 76.3924 144.211 77.35 144.212Z" fill="#0074FF"/>
<path d="M85.9625 160.148L77.6732 145.766L77.0036 146.153L85.2929 160.534L85.9625 160.148Z" fill="#0074FF"/>
<path d="M87.1477 159.464C87.6281 160.292 87.3425 161.362 86.5071 161.839C85.6787 162.321 84.6093 162.036 84.1331 161.2C83.6527 160.372 83.9383 159.302 84.7737 158.825C85.6021 158.343 86.6715 158.628 87.1477 159.464Z" fill="#0074FF"/>
<path d="M77.677 174.914L85.9821 160.529L85.313 160.143L77.0078 174.528L77.677 174.914Z" fill="#0074FF"/>
<path d="M75.8333 173.85C75.3516 174.684 75.6369 175.75 76.4703 176.231C77.3038 176.713 78.3699 176.427 78.8515 175.592C79.3331 174.758 79.0479 173.692 78.2145 173.211C77.381 172.729 76.3149 173.016 75.8333 173.85Z" fill="#0074FF"/>
<path d="M77.3359 175.103L77.3362 174.329L60.7368 174.336L60.7365 175.109L77.3359 175.103Z" fill="#0074FF"/>
<path d="M60.7392 176.468C59.7817 176.466 58.9961 175.69 58.9987 174.732C59.0013 173.774 59.7781 172.987 60.7356 172.989C61.6932 172.991 62.4787 173.768 62.472 174.733C62.4694 175.691 61.6927 176.477 60.7351 176.475L60.7392 176.468Z" fill="#0074FF"/>
<path d="M61.0903 174.528L52.8011 160.147L52.1315 160.534L60.4208 174.915L61.0903 174.528Z" fill="#0074FF"/>
<path d="M50.9415 161.217C50.4611 160.389 50.7467 159.318 51.5822 158.841C52.4105 158.36 53.4799 158.645 53.9561 159.481C54.4365 160.309 54.1509 161.379 53.3155 161.856C52.4871 162.337 51.4177 162.052 50.9415 161.217Z" fill="#0074FF"/>
<path d="M52.7762 160.538L61.0814 146.153L60.4122 145.767L52.1071 160.151L52.7762 160.538Z" fill="#0074FF"/>
<path d="M59.2448 145.093C58.7632 145.927 59.0484 146.993 59.8819 147.474C60.7153 147.955 61.7814 147.669 62.263 146.835C62.7447 146.001 62.4594 144.935 61.626 144.453C60.7925 143.972 59.7264 144.258 59.2448 145.093Z" fill="#0074FF"/>
<path d="M77.3649 117.58L77.3651 116.806L60.7657 116.813L60.7655 117.586L77.3649 117.58Z" fill="#0074FF"/>
<path d="M77.3624 115.455C78.3199 115.456 79.1055 116.233 79.1029 117.191C79.1003 118.149 78.3235 118.935 77.366 118.934C76.4084 118.932 75.6228 118.155 75.6254 117.197C75.628 116.239 76.4048 115.453 77.3624 115.455Z" fill="#0074FF"/>
<path d="M85.9731 131.372L77.6864 116.989L77.0167 117.376L85.3035 131.759L85.9731 131.372Z" fill="#0074FF"/>
<path d="M87.1642 130.699C87.6446 131.527 87.359 132.597 86.5236 133.074C85.6952 133.556 84.6259 133.271 84.1496 132.435C83.6692 131.607 83.9548 130.537 84.7902 130.06C85.6186 129.578 86.688 129.863 87.1642 130.699Z" fill="#0074FF"/>
<path d="M77.6864 146.145L85.9915 131.76L85.3223 131.374L77.0172 145.759L77.6864 146.145Z" fill="#0074FF"/>
<path d="M75.8426 145.081C75.361 145.915 75.6463 146.981 76.4797 147.462C77.3132 147.944 78.3793 147.657 78.8609 146.823C79.3425 145.989 79.0573 144.923 78.2238 144.441C77.3904 143.96 76.3243 144.246 75.8426 145.081Z" fill="#0074FF"/>
<path d="M77.3498 146.339L77.3501 145.566L60.7507 145.572L60.7504 146.345L77.3498 146.339Z" fill="#0074FF"/>
<path d="M60.7486 147.699C59.7911 147.697 59.0055 146.921 59.0081 145.963C59.0107 145.005 59.7875 144.218 60.745 144.22C61.7026 144.222 62.4881 144.999 62.4855 145.957C62.483 146.915 61.7062 147.701 60.7486 147.699Z" fill="#0074FF"/>
<path d="M61.0725 145.776L52.7832 131.395L52.1137 131.782L60.4029 146.163L61.0725 145.776Z" fill="#0074FF"/>
<path d="M50.9467 132.455C50.4663 131.627 50.7519 130.556 51.5874 130.079C52.4157 129.598 53.4851 129.883 53.9614 130.719C54.4418 131.547 54.1562 132.617 53.3207 133.094C52.4924 133.575 51.423 133.29 50.9467 132.455Z" fill="#0074FF"/>
<path d="M52.7928 131.773L61.0979 117.388L60.4287 117.002L52.1236 131.386L52.7928 131.773Z" fill="#0074FF"/>
<path d="M59.2542 116.323C59.7355 115.49 60.8025 115.203 61.6354 115.684C62.4682 116.165 62.7537 117.232 62.2724 118.066C61.7912 118.9 60.7241 119.186 59.8912 118.705C59.0584 118.224 58.7729 117.157 59.2542 116.323Z" fill="#0074FF"/>
<path d="M102.267 103.19L102.267 102.417L85.6677 102.423L85.6674 103.196L102.267 103.19Z" fill="#0074FF"/>
<path d="M102.265 101.058C103.223 101.06 104.008 101.836 104.006 102.794C104.003 103.752 103.227 104.539 102.269 104.537C101.311 104.535 100.526 103.758 100.528 102.8C100.531 101.842 101.308 101.056 102.265 101.058Z" fill="#0074FF"/>
<path d="M110.894 116.99L102.605 102.608L101.935 102.995L110.225 117.377L110.894 116.99Z" fill="#0074FF"/>
<path d="M112.067 116.302C112.548 117.13 112.262 118.2 111.427 118.678C110.598 119.159 109.529 118.874 109.053 118.038C108.572 117.21 108.858 116.14 109.693 115.663C110.522 115.182 111.591 115.467 112.067 116.302Z" fill="#0074FF"/>
<path d="M102.592 131.76L110.897 117.375L110.228 116.988L101.923 131.373L102.592 131.76Z" fill="#0074FF"/>
<path d="M103.76 132.434C103.278 133.267 102.211 133.554 101.379 133.073C100.546 132.592 100.26 131.525 100.742 130.691C101.223 129.857 102.29 129.571 103.123 130.052C103.956 130.533 104.241 131.6 103.76 132.434Z" fill="#0074FF"/>
<path d="M102.253 131.953L102.253 131.18L85.6537 131.186L85.6534 131.96L102.253 131.953Z" fill="#0074FF"/>
<path d="M85.6546 133.314C84.697 133.312 83.9115 132.535 83.9141 131.577C83.9167 130.619 84.6934 129.833 85.651 129.835C86.6086 129.837 87.3941 130.613 87.3915 131.571C87.3889 132.529 86.6122 133.316 85.6546 133.314Z" fill="#0074FF"/>
<path d="M85.9731 131.372L77.6864 116.989L77.0167 117.376L85.3035 131.759L85.9731 131.372Z" fill="#0074FF"/>
<path d="M75.8568 118.062C75.3764 117.234 75.6621 116.164 76.4975 115.687C77.3258 115.205 78.3952 115.49 78.8715 116.326C79.3519 117.154 79.0663 118.224 78.2308 118.701C77.4025 119.183 76.3331 118.898 75.8568 118.062Z" fill="#0074FF"/>
<path d="M77.6916 117.383L85.9968 102.998L85.3276 102.612L77.0225 116.997L77.6916 117.383Z" fill="#0074FF"/>
<path d="M84.1602 101.938C83.6785 102.772 83.9638 103.838 84.7972 104.32C85.6307 104.801 86.6968 104.515 87.1784 103.68C87.6601 102.846 87.3748 101.78 86.5414 101.299C85.7079 100.817 84.6418 101.104 84.1602 101.938Z" fill="#0074FF"/>
<path d="M102.275 74.4263L102.275 73.6531L85.6756 73.6594L85.6753 74.4325L102.275 74.4263Z" fill="#0074FF"/>
<path d="M102.282 72.2928C103.239 72.2946 104.025 73.0711 104.022 74.0291C104.02 74.9871 103.243 75.7736 102.285 75.7717C101.328 75.7699 100.542 74.9933 100.545 74.0353C100.547 73.0774 101.324 72.2909 102.282 72.2928Z" fill="#0074FF"/>
<path d="M110.89 88.2163L102.603 73.8333L101.934 74.2198L110.22 88.6028L110.89 88.2163Z" fill="#0074FF"/>
<path d="M112.08 87.5442C112.56 88.3725 112.274 89.4426 111.439 89.9197C110.611 90.4009 109.541 90.116 109.065 89.2805C108.585 88.4522 108.87 87.3821 109.706 86.905C110.534 86.4238 111.603 86.7087 112.08 87.5442Z" fill="#0074FF"/>
<path d="M102.602 102.99L110.907 88.6055L110.238 88.2192L101.933 102.604L102.602 102.99Z" fill="#0074FF"/>
<path d="M100.758 101.926C100.276 102.76 100.562 103.826 101.395 104.308C102.229 104.789 103.295 104.503 103.776 103.669C104.258 102.834 103.973 101.768 103.139 101.287C102.306 100.806 101.24 101.092 100.758 101.926Z" fill="#0074FF"/>
<path d="M102.267 103.19L102.267 102.417L85.6677 102.423L85.6674 103.196L102.267 103.19Z" fill="#0074FF"/>
<path d="M85.664 104.545C84.7064 104.543 83.9209 103.766 83.9235 102.808C83.9261 101.85 84.7028 101.064 85.6604 101.066C86.6179 101.067 87.4035 101.844 87.4009 102.802C87.3983 103.76 86.6215 104.546 85.664 104.545Z" fill="#0074FF"/>
<path d="M86.0043 102.619L77.7151 88.2371L77.0455 88.6237L85.3348 103.005L86.0043 102.619Z" fill="#0074FF"/>
<path d="M75.8621 89.3002C75.3817 88.4719 75.6673 87.4018 76.5028 86.9247C77.3311 86.4435 78.4005 86.7284 78.8768 87.5639C79.353 88.3993 79.0716 89.4623 78.2361 89.9394C77.4078 90.4206 76.3384 90.1357 75.8621 89.3002Z" fill="#0074FF"/>
<path d="M77.7081 88.6181L86.0132 74.2332L85.3441 73.8469L77.039 88.2318L77.7081 88.6181Z" fill="#0074FF"/>
<path d="M84.1695 73.1687C84.6508 72.3351 85.7179 72.0487 86.5507 72.5296C87.3836 73.0104 87.6691 74.0777 87.1878 74.9113C86.7065 75.7449 85.6395 76.0313 84.8066 75.5505C83.9737 75.0696 83.6883 74.0023 84.1695 73.1687Z" fill="#0074FF"/>
<path d="M127.181 60.0294L127.181 59.2562L110.582 59.2625L110.581 60.0357L127.181 60.0294Z" fill="#0074FF"/>
<path d="M127.181 57.9031C128.138 57.9049 128.924 58.6815 128.921 59.6395C128.919 60.5974 128.142 61.3839 127.184 61.382C126.227 61.3802 125.441 60.6037 125.444 59.6457C125.446 58.6877 126.223 57.9012 127.181 57.9031Z" fill="#0074FF"/>
<path d="M135.815 73.8352L127.526 59.4537L126.856 59.8403L135.145 74.2218L135.815 73.8352Z" fill="#0074FF"/>
<path d="M136.983 73.1474C137.463 73.9757 137.177 75.0458 136.342 75.5229C135.514 76.0041 134.444 75.7192 133.968 74.8837C133.488 74.0554 133.773 72.9853 134.609 72.5082C135.437 72.027 136.506 72.3119 136.983 73.1474Z" fill="#0074FF"/>
<path d="M127.508 88.6048L135.813 74.22L135.144 73.8336L126.839 88.2185L127.508 88.6048Z" fill="#0074FF"/>
<path d="M125.664 87.5404C125.182 88.3746 125.468 89.4409 126.301 89.9221C127.135 90.4033 128.201 90.1172 128.682 89.283C129.164 88.4488 128.879 87.3824 128.045 86.9012C127.212 86.42 126.146 86.7062 125.664 87.5404Z" fill="#0074FF"/>
<path d="M127.174 88.7971L127.174 88.0239L110.575 88.0302L110.574 88.8033L127.174 88.7971Z" fill="#0074FF"/>
<path d="M110.57 90.159C109.612 90.1571 108.827 89.3806 108.829 88.4226C108.832 87.4646 109.609 86.6781 110.566 86.68C111.524 86.6819 112.309 87.4584 112.307 88.4164C112.304 89.3743 111.527 90.1608 110.57 90.159Z" fill="#0074FF"/>
<path d="M110.89 88.2163L102.603 73.8333L101.934 74.2198L110.22 88.6028L110.89 88.2163Z" fill="#0074FF"/>
<path d="M100.772 74.9075C100.292 74.0792 100.577 73.0091 101.413 72.532C102.241 72.0508 103.311 72.3357 103.787 73.1712C104.267 73.9995 103.982 75.0696 103.146 75.5467C102.318 76.0279 101.248 75.743 100.772 74.9075Z" fill="#0074FF"/>
<path d="M102.607 74.2284L110.912 59.8435L110.243 59.4572L101.938 73.8421L102.607 74.2284Z" fill="#0074FF"/>
<path d="M109.076 58.7832C108.594 59.6174 108.879 60.6837 109.713 61.1649C110.546 61.6461 111.612 61.36 112.094 60.5258C112.575 59.6916 112.29 58.6252 111.457 58.144C110.623 57.6628 109.557 57.949 109.076 58.7832Z" fill="#0074FF"/>
<path d="M127.196 31.27L127.196 30.4968L110.597 30.5031L110.596 31.2762L127.196 31.27Z" fill="#0074FF"/>
<path d="M127.197 29.1381C128.155 29.1399 128.94 29.9165 128.938 30.8744C128.935 31.8324 128.158 32.6189 127.201 32.617C126.243 32.6152 125.458 31.8386 125.46 30.8807C125.463 29.9227 126.24 29.1362 127.197 29.1381Z" fill="#0074FF"/>
<path d="M135.83 45.0701L127.54 30.6885L126.871 31.0751L135.16 45.4567L135.83 45.0701Z" fill="#0074FF"/>
<path d="M136.995 44.3895C137.475 45.2178 137.19 46.2879 136.354 46.765C135.526 47.2462 134.457 46.9613 133.98 46.1258C133.5 45.2975 133.786 44.2274 134.621 43.7503C135.449 43.2691 136.519 43.554 136.995 44.3895Z" fill="#0074FF"/>
<path d="M127.517 59.8357L135.822 45.4508L135.153 45.0645L126.848 59.4494L127.517 59.8357Z" fill="#0074FF"/>
<path d="M125.673 58.7713C125.192 59.6055 125.477 60.6718 126.31 61.153C127.144 61.6342 128.21 61.3481 128.692 60.5139C129.173 59.6797 128.888 58.6133 128.055 58.1321C127.221 57.6509 126.155 57.9371 125.673 58.7713Z" fill="#0074FF"/>
<path d="M127.181 60.0294L127.181 59.2562L110.582 59.2625L110.581 60.0357L127.181 60.0294Z" fill="#0074FF"/>
<path d="M110.579 61.3898C109.622 61.388 108.836 60.6114 108.839 59.6535C108.841 58.6955 109.618 57.909 110.576 57.9109C111.533 57.9127 112.319 58.6893 112.316 59.6472C112.314 60.6052 111.537 61.3917 110.579 61.3898Z" fill="#0074FF"/>
<path d="M110.914 59.4669L102.624 45.0853L101.955 45.4719L110.244 59.8535L110.914 59.4669Z" fill="#0074FF"/>
<path d="M100.777 46.1456C100.297 45.3172 100.583 44.2471 101.418 43.77C102.246 43.2888 103.316 43.5737 103.792 44.4092C104.273 45.2375 103.987 46.3076 103.151 46.7847C102.323 47.2659 101.254 46.981 100.777 46.1456Z" fill="#0074FF"/>
<path d="M102.623 45.4634L110.929 31.0785L110.259 30.6922L101.954 45.0771L102.623 45.4634Z" fill="#0074FF"/>
<path d="M109.085 30.014C109.566 29.1804 110.633 28.894 111.466 29.3749C112.299 29.8558 112.584 30.923 112.103 31.7566C111.622 32.5902 110.555 32.8767 109.722 32.3958C108.889 31.9149 108.604 30.8476 109.085 30.014Z" fill="#0074FF"/>
<path d="M135.83 45.0701L127.54 30.6885L126.871 31.0751L135.16 45.4567L135.83 45.0701Z" fill="#0074FF"/>
<path d="M125.688 31.7529C125.207 30.9245 125.493 29.8545 126.328 29.3773C127.157 28.8961 128.226 29.181 128.702 30.0165C129.183 30.8448 128.897 31.9149 128.062 32.392C127.233 32.8732 126.164 32.5883 125.688 31.7529Z" fill="#0074FF"/>
<path d="M127.522 31.0737L135.827 16.6888L135.158 16.3025L126.853 30.6874L127.522 31.0737Z" fill="#0074FF"/>
<path d="M133.991 15.6285C133.509 16.4627 133.794 17.529 134.628 18.0102C135.461 18.4914 136.528 18.2053 137.009 17.3711C137.491 16.5369 137.206 15.4705 136.372 14.9893C135.539 14.5081 134.472 14.7943 133.991 15.6285Z" fill="#0074FF"/>
<path d="M11.2538 232.08L2.96453 217.699L2.29497 218.085L10.5842 232.467L11.2538 232.08Z" fill="#0074FF"/>
<path d="M12.4234 231.401C12.9038 232.229 12.6182 233.299 11.7827 233.776C10.9544 234.258 9.88498 233.973 9.4087 233.137C8.92831 232.309 9.21391 231.239 10.0494 230.762C10.8777 230.281 11.9471 230.565 12.4234 231.401Z" fill="#0074FF"/>
<path d="M2.94551 246.847L11.2506 232.462L10.5815 232.076L2.27637 246.461L2.94551 246.847Z" fill="#0074FF"/>
<path d="M1.10893 245.787C0.627297 246.621 0.912535 247.687 1.74601 248.168C2.57948 248.65 3.64556 248.364 4.12719 247.529C4.6088 246.695 4.32359 245.629 3.49012 245.148C2.65664 244.666 1.59054 244.953 1.10893 245.787Z" fill="#0074FF"/>
<path d="M36.1744 188.925L27.8851 174.544L27.2156 174.93L35.5048 189.312L36.1744 188.925Z" fill="#0074FF"/>
<path d="M37.3388 188.246C37.8191 189.075 37.5336 190.145 36.6981 190.622C35.8698 191.103 34.8004 190.818 34.3241 189.983C33.8437 189.154 34.1293 188.084 34.9648 187.607C35.7931 187.126 36.8625 187.411 37.3388 188.246Z" fill="#0074FF"/>
<path d="M27.8609 203.692L36.166 189.308L35.4969 188.921L27.1917 203.306L27.8609 203.692Z" fill="#0074FF"/>
<path d="M29.0354 204.371C28.5542 205.204 27.4871 205.491 26.6542 205.01C25.8214 204.529 25.5359 203.462 26.0172 202.628C26.4985 201.794 27.5655 201.508 28.3984 201.989C29.2312 202.47 29.5167 203.537 29.0354 204.371Z" fill="#0074FF"/>
<path d="M27.5269 203.885L27.5271 203.112L10.9277 203.118L10.9275 203.891L27.5269 203.885Z" fill="#0074FF"/>
<path d="M10.9303 205.251C9.9727 205.249 9.18715 204.472 9.18973 203.514C9.19233 202.556 9.96911 201.77 10.9267 201.772C11.8842 201.774 12.6698 202.55 12.6672 203.508C12.6646 204.466 11.8878 205.253 10.9303 205.251Z" fill="#0074FF"/>
<path d="M52.4506 131.968L52.4509 131.195L35.8515 131.201L35.8513 131.974L52.4506 131.968Z" fill="#0074FF"/>
<path d="M52.4564 129.84C53.4139 129.842 54.1995 130.618 54.1969 131.576C54.1943 132.534 53.4175 133.321 52.46 133.319C51.5024 133.317 50.7169 132.541 50.7195 131.583C50.722 130.625 51.4988 129.838 52.4564 129.84Z" fill="#0074FF"/>
<path d="M61.0725 145.776L52.7832 131.395L52.1137 131.782L60.4029 146.163L61.0725 145.776Z" fill="#0074FF"/>
<path d="M62.2541 145.092C62.7345 145.92 62.4489 146.99 61.6135 147.467C60.7851 147.948 59.7157 147.663 59.2394 146.828C58.7591 146 59.0447 144.929 59.8801 144.452C60.7084 143.971 61.7778 144.256 62.2541 145.092Z" fill="#0074FF"/>
<path d="M52.7762 160.538L61.0814 146.153L60.4122 145.767L52.1071 160.151L52.7762 160.538Z" fill="#0074FF"/>
<path d="M50.9397 159.477C50.458 160.312 50.7433 161.378 51.5767 161.859C52.4102 162.34 53.4763 162.054 53.9579 161.22C54.4395 160.386 54.1543 159.319 53.3209 158.838C52.4874 158.357 51.4213 158.643 50.9397 159.477Z" fill="#0074FF"/>
<path d="M52.4438 160.736L52.4441 159.963L35.8447 159.969L35.8444 160.742L52.4438 160.736Z" fill="#0074FF"/>
<path d="M35.8456 162.096C34.888 162.094 34.1025 161.318 34.1051 160.36C34.1077 159.402 34.8845 158.615 35.842 158.617C36.7996 158.619 37.5851 159.395 37.5784 160.361C37.5758 161.318 36.7991 162.105 35.8415 162.103L35.8456 162.096Z" fill="#0074FF"/>
<path d="M61.0765 117.004L52.7897 102.621L52.1201 103.007L60.4069 117.39L61.0765 117.004Z" fill="#0074FF"/>
<path d="M62.2706 116.327C62.751 117.155 62.4654 118.225 61.63 118.702C60.8016 119.183 59.7322 118.898 59.256 118.063C58.7756 117.235 59.0612 116.164 59.8966 115.687C60.7321 115.21 61.7944 115.491 62.2706 116.327Z" fill="#0074FF"/>
<path d="M52.7928 131.773L61.0979 117.388L60.4287 117.002L52.1236 131.386L52.7928 131.773Z" fill="#0074FF"/>
<path d="M53.9673 132.451C53.486 133.284 52.419 133.571 51.5861 133.09C50.7533 132.609 50.4678 131.542 50.949 130.708C51.4303 129.875 52.4974 129.588 53.3302 130.069C54.1631 130.55 54.4486 131.617 53.9673 132.451Z" fill="#0074FF"/>
<path d="M52.4506 131.968L52.4509 131.195L35.8515 131.201L35.8513 131.974L52.4506 131.968Z" fill="#0074FF"/>
<path d="M35.855 133.327C34.8975 133.325 34.1119 132.548 34.1145 131.59C34.1171 130.632 34.8939 129.846 35.8514 129.848C36.809 129.85 37.5945 130.626 37.5919 131.584C37.5893 132.542 36.8126 133.329 35.855 133.327Z" fill="#0074FF"/>
<path d="M77.3717 88.8119L77.372 88.0387L60.7726 88.045L60.7723 88.8181L77.3717 88.8119Z" fill="#0074FF"/>
<path d="M77.3718 86.6854C78.3293 86.6873 79.1149 87.4638 79.1123 88.4218C79.1097 89.3798 78.3329 90.1662 77.3753 90.1644C76.4178 90.1625 75.6322 89.386 75.6348 88.428C75.6374 87.47 76.4142 86.6836 77.3718 86.6854Z" fill="#0074FF"/>
<path d="M86.0043 102.619L77.7151 88.2371L77.0455 88.6237L85.3348 103.005L86.0043 102.619Z" fill="#0074FF"/>
<path d="M87.1736 101.93C87.654 102.758 87.3684 103.828 86.5329 104.305C85.7046 104.786 84.6352 104.502 84.1589 103.666C83.6785 102.838 83.9641 101.768 84.7996 101.291C85.6279 100.809 86.6973 101.094 87.1736 101.93Z" fill="#0074FF"/>
<path d="M77.6916 117.383L85.9968 102.998L85.3276 102.612L77.0225 116.997L77.6916 117.383Z" fill="#0074FF"/>
<path d="M78.8662 118.061C78.3849 118.895 77.3178 119.181 76.485 118.7C75.6521 118.22 75.3666 117.152 75.8479 116.319C76.3292 115.485 77.3962 115.199 78.2291 115.679C79.062 116.16 79.3474 117.228 78.8662 118.061Z" fill="#0074FF"/>
<path d="M77.3649 117.58L77.3651 116.806L60.7657 116.813L60.7655 117.586L77.3649 117.58Z" fill="#0074FF"/>
<path d="M60.761 118.941C59.8034 118.939 59.0179 118.163 59.0205 117.205C59.023 116.247 59.7998 115.46 60.7574 115.462C61.7149 115.464 62.5005 116.241 62.4979 117.199C62.4953 118.157 61.7185 118.943 60.761 118.941Z" fill="#0074FF"/>
<path d="M61.0765 117.004L52.7897 102.621L52.1201 103.007L60.4069 117.39L61.0765 117.004Z" fill="#0074FF"/>
<path d="M50.9632 103.69C50.4829 102.862 50.7685 101.791 51.6039 101.314C52.4323 100.833 53.5016 101.118 53.9779 101.954C54.4583 102.782 54.1727 103.852 53.3372 104.329C52.5089 104.81 51.4395 104.525 50.9632 103.69Z" fill="#0074FF"/>
<path d="M52.798 103.011L61.1031 88.6259L60.434 88.2395L52.1289 102.624L52.798 103.011Z" fill="#0074FF"/>
<path d="M59.2594 87.5614C58.7778 88.3956 59.063 89.4619 59.8965 89.9431C60.73 90.4244 61.7961 90.1382 62.2777 89.304C62.7593 88.4698 62.4741 87.4034 61.6406 86.9222C60.8072 86.441 59.7411 86.7272 59.2594 87.5614Z" fill="#0074FF"/>
<path d="M77.3868 60.0525L77.387 59.2793L60.7877 59.2856L60.7874 60.0587L77.3868 60.0525Z" fill="#0074FF"/>
<path d="M77.3882 57.9204C78.3458 57.9223 79.1314 58.6988 79.1288 59.6568C79.1262 60.6148 78.3494 61.4013 77.3847 61.3953C76.4272 61.3934 75.6416 60.6169 75.6442 59.6589C75.6468 58.7009 76.4236 57.9145 77.3811 57.9163L77.3882 57.9204Z" fill="#0074FF"/>
<path d="M85.9934 73.8477L77.7067 59.4648L77.037 59.8512L85.3238 74.2342L85.9934 73.8477Z" fill="#0074FF"/>
<path d="M87.186 73.1719C87.6664 74.0002 87.3808 75.0703 86.5453 75.5474C85.717 76.0286 84.6476 75.7437 84.1713 74.9082C83.6909 74.0799 83.9765 73.0098 84.812 72.5327C85.6403 72.0515 86.7097 72.3364 87.186 73.1719Z" fill="#0074FF"/>
<path d="M77.7081 88.6181L86.0132 74.2332L85.3441 73.8469L77.039 88.2318L77.7081 88.6181Z" fill="#0074FF"/>
<path d="M78.8827 89.2962C78.4014 90.1298 77.3344 90.4162 76.5015 89.9354C75.6686 89.4545 75.3831 88.3872 75.8644 87.5536C76.3457 86.72 77.4127 86.4336 78.2456 86.9145C79.0785 87.3953 79.364 88.4626 78.8827 89.2962Z" fill="#0074FF"/>
<path d="M77.3717 88.8119L77.372 88.0387L60.7726 88.045L60.7723 88.8181L77.3717 88.8119Z" fill="#0074FF"/>
<path d="M60.7704 90.1722C59.8128 90.1703 59.0273 89.3938 59.0298 88.4358C59.0324 87.4779 59.8092 86.6914 60.7668 86.6932C61.7243 86.6951 62.5099 87.4716 62.5073 88.4296C62.5047 89.3876 61.7279 90.1741 60.7704 90.1722Z" fill="#0074FF"/>
<path d="M61.1072 88.2432L52.818 73.8617L52.1484 74.2483L60.4377 88.6298L61.1072 88.2432Z" fill="#0074FF"/>
<path d="M50.9685 74.9279C50.4881 74.0996 50.7737 73.0295 51.6021 72.5483C52.4304 72.067 53.4998 72.352 53.9761 73.1874C54.4564 74.0158 54.1708 75.0858 53.3354 75.5629C52.507 76.0442 51.4376 75.7592 50.9614 74.9238L50.9685 74.9279Z" fill="#0074FF"/>
<path d="M52.8145 74.2458L61.1196 59.8609L60.4505 59.4745L52.1454 73.8594L52.8145 74.2458Z" fill="#0074FF"/>
<path d="M59.2759 58.7964C58.7943 59.6306 59.0795 60.6969 59.913 61.1781C60.7465 61.6593 61.8126 61.3732 62.2942 60.539C62.7758 59.7048 62.4906 58.6384 61.6571 58.1572C60.8236 57.676 59.7576 57.9622 59.2759 58.7964Z" fill="#0074FF"/>
<path d="M102.282 45.6586L102.282 44.8854L85.6824 44.8917L85.6821 45.6649L102.282 45.6586Z" fill="#0074FF"/>
<path d="M102.287 43.5308C103.245 43.5326 104.03 44.3092 104.028 45.2671C104.025 46.2251 103.248 47.0116 102.291 47.0097C101.333 47.0079 100.548 46.2313 100.55 45.2733C100.553 44.3154 101.33 43.5289 102.287 43.5308Z" fill="#0074FF"/>
<path d="M110.914 59.4669L102.624 45.0853L101.955 45.4719L110.244 59.8535L110.914 59.4669Z" fill="#0074FF"/>
<path d="M112.089 58.7751C112.569 59.6034 112.284 60.6735 111.448 61.1506C110.62 61.6318 109.551 61.3469 109.074 60.5114C108.594 59.6831 108.88 58.613 109.715 58.1359C110.543 57.6547 111.613 57.9396 112.089 58.7751Z" fill="#0074FF"/>
<path d="M102.607 74.2284L110.912 59.8435L110.243 59.4572L101.938 73.8421L102.607 74.2284Z" fill="#0074FF"/>
<path d="M100.77 73.1681C100.289 74.0023 100.574 75.0686 101.407 75.5498C102.241 76.031 103.307 75.7448 103.789 74.9106C104.27 74.0765 103.985 73.0101 103.152 72.5289C102.318 72.0477 101.252 72.3339 100.77 73.1681Z" fill="#0074FF"/>
<path d="M102.275 74.4263L102.275 73.6531L85.6756 73.6594L85.6753 74.4325L102.275 74.4263Z" fill="#0074FF"/>
<path d="M85.6763 75.7866C84.7188 75.7848 83.9332 75.0082 83.9358 74.0503C83.9384 73.0923 84.7152 72.3058 85.6727 72.3077C86.6303 72.3095 87.4159 73.0861 87.4133 74.044C87.4107 75.002 86.6339 75.7885 85.6763 75.7866Z" fill="#0074FF"/>
<path d="M85.9934 73.8477L77.7067 59.4648L77.037 59.8512L85.3238 74.2342L85.9934 73.8477Z" fill="#0074FF"/>
<path d="M75.8786 60.5352C75.3982 59.7069 75.6838 58.6368 76.5193 58.1597C77.3476 57.6785 78.417 57.9634 78.8932 58.7988C79.3736 59.6272 79.088 60.6972 78.2526 61.1743C77.4242 61.6556 76.3548 61.3707 75.8786 60.5352Z" fill="#0074FF"/>
<path d="M77.7134 59.8561L86.0185 45.4712L85.3494 45.0849L77.0442 59.4697L77.7134 59.8561Z" fill="#0074FF"/>
<path d="M84.1748 44.4067C83.6932 45.2409 83.9784 46.3073 84.8119 46.7885C85.6454 47.2697 86.7115 46.9835 87.1931 46.1493C87.6747 45.3151 87.3895 44.2488 86.556 43.7676C85.7225 43.2864 84.6564 43.5725 84.1748 44.4067Z" fill="#0074FF"/>
<path d="M102.304 16.9033L102.304 16.1301L85.7046 16.1364L85.7043 16.9096L102.304 16.9033Z" fill="#0074FF"/>
<path d="M102.304 14.7657C103.261 14.7676 104.047 15.5441 104.044 16.5021C104.042 17.4601 103.265 18.2466 102.3 18.2406C101.343 18.2387 100.557 17.4622 100.56 16.5042C100.562 15.5463 101.339 14.7598 102.296 14.7616L102.304 14.7657Z" fill="#0074FF"/>
<path d="M110.933 30.6946L102.643 16.3131L101.974 16.6997L110.263 31.0812L110.933 30.6946Z" fill="#0074FF"/>
<path d="M112.101 30.0172C112.582 30.8455 112.296 31.9156 111.461 32.3927C110.632 32.8739 109.563 32.589 109.087 31.7535C108.606 30.9252 108.892 29.8551 109.727 29.378C110.563 28.9009 111.625 29.1817 112.101 30.0172Z" fill="#0074FF"/>
<path d="M102.623 45.4634L110.929 31.0785L110.259 30.6922L101.954 45.0771L102.623 45.4634Z" fill="#0074FF"/>
<path d="M103.798 46.1415C103.317 46.9751 102.25 47.2615 101.417 46.7807C100.584 46.2998 100.299 45.2325 100.78 44.3989C101.261 43.5653 102.328 43.2789 103.161 43.7598C103.994 44.2406 104.279 45.3079 103.798 46.1415Z" fill="#0074FF"/>
<path d="M102.282 45.6586L102.282 44.8854L85.6824 44.8917L85.6821 45.6649L102.282 45.6586Z" fill="#0074FF"/>
<path d="M85.6857 47.0175C84.7282 47.0156 83.9426 46.2391 83.9452 45.2811C83.9478 44.3232 84.7246 43.5367 85.6821 43.5386C86.6397 43.5404 87.4252 44.3169 87.4227 45.2749C87.4201 46.2329 86.6433 47.0194 85.6857 47.0175Z" fill="#0074FF"/>
<path d="M86.0196 45.0884L77.7303 30.7068L77.0608 31.0934L85.35 45.475L86.0196 45.0884Z" fill="#0074FF"/>
<path d="M75.8839 31.7732C75.4035 30.9449 75.6891 29.8748 76.5174 29.3936C77.3457 28.9124 78.4151 29.1973 78.8914 30.0327C79.3718 30.8611 79.0862 31.9311 78.2507 32.4083C77.4224 32.8895 76.353 32.6046 75.8767 31.7691L75.8839 31.7732Z" fill="#0074FF"/>
<path d="M77.7299 31.0911L86.035 16.7062L85.3659 16.3198L77.0608 30.7047L77.7299 31.0911Z" fill="#0074FF"/>
<path d="M84.1913 15.6417C84.6726 14.8081 85.7396 14.5217 86.5725 15.0026C87.4054 15.4834 87.6909 16.5507 87.2096 17.3843C86.7283 18.2179 85.6613 18.5043 84.8284 18.0235C83.9955 17.5426 83.71 16.4753 84.1913 15.6417Z" fill="#0074FF"/>
<path d="M127.522 31.0737L135.827 16.6888L135.158 16.3025L126.853 30.6874L127.522 31.0737Z" fill="#0074FF"/>
<path d="M128.697 31.7519C128.216 32.5855 127.149 32.8719 126.316 32.391C125.483 31.9102 125.197 30.8429 125.679 30.0093C126.16 29.1757 127.227 28.8893 128.06 29.3701C128.893 29.851 129.178 30.9183 128.697 31.7519Z" fill="#0074FF"/>
<path d="M127.196 31.27L127.196 30.4968L110.597 30.5031L110.596 31.2762L127.196 31.27Z" fill="#0074FF"/>
<path d="M110.592 32.6319C109.634 32.6301 108.849 31.8535 108.851 30.8956C108.854 29.9376 109.631 29.1511 110.588 29.153C111.546 29.1548 112.331 29.9314 112.329 30.8893C112.326 31.8473 111.549 32.6338 110.592 32.6319Z" fill="#0074FF"/>
<path d="M110.933 30.6946L102.643 16.3131L101.974 16.6997L110.263 31.0812L110.933 30.6946Z" fill="#0074FF"/>
<path d="M100.794 17.3805C100.314 16.5522 100.599 15.4821 101.435 15.005C102.263 14.5238 103.332 14.8087 103.809 15.6442C104.289 16.4725 104.003 17.5426 103.168 18.0197C102.34 18.5009 101.27 18.216 100.794 17.3805Z" fill="#0074FF"/>
<path d="M102.629 16.7014L110.934 2.3165L110.265 1.93017L101.96 16.3151L102.629 16.7014Z" fill="#0074FF"/>
<path d="M109.09 1.25204C108.609 2.08624 108.894 3.15259 109.727 3.63379C110.561 4.115 111.627 3.82884 112.108 2.99465C112.59 2.16045 112.305 1.0941 111.471 0.612892C110.638 0.131691 109.572 0.41784 109.09 1.25204Z" fill="#0074FF"/>
<path d="M52.4726 74.4411L52.4729 73.6679L35.8735 73.6742L35.8732 74.4474L52.4726 74.4411Z" fill="#0074FF"/>
<path d="M52.4782 72.3131C53.4357 72.315 54.2213 73.0915 54.2187 74.0495C54.2161 75.0074 53.4393 75.7939 52.4818 75.7921C51.5242 75.7902 50.7387 75.0137 50.7412 74.0557C50.7438 73.0977 51.5206 72.3112 52.4782 72.3131Z" fill="#0074FF"/>
<path d="M61.1072 88.2432L52.818 73.8617L52.1484 74.2483L60.4377 88.6298L61.1072 88.2432Z" fill="#0074FF"/>
<path d="M62.28 87.5574C62.7604 88.3857 62.4748 89.4558 61.6465 89.937C60.8181 90.4182 59.7487 90.1333 59.2725 89.2979C58.7921 88.4695 59.0777 87.3995 59.9131 86.9224C60.7415 86.4411 61.8109 86.726 62.2871 87.5615L62.28 87.5574Z" fill="#0074FF"/>
<path d="M52.798 103.011L61.1031 88.6259L60.434 88.2395L52.1289 102.624L52.798 103.011Z" fill="#0074FF"/>
<path d="M53.9726 103.689C53.4913 104.523 52.4242 104.809 51.5914 104.328C50.7585 103.847 50.473 102.78 50.9543 101.946C51.4356 101.113 52.5026 100.826 53.3355 101.307C54.1684 101.788 54.4539 102.855 53.9726 103.689Z" fill="#0074FF"/>
<path d="M27.9044 88.6384L36.2095 74.2535L35.5404 73.8672L27.2353 88.2521L27.9044 88.6384Z" fill="#0074FF"/>
<path d="M34.3729 73.1932C34.8542 72.3596 35.9213 72.0732 36.7541 72.554C37.587 73.0349 37.8725 74.1022 37.3912 74.9358C36.9099 75.7694 35.8429 76.0558 35.01 75.5749C34.1772 75.0941 33.8917 74.0268 34.3729 73.1932Z" fill="#0074FF"/>
<path d="M52.4876 45.6817L52.4879 44.9085L35.8885 44.9148L35.8882 45.688L52.4876 45.6817Z" fill="#0074FF"/>
<path d="M52.4946 43.5481C53.4522 43.55 54.2378 44.3265 54.2352 45.2845C54.2326 46.2424 53.4558 47.0289 52.4983 47.0271C51.5407 47.0252 50.7551 46.2487 50.7577 45.2907C50.7603 44.3327 51.5371 43.5462 52.4946 43.5481Z" fill="#0074FF"/>
<path d="M61.122 59.478L52.8328 45.0965L52.1632 45.4831L60.4524 59.8646L61.122 59.478Z" fill="#0074FF"/>
<path d="M62.2924 58.7995C62.7728 59.6278 62.4872 60.6979 61.6517 61.175C60.8234 61.6563 59.754 61.3713 59.2777 60.5359C58.7973 59.7075 59.083 58.6375 59.9184 58.1604C60.7467 57.6791 61.8161 57.964 62.2924 58.7995Z" fill="#0074FF"/>
<path d="M52.8145 74.2458L61.1196 59.8609L60.4505 59.4745L52.1454 73.8594L52.8145 74.2458Z" fill="#0074FF"/>
<path d="M50.9708 73.1813C50.4892 74.0155 50.7744 75.0818 51.6079 75.563C52.4414 76.0442 53.5075 75.7581 53.9891 74.9239C54.4707 74.0897 54.1855 73.0233 53.352 72.5421C52.5185 72.0609 51.4524 72.3471 50.9708 73.1813Z" fill="#0074FF"/>
<path d="M52.4726 74.4411L52.4729 73.6679L35.8735 73.6742L35.8732 74.4474L52.4726 74.4411Z" fill="#0074FF"/>
<path d="M35.8768 75.7998C34.9192 75.798 34.1336 75.0214 34.1362 74.0635C34.1388 73.1055 34.9156 72.319 35.8732 72.3209C36.8307 72.3227 37.6163 73.0993 37.6137 74.0572C37.6111 75.0152 36.8343 75.8017 35.8768 75.7998Z" fill="#0074FF"/>
<path d="M36.1912 73.8658L27.9044 59.4828L27.2348 59.8693L35.5215 74.2523L36.1912 73.8658Z" fill="#0074FF"/>
<path d="M26.0749 60.5556C25.5945 59.7272 25.8801 58.6572 26.7156 58.1801C27.5439 57.6988 28.6133 57.9837 29.0896 58.8192C29.57 59.6475 29.2844 60.7176 28.4489 61.1947C27.6206 61.676 26.5512 61.391 26.0749 60.5556Z" fill="#0074FF"/>
<path d="M27.9209 59.8734L36.226 45.4885L35.5569 45.1022L27.2518 59.4871L27.9209 59.8734Z" fill="#0074FF"/>
<path d="M34.3823 44.4241C33.9007 45.2583 34.1859 46.3246 35.0194 46.8058C35.8529 47.287 36.919 47.0009 37.4006 46.1667C37.8822 45.3325 37.597 44.2661 36.7635 43.7849C35.9301 43.3037 34.864 43.5899 34.3823 44.4241Z" fill="#0074FF"/>
<path d="M77.3936 31.2848L77.3939 30.5117L60.7945 30.5179L60.7942 31.2911L77.3936 31.2848Z" fill="#0074FF"/>
<path d="M77.3935 29.1584C78.3511 29.1603 79.1366 29.9368 79.134 30.8948C79.1314 31.8528 78.3547 32.6393 77.3971 32.6374C76.4396 32.6355 75.654 31.859 75.6566 30.901C75.6592 29.943 76.436 29.1566 77.3935 29.1584Z" fill="#0074FF"/>
<path d="M86.0196 45.0884L77.7303 30.7068L77.0608 31.0934L85.35 45.475L86.0196 45.0884Z" fill="#0074FF"/>
<path d="M87.1954 44.4027C87.6758 45.231 87.3902 46.3011 86.5618 46.7823C85.7335 47.2636 84.6641 46.9786 84.1878 46.1432C83.7074 45.3148 83.993 44.2448 84.8285 43.7677C85.6568 43.2864 86.7262 43.5714 87.2025 44.4068L87.1954 44.4027Z" fill="#0074FF"/>
<path d="M77.7134 59.8561L86.0185 45.4712L85.3494 45.0849L77.0442 59.4697L77.7134 59.8561Z" fill="#0074FF"/>
<path d="M75.8697 58.7916C75.3881 59.6258 75.6733 60.6922 76.5068 61.1734C77.3402 61.6546 78.4063 61.3684 78.888 60.5342C79.3696 59.7 79.0843 58.6337 78.2509 58.1525C77.4174 57.6713 76.3513 57.9574 75.8697 58.7916Z" fill="#0074FF"/>
<path d="M77.3868 60.0525L77.387 59.2793L60.7877 59.2856L60.7874 60.0587L77.3868 60.0525Z" fill="#0074FF"/>
<path d="M60.7827 61.4143C59.8252 61.4124 59.0396 60.6359 59.0422 59.6779C59.0448 58.72 59.8216 57.9335 60.7862 57.9395C61.7438 57.9413 62.5294 58.7178 62.5268 59.6758C62.5242 60.6338 61.7474 61.4203 60.7899 61.4184L60.7827 61.4143Z" fill="#0074FF"/>
<path d="M61.122 59.478L52.8328 45.0965L52.1632 45.4831L60.4524 59.8646L61.122 59.478Z" fill="#0074FF"/>
<path d="M50.985 46.1629C50.5046 45.3345 50.7902 44.2645 51.6257 43.7874C52.454 43.3061 53.5234 43.591 53.9997 44.4265C54.48 45.2548 54.1945 46.3249 53.359 46.802C52.5307 47.2833 51.4613 46.9983 50.985 46.1629Z" fill="#0074FF"/>
<path d="M52.8198 45.4838L61.1249 31.0989L60.4558 30.7125L52.1506 45.0974L52.8198 45.4838Z" fill="#0074FF"/>
<path d="M59.2883 30.0385C59.7696 29.2049 60.8366 28.9185 61.6695 29.3994C62.5024 29.8802 62.7879 30.9475 62.3066 31.7811C61.8253 32.6147 60.7583 32.9011 59.9254 32.4203C59.0925 31.9394 58.807 30.8721 59.2883 30.0385Z" fill="#0074FF"/>
<path d="M86.0284 16.315L77.7391 1.93348L77.0695 2.32008L85.3588 16.7016L86.0284 16.315Z" fill="#0074FF"/>
<path d="M87.2078 15.6449C87.6882 16.4732 87.4026 17.5433 86.5671 18.0204C85.7388 18.5016 84.6694 18.2167 84.1931 17.3812C83.7127 16.5529 83.9983 15.4828 84.8338 15.0057C85.6621 14.5245 86.7315 14.8094 87.2078 15.6449Z" fill="#0074FF"/>
<path d="M77.7299 31.0911L86.035 16.7062L85.3659 16.3198L77.0608 30.7047L77.7299 31.0911Z" fill="#0074FF"/>
<path d="M75.8862 30.0266C75.4046 30.8608 75.6898 31.9272 76.5233 32.4084C77.3567 32.8896 78.4228 32.6034 78.9045 31.7692C79.3861 30.935 79.1009 29.8687 78.2674 29.3875C77.4339 28.9063 76.3678 29.1924 75.8862 30.0266Z" fill="#0074FF"/>
<path d="M77.3936 31.2848L77.3939 30.5117L60.7945 30.5179L60.7942 31.2911L77.3936 31.2848Z" fill="#0074FF"/>
<path d="M60.7921 32.6452C59.8345 32.6433 59.049 31.8668 59.0516 30.9088C59.0542 29.9508 59.831 29.1644 60.7885 29.1662C61.7461 29.1681 62.5316 29.9446 62.529 30.9026C62.5265 31.8606 61.7497 32.647 60.7921 32.6452Z" fill="#0074FF"/>
<path d="M61.1152 30.7138L52.8284 16.3308L52.1588 16.7173L60.4455 31.1002L61.1152 30.7138Z" fill="#0074FF"/>
<path d="M50.9903 17.4009C50.5099 16.5726 50.7955 15.5025 51.6309 15.0254C52.4593 14.5441 53.5287 14.8291 54.0049 15.6645C54.4853 16.4929 54.1997 17.5629 53.3643 18.04C52.5359 18.5213 51.4665 18.2364 50.9903 17.4009Z" fill="#0074FF"/>
<path d="M102.629 16.7014L110.934 2.3165L110.265 1.93017L101.96 16.3151L102.629 16.7014Z" fill="#0074FF"/>
<path d="M103.803 17.3795C103.322 18.2131 102.255 18.4995 101.422 18.0187C100.589 17.5378 100.304 16.4705 100.785 15.6369C101.266 14.8033 102.333 14.5169 103.166 14.9978C103.999 15.4786 104.285 16.5459 103.803 17.3795Z" fill="#0074FF"/>
<path d="M102.304 16.9033L102.304 16.1301L85.7046 16.1364L85.7043 16.9096L102.304 16.9033Z" fill="#0074FF"/>
<path d="M85.6981 18.2596C84.7406 18.2577 83.955 17.4812 83.9576 16.5232C83.9602 15.5653 84.737 14.7788 85.7016 14.7848C86.6592 14.7866 87.4448 15.5631 87.4422 16.5211C87.4396 17.4791 86.6628 18.2656 85.7052 18.2637L85.6981 18.2596Z" fill="#0074FF"/>
<path d="M86.0284 16.315L77.7391 1.93348L77.0695 2.32008L85.3588 16.7016L86.0284 16.315Z" fill="#0074FF"/>
<path d="M75.9004 3.00821C75.42 2.17987 75.7056 1.10981 76.5411 0.632692C77.3694 0.151462 78.4388 0.436387 78.9151 1.27185C79.3955 2.10018 79.1099 3.17025 78.2744 3.64736C77.4461 4.12859 76.3767 3.84367 75.9004 3.00821Z" fill="#0074FF"/>
<path d="M27.5847 60.0673L27.5849 59.2941L10.9855 59.3004L10.9852 60.0736L27.5847 60.0673Z" fill="#0074FF"/>
<path d="M27.5845 57.9408C28.5421 57.9426 29.3277 58.7191 29.3251 59.6771C29.3225 60.6351 28.5457 61.4216 27.581 61.4156C26.6235 61.4137 25.8379 60.6372 25.8405 59.6792C25.8431 58.7213 26.6199 57.9348 27.5774 57.9366L27.5845 57.9408Z" fill="#0074FF"/>
<path d="M36.1912 73.8658L27.9044 59.4828L27.2348 59.8693L35.5215 74.2523L36.1912 73.8658Z" fill="#0074FF"/>
<path d="M37.3864 73.1851C37.8668 74.0134 37.5812 75.0835 36.7457 75.5606C35.9174 76.0418 34.848 75.7569 34.3717 74.9214C33.8913 74.0931 34.1769 73.023 35.0124 72.5459C35.8407 72.0647 36.9101 72.3496 37.3864 73.1851Z" fill="#0074FF"/>
<path d="M27.9044 88.6384L36.2095 74.2535L35.5404 73.8672L27.2353 88.2521L27.9044 88.6384Z" fill="#0074FF"/>
<path d="M29.079 89.3166C28.5977 90.1502 27.5306 90.4366 26.6978 89.9557C25.8649 89.4749 25.5794 88.4076 26.0607 87.574C26.542 86.7404 27.609 86.454 28.4419 86.9348C29.2748 87.4157 29.5603 88.483 29.079 89.3166Z" fill="#0074FF"/>
<path d="M36.2249 45.1026L27.9357 30.721L27.2661 31.1076L35.5554 45.4892L36.2249 45.1026Z" fill="#0074FF"/>
<path d="M37.3988 44.4272C37.8792 45.2555 37.5936 46.3256 36.7653 46.8068C35.9369 47.288 34.8675 47.0031 34.3913 46.1677C33.9109 45.3393 34.1965 44.2693 35.0319 43.7921C35.8603 43.3109 36.9297 43.5958 37.4059 44.4313L37.3988 44.4272Z" fill="#0074FF"/>
<path d="M27.9209 59.8734L36.226 45.4885L35.5569 45.1022L27.2518 59.4871L27.9209 59.8734Z" fill="#0074FF"/>
<path d="M26.0772 58.809C25.5956 59.6432 25.8808 60.7095 26.7143 61.1907C27.5478 61.6719 28.6139 61.3858 29.0955 60.5516C29.5771 59.7174 29.2919 58.651 28.4584 58.1698C27.6249 57.6886 26.5588 57.9748 26.0772 58.809Z" fill="#0074FF"/>
<path d="M27.5847 60.0673L27.5849 59.2941L10.9855 59.3004L10.9852 60.0736L27.5847 60.0673Z" fill="#0074FF"/>
<path d="M10.9832 61.4275C10.0256 61.4257 9.24005 60.6491 9.24264 59.6912C9.24522 58.7332 10.022 57.9467 10.9867 57.9527C11.9442 57.9546 12.7298 58.7311 12.7272 59.6891C12.7246 60.647 11.9478 61.4335 10.9903 61.4317L10.9832 61.4275Z" fill="#0074FF"/>
<path d="M61.1152 30.7138L52.8284 16.3308L52.1588 16.7173L60.4455 31.1002L61.1152 30.7138Z" fill="#0074FF"/>
<path d="M62.3018 30.0304C62.7822 30.8587 62.4966 31.9288 61.6611 32.4059C60.8328 32.8871 59.7634 32.6022 59.2871 31.7667C58.8108 30.9313 59.0923 29.8683 59.9278 29.3912C60.7561 28.91 61.8255 29.1949 62.3018 30.0304Z" fill="#0074FF"/>
<path d="M52.8198 45.4838L61.1249 31.0989L60.4558 30.7125L52.1506 45.0974L52.8198 45.4838Z" fill="#0074FF"/>
<path d="M53.9944 46.1619C53.5131 46.9955 52.446 47.2819 51.6131 46.801C50.7803 46.3202 50.4948 45.2529 50.9761 44.4193C51.4574 43.5857 52.5244 43.2993 53.3573 43.7801C54.1901 44.261 54.4756 45.3283 53.9944 46.1619Z" fill="#0074FF"/>
<path d="M52.4876 45.6817L52.4879 44.9085L35.8885 44.9148L35.8882 45.688L52.4876 45.6817Z" fill="#0074FF"/>
<path d="M35.8892 47.0419C34.9316 47.0401 34.146 46.2636 34.1486 45.3056C34.1512 44.3476 34.928 43.5611 35.8856 43.563C36.8431 43.5649 37.6287 44.3414 37.6261 45.2994C37.6235 46.2573 36.8467 47.0438 35.8892 47.0419Z" fill="#0074FF"/>
<path d="M36.2249 45.1026L27.9357 30.721L27.2661 31.1076L35.5554 45.4892L36.2249 45.1026Z" fill="#0074FF"/>
<path d="M26.0914 31.7906C25.611 30.9622 25.8966 29.8922 26.7249 29.4109C27.5533 28.9297 28.6227 29.2146 29.099 30.0501C29.5793 30.8784 29.2937 31.9485 28.4583 32.4256C27.6299 32.9068 26.5606 32.6219 26.0843 31.7865L26.0914 31.7906Z" fill="#0074FF"/>
</svg>
