<svg width="523" height="1333" viewBox="0 0 523 1333" fill="none" xmlns="http://www.w3.org/2000/svg">
<path d="M197.232 1272.04L197.233 1269.08L133.824 1269.11L133.823 1272.06L197.232 1272.04Z" fill="#0074FF"/>
<path d="M197.246 1263.91C200.904 1263.92 203.904 1266.88 203.895 1270.54C203.885 1274.2 200.918 1277.21 197.26 1277.2C193.602 1277.19 190.601 1274.23 190.611 1270.57C190.621 1266.91 193.588 1263.9 197.246 1263.91Z" fill="#0074FF"/>
<path d="M103.375 1326.27L135.101 1271.32L132.545 1269.85L100.819 1324.8L103.375 1326.27Z" fill="#0074FF"/>
<path d="M128.058 1267.26C129.896 1264.07 133.972 1262.98 137.154 1264.82C140.335 1266.65 141.426 1270.73 139.587 1273.91C137.749 1277.1 133.673 1278.19 130.491 1276.36C127.31 1274.52 126.219 1270.44 128.058 1267.26Z" fill="#0074FF"/>
<path d="M292.372 1217.04L292.373 1214.09L228.964 1214.11L228.963 1217.06L292.372 1217.04Z" fill="#0074FF"/>
<path d="M292.374 1208.92C296.032 1208.92 299.033 1211.89 299.023 1215.55C299.013 1219.21 296.046 1222.21 292.388 1222.21C288.73 1222.2 285.729 1219.23 285.739 1215.57C285.749 1211.91 288.716 1208.91 292.374 1208.92Z" fill="#0074FF"/>
<path d="M198.531 1271.29L230.256 1216.34L227.7 1214.87L195.975 1269.82L198.531 1271.29Z" fill="#0074FF"/>
<path d="M223.213 1212.28C225.052 1209.09 229.128 1208 232.309 1209.84C235.491 1211.67 236.581 1215.75 234.743 1218.93C232.904 1222.12 228.828 1223.21 225.647 1221.38C222.465 1219.54 221.375 1215.46 223.213 1212.28Z" fill="#0074FF"/>
<path d="M292.457 1107.2L292.458 1104.24L229.049 1104.27L229.048 1107.22L292.457 1107.2Z" fill="#0074FF"/>
<path d="M292.422 1099.06C296.079 1099.07 299.08 1102.04 299.07 1105.69C299.06 1109.35 296.093 1112.36 292.435 1112.35C288.778 1112.34 285.777 1109.38 285.787 1105.72C285.796 1102.06 288.764 1099.05 292.422 1099.06Z" fill="#0074FF"/>
<path d="M292.372 1217.04L292.373 1214.09L228.964 1214.11L228.963 1217.06L292.372 1217.04Z" fill="#0074FF"/>
<path d="M228.985 1222.25C225.327 1222.24 222.326 1219.28 222.336 1215.62C222.346 1211.96 225.313 1208.95 228.971 1208.96C232.629 1208.97 235.63 1211.93 235.62 1215.59C235.61 1219.25 232.643 1222.26 228.985 1222.25Z" fill="#0074FF"/>
<path d="M230.292 1214.85L198.628 1159.91L196.07 1161.39L227.734 1216.33L230.292 1214.85Z" fill="#0074FF"/>
<path d="M191.515 1164C189.68 1160.84 190.771 1156.75 193.962 1154.93C197.126 1153.09 201.211 1154.18 203.031 1157.37C204.866 1160.53 203.775 1164.62 200.584 1166.44C197.419 1168.28 193.334 1167.19 191.515 1164Z" fill="#0074FF"/>
<path d="M198.551 1161.42L230.276 1106.47L227.72 1105L195.995 1159.95L198.551 1161.42Z" fill="#0074FF"/>
<path d="M223.233 1102.41C225.072 1099.22 229.148 1098.13 232.329 1099.97C235.511 1101.8 236.601 1105.88 234.763 1109.06C232.925 1112.25 228.848 1113.34 225.667 1111.51C222.485 1109.67 221.395 1105.59 223.233 1102.41Z" fill="#0074FF"/>
<path d="M102.161 1217.13L102.163 1214.17L38.7535 1214.2L38.7524 1217.15L102.161 1217.13Z" fill="#0074FF"/>
<path d="M102.153 1209.01C105.811 1209.02 108.812 1211.98 108.802 1215.64C108.792 1219.3 105.825 1222.31 102.167 1222.3C98.5094 1222.29 95.5086 1219.33 95.5184 1215.67C95.5283 1212.01 98.4956 1209 102.153 1209.01Z" fill="#0074FF"/>
<path d="M135.11 1269.83L103.446 1214.89L100.888 1216.37L132.552 1271.31L135.11 1269.83Z" fill="#0074FF"/>
<path d="M139.596 1267.24C141.431 1270.41 140.34 1274.49 137.149 1276.32C133.985 1278.15 129.9 1277.07 128.08 1273.87C126.245 1270.71 127.336 1266.62 130.528 1264.8C133.719 1262.98 137.777 1264.05 139.596 1267.24Z" fill="#0074FF"/>
<path d="M103.375 1326.27L135.101 1271.32L132.545 1269.85L100.819 1324.8L103.375 1326.27Z" fill="#0074FF"/>
<path d="M107.862 1328.86C106.024 1332.05 101.947 1333.14 98.7659 1331.31C95.5844 1329.47 94.4939 1325.39 96.3323 1322.21C98.1708 1319.02 102.247 1317.93 105.428 1319.77C108.61 1321.6 109.701 1325.68 107.862 1328.86Z" fill="#0074FF"/>
<path d="M197.258 1162.14L197.26 1159.19L133.851 1159.21L133.849 1162.17L197.258 1162.14Z" fill="#0074FF"/>
<path d="M197.282 1154.01C200.94 1154.02 203.94 1156.99 203.93 1160.65C203.921 1164.31 200.953 1167.31 197.295 1167.3C193.638 1167.3 190.637 1164.33 190.647 1160.67C190.657 1157.01 193.624 1154.01 197.282 1154.01Z" fill="#0074FF"/>
<path d="M230.292 1214.85L198.628 1159.91L196.07 1161.39L227.734 1216.33L230.292 1214.85Z" fill="#0074FF"/>
<path d="M234.736 1212.29C236.571 1215.45 235.48 1219.54 232.289 1221.36C229.124 1223.2 225.039 1222.11 223.22 1218.92C221.385 1215.76 222.476 1211.67 225.667 1209.85C228.831 1208.01 232.917 1209.1 234.736 1212.29Z" fill="#0074FF"/>
<path d="M198.531 1271.29L230.256 1216.34L227.7 1214.87L195.975 1269.82L198.531 1271.29Z" fill="#0074FF"/>
<path d="M202.99 1273.87C201.152 1277.05 197.076 1278.15 193.894 1276.31C190.713 1274.47 189.622 1270.4 191.461 1267.21C193.299 1264.03 197.375 1262.93 200.557 1264.77C203.738 1266.61 204.829 1270.68 202.99 1273.87Z" fill="#0074FF"/>
<path d="M197.232 1272.04L197.233 1269.08L133.824 1269.11L133.823 1272.06L197.232 1272.04Z" fill="#0074FF"/>
<path d="M133.829 1277.23C130.171 1277.22 127.171 1274.26 127.181 1270.6C127.19 1266.94 130.158 1263.93 133.816 1263.94C137.473 1263.95 140.474 1266.91 140.464 1270.57C140.454 1274.23 137.487 1277.24 133.829 1277.23Z" fill="#0074FF"/>
<path d="M135.11 1269.83L103.446 1214.89L100.888 1216.37L132.552 1271.31L135.11 1269.83Z" fill="#0074FF"/>
<path d="M96.3866 1219C94.5515 1215.83 95.6426 1211.75 98.834 1209.92C101.998 1208.09 106.083 1209.17 107.903 1212.36C109.738 1215.53 108.647 1219.62 105.455 1221.44C102.291 1223.28 98.206 1222.19 96.3866 1219Z" fill="#0074FF"/>
<path d="M103.438 1216.39L135.163 1161.44L132.607 1159.97L100.882 1214.92L103.438 1216.39Z" fill="#0074FF"/>
<path d="M128.121 1157.38C126.281 1160.56 127.37 1164.64 130.554 1166.47C133.738 1168.31 137.811 1167.22 139.65 1164.03C141.49 1160.85 140.401 1156.77 137.217 1154.93C134.033 1153.1 129.96 1154.19 128.121 1157.38Z" fill="#0074FF"/>
<path d="M197.386 1052.29L197.387 1049.34L133.978 1049.36L133.977 1052.31L197.386 1052.29Z" fill="#0074FF"/>
<path d="M197.329 1044.16C200.987 1044.17 203.988 1047.13 203.978 1050.79C203.968 1054.45 201.001 1057.46 197.343 1057.45C193.685 1057.44 190.684 1054.48 190.694 1050.82C190.704 1047.16 193.671 1044.15 197.329 1044.16Z" fill="#0074FF"/>
<path d="M230.306 1104.98L198.641 1050.04L196.084 1051.52L227.748 1106.46L230.306 1104.98Z" fill="#0074FF"/>
<path d="M234.772 1102.39C236.607 1105.56 235.516 1109.64 232.325 1111.47C229.16 1113.31 225.075 1112.22 223.256 1109.03C221.421 1105.86 222.512 1101.77 225.703 1099.95C228.868 1098.11 232.953 1099.2 234.788 1102.37L234.772 1102.39Z" fill="#0074FF"/>
<path d="M198.551 1161.42L230.276 1106.47L227.72 1105L195.995 1159.95L198.551 1161.42Z" fill="#0074FF"/>
<path d="M203.038 1164.01C201.199 1167.2 197.123 1168.29 193.942 1166.46C190.76 1164.62 189.67 1160.54 191.508 1157.36C193.347 1154.17 197.423 1153.08 200.604 1154.92C203.786 1156.75 204.876 1160.83 203.038 1164.01Z" fill="#0074FF"/>
<path d="M197.258 1162.14L197.26 1159.19L133.851 1159.21L133.849 1162.17L197.258 1162.14Z" fill="#0074FF"/>
<path d="M133.865 1167.33C130.207 1167.33 127.207 1164.36 127.216 1160.7C127.226 1157.04 130.194 1154.04 133.851 1154.04C137.509 1154.05 140.51 1157.02 140.5 1160.68C140.49 1164.34 137.523 1167.34 133.865 1167.33Z" fill="#0074FF"/>
<path d="M135.214 1159.95L103.549 1105.02L100.991 1106.49L132.656 1161.43L135.214 1159.95Z" fill="#0074FF"/>
<path d="M96.4226 1109.1C94.5875 1105.94 95.6785 1101.85 98.8699 1100.03C102.034 1098.19 106.119 1099.28 107.939 1102.47C109.774 1105.63 108.683 1109.72 105.491 1111.54C102.327 1113.38 98.242 1112.29 96.4226 1109.1Z" fill="#0074FF"/>
<path d="M103.458 1106.52L135.184 1051.57L132.628 1050.1L100.902 1105.05L103.458 1106.52Z" fill="#0074FF"/>
<path d="M128.141 1047.51C126.301 1050.69 127.391 1054.77 130.574 1056.6C133.758 1058.44 137.831 1057.35 139.67 1054.16C141.51 1050.98 140.421 1046.9 137.237 1045.07C134.053 1043.23 129.981 1044.32 128.141 1047.51Z" fill="#0074FF"/>
<path d="M292.429 997.273L292.43 994.32L229.021 994.344L229.02 997.297L292.429 997.273Z" fill="#0074FF"/>
<path d="M292.457 989.165C296.115 989.172 299.116 992.139 299.106 995.798C299.096 999.457 296.129 1002.46 292.471 1002.45C288.813 1002.45 285.813 999.481 285.822 995.822C285.832 992.162 288.8 989.158 292.457 989.165Z" fill="#0074FF"/>
<path d="M292.457 1107.2L292.458 1104.24L229.049 1104.27L229.048 1107.22L292.457 1107.2Z" fill="#0074FF"/>
<path d="M229.005 1112.38C225.347 1112.37 222.346 1109.41 222.356 1105.75C222.366 1102.09 225.333 1099.08 228.991 1099.09C232.649 1099.1 235.65 1102.07 235.624 1105.75C235.614 1109.41 232.647 1112.42 228.989 1112.41L229.005 1112.38Z" fill="#0074FF"/>
<path d="M230.306 1104.98L198.641 1050.04L196.084 1051.52L227.748 1106.46L230.306 1104.98Z" fill="#0074FF"/>
<path d="M191.578 1054.12C189.743 1050.96 190.834 1046.87 194.025 1045.05C197.217 1043.22 201.274 1044.3 203.094 1047.49C204.929 1050.65 203.838 1054.74 200.647 1056.56C197.482 1058.4 193.397 1057.31 191.578 1054.12Z" fill="#0074FF"/>
<path d="M198.614 1051.54L230.339 996.593L227.783 995.117L196.058 1050.07L198.614 1051.54Z" fill="#0074FF"/>
<path d="M223.296 992.527C221.457 995.714 222.546 999.787 225.73 1001.63C228.914 1003.46 232.986 1002.37 234.826 999.184C236.666 995.997 235.576 991.924 232.392 990.085C229.209 988.247 225.136 989.34 223.296 992.527Z" fill="#0074FF"/>
<path d="M292.513 887.429L292.514 884.476L229.105 884.5L229.104 887.453L292.513 887.429Z" fill="#0074FF"/>
<path d="M292.505 879.311C296.162 879.319 299.163 882.285 299.153 885.944C299.143 889.604 296.176 892.608 292.518 892.601C288.861 892.594 285.86 889.627 285.87 885.968C285.88 882.309 288.847 879.304 292.505 879.311Z" fill="#0074FF"/>
<path d="M325.458 940.143L293.794 885.206L291.236 886.682L322.901 941.619L325.458 940.143Z" fill="#0074FF"/>
<path d="M329.948 937.544C331.783 940.708 330.692 944.796 327.5 946.618C324.336 948.456 320.251 947.368 318.432 944.177C316.597 941.012 317.688 936.925 320.879 935.102C324.07 933.28 328.128 934.352 329.948 937.544Z" fill="#0074FF"/>
<path d="M292.429 997.273L292.43 994.32L229.021 994.344L229.02 997.297L292.429 997.273Z" fill="#0074FF"/>
<path d="M229.041 1002.48C225.383 1002.48 222.382 999.511 222.392 995.852C222.402 992.192 225.369 989.188 229.027 989.195C232.685 989.202 235.686 992.168 235.676 995.828C235.666 999.487 232.699 1002.49 229.041 1002.48Z" fill="#0074FF"/>
<path d="M230.223 995.138L198.568 940.195L196.01 941.672L227.665 996.614L230.223 995.138Z" fill="#0074FF"/>
<path d="M191.598 944.252C189.763 941.088 190.854 937 194.045 935.178C197.21 933.339 201.295 934.428 203.114 937.619C204.949 940.783 203.858 944.871 200.667 946.693C197.503 948.532 193.418 947.443 191.598 944.252Z" fill="#0074FF"/>
<path d="M198.634 941.673L230.359 886.724L227.803 885.248L196.078 940.198L198.634 941.673Z" fill="#0074FF"/>
<path d="M223.317 882.657C225.155 879.473 229.231 878.379 232.413 880.216C235.594 882.053 236.685 886.13 234.846 889.314C233.008 892.498 228.932 893.593 225.75 891.756C222.569 889.919 221.478 885.842 223.317 882.657Z" fill="#0074FF"/>
<path d="M387.637 832.461L387.639 829.508L324.23 829.532L324.228 832.485L387.637 832.461Z" fill="#0074FF"/>
<path d="M387.633 824.316C391.291 824.323 394.292 827.29 394.282 830.949C394.272 834.608 391.305 837.613 387.647 837.606C383.989 837.599 380.988 834.632 380.998 830.973C381.008 827.313 383.975 824.309 387.633 824.316Z" fill="#0074FF"/>
<path d="M325.458 940.143L293.794 885.206L291.236 886.682L322.901 941.619L325.458 940.143Z" fill="#0074FF"/>
<path d="M286.754 889.272C284.919 886.108 286.01 882.021 289.201 880.198C292.365 878.36 296.45 879.448 298.27 882.64C300.105 885.804 299.014 889.891 295.822 891.714C292.658 893.552 288.573 892.464 286.754 889.272Z" fill="#0074FF"/>
<path d="M293.79 886.694L325.515 831.744L322.959 830.268L291.234 885.218L293.79 886.694Z" fill="#0074FF"/>
<path d="M318.472 827.678C316.632 830.865 317.722 834.938 320.906 836.776C324.089 838.614 328.162 837.521 330.002 834.335C331.841 831.148 330.752 827.075 327.568 825.236C324.384 823.398 320.312 824.491 318.472 827.678Z" fill="#0074FF"/>
<path d="M387.695 722.601L387.696 719.648L324.287 719.672L324.286 722.625L387.695 722.601Z" fill="#0074FF"/>
<path d="M387.68 714.462C391.338 714.469 394.339 717.436 394.329 721.095C394.319 724.754 391.352 727.759 387.694 727.752C384.036 727.745 381.036 724.778 381.045 721.119C381.055 717.459 384.023 714.455 387.68 714.462Z" fill="#0074FF"/>
<path d="M420.584 775.289L388.919 720.352L386.362 721.829L418.026 776.766L420.584 775.289Z" fill="#0074FF"/>
<path d="M425.123 772.695C426.958 775.859 425.867 779.947 422.676 781.769C419.512 783.608 415.427 782.519 413.607 779.328C411.772 776.163 412.863 772.076 416.055 770.253C419.219 768.415 423.304 769.503 425.139 772.668L425.123 772.695Z" fill="#0074FF"/>
<path d="M387.637 832.461L387.639 829.508L324.23 829.532L324.228 832.485L387.637 832.461Z" fill="#0074FF"/>
<path d="M324.217 837.635C320.559 837.628 317.558 834.662 317.568 831.003C317.578 827.343 320.545 824.339 324.203 824.346C327.861 824.353 330.861 827.319 330.852 830.979C330.842 834.638 327.874 837.643 324.217 837.635Z" fill="#0074FF"/>
<path d="M325.432 830.299L293.776 775.356L291.219 776.833L322.874 831.775L325.432 830.299Z" fill="#0074FF"/>
<path d="M286.774 779.403C284.939 776.239 286.03 772.151 289.221 770.328C292.385 768.49 296.47 769.579 298.29 772.77C300.125 775.934 299.034 780.022 295.842 781.844C292.678 783.683 288.593 782.594 286.774 779.403Z" fill="#0074FF"/>
<path d="M293.826 776.797L325.551 721.847L322.995 720.372L291.269 775.321L293.826 776.797Z" fill="#0074FF"/>
<path d="M318.508 717.781C316.668 720.968 317.758 725.041 320.941 726.879C324.125 728.718 328.198 727.625 330.037 724.438C331.877 721.251 330.788 717.178 327.604 715.34C324.42 713.501 320.348 714.595 318.508 717.781Z" fill="#0074FF"/>
<path d="M482.808 667.59L482.809 664.637L419.4 664.661L419.399 667.614L482.808 667.59Z" fill="#0074FF"/>
<path d="M482.809 659.467C486.467 659.474 489.467 662.44 489.458 666.1C489.448 669.759 486.48 672.764 482.823 672.757C479.165 672.749 476.164 669.783 476.174 666.124C476.184 662.464 479.151 659.46 482.809 659.467Z" fill="#0074FF"/>
<path d="M420.584 775.289L388.919 720.352L386.362 721.829L418.026 776.766L420.584 775.289Z" fill="#0074FF"/>
<path d="M381.929 724.423C380.094 721.259 381.185 717.172 384.377 715.349C387.568 713.526 391.626 714.599 393.445 717.791C395.28 720.955 394.189 725.042 390.998 726.865C387.834 728.703 383.749 727.615 381.929 724.423Z" fill="#0074FF"/>
<path d="M388.965 721.845L420.691 666.895L418.134 665.419L386.409 720.369L388.965 721.845Z" fill="#0074FF"/>
<path d="M413.648 662.829C411.808 666.016 412.897 670.089 416.081 671.927C419.265 673.765 423.338 672.672 425.177 669.486C427.017 666.299 425.928 662.226 422.744 660.387C419.56 658.549 415.487 659.642 413.648 662.829Z" fill="#0074FF"/>
<path d="M482.808 667.59L482.809 664.637L419.4 664.661L419.399 667.614L482.808 667.59Z" fill="#0074FF"/>
<path d="M419.392 672.786C415.734 672.779 412.734 669.813 412.744 666.153C412.753 662.494 415.721 659.49 419.379 659.497C423.036 659.504 426.037 662.47 426.027 666.13C426.017 669.789 423.05 672.793 419.392 672.786Z" fill="#0074FF"/>
<path d="M420.715 665.427L389.05 610.49L386.492 611.967L418.157 666.904L420.715 665.427Z" fill="#0074FF"/>
<path d="M381.949 614.554C380.114 611.39 381.205 607.302 384.397 605.479C387.561 603.641 391.646 604.73 393.465 607.921C395.3 611.085 394.209 615.173 391.018 616.995C387.854 618.834 383.769 617.745 381.949 614.554Z" fill="#0074FF"/>
<path d="M389.001 611.948L420.726 556.998L418.17 555.523L386.445 610.472L389.001 611.948Z" fill="#0074FF"/>
<path d="M413.684 552.932C415.522 549.748 419.598 548.654 422.78 550.491C425.961 552.327 427.052 556.404 425.213 559.589C423.375 562.773 419.299 563.867 416.117 562.03C412.936 560.193 411.845 556.116 413.684 552.932Z" fill="#0074FF"/>
<path d="M578.047 392.902L578.048 389.949L514.639 389.973L514.638 392.926L578.047 392.902Z" fill="#0074FF"/>
<path d="M578.047 384.737C581.705 384.744 584.706 387.71 584.696 391.37C584.686 395.029 581.719 398.034 578.061 398.026C574.403 398.019 571.403 395.053 571.412 391.394C571.422 387.734 574.39 384.73 578.047 384.737Z" fill="#0074FF"/>
<path d="M484.177 447.099L515.902 392.149L513.346 390.674L481.621 445.623L484.177 447.099Z" fill="#0074FF"/>
<path d="M508.859 388.083C507.019 391.27 508.109 395.343 511.293 397.181C514.477 399.019 518.549 397.926 520.389 394.74C522.229 391.553 521.139 387.48 517.955 385.642C514.771 383.803 510.699 384.897 508.859 388.083Z" fill="#0074FF"/>
<path d="M102.16 1107.22L102.162 1104.27L38.7526 1104.29L38.7514 1107.25L102.16 1107.22Z" fill="#0074FF"/>
<path d="M102.189 1099.11C105.847 1099.12 108.848 1102.09 108.838 1105.75C108.828 1109.4 105.861 1112.41 102.203 1112.4C98.5451 1112.4 95.5444 1109.43 95.5543 1105.77C95.5641 1102.11 98.5314 1099.11 102.189 1099.11Z" fill="#0074FF"/>
<path d="M135.214 1159.95L103.549 1105.02L100.991 1106.49L132.656 1161.43L135.214 1159.95Z" fill="#0074FF"/>
<path d="M139.616 1157.37C141.451 1160.54 140.36 1164.62 137.169 1166.45C134.005 1168.29 129.92 1167.2 128.1 1164.01C126.265 1160.84 127.356 1156.75 130.548 1154.93C133.712 1153.09 137.797 1154.18 139.616 1157.37Z" fill="#0074FF"/>
<path d="M103.438 1216.39L135.163 1161.44L132.607 1159.97L100.882 1214.92L103.438 1216.39Z" fill="#0074FF"/>
<path d="M107.898 1218.97C106.059 1222.15 101.983 1223.25 98.8019 1221.41C95.6204 1219.57 94.5298 1215.49 96.3682 1212.31C98.2067 1209.13 102.283 1208.03 105.464 1209.87C108.646 1211.71 109.736 1215.78 107.898 1218.97Z" fill="#0074FF"/>
<path d="M102.161 1217.13L102.163 1214.17L38.7535 1214.2L38.7524 1217.15L102.161 1217.13Z" fill="#0074FF"/>
<path d="M38.7368 1222.33C35.079 1222.32 32.0782 1219.36 32.0881 1215.7C32.098 1212.04 35.0652 1209.03 38.7231 1209.04C42.3809 1209.05 45.3816 1212.01 45.3718 1215.67C45.3619 1219.33 42.3946 1222.34 38.7368 1222.33Z" fill="#0074FF"/>
<path d="M102.272 997.393L102.274 994.439L38.8646 994.463L38.8634 997.417L102.272 997.393Z" fill="#0074FF"/>
<path d="M102.237 989.259C105.894 989.266 108.895 992.232 108.885 995.892C108.876 999.551 105.908 1002.56 102.25 1002.55C98.5926 1002.54 95.5918 999.575 95.6017 995.915C95.6115 992.256 98.5788 989.252 102.237 989.259Z" fill="#0074FF"/>
<path d="M135.2 1050.07L103.535 995.13L100.978 996.607L132.642 1051.54L135.2 1050.07Z" fill="#0074FF"/>
<path d="M139.679 1047.49C141.514 1050.66 140.423 1054.74 137.232 1056.57C134.068 1058.4 129.983 1057.32 128.163 1054.12C126.328 1050.96 127.419 1046.87 130.611 1045.05C133.775 1043.21 137.86 1044.3 139.695 1047.46L139.679 1047.49Z" fill="#0074FF"/>
<path d="M103.458 1106.52L135.184 1051.57L132.628 1050.1L100.902 1105.05L103.458 1106.52Z" fill="#0074FF"/>
<path d="M107.945 1109.11C106.107 1112.3 102.031 1113.39 98.8492 1111.55C95.6677 1109.72 94.5772 1105.64 96.4156 1102.46C98.254 1099.27 102.33 1098.18 105.512 1100.01C108.693 1101.85 109.784 1105.93 107.945 1109.11Z" fill="#0074FF"/>
<path d="M102.16 1107.22L102.162 1104.27L38.7526 1104.29L38.7514 1107.25L102.16 1107.22Z" fill="#0074FF"/>
<path d="M38.7727 1112.43C35.1149 1112.42 32.1141 1109.46 32.124 1105.8C32.1339 1102.14 35.1012 1099.14 38.759 1099.14C42.4168 1099.15 45.4176 1102.12 45.4077 1105.78C45.3978 1109.43 42.4305 1112.44 38.7727 1112.43Z" fill="#0074FF"/>
<path d="M8.36597 1051.62L40.0912 996.671L37.5351 995.195L5.80984 1050.15L8.36597 1051.62Z" fill="#0074FF"/>
<path d="M33.0483 992.605C31.2085 995.791 32.2981 999.865 35.482 1001.7C38.6658 1003.54 42.7382 1002.45 44.5779 999.262C46.4177 996.075 45.3282 992.002 42.1444 990.163C38.9606 988.325 34.8881 989.418 33.0483 992.605Z" fill="#0074FF"/>
<path d="M197.342 942.393L197.343 939.44L133.934 939.464L133.933 942.417L197.342 942.393Z" fill="#0074FF"/>
<path d="M197.365 934.264C201.023 934.271 204.024 937.237 204.014 940.896C204.004 944.556 201.036 947.56 197.379 947.553C193.721 947.546 190.72 944.58 190.73 940.92C190.74 937.261 193.707 934.256 197.365 934.264Z" fill="#0074FF"/>
<path d="M230.223 995.138L198.568 940.195L196.01 941.672L227.665 996.614L230.223 995.138Z" fill="#0074FF"/>
<path d="M234.792 992.523C236.627 995.688 235.536 999.775 232.345 1001.6C229.18 1003.44 225.095 1002.35 223.276 999.156C221.441 995.992 222.532 991.904 225.723 990.082C228.887 988.244 232.972 989.332 234.792 992.523Z" fill="#0074FF"/>
<path d="M198.614 1051.54L230.339 996.593L227.783 995.117L196.058 1050.07L198.614 1051.54Z" fill="#0074FF"/>
<path d="M191.571 1047.48C189.731 1050.66 190.821 1054.74 194.005 1056.57C197.189 1058.41 201.261 1057.32 203.101 1054.13C204.941 1050.95 203.851 1046.87 200.667 1045.04C197.483 1043.2 193.411 1044.29 191.571 1047.48Z" fill="#0074FF"/>
<path d="M197.386 1052.29L197.387 1049.34L133.978 1049.36L133.977 1052.31L197.386 1052.29Z" fill="#0074FF"/>
<path d="M133.912 1057.48C130.255 1057.47 127.254 1054.51 127.264 1050.85C127.274 1047.19 130.241 1044.18 133.899 1044.19C137.557 1044.2 140.557 1047.16 140.532 1050.85C140.522 1054.51 137.555 1057.51 133.897 1057.51L133.912 1057.48Z" fill="#0074FF"/>
<path d="M135.2 1050.07L103.535 995.13L100.978 996.607L132.642 1051.54L135.2 1050.07Z" fill="#0074FF"/>
<path d="M96.4855 999.22C94.6504 996.056 95.7414 991.968 98.9328 990.145C102.097 988.307 106.182 989.396 108.001 992.587C109.836 995.751 108.745 999.839 105.554 1001.66C102.39 1003.5 98.3049 1002.41 96.4855 999.22Z" fill="#0074FF"/>
<path d="M103.522 996.641L135.247 941.692L132.691 940.216L100.965 995.165L103.522 996.641Z" fill="#0074FF"/>
<path d="M128.204 937.625C126.364 940.812 127.454 944.885 130.638 946.723C133.821 948.562 137.894 947.469 139.734 944.282C141.573 941.095 140.484 937.022 137.3 935.184C134.116 933.346 130.044 934.439 128.204 937.625Z" fill="#0074FF"/>
<path d="M197.4 832.534L197.401 829.58L133.992 829.604L133.991 832.557L197.4 832.534Z" fill="#0074FF"/>
<path d="M197.412 824.41C201.07 824.417 204.071 827.383 204.061 831.043C204.051 834.702 201.084 837.706 197.426 837.699C193.768 837.692 190.767 834.726 190.777 831.066C190.787 827.407 193.754 824.403 197.412 824.41Z" fill="#0074FF"/>
<path d="M230.38 885.245L198.715 830.308L196.157 831.785L227.822 886.721L230.38 885.245Z" fill="#0074FF"/>
<path d="M234.855 882.642C236.69 885.807 235.599 889.894 232.408 891.717C229.216 893.539 225.158 892.467 223.339 889.275C221.504 886.111 222.595 882.023 225.786 880.201C228.951 878.362 233.036 879.451 234.855 882.642Z" fill="#0074FF"/>
<path d="M198.634 941.673L230.359 886.724L227.803 885.248L196.078 940.198L198.634 941.673Z" fill="#0074FF"/>
<path d="M191.591 937.607C189.751 940.794 190.841 944.867 194.025 946.706C197.209 948.544 201.281 947.451 203.121 944.264C204.961 941.077 203.871 937.004 200.687 935.166C197.503 933.328 193.431 934.421 191.591 937.607Z" fill="#0074FF"/>
<path d="M197.342 942.393L197.343 939.44L133.934 939.464L133.933 942.417L197.342 942.393Z" fill="#0074FF"/>
<path d="M133.948 947.583C130.29 947.576 127.29 944.609 127.3 940.95C127.309 937.291 130.277 934.286 133.935 934.293C137.592 934.301 140.593 937.267 140.583 940.926C140.573 944.586 137.606 947.59 133.948 947.583Z" fill="#0074FF"/>
<path d="M135.245 940.228L103.58 885.291L101.023 886.768L132.687 941.705L135.245 940.228Z" fill="#0074FF"/>
<path d="M96.5057 889.35C94.6706 886.186 95.7616 882.098 98.9529 880.276C102.117 878.438 106.202 879.526 108.022 882.717C109.857 885.882 108.766 889.969 105.574 891.792C102.41 893.63 98.3251 892.542 96.5057 889.35Z" fill="#0074FF"/>
<path d="M103.542 886.772L135.267 831.822L132.711 830.346L100.985 885.296L103.542 886.772Z" fill="#0074FF"/>
<path d="M128.224 827.756C130.062 824.572 134.138 823.478 137.32 825.314C140.501 827.151 141.592 831.228 139.754 834.413C137.915 837.597 133.839 838.691 130.658 836.854C127.476 835.017 126.385 830.94 128.224 827.756Z" fill="#0074FF"/>
<path d="M292.567 777.554L292.568 774.6L229.159 774.624L229.158 777.578L292.567 777.554Z" fill="#0074FF"/>
<path d="M292.541 769.414C296.198 769.422 299.199 772.388 299.189 776.047C299.179 779.707 296.212 782.711 292.554 782.704C288.896 782.697 285.896 779.731 285.906 776.071C285.915 772.412 288.883 769.407 292.541 769.414Z" fill="#0074FF"/>
<path d="M325.432 830.299L293.776 775.356L291.219 776.833L322.874 831.775L325.432 830.299Z" fill="#0074FF"/>
<path d="M329.968 827.674C331.803 830.838 330.712 834.926 327.52 836.749C324.356 838.587 320.271 837.499 318.452 834.307C316.617 831.143 317.708 827.055 320.899 825.233C324.063 823.394 328.148 824.483 329.968 827.674Z" fill="#0074FF"/>
<path d="M293.79 886.694L325.515 831.744L322.959 830.268L291.234 885.218L293.79 886.694Z" fill="#0074FF"/>
<path d="M298.249 889.269C296.411 892.453 292.335 893.547 289.153 891.71C285.972 889.873 284.881 885.796 286.72 882.612C288.558 879.428 292.634 878.334 295.816 880.17C298.997 882.007 300.088 886.084 298.249 889.269Z" fill="#0074FF"/>
<path d="M292.513 887.429L292.514 884.476L229.105 884.5L229.104 887.453L292.513 887.429Z" fill="#0074FF"/>
<path d="M229.088 892.631C225.43 892.623 222.43 889.657 222.439 885.998C222.449 882.338 225.417 879.334 229.074 879.341C232.732 879.348 235.733 882.315 235.723 885.974C235.713 889.633 232.746 892.638 229.088 892.631Z" fill="#0074FF"/>
<path d="M230.38 885.245L198.715 830.308L196.157 831.785L227.822 886.721L230.38 885.245Z" fill="#0074FF"/>
<path d="M191.661 834.371C189.826 831.206 190.917 827.119 194.109 825.296C197.273 823.458 201.358 824.546 203.177 827.738C205.012 830.902 203.921 834.99 200.73 836.812C197.566 838.65 193.481 837.562 191.661 834.371Z" fill="#0074FF"/>
<path d="M198.697 831.792L230.422 776.843L227.866 775.367L196.141 830.316L198.697 831.792Z" fill="#0074FF"/>
<path d="M223.38 772.776C221.54 775.963 222.629 780.036 225.813 781.875C228.997 783.713 233.069 782.62 234.909 779.433C236.749 776.246 235.659 772.173 232.476 770.335C229.292 768.497 225.219 769.59 223.38 772.776Z" fill="#0074FF"/>
<path d="M292.57 667.663L292.571 664.709L229.162 664.733L229.161 667.686L292.57 667.663Z" fill="#0074FF"/>
<path d="M292.588 659.561C296.246 659.568 299.247 662.534 299.237 666.193C299.227 669.853 296.259 672.857 292.602 672.85C288.944 672.843 285.943 669.877 285.953 666.217C285.963 662.558 288.93 659.553 292.588 659.561Z" fill="#0074FF"/>
<path d="M325.505 720.391L293.841 665.454L291.283 666.931L322.948 721.867L325.505 720.391Z" fill="#0074FF"/>
<path d="M330.031 717.793C331.866 720.957 330.775 725.045 327.583 726.868C324.419 728.706 320.334 727.617 318.515 724.426C316.68 721.262 317.771 717.174 320.962 715.352C324.126 713.513 328.211 714.602 330.046 717.766L330.031 717.793Z" fill="#0074FF"/>
<path d="M293.826 776.797L325.551 721.847L322.995 720.372L291.269 775.321L293.826 776.797Z" fill="#0074FF"/>
<path d="M298.312 779.388C296.474 782.572 292.398 783.666 289.216 781.829C286.035 779.992 284.944 775.915 286.783 772.731C288.621 769.547 292.697 768.452 295.879 770.289C299.06 772.126 300.151 776.203 298.312 779.388Z" fill="#0074FF"/>
<path d="M292.567 777.554L292.568 774.6L229.159 774.624L229.158 777.578L292.567 777.554Z" fill="#0074FF"/>
<path d="M229.124 782.734C225.466 782.727 222.465 779.76 222.475 776.101C222.485 772.441 225.453 769.437 229.11 769.444C232.768 769.451 235.769 772.418 235.759 776.077C235.749 779.736 232.782 782.741 229.124 782.734Z" fill="#0074FF"/>
<path d="M230.413 775.363L198.749 720.426L196.191 721.903L227.856 776.84L230.413 775.363Z" fill="#0074FF"/>
<path d="M191.681 724.501C189.846 721.337 190.937 717.249 194.129 715.427C197.293 713.588 201.378 714.677 203.197 717.868C205.032 721.033 203.941 725.12 200.75 726.943C197.586 728.781 193.501 727.693 191.681 724.501Z" fill="#0074FF"/>
<path d="M198.733 721.895L230.458 666.946L227.902 665.47L196.177 720.42L198.733 721.895Z" fill="#0074FF"/>
<path d="M223.415 662.88C221.576 666.066 222.665 670.14 225.849 671.978C229.033 673.816 233.105 672.723 234.945 669.536C236.785 666.35 235.695 662.276 232.511 660.438C229.328 658.6 225.255 659.693 223.415 662.88Z" fill="#0074FF"/>
<path d="M387.694 612.694L387.695 609.741L324.286 609.765L324.285 612.718L387.694 612.694Z" fill="#0074FF"/>
<path d="M387.716 604.565C391.374 604.572 394.375 607.539 394.365 611.198C394.355 614.858 391.388 617.862 387.73 617.855C384.072 617.848 381.071 614.881 381.081 611.222C381.091 607.563 384.058 604.558 387.716 604.565Z" fill="#0074FF"/>
<path d="M420.715 665.427L389.05 610.49L386.492 611.967L418.157 666.904L420.715 665.427Z" fill="#0074FF"/>
<path d="M425.143 662.825C426.978 665.989 425.887 670.077 422.696 671.899C419.532 673.738 415.447 672.649 413.627 669.458C411.792 666.294 412.883 662.206 416.075 660.383C419.239 658.545 423.324 659.634 425.143 662.825Z" fill="#0074FF"/>
<path d="M388.965 721.845L420.691 666.895L418.134 665.419L386.409 720.369L388.965 721.845Z" fill="#0074FF"/>
<path d="M381.922 717.779C380.083 720.965 381.172 725.039 384.356 726.877C387.54 728.715 391.612 727.622 393.452 724.435C395.292 721.249 394.202 717.175 391.019 715.337C387.835 713.499 383.762 714.592 381.922 717.779Z" fill="#0074FF"/>
<path d="M387.695 722.601L387.696 719.648L324.287 719.672L324.286 722.625L387.695 722.601Z" fill="#0074FF"/>
<path d="M324.264 727.781C320.606 727.774 317.605 724.808 317.615 721.149C317.625 717.489 320.592 714.485 324.25 714.492C327.908 714.499 330.909 717.465 330.883 721.152C330.873 724.811 327.906 727.816 324.248 727.809L324.264 727.781Z" fill="#0074FF"/>
<path d="M325.505 720.391L293.841 665.454L291.283 666.931L322.948 721.867L325.505 720.391Z" fill="#0074FF"/>
<path d="M286.837 669.522C285.002 666.357 286.093 662.27 289.284 660.447C292.448 658.609 296.533 659.697 298.353 662.889C300.188 666.053 299.097 670.141 295.905 671.963C292.741 673.801 288.656 672.713 286.837 669.522Z" fill="#0074FF"/>
<path d="M293.873 666.943L325.598 611.993L323.042 610.518L291.317 665.467L293.873 666.943Z" fill="#0074FF"/>
<path d="M318.555 607.927C316.715 611.114 317.805 615.187 320.989 617.025C324.173 618.864 328.245 617.77 330.085 614.584C331.925 611.397 330.835 607.324 327.651 605.486C324.467 603.648 320.395 604.741 318.555 607.927Z" fill="#0074FF"/>
<path d="M387.751 502.835L387.753 499.881L324.344 499.905L324.342 502.858L387.751 502.835Z" fill="#0074FF"/>
<path d="M387.764 494.712C391.421 494.719 394.422 497.685 394.412 501.344C394.402 505.004 391.435 508.008 387.777 508.001C384.12 507.994 381.119 505.028 381.129 501.368C381.138 497.709 384.106 494.704 387.764 494.712Z" fill="#0074FF"/>
<path d="M420.744 555.53L389.079 500.593L386.522 502.07L418.186 557.006L420.744 555.53Z" fill="#0074FF"/>
<path d="M425.206 552.944C427.041 556.108 425.95 560.196 422.759 562.018C419.568 563.841 415.51 562.768 413.69 559.577C411.855 556.413 412.946 552.325 416.138 550.503C419.302 548.664 423.387 549.753 425.206 552.944Z" fill="#0074FF"/>
<path d="M389.001 611.948L420.726 556.998L418.17 555.523L386.445 610.472L389.001 611.948Z" fill="#0074FF"/>
<path d="M381.958 607.882C380.119 611.068 381.208 615.142 384.392 616.98C387.576 618.818 391.648 617.725 393.488 614.538C395.328 611.352 394.238 607.278 391.054 605.44C387.871 603.602 383.798 604.695 381.958 607.882Z" fill="#0074FF"/>
<path d="M387.694 612.694L387.695 609.741L324.286 609.765L324.285 612.718L387.694 612.694Z" fill="#0074FF"/>
<path d="M324.3 617.885C320.642 617.877 317.641 614.911 317.651 611.252C317.661 607.592 320.628 604.588 324.286 604.595C327.944 604.602 330.945 607.569 330.935 611.228C330.925 614.887 327.958 617.892 324.3 617.885Z" fill="#0074FF"/>
<path d="M325.523 610.536L293.859 555.599L291.301 557.076L322.965 612.013L325.523 610.536Z" fill="#0074FF"/>
<path d="M286.857 559.652C285.022 556.488 286.113 552.4 289.304 550.578C292.469 548.739 296.554 549.828 298.373 553.019C300.208 556.183 299.117 560.271 295.926 562.094C292.761 563.932 288.676 562.844 286.857 559.652Z" fill="#0074FF"/>
<path d="M293.909 557.046L325.634 502.097L323.078 500.621L291.353 555.571L293.909 557.046Z" fill="#0074FF"/>
<path d="M318.591 498.03C320.429 494.846 324.506 493.752 327.687 495.589C330.869 497.426 331.959 501.503 330.121 504.687C328.282 507.871 324.206 508.965 321.025 507.129C317.843 505.292 316.753 501.215 318.591 498.03Z" fill="#0074FF"/>
<path d="M482.891 447.839L482.892 444.886L419.483 444.909L419.482 447.863L482.891 447.839Z" fill="#0074FF"/>
<path d="M482.892 439.716C486.55 439.723 489.551 442.69 489.541 446.349C489.531 450.009 486.564 453.013 482.906 453.006C479.248 452.999 476.247 450.032 476.257 446.373C476.267 442.714 479.234 439.709 482.892 439.716Z" fill="#0074FF"/>
<path d="M420.744 555.53L389.079 500.593L386.522 502.07L418.186 557.006L420.744 555.53Z" fill="#0074FF"/>
<path d="M382.012 504.673C380.177 501.508 381.268 497.421 384.46 495.598C387.624 493.76 391.709 494.848 393.528 498.04C395.363 501.204 394.272 505.292 391.081 507.114C387.917 508.953 383.832 507.864 382.012 504.673Z" fill="#0074FF"/>
<path d="M389.048 502.094L420.774 447.144L418.218 445.669L386.492 500.618L389.048 502.094Z" fill="#0074FF"/>
<path d="M413.731 443.078C411.891 446.265 412.981 450.338 416.164 452.176C419.348 454.015 423.421 452.921 425.26 449.735C427.1 446.548 426.011 442.475 422.827 440.637C419.643 438.798 415.571 439.892 413.731 443.078Z" fill="#0074FF"/>
<path d="M482.949 337.979L482.95 335.026L419.541 335.05L419.54 338.003L482.949 337.979Z" fill="#0074FF"/>
<path d="M482.955 329.835C486.613 329.842 489.614 332.809 489.604 336.468C489.594 340.128 486.627 343.132 482.969 343.125C479.311 343.118 476.31 340.151 476.32 336.492C476.33 332.832 479.297 329.828 482.955 329.835Z" fill="#0074FF"/>
<path d="M515.897 390.692L484.232 335.755L481.674 337.231L513.339 392.168L515.897 390.692Z" fill="#0074FF"/>
<path d="M520.382 388.095C522.217 391.259 521.126 395.347 517.935 397.169C514.77 399.008 510.685 397.919 508.866 394.728C507.031 391.564 508.122 387.476 511.313 385.653C514.478 383.815 518.563 384.904 520.382 388.095Z" fill="#0074FF"/>
<path d="M484.177 447.099L515.902 392.149L513.346 390.674L481.621 445.623L484.177 447.099Z" fill="#0074FF"/>
<path d="M477.134 443.033C475.294 446.219 476.384 450.293 479.568 452.131C482.751 453.969 486.824 452.876 488.664 449.689C490.503 446.503 489.414 442.429 486.23 440.591C483.046 438.753 478.974 439.846 477.134 443.033Z" fill="#0074FF"/>
<path d="M482.891 447.839L482.892 444.886L419.483 444.909L419.482 447.863L482.891 447.839Z" fill="#0074FF"/>
<path d="M419.475 453.036C415.817 453.029 412.817 450.062 412.827 446.403C412.836 442.743 415.804 439.739 419.462 439.746C423.119 439.753 426.12 442.72 426.11 446.379C426.1 450.038 423.133 453.043 419.475 453.036Z" fill="#0074FF"/>
<path d="M420.762 445.675L389.097 390.738L386.539 392.215L418.204 447.152L420.762 445.675Z" fill="#0074FF"/>
<path d="M382.033 394.803C380.198 391.639 381.289 387.551 384.48 385.729C387.671 383.906 391.729 384.979 393.549 388.17C395.384 391.334 394.293 395.422 391.101 397.245C387.937 399.083 383.852 397.995 382.033 394.803Z" fill="#0074FF"/>
<path d="M389.084 392.197L420.81 337.248L418.253 335.772L386.528 390.722L389.084 392.197Z" fill="#0074FF"/>
<path d="M413.767 333.181C411.927 336.368 413.016 340.441 416.2 342.28C419.384 344.118 423.457 343.025 425.296 339.838C427.136 336.651 426.047 332.578 422.863 330.74C419.679 328.902 415.606 329.995 413.767 333.181Z" fill="#0074FF"/>
<path d="M578.046 282.995L578.047 280.042L514.638 280.066L514.637 283.019L578.046 282.995Z" fill="#0074FF"/>
<path d="M578.068 274.867C581.725 274.874 584.726 277.841 584.716 281.5C584.706 285.16 581.739 288.164 578.081 288.157C574.423 288.15 571.423 285.183 571.433 281.524C571.442 277.865 574.41 274.86 578.068 274.867Z" fill="#0074FF"/>
<path d="M578.047 392.902L578.048 389.949L514.639 389.973L514.638 392.926L578.047 392.902Z" fill="#0074FF"/>
<path d="M514.615 398.083C510.957 398.076 507.957 395.11 507.966 391.451C507.976 387.791 510.944 384.787 514.601 384.794C518.259 384.801 521.26 387.767 521.25 391.427C521.24 395.086 518.273 398.09 514.615 398.083Z" fill="#0074FF"/>
<path d="M515.897 390.692L484.232 335.755L481.674 337.231L513.339 392.168L515.897 390.692Z" fill="#0074FF"/>
<path d="M477.188 339.824C475.353 336.659 476.444 332.572 479.635 330.749C482.8 328.911 486.885 329.999 488.704 333.191C490.539 336.355 489.448 340.443 486.257 342.265C483.093 344.103 479.007 343.015 477.188 339.824Z" fill="#0074FF"/>
<path d="M484.224 337.245L515.949 282.295L513.393 280.82L481.668 335.769L484.224 337.245Z" fill="#0074FF"/>
<path d="M508.906 278.229C507.067 281.416 508.156 285.489 511.34 287.327C514.524 289.166 518.596 288.072 520.436 284.886C522.276 281.699 521.186 277.626 518.003 275.788C514.819 273.949 510.746 275.043 508.906 278.229Z" fill="#0074FF"/>
<path d="M578.046 282.995L578.047 280.042L514.638 280.066L514.637 283.019L578.046 282.995Z" fill="#0074FF"/>
<path d="M514.651 288.187C510.993 288.179 507.992 285.213 508.002 281.554C508.012 277.894 510.979 274.89 514.637 274.897C518.295 274.904 521.296 277.871 521.286 281.53C521.276 285.189 518.309 288.194 514.651 288.187Z" fill="#0074FF"/>
<path d="M515.957 280.826L484.292 225.889L481.735 227.366L513.399 282.302L515.957 280.826Z" fill="#0074FF"/>
<path d="M477.208 229.954C475.373 226.79 476.464 222.702 479.656 220.88C482.82 219.041 486.905 220.13 488.724 223.321C490.559 226.485 489.468 230.573 486.277 232.396C483.113 234.234 479.028 233.145 477.208 229.954Z" fill="#0074FF"/>
<path d="M484.26 227.348L515.985 172.399L513.429 170.923L481.704 225.872L484.26 227.348Z" fill="#0074FF"/>
<path d="M508.942 168.332C510.781 165.148 514.857 164.054 518.038 165.891C521.22 167.728 522.31 171.805 520.472 174.989C518.634 178.173 514.557 179.267 511.376 177.431C508.194 175.594 507.104 171.517 508.942 168.332Z" fill="#0074FF"/>
<path d="M40.0036 995.207L8.34859 940.264L5.79056 941.741L37.4456 996.683L40.0036 995.207Z" fill="#0074FF"/>
<path d="M44.5868 992.59C46.422 995.754 45.331 999.841 42.1395 1001.66C38.9753 1003.5 34.8903 1002.41 33.071 999.222C31.2358 996.058 32.3269 991.97 35.5183 990.148C38.6825 988.31 42.7675 989.398 44.6026 992.562L44.5868 992.59Z" fill="#0074FF"/>
<path d="M8.36597 1051.62L40.0912 996.671L37.5351 995.195L5.80984 1050.15L8.36597 1051.62Z" fill="#0074FF"/>
<path d="M12.8527 1054.21C11.0143 1057.4 6.93826 1058.49 3.75674 1056.65C0.575218 1054.82 -0.515373 1050.74 1.32307 1047.55C3.16151 1044.37 7.23763 1043.28 10.4192 1045.11C13.6007 1046.95 14.6912 1051.03 12.8527 1054.21Z" fill="#0074FF"/>
<path d="M102.271 887.486L102.272 884.533L38.8635 884.557L38.8624 887.51L102.271 887.486Z" fill="#0074FF"/>
<path d="M102.273 879.362C105.93 879.369 108.931 882.335 108.921 885.995C108.911 889.654 105.944 892.659 102.286 892.651C98.6284 892.644 95.6276 889.678 95.6375 886.018C95.6474 882.359 98.6147 879.355 102.273 879.362Z" fill="#0074FF"/>
<path d="M135.245 940.228L103.58 885.291L101.023 886.768L132.687 941.705L135.245 940.228Z" fill="#0074FF"/>
<path d="M139.7 937.622C141.535 940.786 140.444 944.873 137.252 946.696C134.088 948.534 130.003 947.446 128.184 944.254C126.349 941.09 127.44 937.003 130.631 935.18C133.795 933.342 137.88 934.43 139.7 937.622Z" fill="#0074FF"/>
<path d="M103.522 996.641L135.247 941.692L132.691 940.216L100.965 995.165L103.522 996.641Z" fill="#0074FF"/>
<path d="M96.4786 992.575C94.6389 995.762 95.7284 999.835 98.9123 1001.67C102.096 1003.51 106.169 1002.42 108.008 999.232C109.848 996.045 108.759 991.972 105.575 990.134C102.391 988.295 98.3184 989.388 96.4786 992.575Z" fill="#0074FF"/>
<path d="M102.272 997.393L102.274 994.439L38.8646 994.463L38.8634 997.417L102.272 997.393Z" fill="#0074FF"/>
<path d="M38.82 1002.58C35.1621 1002.57 32.1613 999.605 32.1712 995.945C32.1811 992.286 35.1484 989.281 38.8062 989.288C42.4641 989.296 45.4649 992.262 45.4393 995.949C45.4294 999.608 42.462 1002.61 38.8042 1002.61L38.82 1002.58Z" fill="#0074FF"/>
<path d="M40.0036 995.207L8.34859 940.264L5.79056 941.741L37.4456 996.683L40.0036 995.207Z" fill="#0074FF"/>
<path d="M1.39299 944.318C-0.442077 941.154 0.648913 937.066 3.84032 935.244C7.00453 933.406 11.0895 934.494 12.9089 937.685C14.744 940.85 13.6529 944.937 10.4615 946.76C7.29732 948.598 3.21238 947.51 1.39299 944.318Z" fill="#0074FF"/>
<path d="M8.40181 941.724L40.1271 886.774L37.571 885.298L5.8457 940.248L8.40181 941.724Z" fill="#0074FF"/>
<path d="M33.1113 882.724C31.2715 885.91 32.3611 889.984 35.5449 891.822C38.7288 893.66 42.8012 892.567 44.641 889.38C46.4808 886.194 45.3912 882.12 42.2074 880.282C39.0236 878.444 34.9511 879.537 33.1113 882.724Z" fill="#0074FF"/>
<path d="M102.302 777.611L102.303 774.657L38.8936 774.681L38.8925 777.635L102.302 777.611Z" fill="#0074FF"/>
<path d="M102.32 769.508C105.977 769.515 108.978 772.481 108.968 776.141C108.958 779.8 105.991 782.805 102.333 782.798C98.6756 782.79 95.6748 779.824 95.6846 776.165C95.6945 772.505 98.6618 769.501 102.32 769.508Z" fill="#0074FF"/>
<path d="M135.185 830.352L103.53 775.41L100.972 776.886L132.627 831.828L135.185 830.352Z" fill="#0074FF"/>
<path d="M139.763 827.74C141.598 830.905 140.507 834.992 137.315 836.815C134.151 838.653 130.066 837.565 128.247 834.373C126.412 831.209 127.503 827.121 130.694 825.299C133.858 823.461 137.943 824.549 139.763 827.74Z" fill="#0074FF"/>
<path d="M103.542 886.772L135.267 831.822L132.711 830.346L100.985 885.296L103.542 886.772Z" fill="#0074FF"/>
<path d="M96.4987 882.706C94.659 885.892 95.7486 889.965 98.9324 891.804C102.116 893.642 106.189 892.549 108.028 889.362C109.868 886.176 108.779 882.102 105.595 880.264C102.411 878.426 98.3385 879.519 96.4987 882.706Z" fill="#0074FF"/>
<path d="M102.271 887.486L102.272 884.533L38.8635 884.557L38.8624 887.51L102.271 887.486Z" fill="#0074FF"/>
<path d="M38.8558 892.681C35.198 892.674 32.1973 889.708 32.2071 886.048C32.217 882.389 35.1843 879.385 38.8421 879.392C42.4999 879.399 45.5007 882.365 45.4908 886.025C45.4809 889.684 42.5136 892.688 38.8558 892.681Z" fill="#0074FF"/>
<path d="M40.1391 885.314L8.47448 830.378L5.91679 831.854L37.5814 886.791L40.1391 885.314Z" fill="#0074FF"/>
<path d="M1.41319 834.448C-0.421877 831.284 0.669052 827.197 3.86043 825.374C7.02468 823.536 11.1097 824.624 12.9291 827.816C14.7641 830.98 13.6731 835.068 10.4818 836.89C7.31754 838.728 3.23258 837.64 1.41319 834.448Z" fill="#0074FF"/>
<path d="M197.48 722.674L197.481 719.72L134.072 719.744L134.071 722.698L197.48 722.674Z" fill="#0074FF"/>
<path d="M197.448 714.513C201.106 714.52 204.107 717.486 204.097 721.146C204.087 724.805 201.12 727.809 197.462 727.802C193.804 727.795 190.803 724.829 190.813 721.17C190.823 717.51 193.79 714.506 197.448 714.513Z" fill="#0074FF"/>
<path d="M230.413 775.363L198.749 720.426L196.191 721.903L227.856 776.84L230.413 775.363Z" fill="#0074FF"/>
<path d="M234.875 772.773C236.71 775.937 235.619 780.024 232.428 781.847C229.264 783.685 225.179 782.597 223.359 779.405C221.524 776.241 222.615 772.154 225.807 770.331C228.971 768.493 233.056 769.581 234.875 772.773Z" fill="#0074FF"/>
<path d="M198.697 831.792L230.422 776.843L227.866 775.367L196.141 830.316L198.697 831.792Z" fill="#0074FF"/>
<path d="M203.157 834.367C201.318 837.551 197.242 838.645 194.061 836.808C190.879 834.972 189.789 830.895 191.627 827.71C193.466 824.526 197.542 823.432 200.723 825.269C203.905 827.106 204.995 831.183 203.157 834.367Z" fill="#0074FF"/>
<path d="M197.4 832.534L197.401 829.58L133.992 829.604L133.991 832.557L197.4 832.534Z" fill="#0074FF"/>
<path d="M133.996 837.729C130.338 837.722 127.337 834.755 127.347 831.096C127.357 827.437 130.324 824.432 133.982 824.439C137.64 824.447 140.641 827.413 140.631 831.072C140.621 834.732 137.654 837.736 133.996 837.729Z" fill="#0074FF"/>
<path d="M135.185 830.352L103.53 775.41L100.972 776.886L132.627 831.828L135.185 830.352Z" fill="#0074FF"/>
<path d="M96.5687 779.469C94.7336 776.305 95.8247 772.217 99.0161 770.395C102.18 768.556 106.265 769.645 108.085 772.836C109.92 776 108.829 780.088 105.637 781.911C102.473 783.749 98.3881 782.66 96.5687 779.469Z" fill="#0074FF"/>
<path d="M103.578 776.875L135.303 721.925L132.747 720.449L101.021 775.399L103.578 776.875Z" fill="#0074FF"/>
<path d="M128.287 717.875C126.447 721.061 127.537 725.135 130.721 726.973C133.904 728.811 137.977 727.718 139.817 724.531C141.657 721.345 140.567 717.271 137.383 715.433C134.199 713.595 130.127 714.688 128.287 717.875Z" fill="#0074FF"/>
<path d="M197.483 612.782L197.484 609.829L134.075 609.853L134.074 612.806L197.483 612.782Z" fill="#0074FF"/>
<path d="M197.495 604.659C201.153 604.666 204.154 607.632 204.144 611.292C204.134 614.951 201.167 617.956 197.509 617.948C193.851 617.941 190.85 614.975 190.86 611.316C190.87 607.656 193.837 604.652 197.495 604.659Z" fill="#0074FF"/>
<path d="M230.513 665.47L198.848 610.533L196.29 612.01L227.955 666.946L230.513 665.47Z" fill="#0074FF"/>
<path d="M234.938 662.891C236.773 666.056 235.682 670.143 232.491 671.966C229.327 673.804 225.242 672.716 223.422 669.524C221.587 666.36 222.678 662.272 225.87 660.45C229.034 658.612 233.119 659.7 234.954 662.864L234.938 662.891Z" fill="#0074FF"/>
<path d="M198.733 721.895L230.458 666.946L227.902 665.47L196.177 720.42L198.733 721.895Z" fill="#0074FF"/>
<path d="M203.22 724.486C201.381 727.67 197.305 728.764 194.124 726.927C190.942 725.091 189.852 721.014 191.69 717.829C193.529 714.645 197.605 713.551 200.786 715.388C203.968 717.224 205.058 721.302 203.22 724.486Z" fill="#0074FF"/>
<path d="M197.48 722.674L197.481 719.72L134.072 719.744L134.071 722.698L197.48 722.674Z" fill="#0074FF"/>
<path d="M134.032 727.832C130.374 727.825 127.373 724.859 127.383 721.199C127.393 717.54 130.36 714.535 134.018 714.543C137.676 714.55 140.676 717.516 140.667 721.175C140.657 724.835 137.689 727.839 134.032 727.832Z" fill="#0074FF"/>
<path d="M135.335 720.465L103.67 665.528L101.112 667.005L132.777 721.942L135.335 720.465Z" fill="#0074FF"/>
<path d="M96.5888 669.6C94.7537 666.435 95.8447 662.348 99.0361 660.525C102.2 658.687 106.285 659.775 108.105 662.967C109.924 666.158 108.849 670.218 105.657 672.041C102.493 673.879 98.4082 672.791 96.5888 669.6Z" fill="#0074FF"/>
<path d="M292.623 557.787L292.624 554.834L229.215 554.857L229.214 557.811L292.623 557.787Z" fill="#0074FF"/>
<path d="M292.624 549.664C296.282 549.671 299.282 552.637 299.273 556.297C299.263 559.956 296.295 562.96 292.638 562.953C288.98 562.946 285.979 559.98 285.989 556.32C285.999 552.661 288.966 549.657 292.624 549.664Z" fill="#0074FF"/>
<path d="M325.523 610.536L293.859 555.599L291.301 557.076L322.965 612.013L325.523 610.536Z" fill="#0074FF"/>
<path d="M330.051 607.923C331.886 611.088 330.795 615.175 327.603 616.998C324.439 618.836 320.354 617.748 318.535 614.556C316.7 611.392 317.791 607.304 320.982 605.482C324.146 603.644 328.231 604.732 330.051 607.923Z" fill="#0074FF"/>
<path d="M293.873 666.943L325.598 611.993L323.042 610.518L291.317 665.467L293.873 666.943Z" fill="#0074FF"/>
<path d="M286.83 662.877C284.99 666.064 286.08 670.137 289.264 671.975C292.447 673.813 296.52 672.72 298.36 669.534C300.199 666.347 299.11 662.274 295.926 660.435C292.742 658.597 288.67 659.69 286.83 662.877Z" fill="#0074FF"/>
<path d="M292.57 667.663L292.571 664.709L229.162 664.733L229.161 667.686L292.57 667.663Z" fill="#0074FF"/>
<path d="M229.171 672.88C225.514 672.873 222.513 669.906 222.523 666.247C222.533 662.587 225.5 659.583 229.158 659.59C232.815 659.597 235.816 662.564 235.791 666.25C235.781 669.91 232.813 672.914 229.156 672.907L229.171 672.88Z" fill="#0074FF"/>
<path d="M230.513 665.47L198.848 610.533L196.29 612.01L227.955 666.946L230.513 665.47Z" fill="#0074FF"/>
<path d="M191.744 614.62C189.909 611.456 191 607.368 194.192 605.546C197.356 603.707 201.441 604.796 203.26 607.987C205.095 611.151 204.004 615.239 200.813 617.062C197.649 618.9 193.564 617.811 191.744 614.62Z" fill="#0074FF"/>
<path d="M198.753 612.026L230.478 557.076L227.922 555.6L196.197 610.55L198.753 612.026Z" fill="#0074FF"/>
<path d="M223.463 553.026C221.623 556.212 222.712 560.286 225.896 562.124C229.08 563.962 233.153 562.869 234.992 559.682C236.832 556.496 235.743 552.422 232.559 550.584C229.375 548.746 225.302 549.839 223.463 553.026Z" fill="#0074FF"/>
<path d="M292.681 447.927L292.682 444.974L229.273 444.998L229.272 447.951L292.681 447.927Z" fill="#0074FF"/>
<path d="M292.671 439.81C296.329 439.817 299.33 442.783 299.32 446.443C299.31 450.102 296.343 453.106 292.685 453.099C289.027 453.092 286.026 450.126 286.036 446.466C286.046 442.807 289.013 439.803 292.671 439.81Z" fill="#0074FF"/>
<path d="M325.564 500.616L293.909 445.673L291.351 447.149L323.006 502.092L325.564 500.616Z" fill="#0074FF"/>
<path d="M330.114 498.042C331.949 501.207 330.858 505.294 327.667 507.117C324.502 508.955 320.417 507.867 318.598 504.675C316.763 501.511 317.854 497.423 321.045 495.601C324.209 493.763 328.294 494.851 330.114 498.042Z" fill="#0074FF"/>
<path d="M293.909 557.046L325.634 502.097L323.078 500.621L291.353 555.571L293.909 557.046Z" fill="#0074FF"/>
<path d="M286.866 552.98C285.026 556.167 286.116 560.24 289.299 562.078C292.483 563.916 296.556 562.823 298.395 559.637C300.235 556.45 299.146 552.377 295.962 550.539C292.778 548.7 288.706 549.794 286.866 552.98Z" fill="#0074FF"/>
<path d="M292.623 557.787L292.624 554.834L229.215 554.857L229.214 557.811L292.623 557.787Z" fill="#0074FF"/>
<path d="M229.207 562.983C225.549 562.976 222.549 560.01 222.559 556.35C222.568 552.691 225.536 549.686 229.194 549.694C232.851 549.701 235.852 552.667 235.842 556.326C235.832 559.986 232.865 562.99 229.207 562.983Z" fill="#0074FF"/>
<path d="M230.444 555.638L198.78 500.701L196.222 502.178L227.887 557.115L230.444 555.638Z" fill="#0074FF"/>
<path d="M191.764 504.75C189.929 501.586 191.02 497.499 194.212 495.676C197.376 493.838 201.461 494.926 203.28 498.118C205.115 501.282 204.024 505.369 200.833 507.192C197.669 509.03 193.584 507.942 191.764 504.75Z" fill="#0074FF"/>
<path d="M198.816 502.145L230.541 447.195L227.985 445.719L196.26 500.669L198.816 502.145Z" fill="#0074FF"/>
<path d="M223.499 443.129C225.337 439.944 229.413 438.85 232.595 440.687C235.776 442.524 236.867 446.601 235.028 449.785C233.19 452.97 229.114 454.064 225.932 452.227C222.751 450.39 221.66 446.313 223.499 443.129Z" fill="#0074FF"/>
<path d="M387.805 392.959L387.806 390.005L324.397 390.029L324.396 392.983L387.805 392.959Z" fill="#0074FF"/>
<path d="M387.8 384.815C391.457 384.822 394.458 387.788 394.448 391.448C394.438 395.107 391.471 398.111 387.813 398.104C384.155 398.097 381.155 395.131 381.165 391.471C381.174 387.812 384.142 384.808 387.8 384.815Z" fill="#0074FF"/>
<path d="M420.762 445.675L389.097 390.738L386.539 392.215L418.204 447.152L420.762 445.675Z" fill="#0074FF"/>
<path d="M425.242 443.047C427.077 446.211 425.986 450.299 422.795 452.122C419.631 453.96 415.546 452.871 413.726 449.68C411.891 446.516 412.982 442.428 416.174 440.606C419.338 438.767 423.423 439.856 425.242 443.047Z" fill="#0074FF"/>
<path d="M389.048 502.094L420.774 447.144L418.218 445.669L386.492 500.618L389.048 502.094Z" fill="#0074FF"/>
<path d="M393.508 504.669C391.67 507.853 387.594 508.947 384.412 507.11C381.23 505.274 380.14 501.197 381.978 498.012C383.817 494.828 387.893 493.734 391.074 495.571C394.256 497.408 395.347 501.485 393.508 504.669Z" fill="#0074FF"/>
<path d="M387.751 502.835L387.753 499.881L324.344 499.905L324.342 502.858L387.751 502.835Z" fill="#0074FF"/>
<path d="M324.347 508.031C320.689 508.024 317.688 505.057 317.698 501.398C317.708 497.738 320.675 494.734 324.333 494.741C327.991 494.748 330.992 497.715 330.982 501.374C330.972 505.034 328.005 508.038 324.347 508.031Z" fill="#0074FF"/>
<path d="M325.564 500.616L293.909 445.673L291.351 447.149L323.006 502.092L325.564 500.616Z" fill="#0074FF"/>
<path d="M286.92 449.771C285.085 446.607 286.176 442.519 289.367 440.697C292.532 438.858 296.617 439.947 298.436 443.138C300.271 446.302 299.18 450.39 295.989 452.213C292.824 454.051 288.739 452.962 286.92 449.771Z" fill="#0074FF"/>
<path d="M293.929 447.177L325.654 392.227L323.098 390.751L291.373 445.701L293.929 447.177Z" fill="#0074FF"/>
<path d="M318.638 388.177C316.799 391.363 317.888 395.437 321.072 397.275C324.256 399.113 328.328 398.02 330.168 394.833C332.008 391.647 330.918 387.573 327.734 385.735C324.551 383.897 320.478 384.99 318.638 388.177Z" fill="#0074FF"/>
<path d="M387.835 283.084L387.836 280.13L324.427 280.154L324.426 283.107L387.835 283.084Z" fill="#0074FF"/>
<path d="M387.862 274.934C391.52 274.941 394.521 277.907 394.511 281.566C394.501 285.226 391.534 288.23 387.876 288.223C384.218 288.216 381.218 285.25 381.227 281.59C381.237 277.931 384.205 274.926 387.862 274.934Z" fill="#0074FF"/>
<path d="M420.745 335.761L389.09 280.818L386.532 282.295L418.187 337.237L420.745 335.761Z" fill="#0074FF"/>
<path d="M425.289 333.193C427.125 336.358 426.034 340.445 422.842 342.268C419.678 344.106 415.593 343.018 413.774 339.826C411.938 336.662 413.029 332.574 416.221 330.752C419.385 328.914 423.47 330.002 425.289 333.193Z" fill="#0074FF"/>
<path d="M389.084 392.197L420.81 337.248L418.253 335.772L386.528 390.722L389.084 392.197Z" fill="#0074FF"/>
<path d="M382.041 388.131C380.202 391.318 381.291 395.391 384.475 397.229C387.659 399.067 391.731 397.974 393.571 394.788C395.411 391.601 394.321 387.528 391.138 385.69C387.954 383.851 383.881 384.944 382.041 388.131Z" fill="#0074FF"/>
<path d="M387.805 392.959L387.806 390.005L324.397 390.029L324.396 392.983L387.805 392.959Z" fill="#0074FF"/>
<path d="M324.383 398.134C320.725 398.127 317.724 395.161 317.734 391.501C317.744 387.842 320.711 384.837 324.369 384.845C328.027 384.852 331.028 387.818 331.018 391.477C331.008 395.137 328.041 398.141 324.383 398.134Z" fill="#0074FF"/>
<path d="M325.683 390.777L294.018 335.84L291.461 337.317L323.125 392.254L325.683 390.777Z" fill="#0074FF"/>
<path d="M286.94 339.901C285.105 336.737 286.196 332.65 289.387 330.827C292.552 328.989 296.637 330.077 298.456 333.269C300.275 336.46 299.2 340.52 296.009 342.343C292.844 344.181 288.759 343.093 286.94 339.901Z" fill="#0074FF"/>
<path d="M293.992 337.296L325.717 282.346L323.161 280.87L291.436 335.82L293.992 337.296Z" fill="#0074FF"/>
<path d="M318.674 278.28C320.513 275.095 324.589 274.001 327.77 275.838C330.952 277.675 332.042 281.752 330.204 284.936C328.365 288.121 324.289 289.215 321.108 287.378C317.926 285.541 316.836 281.464 318.674 278.28Z" fill="#0074FF"/>
<path d="M482.975 228.088L482.976 225.135L419.567 225.158L419.566 228.112L482.975 228.088Z" fill="#0074FF"/>
<path d="M482.975 219.966C486.633 219.973 489.634 222.939 489.624 226.599C489.614 230.258 486.647 233.262 482.989 233.255C479.331 233.248 476.33 230.282 476.34 226.622C476.35 222.963 479.317 219.958 482.975 219.966Z" fill="#0074FF"/>
<path d="M515.957 280.826L484.292 225.889L481.735 227.366L513.399 282.302L515.957 280.826Z" fill="#0074FF"/>
<path d="M520.418 278.198C522.253 281.362 521.162 285.45 517.97 287.272C514.806 289.111 510.721 288.022 508.902 284.831C507.067 281.667 508.158 277.579 511.349 275.757C514.513 273.918 518.598 275.007 520.418 278.198Z" fill="#0074FF"/>
<path d="M484.224 337.245L515.949 282.295L513.393 280.82L481.668 335.769L484.224 337.245Z" fill="#0074FF"/>
<path d="M477.181 333.179C475.341 336.365 476.431 340.439 479.615 342.277C482.799 344.115 486.871 343.022 488.711 339.836C490.551 336.649 489.461 332.576 486.277 330.737C483.093 328.899 479.021 329.992 477.181 333.179Z" fill="#0074FF"/>
<path d="M482.949 337.979L482.95 335.026L419.541 335.05L419.54 338.003L482.949 337.979Z" fill="#0074FF"/>
<path d="M419.523 343.182C415.865 343.175 412.864 340.208 412.874 336.549C412.884 332.889 415.851 329.885 419.509 329.892C423.167 329.899 426.167 332.866 426.158 336.525C426.148 340.185 423.18 343.189 419.523 343.182Z" fill="#0074FF"/>
<path d="M420.745 335.761L389.09 280.818L386.532 282.295L418.187 337.237L420.745 335.761Z" fill="#0074FF"/>
<path d="M382.096 284.922C380.261 281.758 381.352 277.67 384.543 275.848C387.707 274.009 391.792 275.098 393.612 278.289C395.447 281.453 394.356 285.541 391.164 287.363C388 289.202 383.915 288.113 382.096 284.922Z" fill="#0074FF"/>
<path d="M389.104 282.328L420.83 227.378L418.274 225.902L386.548 280.852L389.104 282.328Z" fill="#0074FF"/>
<path d="M413.814 223.327C411.974 226.514 413.064 230.587 416.248 232.426C419.431 234.264 423.504 233.171 425.344 229.984C427.183 226.798 426.094 222.724 422.91 220.886C419.726 219.048 415.654 220.141 413.814 223.327Z" fill="#0074FF"/>
<path d="M483.032 118.228L483.034 115.275L419.625 115.299L419.623 118.252L483.032 118.228Z" fill="#0074FF"/>
<path d="M483.038 110.084C486.696 110.092 489.697 113.058 489.687 116.717C489.677 120.377 486.71 123.381 483.052 123.374C479.394 123.367 476.393 120.401 476.403 116.741C476.413 113.082 479.38 110.077 483.038 110.084Z" fill="#0074FF"/>
<path d="M516.014 170.944L484.349 116.007L481.791 117.484L513.456 172.421L516.014 170.944Z" fill="#0074FF"/>
<path d="M520.465 168.344C522.3 171.508 521.209 175.596 518.018 177.419C514.854 179.257 510.769 178.169 508.949 174.977C507.114 171.813 508.205 167.725 511.397 165.903C514.561 164.064 518.646 165.153 520.465 168.344Z" fill="#0074FF"/>
<path d="M484.26 227.348L515.985 172.399L513.429 170.923L481.704 225.872L484.26 227.348Z" fill="#0074FF"/>
<path d="M477.217 223.282C475.377 226.469 476.467 230.542 479.651 232.38C482.835 234.218 486.907 233.125 488.747 229.939C490.587 226.752 489.497 222.679 486.313 220.841C483.129 219.002 479.057 220.095 477.217 223.282Z" fill="#0074FF"/>
<path d="M482.975 228.088L482.976 225.135L419.567 225.158L419.566 228.112L482.975 228.088Z" fill="#0074FF"/>
<path d="M419.558 233.285C415.901 233.278 412.9 230.311 412.91 226.652C412.92 222.993 415.887 219.988 419.545 219.995C423.203 220.003 426.203 222.969 426.193 226.628C426.184 230.288 423.216 233.292 419.558 233.285Z" fill="#0074FF"/>
<path d="M420.836 225.939L389.171 171.002L386.613 172.479L418.278 227.416L420.836 225.939Z" fill="#0074FF"/>
<path d="M382.116 175.052C380.281 171.888 381.372 167.801 384.563 165.978C387.727 164.14 391.812 165.228 393.632 168.42C395.467 171.584 394.376 175.671 391.184 177.494C388.02 179.332 383.935 178.244 382.116 175.052Z" fill="#0074FF"/>
<path d="M389.168 172.447L420.893 117.497L418.337 116.021L386.611 170.971L389.168 172.447Z" fill="#0074FF"/>
<path d="M413.85 113.431C415.688 110.246 419.764 109.152 422.946 110.989C426.127 112.826 427.218 116.903 425.38 120.087C423.541 123.272 419.465 124.366 416.283 122.529C413.102 120.692 412.011 116.615 413.85 113.431Z" fill="#0074FF"/>
<path d="M516.014 170.944L484.349 116.007L481.791 117.484L513.456 172.421L516.014 170.944Z" fill="#0074FF"/>
<path d="M477.271 120.073C475.436 116.909 476.527 112.821 479.719 110.998C482.883 109.16 486.968 110.249 488.787 113.44C490.622 116.604 489.531 120.692 486.34 122.514C483.176 124.353 479.091 123.264 477.271 120.073Z" fill="#0074FF"/>
<path d="M484.28 117.479L516.005 62.5289L513.449 61.0532L481.724 116.003L484.28 117.479Z" fill="#0074FF"/>
<path d="M508.99 58.4784C507.15 61.665 508.239 65.7384 511.423 67.5766C514.607 69.4148 518.679 68.3217 520.519 65.1351C522.359 61.9484 521.269 57.8751 518.086 56.0369C514.902 54.1987 510.829 55.2918 508.99 58.4784Z" fill="#0074FF"/>
<path d="M40.1391 885.314L8.47448 830.378L5.91679 831.854L37.5814 886.791L40.1391 885.314Z" fill="#0074FF"/>
<path d="M44.6069 882.72C46.4419 885.884 45.351 889.972 42.1596 891.794C38.9953 893.633 34.9103 892.544 33.0909 889.353C31.2558 886.189 32.3469 882.101 35.5383 880.278C38.7025 878.44 42.7875 879.529 44.6069 882.72Z" fill="#0074FF"/>
<path d="M8.40181 941.724L40.1271 886.774L37.571 885.298L5.8457 940.248L8.40181 941.724Z" fill="#0074FF"/>
<path d="M1.38612 937.673C-0.45363 940.86 0.635917 944.933 3.81974 946.771C7.00356 948.61 11.076 947.517 12.9158 944.33C14.7556 941.143 13.666 937.07 10.4822 935.232C7.29836 933.394 3.2259 934.487 1.38612 937.673Z" fill="#0074FF"/>
<path d="M135.335 720.465L103.67 665.528L101.112 667.005L132.777 721.942L135.335 720.465Z" fill="#0074FF"/>
<path d="M139.783 717.871C141.618 721.035 140.527 725.123 137.335 726.945C134.171 728.783 130.086 727.695 128.267 724.504C126.432 721.339 127.523 717.252 130.714 715.429C133.878 713.591 137.963 714.679 139.783 717.871Z" fill="#0074FF"/>
<path d="M103.578 776.875L135.303 721.925L132.747 720.449L101.021 775.399L103.578 776.875Z" fill="#0074FF"/>
<path d="M108.064 779.465C106.226 782.649 102.15 783.744 98.9682 781.907C95.7867 780.07 94.6962 775.993 96.5346 772.809C98.3731 769.624 102.449 768.53 105.631 770.367C108.812 772.204 109.903 776.281 108.064 779.465Z" fill="#0074FF"/>
<path d="M102.302 777.611L102.303 774.657L38.8936 774.681L38.8925 777.635L102.302 777.611Z" fill="#0074FF"/>
<path d="M38.9032 782.827C35.2454 782.82 32.2446 779.854 32.2545 776.194C32.2644 772.535 35.2317 769.531 38.8895 769.538C42.5473 769.545 45.5481 772.511 45.5382 776.171C45.5284 779.83 42.561 782.834 38.9032 782.827Z" fill="#0074FF"/>
<path d="M197.509 502.891L197.51 499.938L134.101 499.962L134.1 502.915L197.509 502.891Z" fill="#0074FF"/>
<path d="M197.531 494.762C201.189 494.769 204.19 497.735 204.18 501.395C204.17 505.054 201.203 508.059 197.545 508.051C193.887 508.044 190.886 505.078 190.896 501.419C190.906 497.759 193.873 494.755 197.531 494.762Z" fill="#0074FF"/>
<path d="M230.444 555.638L198.78 500.701L196.222 502.178L227.887 557.115L230.444 555.638Z" fill="#0074FF"/>
<path d="M234.958 553.022C236.793 556.186 235.702 560.274 232.511 562.096C229.347 563.934 225.262 562.846 223.442 559.655C221.607 556.49 222.698 552.403 225.89 550.58C229.054 548.742 233.139 549.83 234.958 553.022Z" fill="#0074FF"/>
<path d="M198.753 612.026L230.478 557.076L227.922 555.6L196.197 610.55L198.753 612.026Z" fill="#0074FF"/>
<path d="M191.737 607.975C189.898 611.162 190.987 615.235 194.171 617.073C197.355 618.912 201.427 617.818 203.267 614.632C205.107 611.445 204.017 607.372 200.834 605.534C197.65 603.695 193.577 604.789 191.737 607.975Z" fill="#0074FF"/>
<path d="M197.483 612.782L197.484 609.829L134.075 609.853L134.074 612.806L197.483 612.782Z" fill="#0074FF"/>
<path d="M134.079 617.978C130.421 617.971 127.42 615.005 127.43 611.345C127.44 607.686 130.407 604.681 134.065 604.689C137.723 604.696 140.724 607.662 140.698 611.349C140.688 615.008 137.721 618.012 134.063 618.005L134.079 617.978Z" fill="#0074FF"/>
<path d="M230.46 445.728L198.805 390.786L196.247 392.262L227.902 447.204L230.46 445.728Z" fill="#0074FF"/>
<path d="M235.021 443.141C236.856 446.305 235.765 450.393 232.574 452.215C229.41 454.053 225.325 452.965 223.505 449.774C221.67 446.609 222.761 442.522 225.953 440.699C229.144 438.877 233.202 439.949 235.021 443.141Z" fill="#0074FF"/>
<path d="M198.816 502.145L230.541 447.195L227.985 445.719L196.26 500.669L198.816 502.145Z" fill="#0074FF"/>
<path d="M203.303 504.735C201.464 507.919 197.388 509.013 194.207 507.177C191.025 505.34 189.935 501.263 191.773 498.078C193.612 494.894 197.688 493.8 200.869 495.637C204.051 497.474 205.141 501.551 203.303 504.735Z" fill="#0074FF"/>
<path d="M197.509 502.891L197.51 499.938L134.101 499.962L134.1 502.915L197.509 502.891Z" fill="#0074FF"/>
<path d="M134.115 508.081C130.457 508.074 127.456 505.108 127.466 501.448C127.476 497.789 130.443 494.785 134.101 494.792C137.759 494.799 140.76 497.765 140.75 501.425C140.74 505.084 137.773 508.088 134.115 508.081Z" fill="#0074FF"/>
<path d="M292.707 338.036L292.708 335.082L229.299 335.106L229.298 338.06L292.707 338.036Z" fill="#0074FF"/>
<path d="M292.707 329.913C296.365 329.92 299.366 332.886 299.356 336.546C299.346 340.205 296.378 343.21 292.721 343.202C289.063 343.195 286.062 340.229 286.072 336.57C286.082 332.91 289.049 329.906 292.707 329.913Z" fill="#0074FF"/>
<path d="M325.683 390.777L294.018 335.84L291.461 337.317L323.125 392.254L325.683 390.777Z" fill="#0074FF"/>
<path d="M330.15 388.146C331.985 391.31 330.894 395.397 327.702 397.22C324.538 399.058 320.453 397.97 318.634 394.778C316.799 391.614 317.89 387.527 321.081 385.704C324.245 383.866 328.33 384.954 330.15 388.146Z" fill="#0074FF"/>
<path d="M293.929 447.177L325.654 392.227L323.098 390.751L291.373 445.701L293.929 447.177Z" fill="#0074FF"/>
<path d="M298.415 449.767C296.577 452.952 292.501 454.046 289.319 452.209C286.138 450.372 285.047 446.295 286.886 443.111C288.724 439.926 292.8 438.832 295.982 440.669C299.163 442.506 300.254 446.583 298.415 449.767Z" fill="#0074FF"/>
<path d="M292.681 447.927L292.682 444.974L229.273 444.998L229.272 447.951L292.681 447.927Z" fill="#0074FF"/>
<path d="M229.254 453.129C225.597 453.122 222.596 450.156 222.606 446.496C222.616 442.837 225.583 439.832 229.241 439.84C232.899 439.847 235.899 442.813 235.889 446.472C235.88 450.132 232.912 453.136 229.254 453.129Z" fill="#0074FF"/>
<path d="M230.46 445.728L198.805 390.786L196.247 392.262L227.902 447.204L230.46 445.728Z" fill="#0074FF"/>
<path d="M191.828 394.869C189.992 391.705 191.083 387.618 194.275 385.795C197.439 383.957 201.524 385.045 203.343 388.237C205.179 391.401 204.088 395.488 200.896 397.311C197.732 399.149 193.647 398.061 191.828 394.869Z" fill="#0074FF"/>
<path d="M198.836 392.275L230.561 337.325L228.005 335.85L196.28 390.799L198.836 392.275Z" fill="#0074FF"/>
<path d="M223.519 333.259C221.679 336.446 222.768 340.519 225.952 342.357C229.136 344.195 233.209 343.102 235.048 339.916C236.888 336.729 235.799 332.656 232.615 330.818C229.431 328.979 225.358 330.073 223.519 333.259Z" fill="#0074FF"/>
<path d="M292.764 228.176L292.765 225.223L229.356 225.247L229.355 228.2L292.764 228.176Z" fill="#0074FF"/>
<path d="M292.77 220.032C296.428 220.039 299.429 223.005 299.419 226.665C299.409 230.324 296.442 233.328 292.756 233.306C289.099 233.299 286.098 230.332 286.108 226.673C286.118 223.013 289.085 220.009 292.743 220.016L292.77 220.032Z" fill="#0074FF"/>
<path d="M325.641 280.874L293.986 225.931L291.428 227.408L323.083 282.35L325.641 280.874Z" fill="#0074FF"/>
<path d="M330.197 278.292C332.032 281.456 330.941 285.544 327.75 287.366C324.585 289.204 320.5 288.116 318.681 284.925C316.846 281.76 317.937 277.673 321.128 275.85C324.293 274.012 328.378 275.1 330.197 278.292Z" fill="#0074FF"/>
<path d="M293.992 337.296L325.717 282.346L323.161 280.87L291.436 335.82L293.992 337.296Z" fill="#0074FF"/>
<path d="M298.479 339.886C296.64 343.07 292.564 344.164 289.383 342.328C286.201 340.491 285.11 336.414 286.949 333.229C288.787 330.045 292.863 328.951 296.045 330.788C299.227 332.625 300.317 336.702 298.479 339.886Z" fill="#0074FF"/>
<path d="M292.707 338.036L292.708 335.082L229.299 335.106L229.298 338.06L292.707 338.036Z" fill="#0074FF"/>
<path d="M229.29 343.232C225.632 343.225 222.632 340.259 222.642 336.599C222.651 332.94 225.619 329.936 229.277 329.943C232.934 329.95 235.935 332.916 235.925 336.576C235.915 340.235 232.948 343.239 229.29 343.232Z" fill="#0074FF"/>
<path d="M230.577 335.864L198.913 280.927L196.355 282.404L228.019 337.34L230.577 335.864Z" fill="#0074FF"/>
<path d="M191.848 285C190.013 281.835 191.104 277.748 194.268 275.91C197.432 274.071 201.517 275.16 203.336 278.351C205.171 281.515 204.08 285.603 200.889 287.426C197.725 289.264 193.64 288.175 191.82 284.984L191.848 285Z" fill="#0074FF"/>
<path d="M198.899 282.394L230.625 227.444L228.068 225.968L196.343 280.918L198.899 282.394Z" fill="#0074FF"/>
<path d="M223.582 223.378C221.742 226.565 222.831 230.638 226.015 232.476C229.199 234.314 233.272 233.221 235.111 230.035C236.951 226.848 235.862 222.775 232.678 220.937C229.494 219.098 225.421 220.191 223.582 223.378Z" fill="#0074FF"/>
<path d="M387.861 173.192L387.862 170.239L324.453 170.263L324.452 173.216L387.861 173.192Z" fill="#0074FF"/>
<path d="M387.883 165.064C391.54 165.071 394.541 168.037 394.531 171.697C394.521 175.356 391.554 178.361 387.896 178.353C384.238 178.346 381.238 175.38 381.248 171.721C381.257 168.061 384.225 165.057 387.883 165.064Z" fill="#0074FF"/>
<path d="M420.836 225.939L389.171 171.002L386.613 172.479L418.278 227.416L420.836 225.939Z" fill="#0074FF"/>
<path d="M425.325 223.297C427.16 226.461 426.069 230.548 422.878 232.371C419.714 234.209 415.629 233.121 413.809 229.929C411.974 226.765 413.065 222.678 416.257 220.855C419.421 219.017 423.506 220.105 425.325 223.297Z" fill="#0074FF"/>
<path d="M389.104 282.328L420.83 227.378L418.274 225.902L386.548 280.852L389.104 282.328Z" fill="#0074FF"/>
<path d="M382.089 278.277C380.249 281.464 381.338 285.537 384.522 287.375C387.706 289.213 391.779 288.12 393.618 284.934C395.458 281.747 394.369 277.674 391.185 275.836C388.001 273.997 383.929 275.091 382.089 278.277Z" fill="#0074FF"/>
<path d="M387.835 283.084L387.836 280.13L324.427 280.154L324.426 283.107L387.835 283.084Z" fill="#0074FF"/>
<path d="M324.43 288.28C320.772 288.273 317.771 285.307 317.781 281.647C317.791 277.988 320.759 274.983 324.416 274.991C328.074 274.998 331.075 277.964 331.065 281.623C331.055 285.283 328.088 288.287 324.43 288.28Z" fill="#0074FF"/>
<path d="M325.641 280.874L293.986 225.931L291.428 227.408L323.083 282.35L325.641 280.874Z" fill="#0074FF"/>
<path d="M287.003 230.02C285.168 226.856 286.259 222.768 289.45 220.946C292.615 219.108 296.7 220.196 298.519 223.387C300.354 226.552 299.263 230.639 296.072 232.462C292.907 234.3 288.822 233.212 287.003 230.02Z" fill="#0074FF"/>
<path d="M294.012 227.426L325.737 172.476L323.181 171.001L291.456 225.95L294.012 227.426Z" fill="#0074FF"/>
<path d="M318.694 168.41C316.854 171.597 317.944 175.67 321.128 177.508C324.312 179.346 328.384 178.253 330.224 175.067C332.064 171.88 330.974 167.807 327.79 165.969C324.606 164.13 320.534 165.223 318.694 168.41Z" fill="#0074FF"/>
<path d="M387.946 63.3481L387.947 60.3947L324.538 60.4186L324.537 63.3721L387.946 63.3481Z" fill="#0074FF"/>
<path d="M387.946 55.1828C391.603 55.1899 394.604 58.1562 394.594 61.8157C394.584 65.4751 391.617 68.4794 387.932 68.4566C384.274 68.4495 381.274 65.4832 381.283 61.8238C381.293 58.1643 384.261 55.16 387.918 55.1671L387.946 55.1828Z" fill="#0074FF"/>
<path d="M420.908 116.03L389.243 61.0935L386.685 62.5703L418.35 117.507L420.908 116.03Z" fill="#0074FF"/>
<path d="M425.373 113.443C427.208 116.607 426.117 120.694 422.925 122.517C419.761 124.355 415.676 123.267 413.857 120.075C412.022 116.911 413.113 112.824 416.304 111.001C419.495 109.179 423.553 110.251 425.373 113.443Z" fill="#0074FF"/>
<path d="M389.168 172.447L420.893 117.497L418.337 116.021L386.611 170.971L389.168 172.447Z" fill="#0074FF"/>
<path d="M393.654 175.037C391.816 178.221 387.74 179.315 384.558 177.479C381.377 175.642 380.286 171.565 382.125 168.38C383.963 165.196 388.039 164.102 391.221 165.939C394.402 167.776 395.493 171.853 393.654 175.037Z" fill="#0074FF"/>
<path d="M387.861 173.192L387.862 170.239L324.453 170.263L324.452 173.216L387.861 173.192Z" fill="#0074FF"/>
<path d="M324.466 178.383C320.808 178.376 317.807 175.41 317.817 171.75C317.827 168.091 320.794 165.087 324.452 165.094C328.11 165.101 331.111 168.067 331.101 171.727C331.091 175.386 328.124 178.39 324.466 178.383Z" fill="#0074FF"/>
<path d="M325.741 171.014L294.077 116.077L291.519 117.554L323.184 172.491L325.741 171.014Z" fill="#0074FF"/>
<path d="M287.023 120.151C285.188 116.986 286.279 112.899 289.443 111.061C292.608 109.222 296.693 110.311 298.512 113.502C300.347 116.666 299.256 120.754 296.065 122.576C292.9 124.415 288.815 123.326 286.996 120.135L287.023 120.151Z" fill="#0074FF"/>
<path d="M294.075 117.545L325.8 62.5952L323.244 61.1194L291.519 116.069L294.075 117.545Z" fill="#0074FF"/>
<path d="M318.757 58.529C320.596 55.3447 324.672 54.2506 327.853 56.0874C331.035 57.9243 332.125 62.0013 330.287 65.1856C328.449 68.3699 324.372 69.464 321.191 67.6271C318.009 65.7903 316.919 61.7133 318.757 58.529Z" fill="#0074FF"/>
<path d="M484.28 117.479L516.005 62.5289L513.449 61.0532L481.724 116.003L484.28 117.479Z" fill="#0074FF"/>
<path d="M488.767 120.069C486.928 123.253 482.852 124.347 479.671 122.511C476.489 120.674 475.399 116.597 477.237 113.412C479.076 110.228 483.152 109.134 486.333 110.971C489.515 112.808 490.605 116.885 488.767 120.069Z" fill="#0074FF"/>
<path d="M483.032 118.228L483.034 115.275L419.625 115.299L419.623 118.252L483.032 118.228Z" fill="#0074FF"/>
<path d="M419.606 123.431C415.948 123.424 412.947 120.458 412.957 116.798C412.967 113.139 415.934 110.134 419.592 110.141C423.25 110.149 426.251 113.115 426.241 116.774C426.231 120.434 423.264 123.438 419.606 123.431Z" fill="#0074FF"/>
<path d="M420.908 116.03L389.243 61.0935L386.685 62.5703L418.35 117.507L420.908 116.03Z" fill="#0074FF"/>
<path d="M382.179 65.1712C380.344 62.007 381.435 57.9194 384.626 56.0968C387.79 54.2585 391.875 55.3469 393.695 58.5383C395.53 61.7025 394.439 65.7901 391.247 67.6127C388.083 69.4509 383.998 68.3626 382.179 65.1712Z" fill="#0074FF"/>
<path d="M389.188 62.5769L420.913 7.62723L418.357 6.15146L386.631 61.1012L389.188 62.5769Z" fill="#0074FF"/>
<path d="M413.87 3.56102C412.03 6.74763 413.12 10.821 416.304 12.6592C419.487 14.4974 423.56 13.4043 425.4 10.2177C427.239 7.0311 426.15 2.9577 422.966 1.11951C419.782 -0.718673 415.71 0.374422 413.87 3.56102Z" fill="#0074FF"/>
<path d="M197.593 283.14L197.594 280.187L134.185 280.211L134.184 283.164L197.593 283.14Z" fill="#0074FF"/>
<path d="M197.615 275.011C201.272 275.018 204.273 277.985 204.263 281.644C204.253 285.304 201.286 288.308 197.628 288.301C193.97 288.294 190.97 285.327 190.98 281.668C190.989 278.008 193.957 275.004 197.615 275.011Z" fill="#0074FF"/>
<path d="M230.577 335.864L198.913 280.927L196.355 282.404L228.019 337.34L230.577 335.864Z" fill="#0074FF"/>
<path d="M235.057 333.244C236.892 336.408 235.801 340.496 232.637 342.334C229.473 344.172 225.388 343.084 223.568 339.892C221.733 336.728 222.824 332.641 226.016 330.818C229.18 328.98 233.265 330.068 235.084 333.26L235.057 333.244Z" fill="#0074FF"/>
<path d="M198.836 392.275L230.561 337.325L228.005 335.85L196.28 390.799L198.836 392.275Z" fill="#0074FF"/>
<path d="M203.323 394.866C201.485 398.05 197.409 399.144 194.227 397.307C191.045 395.47 189.955 391.393 191.793 388.209C193.632 385.025 197.708 383.93 200.889 385.767C204.071 387.604 205.162 391.681 203.323 394.866Z" fill="#0074FF"/>
<path d="M103.744 337.373L135.469 282.424L132.913 280.948L101.188 335.898L103.744 337.373Z" fill="#0074FF"/>
<path d="M128.453 278.373C130.292 275.189 134.368 274.095 137.549 275.932C140.731 277.768 141.821 281.845 139.983 285.03C138.145 288.214 134.068 289.308 130.887 287.471C127.705 285.634 126.615 281.557 128.453 278.373Z" fill="#0074FF"/>
<path d="M197.651 173.28L197.652 170.327L134.243 170.351L134.242 173.304L197.651 173.28Z" fill="#0074FF"/>
<path d="M197.677 165.13C201.335 165.137 204.336 168.104 204.326 171.763C204.316 175.422 201.349 178.427 197.691 178.42C194.033 178.413 191.033 175.446 191.042 171.787C191.052 168.127 194.02 165.123 197.677 165.13Z" fill="#0074FF"/>
<path d="M230.634 225.982L198.969 171.045L196.411 172.522L228.076 227.459L230.634 225.982Z" fill="#0074FF"/>
<path d="M235.104 223.39C236.94 226.554 235.849 230.642 232.657 232.464C229.493 234.303 225.408 233.214 223.589 230.023C221.754 226.859 222.844 222.771 226.036 220.948C229.2 219.11 233.285 220.199 235.104 223.39Z" fill="#0074FF"/>
<path d="M198.899 282.394L230.625 227.444L228.068 225.968L196.343 280.918L198.899 282.394Z" fill="#0074FF"/>
<path d="M191.856 278.328C190.017 281.514 191.106 285.588 194.29 287.426C197.474 289.264 201.546 288.171 203.386 284.984C205.226 281.798 204.136 277.724 200.953 275.886C197.769 274.048 193.696 275.141 191.856 278.328Z" fill="#0074FF"/>
<path d="M197.593 283.14L197.594 280.187L134.185 280.211L134.184 283.164L197.593 283.14Z" fill="#0074FF"/>
<path d="M134.198 288.33C130.54 288.323 127.539 285.357 127.549 281.698C127.559 278.038 130.526 275.034 134.184 275.041C137.842 275.048 140.843 278.014 140.833 281.674C140.823 285.333 137.856 288.338 134.198 288.33Z" fill="#0074FF"/>
<path d="M135.399 280.942L103.744 226L101.186 227.477L132.841 282.419L135.399 280.942Z" fill="#0074FF"/>
<path d="M96.7551 230.098C94.92 226.934 96.011 222.846 99.2024 221.024C102.367 219.185 106.452 220.274 108.271 223.465C110.106 226.629 109.015 230.717 105.824 232.54C102.659 234.378 98.5745 233.289 96.7551 230.098Z" fill="#0074FF"/>
<path d="M103.807 227.492L135.532 172.543L132.976 171.067L101.251 226.017L103.807 227.492Z" fill="#0074FF"/>
<path d="M128.489 168.476C126.649 171.663 127.739 175.736 130.923 177.575C134.107 179.413 138.179 178.32 140.019 175.133C141.859 171.946 140.769 167.873 137.585 166.035C134.401 164.197 130.329 165.29 128.489 168.476Z" fill="#0074FF"/>
<path d="M292.79 118.285L292.792 115.332L229.383 115.355L229.381 118.309L292.79 118.285Z" fill="#0074FF"/>
<path d="M292.79 110.162C296.448 110.169 299.449 113.136 299.439 116.795C299.429 120.455 296.462 123.459 292.804 123.452C289.146 123.445 286.145 120.478 286.155 116.819C286.165 113.159 289.132 110.155 292.79 110.162Z" fill="#0074FF"/>
<path d="M325.741 171.014L294.077 116.077L291.519 117.554L323.184 172.491L325.741 171.014Z" fill="#0074FF"/>
<path d="M330.233 168.395C332.068 171.559 330.977 175.647 327.813 177.485C324.648 179.323 320.563 178.235 318.744 175.043C316.909 171.879 318 167.791 321.191 165.969C324.356 164.131 328.441 165.219 330.26 168.41L330.233 168.395Z" fill="#0074FF"/>
<path d="M294.012 227.426L325.737 172.476L323.181 171.001L291.456 225.95L294.012 227.426Z" fill="#0074FF"/>
<path d="M286.969 223.36C285.129 226.546 286.219 230.62 289.403 232.458C292.587 234.296 296.659 233.203 298.499 230.016C300.339 226.83 299.249 222.756 296.065 220.918C292.881 219.08 288.809 220.173 286.969 223.36Z" fill="#0074FF"/>
<path d="M292.764 228.176L292.765 225.223L229.356 225.247L229.355 228.2L292.764 228.176Z" fill="#0074FF"/>
<path d="M229.338 233.378C225.68 233.371 222.679 230.405 222.689 226.745C222.699 223.086 225.666 220.082 229.351 220.105C233.009 220.112 236.01 223.078 236 226.737C235.99 230.397 233.023 233.401 229.365 233.394L229.338 233.378Z" fill="#0074FF"/>
<path d="M230.634 225.982L198.969 171.045L196.411 172.522L228.076 227.459L230.634 225.982Z" fill="#0074FF"/>
<path d="M191.911 175.119C190.075 171.954 191.167 167.867 194.358 166.044C197.522 164.206 201.607 165.294 203.427 168.486C205.262 171.65 204.171 175.738 200.979 177.56C197.815 179.398 193.73 178.31 191.911 175.119Z" fill="#0074FF"/>
<path d="M198.919 172.524L230.645 117.575L228.089 116.099L196.363 171.048L198.919 172.524Z" fill="#0074FF"/>
<path d="M223.629 113.524C225.467 110.34 229.543 109.246 232.725 111.083C235.907 112.919 236.997 116.996 235.159 120.181C233.32 123.365 229.244 124.459 226.063 122.622C222.881 120.785 221.79 116.708 223.629 113.524Z" fill="#0074FF"/>
<path d="M325.775 61.101L294.11 6.1641L291.552 7.6409L323.217 62.5778L325.775 61.101Z" fill="#0074FF"/>
<path d="M330.28 58.541C332.115 61.7052 331.024 65.7928 327.833 67.6154C324.669 69.4536 320.584 68.3652 318.764 65.1738C316.929 62.0096 318.02 57.922 321.211 56.0994C324.376 54.2612 328.461 55.3495 330.28 58.541Z" fill="#0074FF"/>
<path d="M294.075 117.545L325.8 62.5952L323.244 61.1194L291.519 116.069L294.075 117.545Z" fill="#0074FF"/>
<path d="M287.032 113.479C285.192 116.665 286.282 120.739 289.466 122.577C292.65 124.415 296.722 123.322 298.562 120.135C300.402 116.949 299.312 112.875 296.128 111.037C292.944 109.199 288.872 110.292 287.032 113.479Z" fill="#0074FF"/>
<path d="M292.79 118.285L292.792 115.332L229.383 115.355L229.381 118.309L292.79 118.285Z" fill="#0074FF"/>
<path d="M229.373 123.481C225.716 123.474 222.715 120.508 222.725 116.849C222.735 113.189 225.702 110.185 229.36 110.192C233.017 110.199 236.018 113.165 236.008 116.825C235.999 120.484 233.031 123.489 229.373 123.481Z" fill="#0074FF"/>
<path d="M230.608 116.104L198.953 61.1612L196.395 62.6376L228.05 117.58L230.608 116.104Z" fill="#0074FF"/>
<path d="M191.931 65.249C190.096 62.0847 191.187 57.9971 194.378 56.1746C197.542 54.3363 201.627 55.4247 203.447 58.6161C205.282 61.7803 204.191 65.8679 200.999 67.6905C197.835 69.5288 193.75 68.4404 191.931 65.249Z" fill="#0074FF"/>
<path d="M389.188 62.5769L420.913 7.62723L418.357 6.15146L386.631 61.1012L389.188 62.5769Z" fill="#0074FF"/>
<path d="M393.674 65.1674C391.836 68.3517 387.76 69.4458 384.578 67.6089C381.397 65.7721 380.306 61.695 382.145 58.5107C383.983 55.3264 388.059 54.2324 391.241 56.0692C394.422 57.9061 395.513 61.9831 393.674 65.1674Z" fill="#0074FF"/>
<path d="M387.946 63.3481L387.947 60.3947L324.538 60.4186L324.537 63.3721L387.946 63.3481Z" fill="#0074FF"/>
<path d="M324.513 68.5292C320.856 68.5221 317.855 65.5558 317.865 61.8964C317.874 58.2369 320.842 55.2326 324.527 55.2554C328.185 55.2626 331.185 58.2289 331.176 61.8883C331.166 65.5477 328.198 68.552 324.541 68.5449L324.513 68.5292Z" fill="#0074FF"/>
<path d="M325.775 61.101L294.11 6.1641L291.552 7.6409L323.217 62.5778L325.775 61.101Z" fill="#0074FF"/>
<path d="M287.086 10.2695C285.251 7.10529 286.342 3.01771 289.534 1.19514C292.698 -0.643127 296.783 0.445248 298.602 3.63667C300.437 6.80088 299.346 10.8885 296.155 12.7111C292.991 14.5493 288.906 13.4609 287.086 10.2695Z" fill="#0074FF"/>
<path d="M102.522 228.233L102.523 225.279L39.1144 225.303L39.1133 228.257L102.522 228.233Z" fill="#0074FF"/>
<path d="M102.522 220.11C106.18 220.117 109.18 223.083 109.171 226.742C109.161 230.402 106.193 233.406 102.508 233.383C98.8506 233.376 95.8499 230.41 95.8598 226.75C95.8696 223.091 98.8369 220.087 102.495 220.094L102.522 220.11Z" fill="#0074FF"/>
<path d="M135.399 280.942L103.744 226L101.186 227.477L132.841 282.419L135.399 280.942Z" fill="#0074FF"/>
<path d="M139.965 278.342C141.8 281.506 140.709 285.594 137.517 287.417C134.353 289.255 130.268 288.166 128.449 284.975C126.614 281.811 127.705 277.723 130.896 275.901C134.06 274.062 138.145 275.151 139.965 278.342Z" fill="#0074FF"/>
<path d="M103.744 337.373L135.469 282.424L132.913 280.948L101.188 335.898L103.744 337.373Z" fill="#0074FF"/>
<path d="M108.231 339.964C106.392 343.148 102.316 344.242 99.1345 342.405C95.9529 340.569 94.8624 336.492 96.7009 333.307C98.5393 330.123 102.615 329.029 105.797 330.866C108.978 332.702 110.069 336.78 108.231 339.964Z" fill="#0074FF"/>
<path d="M135.528 171.068L103.863 116.131L101.306 117.608L132.97 172.545L135.528 171.068Z" fill="#0074FF"/>
<path d="M140.012 168.488C141.847 171.652 140.756 175.74 137.592 177.578C134.428 179.417 130.343 178.328 128.523 175.137C126.688 171.973 127.779 167.885 130.971 166.062C134.135 164.224 138.22 165.313 140.039 168.504L140.012 168.488Z" fill="#0074FF"/>
<path d="M103.807 227.492L135.532 172.543L132.976 171.067L101.251 226.017L103.807 227.492Z" fill="#0074FF"/>
<path d="M96.7639 223.426C94.9241 226.613 96.0137 230.686 99.1975 232.524C102.381 234.362 106.454 233.269 108.294 230.083C110.133 226.896 109.044 222.823 105.86 220.984C102.676 219.146 98.6037 220.239 96.7639 223.426Z" fill="#0074FF"/>
<path d="M102.522 228.233L102.523 225.279L39.1144 225.303L39.1133 228.257L102.522 228.233Z" fill="#0074FF"/>
<path d="M39.1054 233.429C35.4475 233.422 32.4467 230.455 32.4566 226.796C32.4665 223.137 35.4338 220.132 39.1188 220.155C42.7766 220.162 45.7774 223.129 45.7675 226.788C45.7576 230.447 42.7904 233.452 39.1325 233.445L39.1054 233.429Z" fill="#0074FF"/>
<path d="M230.608 116.104L198.953 61.1612L196.395 62.6376L228.05 117.58L230.608 116.104Z" fill="#0074FF"/>
<path d="M235.14 113.493C236.975 116.657 235.884 120.745 232.693 122.567C229.529 124.406 225.444 123.317 223.624 120.126C221.805 116.934 222.88 112.874 226.072 111.051C229.236 109.213 233.321 110.302 235.14 113.493Z" fill="#0074FF"/>
<path d="M198.919 172.524L230.645 117.575L228.089 116.099L196.363 171.048L198.919 172.524Z" fill="#0074FF"/>
<path d="M203.406 175.115C201.568 178.299 197.492 179.393 194.31 177.556C191.129 175.719 190.038 171.642 191.877 168.458C193.715 165.274 197.791 164.18 200.973 166.017C204.154 167.853 205.245 171.93 203.406 175.115Z" fill="#0074FF"/>
<path d="M197.651 173.28L197.652 170.327L134.243 170.351L134.242 173.304L197.651 173.28Z" fill="#0074FF"/>
<path d="M134.245 178.477C130.587 178.469 127.586 175.503 127.596 171.844C127.606 168.184 130.574 165.18 134.231 165.187C137.889 165.194 140.89 168.16 140.88 171.82C140.87 175.479 137.903 178.484 134.245 178.477Z" fill="#0074FF"/>
<path d="M135.528 171.068L103.863 116.131L101.306 117.608L132.97 172.545L135.528 171.068Z" fill="#0074FF"/>
<path d="M96.8182 120.217C94.9831 117.053 96.074 112.965 99.2383 111.127C102.402 109.289 106.488 110.377 108.307 113.568C110.142 116.733 109.051 120.82 105.86 122.643C102.695 124.481 98.6103 123.393 96.791 120.201L96.8182 120.217Z" fill="#0074FF"/>
</svg>
