<svg width="800" height="562" viewBox="0 0 800 562" fill="none" xmlns="http://www.w3.org/2000/svg">
<path d="M14.3166 -215.125L17.2685 -213.657L48.7274 -277.057L45.7755 -278.524L14.3166 -215.125Z" fill="#0074FF"/>
<path d="M22.4316 -211.077C20.6083 -207.424 16.1531 -205.897 12.4998 -207.724C8.84652 -209.551 7.31648 -214.009 9.13976 -217.662C10.963 -221.315 15.4182 -222.842 19.0715 -221.015C22.7248 -219.188 24.2548 -214.73 22.4316 -211.077Z" fill="#0074FF"/>
<path d="M6.69758 -335.879L45.8772 -276.882L48.6216 -278.704L9.44196 -337.702L6.69758 -335.879Z" fill="#0074FF"/>
<path d="M53.4388 -281.903C55.7092 -278.485 54.7792 -273.867 51.3633 -271.598C47.9474 -269.33 43.3302 -270.264 41.0598 -273.683C38.7894 -277.102 39.7194 -281.72 43.1353 -283.988C46.5512 -286.256 51.1683 -285.322 53.4388 -281.903Z" fill="#0074FF"/>
<path d="M22.0565 -92.7111L25.0083 -91.2437L56.4672 -154.643L53.5154 -156.111L22.0565 -92.7111Z" fill="#0074FF"/>
<path d="M30.1767 -88.6756C28.3535 -85.0225 23.8983 -83.4955 20.245 -85.3223C16.5917 -87.1491 15.0616 -91.6071 16.8849 -95.2601C18.7081 -98.9132 23.1634 -100.44 26.8166 -98.6134C30.4699 -96.7866 31.9999 -92.3287 30.1767 -88.6756Z" fill="#0074FF"/>
<path d="M14.4134 -213.458L53.593 -154.461L56.3374 -156.284L17.1578 -215.281L14.4134 -213.458Z" fill="#0074FF"/>
<path d="M61.1547 -159.483C63.4251 -156.064 62.495 -151.446 59.0792 -149.177C55.6633 -146.909 51.0462 -147.843 48.7758 -151.262C46.5053 -154.681 47.4354 -159.299 50.8512 -161.567C54.2671 -163.836 58.8842 -162.901 61.1547 -159.483Z" fill="#0074FF"/>
<path d="M131.822 -38.0886L134.774 -36.621L166.232 -100.021L163.28 -101.488L131.822 -38.0886Z" fill="#0074FF"/>
<path d="M139.97 -34.0854C138.147 -30.4323 133.692 -28.9053 130.039 -30.7321C126.385 -32.5589 124.855 -37.0167 126.678 -40.6698C128.502 -44.3229 132.957 -45.8499 136.61 -44.0232C140.263 -42.1964 141.793 -37.7385 139.97 -34.0854Z" fill="#0074FF"/>
<path d="M22.0565 -92.7111L25.0083 -91.2437L56.4672 -154.643L53.5154 -156.111L22.0565 -92.7111Z" fill="#0074FF"/>
<path d="M48.3193 -158.664C50.1425 -162.318 54.5978 -163.845 58.2511 -162.018C61.9044 -160.191 63.4345 -155.733 61.6112 -152.08C59.788 -148.427 55.3328 -146.9 51.6795 -148.727C48.0262 -150.553 46.4961 -155.011 48.3193 -158.664Z" fill="#0074FF"/>
<path d="M55.068 -153.683L125.708 -158.061L125.502 -161.351L54.8616 -156.973L55.068 -153.683Z" fill="#0074FF"/>
<path d="M125.152 -167.201C129.226 -167.465 132.771 -164.345 133.008 -160.249C133.275 -156.174 130.158 -152.63 126.065 -152.396C121.991 -152.133 118.446 -155.253 118.209 -159.348C117.942 -163.424 121.058 -166.967 125.152 -167.201Z" fill="#0074FF"/>
<path d="M124.236 -158.888L163.416 -99.8902L166.16 -101.713L126.98 -160.71L124.236 -158.888Z" fill="#0074FF"/>
<path d="M170.977 -104.912C173.248 -101.493 172.318 -96.875 168.902 -94.6066C165.486 -92.3381 160.869 -93.2722 158.598 -96.6911C156.328 -100.11 157.258 -104.728 160.674 -106.996C164.09 -109.265 168.707 -108.331 170.977 -104.912Z" fill="#0074FF"/>
<path d="M116.409 -282.902L119.36 -281.434L150.819 -344.834L147.867 -346.301L116.409 -282.902Z" fill="#0074FF"/>
<path d="M124.529 -278.879C122.705 -275.226 118.25 -273.699 114.597 -275.526C110.944 -277.352 109.414 -281.81 111.237 -285.463C113.06 -289.116 117.515 -290.643 121.169 -288.817C124.822 -286.99 126.352 -282.532 124.529 -278.879Z" fill="#0074FF"/>
<path d="M47.3653 -276.131L118.005 -280.508L117.799 -283.799L47.1589 -279.421L47.3653 -276.131Z" fill="#0074FF"/>
<path d="M47.7251 -270.361C43.6508 -270.098 40.1062 -273.218 39.8688 -277.313C39.6022 -281.389 42.7185 -284.932 46.8122 -285.167C50.8864 -285.43 54.431 -282.31 54.6684 -278.215C54.9058 -274.119 51.8188 -270.596 47.7251 -270.361Z" fill="#0074FF"/>
<path d="M6.69758 -335.879L45.8772 -276.882L48.6216 -278.704L9.44196 -337.702L6.69758 -335.879Z" fill="#0074FF"/>
<path d="M1.88012 -332.68C-0.390273 -336.099 0.539794 -340.717 3.95568 -342.985C7.37156 -345.254 11.9887 -344.32 14.2591 -340.901C16.5295 -337.482 15.5995 -332.864 12.1836 -330.596C8.7677 -328.327 4.15058 -329.261 1.88012 -332.68Z" fill="#0074FF"/>
<path d="M124.158 -160.537L127.11 -159.07L158.569 -222.469L155.617 -223.937L124.158 -160.537Z" fill="#0074FF"/>
<path d="M132.274 -156.477C130.45 -152.824 125.995 -151.297 122.342 -153.124C118.689 -154.951 117.159 -159.409 118.982 -163.062C120.805 -166.715 125.26 -168.242 128.914 -166.415C132.567 -164.588 134.097 -160.13 132.274 -156.477Z" fill="#0074FF"/>
<path d="M55.068 -153.683L125.708 -158.061L125.502 -161.351L54.8616 -156.973L55.068 -153.683Z" fill="#0074FF"/>
<path d="M55.4216 -147.97C51.3473 -147.706 47.8028 -150.826 47.5654 -154.922C47.2988 -158.997 50.415 -162.541 54.5087 -162.775C58.583 -163.038 62.1275 -159.918 62.3649 -155.823C62.6315 -151.747 59.5153 -148.204 55.4216 -147.97Z" fill="#0074FF"/>
<path d="M14.4134 -213.458L53.593 -154.461L56.3374 -156.284L17.1578 -215.281L14.4134 -213.458Z" fill="#0074FF"/>
<path d="M9.62535 -210.279C7.35489 -213.697 8.28494 -218.315 11.7008 -220.584C15.1167 -222.852 19.7338 -221.918 22.0043 -218.499C24.2747 -215.08 23.3446 -210.463 19.9287 -208.194C16.5129 -205.926 11.8957 -206.86 9.62535 -210.279Z" fill="#0074FF"/>
<path d="M14.3166 -215.125L17.2685 -213.657L48.7274 -277.057L45.7755 -278.524L14.3166 -215.125Z" fill="#0074FF"/>
<path d="M40.6033 -281.085C42.4266 -284.739 46.8818 -286.266 50.5351 -284.439C54.1884 -282.612 55.7184 -278.154 53.8951 -274.501C52.0719 -270.848 47.6166 -269.321 43.9634 -271.148C40.3101 -272.975 38.7801 -277.432 40.6033 -281.085Z" fill="#0074FF"/>
<path d="M47.3653 -276.131L118.005 -280.508L117.799 -283.799L47.1589 -279.421L47.3653 -276.131Z" fill="#0074FF"/>
<path d="M117.407 -289.603C121.481 -289.866 125.026 -286.746 125.263 -282.651C125.53 -278.575 122.413 -275.032 118.32 -274.798C114.245 -274.534 110.701 -277.654 110.464 -281.75C110.197 -285.825 113.313 -289.369 117.407 -289.603Z" fill="#0074FF"/>
<path d="M116.51 -281.26L155.69 -222.263L158.434 -224.085L119.255 -283.082L116.51 -281.26Z" fill="#0074FF"/>
<path d="M163.252 -227.284C160.98 -230.706 156.367 -231.639 152.948 -229.369C149.53 -227.099 148.601 -222.485 150.873 -219.064C153.145 -215.642 157.758 -214.709 161.176 -216.979C164.594 -219.249 165.524 -223.863 163.252 -227.284Z" fill="#0074FF"/>
<path d="M233.914 -105.866L236.865 -104.398L268.324 -167.798L265.372 -169.265L233.914 -105.866Z" fill="#0074FF"/>
<path d="M242.067 -101.887C240.244 -98.234 235.789 -96.7069 232.136 -98.5337C228.482 -100.361 226.952 -104.818 228.776 -108.472C230.599 -112.125 235.054 -113.652 238.707 -111.825C242.361 -109.998 243.891 -105.54 242.067 -101.887Z" fill="#0074FF"/>
<path d="M164.895 -99.1186L235.535 -103.496L235.328 -106.786L164.688 -102.409L164.895 -99.1186Z" fill="#0074FF"/>
<path d="M165.264 -93.3695C161.19 -93.1061 157.645 -96.2262 157.408 -100.321C157.141 -104.397 160.257 -107.941 164.351 -108.175C168.425 -108.438 171.97 -105.318 172.207 -101.223C172.474 -97.1469 169.358 -93.6037 165.283 -93.3403L165.264 -93.3695Z" fill="#0074FF"/>
<path d="M124.236 -158.888L163.416 -99.8902L166.16 -101.713L126.98 -160.71L124.236 -158.888Z" fill="#0074FF"/>
<path d="M119.419 -155.688C117.149 -159.107 118.079 -163.725 121.494 -165.994C124.91 -168.262 129.527 -167.328 131.798 -163.909C134.068 -160.49 133.138 -155.872 129.722 -153.604C126.306 -151.335 121.689 -152.269 119.419 -155.688Z" fill="#0074FF"/>
<path d="M124.158 -160.537L127.11 -159.07L158.569 -222.469L155.617 -223.937L124.158 -160.537Z" fill="#0074FF"/>
<path d="M150.445 -226.486C152.269 -230.139 156.724 -231.666 160.377 -229.839C164.03 -228.012 165.561 -223.554 163.737 -219.901C161.914 -216.248 157.459 -214.721 153.806 -216.548C150.152 -218.374 148.622 -222.832 150.445 -226.486Z" fill="#0074FF"/>
<path d="M157.155 -221.473L227.795 -225.85L227.588 -229.14L156.948 -224.763L157.155 -221.473Z" fill="#0074FF"/>
<path d="M227.249 -235.003C231.323 -235.266 234.868 -232.146 235.105 -228.051C235.372 -223.975 232.256 -220.432 228.162 -220.198C224.088 -219.934 220.543 -223.054 220.306 -227.15C220.039 -231.225 223.155 -234.769 227.249 -235.003Z" fill="#0074FF"/>
<path d="M226.333 -226.689L265.513 -167.692L268.257 -169.514L229.077 -228.512L226.333 -226.689Z" fill="#0074FF"/>
<path d="M273.074 -172.714C270.802 -176.135 266.189 -177.068 262.771 -174.798C259.353 -172.528 258.423 -167.914 260.695 -164.493C262.968 -161.071 267.581 -160.138 270.999 -162.408C274.417 -164.678 275.346 -169.292 273.074 -172.714Z" fill="#0074FF"/>
<path d="M241.721 16.4599L244.673 17.9274L276.132 -45.4721L273.18 -46.9396L241.721 16.4599Z" fill="#0074FF"/>
<path d="M249.812 20.5146C247.989 24.1676 243.534 25.6946 239.881 23.8678C236.227 22.041 234.697 17.5831 236.52 13.93C238.344 10.2769 242.799 8.74996 246.452 10.5768C250.106 12.4036 251.636 16.8615 249.812 20.5146Z" fill="#0074FF"/>
<path d="M131.822 -38.0886L134.774 -36.621L166.232 -100.021L163.28 -101.488L131.822 -38.0886Z" fill="#0074FF"/>
<path d="M158.142 -104.094C159.965 -107.747 164.42 -109.274 168.074 -107.447C171.727 -105.62 173.257 -101.162 171.434 -97.5092C169.611 -93.8561 165.155 -92.3291 161.483 -94.1852C157.829 -96.0119 156.299 -100.47 158.123 -104.123L158.142 -104.094Z" fill="#0074FF"/>
<path d="M164.895 -99.1186L235.535 -103.496L235.328 -106.786L164.688 -102.409L164.895 -99.1186Z" fill="#0074FF"/>
<path d="M234.965 -112.582C239.039 -112.845 242.584 -109.725 242.821 -105.63C243.058 -101.535 239.971 -98.011 235.878 -97.7768C231.803 -97.5133 228.259 -100.633 228.022 -104.729C227.755 -108.805 230.871 -112.348 234.965 -112.582Z" fill="#0074FF"/>
<path d="M234.049 -104.268L273.229 -45.2707L275.973 -47.0932L236.794 -106.09L234.049 -104.268Z" fill="#0074FF"/>
<path d="M280.79 -50.2923C278.518 -53.7137 273.905 -54.6469 270.487 -52.3769C267.069 -50.1068 266.139 -45.4929 268.412 -42.0716C270.684 -38.6503 275.297 -37.717 278.715 -39.9871C282.133 -42.2572 283.062 -46.8711 280.79 -50.2923Z" fill="#0074FF"/>
<path d="M351.486 71.0825L354.438 72.55L385.897 9.15041L382.945 7.6829L351.486 71.0825Z" fill="#0074FF"/>
<path d="M359.606 75.1045C357.783 78.7576 353.327 80.2846 349.674 78.4578C346.021 76.631 344.491 72.173 346.314 68.52C348.137 64.8669 352.592 63.34 356.246 65.1668C359.899 66.9936 361.429 71.4515 359.606 75.1045Z" fill="#0074FF"/>
<path d="M282.434 77.8445L353.074 73.4668L352.867 70.1767L282.227 74.5543L282.434 77.8445Z" fill="#0074FF"/>
<path d="M282.802 83.6222C278.728 83.8857 275.184 80.7656 274.946 76.6703C274.68 72.5944 277.796 69.0511 281.89 68.8169C285.964 68.5535 289.508 71.6737 289.746 75.769C289.983 79.8642 286.896 83.388 282.802 83.6222Z" fill="#0074FF"/>
<path d="M241.721 16.4599L244.673 17.9274L276.132 -45.4721L273.18 -46.9396L241.721 16.4599Z" fill="#0074FF"/>
<path d="M267.984 -49.4939C269.807 -53.147 274.263 -54.6739 277.916 -52.8471C281.569 -51.0203 283.099 -46.5624 281.276 -42.9094C279.453 -39.2563 274.998 -37.7293 271.344 -39.5561C267.691 -41.3829 266.161 -45.8408 267.984 -49.4939Z" fill="#0074FF"/>
<path d="M274.741 -44.6646L345.382 -49.0299L345.176 -52.32L274.536 -47.9547L274.741 -44.6646Z" fill="#0074FF"/>
<path d="M344.788 -58.0112C348.862 -58.2746 352.406 -55.1545 352.644 -51.0593C352.91 -46.9834 349.794 -43.4402 345.7 -43.206C341.626 -42.9425 338.082 -46.0626 337.844 -50.1579C337.578 -54.2338 340.694 -57.777 344.788 -58.0112Z" fill="#0074FF"/>
<path d="M343.872 -49.6974L383.051 9.29992L385.796 7.47741L346.616 -51.5199L343.872 -49.6974Z" fill="#0074FF"/>
<path d="M390.613 4.2783C392.883 7.69715 391.953 12.3151 388.538 14.5835C385.122 16.852 380.505 15.9179 378.234 12.499C375.964 9.08018 376.894 4.46224 380.31 2.19378C383.726 -0.074675 388.343 0.859451 390.613 4.2783Z" fill="#0074FF"/>
<path d="M359.207 193.467L362.159 194.934L393.617 131.535L390.666 130.067L359.207 193.467Z" fill="#0074FF"/>
<path d="M367.351 197.506C365.528 201.159 361.073 202.686 357.419 200.86C353.766 199.033 352.236 194.575 354.059 190.922C355.882 187.269 360.338 185.742 363.991 187.568C367.644 189.395 369.174 193.853 367.351 197.506Z" fill="#0074FF"/>
<path d="M282.434 77.8445L353.074 73.4668L352.867 70.1767L282.227 74.5543L282.434 77.8445Z" fill="#0074FF"/>
<path d="M352.504 64.4098C356.578 64.1464 360.122 67.2666 360.36 71.3619C360.626 75.4377 357.51 78.9809 353.417 79.2152C349.342 79.4785 345.798 76.3584 345.56 72.2632C345.294 68.1873 348.41 64.6441 352.504 64.4098Z" fill="#0074FF"/>
<path d="M351.588 72.7237L390.767 131.721L393.512 129.898L354.332 70.9011L351.588 72.7237Z" fill="#0074FF"/>
<path d="M398.329 126.699C396.057 123.278 391.444 122.345 388.026 124.615C384.607 126.885 383.678 131.499 385.95 134.92C388.222 138.341 392.835 139.275 396.254 137.005C399.672 134.734 400.601 130.121 398.329 126.699Z" fill="#0074FF"/>
<path d="M469.001 248.07L471.953 249.537L503.412 186.138L500.46 184.67L469.001 248.07Z" fill="#0074FF"/>
<path d="M477.145 252.096C475.321 255.749 470.866 257.277 467.213 255.45C463.56 253.623 462.029 249.165 463.853 245.512C465.676 241.859 470.131 240.332 473.784 242.159C477.438 243.985 478.968 248.443 477.145 252.096Z" fill="#0074FF"/>
<path d="M400.002 254.788L470.642 250.411L470.435 247.121L399.795 251.498L400.002 254.788Z" fill="#0074FF"/>
<path d="M400.341 260.614C396.267 260.877 392.722 257.757 392.485 253.662C392.218 249.586 395.334 246.043 399.428 245.809C403.502 245.545 407.047 248.665 407.284 252.761C407.551 256.836 404.435 260.38 400.36 260.643L400.341 260.614Z" fill="#0074FF"/>
<path d="M359.207 193.467L362.159 194.934L393.617 131.535L390.666 130.067L359.207 193.467Z" fill="#0074FF"/>
<path d="M385.523 127.498C387.346 123.845 391.801 122.318 395.455 124.145C399.108 125.972 400.638 130.429 398.815 134.083C396.991 137.736 392.536 139.263 388.883 137.436C385.23 135.609 383.7 131.151 385.523 127.498Z" fill="#0074FF"/>
<path d="M392.254 132.355L462.894 127.99L462.689 124.7L392.048 129.065L392.254 132.355Z" fill="#0074FF"/>
<path d="M462.326 118.98C466.4 118.717 469.945 121.837 470.182 125.933C470.449 130.008 467.333 133.552 463.239 133.786C459.165 134.049 455.62 130.929 455.383 126.834C455.116 122.758 458.233 119.215 462.326 118.98Z" fill="#0074FF"/>
<path d="M461.43 127.324L500.609 186.321L503.354 184.498L464.174 125.501L461.43 127.324Z" fill="#0074FF"/>
<path d="M508.171 181.299C505.899 177.878 501.286 176.945 497.868 179.215C494.449 181.485 493.52 186.099 495.792 189.52C498.064 192.941 502.677 193.875 506.096 191.604C509.514 189.334 510.443 184.721 508.171 181.299Z" fill="#0074FF"/>
<path d="M476.77 370.464L479.722 371.931L511.181 308.532L508.229 307.064L476.77 370.464Z" fill="#0074FF"/>
<path d="M484.89 374.498C483.066 378.151 478.611 379.678 474.958 377.851C471.305 376.025 469.775 371.567 471.598 367.914C473.421 364.261 477.876 362.734 481.53 364.56C485.183 366.387 486.713 370.845 484.89 374.498Z" fill="#0074FF"/>
<path d="M400.002 254.788L470.642 250.411L470.435 247.121L399.795 251.498L400.002 254.788Z" fill="#0074FF"/>
<path d="M470.042 241.402C474.116 241.138 477.661 244.258 477.898 248.354C478.136 252.449 475.049 255.973 470.955 256.207C466.881 256.47 463.336 253.35 463.099 249.255C462.832 245.179 465.949 241.636 470.042 241.402Z" fill="#0074FF"/>
<path d="M469.126 249.715L508.306 308.713L511.05 306.89L471.871 247.893L469.126 249.715Z" fill="#0074FF"/>
<path d="M515.868 303.691C513.596 300.27 508.983 299.336 505.564 301.607C502.146 303.877 501.217 308.491 503.489 311.912C505.761 315.333 510.374 316.266 513.792 313.996C517.211 311.726 518.14 307.112 515.868 303.691Z" fill="#0074FF"/>
<path d="M476.77 370.464L479.722 371.931L511.181 308.532L508.229 307.064L476.77 370.464Z" fill="#0074FF"/>
<path d="M503.062 304.49C504.885 300.837 509.34 299.31 512.993 301.137C516.647 302.963 518.177 307.421 516.353 311.074C514.53 314.727 510.075 316.254 506.422 314.428C502.768 312.601 501.238 308.143 503.062 304.49Z" fill="#0074FF"/>
<path d="M509.762 309.466L580.402 305.088L580.195 301.798L509.555 306.176L509.762 309.466Z" fill="#0074FF"/>
<path d="M579.865 295.972C583.939 295.709 587.484 298.829 587.721 302.924C587.988 307 584.871 310.543 580.778 310.778C576.704 311.041 573.159 307.921 572.922 303.826C572.655 299.75 575.771 296.207 579.865 295.972Z" fill="#0074FF"/>
<path d="M578.969 304.315L618.148 363.313L620.893 361.49L581.713 302.493L578.969 304.315Z" fill="#0074FF"/>
<path d="M625.71 358.291C627.98 361.71 627.05 366.328 623.634 368.596C620.218 370.865 615.601 369.931 613.331 366.512C611.06 363.093 611.991 358.475 615.406 356.207C618.822 353.938 623.439 354.872 625.71 358.291Z" fill="#0074FF"/>
<path d="M704.079 602.054L707.031 603.522L738.49 540.122L735.538 538.655L704.079 602.054Z" fill="#0074FF"/>
<path d="M712.241 606.109C710.418 609.762 705.963 611.289 702.31 609.462C698.656 607.636 697.126 603.178 698.949 599.525C700.773 595.872 705.228 594.345 708.881 596.171C712.535 597.998 714.065 602.456 712.241 606.109Z" fill="#0074FF"/>
<path d="M696.507 481.307L735.687 540.304L738.431 538.482L699.252 479.485L696.507 481.307Z" fill="#0074FF"/>
<path d="M743.248 535.283C740.976 531.861 736.363 530.928 732.945 533.198C729.527 535.468 728.597 540.082 730.87 543.504C733.142 546.925 737.755 547.858 741.173 545.588C744.591 543.318 745.52 538.704 743.248 535.283Z" fill="#0074FF"/>
<path d="M226.279 -228.334L229.231 -226.866L260.69 -290.266L257.738 -291.733L226.279 -228.334Z" fill="#0074FF"/>
<path d="M234.371 -224.279C232.547 -220.626 228.092 -219.099 224.439 -220.926C220.786 -222.752 219.256 -227.21 221.079 -230.863C222.902 -234.517 227.357 -236.043 231.011 -234.217C234.664 -232.39 236.194 -227.932 234.371 -224.279Z" fill="#0074FF"/>
<path d="M157.155 -221.473L227.795 -225.85L227.588 -229.14L156.948 -224.763L157.155 -221.473Z" fill="#0074FF"/>
<path d="M157.548 -215.791C153.474 -215.527 149.929 -218.647 149.692 -222.743C149.425 -226.819 152.541 -230.362 156.635 -230.596C160.709 -230.859 164.254 -227.739 164.491 -223.644C164.758 -219.568 161.642 -216.025 157.548 -215.791Z" fill="#0074FF"/>
<path d="M116.51 -281.26L155.69 -222.263L158.434 -224.085L119.255 -283.082L116.51 -281.26Z" fill="#0074FF"/>
<path d="M111.722 -278.08C109.452 -281.499 110.382 -286.117 113.798 -288.385C117.214 -290.654 121.831 -289.72 124.101 -286.301C126.372 -282.882 125.442 -278.264 122.026 -275.996C118.61 -273.727 113.993 -274.661 111.722 -278.08Z" fill="#0074FF"/>
<path d="M116.409 -282.902L119.36 -281.434L150.819 -344.834L147.867 -346.301L116.409 -282.902Z" fill="#0074FF"/>
<path d="M142.7 -348.887C144.524 -352.54 148.979 -354.067 152.632 -352.24C156.285 -350.414 157.815 -345.956 155.992 -342.303C154.169 -338.65 149.714 -337.123 146.06 -338.949C142.407 -340.776 140.877 -345.234 142.7 -348.887Z" fill="#0074FF"/>
<path d="M336.015 -173.692L338.967 -172.224L370.426 -235.624L367.474 -237.091L336.015 -173.692Z" fill="#0074FF"/>
<path d="M344.164 -169.689C342.341 -166.036 337.886 -164.509 334.232 -166.335C330.579 -168.162 329.049 -172.62 330.872 -176.273C332.696 -179.926 337.151 -181.453 340.804 -179.627C344.457 -177.8 345.987 -173.342 344.164 -169.689Z" fill="#0074FF"/>
<path d="M267.01 -166.928L337.65 -171.306L337.444 -174.596L266.804 -170.218L267.01 -166.928Z" fill="#0074FF"/>
<path d="M267.361 -161.171C263.286 -160.908 259.742 -164.028 259.505 -168.123C259.238 -172.199 262.354 -175.742 266.448 -175.977C270.522 -176.24 274.067 -173.12 274.304 -169.025C274.571 -164.949 271.454 -161.406 267.38 -161.142L267.361 -161.171Z" fill="#0074FF"/>
<path d="M226.333 -226.689L265.513 -167.692L268.257 -169.514L229.077 -228.512L226.333 -226.689Z" fill="#0074FF"/>
<path d="M221.516 -223.49C219.245 -226.909 220.176 -231.527 223.591 -233.795C227.007 -236.064 231.624 -235.13 233.895 -231.711C236.165 -228.292 235.235 -223.674 231.819 -221.406C228.403 -219.137 223.786 -220.071 221.516 -223.49Z" fill="#0074FF"/>
<path d="M226.279 -228.334L229.231 -226.866L260.69 -290.266L257.738 -291.733L226.279 -228.334Z" fill="#0074FF"/>
<path d="M252.542 -294.287C254.366 -297.94 258.821 -299.467 262.474 -297.641C266.127 -295.814 267.658 -291.356 265.834 -287.703C264.011 -284.05 259.556 -282.523 255.903 -284.349C252.249 -286.176 250.719 -290.634 252.542 -294.287Z" fill="#0074FF"/>
<path d="M328.43 -294.491L367.61 -235.494L370.354 -237.316L331.174 -296.313L328.43 -294.491Z" fill="#0074FF"/>
<path d="M375.171 -240.515C372.899 -243.937 368.286 -244.87 364.868 -242.6C361.45 -240.33 360.52 -235.716 362.792 -232.295C365.064 -228.873 369.677 -227.94 373.096 -230.21C376.514 -232.48 377.443 -237.094 375.171 -240.515Z" fill="#0074FF"/>
<path d="M343.794 -51.3465L346.746 -49.8789L378.204 -113.279L375.252 -114.746L343.794 -51.3465Z" fill="#0074FF"/>
<path d="M351.909 -47.2871C350.086 -43.6341 345.631 -42.1071 341.978 -43.9339C338.324 -45.7607 336.794 -50.2186 338.617 -53.8717C340.441 -57.5248 344.896 -59.0517 348.549 -57.2249C352.203 -55.3981 353.733 -50.9402 351.909 -47.2871Z" fill="#0074FF"/>
<path d="M274.741 -44.6646L345.382 -49.0299L345.176 -52.32L274.536 -47.9547L274.741 -44.6646Z" fill="#0074FF"/>
<path d="M275.086 -38.799C271.012 -38.5355 267.468 -41.6555 267.23 -45.7508C266.964 -49.8267 270.08 -53.37 274.174 -53.6042C278.248 -53.8677 281.792 -50.7476 282.03 -46.6523C282.296 -42.5764 279.18 -39.0332 275.086 -38.799Z" fill="#0074FF"/>
<path d="M234.049 -104.268L273.229 -45.2707L275.973 -47.0932L236.794 -106.09L234.049 -104.268Z" fill="#0074FF"/>
<path d="M241.611 -109.29C239.339 -112.711 234.726 -113.644 231.307 -111.374C227.889 -109.104 226.96 -104.49 229.232 -101.069C231.504 -97.6477 236.117 -96.7143 239.535 -98.9844C242.954 -101.255 243.883 -105.868 241.611 -109.29Z" fill="#0074FF"/>
<path d="M233.914 -105.866L236.865 -104.398L268.324 -167.798L265.372 -169.265L233.914 -105.866Z" fill="#0074FF"/>
<path d="M260.239 -171.896C262.062 -175.549 266.517 -177.076 270.171 -175.249C273.824 -173.422 275.354 -168.964 273.531 -165.311C271.708 -161.658 267.252 -160.131 263.58 -161.987C259.926 -163.814 258.396 -168.272 260.22 -171.925L260.239 -171.896Z" fill="#0074FF"/>
<path d="M267.01 -166.928L337.65 -171.306L337.444 -174.596L266.804 -170.218L267.01 -166.928Z" fill="#0074FF"/>
<path d="M337.062 -180.384C341.136 -180.647 344.681 -177.527 344.918 -173.432C345.185 -169.356 342.068 -165.813 337.975 -165.579C333.9 -165.315 330.356 -168.435 330.119 -172.53C329.852 -176.606 332.968 -180.149 337.062 -180.384Z" fill="#0074FF"/>
<path d="M336.146 -172.07L375.326 -113.072L378.07 -114.895L338.891 -173.892L336.146 -172.07Z" fill="#0074FF"/>
<path d="M382.887 -118.094C380.615 -121.515 376.002 -122.449 372.584 -120.179C369.166 -117.908 368.236 -113.295 370.509 -109.873C372.781 -106.452 377.393 -105.519 380.812 -107.789C384.23 -110.059 385.159 -114.673 382.887 -118.094Z" fill="#0074FF"/>
<path d="M453.588 3.2568L456.54 4.72429L487.999 -58.6752L485.047 -60.1428L453.588 3.2568Z" fill="#0074FF"/>
<path d="M461.703 7.30286C459.88 10.9559 455.424 12.4829 451.771 10.6562C448.118 8.8294 446.588 4.37147 448.411 0.718364C450.234 -2.93469 454.689 -4.46164 458.343 -2.63486C461.996 -0.808052 463.526 3.64981 461.703 7.30286Z" fill="#0074FF"/>
<path d="M384.52 10.0548L455.16 5.67707L454.953 2.38694L384.313 6.7646L384.52 10.0548Z" fill="#0074FF"/>
<path d="M384.899 15.8204C380.825 16.0838 377.281 12.9637 377.043 8.86845C376.806 4.77319 379.893 1.24927 383.986 1.01507C388.061 0.751641 391.605 3.87186 391.843 7.96712C392.109 12.043 388.993 15.5862 384.899 15.8204Z" fill="#0074FF"/>
<path d="M343.872 -49.6974L383.051 9.29992L385.796 7.47741L346.616 -51.5199L343.872 -49.6974Z" fill="#0074FF"/>
<path d="M351.433 -54.7192C349.161 -58.1405 344.548 -59.0738 341.13 -56.8037C337.712 -54.5336 336.782 -49.9197 339.054 -46.4985C341.326 -43.0772 345.94 -42.1439 349.358 -44.414C352.776 -46.6841 353.705 -51.2979 351.433 -54.7192Z" fill="#0074FF"/>
<path d="M343.794 -51.3465L346.746 -49.8789L378.204 -113.279L375.252 -114.746L343.794 -51.3465Z" fill="#0074FF"/>
<path d="M370.081 -117.296C371.904 -120.949 376.36 -122.476 380.013 -120.649C383.666 -118.822 385.196 -114.364 383.373 -110.711C381.55 -107.058 377.094 -105.531 373.441 -107.358C369.788 -109.185 368.258 -113.642 370.081 -117.296Z" fill="#0074FF"/>
<path d="M376.79 -112.348L447.43 -116.725L447.223 -120.016L376.583 -115.638L376.79 -112.348Z" fill="#0074FF"/>
<path d="M446.885 -125.813C450.959 -126.076 454.503 -122.956 454.741 -118.861C455.007 -114.785 451.891 -111.242 447.797 -111.008C443.723 -110.744 440.179 -113.864 439.941 -117.96C439.675 -122.035 442.791 -125.579 446.885 -125.813Z" fill="#0074FF"/>
<path d="M445.969 -117.499L485.148 -58.5019L487.893 -60.3245L448.713 -119.322L445.969 -117.499Z" fill="#0074FF"/>
<path d="M492.71 -63.5237C494.98 -60.1048 494.05 -55.4869 490.634 -53.2184C487.218 -50.95 482.601 -51.884 480.331 -55.3029C478.061 -58.7218 478.991 -63.3396 482.407 -65.6081C485.822 -67.8765 490.439 -66.9425 492.71 -63.5237Z" fill="#0074FF"/>
<path d="M461.299 125.689L464.25 127.157L495.709 63.7573L492.757 62.2898L461.299 125.689Z" fill="#0074FF"/>
<path d="M469.448 129.705C467.625 133.358 463.17 134.885 459.516 133.058C455.863 131.231 454.333 126.773 456.156 123.12C457.979 119.467 462.435 117.94 466.088 119.767C469.741 121.594 471.271 126.052 469.448 129.705Z" fill="#0074FF"/>
<path d="M392.254 132.355L462.894 127.99L462.689 124.7L392.048 129.065L392.254 132.355Z" fill="#0074FF"/>
<path d="M392.625 138.193C388.551 138.456 385.006 135.336 384.769 131.241C384.502 127.165 387.619 123.622 391.712 123.388C395.786 123.124 399.331 126.244 399.568 130.34C399.835 134.416 396.719 137.959 392.625 138.193Z" fill="#0074FF"/>
<path d="M351.588 72.7237L390.767 131.721L393.512 129.898L354.332 70.9011L351.588 72.7237Z" fill="#0074FF"/>
<path d="M346.8 75.9035C344.529 72.4847 345.459 67.8667 348.875 65.5983C352.291 63.3298 356.908 64.2639 359.179 67.6828C361.449 71.1016 360.519 75.7195 357.103 77.988C353.687 80.2564 349.07 79.3223 346.8 75.9035Z" fill="#0074FF"/>
<path d="M351.486 71.0825L354.438 72.55L385.897 9.15041L382.945 7.6829L351.486 71.0825Z" fill="#0074FF"/>
<path d="M377.778 5.09629C379.601 1.44325 384.056 -0.0837 387.709 1.74309C391.363 3.56989 392.893 8.0278 391.069 11.6809C389.246 15.3339 384.791 16.8609 381.138 15.0342C377.484 13.2074 375.954 8.74933 377.778 5.09629Z" fill="#0074FF"/>
<path d="M384.52 10.0548L455.16 5.67707L454.953 2.38694L384.313 6.7646L384.52 10.0548Z" fill="#0074FF"/>
<path d="M454.601 -3.39189C458.675 -3.65528 462.219 -0.53511 462.457 3.56014C462.723 7.636 459.607 11.1792 455.514 11.4135C451.439 11.6768 447.895 8.55674 447.657 4.46149C447.391 0.385632 450.507 -3.15765 454.601 -3.39189Z" fill="#0074FF"/>
<path d="M453.685 4.92201L492.864 63.9193L495.609 62.0967L456.429 3.09947L453.685 4.92201Z" fill="#0074FF"/>
<path d="M500.426 58.8976C498.154 55.4763 493.541 54.543 490.122 56.8131C486.704 59.0832 485.775 63.697 488.047 67.1184C490.319 70.5397 494.932 71.473 498.35 69.2029C501.769 66.9328 502.698 62.319 500.426 58.8976Z" fill="#0074FF"/>
<path d="M571.151 180.254L574.103 181.722L605.562 118.322L602.61 116.854L571.151 180.254Z" fill="#0074FF"/>
<path d="M579.242 184.295C577.418 187.948 572.963 189.475 569.31 187.648C565.656 185.821 564.126 181.363 565.95 177.71C567.773 174.057 572.228 172.53 575.881 174.357C579.535 176.184 581.065 180.642 579.242 184.295Z" fill="#0074FF"/>
<path d="M502.088 186.999L572.728 182.621L572.522 179.331L501.882 183.709L502.088 186.999Z" fill="#0074FF"/>
<path d="M502.438 192.812C498.364 193.076 494.819 189.955 494.582 185.86C494.315 181.784 497.431 178.241 501.525 178.007C505.599 177.744 509.144 180.864 509.381 184.959C509.648 189.035 506.532 192.578 502.457 192.841L502.438 192.812Z" fill="#0074FF"/>
<path d="M461.43 127.324L500.609 186.321L503.354 184.498L464.174 125.501L461.43 127.324Z" fill="#0074FF"/>
<path d="M456.613 130.523C454.342 127.104 455.272 122.486 458.688 120.217C462.104 117.949 466.721 118.883 468.992 122.302C471.262 125.721 470.332 130.339 466.916 132.607C463.5 134.876 458.883 133.942 456.613 130.523Z" fill="#0074FF"/>
<path d="M461.299 125.689L464.25 127.157L495.709 63.7573L492.757 62.2898L461.299 125.689Z" fill="#0074FF"/>
<path d="M487.62 59.6963C489.443 56.0432 493.898 54.5163 497.552 56.3431C501.205 58.1699 502.735 62.6278 500.912 66.2808C499.088 69.9339 494.633 71.4609 490.98 69.6341C487.327 67.8073 485.797 63.3494 487.62 59.6963Z" fill="#0074FF"/>
<path d="M494.348 64.6448L564.988 60.2672L564.782 56.9771L494.142 61.3547L494.348 64.6448Z" fill="#0074FF"/>
<path d="M564.423 51.1788C568.497 50.9154 572.042 54.0355 572.279 58.1308C572.546 62.2067 569.43 65.7498 565.336 65.984C561.262 66.2475 557.717 63.1275 557.48 59.0322C557.213 54.9564 560.329 51.413 564.423 51.1788Z" fill="#0074FF"/>
<path d="M563.527 59.5219L602.706 118.519L605.451 116.697L566.271 57.6994L563.527 59.5219Z" fill="#0074FF"/>
<path d="M610.268 113.497C607.996 110.076 603.383 109.143 599.965 111.413C596.546 113.683 595.617 118.297 597.889 121.718C600.161 125.14 604.774 126.073 608.193 123.803C611.611 121.533 612.54 116.919 610.268 113.497Z" fill="#0074FF"/>
<path d="M578.872 302.638L581.824 304.106L613.282 240.706L610.331 239.238L578.872 302.638Z" fill="#0074FF"/>
<path d="M586.987 306.696C585.163 310.349 580.708 311.876 577.055 310.05C573.402 308.223 571.872 303.765 573.695 300.112C575.518 296.459 579.973 294.932 583.627 296.759C587.28 298.585 588.81 303.043 586.987 306.696Z" fill="#0074FF"/>
<path d="M509.762 309.466L580.402 305.088L580.195 301.798L509.555 306.176L509.762 309.466Z" fill="#0074FF"/>
<path d="M510.164 315.185C506.09 315.448 502.545 312.328 502.308 308.233C502.041 304.157 505.157 300.614 509.251 300.38C513.325 300.116 516.87 303.236 517.107 307.331C517.374 311.407 514.258 314.951 510.164 315.185Z" fill="#0074FF"/>
<path d="M469.126 249.715L508.306 308.713L511.05 306.89L471.871 247.893L469.126 249.715Z" fill="#0074FF"/>
<path d="M476.688 244.694C474.416 241.273 469.803 240.339 466.385 242.609C462.966 244.879 462.037 249.493 464.309 252.915C466.581 256.336 471.194 257.269 474.613 254.999C478.031 252.729 478.96 248.115 476.688 244.694Z" fill="#0074FF"/>
<path d="M469.001 248.07L471.953 249.537L503.412 186.138L500.46 184.67L469.001 248.07Z" fill="#0074FF"/>
<path d="M495.316 182.088C497.14 178.435 501.595 176.908 505.248 178.735C508.901 180.562 510.431 185.02 508.608 188.673C506.785 192.326 502.33 193.853 498.657 191.997C495.004 190.17 493.474 185.712 495.297 182.059L495.316 182.088Z" fill="#0074FF"/>
<path d="M502.088 186.999L572.728 182.621L572.522 179.331L501.882 183.709L502.088 186.999Z" fill="#0074FF"/>
<path d="M572.139 173.6C576.214 173.337 579.758 176.457 579.995 180.552C580.262 184.628 577.146 188.171 573.052 188.405C568.978 188.669 565.433 185.548 565.196 181.453C564.929 177.377 568.046 173.834 572.139 173.6Z" fill="#0074FF"/>
<path d="M571.223 181.914L610.403 240.911L613.147 239.089L573.968 180.091L571.223 181.914Z" fill="#0074FF"/>
<path d="M617.965 235.889C615.693 232.468 611.08 231.535 607.661 233.805C604.243 236.075 603.314 240.689 605.586 244.11C607.858 247.531 612.471 248.465 615.889 246.195C619.308 243.925 620.237 239.311 617.965 235.889Z" fill="#0074FF"/>
<path d="M688.666 357.241L691.618 358.709L723.077 295.309L720.125 293.842L688.666 357.241Z" fill="#0074FF"/>
<path d="M696.78 361.287C694.957 364.94 690.502 366.467 686.848 364.64C683.195 362.813 681.665 358.355 683.488 354.702C685.312 351.049 689.767 349.522 693.42 351.349C697.073 353.176 698.603 357.633 696.78 361.287Z" fill="#0074FF"/>
<path d="M619.608 364.059L690.248 359.682L690.041 356.392L619.401 360.769L619.608 364.059Z" fill="#0074FF"/>
<path d="M619.977 369.804C615.902 370.067 612.358 366.947 612.121 362.852C611.883 358.757 614.97 355.233 619.064 354.999C623.138 354.735 626.683 357.855 626.92 361.951C627.187 366.027 624.07 369.57 619.977 369.804Z" fill="#0074FF"/>
<path d="M578.969 304.315L618.148 363.313L620.893 361.49L581.713 302.493L578.969 304.315Z" fill="#0074FF"/>
<path d="M586.53 299.294C584.258 295.872 579.645 294.939 576.227 297.209C572.809 299.479 571.879 304.093 574.151 307.514C576.423 310.936 581.036 311.869 584.455 309.599C587.873 307.329 588.802 302.715 586.53 299.294Z" fill="#0074FF"/>
<path d="M578.872 302.638L581.824 304.106L613.282 240.706L610.331 239.238L578.872 302.638Z" fill="#0074FF"/>
<path d="M605.159 236.688C606.982 233.035 611.437 231.508 615.09 233.335C618.744 235.162 620.274 239.62 618.45 243.273C616.627 246.926 612.172 248.453 608.519 246.626C604.865 244.799 603.335 240.341 605.159 236.688Z" fill="#0074FF"/>
<path d="M611.897 241.56L682.537 237.182L682.331 233.892L611.691 238.269L611.897 241.56Z" fill="#0074FF"/>
<path d="M681.962 228.171C686.036 227.907 689.581 231.027 689.818 235.123C690.085 239.198 686.968 242.742 682.875 242.976C678.801 243.239 675.256 240.119 675.019 236.024C674.752 231.948 677.868 228.405 681.962 228.171Z" fill="#0074FF"/>
<path d="M681.066 236.514L720.245 295.511L722.99 293.688L683.81 234.691L681.066 236.514Z" fill="#0074FF"/>
<path d="M727.807 290.489C730.077 293.908 729.147 298.526 725.731 300.795C722.315 303.063 717.698 302.129 715.428 298.71C713.157 295.291 714.087 290.673 717.503 288.405C720.919 286.136 725.536 287.07 727.807 290.489Z" fill="#0074FF"/>
<path d="M696.406 479.655L699.358 481.122L730.817 417.723L727.865 416.255L696.406 479.655Z" fill="#0074FF"/>
<path d="M704.525 483.688C702.702 487.341 698.247 488.868 694.594 487.041C690.94 485.215 689.41 480.757 691.234 477.104C693.057 473.451 697.512 471.924 701.165 473.75C704.819 475.577 706.349 480.035 704.525 483.688Z" fill="#0074FF"/>
<path d="M619.608 364.059L690.248 359.682L690.041 356.392L619.401 360.769L619.608 364.059Z" fill="#0074FF"/>
<path d="M689.678 350.592C693.752 350.328 697.297 353.448 697.534 357.544C697.801 361.619 694.684 365.163 690.591 365.397C686.516 365.66 682.972 362.54 682.735 358.445C682.468 354.369 685.584 350.826 689.678 350.592Z" fill="#0074FF"/>
<path d="M688.762 358.905L727.942 417.903L730.686 416.08L691.507 357.083L688.762 358.905Z" fill="#0074FF"/>
<path d="M735.503 412.881C733.231 409.46 728.618 408.527 725.2 410.797C721.782 413.067 720.852 417.681 723.124 421.102C725.397 424.523 730.009 425.456 733.428 423.186C736.846 420.916 737.775 416.302 735.503 412.881Z" fill="#0074FF"/>
<path d="M806.2 534.258L809.152 535.725L840.611 472.326L837.659 470.858L806.2 534.258Z" fill="#0074FF"/>
<path d="M814.338 538.307C812.515 541.961 808.06 543.488 804.407 541.661C800.753 539.834 799.223 535.376 801.046 531.723C802.87 528.07 807.325 526.543 810.978 528.37C814.631 530.196 816.162 534.654 814.338 538.307Z" fill="#0074FF"/>
<path d="M737.147 541.023L807.787 536.645L807.58 533.355L736.94 537.733L737.147 541.023Z" fill="#0074FF"/>
<path d="M737.515 546.796C733.441 547.059 729.897 543.939 729.659 539.844C729.393 535.768 732.509 532.225 736.603 531.991C740.677 531.727 744.221 534.847 744.459 538.943C744.725 543.018 741.609 546.562 737.515 546.796Z" fill="#0074FF"/>
<path d="M696.507 481.307L735.687 540.304L738.431 538.482L699.252 479.485L696.507 481.307Z" fill="#0074FF"/>
<path d="M704.069 476.286C701.797 472.864 697.184 471.931 693.765 474.201C690.347 476.471 689.418 481.085 691.69 484.506C693.962 487.928 698.575 488.861 701.993 486.591C705.412 484.321 706.341 479.707 704.069 476.286Z" fill="#0074FF"/>
<path d="M696.406 479.655L699.358 481.122L730.817 417.723L727.865 416.255L696.406 479.655Z" fill="#0074FF"/>
<path d="M722.697 413.68C724.52 410.027 728.976 408.5 732.629 410.327C736.282 412.153 737.812 416.611 735.989 420.264C734.166 423.917 729.71 425.444 726.057 423.618C722.404 421.791 720.874 417.333 722.697 413.68Z" fill="#0074FF"/>
<path d="M729.416 418.62L800.056 414.243L799.85 410.952L729.21 415.33L729.416 418.62Z" fill="#0074FF"/>
<path d="M799.501 405.162C803.575 404.899 807.119 408.019 807.357 412.114C807.594 416.21 804.507 419.733 800.413 419.968C796.339 420.231 792.795 417.111 792.557 413.016C792.291 408.94 795.407 405.397 799.501 405.162Z" fill="#0074FF"/>
<path d="M798.604 413.505L837.784 472.503L840.528 470.68L801.349 411.683L798.604 413.505Z" fill="#0074FF"/>
<path d="M845.345 467.481C843.073 464.06 838.46 463.126 835.042 465.397C831.624 467.667 830.694 472.28 832.967 475.702C835.239 479.123 839.852 480.056 843.27 477.786C846.688 475.516 847.618 470.902 845.345 467.481Z" fill="#0074FF"/>
<path d="M813.95 656.622L816.901 658.09L848.36 594.69L845.408 593.223L813.95 656.622Z" fill="#0074FF"/>
<path d="M822.064 660.68C820.241 664.333 815.786 665.86 812.132 664.033C808.479 662.206 806.949 657.748 808.772 654.095C810.595 650.442 815.051 648.915 818.704 650.742C822.357 652.569 823.887 657.027 822.064 660.68Z" fill="#0074FF"/>
<path d="M704.079 602.054L707.031 603.522L738.49 540.122L735.538 538.655L704.079 602.054Z" fill="#0074FF"/>
<path d="M730.394 536.072C732.217 532.419 736.672 530.892 740.325 532.718C743.979 534.545 745.509 539.003 743.686 542.656C741.862 546.309 737.407 547.836 733.754 546.009C730.101 544.183 728.57 539.725 730.394 536.072Z" fill="#0074FF"/>
<path d="M737.147 541.023L807.787 536.645L807.58 533.355L736.94 537.733L737.147 541.023Z" fill="#0074FF"/>
<path d="M807.217 527.583C811.291 527.32 814.835 530.44 815.073 534.535C815.339 538.611 812.223 542.154 808.129 542.389C804.055 542.652 800.511 539.532 800.273 535.437C800.007 531.361 803.123 527.818 807.217 527.583Z" fill="#0074FF"/>
<path d="M806.301 535.897L845.48 594.895L848.225 593.072L809.045 534.075L806.301 535.897Z" fill="#0074FF"/>
<path d="M853.042 589.873C850.77 586.452 846.157 585.518 842.739 587.788C839.32 590.058 838.391 594.672 840.663 598.094C842.935 601.515 847.548 602.448 850.966 600.178C854.385 597.908 855.314 593.294 853.042 589.873Z" fill="#0074FF"/>
<path d="M813.95 656.622L816.901 658.09L848.36 594.69L845.408 593.223L813.95 656.622Z" fill="#0074FF"/>
<path d="M840.236 590.672C842.059 587.019 846.514 585.492 850.168 587.318C853.821 589.145 855.351 593.603 853.528 597.256C851.704 600.909 847.249 602.436 843.596 600.609C839.943 598.783 838.413 594.325 840.236 590.672Z" fill="#0074FF"/>
<path d="M846.946 595.632L917.586 591.254L917.379 587.964L846.739 592.342L846.946 595.632Z" fill="#0074FF"/>
<path d="M917.039 582.154C921.113 581.891 924.658 585.011 924.895 589.106C925.162 593.182 922.046 596.725 917.952 596.959C913.878 597.223 910.333 594.103 910.096 590.007C909.829 585.932 912.946 582.388 917.039 582.154Z" fill="#0074FF"/>
<path d="M916.143 590.497L955.322 649.494L958.067 647.672L918.887 588.675L916.143 590.497Z" fill="#0074FF"/>
<path d="M962.884 644.473C965.155 647.892 964.224 652.51 960.809 654.778C957.393 657.047 952.776 656.112 950.505 652.694C948.235 649.275 949.165 644.657 952.581 642.388C955.997 640.12 960.614 641.054 962.884 644.473Z" fill="#0074FF"/>
<path d="M369.117 -234.854L439.758 -239.219L439.552 -242.51L368.911 -238.144L369.117 -234.854Z" fill="#0074FF"/>
<path d="M369.458 -228.973C365.384 -228.709 361.839 -231.83 361.602 -235.925C361.335 -240.001 364.451 -243.544 368.545 -243.778C372.619 -244.042 376.164 -240.921 376.401 -236.826C376.668 -232.75 373.552 -229.207 369.477 -228.944L369.458 -228.973Z" fill="#0074FF"/>
<path d="M328.43 -294.491L367.61 -235.494L370.354 -237.316L331.174 -296.313L328.43 -294.491Z" fill="#0074FF"/>
<path d="M323.613 -291.292C321.342 -294.711 322.273 -299.328 325.688 -301.597C329.104 -303.865 333.721 -302.931 335.992 -299.513C338.262 -296.094 337.332 -291.476 333.916 -289.207C330.5 -286.939 325.883 -287.873 323.613 -291.292Z" fill="#0074FF"/>
<path d="M445.885 -119.124L448.837 -117.656L480.296 -181.056L477.344 -182.523L445.885 -119.124Z" fill="#0074FF"/>
<path d="M454.006 -115.089C452.183 -111.436 447.728 -109.909 444.074 -111.736C440.421 -113.562 438.891 -118.02 440.714 -121.673C442.538 -125.326 446.993 -126.853 450.646 -125.027C454.299 -123.2 455.829 -118.742 454.006 -115.089Z" fill="#0074FF"/>
<path d="M376.79 -112.348L447.43 -116.725L447.223 -120.016L376.583 -115.638L376.79 -112.348Z" fill="#0074FF"/>
<path d="M377.183 -106.6C373.109 -106.337 369.565 -109.457 369.327 -113.552C369.061 -117.628 372.177 -121.172 376.271 -121.406C380.345 -121.669 383.889 -118.549 384.127 -114.454C384.393 -110.378 381.277 -106.835 377.183 -106.6Z" fill="#0074FF"/>
<path d="M336.146 -172.07L375.326 -113.072L378.07 -114.895L338.891 -173.892L336.146 -172.07Z" fill="#0074FF"/>
<path d="M343.708 -177.091C341.436 -180.513 336.823 -181.446 333.404 -179.176C329.986 -176.906 329.057 -172.292 331.329 -168.871C333.601 -165.449 338.214 -164.516 341.632 -166.786C345.051 -169.056 345.98 -173.67 343.708 -177.091Z" fill="#0074FF"/>
<path d="M336.015 -173.692L338.967 -172.224L370.426 -235.624L367.474 -237.091L336.015 -173.692Z" fill="#0074FF"/>
<path d="M362.336 -239.697C364.159 -243.35 368.614 -244.877 372.268 -243.05C375.921 -241.224 377.451 -236.766 375.628 -233.113C373.805 -229.46 369.349 -227.933 365.677 -229.789C362.023 -231.615 360.493 -236.073 362.317 -239.726L362.336 -239.697Z" fill="#0074FF"/>
<path d="M369.117 -234.854L439.758 -239.219L439.552 -242.51L368.911 -238.144L369.117 -234.854Z" fill="#0074FF"/>
<path d="M439.159 -248.185C443.233 -248.449 446.778 -245.329 447.015 -241.233C447.282 -237.158 444.165 -233.614 440.072 -233.38C435.997 -233.117 432.453 -236.237 432.216 -240.332C431.949 -244.408 435.065 -247.951 439.159 -248.185Z" fill="#0074FF"/>
<path d="M438.272 -239.891L477.452 -180.893L480.196 -182.716L441.017 -241.713L438.272 -239.891Z" fill="#0074FF"/>
<path d="M484.984 -185.896C482.712 -189.317 478.099 -190.25 474.681 -187.98C471.263 -185.71 470.333 -181.096 472.606 -177.675C474.878 -174.254 479.491 -173.32 482.909 -175.591C486.327 -177.861 487.256 -182.475 484.984 -185.896Z" fill="#0074FF"/>
<path d="M555.709 -64.54L558.661 -63.0725L590.12 -126.472L587.168 -127.94L555.709 -64.54Z" fill="#0074FF"/>
<path d="M563.8 -60.4989C561.977 -56.8459 557.521 -55.3189 553.868 -57.1456C550.215 -58.9724 548.685 -63.4304 550.508 -67.0835C552.331 -70.7365 556.786 -72.2635 560.44 -70.4367C564.093 -68.6099 565.623 -64.152 563.8 -60.4989Z" fill="#0074FF"/>
<path d="M486.658 -57.8537L557.299 -62.2191L557.093 -65.5093L486.453 -61.1439L486.658 -57.8537Z" fill="#0074FF"/>
<path d="M486.996 -51.9812C482.922 -51.7178 479.378 -54.8379 479.14 -58.9331C478.874 -63.009 481.99 -66.5523 486.084 -66.7865C490.158 -67.0499 493.702 -63.9297 493.94 -59.8345C494.206 -55.7586 491.09 -52.2154 486.996 -51.9812Z" fill="#0074FF"/>
<path d="M445.969 -117.499L485.148 -58.5019L487.893 -60.3245L448.713 -119.322L445.969 -117.499Z" fill="#0074FF"/>
<path d="M453.53 -122.521C451.258 -125.942 446.645 -126.875 443.227 -124.605C439.809 -122.335 438.879 -117.721 441.152 -114.3C443.424 -110.879 448.037 -109.945 451.455 -112.216C454.873 -114.486 455.803 -119.099 453.53 -122.521Z" fill="#0074FF"/>
<path d="M445.885 -119.124L448.837 -117.656L480.296 -181.056L477.344 -182.523L445.885 -119.124Z" fill="#0074FF"/>
<path d="M472.178 -185.097C474.001 -188.75 478.456 -190.277 482.11 -188.45C485.763 -186.624 487.293 -182.166 485.47 -178.513C483.647 -174.86 479.191 -173.333 475.538 -175.159C471.885 -176.986 470.355 -181.444 472.178 -185.097Z" fill="#0074FF"/>
<path d="M478.905 -180.157L549.545 -184.535L549.339 -187.825L478.699 -183.447L478.905 -180.157Z" fill="#0074FF"/>
<path d="M548.982 -193.615C553.056 -193.878 556.6 -190.758 556.838 -186.663C557.104 -182.587 553.988 -179.044 549.894 -178.809C545.82 -178.546 542.276 -181.666 542.038 -185.761C541.772 -189.837 544.888 -193.38 548.982 -193.615Z" fill="#0074FF"/>
<path d="M563.371 57.883L566.323 59.3505L597.782 -4.04897L594.83 -5.51653L563.371 57.883Z" fill="#0074FF"/>
<path d="M571.545 61.903C569.722 65.556 565.267 67.0831 561.613 65.2563C557.96 63.4295 556.43 58.9714 558.253 55.3184C560.076 51.6654 564.531 50.1383 568.185 51.9651C571.838 53.7919 573.368 58.2499 571.545 61.903Z" fill="#0074FF"/>
<path d="M494.348 64.6448L564.988 60.2672L564.782 56.9771L494.142 61.3547L494.348 64.6448Z" fill="#0074FF"/>
<path d="M494.722 70.3912C490.648 70.6547 487.103 67.5345 486.866 63.4393C486.599 59.3634 489.715 55.8201 493.809 55.5859C497.883 55.3225 501.428 58.4427 501.665 62.5379C501.932 66.6138 498.816 70.157 494.722 70.3912Z" fill="#0074FF"/>
<path d="M453.685 4.92201L492.864 63.9193L495.609 62.0967L456.429 3.09947L453.685 4.92201Z" fill="#0074FF"/>
<path d="M448.897 8.10179C446.626 4.68295 447.556 0.0650208 450.972 -2.20345C454.388 -4.4719 459.005 -3.5378 461.276 -0.118958C463.546 3.29989 462.616 7.91783 459.2 10.1863C455.784 12.4547 451.167 11.5206 448.897 8.10179Z" fill="#0074FF"/>
<path d="M453.588 3.2568L456.54 4.72429L487.999 -58.6752L485.047 -60.1428L453.588 3.2568Z" fill="#0074FF"/>
<path d="M479.875 -62.7054C481.698 -66.3584 486.153 -67.8854 489.806 -66.0586C493.46 -64.2318 494.99 -59.7738 493.166 -56.1208C491.343 -52.4678 486.888 -50.9408 483.235 -52.7675C479.581 -54.5943 478.051 -59.0523 479.875 -62.7054Z" fill="#0074FF"/>
<path d="M486.658 -57.8537L557.299 -62.2191L557.093 -65.5093L486.453 -61.1439L486.658 -57.8537Z" fill="#0074FF"/>
<path d="M556.698 -71.1936C560.772 -71.457 564.316 -68.3368 564.554 -64.2415C564.82 -60.1657 561.704 -56.6225 557.61 -56.3882C553.536 -56.1248 549.992 -59.245 549.754 -63.3402C549.488 -67.4161 552.604 -70.9593 556.698 -71.1936Z" fill="#0074FF"/>
<path d="M555.811 -62.8991L594.99 -3.90182L597.735 -5.72437L558.555 -64.7216L555.811 -62.8991Z" fill="#0074FF"/>
<path d="M602.523 -8.9041C600.251 -12.3254 595.638 -13.2587 592.219 -10.9886C588.801 -8.71855 587.872 -4.10467 590.144 -0.683328C592.416 2.73801 597.029 3.67123 600.447 1.40114C603.866 -0.868961 604.795 -5.48276 602.523 -8.9041Z" fill="#0074FF"/>
<path d="M673.224 112.448L676.176 113.915L707.635 50.5155L704.683 49.0479L673.224 112.448Z" fill="#0074FF"/>
<path d="M681.339 116.493C679.515 120.146 675.06 121.673 671.407 119.846C667.754 118.02 666.223 113.561 668.047 109.908C669.87 106.255 674.325 104.728 677.978 106.555C681.632 108.382 683.162 112.84 681.339 116.493Z" fill="#0074FF"/>
<path d="M604.155 119.306L674.795 114.929L674.589 111.639L603.949 116.016L604.155 119.306Z" fill="#0074FF"/>
<path d="M604.535 125.011C600.461 125.274 596.916 122.154 596.679 118.059C596.412 113.983 599.528 110.439 603.622 110.205C607.696 109.942 611.241 113.062 611.478 117.157C611.745 121.233 608.629 124.776 604.554 125.04L604.535 125.011Z" fill="#0074FF"/>
<path d="M563.527 59.5219L602.706 118.519L605.451 116.697L566.271 57.6994L563.527 59.5219Z" fill="#0074FF"/>
<path d="M558.71 62.721C556.439 59.3021 557.369 54.6843 560.785 52.4158C564.201 50.1474 568.818 51.0814 571.089 54.5003C573.359 57.9191 572.429 62.5371 569.013 64.8056C565.597 67.0741 560.98 66.1399 558.71 62.721Z" fill="#0074FF"/>
<path d="M563.371 57.883L566.323 59.3505L597.782 -4.04897L594.83 -5.51653L563.371 57.883Z" fill="#0074FF"/>
<path d="M589.717 -8.10538C591.54 -11.7584 595.995 -13.2854 599.648 -11.4586C603.302 -9.63178 604.832 -5.17386 603.008 -1.5208C601.185 2.13228 596.73 3.65927 593.077 1.83248C589.424 0.00568114 587.893 -4.4523 589.717 -8.10538Z" fill="#0074FF"/>
<path d="M596.434 -3.14477L667.074 -7.52252L666.868 -10.8125L596.228 -6.43489L596.434 -3.14477Z" fill="#0074FF"/>
<path d="M666.52 -16.6229C670.594 -16.8863 674.139 -13.7662 674.376 -9.67094C674.643 -5.59506 671.527 -2.05186 667.433 -1.81766C663.339 -1.58345 659.814 -4.67432 659.577 -8.76957C659.31 -12.8454 662.426 -16.3887 666.52 -16.6229Z" fill="#0074FF"/>
<path d="M680.963 234.861L683.915 236.328L715.374 172.929L712.422 171.461L680.963 234.861Z" fill="#0074FF"/>
<path d="M689.084 238.895C687.26 242.548 682.805 244.075 679.152 242.248C675.499 240.421 673.969 235.963 675.792 232.31C677.615 228.657 682.07 227.13 685.724 228.957C689.377 230.784 690.907 235.242 689.084 238.895Z" fill="#0074FF"/>
<path d="M611.897 241.56L682.537 237.182L682.331 233.892L611.691 238.269L611.897 241.56Z" fill="#0074FF"/>
<path d="M612.261 247.383C608.187 247.646 604.642 244.526 604.405 240.431C604.138 236.355 607.254 232.812 611.348 232.578C615.422 232.314 618.967 235.435 619.204 239.53C619.471 243.606 616.355 247.149 612.261 247.383Z" fill="#0074FF"/>
<path d="M571.223 181.914L610.403 240.911L613.147 239.089L573.968 180.091L571.223 181.914Z" fill="#0074FF"/>
<path d="M578.785 176.892C576.513 173.471 571.9 172.538 568.482 174.808C565.063 177.078 564.134 181.692 566.406 185.113C568.678 188.534 573.291 189.468 576.71 187.197C580.128 184.927 581.057 180.313 578.785 176.892Z" fill="#0074FF"/>
<path d="M571.151 180.254L574.103 181.722L605.562 118.322L602.61 116.854L571.151 180.254Z" fill="#0074FF"/>
<path d="M597.413 114.286C599.237 110.633 603.692 109.106 607.345 110.933C610.998 112.76 612.528 117.218 610.705 120.871C608.882 124.524 604.427 126.051 600.754 124.195C597.101 122.368 595.571 117.91 597.394 114.257L597.413 114.286Z" fill="#0074FF"/>
<path d="M604.155 119.306L674.795 114.929L674.589 111.639L603.949 116.016L604.155 119.306Z" fill="#0074FF"/>
<path d="M674.236 105.798C678.311 105.535 681.855 108.655 682.092 112.75C682.359 116.826 679.243 120.369 675.149 120.603C671.075 120.867 667.53 117.747 667.293 113.652C667.026 109.576 670.143 106.032 674.236 105.798Z" fill="#0074FF"/>
<path d="M673.35 114.093L712.529 173.09L715.274 171.267L676.094 112.27L673.35 114.093Z" fill="#0074FF"/>
<path d="M720.062 168.088C717.79 164.666 713.177 163.733 709.758 166.003C706.34 168.273 705.411 172.887 707.683 176.308C709.955 179.73 714.568 180.663 717.986 178.393C721.405 176.123 722.334 171.509 720.062 168.088Z" fill="#0074FF"/>
<path d="M790.758 289.464L793.71 290.932L825.169 227.532L822.217 226.064L790.758 289.464Z" fill="#0074FF"/>
<path d="M798.877 293.485C797.054 297.138 792.599 298.665 788.946 296.838C785.292 295.011 783.762 290.553 785.585 286.9C787.409 283.247 791.864 281.72 795.517 283.547C799.17 285.374 800.701 289.832 798.877 293.485Z" fill="#0074FF"/>
<path d="M721.761 296.176L792.401 291.811L792.196 288.521L721.555 292.886L721.761 296.176Z" fill="#0074FF"/>
<path d="M722.074 302.002C718 302.266 714.455 299.146 714.218 295.05C713.951 290.975 717.067 287.431 721.161 287.197C725.235 286.934 728.78 290.054 729.017 294.149C729.284 298.225 726.167 301.768 722.074 302.002Z" fill="#0074FF"/>
<path d="M681.066 236.514L720.245 295.511L722.99 293.688L683.81 234.691L681.066 236.514Z" fill="#0074FF"/>
<path d="M688.627 231.492C686.355 228.071 681.742 227.138 678.324 229.408C674.905 231.678 673.976 236.291 676.248 239.713C678.52 243.134 683.133 244.067 686.552 241.797C689.97 239.527 690.899 234.913 688.627 231.492Z" fill="#0074FF"/>
<path d="M680.963 234.861L683.915 236.328L715.374 172.929L712.422 171.461L680.963 234.861Z" fill="#0074FF"/>
<path d="M707.255 168.886C709.079 165.233 713.534 163.706 717.187 165.533C720.84 167.36 722.37 171.818 720.547 175.471C718.724 179.124 714.269 180.651 710.615 178.824C706.962 176.997 705.432 172.539 707.255 168.886Z" fill="#0074FF"/>
<path d="M713.983 173.77L784.623 169.392L784.417 166.102L713.777 170.48L713.983 173.77Z" fill="#0074FF"/>
<path d="M784.059 160.369C788.133 160.105 791.678 163.226 791.915 167.321C792.182 171.397 789.065 174.94 784.972 175.174C780.898 175.438 777.353 172.317 777.116 168.222C776.849 164.146 779.965 160.603 784.059 160.369Z" fill="#0074FF"/>
<path d="M783.163 168.712L822.342 227.709L825.086 225.887L785.907 166.89L783.163 168.712Z" fill="#0074FF"/>
<path d="M829.904 222.688C832.174 226.106 831.244 230.724 827.828 232.993C824.412 235.261 819.795 234.327 817.525 230.908C815.254 227.489 816.184 222.872 819.6 220.603C823.016 218.335 827.633 219.269 829.904 222.688Z" fill="#0074FF"/>
<path d="M798.478 411.848L801.43 413.316L832.889 349.916L829.937 348.449L798.478 411.848Z" fill="#0074FF"/>
<path d="M806.622 415.887C804.799 419.54 800.344 421.067 796.691 419.24C793.037 417.413 791.507 412.955 793.33 409.302C795.154 405.649 799.609 404.122 803.262 405.949C806.916 407.776 808.446 412.233 806.622 415.887Z" fill="#0074FF"/>
<path d="M729.416 418.62L800.056 414.243L799.85 410.952L729.21 415.33L729.416 418.62Z" fill="#0074FF"/>
<path d="M729.819 424.404C725.745 424.668 722.2 421.547 721.963 417.452C721.696 413.376 724.812 409.833 728.906 409.599C732.98 409.335 736.525 412.456 736.762 416.551C737.029 420.627 733.913 424.17 729.819 424.404Z" fill="#0074FF"/>
<path d="M688.762 358.905L727.942 417.903L730.686 416.08L691.507 357.083L688.762 358.905Z" fill="#0074FF"/>
<path d="M683.974 362.085C681.704 358.666 682.634 354.048 686.049 351.78C689.465 349.512 694.082 350.446 696.353 353.864C698.623 357.283 697.693 361.901 694.277 364.17C690.862 366.438 686.244 365.504 683.974 362.085Z" fill="#0074FF"/>
<path d="M688.666 357.241L691.618 358.709L723.077 295.309L720.125 293.842L688.666 357.241Z" fill="#0074FF"/>
<path d="M714.952 291.278C716.775 287.625 721.23 286.098 724.884 287.925C728.537 289.752 730.067 294.21 728.244 297.863C726.421 301.516 721.965 303.043 718.312 301.216C714.659 299.389 713.129 294.931 714.952 291.278Z" fill="#0074FF"/>
<path d="M721.761 296.176L792.401 291.811L792.196 288.521L721.555 292.886L721.761 296.176Z" fill="#0074FF"/>
<path d="M791.775 282.79C795.849 282.526 799.394 285.647 799.631 289.742C799.898 293.818 796.781 297.361 792.688 297.595C788.613 297.859 785.069 294.738 784.832 290.643C784.565 286.567 787.681 283.024 791.775 282.79Z" fill="#0074FF"/>
<path d="M790.888 291.084L830.068 350.082L832.812 348.259L793.633 289.262L790.888 291.084Z" fill="#0074FF"/>
<path d="M837.6 345.079C835.328 341.658 830.715 340.725 827.297 342.995C823.879 345.265 822.949 349.879 825.221 353.3C827.493 356.722 832.106 357.655 835.525 355.385C838.943 353.115 839.872 348.501 837.6 345.079Z" fill="#0074FF"/>
<path d="M908.302 466.432L911.253 467.899L942.712 404.5L939.76 403.032L908.302 466.432Z" fill="#0074FF"/>
<path d="M916.435 470.506C914.612 474.159 910.157 475.686 906.504 473.859C902.85 472.032 901.32 467.574 903.143 463.921C904.967 460.268 909.422 458.741 913.075 460.568C916.728 462.395 918.259 466.853 916.435 470.506Z" fill="#0074FF"/>
<path d="M839.302 473.176L909.943 468.811L909.737 465.521L839.096 469.886L839.302 473.176Z" fill="#0074FF"/>
<path d="M839.612 478.994C835.538 479.258 831.994 476.137 831.756 472.042C831.49 467.966 834.606 464.423 838.7 464.189C842.774 463.925 846.318 467.046 846.556 471.141C846.822 475.217 843.706 478.76 839.612 478.994Z" fill="#0074FF"/>
<path d="M798.604 413.505L837.784 472.503L840.528 470.68L801.349 411.683L798.604 413.505Z" fill="#0074FF"/>
<path d="M806.166 408.484C803.894 405.062 799.281 404.129 795.862 406.399C792.444 408.669 791.515 413.283 793.787 416.705C796.059 420.126 800.672 421.059 804.09 418.789C807.509 416.519 808.438 411.905 806.166 408.484Z" fill="#0074FF"/>
<path d="M798.478 411.848L801.43 413.316L832.889 349.916L829.937 348.449L798.478 411.848Z" fill="#0074FF"/>
<path d="M824.794 345.878C826.617 342.225 831.072 340.698 834.726 342.525C838.379 344.352 839.909 348.81 838.086 352.463C836.263 356.116 831.807 357.643 828.154 355.816C824.501 353.989 822.971 349.531 824.794 345.878Z" fill="#0074FF"/>
<path d="M831.503 350.83L902.143 346.453L901.936 343.163L831.296 347.54L831.503 350.83Z" fill="#0074FF"/>
<path d="M901.598 337.361C905.672 337.097 909.216 340.217 909.454 344.313C909.72 348.388 906.604 351.932 902.51 352.166C898.417 352.4 894.892 349.309 894.654 345.214C894.388 341.138 897.504 337.595 901.598 337.361Z" fill="#0074FF"/>
<path d="M900.701 345.704L939.881 404.701L942.625 402.879L903.446 343.881L900.701 345.704Z" fill="#0074FF"/>
<path d="M947.442 399.679C949.713 403.098 948.783 407.716 945.367 409.985C941.951 412.253 937.334 411.319 935.063 407.9C932.793 404.481 933.723 399.863 937.139 397.595C940.555 395.326 945.172 396.261 947.442 399.679Z" fill="#0074FF"/>
<path d="M916.041 588.845L918.993 590.313L950.452 526.913L947.5 525.446L916.041 588.845Z" fill="#0074FF"/>
<path d="M924.161 592.878C922.338 596.531 917.883 598.058 914.229 596.231C910.576 594.405 909.046 589.947 910.869 586.294C912.692 582.641 917.148 581.114 920.801 582.94C924.454 584.767 925.984 589.225 924.161 592.878Z" fill="#0074FF"/>
<path d="M846.946 595.632L917.586 591.254L917.379 587.964L846.739 592.342L846.946 595.632Z" fill="#0074FF"/>
<path d="M847.358 601.396C843.283 601.659 839.739 598.539 839.501 594.444C839.235 590.368 842.351 586.825 846.445 586.59C850.519 586.327 854.064 589.447 854.301 593.542C854.568 597.618 851.451 601.162 847.358 601.396Z" fill="#0074FF"/>
<path d="M806.301 535.897L845.48 594.895L848.225 593.072L809.045 534.075L806.301 535.897Z" fill="#0074FF"/>
<path d="M813.862 530.876C811.59 527.454 806.977 526.521 803.559 528.791C800.141 531.061 799.211 535.675 801.484 539.096C803.756 542.518 808.369 543.451 811.787 541.181C815.205 538.911 816.135 534.297 813.862 530.876Z" fill="#0074FF"/>
<path d="M806.2 534.258L809.152 535.725L840.611 472.326L837.659 470.858L806.2 534.258Z" fill="#0074FF"/>
<path d="M832.491 468.27C834.314 464.617 838.769 463.09 842.422 464.917C846.076 466.743 847.606 471.201 845.782 474.854C843.959 478.507 839.504 480.034 835.851 478.208C832.197 476.381 830.667 471.923 832.491 468.27Z" fill="#0074FF"/>
<path d="M839.302 473.176L909.943 468.811L909.737 465.521L839.096 469.886L839.302 473.176Z" fill="#0074FF"/>
<path d="M909.313 459.782C913.388 459.518 916.932 462.638 917.17 466.734C917.436 470.809 914.32 474.353 910.226 474.587C906.152 474.85 902.608 471.73 902.37 467.635C902.104 463.559 905.22 460.016 909.313 459.782Z" fill="#0074FF"/>
<path d="M908.427 468.076L947.607 527.073L950.351 525.251L911.171 466.254L908.427 468.076Z" fill="#0074FF"/>
<path d="M955.139 522.071C952.867 518.65 948.254 517.717 944.836 519.987C941.417 522.257 940.488 526.871 942.76 530.292C945.032 533.713 949.645 534.646 953.063 532.376C956.482 530.106 957.411 525.492 955.139 522.071Z" fill="#0074FF"/>
<path d="M1025.84 643.449L1028.79 644.916L1060.25 581.516L1057.29 580.049L1025.84 643.449Z" fill="#0074FF"/>
<path d="M1033.97 647.497C1032.15 651.151 1027.7 652.678 1024.04 650.851C1020.39 649.024 1018.86 644.566 1020.68 640.913C1022.51 637.26 1026.96 635.733 1030.61 637.56C1034.27 639.386 1035.8 643.844 1033.97 647.497Z" fill="#0074FF"/>
<path d="M956.762 650.245L1027.4 645.867L1027.2 642.577L956.556 646.955L956.762 650.245Z" fill="#0074FF"/>
<path d="M957.151 655.986C953.077 656.249 949.532 653.129 949.295 649.034C949.028 644.958 952.145 641.415 956.238 641.181C960.312 640.917 963.857 644.037 964.094 648.133C964.361 652.208 961.245 655.752 957.151 655.986Z" fill="#0074FF"/>
<path d="M916.143 590.497L955.322 649.494L958.067 647.672L918.887 588.675L916.143 590.497Z" fill="#0074FF"/>
<path d="M923.705 585.476C921.433 582.054 916.819 581.121 913.401 583.391C909.983 585.661 909.054 590.275 911.326 593.696C913.598 597.118 918.211 598.051 921.629 595.781C925.047 593.511 925.977 588.897 923.705 585.476Z" fill="#0074FF"/>
<path d="M916.041 588.845L918.993 590.313L950.452 526.913L947.5 525.446L916.041 588.845Z" fill="#0074FF"/>
<path d="M942.333 522.87C944.156 519.217 948.611 517.69 952.264 519.517C955.918 521.343 957.448 525.801 955.625 529.454C953.801 533.107 949.346 534.634 945.693 532.808C942.04 530.981 940.51 526.523 942.333 522.87Z" fill="#0074FF"/>
<path d="M949.042 527.794L1019.68 523.416L1019.48 520.126L948.835 524.504L949.042 527.794Z" fill="#0074FF"/>
<path d="M1019.14 514.352C1023.21 514.089 1026.76 517.209 1026.99 521.304C1027.26 525.38 1024.14 528.923 1020.05 529.158C1015.97 529.421 1012.43 526.301 1012.19 522.206C1011.93 518.13 1015.04 514.587 1019.14 514.352Z" fill="#0074FF"/>
<path d="M1018.24 522.696L1057.42 581.693L1060.16 579.87L1020.98 520.873L1018.24 522.696Z" fill="#0074FF"/>
<path d="M1064.98 576.671C1067.25 580.09 1066.32 584.708 1062.91 586.976C1059.49 589.245 1054.87 588.311 1052.6 584.892C1050.33 581.473 1051.26 576.855 1054.68 574.587C1058.09 572.318 1062.71 573.252 1064.98 576.671Z" fill="#0074FF"/>
<path d="M956.762 650.245L1027.4 645.867L1027.2 642.577L956.556 646.955L956.762 650.245Z" fill="#0074FF"/>
<path d="M1026.85 636.773C1030.93 636.51 1034.47 639.63 1034.71 643.725C1034.97 647.801 1031.86 651.345 1027.77 651.579C1023.69 651.842 1020.15 648.722 1019.91 644.627C1019.64 640.551 1022.76 637.008 1026.85 636.773Z" fill="#0074FF"/>
<path d="M1025.97 645.068L1065.15 704.065L1067.89 702.243L1028.71 643.245L1025.97 645.068Z" fill="#0074FF"/>
<path d="M1072.68 699.063C1070.41 695.642 1065.79 694.708 1062.37 696.978C1058.96 699.248 1058.03 703.862 1060.3 707.284C1062.57 710.705 1067.18 711.638 1070.6 709.368C1074.02 707.098 1074.95 702.484 1072.68 699.063Z" fill="#0074FF"/>
<path d="M478.905 -180.157L549.545 -184.535L549.339 -187.825L478.699 -183.447L478.905 -180.157Z" fill="#0074FF"/>
<path d="M479.28 -174.402C475.206 -174.139 471.662 -177.259 471.424 -181.354C471.158 -185.43 474.274 -188.973 478.368 -189.208C482.442 -189.471 485.986 -186.351 486.224 -182.256C486.49 -178.18 483.374 -174.637 479.28 -174.402Z" fill="#0074FF"/>
<path d="M438.272 -239.891L477.452 -180.893L480.196 -182.716L441.017 -241.713L438.272 -239.891Z" fill="#0074FF"/>
<path d="M445.805 -244.893C443.533 -248.314 438.92 -249.248 435.501 -246.978C432.083 -244.707 431.154 -240.094 433.426 -236.672C435.698 -233.251 440.311 -232.318 443.729 -234.588C447.148 -236.858 448.077 -241.472 445.805 -244.893Z" fill="#0074FF"/>
<path d="M596.434 -3.14477L667.074 -7.52252L666.868 -10.8125L596.228 -6.43489L596.434 -3.14477Z" fill="#0074FF"/>
<path d="M596.819 2.58945C592.745 2.8529 589.2 -0.267209 588.963 -4.36246C588.696 -8.43832 591.813 -11.9816 595.906 -12.2158C599.981 -12.4792 603.525 -9.35908 603.763 -5.26382C604.029 -1.18795 600.913 2.35525 596.819 2.58945Z" fill="#0074FF"/>
<path d="M555.811 -62.8991L594.99 -3.90182L597.735 -5.72437L558.555 -64.7216L555.811 -62.8991Z" fill="#0074FF"/>
<path d="M550.994 -59.7C548.723 -63.1188 549.653 -67.7367 553.069 -70.0052C556.485 -72.2736 561.102 -71.3395 563.373 -67.9207C565.643 -64.5018 564.713 -59.8839 561.297 -57.6155C557.881 -55.347 553.264 -56.2811 550.994 -59.7Z" fill="#0074FF"/>
<path d="M555.709 -64.54L558.661 -63.0725L590.12 -126.472L587.168 -127.94L555.709 -64.54Z" fill="#0074FF"/>
<path d="M581.972 -130.507C583.795 -134.16 588.25 -135.687 591.903 -133.86C595.557 -132.033 597.087 -127.576 595.263 -123.922C593.44 -120.269 588.985 -118.742 585.332 -120.569C581.678 -122.396 580.148 -126.854 581.972 -130.507Z" fill="#0074FF"/>
<path d="M783.065 167.035L786.017 168.503L817.476 105.103L814.524 103.635L783.065 167.035Z" fill="#0074FF"/>
<path d="M791.181 171.093C789.357 174.746 784.902 176.273 781.249 174.446C777.596 172.619 776.066 168.162 777.889 164.508C779.712 160.855 784.167 159.328 787.821 161.155C791.474 162.982 793.004 167.44 791.181 171.093Z" fill="#0074FF"/>
<path d="M713.983 173.77L784.623 169.392L784.417 166.102L713.777 170.48L713.983 173.77Z" fill="#0074FF"/>
<path d="M714.358 179.581C710.284 179.845 706.739 176.725 706.502 172.629C706.235 168.553 709.351 165.01 713.445 164.776C717.519 164.513 721.064 167.633 721.301 171.728C721.568 175.804 718.452 179.347 714.358 179.581Z" fill="#0074FF"/>
<path d="M673.35 114.093L712.529 173.09L715.274 171.267L676.094 112.27L673.35 114.093Z" fill="#0074FF"/>
<path d="M680.882 109.09C678.61 105.669 673.997 104.736 670.579 107.006C667.16 109.276 666.231 113.89 668.503 117.311C670.775 120.732 675.388 121.666 678.807 119.396C682.225 117.126 683.154 112.512 680.882 109.09Z" fill="#0074FF"/>
<path d="M673.224 112.448L676.176 113.915L707.635 50.5155L704.683 49.0479L673.224 112.448Z" fill="#0074FF"/>
<path d="M699.51 46.4847C701.334 42.8316 705.789 41.3046 709.442 43.1314C713.095 44.9582 714.625 49.4162 712.802 53.0692C710.979 56.7223 706.524 58.2493 702.851 56.3932C699.198 54.5664 697.668 50.1086 699.491 46.4555L699.51 46.4847Z" fill="#0074FF"/>
<path d="M823.849 228.356L894.49 223.991L894.284 220.7L823.643 225.066L823.849 228.356Z" fill="#0074FF"/>
<path d="M824.171 234.201C820.096 234.464 816.552 231.344 816.315 227.249C816.048 223.173 819.164 219.629 823.258 219.395C827.332 219.132 830.877 222.252 831.114 226.347C831.351 230.443 828.264 233.966 824.171 234.201Z" fill="#0074FF"/>
<path d="M783.163 168.712L822.342 227.709L825.086 225.887L785.907 166.89L783.163 168.712Z" fill="#0074FF"/>
<path d="M778.345 171.911C776.075 168.492 777.005 163.874 780.421 161.606C783.837 159.337 788.454 160.271 790.724 163.69C792.995 167.109 792.065 171.727 788.649 173.996C785.233 176.264 780.616 175.33 778.345 171.911Z" fill="#0074FF"/>
<path d="M783.065 167.035L786.017 168.503L817.476 105.103L814.524 103.635L783.065 167.035Z" fill="#0074FF"/>
<path d="M809.352 101.085C811.176 97.4317 815.631 95.9047 819.284 97.7315C822.938 99.5583 824.468 104.016 822.644 107.669C820.821 111.322 816.366 112.849 812.713 111.023C809.059 109.196 807.529 104.738 809.352 101.085Z" fill="#0074FF"/>
<path d="M900.599 344.051L903.551 345.519L935.01 282.12L932.058 280.652L900.599 344.051Z" fill="#0074FF"/>
<path d="M908.719 348.085C906.896 351.738 902.441 353.265 898.788 351.438C895.134 349.611 893.604 345.153 895.428 341.5C897.251 337.847 901.706 336.32 905.359 338.147C909.013 339.974 910.543 344.432 908.719 348.085Z" fill="#0074FF"/>
<path d="M831.503 350.83L902.143 346.453L901.936 343.163L831.296 347.54L831.503 350.83Z" fill="#0074FF"/>
<path d="M831.916 356.602C827.842 356.866 824.297 353.746 824.06 349.65C823.793 345.574 826.909 342.031 831.003 341.797C835.077 341.534 838.622 344.654 838.859 348.749C839.126 352.825 836.01 356.368 831.916 356.602Z" fill="#0074FF"/>
<path d="M790.888 291.084L830.068 350.082L832.812 348.259L793.633 289.262L790.888 291.084Z" fill="#0074FF"/>
<path d="M786.071 294.283C783.801 290.865 784.731 286.247 788.147 283.978C791.562 281.71 796.18 282.644 798.45 286.063C800.72 289.482 799.79 294.099 796.374 296.368C792.959 298.636 788.341 297.702 786.071 294.283Z" fill="#0074FF"/>
<path d="M790.758 289.464L793.71 290.932L825.169 227.532L822.217 226.064L790.758 289.464Z" fill="#0074FF"/>
<path d="M817.049 223.477C818.872 219.823 823.327 218.296 826.981 220.123C830.634 221.95 832.164 226.408 830.341 230.061C828.518 233.714 824.062 235.241 820.409 233.414C816.756 231.587 815.226 227.13 817.049 223.477Z" fill="#0074FF"/>
<path d="M823.849 228.356L894.49 223.991L894.284 220.7L823.643 225.066L823.849 228.356Z" fill="#0074FF"/>
<path d="M893.872 214.988C897.946 214.725 901.491 217.845 901.728 221.94C901.995 226.016 898.878 229.559 894.785 229.793C890.71 230.057 887.166 226.937 886.928 222.842C886.662 218.766 889.778 215.222 893.872 214.988Z" fill="#0074FF"/>
<path d="M892.985 223.283L932.165 282.28L934.909 280.457L895.73 221.46L892.985 223.283Z" fill="#0074FF"/>
<path d="M939.727 277.258C937.454 273.837 932.841 272.904 929.423 275.174C926.005 277.444 925.075 282.058 927.348 285.479C929.62 288.9 934.233 289.834 937.651 287.564C941.069 285.293 941.999 280.68 939.727 277.258Z" fill="#0074FF"/>
<path d="M1010.39 398.655L1013.35 400.122L1044.8 336.723L1041.85 335.255L1010.39 398.655Z" fill="#0074FF"/>
<path d="M1018.53 402.704C1016.71 406.357 1012.25 407.884 1008.6 406.057C1004.95 404.231 1003.42 399.773 1005.27 396.1C1007.09 392.447 1011.55 390.92 1015.2 392.747C1018.85 394.574 1020.38 399.032 1018.56 402.685L1018.53 402.704Z" fill="#0074FF"/>
<path d="M941.39 405.356L1012.03 400.991L1011.83 397.701L941.184 402.066L941.39 405.356Z" fill="#0074FF"/>
<path d="M941.709 411.192C937.635 411.456 934.091 408.336 933.853 404.24C933.586 400.164 936.703 396.621 940.796 396.387C944.871 396.124 948.415 399.244 948.653 403.339C948.919 407.415 945.803 410.958 941.709 411.192Z" fill="#0074FF"/>
<path d="M900.701 345.704L939.881 404.701L942.625 402.879L903.446 343.881L900.701 345.704Z" fill="#0074FF"/>
<path d="M895.884 348.903C893.613 345.484 894.544 340.866 897.959 338.598C901.375 336.329 905.992 337.263 908.263 340.682C910.533 344.101 909.603 348.719 906.187 350.987C902.771 353.256 898.154 352.322 895.884 348.903Z" fill="#0074FF"/>
<path d="M900.599 344.051L903.551 345.519L935.01 282.12L932.058 280.652L900.599 344.051Z" fill="#0074FF"/>
<path d="M926.891 278.076C928.714 274.423 933.169 272.896 936.823 274.723C940.476 276.55 942.006 281.008 940.183 284.661C938.36 288.314 933.904 289.841 930.251 288.014C926.598 286.187 925.068 281.729 926.891 278.076Z" fill="#0074FF"/>
<path d="M933.618 283.021L1004.26 278.644L1004.05 275.354L933.412 279.731L933.618 283.021Z" fill="#0074FF"/>
<path d="M1003.69 269.559C1007.77 269.296 1011.31 272.416 1011.58 276.492C1011.85 280.567 1008.73 284.111 1004.64 284.345C1000.56 284.608 997.018 281.488 996.78 277.393C996.514 273.317 999.63 269.774 1003.72 269.539L1003.69 269.559Z" fill="#0074FF"/>
<path d="M1002.8 277.902L1041.98 336.899L1044.72 335.077L1005.54 276.08L1002.8 277.902Z" fill="#0074FF"/>
<path d="M1049.54 331.878C1047.27 328.456 1042.65 327.523 1039.24 329.793C1035.82 332.063 1034.89 336.677 1037.16 340.098C1039.43 343.52 1044.05 344.453 1047.46 342.183C1050.88 339.913 1051.81 335.299 1049.54 331.878Z" fill="#0074FF"/>
<path d="M1018.14 521.019L1021.09 522.487L1052.55 459.087L1049.6 457.62L1018.14 521.019Z" fill="#0074FF"/>
<path d="M1026.26 525.076C1024.43 528.73 1019.98 530.257 1016.33 528.43C1012.67 526.603 1011.14 522.145 1012.97 518.492C1014.79 514.839 1019.24 513.312 1022.9 515.139C1026.55 516.965 1028.08 521.423 1026.26 525.076Z" fill="#0074FF"/>
<path d="M949.042 527.794L1019.68 523.416L1019.48 520.126L948.835 524.504L949.042 527.794Z" fill="#0074FF"/>
<path d="M949.455 533.594C945.38 533.857 941.836 530.737 941.598 526.642C941.332 522.566 944.448 519.023 948.542 518.789C952.616 518.525 956.16 521.645 956.398 525.741C956.664 529.816 953.548 533.36 949.455 533.594Z" fill="#0074FF"/>
<path d="M908.427 468.076L947.607 527.073L950.351 525.251L911.171 466.254L908.427 468.076Z" fill="#0074FF"/>
<path d="M915.959 463.074C913.687 459.653 909.074 458.719 905.656 460.989C902.238 463.259 901.308 467.873 903.581 471.295C905.853 474.716 910.466 475.649 913.884 473.379C917.302 471.109 918.232 466.495 915.959 463.074Z" fill="#0074FF"/>
<path d="M908.302 466.432L911.253 467.899L942.712 404.5L939.76 403.032L908.302 466.432Z" fill="#0074FF"/>
<path d="M934.588 400.468C936.411 396.815 940.866 395.288 944.519 397.115C948.173 398.942 949.703 403.4 947.879 407.053C946.056 410.706 941.601 412.233 937.948 410.406C934.294 408.579 932.764 404.121 934.588 400.468Z" fill="#0074FF"/>
<path d="M941.39 405.356L1012.03 400.991L1011.83 397.701L941.184 402.066L941.39 405.356Z" fill="#0074FF"/>
<path d="M1011.41 391.98C1015.48 391.716 1019.03 394.837 1019.27 398.932C1019.53 403.008 1016.42 406.551 1012.32 406.785C1008.25 407.049 1004.7 403.928 1004.47 399.833C1004.2 395.757 1007.32 392.214 1011.41 391.98Z" fill="#0074FF"/>
<path d="M1010.52 400.274L1049.7 459.272L1052.45 457.449L1013.27 398.452L1010.52 400.274Z" fill="#0074FF"/>
<path d="M1057.27 454.25C1054.99 450.829 1050.38 449.895 1046.96 452.166C1043.54 454.436 1042.61 459.05 1044.89 462.471C1047.16 465.892 1051.77 466.825 1055.19 464.555C1058.61 462.285 1059.54 457.671 1057.27 454.25Z" fill="#0074FF"/>
<path d="M1127.91 575.642L1130.86 577.11L1162.32 513.71L1159.37 512.242L1127.91 575.642Z" fill="#0074FF"/>
<path d="M1136.07 579.696C1134.25 583.349 1129.79 584.876 1126.14 583.049C1122.49 581.222 1120.96 576.764 1122.81 573.092C1124.63 569.439 1129.09 567.912 1132.74 569.739C1136.39 571.565 1137.92 576.023 1136.1 579.676L1136.07 579.696Z" fill="#0074FF"/>
<path d="M1058.88 582.436L1129.52 578.058L1129.31 574.768L1058.67 579.146L1058.88 582.436Z" fill="#0074FF"/>
<path d="M1059.25 588.184C1055.17 588.447 1051.63 585.327 1051.39 581.232C1051.13 577.156 1054.24 573.613 1058.34 573.379C1062.41 573.115 1065.95 576.236 1066.19 580.331C1066.43 584.426 1063.34 587.95 1059.25 588.184Z" fill="#0074FF"/>
<path d="M1018.24 522.696L1057.42 581.693L1060.16 579.87L1020.98 520.873L1018.24 522.696Z" fill="#0074FF"/>
<path d="M1013.42 525.895C1011.15 522.476 1012.08 517.858 1015.5 515.589C1018.91 513.321 1023.53 514.255 1025.8 517.674C1028.07 521.093 1027.14 525.711 1023.73 527.979C1020.31 530.248 1015.69 529.313 1013.42 525.895Z" fill="#0074FF"/>
<path d="M1018.14 521.019L1021.09 522.487L1052.55 459.087L1049.6 457.62L1018.14 521.019Z" fill="#0074FF"/>
<path d="M1044.43 455.068C1046.25 451.415 1050.71 449.888 1054.36 451.715C1058.01 453.542 1059.54 458 1057.72 461.653C1055.9 465.306 1051.44 466.833 1047.79 465.006C1044.14 463.179 1042.61 458.721 1044.43 455.068Z" fill="#0074FF"/>
<path d="M1051.16 460.002L1121.8 455.624L1121.6 452.334L1050.96 456.712L1051.16 460.002Z" fill="#0074FF"/>
<path d="M1121.23 446.551C1125.31 446.287 1128.85 449.407 1129.12 453.483C1129.39 457.559 1126.27 461.102 1122.18 461.337C1118.1 461.6 1114.56 458.48 1114.32 454.385C1114.05 450.309 1117.17 446.765 1121.26 446.531L1121.23 446.551Z" fill="#0074FF"/>
<path d="M1120.34 454.894L1159.52 513.891L1162.26 512.069L1123.08 453.071L1120.34 454.894Z" fill="#0074FF"/>
<path d="M1167.08 508.869C1169.35 512.288 1168.42 516.906 1165 519.175C1161.59 521.443 1156.97 520.509 1154.7 517.09C1152.43 513.671 1153.36 509.053 1156.77 506.785C1160.19 504.516 1164.81 505.451 1167.08 508.869Z" fill="#0074FF"/>
<path d="M1025.97 645.068L1065.15 704.065L1067.89 702.243L1028.71 643.245L1025.97 645.068Z" fill="#0074FF"/>
<path d="M1021.15 648.267C1018.88 644.848 1019.81 640.23 1023.22 637.962C1026.64 635.693 1031.26 636.627 1033.53 640.046C1035.8 643.465 1034.87 648.083 1031.45 650.351C1028.04 652.62 1023.42 651.686 1021.15 648.267Z" fill="#0074FF"/>
<path d="M1025.84 643.449L1028.79 644.916L1060.25 581.516L1057.29 580.049L1025.84 643.449Z" fill="#0074FF"/>
<path d="M1052.13 577.46C1053.95 573.807 1058.4 572.28 1062.06 574.107C1065.71 575.934 1067.24 580.392 1065.42 584.045C1063.59 587.698 1059.14 589.225 1055.49 587.398C1051.83 585.571 1050.3 581.113 1052.13 577.46Z" fill="#0074FF"/>
<path d="M1058.88 582.436L1129.52 578.058L1129.31 574.768L1058.67 579.146L1058.88 582.436Z" fill="#0074FF"/>
<path d="M1128.95 568.972C1133.02 568.708 1136.57 571.828 1136.81 575.924C1137.07 580 1133.96 583.543 1129.86 583.777C1125.79 584.04 1122.24 580.92 1122.01 576.825C1121.74 572.749 1124.86 569.206 1128.95 568.972Z" fill="#0074FF"/>
<path d="M1128.06 577.266L1167.24 636.263L1169.99 634.441L1130.81 575.444L1128.06 577.266Z" fill="#0074FF"/>
<path d="M1174.8 631.242C1172.53 627.821 1167.92 626.887 1164.5 629.157C1161.08 631.427 1160.15 636.041 1162.42 639.463C1164.7 642.884 1169.31 643.817 1172.73 641.547C1176.15 639.277 1177.08 634.663 1174.8 631.242Z" fill="#0074FF"/>
<path d="M1002.7 276.226L1005.65 277.693L1037.11 214.294L1034.16 212.826L1002.7 276.226Z" fill="#0074FF"/>
<path d="M1010.82 280.283C1008.99 283.936 1004.54 285.463 1000.88 283.636C997.231 281.81 995.701 277.352 997.524 273.699C999.348 270.046 1003.8 268.519 1007.46 270.345C1011.11 272.172 1012.64 276.63 1010.82 280.283Z" fill="#0074FF"/>
<path d="M933.618 283.021L1004.26 278.644L1004.05 275.354L933.412 279.731L933.618 283.021Z" fill="#0074FF"/>
<path d="M934.013 288.801C929.939 289.064 926.394 285.944 926.127 281.868C925.861 277.792 928.977 274.249 933.071 274.015C937.145 273.751 940.69 276.871 940.927 280.967C941.194 285.042 938.077 288.586 933.984 288.82L934.013 288.801Z" fill="#0074FF"/>
<path d="M892.985 223.283L932.165 282.28L934.909 280.457L895.73 221.46L892.985 223.283Z" fill="#0074FF"/>
<path d="M888.168 226.482C885.898 223.063 886.828 218.445 890.243 216.177C893.659 213.908 898.276 214.842 900.547 218.261C902.817 221.68 901.887 226.298 898.471 228.566C895.056 230.835 890.438 229.901 888.168 226.482Z" fill="#0074FF"/>
<path d="M995.082 155.481L1034.26 214.478L1037.01 212.656L997.827 153.658L995.082 155.481Z" fill="#0074FF"/>
<path d="M1041.79 209.476C1044.06 212.895 1043.13 217.513 1039.72 219.781C1036.3 222.05 1031.69 221.116 1029.42 217.697C1027.14 214.278 1028.08 209.66 1031.49 207.392C1034.91 205.123 1039.52 206.057 1041.79 209.476Z" fill="#0074FF"/>
<path d="M1112.49 330.829L1115.45 332.296L1146.91 268.897L1143.95 267.429L1112.49 330.829Z" fill="#0074FF"/>
<path d="M1120.63 334.902C1118.81 338.555 1114.35 340.082 1110.7 338.256C1107.04 336.429 1105.51 331.971 1107.34 328.318C1109.16 324.665 1113.62 323.138 1117.27 324.965C1120.92 326.791 1122.45 331.249 1120.63 334.902Z" fill="#0074FF"/>
<path d="M1043.44 337.634L1114.08 333.257L1113.87 329.967L1043.23 334.344L1043.44 337.634Z" fill="#0074FF"/>
<path d="M1043.81 343.391C1039.73 343.654 1036.19 340.534 1035.95 336.439C1035.68 332.363 1038.8 328.82 1042.89 328.585C1046.97 328.322 1050.51 331.442 1050.75 335.537C1051.02 339.613 1047.9 343.156 1043.81 343.391Z" fill="#0074FF"/>
<path d="M1002.8 277.902L1041.98 336.899L1044.72 335.077L1005.54 276.08L1002.8 277.902Z" fill="#0074FF"/>
<path d="M1010.36 272.88C1008.09 269.459 1003.47 268.526 1000.06 270.796C996.638 273.066 995.709 277.68 997.981 281.101C1000.25 284.522 1004.87 285.456 1008.28 283.186C1011.7 280.916 1012.63 276.302 1010.36 272.88Z" fill="#0074FF"/>
<path d="M1002.7 276.226L1005.65 277.693L1037.11 214.294L1034.16 212.826L1002.7 276.226Z" fill="#0074FF"/>
<path d="M1028.99 210.275C1030.81 206.622 1035.27 205.095 1038.92 206.921C1042.57 208.748 1044.1 213.206 1042.28 216.859C1040.46 220.512 1036 222.039 1032.35 220.212C1028.69 218.386 1027.16 213.928 1028.99 210.275Z" fill="#0074FF"/>
<path d="M1035.78 215.144L1106.42 210.778L1106.21 207.488L1035.57 211.853L1035.78 215.144Z" fill="#0074FF"/>
<path d="M1105.79 201.757C1109.87 201.494 1113.41 204.614 1113.65 208.709C1113.91 212.785 1110.8 216.328 1106.7 216.562C1102.63 216.826 1099.09 213.706 1098.85 209.61C1098.58 205.535 1101.7 201.991 1105.79 201.757Z" fill="#0074FF"/>
<path d="M1104.9 210.1L1144.07 269.098L1146.82 267.275L1107.64 208.278L1104.9 210.1Z" fill="#0074FF"/>
<path d="M1151.64 264.076C1149.36 260.655 1144.75 259.721 1141.33 261.991C1137.91 264.262 1136.99 268.875 1139.26 272.297C1141.53 275.718 1146.14 276.651 1149.56 274.381C1152.98 272.111 1153.91 267.497 1151.64 264.076Z" fill="#0074FF"/>
<path d="M1120.23 453.242L1123.19 454.71L1154.65 391.31L1151.69 389.843L1120.23 453.242Z" fill="#0074FF"/>
<path d="M1128.35 457.275C1126.53 460.928 1122.08 462.455 1118.42 460.628C1114.77 458.801 1113.24 454.343 1115.06 450.69C1116.89 447.037 1121.34 445.51 1124.99 447.337C1128.65 449.164 1130.18 453.622 1128.35 457.275Z" fill="#0074FF"/>
<path d="M1051.16 460.002L1121.8 455.624L1121.6 452.334L1050.96 456.712L1051.16 460.002Z" fill="#0074FF"/>
<path d="M1051.55 465.792C1047.48 466.056 1043.93 462.936 1043.67 458.86C1043.4 454.784 1046.52 451.241 1050.61 451.006C1054.68 450.743 1058.23 453.863 1058.47 457.958C1058.73 462.034 1055.62 465.578 1051.52 465.812L1051.55 465.792Z" fill="#0074FF"/>
<path d="M1010.52 400.274L1049.7 459.272L1052.45 457.449L1013.27 398.452L1010.52 400.274Z" fill="#0074FF"/>
<path d="M1018.09 395.253C1015.81 391.832 1011.2 390.898 1007.78 393.168C1004.36 395.438 1003.43 400.052 1005.71 403.474C1007.98 406.895 1012.59 407.828 1016.01 405.558C1019.43 403.288 1020.36 398.674 1018.09 395.253Z" fill="#0074FF"/>
<path d="M1010.39 398.655L1013.35 400.122L1044.8 336.723L1041.85 335.255L1010.39 398.655Z" fill="#0074FF"/>
<path d="M1036.68 332.666C1038.51 329.013 1042.96 327.486 1046.62 329.313C1050.27 331.14 1051.8 335.598 1049.95 339.27C1048.12 342.923 1043.67 344.45 1040.02 342.624C1036.36 340.797 1034.83 336.339 1036.66 332.686L1036.68 332.666Z" fill="#0074FF"/>
<path d="M1043.44 337.634L1114.08 333.257L1113.87 329.967L1043.23 334.344L1043.44 337.634Z" fill="#0074FF"/>
<path d="M1113.51 324.178C1117.58 323.915 1121.13 327.035 1121.36 331.13C1121.63 335.206 1118.51 338.749 1114.42 338.984C1110.35 339.247 1106.8 336.127 1106.56 332.032C1106.3 327.956 1109.41 324.412 1113.51 324.178Z" fill="#0074FF"/>
<path d="M1112.62 332.473L1151.8 391.47L1154.54 389.647L1115.37 330.65L1112.62 332.473Z" fill="#0074FF"/>
<path d="M1159.33 386.468C1161.6 389.887 1160.67 394.505 1157.26 396.773C1153.84 399.041 1149.22 398.107 1146.95 394.688C1144.68 391.27 1145.61 386.652 1149.03 384.383C1152.45 382.115 1157.06 383.049 1159.33 386.468Z" fill="#0074FF"/>
<path d="M1161.02 514.607L1231.66 510.23L1231.46 506.94L1160.82 511.317L1161.02 514.607Z" fill="#0074FF"/>
<path d="M1161.34 520.382C1157.27 520.646 1153.73 517.526 1153.49 513.43C1153.22 509.355 1156.34 505.811 1160.43 505.577C1164.51 505.314 1168.05 508.434 1168.29 512.529C1168.55 516.605 1165.44 520.148 1161.34 520.382Z" fill="#0074FF"/>
<path d="M1120.34 454.894L1159.52 513.891L1162.26 512.069L1123.08 453.071L1120.34 454.894Z" fill="#0074FF"/>
<path d="M1127.9 449.872C1125.63 446.451 1121.01 445.518 1117.6 447.788C1114.18 450.058 1113.25 454.672 1115.52 458.093C1117.79 461.514 1122.4 462.448 1125.82 460.177C1129.24 457.907 1130.17 453.294 1127.9 449.872Z" fill="#0074FF"/>
<path d="M1120.23 453.242L1123.19 454.71L1154.65 391.31L1151.69 389.843L1120.23 453.242Z" fill="#0074FF"/>
<path d="M1146.53 387.266C1148.35 383.613 1152.81 382.086 1156.46 383.913C1160.11 385.74 1161.64 390.198 1159.82 393.851C1158 397.504 1153.54 399.031 1149.89 397.204C1146.23 395.377 1144.7 390.919 1146.53 387.266Z" fill="#0074FF"/>
<path d="M1153.29 392.163L1223.93 387.798L1223.72 384.508L1153.08 388.873L1153.29 392.163Z" fill="#0074FF"/>
<path d="M1223.33 378.749C1227.4 378.486 1230.95 381.606 1231.19 385.701C1231.45 389.777 1228.34 393.32 1224.24 393.554C1220.17 393.818 1216.62 390.698 1216.39 386.602C1216.12 382.526 1219.24 378.983 1223.33 378.749Z" fill="#0074FF"/>
<path d="M1128.06 577.266L1167.24 636.263L1169.99 634.441L1130.81 575.444L1128.06 577.266Z" fill="#0074FF"/>
<path d="M1123.25 580.465C1120.97 577.046 1121.9 572.429 1125.32 570.16C1128.74 567.892 1133.35 568.826 1135.62 572.245C1137.89 575.663 1136.96 580.281 1133.55 582.55C1130.13 584.818 1125.52 583.884 1123.25 580.465Z" fill="#0074FF"/>
<path d="M1127.91 575.642L1130.86 577.11L1162.32 513.71L1159.37 512.242L1127.91 575.642Z" fill="#0074FF"/>
<path d="M1154.22 509.658C1156.05 506.005 1160.5 504.478 1164.16 506.305C1167.81 508.132 1169.34 512.59 1167.49 516.262C1165.66 519.915 1161.21 521.442 1157.55 519.616C1153.9 517.789 1152.37 513.331 1154.19 509.678L1154.22 509.658Z" fill="#0074FF"/>
<path d="M1161.02 514.607L1231.66 510.23L1231.46 506.94L1160.82 511.317L1161.02 514.607Z" fill="#0074FF"/>
<path d="M1231.05 501.17C1235.12 500.907 1238.66 504.027 1238.9 508.122C1239.17 512.198 1236.05 515.741 1231.96 515.975C1227.88 516.239 1224.34 513.119 1224.1 509.023C1223.84 504.948 1226.95 501.404 1231.05 501.17Z" fill="#0074FF"/>
<path d="M1104.79 208.449L1107.74 209.916L1139.2 146.516L1136.25 145.049L1104.79 208.449Z" fill="#0074FF"/>
<path d="M1112.91 212.481C1111.09 216.134 1106.63 217.661 1102.98 215.835C1099.33 214.008 1097.8 209.55 1099.65 205.877C1101.47 202.224 1105.93 200.697 1109.58 202.524C1113.24 204.351 1114.77 208.809 1112.94 212.462L1112.91 212.481Z" fill="#0074FF"/>
<path d="M1035.78 215.144L1106.42 210.778L1106.21 207.488L1035.57 211.853L1035.78 215.144Z" fill="#0074FF"/>
<path d="M1036.11 220.999C1032.04 221.262 1028.49 218.142 1028.25 214.047C1027.99 209.971 1031.1 206.428 1035.2 206.194C1039.27 205.93 1042.82 209.05 1043.05 213.145C1043.32 217.221 1040.2 220.765 1036.11 220.999Z" fill="#0074FF"/>
<path d="M995.082 155.481L1034.26 214.478L1037.01 212.656L997.827 153.658L995.082 155.481Z" fill="#0074FF"/>
<path d="M990.265 158.68C987.994 155.261 988.925 150.643 992.34 148.375C995.756 146.106 1000.37 147.04 1002.64 150.459C1004.91 153.878 1003.98 158.496 1000.57 160.765C997.152 163.033 992.535 162.099 990.265 158.68Z" fill="#0074FF"/>
<path d="M1145.55 269.825L1216.19 265.448L1215.98 262.158L1145.34 266.535L1145.55 269.825Z" fill="#0074FF"/>
<path d="M1145.9 275.589C1141.83 275.852 1138.28 272.732 1138.02 268.656C1137.75 264.581 1140.87 261.037 1144.96 260.803C1149.04 260.54 1152.58 263.66 1152.82 267.755C1153.08 271.831 1149.97 275.374 1145.87 275.608L1145.9 275.589Z" fill="#0074FF"/>
<path d="M1104.9 210.1L1144.07 269.098L1146.82 267.275L1107.64 208.278L1104.9 210.1Z" fill="#0074FF"/>
<path d="M1112.46 205.079C1110.18 201.657 1105.57 200.724 1102.15 202.994C1098.74 205.264 1097.81 209.878 1100.08 213.299C1102.35 216.721 1106.96 217.654 1110.38 215.384C1113.8 213.114 1114.73 208.5 1112.46 205.079Z" fill="#0074FF"/>
<path d="M1104.79 208.449L1107.74 209.916L1139.2 146.516L1136.25 145.049L1104.79 208.449Z" fill="#0074FF"/>
<path d="M1131.08 142.473C1132.91 138.82 1137.36 137.293 1141.02 139.12C1144.67 140.946 1146.2 145.404 1144.35 149.077C1142.52 152.73 1138.07 154.257 1134.42 152.43C1130.76 150.603 1129.23 146.145 1131.06 142.492L1131.08 142.473Z" fill="#0074FF"/>
<path d="M1153.29 392.163L1223.93 387.798L1223.72 384.508L1153.08 388.873L1153.29 392.163Z" fill="#0074FF"/>
<path d="M1153.65 397.991C1149.57 398.254 1146.03 395.134 1145.79 391.039C1145.53 386.963 1148.64 383.42 1152.74 383.185C1156.83 382.951 1160.35 386.042 1160.59 390.137C1160.86 394.213 1157.74 397.756 1153.65 397.991Z" fill="#0074FF"/>
<path d="M1112.62 332.473L1151.8 391.47L1154.54 389.647L1115.37 330.65L1112.62 332.473Z" fill="#0074FF"/>
<path d="M1107.8 335.672C1105.53 332.253 1106.46 327.635 1109.88 325.367C1113.3 323.098 1117.91 324.032 1120.18 327.451C1122.45 330.87 1121.52 335.488 1118.11 337.756C1114.69 340.025 1110.07 339.091 1107.8 335.672Z" fill="#0074FF"/>
<path d="M1112.49 330.829L1115.45 332.296L1146.91 268.897L1143.95 267.429L1112.49 330.829Z" fill="#0074FF"/>
<path d="M1138.78 264.865C1140.6 261.212 1145.06 259.685 1148.71 261.512C1152.37 263.338 1153.9 267.796 1152.07 271.449C1150.25 275.102 1145.8 276.629 1142.14 274.803C1138.49 272.976 1136.96 268.518 1138.78 264.865Z" fill="#0074FF"/>
<path d="M1145.55 269.825L1216.19 265.448L1215.98 262.158L1145.34 266.535L1145.55 269.825Z" fill="#0074FF"/>
<path d="M1215.6 256.377C1219.68 256.113 1223.22 259.233 1223.49 263.309C1223.76 267.385 1220.64 270.928 1216.55 271.162C1212.47 271.426 1208.93 268.306 1208.69 264.211C1208.42 260.135 1211.54 256.591 1215.63 256.357L1215.6 256.377Z" fill="#0074FF"/>
</svg>
