<svg width="197" height="199" viewBox="0 0 197 199" fill="none" xmlns="http://www.w3.org/2000/svg">
<path d="M18.702 9.59578L19.7979 9.72996L22.661 -13.7994L21.5652 -13.9336L18.702 9.59578Z" fill="#0074FF"/>
<path d="M21.716 9.9688C21.5477 11.3257 20.3111 12.3048 18.9537 12.1354C17.5963 11.966 16.616 10.7289 16.7843 9.37201C16.9526 8.01507 18.1892 7.03596 19.5466 7.20536C20.904 7.37478 21.8844 8.61187 21.716 9.9688Z" fill="#0074FF"/>
<path d="M2.82794 -27.687L21.7804 -13.4263L22.4438 -14.3079L3.4913 -28.5686L2.82794 -27.687Z" fill="#0074FF"/>
<path d="M23.6082 -15.8555C24.7065 -15.0291 24.9279 -13.467 24.1022 -12.3697C23.2765 -11.2724 21.7143 -11.0524 20.616 -11.8788C19.5177 -12.7052 19.2964 -14.2672 20.122 -15.3645C20.9477 -16.4619 22.5099 -16.6819 23.6082 -15.8555Z" fill="#0074FF"/>
<path d="M34.7993 47.3889L35.8952 47.5231L38.7583 23.9937L37.6624 23.8595L34.7993 47.3889Z" fill="#0074FF"/>
<path d="M37.8137 47.7576C37.6454 49.1146 36.4088 50.0937 35.0514 49.9243C33.694 49.7549 32.7136 48.5177 32.8819 47.1608C33.0502 45.8039 34.2868 44.8248 35.6442 44.9942C37.0017 45.1636 37.982 46.4007 37.8137 47.7576Z" fill="#0074FF"/>
<path d="M18.9185 10.1112L37.8709 24.3718L38.5343 23.4902L19.5818 9.22956L18.9185 10.1112Z" fill="#0074FF"/>
<path d="M39.6988 21.9427C40.797 22.7691 41.0184 24.3311 40.1927 25.4284C39.367 26.5258 37.8048 26.7458 36.7066 25.9194C35.6083 25.093 35.3869 23.531 36.2126 22.4336C37.0383 21.3363 38.6005 21.1163 39.6988 21.9427Z" fill="#0074FF"/>
<path d="M75.5538 52.3955L76.6497 52.5297L79.5128 29.0003L78.4169 28.8661L75.5538 52.3955Z" fill="#0074FF"/>
<path d="M78.5735 52.7508C78.4052 54.1077 77.1686 55.0868 75.8112 54.9174C74.4538 54.748 73.4735 53.5109 73.6418 52.154C73.8101 50.7971 75.0467 49.8179 76.4041 49.9874C77.7615 50.1568 78.7418 51.3939 78.5735 52.7508Z" fill="#0074FF"/>
<path d="M34.7993 47.3889L35.8952 47.5231L38.7583 23.9937L37.6624 23.8595L34.7993 47.3889Z" fill="#0074FF"/>
<path d="M35.7368 23.6327C35.9051 22.2757 37.1417 21.2966 38.4991 21.466C39.8565 21.6354 40.8369 22.8725 40.6686 24.2295C40.5003 25.5864 39.2637 26.5655 37.9063 26.3961C36.5488 26.2267 35.5685 24.9896 35.7368 23.6327Z" fill="#0074FF"/>
<path d="M38.4235 24.4529L60.2423 15.1918L59.8102 14.1759L37.9914 23.437L38.4235 24.4529Z" fill="#0074FF"/>
<path d="M59.0473 12.3675C60.3045 11.8298 61.7718 12.4198 62.3035 13.6865C62.8423 14.9439 62.2534 16.4104 60.9868 16.9409C59.7296 17.4785 58.2623 16.8886 57.7306 15.6218C57.1918 14.3645 57.7807 12.898 59.0473 12.3675Z" fill="#0074FF"/>
<path d="M59.6854 15.095L78.6379 29.3557L79.3012 28.474L60.3487 14.2134L59.6854 15.095Z" fill="#0074FF"/>
<path d="M80.4656 26.9265C81.5639 27.7529 81.7853 29.3149 80.9596 30.4122C80.1339 31.5096 78.5717 31.7296 77.4734 30.9032C76.3751 30.0768 76.1538 28.5148 76.9795 27.4174C77.8052 26.3201 79.3674 26.1001 80.4656 26.9265Z" fill="#0074FF"/>
<path d="M43.3818 -23.1939L44.4776 -23.0597L47.3407 -46.5891L46.2449 -46.7233L43.3818 -23.1939Z" fill="#0074FF"/>
<path d="M46.3947 -22.8292C46.2264 -21.4723 44.9898 -20.4932 43.6324 -20.6626C42.275 -20.832 41.2946 -22.0691 41.4629 -23.426C41.6312 -24.7829 42.8678 -25.7621 44.2252 -25.5927C45.5826 -25.4232 46.563 -24.1862 46.3947 -22.8292Z" fill="#0074FF"/>
<path d="M22.3341 -13.3551L44.153 -22.6162L43.7208 -23.6322L21.902 -14.3711L22.3341 -13.3551Z" fill="#0074FF"/>
<path d="M23.0912 -11.5734C21.834 -11.0358 20.3667 -11.6257 19.835 -12.8925C19.2962 -14.1498 19.8851 -15.6163 21.1517 -16.1468C22.4089 -16.6844 23.8762 -16.0945 24.4079 -14.8277C24.9396 -13.561 24.3578 -12.1039 23.0912 -11.5734Z" fill="#0074FF"/>
<path d="M2.82794 -27.687L21.7804 -13.4263L22.4438 -14.3079L3.4913 -28.5686L2.82794 -27.687Z" fill="#0074FF"/>
<path d="M1.66343 -26.1395C0.565154 -26.9659 0.343805 -28.5279 1.16948 -29.6252C1.99516 -30.7226 3.55736 -30.9426 4.65563 -30.1162C5.75393 -29.2898 5.97531 -27.7278 5.14963 -26.6304C4.32395 -25.5331 2.76172 -25.3131 1.66343 -26.1395Z" fill="#0074FF"/>
<path d="M59.4767 14.5828L60.5725 14.7169L63.4356 -8.81242L62.3398 -8.9466L59.4767 14.5828Z" fill="#0074FF"/>
<path d="M62.4923 14.9596C62.324 16.3166 61.0874 17.2957 59.73 17.1263C58.3726 16.9569 57.3922 15.7197 57.5605 14.3628C57.7289 13.0059 58.9655 12.0268 60.3229 12.1962C61.6803 12.3656 62.6606 13.6027 62.4923 14.9596Z" fill="#0074FF"/>
<path d="M38.4235 24.4529L60.2423 15.1918L59.8102 14.1759L37.9914 23.437L38.4235 24.4529Z" fill="#0074FF"/>
<path d="M39.1724 26.2178C37.9152 26.7554 36.4479 26.1654 35.9162 24.8987C35.3774 23.6413 35.9663 22.1749 37.2329 21.6443C38.4901 21.1067 39.9574 21.6966 40.4891 22.9634C41.0279 24.2207 40.439 25.6872 39.1724 26.2178Z" fill="#0074FF"/>
<path d="M18.9185 10.1112L37.8709 24.3718L38.5343 23.4902L19.5818 9.22956L18.9185 10.1112Z" fill="#0074FF"/>
<path d="M17.7611 11.6493C16.6628 10.8229 16.4415 9.26093 17.2672 8.1636C18.0928 7.06627 19.655 6.84627 20.7533 7.67267C21.8516 8.49908 22.0729 10.0611 21.2472 11.1584C20.4216 12.2557 18.8594 12.4757 17.7611 11.6493Z" fill="#0074FF"/>
<path d="M18.702 9.59578L19.7979 9.72996L22.661 -13.7994L21.5652 -13.9336L18.702 9.59578Z" fill="#0074FF"/>
<path d="M19.6462 -14.1656C19.8145 -15.5225 21.0511 -16.5016 22.4085 -16.3322C23.7659 -16.1628 24.7462 -14.9257 24.5779 -13.5688C24.4096 -12.2118 23.173 -11.2327 21.8156 -11.4021C20.4582 -11.5716 19.4779 -12.8086 19.6462 -14.1656Z" fill="#0074FF"/>
<path d="M22.3341 -13.3551L44.153 -22.6162L43.7208 -23.6322L21.902 -14.3711L22.3341 -13.3551Z" fill="#0074FF"/>
<path d="M42.9496 -25.4214C44.2069 -25.959 45.6742 -25.369 46.2059 -24.1023C46.7447 -22.8449 46.1558 -21.3785 44.8892 -20.8479C43.632 -20.3103 42.1647 -20.9003 41.6329 -22.167C41.0942 -23.4244 41.683 -24.8909 42.9496 -25.4214Z" fill="#0074FF"/>
<path d="M43.5971 -22.6868L62.5496 -8.42616L63.2129 -9.30777L44.2604 -23.5684L43.5971 -22.6868Z" fill="#0074FF"/>
<path d="M64.3774 -10.8553C63.2783 -11.6823 61.7175 -11.4625 60.8912 -10.3644C60.0649 -9.26624 60.2861 -7.70562 61.3852 -6.87863C62.4842 -6.05163 64.045 -6.27143 64.8713 -7.36956C65.6976 -8.46767 65.4765 -10.0283 64.3774 -10.8553Z" fill="#0074FF"/>
<path d="M100.234 19.6058L101.329 19.74L104.193 -3.78942L103.097 -3.9236L100.234 19.6058Z" fill="#0074FF"/>
<path d="M103.252 19.9528C103.084 21.3097 101.847 22.2889 100.49 22.1194C99.1325 21.95 98.1521 20.7129 98.3204 19.356C98.4888 17.9991 99.7253 17.0199 101.083 17.1894C102.44 17.3588 103.42 18.5959 103.252 19.9528Z" fill="#0074FF"/>
<path d="M79.1909 29.4344L101.01 20.1733L100.578 19.1573L78.7588 28.4184L79.1909 29.4344Z" fill="#0074FF"/>
<path d="M79.9487 31.2087C78.6915 31.7463 77.2242 31.1563 76.6925 29.8896C76.1537 28.6322 76.7426 27.1657 78.0092 26.6352C79.2664 26.0976 80.7337 26.6876 81.2654 27.9543C81.8042 29.2117 81.2153 30.6781 79.9581 31.2157L79.9487 31.2087Z" fill="#0074FF"/>
<path d="M59.6854 15.095L78.6379 29.3557L79.3012 28.474L60.3487 14.2134L59.6854 15.095Z" fill="#0074FF"/>
<path d="M58.521 16.6425C57.4227 15.8161 57.2013 14.2541 58.027 13.1568C58.8527 12.0594 60.4149 11.8395 61.5132 12.6659C62.6114 13.4922 62.8328 15.0542 62.0071 16.1516C61.1814 17.2489 59.6192 17.4689 58.521 16.6425Z" fill="#0074FF"/>
<path d="M59.4767 14.5828L60.5725 14.7169L63.4356 -8.81242L62.3398 -8.9466L59.4767 14.5828Z" fill="#0074FF"/>
<path d="M60.4225 -9.17471C60.5908 -10.5316 61.8274 -11.5108 63.1847 -11.3414C64.5422 -11.1719 65.5225 -9.93483 65.3542 -8.57789C65.1859 -7.22095 63.9493 -6.24186 62.5919 -6.41126C61.2345 -6.58068 60.2541 -7.81779 60.4225 -9.17471Z" fill="#0074FF"/>
<path d="M63.1002 -8.34004L84.919 -17.6011L84.4869 -18.6171L62.668 -9.35599L63.1002 -8.34004Z" fill="#0074FF"/>
<path d="M83.7259 -20.4305C84.9832 -20.9681 86.4504 -20.3782 86.9822 -19.1114C87.521 -17.8541 86.9321 -16.3876 85.6655 -15.857C84.4083 -15.3194 82.941 -15.9094 82.4092 -17.1761C81.8705 -18.4335 82.4593 -19.9 83.7259 -20.4305Z" fill="#0074FF"/>
<path d="M84.364 -17.703L103.316 -3.44234L103.98 -4.32396L85.0273 -18.5846L84.364 -17.703Z" fill="#0074FF"/>
<path d="M105.144 -5.87149C104.045 -6.69848 102.484 -6.4787 101.658 -5.38057C100.832 -4.28246 101.053 -2.72183 102.152 -1.89484C103.251 -1.06785 104.812 -1.28764 105.638 -2.38576C106.464 -3.48389 106.243 -5.0445 105.144 -5.87149Z" fill="#0074FF"/>
<path d="M116.342 57.3637L117.438 57.4979L120.301 33.9685L119.206 33.8343L116.342 57.3637Z" fill="#0074FF"/>
<path d="M119.35 57.7416C119.181 59.0986 117.945 60.0777 116.587 59.9083C115.23 59.7389 114.25 58.5017 114.418 57.1448C114.586 55.7879 115.823 54.8088 117.18 54.9782C118.538 55.1476 119.518 56.3847 119.35 57.7416Z" fill="#0074FF"/>
<path d="M75.5538 52.3955L76.6497 52.5297L79.5128 29.0003L78.4169 28.8661L75.5538 52.3955Z" fill="#0074FF"/>
<path d="M76.5036 28.6164C76.672 27.2595 77.9085 26.2803 79.2659 26.4498C80.6233 26.6192 81.6037 27.8563 81.4354 29.2132C81.2671 30.5702 80.0305 31.5493 78.6637 31.3728C77.3063 31.2034 76.3259 29.9663 76.4943 28.6093L76.5036 28.6164Z" fill="#0074FF"/>
<path d="M79.1909 29.4344L101.01 20.1733L100.578 19.1573L78.7588 28.4184L79.1909 29.4344Z" fill="#0074FF"/>
<path d="M99.8165 17.3676C101.074 16.83 102.541 17.42 103.073 18.6867C103.604 19.9535 103.023 21.4106 101.756 21.9411C100.499 22.4787 99.0315 21.8887 98.4998 20.622C97.961 19.3646 98.5499 17.8982 99.8165 17.3676Z" fill="#0074FF"/>
<path d="M100.455 20.0952L119.407 34.3559L120.07 33.4743L101.118 19.2136L100.455 20.0952Z" fill="#0074FF"/>
<path d="M121.235 31.9268C120.136 31.0997 118.575 31.3195 117.749 32.4177C116.922 33.5158 117.144 35.0764 118.243 35.9034C119.342 36.7304 120.903 36.5106 121.729 35.4125C122.555 34.3144 122.334 32.7537 121.235 31.9268Z" fill="#0074FF"/>
<path d="M157.097 62.3702L158.193 62.5044L161.056 38.9751L159.96 38.8408L157.097 62.3702Z" fill="#0074FF"/>
<path d="M160.11 62.7347C159.941 64.0917 158.705 65.0708 157.347 64.9014C155.99 64.732 155.009 63.4949 155.178 62.1379C155.346 60.781 156.583 59.8019 157.94 59.9713C159.298 60.1407 160.278 61.3778 160.11 62.7347Z" fill="#0074FF"/>
<path d="M136.045 72.2072L157.864 62.9461L157.432 61.9302L135.613 71.1913L136.045 72.2072Z" fill="#0074FF"/>
<path d="M136.806 73.9906C135.549 74.5282 134.082 73.9383 133.55 72.6716C133.011 71.4142 133.6 69.9477 134.867 69.4172C136.124 68.8796 137.591 69.4695 138.123 70.7363C138.655 72.003 138.073 73.4601 136.806 73.9906Z" fill="#0074FF"/>
<path d="M116.342 57.3637L117.438 57.4979L120.301 33.9685L119.206 33.8343L116.342 57.3637Z" fill="#0074FF"/>
<path d="M117.28 33.6072C117.448 32.2503 118.685 31.2712 120.042 31.4406C121.4 31.61 122.38 32.8471 122.212 34.204C122.043 35.561 120.807 36.5401 119.449 36.3707C118.092 36.2013 117.112 34.9641 117.28 33.6072Z" fill="#0074FF"/>
<path d="M119.952 34.3786L141.773 25.1213L141.341 24.1053L119.52 33.3625L119.952 34.3786Z" fill="#0074FF"/>
<path d="M140.583 22.3514C141.841 21.8139 143.308 22.4038 143.84 23.6705C144.378 24.9279 143.789 26.3944 142.523 26.9249C141.266 27.4625 139.798 26.8725 139.267 25.6058C138.728 24.3484 139.317 22.882 140.583 22.3514Z" fill="#0074FF"/>
<path d="M141.221 25.079L160.174 39.3396L160.837 38.458L141.885 24.1973L141.221 25.079Z" fill="#0074FF"/>
<path d="M162.002 36.9105C163.1 37.7369 163.321 39.2989 162.496 40.3962C161.67 41.4936 160.108 41.7136 159.01 40.8871C157.911 40.0608 157.69 38.4988 158.516 37.4014C159.341 36.3041 160.903 36.0841 162.002 36.9105Z" fill="#0074FF"/>
<path d="M173.185 100.156L174.281 100.29L177.144 76.7611L176.048 76.6269L173.185 100.156Z" fill="#0074FF"/>
<path d="M176.207 100.524C176.039 101.881 174.802 102.86 173.445 102.69C172.088 102.521 171.107 101.284 171.275 99.9268C171.444 98.5699 172.68 97.5907 174.038 97.7601C175.395 97.9296 176.376 99.1667 176.207 100.524Z" fill="#0074FF"/>
<path d="M136.045 72.2072L157.864 62.9461L157.432 61.9302L135.613 71.1913L136.045 72.2072Z" fill="#0074FF"/>
<path d="M156.674 60.1497C157.931 59.6121 159.399 60.202 159.93 61.4688C160.469 62.7261 159.88 64.1926 158.614 64.7231C157.356 65.2607 155.889 64.6708 155.357 63.404C154.819 62.1467 155.407 60.6802 156.674 60.1497Z" fill="#0074FF"/>
<path d="M157.312 62.8772L176.265 77.1378L176.928 76.2562L157.975 61.9956L157.312 62.8772Z" fill="#0074FF"/>
<path d="M178.092 74.7087C176.993 73.8817 175.432 74.1015 174.606 75.1996C173.78 76.2978 174.001 77.8584 175.1 78.6854C176.199 79.5124 177.76 79.2926 178.586 78.1945C179.413 77.0963 179.191 75.5357 178.092 74.7087Z" fill="#0074FF"/>
<path d="M213.946 105.154L215.042 105.288L217.905 81.7583L216.81 81.6241L213.946 105.154Z" fill="#0074FF"/>
<path d="M216.967 105.517C216.799 106.874 215.562 107.853 214.205 107.683C212.847 107.514 211.867 106.277 212.035 104.92C212.204 103.563 213.44 102.584 214.798 102.753C216.155 102.923 217.135 104.16 216.967 105.517Z" fill="#0074FF"/>
<path d="M192.907 114.971L214.726 105.71L214.293 104.694L192.475 113.955L192.907 114.971Z" fill="#0074FF"/>
<path d="M193.664 116.773C192.406 117.31 190.939 116.72 190.407 115.454C189.869 114.196 190.457 112.73 191.724 112.199C192.981 111.662 194.449 112.251 194.98 113.518C195.519 114.776 194.93 116.242 193.673 116.78L193.664 116.773Z" fill="#0074FF"/>
<path d="M173.185 100.156L174.281 100.29L177.144 76.7611L176.048 76.6269L173.185 100.156Z" fill="#0074FF"/>
<path d="M174.137 76.3892C174.306 75.0323 175.542 74.0532 176.9 74.2226C178.257 74.392 179.237 75.6291 179.069 76.9861C178.901 78.343 177.664 79.3221 176.307 79.1527C174.949 78.9833 173.969 77.7462 174.137 76.3892Z" fill="#0074FF"/>
<path d="M176.805 77.1724L198.625 67.9151L198.193 66.8991L176.373 76.1564L176.805 77.1724Z" fill="#0074FF"/>
<path d="M197.441 65.1334C198.698 64.5958 200.165 65.1858 200.697 66.4525C201.236 67.7099 200.647 69.1763 199.38 69.7069C198.123 70.2445 196.656 69.6545 196.124 68.3878C195.585 67.1304 196.174 65.6639 197.441 65.1334Z" fill="#0074FF"/>
<path d="M198.088 67.868L217.041 82.1287L217.704 81.2471L198.752 66.9864L198.088 67.868Z" fill="#0074FF"/>
<path d="M218.869 79.6995C217.769 78.8725 216.209 79.0923 215.382 80.1905C214.556 81.2886 214.777 82.8492 215.876 83.6762C216.975 84.5032 218.536 84.2834 219.363 83.1853C220.189 82.0872 219.968 80.5265 218.869 79.6995Z" fill="#0074FF"/>
<path d="M230.051 142.937L231.147 143.071L234.01 119.542L232.914 119.408L230.051 142.937Z" fill="#0074FF"/>
<path d="M233.065 143.306C232.896 144.663 231.66 145.642 230.302 145.472C228.945 145.303 227.965 144.066 228.133 142.709C228.301 141.352 229.538 140.373 230.895 140.542C232.253 140.712 233.233 141.949 233.065 143.306Z" fill="#0074FF"/>
<path d="M192.907 114.971L214.726 105.71L214.293 104.694L192.475 113.955L192.907 114.971Z" fill="#0074FF"/>
<path d="M213.531 102.932C214.789 102.394 216.256 102.984 216.788 104.251C217.319 105.517 216.738 106.975 215.471 107.505C214.214 108.043 212.746 107.453 212.215 106.186C211.676 104.929 212.265 103.462 213.531 102.932Z" fill="#0074FF"/>
<path d="M214.17 105.659L233.122 119.92L233.785 119.038L214.833 104.778L214.17 105.659Z" fill="#0074FF"/>
<path d="M234.95 117.491C233.851 116.664 232.29 116.883 231.464 117.982C230.637 119.08 230.859 120.64 231.958 121.467C233.057 122.294 234.617 122.075 235.444 120.976C236.27 119.878 236.049 118.318 234.95 117.491Z" fill="#0074FF"/>
<path d="M230.051 142.937L231.147 143.071L234.01 119.542L232.914 119.408L230.051 142.937Z" fill="#0074FF"/>
<path d="M230.995 119.171C231.163 117.814 232.4 116.835 233.757 117.005C235.115 117.174 236.095 118.411 235.927 119.768C235.758 121.125 234.522 122.104 233.164 121.935C231.807 121.765 230.827 120.528 230.995 119.171Z" fill="#0074FF"/>
<path d="M233.666 119.995L255.485 110.734L255.052 109.718L233.234 118.979L233.666 119.995Z" fill="#0074FF"/>
<path d="M254.298 107.915C255.556 107.378 257.023 107.968 257.555 109.235C258.093 110.492 257.504 111.958 256.238 112.489C254.981 113.026 253.513 112.437 252.982 111.17C252.443 109.912 253.032 108.446 254.298 107.915Z" fill="#0074FF"/>
<path d="M254.946 110.65L273.898 124.911L274.562 124.029L255.609 109.768L254.946 110.65Z" fill="#0074FF"/>
<path d="M275.726 122.482C276.824 123.308 277.046 124.87 276.22 125.967C275.394 127.065 273.832 127.285 272.734 126.458C271.636 125.632 271.414 124.07 272.24 122.972C273.066 121.875 274.628 121.655 275.726 122.482Z" fill="#0074FF"/>
<path d="M327.662 190.718L328.757 190.852L331.621 167.322L330.525 167.188L327.662 190.718Z" fill="#0074FF"/>
<path d="M330.691 191.088C330.523 192.445 329.287 193.424 327.929 193.254C326.572 193.085 325.591 191.848 325.76 190.491C325.928 189.134 327.165 188.155 328.522 188.324C329.879 188.494 330.86 189.731 330.691 191.088Z" fill="#0074FF"/>
<path d="M311.803 153.432L330.756 167.693L331.419 166.811L312.467 152.55L311.803 153.432Z" fill="#0074FF"/>
<path d="M332.584 165.264C331.484 164.437 329.924 164.656 329.097 165.754C328.271 166.853 328.492 168.413 329.591 169.24C330.69 170.067 332.251 169.847 333.077 168.749C333.904 167.651 333.683 166.091 332.584 165.264Z" fill="#0074FF"/>
<path d="M84.1635 -18.2163L85.2593 -18.0821L88.1224 -41.6115L87.0266 -41.7457L84.1635 -18.2163Z" fill="#0074FF"/>
<path d="M87.1709 -17.8384C87.0026 -16.4814 85.766 -15.5023 84.4086 -15.6717C83.0512 -15.8411 82.0708 -17.0783 82.2391 -18.4352C82.4075 -19.7921 83.6441 -20.7712 85.0015 -20.6018C86.3589 -20.4324 87.3392 -19.1953 87.1709 -17.8384Z" fill="#0074FF"/>
<path d="M63.1002 -8.34004L84.919 -17.6011L84.4869 -18.6171L62.668 -9.35599L63.1002 -8.34004Z" fill="#0074FF"/>
<path d="M63.8581 -6.58962C62.6009 -6.05203 61.1336 -6.64196 60.6018 -7.90871C60.0631 -9.16607 60.6519 -10.6325 61.9186 -11.1631C63.1757 -11.7007 64.643 -11.1107 65.1748 -9.84402C65.7136 -8.58664 65.1247 -7.12016 63.8581 -6.58962Z" fill="#0074FF"/>
<path d="M43.5971 -22.6868L62.5496 -8.42616L63.2129 -9.30777L44.2604 -23.5684L43.5971 -22.6868Z" fill="#0074FF"/>
<path d="M42.4397 -21.1487C41.3414 -21.9751 41.1201 -23.5371 41.9458 -24.6344C42.7714 -25.7317 44.3336 -25.9517 45.4319 -25.1253C46.5302 -24.2989 46.7515 -22.7369 45.9259 -21.6396C45.1002 -20.5423 43.538 -20.3223 42.4397 -21.1487Z" fill="#0074FF"/>
<path d="M43.3818 -23.1939L44.4776 -23.0597L47.3407 -46.5891L46.2449 -46.7233L43.3818 -23.1939Z" fill="#0074FF"/>
<path d="M44.3248 -46.9636C44.4931 -48.3205 45.7297 -49.2996 47.0871 -49.1302C48.4445 -48.9608 49.4249 -47.7237 49.2565 -46.3668C49.0882 -45.0098 47.8516 -44.0307 46.4942 -44.2001C45.1368 -44.3696 44.1565 -45.6066 44.3248 -46.9636Z" fill="#0074FF"/>
<path d="M124.911 -13.2003L126.007 -13.0661L128.87 -36.5955L127.774 -36.7297L124.911 -13.2003Z" fill="#0074FF"/>
<path d="M127.931 -12.8452C127.762 -11.4883 126.526 -10.5091 125.168 -10.6786C123.811 -10.848 122.831 -12.0851 122.999 -13.442C123.167 -14.7989 124.404 -15.7781 125.761 -15.6086C127.119 -15.4392 128.099 -14.2021 127.931 -12.8452Z" fill="#0074FF"/>
<path d="M103.874 -3.36809L125.693 -12.6292L125.261 -13.6452L103.442 -4.38405L103.874 -3.36809Z" fill="#0074FF"/>
<path d="M104.627 -1.58939C103.37 -1.05179 101.903 -1.64173 101.371 -2.90846C100.832 -4.16583 101.421 -5.63231 102.688 -6.16286C103.945 -6.70045 105.412 -6.11047 105.944 -4.84374C106.483 -3.58637 105.894 -2.1199 104.637 -1.5823L104.627 -1.58939Z" fill="#0074FF"/>
<path d="M84.364 -17.703L103.316 -3.44234L103.98 -4.32396L85.0273 -18.5846L84.364 -17.703Z" fill="#0074FF"/>
<path d="M83.1996 -16.1555C82.1013 -16.9819 81.8799 -18.5439 82.7056 -19.6412C83.5313 -20.7386 85.0935 -20.9586 86.1918 -20.1322C87.29 -19.3058 87.5114 -17.7438 86.6857 -16.6464C85.86 -15.5491 84.2978 -15.3291 83.1996 -16.1555Z" fill="#0074FF"/>
<path d="M84.1635 -18.2163L85.2593 -18.0821L88.1224 -41.6115L87.0266 -41.7457L84.1635 -18.2163Z" fill="#0074FF"/>
<path d="M85.1011 -41.9727C85.2694 -43.3296 86.506 -44.3088 87.8634 -44.1394C89.2208 -43.9699 90.2012 -42.7328 90.0328 -41.3759C89.8645 -40.0189 88.6279 -39.0399 87.2705 -39.2093C85.9131 -39.3787 84.9327 -40.6158 85.1011 -41.9727Z" fill="#0074FF"/>
<path d="M109.043 -50.501L127.995 -36.2403L128.658 -37.122L109.706 -51.3826L109.043 -50.501Z" fill="#0074FF"/>
<path d="M129.823 -38.6695C128.724 -39.4965 127.163 -39.2767 126.337 -38.1786C125.51 -37.0804 125.732 -35.5198 126.831 -34.6928C127.93 -33.8658 129.491 -34.0856 130.317 -35.1838C131.143 -36.2819 130.922 -37.8425 129.823 -38.6695Z" fill="#0074FF"/>
<path d="M141.013 24.5669L142.109 24.7011L144.972 1.17173L143.876 1.03753L141.013 24.5669Z" fill="#0074FF"/>
<path d="M144.028 24.9436C143.86 26.3005 142.624 27.2797 141.266 27.1103C139.909 26.9409 138.928 25.7037 139.097 24.3468C139.265 22.9899 140.502 22.0108 141.859 22.1802C143.216 22.3496 144.197 23.5867 144.028 24.9436Z" fill="#0074FF"/>
<path d="M119.952 34.3786L141.773 25.1213L141.341 24.1053L119.52 33.3625L119.952 34.3786Z" fill="#0074FF"/>
<path d="M120.716 36.1924C119.458 36.73 117.991 36.14 117.459 34.8733C116.921 33.6159 117.509 32.1494 118.776 31.6189C120.033 31.0813 121.501 31.6713 122.032 32.938C122.571 34.1954 121.982 35.6618 120.716 36.1924Z" fill="#0074FF"/>
<path d="M100.455 20.0952L119.407 34.3559L120.07 33.4743L101.118 19.2136L100.455 20.0952Z" fill="#0074FF"/>
<path d="M102.282 17.6661C101.183 16.8391 99.6225 17.0589 98.7962 18.157C97.9699 19.2551 98.1911 20.8157 99.2902 21.6427C100.389 22.4697 101.95 22.2499 102.776 21.1518C103.603 20.0537 103.381 18.4931 102.282 17.6661Z" fill="#0074FF"/>
<path d="M100.234 19.6058L101.329 19.74L104.193 -3.78942L103.097 -3.9236L100.234 19.6058Z" fill="#0074FF"/>
<path d="M101.182 -4.1816C101.351 -5.53853 102.587 -6.51765 103.945 -6.34823C105.302 -6.17883 106.282 -4.94172 106.114 -3.58478C105.946 -2.22784 104.709 -1.24874 103.342 -1.42523C101.985 -1.59463 101.005 -2.83173 101.173 -4.18865L101.182 -4.1816Z" fill="#0074FF"/>
<path d="M103.874 -3.36809L125.693 -12.6292L125.261 -13.6452L103.442 -4.38405L103.874 -3.36809Z" fill="#0074FF"/>
<path d="M124.495 -15.4304C125.752 -15.968 127.22 -15.378 127.751 -14.1113C128.29 -12.8539 127.701 -11.3874 126.435 -10.8569C125.177 -10.3193 123.71 -10.9093 123.178 -12.176C122.64 -13.4334 123.228 -14.8998 124.495 -15.4304Z" fill="#0074FF"/>
<path d="M125.133 -12.7028L144.086 1.55786L144.749 0.676239L125.797 -13.5844L125.133 -12.7028Z" fill="#0074FF"/>
<path d="M145.914 -0.871243C144.814 -1.69825 143.254 -1.47846 142.427 -0.38033C141.601 0.717795 141.822 2.27839 142.921 3.1054C144.02 3.93239 145.581 3.71259 146.407 2.61446C147.234 1.51634 147.013 -0.0442512 145.914 -0.871243Z" fill="#0074FF"/>
<path d="M181.774 29.5641L182.87 29.6983L185.733 6.16896L184.637 6.03478L181.774 29.5641Z" fill="#0074FF"/>
<path d="M184.788 29.9367C184.62 31.2937 183.383 32.2728 182.026 32.1034C180.668 31.934 179.688 30.6969 179.856 29.34C180.025 27.983 181.261 27.0039 182.619 27.1733C183.976 27.3427 184.957 28.5798 184.788 29.9367Z" fill="#0074FF"/>
<path d="M160.722 39.4142L182.541 30.1531L182.109 29.1371L160.29 38.3983L160.722 39.4142Z" fill="#0074FF"/>
<path d="M161.485 41.1926C160.228 41.7302 158.76 41.1402 158.229 39.8735C157.697 38.6068 158.279 37.1497 159.545 36.6191C160.802 36.0815 162.27 36.6715 162.801 37.9382C163.34 39.1956 162.751 40.6621 161.485 41.1926Z" fill="#0074FF"/>
<path d="M141.221 25.079L160.174 39.3396L160.837 38.458L141.885 24.1973L141.221 25.079Z" fill="#0074FF"/>
<path d="M143.049 22.6498C141.95 21.8228 140.389 22.0426 139.563 23.1407C138.737 24.2388 138.958 25.7994 140.057 26.6264C141.156 27.4534 142.717 27.2336 143.543 26.1355C144.369 25.0374 144.148 23.4768 143.049 22.6498Z" fill="#0074FF"/>
<path d="M141.013 24.5669L142.109 24.7011L144.972 1.17173L143.876 1.03753L141.013 24.5669Z" fill="#0074FF"/>
<path d="M141.958 0.809235C142.127 -0.547706 143.363 -1.52679 144.721 -1.35738C146.078 -1.18797 147.059 0.0491068 146.89 1.40605C146.722 2.76297 145.485 3.74212 144.128 3.5727C142.771 3.4033 141.79 2.16617 141.958 0.809235Z" fill="#0074FF"/>
<path d="M144.629 1.62347L166.448 -7.63763L166.016 -8.65358L144.197 0.607511L144.629 1.62347Z" fill="#0074FF"/>
<path d="M165.262 -10.4466C166.519 -10.9842 167.987 -10.3942 168.518 -9.12748C169.057 -7.8701 168.468 -6.40365 167.202 -5.8731C165.944 -5.3355 164.477 -5.92546 163.945 -7.19219C163.406 -8.44956 163.995 -9.91603 165.262 -10.4466Z" fill="#0074FF"/>
<path d="M165.9 -7.71908L184.853 6.5416L185.516 5.65998L166.563 -8.6007L165.9 -7.71908Z" fill="#0074FF"/>
<path d="M186.68 4.11244C187.779 4.93884 188 6.50085 187.174 7.59819C186.349 8.69552 184.786 8.91549 183.688 8.08909C182.59 7.2627 182.368 5.70073 183.194 4.60339C184.02 3.50606 185.582 3.28605 186.68 4.11244Z" fill="#0074FF"/>
<path d="M197.865 67.3666L198.96 67.5008L201.823 43.9714L200.728 43.8372L197.865 67.3666Z" fill="#0074FF"/>
<path d="M200.886 67.7256C200.718 69.0825 199.481 70.0617 198.124 69.8923C196.766 69.7228 195.786 68.4857 195.954 67.1288C196.122 65.7719 197.359 64.7927 198.716 64.9621C200.074 65.1316 201.054 66.3687 200.886 67.7256Z" fill="#0074FF"/>
<path d="M176.805 77.1724L198.625 67.9151L198.193 66.8991L176.373 76.1564L176.805 77.1724Z" fill="#0074FF"/>
<path d="M177.573 78.9744C176.316 79.512 174.849 78.9221 174.317 77.6553C173.778 76.398 174.367 74.9315 175.633 74.4009C176.891 73.8633 178.358 74.4533 178.89 75.72C179.429 76.9774 178.84 78.4439 177.573 78.9744Z" fill="#0074FF"/>
<path d="M157.312 62.8772L176.265 77.1378L176.928 76.2562L157.975 61.9956L157.312 62.8772Z" fill="#0074FF"/>
<path d="M156.155 64.4153C155.056 63.589 154.835 62.027 155.661 60.9296C156.486 59.8323 158.049 59.6123 159.147 60.4387C160.245 61.2651 160.467 62.8271 159.641 63.9244C158.815 65.0218 157.253 65.2418 156.155 64.4153Z" fill="#0074FF"/>
<path d="M157.097 62.3702L158.193 62.5044L161.056 38.9751L159.96 38.8408L157.097 62.3702Z" fill="#0074FF"/>
<path d="M158.04 38.6004C158.208 37.2435 159.445 36.2644 160.802 36.4338C162.159 36.6032 163.14 37.8403 162.972 39.1972C162.803 40.5541 161.567 41.5333 160.209 41.3639C158.852 41.1945 157.871 39.9573 158.04 38.6004Z" fill="#0074FF"/>
<path d="M160.722 39.4142L182.541 30.1531L182.109 29.1371L160.29 38.3983L160.722 39.4142Z" fill="#0074FF"/>
<path d="M181.353 27.3516C182.61 26.8141 184.077 27.404 184.609 28.6708C185.148 29.9281 184.559 31.3946 183.292 31.9251C182.035 32.4627 180.568 31.8728 180.036 30.6061C179.497 29.3487 180.086 27.8822 181.353 27.3516Z" fill="#0074FF"/>
<path d="M181.991 30.0792L200.943 44.3399L201.606 43.4582L182.654 29.1976L181.991 30.0792Z" fill="#0074FF"/>
<path d="M202.771 41.9107C201.672 41.0837 200.111 41.3035 199.285 42.4016C198.458 43.4998 198.68 45.0604 199.779 45.8874C200.878 46.7144 202.439 46.4946 203.265 45.3965C204.091 44.2983 203.87 42.7377 202.771 41.9107Z" fill="#0074FF"/>
<path d="M238.64 72.3451L239.736 72.4793L242.599 48.9499L241.503 48.8157L238.64 72.3451Z" fill="#0074FF"/>
<path d="M241.646 72.7188C241.477 74.0757 240.241 75.0548 238.883 74.8854C237.526 74.716 236.546 73.4789 236.714 72.122C236.882 70.765 238.119 69.7859 239.476 69.9553C240.834 70.1247 241.814 71.3618 241.646 72.7188Z" fill="#0074FF"/>
<path d="M217.583 82.1778L239.402 72.9167L238.97 71.9008L217.151 81.1619L217.583 82.1778Z" fill="#0074FF"/>
<path d="M218.342 83.9746C217.085 84.5122 215.618 83.9222 215.086 82.6555C214.547 81.3981 215.136 79.9317 216.403 79.4011C217.66 78.8635 219.127 79.4535 219.659 80.7202C220.198 81.9776 219.609 83.4441 218.352 83.9817L218.342 83.9746Z" fill="#0074FF"/>
<path d="M198.088 67.868L217.041 82.1287L217.704 81.2471L198.752 66.9864L198.088 67.868Z" fill="#0074FF"/>
<path d="M196.924 69.4155C195.826 68.5891 195.604 67.0271 196.43 65.9298C197.256 64.8325 198.818 64.6125 199.916 65.4389C201.014 66.2653 201.236 67.8273 200.41 68.9246C199.584 70.022 198.022 70.2419 196.924 69.4155Z" fill="#0074FF"/>
<path d="M197.865 67.3666L198.96 67.5008L201.823 43.9714L200.728 43.8372L197.865 67.3666Z" fill="#0074FF"/>
<path d="M198.816 43.5913C198.984 42.2343 200.221 41.2552 201.578 41.4246C202.936 41.594 203.916 42.8311 203.748 44.1881C203.579 45.545 202.343 46.5241 200.985 46.3547C199.628 46.1853 198.648 44.9482 198.816 43.5913Z" fill="#0074FF"/>
<path d="M201.493 44.4035L223.311 35.1424L222.879 34.1264L201.06 43.3875L201.493 44.4035Z" fill="#0074FF"/>
<path d="M222.119 32.3354C223.377 31.7978 224.844 32.3878 225.376 33.6545C225.914 34.9119 225.326 36.3783 224.059 36.9089C222.802 37.4465 221.334 36.8566 220.803 35.5898C220.264 34.3325 220.853 32.8659 222.119 32.3354Z" fill="#0074FF"/>
<path d="M222.767 35.07L241.719 49.3307L242.383 48.4491L223.43 34.1884L222.767 35.07Z" fill="#0074FF"/>
<path d="M243.547 46.9015C242.448 46.0745 240.887 46.2943 240.061 47.3925C239.235 48.4906 239.456 50.0512 240.555 50.8782C241.654 51.7052 243.215 51.4854 244.041 50.3873C244.867 49.2892 244.646 47.7285 243.547 46.9015Z" fill="#0074FF"/>
<path d="M254.728 110.131L255.824 110.265L258.687 86.7359L257.591 86.6018L254.728 110.131Z" fill="#0074FF"/>
<path d="M257.743 110.508C257.575 111.865 256.338 112.844 254.981 112.674C253.624 112.505 252.643 111.268 252.812 109.911C252.98 108.554 254.216 107.575 255.574 107.744C256.931 107.914 257.912 109.151 257.743 110.508Z" fill="#0074FF"/>
<path d="M233.666 119.995L255.485 110.734L255.052 109.718L233.234 118.979L233.666 119.995Z" fill="#0074FF"/>
<path d="M234.431 121.756C233.173 122.294 231.706 121.704 231.174 120.437C230.636 119.18 231.224 117.713 232.491 117.183C233.748 116.645 235.216 117.235 235.747 118.502C236.286 119.759 235.697 121.226 234.431 121.756Z" fill="#0074FF"/>
<path d="M214.17 105.659L233.122 119.92L233.785 119.038L214.833 104.778L214.17 105.659Z" fill="#0074FF"/>
<path d="M215.997 103.23C214.898 102.403 213.337 102.623 212.511 103.721C211.685 104.819 211.906 106.38 213.005 107.207C214.104 108.034 215.665 107.814 216.491 106.716C217.318 105.618 217.096 104.057 215.997 103.23Z" fill="#0074FF"/>
<path d="M213.946 105.154L215.042 105.288L217.905 81.7583L216.81 81.6241L213.946 105.154Z" fill="#0074FF"/>
<path d="M214.897 81.3824C215.066 80.0255 216.302 79.0464 217.66 79.2158C219.017 79.3852 219.997 80.6223 219.829 81.9792C219.661 83.3362 218.424 84.3153 217.057 84.1388C215.7 83.9694 214.72 82.7323 214.888 81.3754L214.897 81.3824Z" fill="#0074FF"/>
<path d="M217.583 82.1778L239.402 72.9167L238.97 71.9008L217.151 81.1619L217.583 82.1778Z" fill="#0074FF"/>
<path d="M238.21 70.1336C239.467 69.596 240.935 70.186 241.466 71.4528C242.005 72.7101 241.416 74.1766 240.15 74.7071C238.892 75.2447 237.425 74.6548 236.893 73.388C236.355 72.1306 236.943 70.6642 238.21 70.1336Z" fill="#0074FF"/>
<path d="M238.848 72.8612L257.801 87.1218L258.464 86.2402L239.512 71.9795L238.848 72.8612Z" fill="#0074FF"/>
<path d="M259.628 84.6927C258.529 83.8657 256.969 84.0855 256.142 85.1836C255.316 86.2817 255.537 87.8423 256.636 88.6693C257.735 89.4963 259.296 89.2766 260.122 88.1784C260.949 87.0803 260.728 85.5197 259.628 84.6927Z" fill="#0074FF"/>
<path d="M295.49 115.128L296.585 115.263L299.449 91.7331L298.353 91.599L295.49 115.128Z" fill="#0074FF"/>
<path d="M298.503 115.501C298.335 116.858 297.098 117.837 295.741 117.667C294.383 117.498 293.403 116.261 293.571 114.904C293.74 113.547 294.976 112.568 296.334 112.737C297.691 112.907 298.671 114.144 298.503 115.501Z" fill="#0074FF"/>
<path d="M274.442 124.984L296.261 115.723L295.829 114.707L274.01 123.968L274.442 124.984Z" fill="#0074FF"/>
<path d="M275.2 126.757C273.943 127.294 272.475 126.704 271.943 125.438C271.412 124.171 271.994 122.714 273.26 122.183C274.517 121.646 275.985 122.235 276.516 123.502C277.055 124.76 276.466 126.226 275.2 126.757Z" fill="#0074FF"/>
<path d="M254.946 110.65L273.898 124.911L274.562 124.029L255.609 109.768L254.946 110.65Z" fill="#0074FF"/>
<path d="M256.774 108.221C255.674 107.394 254.114 107.614 253.287 108.712C252.461 109.81 252.682 111.371 253.781 112.198C254.88 113.025 256.441 112.805 257.268 111.707C258.094 110.608 257.873 109.048 256.774 108.221Z" fill="#0074FF"/>
<path d="M254.728 110.131L255.824 110.265L258.687 86.7359L257.591 86.6018L254.728 110.131Z" fill="#0074FF"/>
<path d="M255.673 86.3733C255.842 85.0163 257.078 84.0372 258.436 84.2066C259.793 84.376 260.774 85.6131 260.605 86.9701C260.437 88.327 259.2 89.3061 257.843 89.1367C256.486 88.9673 255.505 87.7302 255.673 86.3733Z" fill="#0074FF"/>
<path d="M258.345 87.16L280.164 77.8989L279.731 76.883L257.913 86.1441L258.345 87.16Z" fill="#0074FF"/>
<path d="M278.977 75.1174C280.234 74.5798 281.701 75.1698 282.233 76.4365C282.772 77.6939 282.183 79.1603 280.916 79.6909C279.659 80.2285 278.192 79.6385 277.66 78.3718C277.121 77.1144 277.71 75.6479 278.977 75.1174Z" fill="#0074FF"/>
<path d="M279.624 77.852L298.577 92.1127L299.24 91.2311L280.288 76.9704L279.624 77.852Z" fill="#0074FF"/>
<path d="M300.405 89.6835C301.503 90.5099 301.724 92.0719 300.899 93.1693C300.073 94.2666 298.511 94.4866 297.412 93.6602C296.314 92.8338 296.093 91.2718 296.919 90.1745C297.744 89.0771 299.306 88.8571 300.405 89.6835Z" fill="#0074FF"/>
<path d="M311.587 152.921L312.683 153.056L315.546 129.526L314.45 129.392L311.587 152.921Z" fill="#0074FF"/>
<path d="M314.601 153.29C314.433 154.647 313.196 155.626 311.839 155.456C310.481 155.287 309.501 154.05 309.669 152.693C309.837 151.336 311.074 150.357 312.431 150.526C313.789 150.696 314.769 151.933 314.601 153.29Z" fill="#0074FF"/>
<path d="M274.442 124.984L296.261 115.723L295.829 114.707L274.01 123.968L274.442 124.984Z" fill="#0074FF"/>
<path d="M295.068 112.916C296.325 112.378 297.792 112.968 298.324 114.235C298.863 115.492 298.274 116.959 297.007 117.489C295.75 118.027 294.283 117.437 293.751 116.17C293.212 114.913 293.801 113.446 295.068 112.916Z" fill="#0074FF"/>
<path d="M295.706 115.643L314.658 129.904L315.321 129.022L296.369 114.762L295.706 115.643Z" fill="#0074FF"/>
<path d="M316.486 127.475C315.387 126.648 313.826 126.867 313 127.966C312.173 129.064 312.395 130.624 313.494 131.451C314.593 132.278 316.154 132.059 316.98 130.96C317.806 129.862 317.585 128.302 316.486 127.475Z" fill="#0074FF"/>
<path d="M352.348 157.919L353.444 158.053L356.307 134.523L355.211 134.389L352.348 157.919Z" fill="#0074FF"/>
<path d="M355.37 158.29C355.202 159.647 353.965 160.626 352.608 160.456C351.25 160.287 350.27 159.05 350.438 157.693C350.607 156.336 351.843 155.357 353.201 155.526C354.558 155.696 355.538 156.933 355.37 158.29Z" fill="#0074FF"/>
<path d="M331.297 167.757L353.116 158.496L352.684 157.48L330.865 166.741L331.297 167.757Z" fill="#0074FF"/>
<path d="M332.057 169.539C330.8 170.076 329.333 169.486 328.801 168.22C328.262 166.962 328.851 165.496 330.118 164.965C331.375 164.428 332.842 165.017 333.374 166.284C333.913 167.542 333.324 169.008 332.057 169.539Z" fill="#0074FF"/>
<path d="M311.803 153.432L330.756 167.693L331.419 166.811L312.467 152.55L311.803 153.432Z" fill="#0074FF"/>
<path d="M313.631 151.003C312.532 150.176 310.971 150.396 310.145 151.494C309.319 152.592 309.54 154.153 310.639 154.979C311.738 155.806 313.299 155.587 314.125 154.489C314.951 153.39 314.73 151.83 313.631 151.003Z" fill="#0074FF"/>
<path d="M311.587 152.921L312.683 153.056L315.546 129.526L314.45 129.392L311.587 152.921Z" fill="#0074FF"/>
<path d="M312.531 129.155C312.699 127.798 313.936 126.819 315.293 126.989C316.651 127.158 317.631 128.395 317.463 129.752C317.294 131.109 316.058 132.088 314.7 131.919C313.343 131.749 312.363 130.512 312.531 129.155Z" fill="#0074FF"/>
<path d="M315.204 129.966L337.023 120.705L336.59 119.689L314.772 128.95L315.204 129.966Z" fill="#0074FF"/>
<path d="M335.834 117.899C337.092 117.362 338.559 117.952 339.091 119.218C339.622 120.485 339.041 121.942 337.774 122.473C336.517 123.01 335.049 122.42 334.518 121.154C333.979 119.896 334.568 118.43 335.834 117.899Z" fill="#0074FF"/>
<path d="M336.482 120.634L355.434 134.895L356.098 134.013L337.145 119.752L336.482 120.634Z" fill="#0074FF"/>
<path d="M357.262 132.466C356.163 131.639 354.602 131.858 353.776 132.956C352.95 134.055 353.171 135.615 354.27 136.442C355.369 137.269 356.93 137.049 357.756 135.951C358.582 134.853 358.361 133.293 357.262 132.466Z" fill="#0074FF"/>
<path d="M368.443 195.695L369.539 195.83L372.402 172.3L371.306 172.166L368.443 195.695Z" fill="#0074FF"/>
<path d="M371.458 196.072C371.29 197.429 370.053 198.408 368.696 198.238C367.339 198.069 366.358 196.832 366.527 195.475C366.695 194.118 367.931 193.139 369.289 193.308C370.646 193.478 371.627 194.715 371.458 196.072Z" fill="#0074FF"/>
<path d="M327.662 190.718L328.757 190.852L331.621 167.322L330.525 167.188L327.662 190.718Z" fill="#0074FF"/>
<path d="M328.612 166.946C328.78 165.589 330.017 164.61 331.374 164.78C332.732 164.949 333.712 166.186 333.544 167.543C333.376 168.9 332.139 169.879 330.782 169.71C329.424 169.54 328.444 168.303 328.612 166.946Z" fill="#0074FF"/>
<path d="M331.297 167.757L353.116 158.496L352.684 157.48L330.865 166.741L331.297 167.757Z" fill="#0074FF"/>
<path d="M351.925 155.698C353.182 155.16 354.649 155.75 355.181 157.017C355.72 158.274 355.131 159.741 353.865 160.271C352.607 160.809 351.14 160.219 350.608 158.952C350.069 157.695 350.658 156.228 351.925 155.698Z" fill="#0074FF"/>
<path d="M352.563 158.425L371.516 172.686L372.179 171.804L353.226 157.544L352.563 158.425Z" fill="#0074FF"/>
<path d="M373.343 170.257C372.244 169.43 370.683 169.649 369.857 170.748C369.031 171.846 369.252 173.406 370.351 174.233C371.45 175.06 373.011 174.84 373.837 173.742C374.664 172.644 374.442 171.084 373.343 170.257Z" fill="#0074FF"/>
<path d="M368.443 195.695L369.539 195.83L372.402 172.3L371.306 172.166L368.443 195.695Z" fill="#0074FF"/>
<path d="M369.388 171.937C369.557 170.58 370.793 169.601 372.151 169.771C373.508 169.94 374.488 171.177 374.32 172.534C374.152 173.891 372.915 174.87 371.558 174.701C370.2 174.531 369.22 173.294 369.388 171.937Z" fill="#0074FF"/>
<path d="M372.061 172.755L393.879 163.494L393.447 162.478L371.628 171.739L372.061 172.755Z" fill="#0074FF"/>
<path d="M392.692 160.681C393.949 160.144 395.416 160.734 395.948 162C396.487 163.258 395.898 164.724 394.631 165.255C393.374 165.792 391.907 165.202 391.375 163.936C390.836 162.678 391.425 161.212 392.692 160.681Z" fill="#0074FF"/>
<path d="M393.339 163.416L412.292 177.677L412.955 176.795L394.003 162.534L393.339 163.416Z" fill="#0074FF"/>
<path d="M414.12 175.248C415.218 176.074 415.439 177.636 414.614 178.733C413.788 179.831 412.226 180.051 411.127 179.224C410.029 178.398 409.808 176.836 410.633 175.738C411.459 174.641 413.021 174.421 414.12 175.248Z" fill="#0074FF"/>
<path d="M128.542 -36.2065L150.363 -45.4638L149.931 -46.4799L128.11 -37.2226L128.542 -36.2065Z" fill="#0074FF"/>
<path d="M129.306 -34.3873C128.049 -33.8497 126.581 -34.4397 126.05 -35.7064C125.511 -36.9638 126.1 -38.4303 127.366 -38.9608C128.624 -39.4984 130.091 -38.9084 130.623 -37.6417C131.161 -36.3843 130.573 -34.9179 129.315 -34.3803L129.306 -34.3873Z" fill="#0074FF"/>
<path d="M109.043 -50.501L127.995 -36.2403L128.658 -37.122L109.706 -51.3826L109.043 -50.501Z" fill="#0074FF"/>
<path d="M107.878 -48.9535C106.78 -49.7799 106.559 -51.3419 107.384 -52.4392C108.21 -53.5366 109.772 -53.7566 110.87 -52.9302C111.969 -52.1038 112.19 -50.5418 111.364 -49.4444C110.539 -48.3471 108.976 -48.1271 107.878 -48.9535Z" fill="#0074FF"/>
<path d="M165.693 -8.22275L166.788 -8.08855L169.651 -31.6179L168.556 -31.7521L165.693 -8.22275Z" fill="#0074FF"/>
<path d="M168.707 -7.85434C168.539 -6.49742 167.302 -5.5183 165.945 -5.68771C164.587 -5.85712 163.607 -7.09425 163.775 -8.45118C163.944 -9.80812 165.18 -10.7872 166.538 -10.6178C167.895 -10.4484 168.875 -9.21128 168.707 -7.85434Z" fill="#0074FF"/>
<path d="M144.629 1.62347L166.448 -7.63763L166.016 -8.65358L144.197 0.607511L144.629 1.62347Z" fill="#0074FF"/>
<path d="M145.394 3.39444C144.137 3.93204 142.67 3.34211 142.138 2.07537C141.599 0.818 142.188 -0.648471 143.455 -1.17903C144.712 -1.71663 146.179 -1.12667 146.711 0.140062C147.25 1.39744 146.661 2.86391 145.394 3.39444Z" fill="#0074FF"/>
<path d="M125.133 -12.7028L144.086 1.55786L144.749 0.676239L125.797 -13.5844L125.133 -12.7028Z" fill="#0074FF"/>
<path d="M126.961 -15.1319C125.862 -15.9589 124.301 -15.7391 123.475 -14.641C122.649 -13.5429 122.87 -11.9823 123.969 -11.1553C125.068 -10.3283 126.629 -10.5481 127.455 -11.6462C128.281 -12.7443 128.06 -14.3049 126.961 -15.1319Z" fill="#0074FF"/>
<path d="M124.911 -13.2003L126.007 -13.0661L128.87 -36.5955L127.774 -36.7297L124.911 -13.2003Z" fill="#0074FF"/>
<path d="M125.861 -36.9796C126.029 -38.3365 127.266 -39.3157 128.623 -39.1462C129.981 -38.9768 130.961 -37.7397 130.793 -36.3828C130.624 -35.0258 129.388 -34.0467 128.021 -34.2232C126.664 -34.3926 125.683 -35.6297 125.851 -36.9867L125.861 -36.9796Z" fill="#0074FF"/>
<path d="M128.542 -36.2065L150.363 -45.4638L149.931 -46.4799L128.11 -37.2226L128.542 -36.2065Z" fill="#0074FF"/>
<path d="M149.174 -48.2284C150.431 -48.766 151.898 -48.176 152.43 -46.9093C152.969 -45.6519 152.38 -44.1854 151.113 -43.6549C149.856 -43.1173 148.389 -43.7073 147.857 -44.974C147.318 -46.2314 147.907 -47.6978 149.174 -48.2284Z" fill="#0074FF"/>
<path d="M149.819 -45.5102L168.771 -31.2495L169.435 -32.1311L150.482 -46.3918L149.819 -45.5102Z" fill="#0074FF"/>
<path d="M170.592 -33.6693C169.493 -34.4963 167.932 -34.2765 167.106 -33.1784C166.28 -32.0802 166.501 -30.5196 167.6 -29.6926C168.699 -28.8656 170.26 -29.0854 171.086 -30.1835C171.912 -31.2817 171.691 -32.8423 170.592 -33.6693Z" fill="#0074FF"/>
<path d="M206.461 -3.23498L207.557 -3.10078L210.42 -26.6302L209.324 -26.7644L206.461 -3.23498Z" fill="#0074FF"/>
<path d="M209.467 -2.86128C209.299 -1.50435 208.062 -0.525237 206.705 -0.694636C205.347 -0.864053 204.367 -2.10115 204.535 -3.45809C204.703 -4.81502 205.94 -5.79411 207.297 -5.62472C208.655 -5.4553 209.635 -4.2182 209.467 -2.86128Z" fill="#0074FF"/>
<path d="M185.402 6.57786L207.222 -2.67944L206.79 -3.69547L184.97 5.56182L185.402 6.57786Z" fill="#0074FF"/>
<path d="M186.163 8.39462C184.906 8.93223 183.439 8.34228 182.907 7.07555C182.368 5.81818 182.957 4.35169 184.224 3.82116C185.481 3.28356 186.948 3.87352 187.48 5.14026C188.019 6.39762 187.43 7.86408 186.163 8.39462Z" fill="#0074FF"/>
<path d="M165.9 -7.71908L184.853 6.5416L185.516 5.65998L166.563 -8.6007L165.9 -7.71908Z" fill="#0074FF"/>
<path d="M167.728 -10.1482C166.629 -10.9752 165.068 -10.7554 164.242 -9.65723C163.415 -8.55911 163.637 -6.99853 164.736 -6.17153C165.835 -5.34452 167.396 -5.56432 168.222 -6.66244C169.048 -7.76056 168.827 -9.32117 167.728 -10.1482Z" fill="#0074FF"/>
<path d="M165.693 -8.22275L166.788 -8.08855L169.651 -31.6179L168.556 -31.7521L165.693 -8.22275Z" fill="#0074FF"/>
<path d="M166.637 -31.9888C166.805 -33.3457 168.042 -34.3248 169.399 -34.1554C170.757 -33.986 171.737 -32.7489 171.569 -31.3919C171.401 -30.035 170.164 -29.0559 168.807 -29.2253C167.449 -29.3947 166.469 -30.6318 166.637 -31.9888Z" fill="#0074FF"/>
<path d="M169.312 -31.1789L191.131 -40.44L190.699 -41.456L168.88 -32.1949L169.312 -31.1789Z" fill="#0074FF"/>
<path d="M189.941 -43.2446C191.198 -43.7821 192.665 -43.1922 193.197 -41.9255C193.736 -40.6681 193.147 -39.2016 191.88 -38.6711C190.623 -38.1335 189.156 -38.7235 188.624 -39.9902C188.085 -41.2476 188.674 -42.714 189.941 -43.2446Z" fill="#0074FF"/>
<path d="M222.535 34.5699L223.631 34.7041L226.494 11.1747L225.398 11.0405L222.535 34.5699Z" fill="#0074FF"/>
<path d="M225.564 34.9276C225.396 36.2846 224.16 37.2637 222.802 37.0943C221.445 36.9249 220.464 35.6878 220.633 34.3308C220.801 32.9739 222.038 31.9948 223.395 32.1642C224.752 32.3336 225.733 33.5707 225.564 34.9276Z" fill="#0074FF"/>
<path d="M201.493 44.4035L223.311 35.1424L222.879 34.1264L201.06 43.3875L201.493 44.4035Z" fill="#0074FF"/>
<path d="M202.252 46.1764C200.994 46.714 199.527 46.1241 198.995 44.8573C198.457 43.6 199.045 42.1335 200.312 41.6029C201.569 41.0653 203.037 41.6553 203.568 42.922C204.107 44.1794 203.518 45.6459 202.252 46.1764Z" fill="#0074FF"/>
<path d="M181.991 30.0792L200.943 44.3399L201.606 43.4582L182.654 29.1976L181.991 30.0792Z" fill="#0074FF"/>
<path d="M180.833 31.6173C179.735 30.791 179.514 29.229 180.339 28.1316C181.165 27.0343 182.727 26.8143 183.826 27.6407C184.924 28.4671 185.145 30.0291 184.319 31.1264C183.494 32.2238 181.932 32.4437 180.833 31.6173Z" fill="#0074FF"/>
<path d="M181.774 29.5641L182.87 29.6983L185.733 6.16896L184.637 6.03478L181.774 29.5641Z" fill="#0074FF"/>
<path d="M182.718 5.80242C182.887 4.44547 184.123 3.46639 185.481 3.6358C186.838 3.8052 187.818 5.04231 187.65 6.39925C187.482 7.75618 186.245 8.7353 184.888 8.56588C183.53 8.39648 182.55 7.15935 182.718 5.80242Z" fill="#0074FF"/>
<path d="M185.402 6.57786L207.222 -2.67944L206.79 -3.69547L184.97 5.56182L185.402 6.57786Z" fill="#0074FF"/>
<path d="M206.031 -5.44635C207.288 -5.98394 208.756 -5.39397 209.287 -4.12722C209.826 -2.86987 209.237 -1.4034 207.971 -0.872865C206.714 -0.335252 205.246 -0.925234 204.715 -2.19196C204.176 -3.44933 204.765 -4.91582 206.031 -5.44635Z" fill="#0074FF"/>
<path d="M206.676 -2.72817L225.629 11.5325L226.292 10.6509L207.34 -3.6098L206.676 -2.72817Z" fill="#0074FF"/>
<path d="M227.45 9.11272C226.35 8.28573 224.79 8.50551 223.963 9.60363C223.137 10.7017 223.358 12.2624 224.457 13.0894C225.556 13.9164 227.117 13.6966 227.944 12.5985C228.77 11.5003 228.549 9.93971 227.45 9.11272Z" fill="#0074FF"/>
<path d="M263.311 39.5483L264.406 39.6825L267.27 16.1531L266.174 16.0189L263.311 39.5483Z" fill="#0074FF"/>
<path d="M266.324 39.9207C266.156 41.2777 264.919 42.2568 263.562 42.0874C262.205 41.918 261.224 40.6809 261.393 39.3239C261.561 37.967 262.797 36.9879 264.155 37.1573C265.512 37.3267 266.493 38.5638 266.324 39.9207Z" fill="#0074FF"/>
<path d="M242.265 49.4177L264.083 40.1566L263.651 39.1406L241.833 48.4018L242.265 49.4177Z" fill="#0074FF"/>
<path d="M243.021 51.1766C241.764 51.7142 240.296 51.1242 239.765 49.8575C239.226 48.6001 239.815 47.1337 241.081 46.6031C242.339 46.0655 243.806 46.6555 244.338 47.9222C244.876 49.1796 244.287 50.6461 243.03 51.1837L243.021 51.1766Z" fill="#0074FF"/>
<path d="M222.767 35.07L241.719 49.3307L242.383 48.4491L223.43 34.1884L222.767 35.07Z" fill="#0074FF"/>
<path d="M221.603 36.6175C220.504 35.7911 220.283 34.2291 221.109 33.1318C221.934 32.0345 223.496 31.8145 224.595 32.6409C225.693 33.4673 225.914 35.0293 225.089 36.1266C224.263 37.224 222.701 37.4439 221.603 36.6175Z" fill="#0074FF"/>
<path d="M222.535 34.5699L223.631 34.7041L226.494 11.1747L225.398 11.0405L222.535 34.5699Z" fill="#0074FF"/>
<path d="M223.495 10.7933C223.663 9.43634 224.9 8.45724 226.257 8.62665C227.614 8.79607 228.595 10.0332 228.426 11.3901C228.258 12.747 227.021 13.7261 225.664 13.5567C224.307 13.3873 223.326 12.1502 223.495 10.7933Z" fill="#0074FF"/>
<path d="M226.169 11.6105L247.988 2.34938L247.556 1.33346L225.737 10.5946L226.169 11.6105Z" fill="#0074FF"/>
<path d="M246.798 -0.462591C248.055 -1.00019 249.523 -0.410229 250.054 0.856521C250.593 2.11386 250.004 3.58035 248.738 4.11088C247.471 4.64143 246.013 4.05853 245.481 2.79178C244.943 1.53443 245.531 0.0679393 246.798 -0.462591Z" fill="#0074FF"/>
<path d="M279.408 77.3414L280.504 77.4756L283.367 53.9462L282.271 53.812L279.408 77.3414Z" fill="#0074FF"/>
<path d="M282.422 77.7096C282.254 79.0665 281.017 80.0457 279.66 79.8762C278.302 79.7068 277.322 78.4697 277.49 77.1128C277.659 75.7559 278.895 74.7767 280.253 74.9461C281.61 75.1156 282.59 76.3527 282.422 77.7096Z" fill="#0074FF"/>
<path d="M258.345 87.16L280.164 77.8989L279.731 76.883L257.913 86.1441L258.345 87.16Z" fill="#0074FF"/>
<path d="M259.109 88.9584C257.852 89.496 256.385 88.906 255.853 87.6393C255.314 86.3819 255.903 84.9155 257.17 84.3849C258.427 83.8473 259.894 84.4373 260.426 85.704C260.965 86.9614 260.376 88.4279 259.109 88.9584Z" fill="#0074FF"/>
<path d="M238.848 72.8612L257.801 87.1218L258.464 86.2402L239.512 71.9795L238.848 72.8612Z" fill="#0074FF"/>
<path d="M240.676 70.432C239.577 69.605 238.016 69.8248 237.19 70.923C236.363 72.0211 236.585 73.5817 237.684 74.4087C238.783 75.2357 240.344 75.0159 241.17 73.9178C241.996 72.8197 241.775 71.259 240.676 70.432Z" fill="#0074FF"/>
<path d="M238.64 72.3451L239.736 72.4793L242.599 48.9499L241.503 48.8157L238.64 72.3451Z" fill="#0074FF"/>
<path d="M239.576 48.5844C239.744 47.2275 240.981 46.2484 242.338 46.4178C243.696 46.5872 244.676 47.8243 244.508 49.1812C244.339 50.5382 243.103 51.5173 241.736 51.3408C240.379 51.1714 239.398 49.9343 239.566 48.5774L239.576 48.5844Z" fill="#0074FF"/>
<path d="M242.265 49.4177L264.083 40.1566L263.651 39.1406L241.833 48.4018L242.265 49.4177Z" fill="#0074FF"/>
<path d="M262.889 37.3356C264.146 36.798 265.613 37.388 266.145 38.6548C266.684 39.9121 266.095 41.3786 264.828 41.9091C263.571 42.4467 262.104 41.8567 261.572 40.59C261.033 39.3326 261.622 37.8662 262.889 37.3356Z" fill="#0074FF"/>
<path d="M263.534 40.0538L282.486 54.3144L283.15 53.4328L264.197 39.1722L263.534 40.0538Z" fill="#0074FF"/>
<path d="M284.307 51.8947C283.208 51.0677 281.647 51.2875 280.821 52.3856C279.995 53.4837 280.216 55.0443 281.315 55.8713C282.414 56.6983 283.975 56.4785 284.801 55.3804C285.627 54.2823 285.406 52.7217 284.307 51.8947Z" fill="#0074FF"/>
<path d="M320.169 82.3386L321.265 82.4728L324.128 58.9434L323.032 58.8092L320.169 82.3386Z" fill="#0074FF"/>
<path d="M323.182 82.7027C323.013 84.0597 321.777 85.0388 320.42 84.8694C319.062 84.7 318.082 83.4629 318.25 82.1059C318.418 80.749 319.655 79.7699 321.012 79.9393C322.37 80.1087 323.35 81.3458 323.182 82.7027Z" fill="#0074FF"/>
<path d="M299.13 92.1537L320.95 82.8964L320.518 81.8804L298.698 91.1377L299.13 92.1537Z" fill="#0074FF"/>
<path d="M299.878 93.9586C298.621 94.4962 297.154 93.9063 296.622 92.6395C296.083 91.3822 296.672 89.9157 297.939 89.3851C299.196 88.8475 300.663 89.4375 301.195 90.7042C301.734 91.9616 301.145 93.4281 299.878 93.9586Z" fill="#0074FF"/>
<path d="M279.624 77.852L298.577 92.1127L299.24 91.2311L280.288 76.9704L279.624 77.852Z" fill="#0074FF"/>
<path d="M281.452 75.4229C280.353 74.5959 278.792 74.8157 277.966 75.9138C277.14 77.0119 277.361 78.5725 278.46 79.3995C279.559 80.2265 281.12 80.0067 281.946 78.9086C282.772 77.8105 282.551 76.2499 281.452 75.4229Z" fill="#0074FF"/>
<path d="M279.408 77.3414L280.504 77.4756L283.367 53.9462L282.271 53.812L279.408 77.3414Z" fill="#0074FF"/>
<path d="M280.352 53.5753C280.52 52.2183 281.757 51.2392 283.114 51.4086C284.472 51.578 285.452 52.8152 285.284 54.1721C285.116 55.529 283.879 56.5081 282.522 56.3387C281.164 56.1693 280.184 54.9322 280.352 53.5753Z" fill="#0074FF"/>
<path d="M283.021 54.367L304.84 45.1059L304.408 44.0899L282.589 53.3511L283.021 54.367Z" fill="#0074FF"/>
<path d="M303.656 42.3194C304.913 41.7818 306.38 42.3718 306.912 43.6385C307.451 44.8959 306.862 46.3623 305.595 46.8929C304.338 47.4305 302.871 46.8405 302.339 45.5738C301.8 44.3164 302.389 42.8499 303.656 42.3194Z" fill="#0074FF"/>
<path d="M304.303 45.054L323.256 59.3147L323.919 58.4331L304.966 44.1724L304.303 45.054Z" fill="#0074FF"/>
<path d="M325.083 56.8855C326.182 57.7119 326.403 59.274 325.577 60.3713C324.752 61.4686 323.189 61.6886 322.091 60.8622C320.993 60.0358 320.771 58.4738 321.597 57.3765C322.423 56.2791 323.985 56.0591 325.083 56.8855Z" fill="#0074FF"/>
<path d="M336.257 120.125L337.353 120.259L340.216 96.7295L339.12 96.5953L336.257 120.125Z" fill="#0074FF"/>
<path d="M339.279 120.492C339.111 121.849 337.875 122.828 336.517 122.658C335.16 122.489 334.179 121.252 334.348 119.895C334.516 118.538 335.753 117.559 337.11 117.728C338.467 117.898 339.448 119.135 339.279 120.492Z" fill="#0074FF"/>
<path d="M315.204 129.966L337.023 120.705L336.59 119.689L314.772 128.95L315.204 129.966Z" fill="#0074FF"/>
<path d="M315.976 131.747C314.719 132.285 313.251 131.695 312.72 130.428C312.181 129.171 312.77 127.705 314.036 127.174C315.294 126.636 316.761 127.226 317.293 128.493C317.831 129.75 317.243 131.217 315.976 131.747Z" fill="#0074FF"/>
<path d="M295.706 115.643L314.658 129.904L315.321 129.022L296.369 114.762L295.706 115.643Z" fill="#0074FF"/>
<path d="M294.548 117.181C293.45 116.355 293.229 114.793 294.054 113.696C294.88 112.598 296.442 112.378 297.54 113.205C298.639 114.031 298.86 115.593 298.034 116.69C297.209 117.788 295.646 118.008 294.548 117.181Z" fill="#0074FF"/>
<path d="M295.49 115.128L296.585 115.263L299.449 91.7331L298.353 91.599L295.49 115.128Z" fill="#0074FF"/>
<path d="M296.433 91.3664C296.602 90.0095 297.838 89.0304 299.196 89.1998C300.553 89.3692 301.533 90.6063 301.365 91.9632C301.197 93.3202 299.96 94.2993 298.603 94.1299C297.245 93.9604 296.265 92.7233 296.433 91.3664Z" fill="#0074FF"/>
<path d="M299.13 92.1537L320.95 82.8964L320.518 81.8804L298.698 91.1377L299.13 92.1537Z" fill="#0074FF"/>
<path d="M319.746 80.1176C321.003 79.58 322.471 80.17 323.002 81.4367C323.541 82.6941 322.952 84.1605 321.686 84.6911C320.428 85.2287 318.961 84.6387 318.429 83.372C317.891 82.1146 318.48 80.6481 319.746 80.1176Z" fill="#0074FF"/>
<path d="M320.391 82.8358L339.344 97.0965L340.007 96.2148L321.055 81.9542L320.391 82.8358Z" fill="#0074FF"/>
<path d="M341.164 94.6767C340.065 93.8497 338.505 94.0695 337.678 95.1676C336.852 96.2657 337.073 97.8264 338.172 98.6534C339.271 99.4804 340.832 99.2606 341.658 98.1624C342.485 97.0643 342.264 95.5037 341.164 94.6767Z" fill="#0074FF"/>
<path d="M377.026 125.112L378.122 125.247L380.985 101.717L379.889 101.583L377.026 125.112Z" fill="#0074FF"/>
<path d="M380.049 125.492C379.88 126.849 378.644 127.828 377.286 127.658C375.929 127.489 374.949 126.252 375.117 124.895C375.285 123.538 376.522 122.559 377.879 122.728C379.237 122.898 380.217 124.135 380.049 125.492Z" fill="#0074FF"/>
<path d="M355.989 134.938L377.809 125.681L377.377 124.665L355.557 133.922L355.989 134.938Z" fill="#0074FF"/>
<path d="M356.736 136.741C355.479 137.278 354.011 136.688 353.48 135.421C352.941 134.164 353.53 132.698 354.796 132.167C356.053 131.63 357.521 132.219 358.053 133.486C358.591 134.744 358.002 136.21 356.736 136.741Z" fill="#0074FF"/>
<path d="M336.482 120.634L355.434 134.895L356.098 134.013L337.145 119.752L336.482 120.634Z" fill="#0074FF"/>
<path d="M338.31 118.205C337.211 117.378 335.65 117.598 334.823 118.696C333.997 119.794 334.218 121.355 335.317 122.181C336.417 123.008 337.977 122.789 338.804 121.691C339.63 120.592 339.409 119.032 338.31 118.205Z" fill="#0074FF"/>
<path d="M336.257 120.125L337.353 120.259L340.216 96.7295L339.12 96.5953L336.257 120.125Z" fill="#0074FF"/>
<path d="M337.21 96.3572C337.378 95.0003 338.614 94.0212 339.972 94.1906C341.329 94.36 342.31 95.5971 342.141 96.9541C341.973 98.311 340.736 99.2901 339.379 99.1207C338.022 98.9513 337.041 97.7142 337.21 96.3572Z" fill="#0074FF"/>
<path d="M339.88 97.1728L361.699 87.9118L361.267 86.8958L339.448 96.1569L339.88 97.1728Z" fill="#0074FF"/>
<path d="M360.513 85.1014C361.77 84.5638 363.238 85.1537 363.769 86.4205C364.308 87.6778 363.719 89.1443 362.453 89.6748C361.186 90.2054 359.728 89.6225 359.196 88.3557C358.657 87.0984 359.246 85.6319 360.513 85.1014Z" fill="#0074FF"/>
<path d="M361.16 87.836L380.113 102.097L380.776 101.215L361.824 86.9544L361.16 87.836Z" fill="#0074FF"/>
<path d="M381.941 99.6675C383.039 100.494 383.26 102.056 382.435 103.153C381.609 104.251 380.047 104.471 378.949 103.644C377.85 102.818 377.629 101.256 378.455 100.158C379.28 99.0611 380.842 98.8411 381.941 99.6675Z" fill="#0074FF"/>
<path d="M393.123 162.906L394.219 163.04L397.082 139.51L395.986 139.376L393.123 162.906Z" fill="#0074FF"/>
<path d="M396.137 163.274C395.969 164.63 394.732 165.61 393.375 165.44C392.017 165.271 391.037 164.034 391.205 162.677C391.373 161.32 392.61 160.341 393.967 160.51C395.325 160.68 396.305 161.917 396.137 163.274Z" fill="#0074FF"/>
<path d="M372.061 172.755L393.879 163.494L393.447 162.478L371.628 171.739L372.061 172.755Z" fill="#0074FF"/>
<path d="M372.833 174.529C371.576 175.067 370.109 174.477 369.577 173.21C369.038 171.953 369.627 170.486 370.894 169.956C372.151 169.418 373.618 170.008 374.15 171.275C374.689 172.532 374.1 173.999 372.833 174.529Z" fill="#0074FF"/>
<path d="M352.563 158.425L371.516 172.686L372.179 171.804L353.226 157.544L352.563 158.425Z" fill="#0074FF"/>
<path d="M354.391 155.996C353.292 155.169 351.731 155.389 350.905 156.487C350.078 157.585 350.3 159.146 351.399 159.973C352.498 160.8 354.059 160.58 354.885 159.482C355.711 158.384 355.49 156.823 354.391 155.996Z" fill="#0074FF"/>
<path d="M352.348 157.919L353.444 158.053L356.307 134.523L355.211 134.389L352.348 157.919Z" fill="#0074FF"/>
<path d="M353.291 134.148C353.459 132.791 354.696 131.812 356.053 131.982C357.41 132.151 358.391 133.388 358.223 134.745C358.054 136.102 356.818 137.081 355.46 136.912C354.103 136.742 353.122 135.505 353.291 134.148Z" fill="#0074FF"/>
<path d="M355.989 134.938L377.809 125.681L377.377 124.665L355.557 133.922L355.989 134.938Z" fill="#0074FF"/>
<path d="M376.604 122.9C377.861 122.362 379.328 122.952 379.86 124.219C380.399 125.476 379.81 126.943 378.543 127.473C377.286 128.011 375.819 127.421 375.287 126.154C374.748 124.897 375.337 123.43 376.604 122.9Z" fill="#0074FF"/>
<path d="M377.249 125.618L396.201 139.878L396.865 138.997L377.912 124.736L377.249 125.618Z" fill="#0074FF"/>
<path d="M398.022 137.459C396.923 136.632 395.362 136.851 394.536 137.95C393.71 139.048 393.931 140.608 395.03 141.435C396.129 142.262 397.69 142.042 398.516 140.944C399.342 139.846 399.121 138.286 398.022 137.459Z" fill="#0074FF"/>
<path d="M433.885 167.903L434.98 168.037L437.844 144.508L436.748 144.373L433.885 167.903Z" fill="#0074FF"/>
<path d="M436.906 168.274C436.738 169.631 435.501 170.61 434.144 170.44C432.786 170.271 431.806 169.034 431.974 167.677C432.143 166.32 433.379 165.341 434.737 165.51C436.094 165.68 437.074 166.917 436.906 168.274Z" fill="#0074FF"/>
<path d="M412.83 177.753L434.649 168.492L434.217 167.476L412.398 176.737L412.83 177.753Z" fill="#0074FF"/>
<path d="M413.593 179.523C412.336 180.06 410.869 179.47 410.337 178.203C409.798 176.946 410.387 175.48 411.654 174.949C412.911 174.412 414.378 175.001 414.91 176.268C415.449 177.526 414.86 178.992 413.593 179.523Z" fill="#0074FF"/>
<path d="M393.339 163.416L412.292 177.677L412.955 176.795L394.003 162.534L393.339 163.416Z" fill="#0074FF"/>
<path d="M395.167 160.987C394.068 160.16 392.507 160.38 391.681 161.478C390.855 162.576 391.076 164.136 392.175 164.963C393.274 165.79 394.835 165.571 395.661 164.473C396.487 163.374 396.266 161.814 395.167 160.987Z" fill="#0074FF"/>
<path d="M393.123 162.906L394.219 163.04L397.082 139.51L395.986 139.376L393.123 162.906Z" fill="#0074FF"/>
<path d="M394.067 139.139C394.235 137.782 395.472 136.803 396.829 136.973C398.187 137.142 399.167 138.379 398.999 139.736C398.83 141.093 397.594 142.072 396.236 141.903C394.879 141.733 393.899 140.496 394.067 139.139Z" fill="#0074FF"/>
<path d="M396.735 139.946L418.554 130.685L418.122 129.669L396.303 138.93L396.735 139.946Z" fill="#0074FF"/>
<path d="M417.37 127.883C418.628 127.346 420.095 127.936 420.627 129.202C421.165 130.46 420.577 131.926 419.31 132.457C418.053 132.994 416.585 132.404 416.054 131.138C415.515 129.88 416.104 128.414 417.37 127.883Z" fill="#0074FF"/>
<path d="M418.018 130.618L436.97 144.879L437.634 143.997L418.681 129.736L418.018 130.618Z" fill="#0074FF"/>
<path d="M438.798 142.45C439.897 143.276 440.118 144.838 439.292 145.935C438.466 147.033 436.904 147.253 435.806 146.426C434.708 145.6 434.486 144.038 435.312 142.94C436.138 141.843 437.7 141.623 438.798 142.45Z" fill="#0074FF"/>
<path d="M412.83 177.753L434.649 168.492L434.217 167.476L412.398 176.737L412.83 177.753Z" fill="#0074FF"/>
<path d="M433.461 165.682C434.718 165.144 436.186 165.734 436.717 167.001C437.256 168.258 436.667 169.725 435.401 170.255C434.143 170.793 432.676 170.203 432.144 168.936C431.606 167.679 432.194 166.212 433.461 165.682Z" fill="#0074FF"/>
<path d="M434.106 168.4L453.059 182.66L453.722 181.779L434.77 167.518L434.106 168.4Z" fill="#0074FF"/>
<path d="M454.879 180.241C453.78 179.414 452.22 179.633 451.393 180.732C450.567 181.83 450.788 183.39 451.887 184.217C452.986 185.044 454.547 184.824 455.373 183.726C456.2 182.628 455.979 181.068 454.879 180.241Z" fill="#0074FF"/>
<path d="M169.312 -31.1789L191.131 -40.44L190.699 -41.456L168.88 -32.1949L169.312 -31.1789Z" fill="#0074FF"/>
<path d="M170.073 -29.4036C168.816 -28.866 167.348 -29.456 166.817 -30.7227C166.278 -31.9801 166.867 -33.4466 168.133 -33.9771C169.39 -34.5147 170.858 -33.9247 171.389 -32.658C171.928 -31.4006 171.339 -29.9342 170.073 -29.4036Z" fill="#0074FF"/>
<path d="M149.819 -45.5102L168.771 -31.2495L169.435 -32.1311L150.482 -46.3918L149.819 -45.5102Z" fill="#0074FF"/>
<path d="M151.64 -47.9299C150.541 -48.7569 148.98 -48.5371 148.153 -47.439C147.327 -46.3409 147.548 -44.7803 148.647 -43.9533C149.747 -43.1263 151.307 -43.3461 152.134 -44.4442C152.96 -45.5423 152.739 -47.1029 151.64 -47.9299Z" fill="#0074FF"/>
<path d="M226.169 11.6105L247.988 2.34938L247.556 1.33346L225.737 10.5946L226.169 11.6105Z" fill="#0074FF"/>
<path d="M226.93 13.3784C225.673 13.916 224.206 13.326 223.674 12.0593C223.135 10.8019 223.724 9.33544 224.991 8.80491C226.248 8.26731 227.715 8.85727 228.247 10.124C228.786 11.3814 228.197 12.8478 226.93 13.3784Z" fill="#0074FF"/>
<path d="M206.676 -2.72817L225.629 11.5325L226.292 10.6509L207.34 -3.6098L206.676 -2.72817Z" fill="#0074FF"/>
<path d="M205.512 -1.18068C204.414 -2.00706 204.192 -3.56907 205.018 -4.6664C205.844 -5.76372 207.406 -5.98371 208.504 -5.15732C209.602 -4.33092 209.824 -2.76891 208.998 -1.67159C208.172 -0.574259 206.61 -0.354274 205.512 -1.18068Z" fill="#0074FF"/>
<path d="M206.461 -3.23498L207.557 -3.10078L210.42 -26.6302L209.324 -26.7644L206.461 -3.23498Z" fill="#0074FF"/>
<path d="M207.397 -26.9956C207.565 -28.3525 208.802 -29.3316 210.159 -29.1622C211.517 -28.9928 212.497 -27.7557 212.329 -26.3987C212.16 -25.0418 210.924 -24.0627 209.566 -24.2321C208.209 -24.4015 207.229 -25.6387 207.397 -26.9956Z" fill="#0074FF"/>
<path d="M304.085 44.5353L305.181 44.6695L308.044 21.1401L306.948 21.0059L304.085 44.5353Z" fill="#0074FF"/>
<path d="M307.101 44.9116C306.932 46.2685 305.696 47.2477 304.338 47.0782C302.981 46.9088 302.001 45.6717 302.169 44.3148C302.337 42.9579 303.574 41.9787 304.931 42.1482C306.289 42.3176 307.269 43.5547 307.101 44.9116Z" fill="#0074FF"/>
<path d="M283.021 54.367L304.84 45.1059L304.408 44.0899L282.589 53.3511L283.021 54.367Z" fill="#0074FF"/>
<path d="M283.788 56.1604C282.531 56.6979 281.063 56.108 280.531 54.8413C279.993 53.5839 280.582 52.1174 281.848 51.5869C283.105 51.0493 284.573 51.6392 285.104 52.906C285.643 54.1633 285.054 55.6298 283.788 56.1604Z" fill="#0074FF"/>
<path d="M263.534 40.0538L282.486 54.3144L283.15 53.4328L264.197 39.1722L263.534 40.0538Z" fill="#0074FF"/>
<path d="M265.355 37.634C264.255 36.807 262.695 37.0268 261.868 38.125C261.042 39.2231 261.263 40.7837 262.362 41.6107C263.461 42.4377 265.022 42.2179 265.849 41.1198C266.675 40.0217 266.454 38.461 265.355 37.634Z" fill="#0074FF"/>
<path d="M263.311 39.5483L264.406 39.6825L267.27 16.1531L266.174 16.0189L263.311 39.5483Z" fill="#0074FF"/>
<path d="M264.254 15.7864C264.423 14.4294 265.659 13.4503 267.017 13.6198C268.374 13.7892 269.355 15.0263 269.186 16.3832C269.018 17.7401 267.781 18.7192 266.415 18.5428C265.057 18.3734 264.077 17.1363 264.245 15.7793L264.254 15.7864Z" fill="#0074FF"/>
<path d="M323.803 59.3508L345.624 50.0935L345.192 49.0775L323.372 58.3348L323.803 59.3508Z" fill="#0074FF"/>
<path d="M324.557 61.1606C323.3 61.6982 321.832 61.1082 321.301 59.8415C320.762 58.5841 321.351 57.1177 322.617 56.5871C323.875 56.0495 325.342 56.6395 325.874 57.9062C326.405 59.173 325.824 60.6301 324.557 61.1606Z" fill="#0074FF"/>
<path d="M304.303 45.054L323.256 59.3147L323.919 58.4331L304.966 44.1724L304.303 45.054Z" fill="#0074FF"/>
<path d="M303.139 46.6015C302.04 45.7751 301.819 44.2131 302.645 43.1158C303.47 42.0185 305.032 41.7985 306.131 42.6249C307.229 43.4513 307.45 45.0133 306.625 46.1106C305.799 47.2079 304.237 47.4279 303.139 46.6015Z" fill="#0074FF"/>
<path d="M304.085 44.5353L305.181 44.6695L308.044 21.1401L306.948 21.0059L304.085 44.5353Z" fill="#0074FF"/>
<path d="M305.031 20.7772C305.199 19.4203 306.436 18.4412 307.793 18.6106C309.15 18.78 310.131 20.0171 309.962 21.3741C309.794 22.731 308.558 23.7101 307.2 23.5407C305.843 23.3713 304.862 22.1342 305.031 20.7772Z" fill="#0074FF"/>
<path d="M360.944 87.3256L362.04 87.4598L364.903 63.9304L363.807 63.7963L360.944 87.3256Z" fill="#0074FF"/>
<path d="M363.958 87.6936C363.79 89.0505 362.553 90.0296 361.196 89.8602C359.838 89.6908 358.858 88.4537 359.026 87.0968C359.195 85.7398 360.431 84.7607 361.789 84.9302C363.146 85.0996 364.126 86.3367 363.958 87.6936Z" fill="#0074FF"/>
<path d="M339.88 97.1728L361.699 87.9118L361.267 86.8958L339.448 96.1569L339.88 97.1728Z" fill="#0074FF"/>
<path d="M340.655 98.9494C339.397 99.487 337.93 98.8971 337.398 97.6303C336.86 96.3729 337.448 94.9065 338.715 94.3759C339.972 93.8383 341.44 94.4283 341.971 95.695C342.51 96.9524 341.921 98.4189 340.655 98.9494Z" fill="#0074FF"/>
<path d="M320.391 82.8358L339.344 97.0965L340.007 96.2148L321.055 81.9542L320.391 82.8358Z" fill="#0074FF"/>
<path d="M319.227 84.3833C318.129 83.5569 317.907 81.9949 318.733 80.8975C319.559 79.8002 321.121 79.5802 322.219 80.4066C323.317 81.233 323.539 82.795 322.713 83.8923C321.887 84.9897 320.325 85.2097 319.227 84.3833Z" fill="#0074FF"/>
<path d="M320.169 82.3386L321.265 82.4728L324.128 58.9434L323.032 58.8092L320.169 82.3386Z" fill="#0074FF"/>
<path d="M321.112 58.5684C321.28 57.2114 322.517 56.2323 323.874 56.4018C325.232 56.5712 326.212 57.8083 326.044 59.1652C325.875 60.5221 324.639 61.5012 323.281 61.3318C321.924 61.1624 320.944 59.9253 321.112 58.5684Z" fill="#0074FF"/>
<path d="M323.803 59.3508L345.624 50.0935L345.192 49.0775L323.372 58.3348L323.803 59.3508Z" fill="#0074FF"/>
<path d="M344.425 47.3196C345.682 46.782 347.149 47.372 347.681 48.6387C348.22 49.8961 347.631 51.3626 346.364 51.8931C345.107 52.4307 343.64 51.8407 343.108 50.574C342.569 49.3166 343.158 47.8502 344.425 47.3196Z" fill="#0074FF"/>
<path d="M345.07 50.0378L364.022 64.2984L364.686 63.4168L345.733 49.1561L345.07 50.0378Z" fill="#0074FF"/>
<path d="M365.85 61.8693C364.751 61.0423 363.19 61.2621 362.364 62.3602C361.538 63.4583 361.759 65.019 362.858 65.846C363.957 66.673 365.518 66.4532 366.344 65.355C367.17 64.2569 366.949 62.6963 365.85 61.8693Z" fill="#0074FF"/>
<path d="M401.705 92.3228L402.801 92.457L405.664 68.9276L404.569 68.7934L401.705 92.3228Z" fill="#0074FF"/>
<path d="M404.727 92.6938C404.559 94.0507 403.322 95.0299 401.965 94.8604C400.608 94.691 399.627 93.4539 399.803 92.0876C399.971 90.7307 401.207 89.7516 402.565 89.921C403.922 90.0904 404.903 91.3275 404.734 92.6844L404.727 92.6938Z" fill="#0074FF"/>
<path d="M380.663 102.135L402.483 92.8779L402.051 91.8619L380.231 101.119L380.663 102.135Z" fill="#0074FF"/>
<path d="M381.414 103.943C380.157 104.48 378.69 103.89 378.158 102.623C377.619 101.366 378.208 99.8996 379.475 99.3691C380.732 98.8315 382.199 99.4214 382.731 100.688C383.27 101.946 382.681 103.412 381.414 103.943Z" fill="#0074FF"/>
<path d="M361.16 87.836L380.113 102.097L380.776 101.215L361.824 86.9544L361.16 87.836Z" fill="#0074FF"/>
<path d="M359.996 89.3835C358.898 88.5571 358.676 86.9951 359.502 85.8978C360.328 84.8005 361.89 84.5805 362.988 85.4069C364.087 86.2333 364.308 87.7953 363.482 88.8926C362.657 89.9899 361.094 90.2099 359.996 89.3835Z" fill="#0074FF"/>
<path d="M360.944 87.3256L362.04 87.4598L364.903 63.9304L363.807 63.7963L360.944 87.3256Z" fill="#0074FF"/>
<path d="M361.888 63.5592C362.056 62.2023 363.293 61.2232 364.65 61.3926C366.008 61.562 366.988 62.7991 366.82 64.156C366.652 65.513 365.415 66.4921 364.058 66.3226C362.7 66.1532 361.72 64.9161 361.888 63.5592Z" fill="#0074FF"/>
<path d="M364.564 64.3705L386.383 55.1094L385.951 54.0934L364.132 63.3545L364.564 64.3705Z" fill="#0074FF"/>
<path d="M385.192 52.3034C386.449 51.7658 387.916 52.3557 388.455 53.6131C388.994 54.8705 388.405 56.3369 387.138 56.8675C385.881 57.4051 384.414 56.8151 383.882 55.5484C383.343 54.291 383.932 52.8245 385.199 52.294L385.192 52.3034Z" fill="#0074FF"/>
<path d="M385.839 55.038L404.792 69.2987L405.455 68.417L386.502 54.1564L385.839 55.038Z" fill="#0074FF"/>
<path d="M406.619 66.8695C405.52 66.0425 403.959 66.2623 403.133 67.3604C402.307 68.4585 402.528 70.0192 403.627 70.8462C404.726 71.6732 406.287 71.4534 407.113 70.3552C407.94 69.2571 407.718 67.6965 406.619 66.8695Z" fill="#0074FF"/>
<path d="M417.8 130.099L418.896 130.234L421.759 106.704L420.664 106.57L417.8 130.099Z" fill="#0074FF"/>
<path d="M420.816 130.476C420.647 131.832 419.411 132.812 418.053 132.642C416.696 132.473 415.715 131.236 415.884 129.879C416.052 128.522 417.289 127.543 418.646 127.712C420.003 127.882 420.984 129.119 420.816 130.476Z" fill="#0074FF"/>
<path d="M396.735 139.946L418.554 130.685L418.122 129.669L396.303 138.93L396.735 139.946Z" fill="#0074FF"/>
<path d="M397.512 141.731C396.255 142.269 394.788 141.679 394.256 140.412C393.717 139.155 394.306 137.688 395.572 137.158C396.83 136.62 398.297 137.21 398.829 138.477C399.368 139.734 398.779 141.201 397.512 141.731Z" fill="#0074FF"/>
<path d="M377.249 125.618L396.201 139.878L396.865 138.997L377.912 124.736L377.249 125.618Z" fill="#0074FF"/>
<path d="M379.069 123.198C377.97 122.371 376.41 122.591 375.583 123.689C374.757 124.787 374.978 126.348 376.077 127.175C377.176 128.002 378.737 127.782 379.563 126.684C380.39 125.586 380.169 124.025 379.069 123.198Z" fill="#0074FF"/>
<path d="M377.026 125.112L378.122 125.247L380.985 101.717L379.889 101.583L377.026 125.112Z" fill="#0074FF"/>
<path d="M377.969 101.35C378.138 99.9934 379.374 99.0143 380.732 99.1837C382.089 99.3531 383.069 100.59 382.901 101.947C382.733 103.304 381.496 104.283 380.139 104.114C378.781 103.944 377.801 102.707 377.969 101.35Z" fill="#0074FF"/>
<path d="M380.663 102.135L402.483 92.8779L402.051 91.8619L380.231 101.119L380.663 102.135Z" fill="#0074FF"/>
<path d="M401.282 90.1015C402.539 89.564 404.007 90.1539 404.538 91.4207C405.077 92.678 404.488 94.1445 403.222 94.675C401.965 95.2126 400.497 94.6227 399.966 93.3559C399.427 92.0986 400.016 90.6321 401.282 90.1015Z" fill="#0074FF"/>
<path d="M401.927 92.8197L420.88 107.08L421.543 106.199L402.591 91.9381L401.927 92.8197Z" fill="#0074FF"/>
<path d="M422.708 104.651C421.609 103.824 420.048 104.044 419.221 105.142C418.395 106.24 418.616 107.801 419.715 108.628C420.814 109.455 422.375 109.235 423.202 108.137C424.028 107.039 423.807 105.478 422.708 104.651Z" fill="#0074FF"/>
<path d="M458.555 135.106L459.651 135.24L462.514 111.711L461.418 111.577L458.555 135.106Z" fill="#0074FF"/>
<path d="M461.585 135.476C461.416 136.833 460.18 137.812 458.822 137.642C457.465 137.473 456.485 136.236 456.66 134.87C456.828 133.513 458.065 132.534 459.422 132.703C460.78 132.872 461.76 134.109 461.592 135.466L461.585 135.476Z" fill="#0074FF"/>
<path d="M437.514 144.951L459.333 135.69L458.901 134.674L437.082 143.935L437.514 144.951Z" fill="#0074FF"/>
<path d="M438.272 146.725C437.015 147.262 435.547 146.672 435.016 145.405C434.477 144.148 435.066 142.682 436.332 142.151C437.59 141.613 439.057 142.203 439.589 143.47C440.12 144.737 439.538 146.194 438.272 146.725Z" fill="#0074FF"/>
<path d="M418.018 130.618L436.97 144.879L437.634 143.997L418.681 129.736L418.018 130.618Z" fill="#0074FF"/>
<path d="M416.854 132.165C415.755 131.339 415.534 129.777 416.36 128.68C417.185 127.582 418.747 127.362 419.846 128.189C420.944 129.015 421.165 130.577 420.34 131.675C419.514 132.772 417.952 132.992 416.854 132.165Z" fill="#0074FF"/>
<path d="M417.8 130.099L418.896 130.234L421.759 106.704L420.664 106.57L417.8 130.099Z" fill="#0074FF"/>
<path d="M418.746 106.341C418.914 104.984 420.151 104.005 421.508 104.175C422.865 104.344 423.846 105.581 423.677 106.938C423.509 108.295 422.273 109.274 420.915 109.105C419.558 108.935 418.577 107.698 418.746 106.341Z" fill="#0074FF"/>
<path d="M421.422 107.148L443.241 97.8871L442.809 96.8712L420.99 106.132L421.422 107.148Z" fill="#0074FF"/>
<path d="M442.049 95.0854C443.306 94.5478 444.774 95.1377 445.312 96.3951C445.851 97.6524 445.262 99.1189 443.996 99.6495C442.738 100.187 441.271 99.5971 440.739 98.3303C440.201 97.073 440.79 95.6065 442.056 95.076L442.049 95.0854Z" fill="#0074FF"/>
<path d="M442.697 97.82L461.649 112.081L462.312 111.199L443.36 96.9384L442.697 97.82Z" fill="#0074FF"/>
<path d="M463.477 109.652C464.575 110.478 464.796 112.04 463.971 113.137C463.145 114.235 461.583 114.455 460.485 113.628C459.386 112.802 459.165 111.24 459.991 110.142C460.816 109.045 462.379 108.825 463.477 109.652Z" fill="#0074FF"/>
<path d="M434.106 168.4L453.059 182.66L453.722 181.779L434.77 167.518L434.106 168.4Z" fill="#0074FF"/>
<path d="M432.942 169.947C431.844 169.121 431.622 167.559 432.448 166.462C433.274 165.364 434.836 165.144 435.934 165.971C437.032 166.797 437.254 168.359 436.428 169.456C435.602 170.554 434.04 170.774 432.942 169.947Z" fill="#0074FF"/>
<path d="M433.885 167.903L434.98 168.037L437.844 144.508L436.748 144.373L433.885 167.903Z" fill="#0074FF"/>
<path d="M434.827 144.132C434.995 142.775 436.232 141.796 437.589 141.966C438.947 142.135 439.927 143.372 439.759 144.729C439.59 146.086 438.354 147.065 436.996 146.896C435.639 146.726 434.659 145.489 434.827 144.132Z" fill="#0074FF"/>
<path d="M437.514 144.951L459.333 135.69L458.901 134.674L437.082 143.935L437.514 144.951Z" fill="#0074FF"/>
<path d="M458.14 132.884C459.397 132.346 460.864 132.936 461.396 134.203C461.935 135.46 461.346 136.927 460.079 137.457C458.822 137.995 457.355 137.405 456.823 136.138C456.284 134.881 456.873 133.414 458.14 132.884Z" fill="#0074FF"/>
<path d="M458.785 135.602L477.737 149.862L478.401 148.981L459.448 134.72L458.785 135.602Z" fill="#0074FF"/>
<path d="M479.565 147.433C478.466 146.606 476.905 146.826 476.079 147.924C475.253 149.022 475.474 150.583 476.573 151.41C477.672 152.237 479.233 152.017 480.059 150.919C480.885 149.821 480.664 148.26 479.565 147.433Z" fill="#0074FF"/>
<path d="M385.621 54.5195L386.717 54.6537L389.58 31.1243L388.484 30.9901L385.621 54.5195Z" fill="#0074FF"/>
<path d="M388.637 54.8956C388.468 56.2526 387.232 57.2317 385.874 57.0622C384.517 56.8928 383.537 55.6557 383.705 54.2988C383.873 52.9419 385.11 51.9628 386.467 52.1322C387.825 52.3016 388.805 53.5387 388.637 54.8956Z" fill="#0074FF"/>
<path d="M364.564 64.3705L386.383 55.1094L385.951 54.0934L364.132 63.3545L364.564 64.3705Z" fill="#0074FF"/>
<path d="M365.333 66.1514C364.076 66.689 362.609 66.0991 362.07 64.8417C361.531 63.5843 362.12 62.1178 363.387 61.5873C364.644 61.0497 366.111 61.6397 366.643 62.9064C367.182 64.1638 366.593 65.6303 365.326 66.1608L365.333 66.1514Z" fill="#0074FF"/>
<path d="M345.07 50.0378L364.022 64.2984L364.686 63.4168L345.733 49.1561L345.07 50.0378Z" fill="#0074FF"/>
<path d="M343.905 51.5853C342.807 50.7589 342.586 49.1969 343.411 48.0995C344.237 47.0022 345.799 46.7822 346.898 47.6086C347.996 48.435 348.217 49.997 347.392 51.0944C346.566 52.1917 345.004 52.4117 343.905 51.5853Z" fill="#0074FF"/>
<path d="M369.748 17.2398L388.701 31.5004L389.364 30.6188L370.412 16.3581L369.748 17.2398Z" fill="#0074FF"/>
<path d="M390.522 29.0807C391.62 29.9071 391.841 31.4691 391.016 32.5664C390.19 33.6637 388.628 33.8837 387.53 33.0573C386.431 32.2309 386.21 30.6689 387.036 29.5716C387.861 28.4743 389.423 28.2543 390.522 29.0807Z" fill="#0074FF"/>
<path d="M426.383 59.5167L427.479 59.6509L430.342 36.1215L429.246 35.9873L426.383 59.5167Z" fill="#0074FF"/>
<path d="M429.406 59.8958C429.238 61.2527 428.001 62.2319 426.644 62.0625C425.286 61.893 424.306 60.6559 424.474 59.299C424.642 57.9421 425.879 56.963 427.236 57.1324C428.594 57.3018 429.574 58.5389 429.406 59.8958Z" fill="#0074FF"/>
<path d="M405.334 69.3682L427.153 60.1071L426.72 59.0912L404.902 68.3523L405.334 69.3682Z" fill="#0074FF"/>
<path d="M406.093 71.1446C404.836 71.6822 403.369 71.0922 402.837 69.8255C402.298 68.5681 402.887 67.1016 404.153 66.5711C405.411 66.0335 406.878 66.6235 407.41 67.8902C407.949 69.1476 407.36 70.614 406.093 71.1446Z" fill="#0074FF"/>
<path d="M385.839 55.038L404.792 69.2987L405.455 68.417L386.502 54.1564L385.839 55.038Z" fill="#0074FF"/>
<path d="M387.667 52.6089C386.568 51.7819 385.007 52.0017 384.181 53.0998C383.354 54.1979 383.576 55.7585 384.675 56.5855C385.774 57.4125 387.335 57.1927 388.161 56.0946C388.987 54.9965 388.766 53.4359 387.667 52.6089Z" fill="#0074FF"/>
<path d="M385.621 54.5195L386.717 54.6537L389.58 31.1243L388.484 30.9901L385.621 54.5195Z" fill="#0074FF"/>
<path d="M386.567 30.7612C386.735 29.4043 387.972 28.4252 389.329 28.5946C390.687 28.764 391.667 30.0011 391.499 31.358C391.33 32.715 390.094 33.6941 388.736 33.5246C387.379 33.3552 386.398 32.1181 386.567 30.7612Z" fill="#0074FF"/>
<path d="M389.254 31.5415L411.074 22.2842L410.642 21.2682L388.822 30.5254L389.254 31.5415Z" fill="#0074FF"/>
<path d="M409.87 19.5054C411.127 18.9678 412.595 19.5577 413.126 20.8245C413.665 22.0818 413.076 23.5483 411.81 24.0788C410.553 24.6164 409.085 24.0265 408.554 22.7597C408.015 21.5024 408.604 20.0359 409.87 19.5054Z" fill="#0074FF"/>
<path d="M410.518 22.24L429.47 36.5007L430.134 35.619L411.181 21.3584L410.518 22.24Z" fill="#0074FF"/>
<path d="M431.298 34.0715C430.199 33.2445 428.638 33.4643 427.812 34.5624C426.986 35.6606 427.207 37.2212 428.306 38.0482C429.405 38.8752 430.966 38.6554 431.792 37.5573C432.618 36.4591 432.397 34.8985 431.298 34.0715Z" fill="#0074FF"/>
<path d="M442.48 97.3098L443.576 97.444L446.439 73.9146L445.343 73.7804L442.48 97.3098Z" fill="#0074FF"/>
<path d="M445.494 97.6776C445.326 99.0345 444.089 100.014 442.732 99.8442C441.374 99.6748 440.394 98.4377 440.562 97.0807C440.731 95.7238 441.967 94.7447 443.325 94.9141C444.682 95.0835 445.662 96.3206 445.494 97.6776Z" fill="#0074FF"/>
<path d="M421.422 107.148L443.241 97.8871L442.809 96.8712L420.99 106.132L421.422 107.148Z" fill="#0074FF"/>
<path d="M422.191 108.933C420.934 109.471 419.466 108.881 418.927 107.624C418.389 106.366 418.977 104.9 420.244 104.369C421.501 103.832 422.969 104.422 423.5 105.688C424.039 106.946 423.45 108.412 422.184 108.943L422.191 108.933Z" fill="#0074FF"/>
<path d="M401.927 92.8197L420.88 107.08L421.543 106.199L402.591 91.9381L401.927 92.8197Z" fill="#0074FF"/>
<path d="M403.755 90.3906C402.656 89.5636 401.095 89.7834 400.269 90.8815C399.443 91.9797 399.664 93.5403 400.763 94.3673C401.862 95.1943 403.423 94.9745 404.249 93.8763C405.075 92.7782 404.854 91.2176 403.755 90.3906Z" fill="#0074FF"/>
<path d="M401.705 92.3228L402.801 92.457L405.664 68.9276L404.569 68.7934L401.705 92.3228Z" fill="#0074FF"/>
<path d="M402.648 68.5523C402.816 67.1954 404.053 66.2163 405.41 66.3857C406.768 66.5551 407.748 67.7922 407.573 69.1585C407.404 70.5155 406.168 71.4946 404.81 71.3252C403.453 71.1558 402.473 69.9186 402.641 68.5617L402.648 68.5523Z" fill="#0074FF"/>
<path d="M405.334 69.3682L427.153 60.1071L426.72 59.0912L404.902 68.3523L405.334 69.3682Z" fill="#0074FF"/>
<path d="M425.961 57.3036C427.218 56.766 428.685 57.3559 429.217 58.6227C429.756 59.88 429.167 61.3465 427.9 61.8771C426.643 62.4147 425.176 61.8247 424.644 60.558C424.105 59.3006 424.694 57.8341 425.961 57.3036Z" fill="#0074FF"/>
<path d="M426.606 60.0218L445.558 74.2824L446.222 73.4008L427.269 59.1401L426.606 60.0218Z" fill="#0074FF"/>
<path d="M447.379 71.8626C448.477 72.689 448.699 74.2511 447.873 75.3484C447.047 76.4457 445.485 76.6657 444.387 75.8393C443.289 75.0129 443.067 73.4509 443.893 72.3536C444.719 71.2563 446.281 71.0362 447.379 71.8626Z" fill="#0074FF"/>
<path d="M462.205 112.139L484.023 102.878L483.591 101.862L461.773 111.123L462.205 112.139Z" fill="#0074FF"/>
<path d="M462.95 113.927C461.693 114.464 460.226 113.874 459.694 112.607C459.155 111.35 459.744 109.884 461.011 109.353C462.268 108.815 463.735 109.405 464.267 110.672C464.806 111.93 464.217 113.396 462.95 113.927Z" fill="#0074FF"/>
<path d="M442.697 97.82L461.649 112.081L462.312 111.199L443.36 96.9384L442.697 97.82Z" fill="#0074FF"/>
<path d="M444.524 95.3909C443.425 94.5639 441.864 94.7837 441.038 95.8818C440.212 96.9799 440.433 98.5405 441.532 99.3675C442.631 100.194 444.192 99.9747 445.018 98.8766C445.845 97.7785 445.623 96.2178 444.524 95.3909Z" fill="#0074FF"/>
<path d="M442.48 97.3098L443.576 97.444L446.439 73.9146L445.343 73.7804L442.48 97.3098Z" fill="#0074FF"/>
<path d="M443.424 73.5432C443.593 72.1862 444.829 71.2071 446.187 71.3765C447.544 71.5459 448.524 72.783 448.356 74.14C448.188 75.4969 446.951 76.476 445.594 76.3066C444.236 76.1372 443.256 74.9001 443.424 73.5432Z" fill="#0074FF"/>
<path d="M446.106 74.3353L467.926 65.078L467.494 64.0619L445.674 73.3193L446.106 74.3353Z" fill="#0074FF"/>
<path d="M466.728 62.2874C467.985 61.7498 469.452 62.3397 469.984 63.6065C470.523 64.8638 469.934 66.3303 468.667 66.8608C467.41 67.3984 465.943 66.8085 465.411 65.5417C464.872 64.2844 465.461 62.8179 466.728 62.2874Z" fill="#0074FF"/>
<path d="M458.785 135.602L477.737 149.862L478.401 148.981L459.448 134.72L458.785 135.602Z" fill="#0074FF"/>
<path d="M457.62 137.149C456.522 136.323 456.301 134.761 457.126 133.664C457.952 132.566 459.514 132.346 460.613 133.173C461.711 133.999 461.932 135.561 461.107 136.658C460.281 137.756 458.719 137.976 457.62 137.149Z" fill="#0074FF"/>
<path d="M458.555 135.106L459.651 135.24L462.514 111.711L461.418 111.577L458.555 135.106Z" fill="#0074FF"/>
<path d="M459.505 111.334C459.674 109.977 460.91 108.998 462.268 109.168C463.625 109.337 464.606 110.574 464.43 111.941C464.262 113.298 463.025 114.277 461.668 114.107C460.31 113.938 459.33 112.701 459.498 111.344L459.505 111.334Z" fill="#0074FF"/>
<path d="M462.205 112.139L484.023 102.878L483.591 101.862L461.773 111.123L462.205 112.139Z" fill="#0074FF"/>
<path d="M482.818 100.086C484.075 99.548 485.543 100.138 486.075 101.405C486.613 102.662 486.024 104.129 484.758 104.659C483.501 105.197 482.033 104.607 481.502 103.34C480.963 102.083 481.552 100.616 482.818 100.086Z" fill="#0074FF"/>
<path d="M410.301 21.7298L411.397 21.864L414.26 -1.6654L413.164 -1.79957L410.301 21.7298Z" fill="#0074FF"/>
<path d="M413.315 22.0976C413.147 23.4545 411.91 24.4336 410.553 24.2642C409.196 24.0948 408.215 22.8577 408.391 21.4914C408.559 20.1344 409.795 19.1554 411.153 19.3248C412.51 19.4942 413.491 20.7313 413.322 22.0882L413.315 22.0976Z" fill="#0074FF"/>
<path d="M389.254 31.5415L411.074 22.2842L410.642 21.2682L388.822 30.5254L389.254 31.5415Z" fill="#0074FF"/>
<path d="M390.012 33.3534C388.755 33.891 387.287 33.301 386.756 32.0343C386.217 30.7769 386.806 29.3105 388.072 28.7799C389.329 28.2423 390.797 28.8323 391.329 30.099C391.867 31.3564 391.278 32.8229 390.012 33.3534Z" fill="#0074FF"/>
<path d="M369.748 17.2398L388.701 31.5004L389.364 30.6188L370.412 16.3581L369.748 17.2398Z" fill="#0074FF"/>
<path d="M368.584 18.7873C367.486 17.9609 367.264 16.3989 368.09 15.3015C368.916 14.2042 370.478 13.9842 371.576 14.8106C372.675 15.637 372.896 17.199 372.07 18.2964C371.245 19.3937 369.682 19.6137 368.584 18.7873Z" fill="#0074FF"/>
<path d="M430.017 36.5659L451.836 27.3048L451.404 26.2888L429.585 35.5499L430.017 36.5659Z" fill="#0074FF"/>
<path d="M430.772 38.3466C429.514 38.8842 428.047 38.2942 427.508 37.0369C426.97 35.7795 427.558 34.313 428.825 33.7825C430.082 33.2449 431.55 33.8348 432.081 35.1016C432.62 36.3589 432.031 37.8254 430.765 38.356L430.772 38.3466Z" fill="#0074FF"/>
<path d="M410.518 22.24L429.47 36.5007L430.134 35.619L411.181 21.3584L410.518 22.24Z" fill="#0074FF"/>
<path d="M412.345 19.8108C411.246 18.9839 409.686 19.2037 408.859 20.3018C408.033 21.3999 408.254 22.9605 409.353 23.7875C410.452 24.6145 412.013 24.3947 412.839 23.2966C413.666 22.1985 413.445 20.6378 412.345 19.8108Z" fill="#0074FF"/>
<path d="M410.301 21.7298L411.397 21.864L414.26 -1.6654L413.164 -1.79957L410.301 21.7298Z" fill="#0074FF"/>
<path d="M411.245 -2.03678C411.414 -3.39372 412.65 -4.37284 414.008 -4.20342C415.365 -4.03403 416.345 -2.7969 416.17 -1.43059C416.002 -0.0736455 414.765 0.905446 413.408 0.736026C412.05 0.56663 411.07 -0.670471 411.238 -2.02742L411.245 -2.03678Z" fill="#0074FF"/>
<path d="M446.106 74.3353L467.926 65.078L467.494 64.0619L445.674 73.3193L446.106 74.3353Z" fill="#0074FF"/>
<path d="M446.869 76.1354C445.612 76.673 444.145 76.083 443.613 74.8163C443.074 73.5589 443.663 72.0925 444.93 71.5619C446.196 71.0314 447.654 71.6143 448.186 72.881C448.725 74.1384 448.136 75.6049 446.869 76.1354Z" fill="#0074FF"/>
<path d="M426.606 60.0218L445.558 74.2824L446.222 73.4008L427.269 59.1401L426.606 60.0218Z" fill="#0074FF"/>
<path d="M425.442 61.5693C424.343 60.7429 424.122 59.1809 424.948 58.0835C425.773 56.9862 427.335 56.7662 428.434 57.5926C429.532 58.419 429.753 59.981 428.928 61.0783C428.102 62.1757 426.54 62.3957 425.442 61.5693Z" fill="#0074FF"/>
<path d="M426.383 59.5167L427.479 59.6509L430.342 36.1215L429.246 35.9873L426.383 59.5167Z" fill="#0074FF"/>
<path d="M427.327 35.7544C427.495 34.3974 428.732 33.4183 430.089 33.5877C431.446 33.7571 432.427 34.9942 432.258 36.3512C432.09 37.7081 430.854 38.6872 429.496 38.5178C428.139 38.3484 427.158 37.1113 427.327 35.7544Z" fill="#0074FF"/>
<path d="M430.017 36.5659L451.836 27.3048L451.404 26.2888L429.585 35.5499L430.017 36.5659Z" fill="#0074FF"/>
<path d="M450.639 24.5056C451.897 23.968 453.364 24.5579 453.903 25.8153C454.442 27.0727 453.853 28.5391 452.586 29.0697C451.329 29.6073 449.862 29.0173 449.33 27.7506C448.791 26.4932 449.38 25.0268 450.646 24.4962L450.639 24.5056Z" fill="#0074FF"/>
</svg>
